<?xml version="1.0" encoding="UTF-8"?>
<svg width="1399px" height="309px" viewBox="0 0 1399 309" version="1.1" xmlns="http://www.w3.org/2000/svg" xmlns:xlink="http://www.w3.org/1999/xlink">
    <title>aduroidea</title>
    <g id="Page-1" stroke="none" stroke-width="1" fill="none" fill-rule="evenodd">
        <g id="aduroidea" fill="#FFFFFF" fill-rule="nonzero">
            <path d="M77.2,175.1 L66.5,186 L0,130.3 L66.5,74.6 L77.3,85.6 L23.4,130.1 L77.2,175.1 Z M177.4,184.4 L177,171 C171.6,176.4 166.1,180.2 160.5,182.6 C154.9,185 149.1,186.2 142.9,186.2 C137.2,186.2 132.4,185.5 128.4,184 C124.4,182.5 121.1,180.5 118.5,178 C115.9,175.5 114,172.5 112.8,169 C111.6,165.6 111,161.8 111,157.8 C111,147.8 114.7,140 122.1,134.3 C129.5,128.6 140.5,125.8 155,125.8 L175.6,125.8 L175.6,117.1 C175.6,111.2 173.7,106.5 170,103 C166.3,99.5 160.5,97.7 152.8,97.7 C147.2,97.7 141.7,98.3 136.2,99.6 C130.8,100.9 125.1,102.6 119.3,105 L119.3,89.4 C121.5,88.6 123.9,87.8 126.6,87.1 C129.3,86.3 132.1,85.7 135.1,85.1 C138.1,84.5 141.2,84 144.4,83.7 C147.6,83.3 150.9,83.2 154.2,83.2 C160.2,83.2 165.6,83.9 170.4,85.2 C175.2,86.5 179.3,88.5 182.6,91.3 C185.9,94 188.5,97.4 190.3,101.5 C192.1,105.6 193,110.4 193,116 L193,184.7 L177.4,184.7 L177.4,184.4 Z M175.6,139 L153.7,139 C149.4,139 145.7,139.4 142.6,140.3 C139.5,141.2 137,142.4 135,144 C133,145.6 131.6,147.5 130.6,149.7 C129.6,151.9 129.2,154.4 129.2,157.2 C129.2,159.1 129.5,161 130.1,162.7 C130.7,164.5 131.6,166 133,167.4 C134.3,168.8 136,169.8 138.1,170.6 C140.2,171.4 142.8,171.8 145.8,171.8 C149.8,171.8 154.3,170.6 159.4,168.2 C164.5,165.8 169.9,162 175.6,156.7 L175.6,139 Z M220,136.7 C220,128.2 221.2,120.7 223.5,114.1 C225.8,107.5 229.1,102 233.3,97.4 C237.6,92.9 242.7,89.4 248.6,87.1 C254.6,84.8 261.2,83.6 268.5,83.6 C271.7,83.6 274.8,83.8 277.8,84.2 C280.9,84.6 283.9,85.2 286.9,86.1 L286.9,44.2 L304.2,44.2 L304.2,184.5 L288.8,184.5 L288.2,165.6 C283.4,172.6 278.2,177.8 272.6,181.2 C267,184.6 260.9,186.3 254.4,186.3 C248.7,186.3 243.7,185.1 239.4,182.7 C235.1,180.3 231.5,177 228.6,172.6 C225.7,168.3 223.6,163.1 222.1,157 C220.7,150.8 220,144.1 220,136.7 Z M237.6,135.6 C237.6,147.6 239.4,156.6 242.9,162.6 C246.4,168.5 251.4,171.5 257.9,171.5 C262.3,171.5 266.9,169.5 271.7,165.6 C276.5,161.7 281.6,155.9 287,148.2 L287,101.9 C284.2,100.6 281,99.6 277.6,98.9 C274.2,98.2 270.8,97.9 267.4,97.9 C258,97.9 250.7,100.9 245.5,107 C240.2,113.1 237.6,122.6 237.6,135.6 Z M416.2,184.4 L400.8,184.4 L400.2,168.3 C397.2,171.7 394.4,174.6 391.7,176.9 C389,179.2 386.4,181 383.7,182.4 C381.1,183.8 378.4,184.8 375.7,185.3 C373,185.9 370.2,186.1 367.2,186.1 C357,186.1 349.3,183.1 344.1,177.1 C338.9,171.1 336.3,162 336.3,149.8 L336.3,84.7 L353.5,84.7 L353.5,148.4 C353.5,163.7 359.2,171.3 370.7,171.3 C372.8,171.3 374.9,171 376.9,170.4 C378.9,169.8 381,168.7 383.2,167.1 C385.4,165.5 387.8,163.4 390.3,160.8 C392.8,158.2 395.7,154.8 398.9,150.8 L398.9,84.7 L416.1,84.7 L416.1,184.4 L416.2,184.4 Z M451.8,84.7 L467.5,84.7 L468,103.1 C473.9,96 479.7,90.9 485.4,87.7 C491.1,84.5 496.9,82.9 502.7,82.9 C513,82.9 520.8,86.2 526.1,92.9 C531.4,99.6 533.9,109.5 533.5,122.7 L516,122.7 C516.2,114 514.9,107.6 512.2,103.7 C509.5,99.8 505.5,97.8 500.2,97.8 C497.9,97.8 495.6,98.2 493.2,99 C490.9,99.8 488.5,101.2 486,103 C483.5,104.8 480.9,107.2 478.1,110 C475.3,112.8 472.4,116.3 469.2,120.3 L469.2,184.3 L451.8,184.3 L451.8,84.7 Z M866,136.7 C866,128.2 867.2,120.7 869.5,114.1 C871.8,107.5 875.1,102 879.3,97.4 C883.6,92.9 888.7,89.4 894.6,87.1 C900.5,84.8 907.2,83.6 914.5,83.6 C917.7,83.6 920.8,83.8 923.8,84.2 C926.9,84.6 929.9,85.2 932.9,86.1 L932.9,44.2 L950.2,44.2 L950.2,184.5 L934.8,184.5 L934.2,165.6 C929.4,172.6 924.2,177.8 918.6,181.2 C913,184.6 906.9,186.3 900.4,186.3 C894.7,186.3 889.7,185.1 885.4,182.7 C881.1,180.3 877.5,177 874.6,172.6 C871.7,168.3 869.6,163.1 868.1,157 C866.7,150.8 866,144.1 866,136.7 Z M883.6,135.6 C883.6,147.6 885.4,156.6 888.9,162.6 C892.4,168.5 897.4,171.5 903.9,171.5 C908.3,171.5 912.9,169.5 917.7,165.6 C922.5,161.7 927.6,155.9 933,148.2 L933,101.9 C930.2,100.6 927,99.6 923.6,98.9 C920.2,98.2 916.8,97.9 913.4,97.9 C904,97.9 896.7,100.9 891.5,107 C886.2,113.1 883.6,122.6 883.6,135.6 Z M1066.3,129.3 C1066.3,131.7 1066.3,133.8 1066.2,135.5 C1066.1,137.2 1066,138.7 1065.9,140.2 L996.2,140.2 C996.2,150.4 999,158.2 1004.7,163.7 C1010.4,169.2 1018.5,171.9 1029.2,171.9 C1032.1,171.9 1035,171.8 1037.9,171.6 C1040.8,171.4 1043.6,171.1 1046.3,170.7 C1049,170.3 1051.6,169.9 1054.1,169.4 C1056.6,168.9 1058.9,168.4 1061,167.8 L1061,182 C1056.3,183.3 1051,184.4 1045.1,185.2 C1039.2,186 1033.1,186.4 1026.8,186.4 C1018.3,186.4 1011,185.2 1004.8,182.9 C998.7,180.6 993.6,177.2 989.7,172.8 C985.8,168.4 982.9,163 981,156.6 C979.1,150.2 978.2,143 978.2,134.9 C978.2,127.9 979.2,121.2 981.2,115 C983.2,108.7 986.1,103.3 990,98.5 C993.9,93.8 998.6,90 1004.2,87.2 C1009.8,84.4 1016.2,83 1023.3,83 C1030.2,83 1036.4,84.1 1041.7,86.3 C1047,88.5 1051.5,91.6 1055.2,95.6 C1058.9,99.6 1061.6,104.5 1063.5,110.2 C1065.3,115.8 1066.3,122.2 1066.3,129.3 Z M1048.4,126.8 C1048.6,122.4 1048.2,118.3 1047.1,114.6 C1046,110.9 1044.4,107.8 1042.2,105.1 C1040,102.5 1037.2,100.4 1033.9,98.9 C1030.6,97.4 1026.8,96.7 1022.4,96.7 C1018.6,96.7 1015.2,97.4 1012.1,98.9 C1009,100.4 1006.3,102.4 1004.1,105.1 C1001.9,107.7 1000,110.9 998.7,114.6 C997.3,118.3 996.5,122.4 996.1,126.8 L1048.4,126.8 Z M1157.6,184.4 L1157.2,171 C1151.8,176.4 1146.3,180.2 1140.7,182.6 C1135.1,185 1129.3,186.2 1123.1,186.2 C1117.4,186.2 1112.6,185.5 1108.6,184 C1104.6,182.5 1101.3,180.5 1098.7,178 C1096.1,175.5 1094.2,172.5 1093,169 C1091.8,165.6 1091.2,161.8 1091.2,157.8 C1091.2,147.8 1094.9,140 1102.3,134.3 C1109.7,128.6 1120.7,125.8 1135.2,125.8 L1155.8,125.8 L1155.8,117.1 C1155.8,111.2 1153.9,106.5 1150.2,103 C1146.4,99.5 1140.7,97.7 1133,97.7 C1127.4,97.7 1121.9,98.3 1116.4,99.6 C1111,100.9 1105.3,102.6 1099.5,105 L1099.5,89.4 C1101.7,88.6 1104.1,87.8 1106.8,87.1 C1109.5,86.3 1112.3,85.7 1115.3,85.1 C1118.3,84.5 1121.4,84 1124.6,83.7 C1127.8,83.3 1131.1,83.2 1134.4,83.2 C1140.4,83.2 1145.8,83.9 1150.6,85.2 C1155.4,86.5 1159.5,88.5 1162.8,91.3 C1166.1,94 1168.7,97.4 1170.5,101.5 C1172.3,105.6 1173.2,110.4 1173.2,116 L1173.2,184.7 L1157.6,184.7 L1157.6,184.4 Z M1155.7,139 L1133.8,139 C1129.5,139 1125.8,139.4 1122.7,140.3 C1119.6,141.2 1117.1,142.4 1115.1,144 C1113.1,145.6 1111.7,147.5 1110.7,149.7 C1109.7,151.9 1109.3,154.4 1109.3,157.2 C1109.3,159.1 1109.6,161 1110.2,162.7 C1110.8,164.5 1111.7,166 1113.1,167.4 C1114.4,168.8 1116.1,169.8 1118.2,170.6 C1120.3,171.4 1122.9,171.8 1125.9,171.8 C1129.9,171.8 1134.4,170.6 1139.5,168.2 C1144.6,165.8 1150,162 1155.7,156.7 L1155.7,139 Z M1285,44.1 L1217.1,205.7 L1200.7,205.7 L1268.6,44.1 L1285,44.1 Z M1321.4,85.6 L1332.1,74.6 L1398.6,130.3 L1332,186 L1321.3,175.1 L1375.2,130.5 L1321.4,85.6 Z M586.3,167.6 L698.3,84.8 C698.4,87.9 698.5,91.1 698.5,94.4 C698.5,108.3 697.1,121 694.3,132.4 C691.5,143.9 687.3,153.7 681.7,161.9 C676,170.1 669.1,176.4 660.7,180.9 C652.4,185.4 642.6,187.6 631.3,187.6 C621.6,187.6 612.7,185.8 604.8,182.1 C597.7,178.8 591.5,174 586.3,167.6 Z M689.3,38.9 L710.7,23.2 L710.7,48.9 L695.6,60 C695.6,60 695.6,60.1 695.6,60.1 L565.9,155.8 L565.9,155.9 L551.8,166.3 L551.8,139.6 L569.4,126.7 C567.7,117.1 566.8,106.2 566.8,94.2 C566.8,80.3 568.2,67.6 571,56.1 C573.8,44.6 578,34.8 583.6,26.6 C589.2,18.4 596.2,12.1 604.6,7.6 C613,3.1 622.8,0.9 634,0.9 C643.6,0.9 652.5,2.7 660.4,6.4 C668.4,10.1 675.2,15.8 680.8,23.4 C684.1,27.8 686.9,33 689.3,38.9 Z M845.8,184.4 L732.1,184.4 L732.1,161.9 L778.6,161.9 L778.6,29.3 L735.2,61.7 L735.2,36.5 L784,2 L805.3,2 L805.3,162 L845.7,162 L845.7,184.4 L845.8,184.4 Z M44,254.9 L40.5,307.6 L31.2,307.6 L24.7,288.9 L22.9,282.9 L21,289.4 L15,307.7 L6,307.7 L2.4,255 L9.1,255 L11.1,290.8 L11.7,300.6 L14.2,292.3 L20.5,272.7 L25.4,272.7 L32.7,293.7 L35.2,300.6 L35.4,293.3 L37.5,254.9 L44,254.9 Z M100.1,307.6 L70.3,307.6 L70.3,254.9 L100.1,254.9 L100.1,260.9 L77.4,260.9 L77.4,277.2 L99.2,277.2 L99.2,283.2 L77.4,283.2 L77.4,301.3 L100.1,301.3 L100.1,307.6 Z M228.8,307.6 L221.8,307.6 L220.8,274.7 L220.4,262.1 L217.9,269.4 L210.1,290.4 L205.2,290.4 L197.8,270.2 L195.3,262.1 L195.1,275.3 L194.2,307.6 L187.5,307.6 L190.1,254.9 L198.6,254.9 L205.7,274.7 L208,281.4 L210.2,274.7 L217.6,254.9 L226.3,254.9 L228.8,307.6 Z M292.1,307.6 L284.3,307.6 L280.6,296.1 L258.7,296.1 L255,307.6 L247.6,307.6 L265,254.9 L274.8,254.9 L292.1,307.6 Z M278.6,289.7 L269.7,261.5 L260.8,289.7 L278.6,289.7 Z M351,307.6 L342,307.6 L322.4,281.8 L322.4,307.6 L315.2,307.6 L315.2,254.9 L322.4,254.9 L322.4,279.4 L341.6,254.9 L350.1,254.9 L329.4,279.9 L351,307.6 Z M408.6,307.6 L378.8,307.6 L378.8,254.9 L408.6,254.9 L408.6,260.9 L385.9,260.9 L385.9,277.2 L407.7,277.2 L407.7,283.2 L385.9,283.2 L385.9,301.3 L408.6,301.3 L408.6,307.6 Z M513,260.9 L500.9,260.9 L500.9,254.9 L532.3,254.9 L532.3,260.9 L520.2,260.9 L520.2,301.4 L532.3,301.4 L532.3,307.5 L500.9,307.5 L500.9,301.4 L513,301.4 L513,260.9 Z M597.5,261 L582,261 L582,307.6 L574.8,307.6 L574.8,261 L559.3,261 L559.3,254.9 L597.6,254.9 L597.6,261 L597.5,261 Z M722.5,254.9 L719,307.6 L709.7,307.6 L703.2,288.9 L701.4,282.9 L699.5,289.4 L693.5,307.7 L684.5,307.7 L680.9,255 L687.6,255 L689.6,290.8 L690.2,300.6 L692.7,292.3 L699,272.7 L703.9,272.7 L711.2,293.7 L713.6,300.6 L713.8,293.3 L715.9,254.9 L722.5,254.9 Z M783.8,280.9 C783.8,285.6 783.2,289.7 782.1,293.2 C781,296.6 779.5,299.5 777.6,301.7 C775.7,303.9 773.5,305.6 771,306.7 C768.5,307.8 765.8,308.3 763,308.3 C759.6,308.3 756.7,307.7 754.2,306.5 C751.7,305.3 749.6,303.5 748,301.2 C746.4,298.9 745.1,296.1 744.3,292.8 C743.5,289.5 743.1,285.7 743.1,281.6 C743.1,276.9 743.6,272.9 744.7,269.4 C745.8,266 747.3,263.1 749.2,260.9 C751.1,258.7 753.3,257 755.8,255.9 C758.3,254.8 761,254.3 763.8,254.3 C767.2,254.3 770.1,254.9 772.6,256.2 C775.1,257.4 777.2,259.2 778.8,261.5 C780.5,263.8 781.7,266.6 782.5,269.9 C783.4,273 783.8,276.8 783.8,280.9 Z M776.3,281.4 C776.3,278.3 776.1,275.5 775.6,272.9 C775.1,270.3 774.4,268.1 773.3,266.3 C772.3,264.4 770.9,263 769.3,262 C767.7,261 765.7,260.5 763.3,260.5 C761.1,260.5 759.1,261 757.5,262.1 C755.9,263.2 754.5,264.7 753.5,266.5 C752.5,268.4 751.7,270.6 751.2,273.1 C750.7,275.6 750.4,278.3 750.4,281.1 C750.4,284.2 750.6,287.1 751.1,289.6 C751.6,292.2 752.3,294.4 753.4,296.2 C754.4,298 755.8,299.5 757.4,300.5 C759,301.5 761,302 763.3,302 C765.5,302 767.5,301.5 769.1,300.4 C770.7,299.3 772.1,297.8 773.1,296 C774.2,294.1 774.9,291.9 775.5,289.4 C776.1,286.9 776.3,284.3 776.3,281.4 Z M844.7,307.6 L836.6,307.6 L828.8,290.7 C828.2,289.4 827.6,288.3 827,287.5 C826.4,286.7 825.7,286 825,285.5 C824.3,285 823.5,284.6 822.7,284.4 C821.9,284.2 820.9,284.1 819.9,284.1 L816.5,284.1 L816.5,307.6 L809.3,307.6 L809.3,254.9 L823.4,254.9 C826.5,254.9 829.1,255.2 831.3,255.9 C833.5,256.6 835.3,257.5 836.7,258.7 C838.1,259.9 839.1,261.4 839.8,263.1 C840.5,264.8 840.8,266.7 840.8,268.8 C840.8,270.4 840.6,272 840.1,273.5 C839.6,275 838.9,276.3 838,277.5 C837.1,278.7 835.9,279.7 834.5,280.6 C833.1,281.5 831.5,282.1 829.7,282.6 C831.2,283.1 832.4,284 833.5,285.3 C834.5,286.6 835.6,288.3 836.7,290.4 L844.7,307.6 Z M833.2,269.4 C833.2,266.6 832.3,264.5 830.6,263.1 C828.8,261.7 826.4,261 823.2,261 L816.5,261 L816.5,278.4 L822.3,278.4 C824,278.4 825.5,278.2 826.9,277.8 C828.3,277.4 829.4,276.8 830.4,276.1 C831.3,275.3 832.1,274.4 832.6,273.3 C832.9,272.1 833.2,270.8 833.2,269.4 Z M906.2,307.6 L897.2,307.6 L877.6,281.8 L877.6,307.6 L870.4,307.6 L870.4,254.9 L877.6,254.9 L877.6,279.4 L896.8,254.9 L905.3,254.9 L884.6,279.9 L906.2,307.6 Z M1025.3,261 L1003,261 L1003,278.1 L1024.1,278.1 L1024.1,284.1 L1003,284.1 L1003,307.6 L995.7,307.6 L995.7,254.9 L1025.3,254.9 L1025.3,261 Z M1092.2,280.9 C1092.2,285.6 1091.6,289.7 1090.5,293.2 C1089.4,296.6 1087.9,299.5 1086,301.7 C1084.1,303.9 1081.9,305.6 1079.4,306.7 C1076.9,307.8 1074.2,308.3 1071.4,308.3 C1068,308.3 1065.1,307.7 1062.6,306.5 C1060.1,305.3 1058,303.5 1056.4,301.2 C1054.8,298.9 1053.5,296.1 1052.7,292.8 C1051.9,289.5 1051.5,285.7 1051.5,281.6 C1051.5,276.9 1052,272.9 1053.1,269.4 C1054.2,266 1055.7,263.1 1057.6,260.9 C1059.5,258.7 1061.7,257 1064.2,255.9 C1066.7,254.8 1069.4,254.3 1072.2,254.3 C1075.6,254.3 1078.5,254.9 1081,256.2 C1083.5,257.4 1085.6,259.2 1087.2,261.5 C1088.9,263.8 1090.1,266.6 1090.9,269.9 C1091.8,273 1092.2,276.8 1092.2,280.9 Z M1084.8,281.4 C1084.8,278.3 1084.6,275.5 1084.1,272.9 C1083.6,270.3 1082.9,268.1 1081.8,266.3 C1080.8,264.4 1079.4,263 1077.8,262 C1076.2,261 1074.2,260.5 1071.8,260.5 C1069.6,260.5 1067.6,261 1066,262.1 C1064.4,263.2 1063,264.7 1062,266.5 C1061,268.4 1060.2,270.6 1059.7,273.1 C1059.2,275.6 1058.9,278.3 1058.9,281.1 C1058.9,284.2 1059.1,287.1 1059.6,289.6 C1060.1,292.2 1060.8,294.4 1061.9,296.2 C1062.9,298 1064.3,299.5 1065.9,300.5 C1067.5,301.5 1069.5,302 1071.8,302 C1074,302 1076,301.5 1077.6,300.4 C1079.2,299.3 1080.6,297.8 1081.6,296 C1082.7,294.1 1083.4,291.9 1084,289.4 C1084.5,286.9 1084.8,284.3 1084.8,281.4 Z M1153.1,307.6 L1145,307.6 L1137.2,290.7 C1136.6,289.4 1136,288.3 1135.4,287.5 C1134.8,286.7 1134.1,286 1133.4,285.5 C1132.7,285 1131.9,284.6 1131.1,284.4 C1130.3,284.2 1129.3,284.1 1128.3,284.1 L1124.9,284.1 L1124.9,307.6 L1117.7,307.6 L1117.7,254.9 L1131.8,254.9 C1134.9,254.9 1137.5,255.2 1139.7,255.9 C1141.9,256.6 1143.7,257.5 1145.1,258.7 C1146.5,259.9 1147.5,261.4 1148.2,263.1 C1148.9,264.8 1149.2,266.7 1149.2,268.8 C1149.2,270.4 1149,272 1148.5,273.5 C1148,275 1147.3,276.3 1146.4,277.5 C1145.5,278.7 1144.3,279.7 1142.9,280.6 C1141.5,281.5 1139.9,282.1 1138.1,282.6 C1139.6,283.1 1140.8,284 1141.9,285.3 C1142.9,286.6 1144,288.3 1145.1,290.4 L1153.1,307.6 Z M1141.6,269.4 C1141.6,266.6 1140.7,264.5 1139,263.1 C1137.2,261.7 1134.8,261 1131.6,261 L1124.9,261 L1124.9,278.4 L1130.7,278.4 C1132.4,278.4 1133.9,278.2 1135.3,277.8 C1136.7,277.4 1137.8,276.8 1138.8,276.1 C1139.7,275.3 1140.5,274.4 1141,273.3 C1141.4,272.1 1141.6,270.8 1141.6,269.4 Z M1279.5,254.9 L1260.5,288.8 L1260.5,307.6 L1253.3,307.6 L1253.3,288.6 L1234.3,254.9 L1242.9,254.9 L1253.3,274.2 L1257.2,281.9 L1260.7,274.9 L1271.3,254.9 L1279.5,254.9 Z M1338.9,280.9 C1338.9,285.6 1338.3,289.7 1337.2,293.2 C1336.1,296.6 1334.6,299.5 1332.7,301.7 C1330.8,303.9 1328.6,305.6 1326.1,306.7 C1323.6,307.8 1320.9,308.3 1318.1,308.3 C1314.7,308.3 1311.8,307.7 1309.3,306.5 C1306.8,305.3 1304.7,303.5 1303.1,301.2 C1301.5,298.9 1300.2,296.1 1299.4,292.8 C1298.6,289.5 1298.2,285.7 1298.2,281.6 C1298.2,276.9 1298.7,272.9 1299.8,269.4 C1300.9,266 1302.4,263.1 1304.3,260.9 C1306.2,258.7 1308.4,257 1310.9,255.9 C1313.4,254.8 1316.1,254.3 1318.9,254.3 C1322.3,254.3 1325.2,254.9 1327.7,256.2 C1330.2,257.4 1332.3,259.2 1333.9,261.5 C1335.6,263.8 1336.8,266.6 1337.6,269.9 C1338.5,273 1338.9,276.8 1338.9,280.9 Z M1331.5,281.4 C1331.5,278.3 1331.3,275.5 1330.8,272.9 C1330.3,270.3 1329.6,268.1 1328.5,266.3 C1327.5,264.4 1326.1,263 1324.5,262 C1322.9,261 1320.9,260.5 1318.5,260.5 C1316.3,260.5 1314.3,261 1312.7,262.1 C1311.1,263.2 1309.7,264.7 1308.7,266.5 C1307.7,268.4 1306.9,270.6 1306.4,273.1 C1305.9,275.6 1305.6,278.3 1305.6,281.1 C1305.6,284.2 1305.8,287.1 1306.3,289.6 C1306.8,292.2 1307.5,294.4 1308.6,296.2 C1309.6,298 1311,299.5 1312.6,300.5 C1314.2,301.5 1316.2,302 1318.5,302 C1320.7,302 1322.7,301.5 1324.3,300.4 C1325.9,299.3 1327.3,297.8 1328.3,296 C1329.4,294.1 1330.1,291.9 1330.7,289.4 C1331.3,286.9 1331.5,284.3 1331.5,281.4 Z M1398.5,289.2 C1398.5,292.1 1398.1,294.7 1397.3,297.1 C1396.5,299.5 1395.3,301.5 1393.7,303.1 C1392.1,304.8 1390.2,306 1387.9,306.9 C1385.6,307.8 1383,308.3 1380,308.3 C1376.7,308.3 1374,307.9 1371.7,307 C1369.4,306.1 1367.6,304.9 1366.1,303.4 C1364.7,301.8 1363.6,299.9 1363,297.7 C1362.3,295.5 1362,293 1362,290.3 L1362,254.9 L1369.2,254.9 L1369.2,289.8 C1369.2,291.9 1369.4,293.7 1369.8,295.2 C1370.2,296.8 1370.8,298.1 1371.7,299.1 C1372.6,300.1 1373.7,300.9 1375.1,301.5 C1376.5,302 1378.2,302.3 1380.3,302.3 C1384.1,302.3 1386.9,301.2 1388.7,299 C1390.5,296.8 1391.4,293.7 1391.4,289.7 L1391.4,254.9 L1398.6,254.9 L1398.6,289.2 L1398.5,289.2 Z M1396.9,231.5 L1.6,231.5 C1.3,231.5 1.1,231.3 1.1,231 L1.1,228.7 C1.1,228.4 1.3,228.2 1.6,228.2 L1396.8,228.2 C1397.1,228.2 1397.3,228.4 1397.3,228.7 L1397.3,231 C1397.3,231.3 1397.1,231.5 1396.9,231.5 Z" id="Combined-Shape"></path>
        </g>
    </g>
</svg>