<?xml version="1.0" encoding="UTF-8"?>
<svg width="500px" height="92px" viewBox="0 0 500 92" version="1.1" xmlns="http://www.w3.org/2000/svg" xmlns:xlink="http://www.w3.org/1999/xlink">
    <title>arsfutura</title>
    <g id="Page-1" stroke="none" stroke-width="1" fill="none" fill-rule="evenodd">
        <g id="arsfutura" fill="#FFFFFF" fill-rule="nonzero">
            <path d="M62.1984127,89.7380952 L46.5555556,89.7380952 L46.5555556,83.1825397 C44.5581297,85.6214795 42.0722825,87.6152939 39.2579365,89.0357143 C36.3531746,90.5238095 32.8571429,91.2698413 28.7698413,91.2698413 C24.6825397,91.2698413 20.8730159,90.4761905 17.3611111,88.8809524 C13.9040973,87.3320694 10.7946032,85.102519 8.21825397,82.3253968 C5.58412403,79.4501799 3.53418074,76.0902137 2.18253968,72.4325397 C0.726190476,68.6150794 0,64.484127 0,60.031746 C0,55.5793651 0.726190476,51.4444444 2.17857143,47.6269841 C3.53021249,43.9693101 5.58015578,40.6093439 8.21428571,37.734127 C10.7936508,34.9563492 13.8373016,32.7738095 17.3571429,31.1785714 C20.9440161,29.5711212 24.8354225,28.7562945 28.765873,28.7896825 C32.8531746,28.7896825 36.3492063,29.5357143 39.2539683,31.0238095 C42.0812161,32.4521043 44.5706503,34.4680049 46.5555556,36.9365079 L46.5555556,30.3809524 L62.1944444,30.3809524 L62.1944444,89.7380952 L62.1984127,89.7380952 Z M25.3650794,44.9603175 C23.4603175,45.8174603 21.8492063,46.984127 20.5198413,48.452381 C19.1634928,49.9681762 18.1209305,51.7376998 17.452381,53.6587302 C16.7380952,55.6587302 16.3809524,57.7857143 16.3809524,60.031746 C16.3809524,62.3174603 16.7380952,64.4484127 17.452381,66.4325397 C18.1666667,68.4126984 19.1904762,70.1349206 20.5198413,71.6071429 C21.8492063,73.0753968 23.4642857,74.2420635 25.3611111,75.0992063 C27.265873,75.9563492 29.3809524,76.3849206 31.7103175,76.3849206 C34.0039683,76.3849206 36.0873016,75.9761905 37.968254,75.1587302 C39.8091554,74.3720631 41.4620139,73.2034299 42.8174603,71.7301587 C44.1666667,70.2619048 45.2063492,68.5238095 45.9444444,66.5238095 C46.6785714,64.5238095 47.047619,62.3571429 47.047619,60.031746 C47.047619,57.702381 46.6785714,55.5396825 45.9444444,53.5357143 C45.2547814,51.6114469 44.1921527,49.8421972 42.8174603,48.3293651 C41.4620139,46.8560939 39.8091554,45.6874607 37.968254,44.9007937 C36.0873016,44.0833333 34,43.6746032 31.7142857,43.6746032 C29.3809524,43.6746032 27.265873,44.1031746 25.3650794,44.9603175 L25.3650794,44.9603175 Z M109.087302,29.1269841 C110.456349,29.3531746 112.230159,29.7619048 113.333333,30.1666667 L109.087302,45.547619 C108.123016,45.2063492 107.563492,44.9126984 105.805556,44.5634921 C104.129418,44.224997 102.424246,44.0508914 100.714286,44.0436508 C98.8730159,44.0436508 97.1865079,44.3293651 95.6547619,44.9007937 C94.1696877,45.4418153 92.8198044,46.2988626 91.6984127,47.4126984 C90.543105,48.595341 89.6624561,50.0179277 89.1190476,51.5793651 C88.5079365,53.25 88.202381,55.1904762 88.202381,57.3968254 L88.202381,89.7380952 L72.1904762,89.7380952 L72.1904762,30.3809524 L87.7063492,30.3809524 L87.7063492,36.8769841 C89.5912698,34.0595238 91.9325397,32.0039683 94.7301587,30.718254 C97.5357143,29.4325397 100.77381,28.7896825 104.452381,28.7896825 C106.174603,28.7896825 107.718254,28.9007937 109.087302,29.1269841 L109.087302,29.1269841 Z M153.623016,44.9603175 C153.623016,44.9603175 151.222222,44.1150794 149.563492,43.6428571 C147.889139,43.1699591 146.189322,42.792369 144.472222,42.5119048 C142.780371,42.2300426 141.068341,42.0867098 139.353175,42.0833333 C136.285714,42.0833333 133.996032,42.5714286 132.480159,43.5515873 C130.972222,44.531746 130.210317,45.8373016 130.210317,47.4722222 C130.185342,48.2583773 130.460598,49.0245538 130.980159,49.6150794 C131.492063,50.1865079 132.174603,50.6587302 133.035714,51.0238095 C133.892857,51.3928571 134.916667,51.6904762 136.099206,51.9126984 C137.289683,52.1388889 138.555556,52.3492063 139.904762,52.5555556 L145.18254,53.3531746 C151.638889,54.3333333 156.599206,56.2738095 160.055556,59.1706349 C163.507937,62.0714286 165.238095,66.0515873 165.238095,71.1150794 C165.238095,74.1785714 164.623016,76.9563492 163.396825,79.4484127 C162.152483,81.9588244 160.321748,84.1325669 158.059524,85.7857143 C155.730159,87.5238095 152.869048,88.8690476 149.472222,89.8333333 C146.079365,90.7896825 142.234127,91.2698413 137.940476,91.2698413 C135.896825,91.2698413 133.738095,91.1587302 131.472222,90.9325397 C129.159529,90.701862 126.863876,90.3241131 124.599206,89.8015873 C122.268351,89.2643425 119.982456,88.5479275 117.761905,87.6587302 C115.552248,86.7807294 113.45217,85.6487909 111.503968,84.2857143 L117.821429,72.1587302 C119.09127,73.015873 120.440476,73.7936508 121.869048,74.484127 C125.014841,76.0109342 128.376993,77.0442069 131.837302,77.547619 C133.742063,77.8333333 135.813492,77.9761905 138.06746,77.9761905 C141.785714,77.9761905 144.543651,77.4880952 146.345238,76.5079365 C148.142857,75.5277778 149.043651,74.1587302 149.043651,72.4047619 C149.043651,70.9761905 148.265873,69.8293651 146.714286,68.9722222 C145.15873,68.1150794 142.642857,67.4404762 139.166667,66.9484127 L134.325397,66.2777778 C120.623016,64.4007937 113.769841,58.3968254 113.769841,48.2698413 C113.769841,45.2063492 114.345238,42.4801587 115.492063,40.0912698 C116.642686,37.6951279 118.345401,35.6061734 120.460317,33.9960317 C122.626984,32.3214286 125.253968,31.047619 128.34127,30.1666667 C131.428571,29.2936508 134.936508,28.8492063 138.861111,28.8492063 C141.234127,28.8492063 143.492063,28.9642857 145.638889,29.1865079 C147.785714,29.4126984 149.873016,29.7579365 151.896825,30.2301587 C153.920635,30.6984127 157.373016,31.8412698 157.373016,31.8412698 L153.623016,44.9603175 L153.623016,44.9603175 Z M209.579365,44.5952381 L192.15873,44.5952381 L192.15873,89.7380952 L176.150794,89.7380952 L176.150794,44.5952381 L160.480159,44.5634921 L164.547619,30.3809524 L176.150794,30.3809524 L176.150794,23.031746 C176.150794,19.5595238 176.611111,16.4047619 177.527778,13.5674603 C178.358665,10.8855559 179.749061,8.4104348 181.607143,6.30555556 C183.450597,4.27736001 185.726224,2.68930381 188.265873,1.65873016 C190.900794,0.551587302 193.960317,0 197.43254,0 C201.480159,0 204.972222,0.511904762 207.892857,1.53174603 C210.81746,2.5515873 211.222222,2.96428571 212.944444,4.01587302 L209.126984,17.6984127 C207.67238,16.8822111 206.137895,16.2173565 204.547619,15.7142857 C202.802743,15.1593364 200.981776,14.8808356 199.150794,14.8888889 C194.488095,14.8888889 192.154762,17.6666667 192.154762,23.2222222 L192.154762,30.3849206 L209.575397,30.3849206 L209.575397,44.5992063 L209.579365,44.5952381 Z M270.789683,64.4365079 C270.789683,69.1349206 270.02381,73.1666667 268.488095,76.5396825 C266.956349,79.9087302 264.900794,82.6825397 262.325397,84.8690476 C259.746032,87.0515873 256.765873,88.6666667 253.369048,89.7103175 C249.908757,90.7606034 246.310581,91.2862849 242.694444,91.2705729 C239.079437,91.2846019 235.482624,90.7575865 232.02381,89.7063492 C228.730247,88.719352 225.67211,87.0721433 223.035714,84.8650794 C220.440476,82.6825397 218.376984,79.9047619 216.845238,76.5396825 C215.309524,73.1666667 214.543651,69.1349206 214.543651,64.4365079 L214.543651,30.3849206 L230.551587,30.3849206 L230.551587,63.0357143 C230.551587,65.4047619 230.857143,67.4365079 231.472222,69.1309524 C232.083333,70.8253968 232.93254,72.202381 234.015873,73.265873 C235.099206,74.3253968 236.388889,75.1111111 237.880952,75.6230159 C239.373016,76.1349206 240.97619,76.3888889 242.698413,76.3888889 C244.412698,76.3888889 246.007937,76.1349206 247.480159,75.6230159 C248.925466,75.1295632 250.244863,74.3249206 251.345238,73.265873 C252.448413,72.202381 253.309524,70.8253968 253.924603,69.1309524 C254.535714,67.4365079 254.84127,65.4007937 254.84127,63.0357143 L254.84127,30.3809524 L270.793651,30.3809524 L270.793651,64.4404762 L270.789683,64.4365079 Z M326.051587,44.5952381 L303.242063,44.5952381 L303.242063,66.2777778 C303.242063,68.1150794 303.47619,69.6785714 303.944444,70.9603175 C304.416667,72.25 305.051587,73.2896825 305.849206,74.0873016 C306.642857,74.8809524 307.583333,75.4642857 308.666667,75.8333333 C309.753968,76.202381 310.90873,76.3849206 312.134921,76.3849206 C314.055556,76.3849206 315.988095,75.9880952 317.928571,75.1904762 C319.873016,74.3968254 321.662698,73.5039683 323.297619,72.5277778 L329.186508,85.0238095 C326.56746,86.8174603 323.686508,88.3095238 320.535714,89.4920635 C317.388889,90.6785714 313.710317,91.2698413 309.496032,91.2698413 C302.095238,91.2698413 296.531746,89.2460317 292.813492,85.2063492 C289.09127,81.1626984 287.230159,75.2857143 287.230159,67.5634921 L287.230159,44.5952381 L275.761905,44.5952381 L275.761905,30.3809524 L287.230159,30.3809524 L287.230159,12.7420635 L303.242063,12.7420635 L303.242063,30.3809524 L326.051587,30.3809524 L326.051587,44.5952381 L326.051587,44.5952381 Z M387.281746,64.4365079 C387.281746,69.1349206 386.515873,73.1666667 384.980159,76.5396825 C383.448413,79.9087302 381.396825,82.6825397 378.81746,84.8690476 C376.242063,87.0515873 373.257937,88.6666667 369.861111,89.7103175 C366.40082,90.7606034 362.802644,91.2862849 359.186508,91.2705729 C355.571501,91.2846019 351.974687,90.7575865 348.515873,89.7063492 C345.223713,88.7188579 342.166969,87.0716727 339.531746,84.8650794 C336.93254,82.6825397 334.869048,79.9047619 333.333333,76.5396825 C331.801587,73.1666667 331.031746,69.1349206 331.031746,64.4365079 L331.031746,30.3849206 L347.043651,30.3849206 L347.043651,63.0357143 C347.043651,65.4047619 347.349206,67.4365079 347.964286,69.1309524 C348.579365,70.8253968 349.424603,72.202381 350.511905,73.265873 C351.595238,74.3253968 352.880952,75.1111111 354.373016,75.6230159 C355.865079,76.1349206 357.472222,76.3888889 359.190476,76.3888889 C360.90873,76.3888889 362.503968,76.1349206 363.972222,75.6230159 C365.417529,75.1295632 366.736926,74.3249206 367.837302,73.265873 C368.944444,72.202381 369.801587,70.8253968 370.416667,69.1309524 C371.027778,67.4365079 371.333333,65.4007937 371.333333,63.0357143 L371.333333,30.3809524 L387.285714,30.3809524 L387.285714,64.4404762 L387.281746,64.4365079 Z M433.670635,29.1269841 C435.035714,29.3531746 436.805556,29.7619048 437.912698,30.1666667 L433.666667,45.547619 C432.702381,45.2063492 432.142857,44.9126984 430.384921,44.5634921 C428.708783,44.224997 427.003611,44.0508914 425.293651,44.0436508 C423.452381,44.0436508 421.765873,44.3293651 420.234127,44.9007937 C418.749053,45.4418153 417.399169,46.2988626 416.277778,47.4126984 C415.12247,48.595341 414.241821,50.0179277 413.698413,51.5793651 C413.087302,53.25 412.781746,55.1904762 412.781746,57.3968254 L412.781746,89.7380952 L396.769841,89.7380952 L396.769841,30.3809524 L412.289683,30.3809524 L412.289683,36.8769841 C414.170635,34.0595238 416.511905,32.0039683 419.313492,30.718254 C422.115079,29.4325397 425.357143,28.7896825 429.035714,28.7896825 C430.753968,28.7896825 432.297619,28.9007937 433.666667,29.1269841 L433.670635,29.1269841 Z M500,89.7380952 L484.357143,89.7380952 L484.357143,83.1825397 C482.358565,85.6219143 479.87133,87.6157577 477.055556,89.0357143 C474.15873,90.5238095 470.65873,91.2698413 466.56746,91.2698413 C462.480159,91.2698413 458.678571,90.4761905 455.15873,88.8809524 C451.703136,87.3316104 448.595028,85.1020859 446.019841,82.3253968 C443.384291,79.4505196 441.332987,76.0905308 439.980159,72.4325397 C438.527778,68.6150794 437.797619,64.4801587 437.797619,60.031746 C437.797619,55.5793651 438.527778,51.4444444 439.980159,47.6269841 C441.332987,43.9689931 443.384291,40.6090042 446.019841,37.734127 C448.599206,34.9563492 451.642857,32.7738095 455.15873,31.1785714 C458.745603,29.5711212 462.63701,28.7562945 466.56746,28.7896825 C470.65873,28.7896825 474.154762,29.5357143 477.059524,31.0238095 C479.886772,32.4521043 482.376206,34.4680049 484.361111,36.9365079 L484.361111,30.3809524 L500,30.3809524 L500,89.7380952 Z M463.178571,44.9603175 C461.27381,45.8174603 459.662698,46.984127 458.333333,48.452381 C456.976985,49.9681762 455.934423,51.7376998 455.265873,53.6587302 C454.551587,55.6587302 454.194444,57.7857143 454.194444,60.031746 C454.194444,62.3174603 454.551587,64.4484127 455.265873,66.4325397 C455.980159,68.4126984 457.003968,70.1349206 458.333333,71.6071429 C459.662698,73.0753968 461.277778,74.2420635 463.178571,75.0992063 C465.083333,75.9563492 467.198413,76.3849206 469.527778,76.3849206 C471.81746,76.3849206 473.904762,75.9761905 475.785714,75.1587302 C477.62377,74.3710901 479.273842,73.2025144 480.626984,71.7301587 C481.97619,70.2619048 483.02381,68.5238095 483.761905,66.5238095 C484.496032,64.5238095 484.861111,62.3571429 484.861111,60.031746 C484.861111,57.702381 484.496032,55.5396825 483.757937,53.5357143 C483.068273,51.6114469 482.005645,49.8421972 480.630952,48.3293651 C479.276658,46.8565518 477.625193,45.6879474 475.785714,44.9007937 C473.904762,44.0833333 471.81746,43.6746032 469.527778,43.6746032 C467.198413,43.6746032 465.083333,44.1031746 463.178571,44.9603175 L463.178571,44.9603175 Z" id="Shape"></path>
        </g>
    </g>
</svg>