<?xml version="1.0" encoding="UTF-8"?>
<svg width="1000px" height="167px" viewBox="0 0 1000 167" version="1.1" xmlns="http://www.w3.org/2000/svg" xmlns:xlink="http://www.w3.org/1999/xlink">
    <title>autodesk</title>
    <g id="Page-1" stroke="none" stroke-width="1" fill="none" fill-rule="evenodd">
        <g id="autodesk" fill="#FFFFFF" fill-rule="nonzero">
            <path d="M99.5434716,0.500002 C103.826983,0.500002 105.88186,3.02217038 106.818312,5.33140357 L174.923385,166.579538 L128.093831,166.579538 L76.148005,43.608002 L42.1256637,124.10217 L109.988725,124.10217 L53.615655,159.024068 C50.86789,160.649141 40.4172275,166.58584 33.0845847,166.58584 C28.3582763,166.58584 25.9021933,164.803044 23.5444506,160.66171 L2.00780695,120.738549 C0.523661759,117.877493 0.500005,116.924587 0.500005,114.863169 C0.500005,111.94367 1.43944763,110.351563 2.73835321,107.106872 L45.4053688,5.25015516 C46.0037043,3.63590563 47.8143229,0.500002 53.0620931,0.500002 L99.5434716,0.500002 Z M837.236515,26.3452693 C856.427786,26.440111 867.234026,33.457371 868.873652,34.408863 L862.841867,48.095068 C858.925454,45.979696 850.336533,41.799924 837.550848,41.799924 C827.747074,41.799924 819.413016,44.764843 819.370538,51.272375 C819.319566,58.8928126 824.102516,61.5349043 842.155393,67.4052752 C862.102761,73.9637793 872.696614,80.6327245 872.586173,96.8590753 C872.484227,115.149826 858.347762,125.582265 837.703766,125.582265 C823.091555,125.582265 809.991538,120.841792 800.000863,112.057474 L806.219548,97.0034983 C815.284217,104.59845 826.268861,109.984579 838.137035,110.035552 C848.526997,110.086525 855.918057,105.031719 855.918057,97.5472085 C855.918057,91.2860459 852.298987,87.1232648 834.789819,81.5757219 C814.706525,74.9917314 802.574991,68.1273903 802.676937,51.773607 C802.795873,35.504779 818.05374,26.253211 837.236515,26.3452693 Z M546.354116,26.301634 C573.760507,26.301634 595.993156,48.534284 595.993156,75.9491705 C595.993156,103.364057 573.760507,125.579716 546.354116,125.579716 C518.939229,125.579716 496.72357,103.364057 496.72357,75.9491705 C496.72357,48.534284 518.939229,26.301634 546.354116,26.301634 Z M331.326083,27.956553 L331.326083,83.4234872 C331.326083,100.210539 341.18083,110.065286 355.453222,110.065286 C369.742606,110.065286 379.597353,100.210539 379.597353,83.4234872 L379.597353,27.956553 L396.588296,27.956553 L396.588296,81.4015649 C396.588296,110.014313 379.801244,125.44209 355.453222,125.44209 C331.113696,125.44209 314.326644,110.014313 314.326644,81.4015649 L314.326644,27.956553 L331.326083,27.956553 Z M969.619751,27.9480567 L926.658151,74.409791 L974.164828,123.938391 L953.29995,123.938391 L905.930005,74.410002 L905.930005,74.408002 L949.035223,27.9480567 L969.619751,27.9480567 Z M650.163682,27.956553 C677.561578,27.956553 699.785731,48.396658 699.785731,75.8115446 C699.785731,103.217936 677.561578,123.9214 650.163682,123.9214 L650.163682,123.9214 L613.75209,123.929896 L613.75209,27.956553 Z M905.930049,27.9548531 L905.930005,74.408002 L905.9292,74.409791 L905.930005,74.410002 L905.930049,123.928196 L889.848122,123.928196 L889.848122,27.9548531 L905.930049,27.9548531 Z M494.370325,27.949755 L487.837307,43.581423 L462.571774,43.581423 L462.571774,123.923098 L445.56384,123.923098 L445.56384,43.581423 L415.124565,43.581423 L415.124565,27.949755 L494.370325,27.949755 Z M785.426032,27.948056 L785.426032,43.579724 L734.028429,43.579724 L734.028429,67.9872141 L766.948381,67.9872141 L766.948381,83.0836672 L734.028429,83.0836672 L734.028429,108.587073 L785.451519,108.587073 L785.451519,123.921399 L717.054476,123.921399 L717.054476,27.948056 L785.426032,27.948056 Z M264.743674,27.26757 L306.974663,123.920551 L289.159659,123.920551 L279.423849,100.761895 L234.041039,100.761895 L224.169301,123.920551 L206.898007,123.920551 L249.128997,27.26757 L264.743674,27.26757 Z M990.817651,106.532019 C995.617593,106.532019 999.500023,110.422945 999.500023,115.222886 C999.500023,120.022828 995.617593,123.905258 990.817651,123.905258 C986.043196,123.905258 982.143775,120.022828 982.143775,115.222886 C982.143775,110.422945 986.043196,106.532019 990.817651,106.532019 Z M990.817651,107.738376 C986.586906,107.738376 983.435086,110.8817 983.435086,115.222886 C983.435086,119.564072 986.586906,122.698901 990.817651,122.698901 C995.065387,122.698901 998.200216,119.564072 998.200216,115.222886 C998.200216,110.8817 995.065387,107.738376 990.817651,107.738376 Z M991.068268,110.655721 C992.886299,110.655721 993.820801,111.862078 993.820801,113.195867 C993.820801,114.495674 992.945767,115.319735 991.433573,115.51513 C991.783101,115.777276 992.026522,116.076872 992.324334,116.488815 L992.478516,116.704496 L994.576898,119.652425 L993.005235,119.652425 L990.830395,116.500605 C990.428073,115.893179 990.16493,115.659337 989.564829,115.62903 L989.420146,115.625572 L989.420146,119.652425 L988.128835,119.652425 L988.128835,110.655721 L991.068268,110.655721 Z M990.762431,111.768627 L989.420146,111.768627 L989.420146,114.61461 L990.329162,114.61461 C991.357114,114.61461 992.419048,114.478683 992.419048,113.195867 C992.419048,112.354815 991.977283,111.768627 990.762431,111.768627 Z M546.354116,41.797375 C527.494169,41.797375 513.723009,57.0892235 513.723009,75.9491705 C513.723009,94.8091175 527.494169,110.092471 546.354116,110.092471 C565.214063,110.092471 578.993718,94.8091175 578.993718,75.9491705 C578.993718,57.0892235 565.214063,41.797375 546.354116,41.797375 Z M650.240141,43.596716 L630.777015,43.596716 L630.777015,108.587074 L650.163682,108.570083 C669.006638,108.570083 682.794788,94.6629961 682.794788,75.8115446 C682.794788,56.960093 669.091592,43.596716 650.240141,43.596716 L650.240141,43.596716 Z M256.66448,47.418829 L240.217247,85.8183604 L273.256136,85.8183604 L256.66448,47.418829 Z" id="Combined-Shape"></path>
        </g>
    </g>
</svg>