<?xml version="1.0" encoding="UTF-8"?>
<svg width="143px" height="54px" viewBox="0 0 143 54" version="1.1" xmlns="http://www.w3.org/2000/svg" xmlns:xlink="http://www.w3.org/1999/xlink">
    <title>barrage</title>
    <g id="Page-1" stroke="none" stroke-width="1" fill="none" fill-rule="evenodd">
        <g id="barrage" fill="#FFFFFF" fill-rule="nonzero">
            <path d="M16.6870056,51.3045198 L16.6870056,53.4305085 L11.1112994,53.4305085 L11.1112994,51.3045198 L16.6870056,51.3045198 Z M27.8384181,51.3045198 L27.8384181,53.4305085 L22.2627119,53.4305085 L22.2627119,51.3045198 L27.8384181,51.3045198 Z M5.57570621,51.3045198 L5.57570621,53.4305085 L0,53.4305085 L0,51.3045198 L5.57570621,51.3045198 Z M22.2627119,47.0124294 L22.2627119,49.1384181 L16.6870056,49.1384181 L16.6870056,47.0124294 L22.2627119,47.0124294 Z M11.1514124,47.0124294 L11.1514124,49.1384181 L5.57570621,49.1384181 L5.57570621,47.0124294 L11.1514124,47.0124294 Z M33.4141243,47.0124294 L33.4141243,49.1384181 L27.8384181,49.1384181 L27.8384181,47.0124294 L33.4141243,47.0124294 Z M27.8384181,42.720339 L27.8384181,44.8463277 L22.2627119,44.8463277 L22.2627119,42.720339 L27.8384181,42.720339 Z M16.6870056,42.720339 L16.6870056,44.8463277 L11.1112994,44.8463277 L11.1112994,42.720339 L16.6870056,42.720339 Z M38.9497175,42.720339 L38.9497175,44.8463277 L33.3740113,44.8463277 L33.3740113,42.720339 L38.9497175,42.720339 Z M5.57570621,42.720339 L5.57570621,44.8463277 L0,44.8463277 L0,42.720339 L5.57570621,42.720339 Z M120.419209,22.1824859 C122.264407,22.1824859 124.029379,22.9446328 125.232768,24.5090395 L125.232768,24.5090395 L125.232768,22.4231638 L127.719774,22.4231638 L127.719774,33.5344633 C127.719774,38.9096045 124.550847,40.8751412 120.820339,40.8751412 C117.651412,40.8751412 115.284746,39.0299435 114.522599,37.0644068 L114.522599,37.0644068 L117.611299,37.0644068 C118.012429,37.8265537 119.336158,38.7491525 121.020904,38.7491525 C123.146893,38.7491525 125.272881,37.3853107 125.272881,34.2564972 L125.272881,34.2564972 L125.272881,33.3338983 C124.109605,34.7378531 122.30452,35.580226 120.419209,35.580226 C116.849153,35.580226 113.920904,32.4915254 113.920904,28.8813559 C113.920904,25.2711864 116.80904,22.1824859 120.419209,22.1824859 Z M22.2627119,38.4683616 L22.2627119,40.5943503 L16.6870056,40.5943503 L16.6870056,38.4683616 L22.2627119,38.4683616 Z M11.1514124,38.4683616 L11.1514124,40.5943503 L5.57570621,40.5943503 L5.57570621,38.4683616 L11.1514124,38.4683616 Z M33.4141243,38.4683616 L33.4141243,40.5943503 L27.8384181,40.5943503 L27.8384181,38.4683616 L33.4141243,38.4683616 Z M27.8384181,34.1762712 L27.8384181,36.3022599 L22.2627119,36.3022599 L22.2627119,34.1762712 L27.8384181,34.1762712 Z M5.57570621,34.1762712 L5.57570621,36.3022599 L0,36.3022599 L0,34.1762712 L5.57570621,34.1762712 Z M16.6870056,34.1762712 L16.6870056,36.3022599 L11.1112994,36.3022599 L11.1112994,34.1762712 L16.6870056,34.1762712 Z M38.9497175,34.1762712 L38.9497175,36.3022599 L33.3740113,36.3022599 L33.3740113,34.1762712 L38.9497175,34.1762712 Z M135.581921,22.1824859 C139.071751,22.1824859 142.080226,24.9903955 142.120339,28.7610169 C142.120339,29.1621469 142.080226,29.6033898 142,30.0045198 L142,30.0045198 L131.289831,30.0045198 C131.771186,32.3711864 133.776836,33.5745763 135.541808,33.5745763 C137.70791,33.5745763 138.79096,32.3711864 139.19209,31.7293785 L139.19209,31.7293785 L141.879661,31.7293785 C140.475706,34.6576271 137.748023,35.700565 135.541808,35.700565 C131.570621,35.700565 128.842938,32.5717514 128.842938,28.9214689 C128.842938,25.0706215 131.851412,22.1824859 135.581921,22.1824859 Z M54.0723164,17.9706215 L54.0723164,24.5491525 C55.1152542,23.1451977 56.759887,22.2225989 59.0062147,22.2225989 C62.6163842,22.2225989 65.4242938,25.3112994 65.4242938,28.9615819 C65.4242938,32.6118644 62.8570621,35.700565 59.0062147,35.700565 C56.679661,35.700565 54.9949153,34.6576271 54.0723164,33.3740113 L54.0723164,33.3740113 L54.0723164,35.459887 L51.5451977,35.459887 L51.5451977,17.9706215 L54.0723164,17.9706215 Z M73.0457627,22.1824859 C75.2920904,22.1824859 76.9367232,23.1050847 77.979661,24.5090395 L77.979661,24.5090395 L77.979661,22.4231638 L80.5067797,22.4231638 L80.5067797,35.419774 L77.979661,35.419774 L77.979661,33.3338983 C77.0570621,34.6175141 75.3723164,35.660452 73.0457627,35.660452 C69.1949153,35.660452 66.6276836,32.5717514 66.6276836,28.9214689 C66.6276836,25.2711864 69.4757062,22.1824859 73.0457627,22.1824859 Z M105.136158,22.1824859 C107.382486,22.1824859 109.027119,23.1050847 110.070056,24.5090395 L110.070056,24.5090395 L110.070056,22.4231638 L112.597175,22.4231638 L112.597175,35.419774 L110.070056,35.419774 L110.070056,33.3338983 C109.147458,34.6175141 107.462712,35.660452 105.136158,35.660452 C101.285311,35.660452 98.7180791,32.5717514 98.7180791,28.9214689 C98.7180791,25.2711864 101.566102,22.1824859 105.136158,22.1824859 Z M89.2112994,22.1824859 C89.3316384,22.1824859 89.4920904,22.1824859 89.6525424,22.2627119 L89.6525424,22.2627119 L89.6525424,24.7898305 C87.8875706,24.7898305 86.0423729,25.5118644 85.320339,26.8355932 L85.320339,26.8355932 L85.320339,35.459887 L82.7932203,35.459887 L82.7932203,22.4231638 L85.320339,22.4231638 L85.320339,24.6293785 C86.1627119,23.3056497 87.8474576,22.1824859 89.2112994,22.1824859 Z M97.6350282,22.1824859 C97.7553672,22.1824859 97.9158192,22.1824859 98.0762712,22.2627119 L98.0762712,22.2627119 L98.0762712,24.7898305 C96.3112994,24.7898305 94.4661017,25.5118644 93.7440678,26.8355932 L93.7440678,26.8355932 L93.7440678,35.459887 L91.2169492,35.459887 L91.2169492,22.4231638 L93.7440678,22.4231638 L93.7440678,24.6293785 C94.5864407,23.3056497 96.2711864,22.1824859 97.6350282,22.1824859 Z M73.4468927,24.2683616 C70.959887,24.2683616 68.9943503,26.3542373 68.9943503,28.9214689 C68.9943503,31.6090395 71.080226,33.5745763 73.4468927,33.5745763 C76.2548023,33.5745763 78.180226,31.4887006 78.180226,28.9214689 C78.180226,26.3542373 76.2548023,24.2683616 73.4468927,24.2683616 Z M105.537288,24.2683616 C103.050282,24.2683616 101.084746,26.3542373 101.084746,28.9214689 C101.084746,31.6090395 103.170621,33.5745763 105.537288,33.5745763 C108.345198,33.5745763 110.270621,31.4887006 110.270621,28.9214689 C110.270621,26.3542373 108.345198,24.2683616 105.537288,24.2683616 Z M58.6050847,24.2683616 C55.7971751,24.2683616 53.8717514,26.3542373 53.8717514,28.9214689 C53.8717514,31.4887006 55.7971751,33.5745763 58.6050847,33.5745763 C61.0118644,33.5745763 63.0576271,31.6090395 63.0576271,28.9214689 C63.0576271,26.3542373 61.0920904,24.2683616 58.6050847,24.2683616 Z M120.820339,24.3084746 C118.29322,24.3084746 116.247458,26.4344633 116.247458,28.8813559 C116.247458,31.2881356 118.29322,33.4542373 120.820339,33.4542373 C123.347458,33.4542373 125.39322,31.3282486 125.39322,28.8813559 C125.39322,26.4745763 123.347458,24.3084746 120.820339,24.3084746 Z M22.2627119,29.9242938 L22.2627119,32.0502825 L16.6870056,32.0502825 L16.6870056,29.9242938 L22.2627119,29.9242938 Z M11.1514124,29.9242938 L11.1514124,32.0502825 L5.57570621,32.0502825 L5.57570621,29.9242938 L11.1514124,29.9242938 Z M33.4141243,29.9242938 L33.4141243,32.0502825 L27.8384181,32.0502825 L27.8384181,29.9242938 L33.4141243,29.9242938 Z M135.501695,24.3485876 C133.415819,24.3485876 131.530508,25.9531073 131.289831,28.0389831 L131.289831,28.0389831 L139.753672,28.0389831 C139.512994,26.1135593 137.748023,24.3485876 135.501695,24.3485876 Z M16.6870056,25.6322034 L16.6870056,27.7581921 L11.1112994,27.7581921 L11.1112994,25.6322034 L16.6870056,25.6322034 Z M27.8384181,25.6322034 L27.8384181,27.7581921 L22.2627119,27.7581921 L22.2627119,25.6322034 L27.8384181,25.6322034 Z M5.57570621,25.6322034 L5.57570621,27.7581921 L0,27.7581921 L0,25.6322034 L5.57570621,25.6322034 Z M22.2627119,21.380226 L22.2627119,23.5062147 L16.6870056,23.5062147 L16.6870056,21.380226 L22.2627119,21.380226 Z M11.1514124,21.380226 L11.1514124,23.5062147 L5.57570621,23.5062147 L5.57570621,21.380226 L11.1514124,21.380226 Z M33.4141243,21.380226 L33.4141243,23.5062147 L27.8384181,23.5062147 L27.8384181,21.380226 L33.4141243,21.380226 Z M16.6870056,17.0881356 L16.6870056,19.2141243 L11.1112994,19.2141243 L11.1112994,17.0881356 L16.6870056,17.0881356 Z M27.8384181,17.0881356 L27.8384181,19.2141243 L22.2627119,19.2141243 L22.2627119,17.0881356 L27.8384181,17.0881356 Z M5.57570621,17.0881356 L5.57570621,19.2141243 L0,19.2141243 L0,17.0881356 L5.57570621,17.0881356 Z M38.9497175,17.0881356 L38.9497175,19.2141243 L33.3740113,19.2141243 L33.3740113,17.0881356 L38.9497175,17.0881356 Z M11.1514124,12.8361582 L11.1514124,14.9621469 L5.57570621,14.9621469 L5.57570621,12.8361582 L11.1514124,12.8361582 Z M22.2627119,12.8361582 L22.2627119,14.9621469 L16.6870056,14.9621469 L16.6870056,12.8361582 L22.2627119,12.8361582 Z M33.4141243,12.8361582 L33.4141243,14.9621469 L27.8384181,14.9621469 L27.8384181,12.8361582 L33.4141243,12.8361582 Z M16.6870056,8.5440678 L16.6870056,10.6700565 L11.1112994,10.6700565 L11.1112994,8.5440678 L16.6870056,8.5440678 Z M27.8384181,8.5440678 L27.8384181,10.6700565 L22.2627119,10.6700565 L22.2627119,8.5440678 L27.8384181,8.5440678 Z M38.9497175,8.5440678 L38.9497175,10.6700565 L33.3740113,10.6700565 L33.3740113,8.5440678 L38.9497175,8.5440678 Z M5.57570621,8.5440678 L5.57570621,10.6700565 L0,10.6700565 L0,8.5440678 L5.57570621,8.5440678 Z M22.2627119,4.2920904 L22.2627119,6.4180791 L16.6870056,6.4180791 L16.6870056,4.2920904 L22.2627119,4.2920904 Z M11.1514124,4.2920904 L11.1514124,6.4180791 L5.57570621,6.4180791 L5.57570621,4.2920904 L11.1514124,4.2920904 Z M33.4141243,4.2920904 L33.4141243,6.4180791 L27.8384181,6.4180791 L27.8384181,4.2920904 L33.4141243,4.2920904 Z M16.6870056,0 L16.6870056,2.1259887 L11.1112994,2.1259887 L11.1112994,0 L16.6870056,0 Z M27.8384181,0 L27.8384181,2.1259887 L22.2627119,2.1259887 L22.2627119,0 L27.8384181,0 Z M5.57570621,0 L5.57570621,2.1259887 L0,2.1259887 L0,0 L5.57570621,0 Z" id="Combined-Shape"></path>
        </g>
    </g>
</svg>