<?xml version="1.0" encoding="UTF-8"?>
<svg width="263px" height="100px" viewBox="0 0 263 100" version="1.1" xmlns="http://www.w3.org/2000/svg" xmlns:xlink="http://www.w3.org/1999/xlink">
    <title>ict</title>
    <g id="Page-1" stroke="none" stroke-width="1" fill="none" fill-rule="evenodd">
        <g id="ict" fill="#FFFFFF" fill-rule="nonzero">
            <path d="M99.695,0.507 L99.695,99.64 L0.562,99.64 L0.562,0.507 L99.695,0.507 Z M242.4428,82.5701 C243.1378,82.5701 243.6368,82.6981 243.9448,82.9531 C244.2488,83.2091 244.4028,83.6251 244.4028,84.2001 L244.4028,84.3221 C244.3998,84.3661 244.3948,84.4361 244.3868,84.5341 L242.6148,84.5341 L242.6148,84.5101 C242.6148,84.3081 242.5668,84.1561 242.4638,84.0551 C242.3648,83.9551 242.2108,83.9061 242.0088,83.9061 L239.8888,83.9061 C239.5358,83.9061 239.3038,83.9411 239.1908,84.0121 C239.0778,84.0831 239.0208,84.2051 239.0208,84.3821 C239.0208,84.5561 239.0718,84.6841 239.1748,84.7601 C239.2768,84.8391 239.4658,84.8881 239.7408,84.9101 L242.7658,84.9591 C243.4568,84.9781 243.9418,85.1331 244.2248,85.4271 C244.5058,85.7201 244.6458,86.2241 244.6458,86.9341 C244.6458,87.3561 244.5948,87.6821 244.4918,87.9141 C244.3868,88.1451 244.2118,88.3411 243.9658,88.5041 C243.8038,88.6071 243.5858,88.6841 243.3078,88.7271 C243.0308,88.7731 242.6288,88.7951 242.1028,88.7951 L239.6518,88.7951 C238.6458,88.7951 237.9718,88.6811 237.6318,88.4551 C237.2928,88.2261 237.1228,87.8021 237.1228,87.1821 C237.1228,87.1461 237.1248,87.0891 237.1308,87.0051 C237.1338,86.9231 237.1388,86.8201 237.1468,86.7001 L238.9638,86.6971 L238.9638,86.8061 C238.9638,87.0351 239.0178,87.1901 239.1288,87.2711 C239.2388,87.3501 239.4708,87.3911 239.8248,87.3911 L242.1348,87.3911 C242.3618,87.3911 242.5238,87.3531 242.6208,87.2741 C242.7178,87.1981 242.7658,87.0671 242.7658,86.8881 C242.7658,86.7051 242.7098,86.5751 242.5988,86.4961 C242.4858,86.4171 242.2458,86.3651 241.8768,86.3381 L238.9888,86.2731 C238.2658,86.2511 237.7778,86.1121 237.5218,85.8571 C237.2678,85.6011 237.1388,85.1361 237.1388,84.4611 C237.1388,84.1121 237.1738,83.8241 237.2408,83.5981 C237.3088,83.3721 237.4168,83.1851 237.5648,83.0351 C237.7398,82.8661 237.9688,82.7471 238.2528,82.6761 C238.5358,82.6051 238.9968,82.5701 239.6358,82.5701 L242.4428,82.5701 Z M115.6218,82.5701 C116.3178,82.5701 116.8188,82.6981 117.1238,82.9531 C117.4308,83.2091 117.5848,83.6251 117.5848,84.2001 C117.5848,84.2381 117.5818,84.2781 117.5818,84.3221 C117.5798,84.3661 117.5768,84.4361 117.5688,84.5341 L115.7968,84.5341 L115.7968,84.5101 C115.7968,84.3081 115.7458,84.1561 115.6438,84.0551 C115.5438,83.9551 115.3928,83.9061 115.1908,83.9061 L113.0708,83.9061 C112.7178,83.9061 112.4828,83.9411 112.3698,84.0121 C112.2568,84.0831 112.1998,84.2051 112.1998,84.3821 C112.1998,84.5561 112.2518,84.6841 112.3538,84.7601 C112.4558,84.8391 112.6448,84.8881 112.9198,84.9101 L115.9458,84.9591 C116.6358,84.9781 117.1208,85.1331 117.4038,85.4271 C117.6848,85.7201 117.8278,86.2241 117.8278,86.9341 C117.8278,87.3561 117.7738,87.6821 117.6708,87.9141 C117.5658,88.1451 117.3938,88.3411 117.1478,88.5041 C116.9858,88.6071 116.7648,88.6841 116.4878,88.7271 C116.2098,88.7731 115.8078,88.7951 115.2818,88.7951 L112.8308,88.7951 C111.8248,88.7951 111.1538,88.6811 110.8138,88.4551 C110.4748,88.2261 110.3048,87.8021 110.3048,87.1821 C110.3048,87.1461 110.3048,87.0891 110.3098,87.0051 C110.3128,86.9231 110.3208,86.8201 110.3288,86.7001 L112.1438,86.6971 L112.1438,86.8061 C112.1438,87.0351 112.1998,87.1901 112.3108,87.2711 C112.4208,87.3501 112.6528,87.3911 113.0068,87.3911 L115.3148,87.3911 C115.5408,87.3911 115.7028,87.3531 115.7998,87.2741 C115.8968,87.1981 115.9458,87.0671 115.9458,86.8881 C115.9458,86.7051 115.8888,86.5751 115.7778,86.4961 C115.6648,86.4171 115.4248,86.3651 115.0558,86.3381 L112.1678,86.2731 C111.4448,86.2511 110.9568,86.1121 110.7008,85.8571 C110.4478,85.6011 110.3208,85.1361 110.3208,84.4611 C110.3208,84.1121 110.3528,83.8241 110.4208,83.5981 C110.4878,83.3721 110.5958,83.1851 110.7438,83.0351 C110.9198,82.8661 111.1488,82.7471 111.4318,82.6761 C111.7148,82.6051 112.1758,82.5701 112.8148,82.5701 L115.6218,82.5701 Z M149.3621,82.5701 C150.0581,82.5701 150.5591,82.6981 150.8641,82.9531 C151.1711,83.2091 151.3251,83.6251 151.3251,84.2001 C151.3251,84.2381 151.3221,84.2781 151.3221,84.3221 C151.3201,84.3661 151.3171,84.4361 151.3091,84.5341 L149.5371,84.5341 L149.5371,84.5101 C149.5371,84.3081 149.4861,84.1561 149.3841,84.0551 C149.2841,83.9551 149.1331,83.9061 148.9311,83.9061 L146.8111,83.9061 C146.4581,83.9061 146.2231,83.9411 146.1101,84.0121 C145.9971,84.0831 145.9401,84.2051 145.9401,84.3821 C145.9401,84.5561 145.9921,84.6841 146.0941,84.7601 C146.1961,84.8391 146.3851,84.8881 146.6601,84.9101 L149.6861,84.9591 C150.3761,84.9781 150.8611,85.1331 151.1441,85.4271 C151.4251,85.7201 151.5681,86.2241 151.5681,86.9341 C151.5681,87.3561 151.5141,87.6821 151.4111,87.9141 C151.3061,88.1451 151.1341,88.3411 150.8881,88.5041 C150.7261,88.6071 150.5051,88.6841 150.2281,88.7271 C149.9501,88.7731 149.5481,88.7951 149.0221,88.7951 L146.5711,88.7951 C145.5661,88.7951 144.8941,88.6811 144.5541,88.4551 C144.2151,88.2261 144.0451,87.8021 144.0451,87.1821 C144.0451,87.1461 144.0451,87.0891 144.0501,87.0051 C144.0531,86.9231 144.0611,86.8201 144.0691,86.7001 L145.8841,86.6971 L145.8841,86.8061 C145.8841,87.0351 145.9401,87.1901 146.0511,87.2711 C146.1611,87.3501 146.3931,87.3911 146.7471,87.3911 L149.0551,87.3911 C149.2811,87.3911 149.4431,87.3531 149.5401,87.2741 C149.6371,87.1981 149.6861,87.0671 149.6861,86.8881 C149.6861,86.7051 149.6291,86.5751 149.5181,86.4961 C149.4051,86.4171 149.1651,86.3651 148.7961,86.3381 L145.9081,86.2731 C145.1851,86.2511 144.6971,86.1121 144.4411,85.8571 C144.1881,85.6011 144.0611,85.1361 144.0611,84.4611 C144.0611,84.1121 144.0931,83.8241 144.1611,83.5981 C144.2281,83.3721 144.3361,83.1851 144.4841,83.0351 C144.6601,82.8661 144.8891,82.7471 145.1721,82.6761 C145.4551,82.6051 145.9161,82.5701 146.5551,82.5701 L149.3621,82.5701 Z M165.8478,82.5699 C166.5328,82.5699 167.0448,82.6029 167.3848,82.6679 C167.7218,82.7329 167.9918,82.8419 168.1908,82.9939 C168.4148,83.1659 168.5768,83.3999 168.6818,83.6959 C168.7848,83.9929 168.8388,84.3739 168.8388,84.8359 L168.8388,86.5289 C168.8388,86.9969 168.7848,87.3779 168.6818,87.6719 C168.5768,87.9629 168.4148,88.1969 168.1908,88.3709 C167.9888,88.5259 167.7218,88.6349 167.3908,88.6999 C167.0588,88.7629 166.5438,88.7949 165.8478,88.7949 L163.6938,88.7949 C162.9898,88.7949 162.4748,88.7629 162.1488,88.6999 C161.8228,88.6349 161.5558,88.5259 161.3508,88.3709 C161.1188,88.1969 160.9518,87.9679 160.8488,87.6879 C160.7468,87.4049 160.6948,87.0319 160.6948,86.5669 L160.6948,84.9099 C160.6948,84.4009 160.7468,83.9979 160.8488,83.7019 C160.9518,83.4049 161.1188,83.1689 161.3508,82.9939 C161.5528,82.8419 161.8228,82.7329 162.1598,82.6679 C162.4938,82.6029 163.0038,82.5699 163.6858,82.5699 L165.8478,82.5699 Z M193.7237,82.6434 L193.7237,87.2524 L197.7337,87.2524 L197.7337,88.7214 L191.8847,88.7214 L191.8847,82.6434 L193.7237,82.6434 Z M251.0739,88.7216 L248.3479,86.4226 L247.5739,86.4226 L247.5739,88.7216 L245.7379,88.7216 L245.7379,82.6436 L247.5739,82.6436 L247.5739,84.9016 L248.3479,84.9016 L250.7589,82.6436 L253.2009,82.6436 L249.9439,85.6446 L253.408,88.536 L256.5988,82.6434 L258.9448,82.6434 L262.1718,88.7214 L260.1528,88.7214 L259.5698,87.7094 L255.9028,87.7094 L255.3148,88.7214 L251.0739,88.7216 Z M143.3328,82.6437 L143.3328,84.1347 L140.8118,84.1347 L140.8118,88.7217 L138.9758,88.7217 L138.9758,84.1347 L136.4568,84.1347 L136.4568,82.6437 L143.3328,82.6437 Z M154.4962,82.6436 L154.4962,84.9016 L155.2672,84.9016 L157.6782,82.6436 L160.1212,82.6436 L156.8662,85.6446 L160.5492,88.7216 L157.9932,88.7216 L155.2672,86.4226 L154.4962,86.4226 L154.4962,88.7216 L152.6602,88.7216 L152.6602,82.6436 L154.4962,82.6436 Z M135.57,82.644 L135.57,88.722 L133.731,88.722 L133.731,82.644 L135.57,82.644 Z M128.926,82.6434 L128.926,87.2524 L132.933,87.2524 L132.933,88.7214 L127.084,88.7214 L127.084,82.6434 L128.926,82.6434 Z M179.3168,82.6435 C180.2358,82.6435 180.9048,82.8065 181.3228,83.1335 C181.7408,83.4565 181.9508,83.9735 181.9508,84.6835 L181.9508,86.7735 C181.9508,87.4485 181.7838,87.9435 181.4498,88.2535 C181.1148,88.5665 180.5838,88.7215 179.8558,88.7215 L174.0348,88.7215 L174.0348,82.6435 L179.3168,82.6435 Z M201.1797,82.6437 L203.3257,86.4387 L205.5097,82.6437 L208.1877,82.6437 L208.1877,88.7217 L206.4077,88.7217 L206.4077,84.3897 L203.9217,88.7217 L202.7187,88.7217 L200.2517,84.3897 L200.2517,88.7217 L198.4637,88.7217 L198.4637,82.6437 L201.1797,82.6437 Z M230.6105,82.6437 L234.1995,87.0997 L234.1995,82.6437 L236.0305,82.6437 L236.0305,88.7217 L233.3365,88.7217 L229.7265,84.3007 L229.7265,88.7217 L227.8895,88.7217 L227.8895,82.6437 L230.6105,82.6437 Z M226.58,82.644 L226.58,88.722 L224.738,88.722 L224.738,82.644 L226.58,82.644 Z M223.8533,82.6437 L223.8533,84.1347 L221.3323,84.1347 L221.3323,88.7217 L219.4963,88.7217 L219.4963,84.1347 L216.9773,84.1347 L216.9773,82.6437 L223.8533,82.6437 Z M214.4619,82.6434 L217.6899,88.7214 L215.6699,88.7214 L215.0869,87.7094 L211.4199,87.7094 L210.8329,88.7214 L208.8259,88.7214 L212.1159,82.6434 L214.4619,82.6434 Z M123.5226,82.6428 C123.9326,82.6428 124.2586,82.6648 124.5036,82.7028 C124.7466,82.7438 124.9546,82.8068 125.1236,82.8968 C125.4286,83.0568 125.6496,83.2958 125.7876,83.6148 C125.9246,83.9298 125.9926,84.3688 125.9926,84.9258 C125.9926,85.7588 125.8546,86.3468 125.5796,86.6918 C125.3046,87.0348 124.8406,87.2058 124.1856,87.2058 L120.7476,87.2058 L120.7476,88.7218 L118.9036,88.7218 L118.9036,82.6428 L123.5226,82.6428 Z M187.9211,82.6434 L191.1491,88.7214 L189.1291,88.7214 L188.5461,87.7094 L184.8791,87.7094 L184.2921,88.7214 L182.2851,88.7214 L185.5751,82.6434 L187.9211,82.6434 Z M172.7,85.762 L172.7,87.318 L169.974,87.318 L169.974,85.762 L172.7,85.762 Z M165.3598,84.0879 L164.1818,84.0879 C163.5188,84.0879 163.0838,84.1719 162.8798,84.3379 C162.6718,84.5039 162.5688,84.8199 162.5688,85.2849 L162.5688,86.1289 C162.5688,86.5669 162.6768,86.8689 162.8958,87.0319 C163.1108,87.1949 163.5428,87.2769 164.1898,87.2769 L165.3598,87.2769 C166.0098,87.2769 166.4408,87.1949 166.6548,87.0289 C166.8678,86.8659 166.9728,86.5589 166.9728,86.1119 L166.9728,85.2529 C166.9728,84.8059 166.8678,84.5019 166.6548,84.3359 C166.4408,84.1719 166.0098,84.0879 165.3598,84.0879 Z M178.7558,84.1425 L175.8708,84.1425 L175.8708,87.2445 L178.9848,87.2445 C179.3758,87.2445 179.6618,87.1625 179.8428,87.0025 C180.0228,86.8415 180.1148,86.5915 180.1148,86.2485 L180.1148,85.1795 C180.1148,84.8225 180.0038,84.5615 179.7828,84.3925 C179.5648,84.2265 179.2218,84.1425 178.7558,84.1425 Z M257.7418,84.0964 L256.5988,86.2484 L258.9118,86.2484 L257.7418,84.0964 Z M213.2589,84.0964 L212.1159,86.2484 L214.4299,86.2484 L213.2589,84.0964 Z M186.7181,84.0964 L185.5751,86.2484 L187.8891,86.2484 L186.7181,84.0964 Z M123.4576,84.1588 L120.7476,84.1588 L120.7476,85.6958 L123.4576,85.6958 C123.7026,85.6958 123.8726,85.6358 123.9726,85.5168 C124.0696,85.3938 124.1206,85.1788 124.1206,84.8688 C124.1206,84.6218 124.0666,84.4418 123.9616,84.3278 C123.8566,84.2158 123.6896,84.1588 123.4576,84.1588 Z M128.6426,65.8777 L128.6426,69.5297 L118.4446,75.6867 L128.6426,75.6867 L128.6426,79.3737 L110.3046,79.3737 L110.3046,75.9057 L120.9886,69.5297 L110.6156,69.5297 L110.6156,65.8777 L128.6426,65.8777 Z M166.69,65.878 C168.118,65.878 169.153,66.097 169.798,66.535 C170.443,66.974 170.766,67.675 170.766,68.637 L170.766,72.362 C170.766,73.245 170.443,73.9 169.791,74.333 C169.145,74.764 168.151,74.981 166.82,74.981 L158.502,74.981 L158.502,79.374 L152.309,79.374 L152.309,65.878 L166.69,65.878 Z M187.25,65.878 C188.636,65.878 189.723,66.127 190.509,66.624 C191.295,67.12 191.692,67.801 191.692,68.665 L191.692,79.374 L185.484,79.374 L185.484,73.94 L178.713,73.94 L178.713,79.374 L172.546,79.374 L172.546,68.665 C172.546,67.801 172.939,67.12 173.729,66.624 C174.515,66.127 175.602,65.878 176.985,65.878 L187.25,65.878 Z M201.6344,65.878 L206.4734,71.188 C206.6224,71.352 206.7924,71.566 206.9894,71.833 C207.1824,72.095 207.4454,72.468 207.7714,72.942 C207.6604,72.567 207.5784,72.173 207.5264,71.765 C207.4754,71.357 207.4494,70.911 207.4494,70.429 L207.4494,65.878 L213.3564,65.878 L213.3564,79.374 L207.4494,79.374 L200.9184,72.307 C200.7744,72.156 200.5844,71.924 200.3544,71.616 C200.1254,71.306 199.8764,70.956 199.6094,70.563 C199.7204,70.938 199.8064,71.327 199.8584,71.73 C199.9094,72.133 199.9324,72.574 199.9324,73.048 L199.9324,79.374 L194.0284,79.374 L194.0284,65.878 L201.6344,65.878 Z M222.012,65.878 L222.012,79.374 L215.823,79.374 L215.823,65.878 L222.012,65.878 Z M257.731,65.878 C259.118,65.878 260.204,66.127 260.991,66.624 C261.777,67.12 262.174,67.801 262.174,68.665 L262.174,79.374 L255.966,79.374 L255.966,73.94 L249.194,73.94 L249.194,79.374 L243.027,79.374 L243.027,68.665 C243.027,67.801 243.42,67.12 244.21,66.624 C244.996,66.127 246.083,65.878 247.466,65.878 L257.731,65.878 Z M136.9641,65.8776 L136.9641,75.6866 L143.7431,75.6866 L143.7431,65.8776 L149.9211,65.8776 L149.9211,76.5966 C149.9211,77.4586 149.5281,78.1386 148.7451,78.6326 C147.9631,79.1266 146.8801,79.3736 145.5081,79.3736 L135.2141,79.3736 C133.8301,79.3736 132.7441,79.1246 131.9581,78.6276 C131.1681,78.1316 130.7751,77.4536 130.7751,76.5966 L130.7751,65.8776 L136.9641,65.8776 Z M240.6538,65.8777 L240.6538,75.7397 C240.6538,76.9447 240.2528,77.8517 239.4518,78.4617 C238.6508,79.0687 237.4498,79.3737 235.8478,79.3737 L229.0618,79.3737 C227.4598,79.3737 226.2618,79.0687 225.4608,78.4617 C224.6598,77.8517 224.2588,76.9447 224.2588,75.7397 L224.2588,73.1037 L230.1258,73.1037 L230.1258,75.6867 L234.7578,75.6867 L234.7578,65.8777 L240.6538,65.8777 Z M22.522,39.048 L11.497,39.048 L11.497,72.123 L22.522,72.123 L22.521,61.109 L33.546,61.109 L33.546,50.084 L22.521,50.084 L22.522,39.048 Z M55.596,28.023 L44.571,28.023 L44.571,39.059 L33.546,39.059 L33.546,50.084 L44.571,50.084 L44.571,61.098 L55.596,61.098 L55.596,50.084 L66.62,50.084 L66.62,61.109 L77.644,61.108 L77.645,72.123 L88.67,72.123 L88.67,39.048 L77.645,39.048 L77.644,50.083 L66.621,50.084 L66.621,39.059 L55.596,39.059 L55.596,28.023 Z M164.51,69.53 L158.421,69.53 L158.421,71.876 L164.51,71.876 L164.51,69.53 Z M185.484,69.53 L178.713,69.53 L178.713,71.206 L185.484,71.206 L185.484,69.53 Z M255.965,69.53 L249.194,69.53 L249.194,71.206 L255.965,71.206 L255.965,69.53 Z M117.2096,62.7297 L119.4676,64.0357 L121.7266,62.7297 L123.5846,62.7297 L121.0106,65.2247 L117.9256,65.2247 L115.3516,62.7297 L117.2096,62.7297 Z M196.7176,11.3443 L196.7176,24.1703 L157.8726,24.1703 L157.8726,45.7963 L196.6326,45.7963 L196.6326,58.7463 L155.1836,58.7463 C149.2076,58.7463 144.7376,57.6703 141.7796,55.5243 C138.8226,53.3773 137.3406,50.1333 137.3406,45.7963 L137.3406,24.1703 C137.3406,20.0593 138.8346,16.8943 141.8226,14.6723 C144.8106,12.4553 149.0676,11.3443 154.5856,11.3443 L196.7176,11.3443 Z M262.1573,11.3443 L262.1573,24.1703 L243.0333,24.1703 L243.0333,58.7463 L221.6043,58.7463 L221.6043,24.1703 L201.5843,24.1703 L201.5843,11.3443 L262.1573,11.3443 Z M131.931,11.344 L131.931,58.746 L110.289,58.746 L110.289,11.344 L131.931,11.344 Z" id="Combined-Shape"></path>
        </g>
    </g>
</svg>