<?xml version="1.0" encoding="UTF-8"?>
<svg width="499px" height="70px" viewBox="0 0 499 70" version="1.1" xmlns="http://www.w3.org/2000/svg" xmlns:xlink="http://www.w3.org/1999/xlink">
    <title>infinum</title>
    <g id="Page-1" stroke="none" stroke-width="1" fill="none" fill-rule="evenodd">
        <g id="infinum" fill="#FFFFFF" fill-rule="nonzero">
            <path d="M106.176923,0 C123.773077,0.192307692 137.973077,13.2769231 137.973077,33.7692308 L137.980769,33.9538462 L137.984615,33.9538462 C137.984615,56.1461538 121.892308,69.2307692 105.053846,69.2307692 C94.2576923,69.2307692 82.3423077,65.0576923 69.0923077,47.0384615 C58.8692308,59.7538462 48.4615385,69.2307692 32.3653846,69.2307692 C15.5076923,69.2307692 2.84217094e-14,55.5769231 2.84217094e-14,34.9038462 C2.84217094e-14,14.2346154 14.9538462,0 34.2653846,0 C49.3961538,0 59.0230769,8.35384615 69.0576923,21.6269231 C77,12.7153846 88,-0.180769231 106.176923,0 Z M381.996154,5.26538462 L390.765385,5.26538462 C391.588462,5.26538462 392.119231,5.37307692 392.361538,5.59615385 C392.603846,5.81538462 392.734615,6.28076923 392.734615,6.98846154 L392.734615,39.5961538 C392.707375,41.570504 392.900884,43.5417138 393.311538,45.4730769 C393.623077,47.0115385 394.330769,48.4346154 395.357692,49.6230769 C396.353846,50.7153846 397.661538,51.5230769 399.342308,52.0461538 C401.023077,52.5692308 403.15,52.8230769 405.773077,52.8230769 C406.157692,52.8230769 406.676923,52.8076923 407.330769,52.7846154 L409.503846,52.7 C410.292308,52.6692308 411.119231,52.6230769 411.965385,52.5384615 C412.75,52.4615385 413.530769,52.3384615 414.3,52.1653846 L414.3,6.98846154 C414.3,6.33461538 414.45,5.88076923 414.753846,5.63076923 C415.057692,5.38461538 415.530769,5.26538462 416.184615,5.26538462 L424.846154,5.26538462 C425.665385,5.26538462 426.173077,5.37307692 426.361538,5.59615385 C426.553846,5.81538462 426.65,6.28076923 426.65,6.98846154 L426.661538,54.8 C426.661538,56.7192308 426.238462,58.3576923 425.392308,59.7307692 C424.546154,61.1 422.969231,62.0846154 420.680769,62.6884615 C419.491366,62.9771609 418.283322,63.1827853 417.065385,63.3038462 C415.757692,63.4423077 414.45,63.5346154 413.134615,63.5884615 C411.819231,63.6423077 410.592308,63.6846154 409.446154,63.7153846 C408.296154,63.7384615 407.369231,63.7538462 406.657692,63.7538462 C401.957692,63.7538462 397.926923,63.3576923 394.569231,62.5653846 C391.211538,61.7730769 388.465385,60.4192308 386.326923,58.5 C384.196154,56.5769231 382.642308,54.0307692 381.657692,50.8576923 C380.676923,47.6807692 380.184615,43.6846154 380.180769,38.8653846 L380.1,6.98846154 C380.1,6.33461538 380.265385,5.88076923 380.6,5.63076923 C381.014683,5.36359295 381.503754,5.23559915 381.996154,5.26538462 Z M448.957692,5.18461538 C450.484615,5.18461538 451.615385,5.47307692 452.357692,6.04615385 C453.096154,6.62307692 453.792308,7.61538462 454.453846,9.03461538 L463.396154,29.0769231 L468.484615,40.7423077 L468.815385,40.7423077 L474.396154,27.9269231 L482.792308,9.21538462 C483.446154,7.73846154 484.176923,6.7 484.965385,6.09615385 C485.757692,5.49230769 487.034615,5.19230769 488.784615,5.19230769 L492.807692,5.19230769 C494.55,5.19230769 495.873077,5.56153846 496.75,6.3 C497.623077,7.03846154 498.061538,8.45384615 498.061538,10.5307692 L498.061538,61.1269231 C498.061538,61.8961538 497.919231,62.3576923 497.65,62.5230769 C497.380769,62.6923077 496.880769,62.7730769 496.153846,62.7730769 L487.984615,62.7730769 C487.517346,62.7992119 487.050582,62.7135067 486.623077,62.5230769 C486.315385,62.3576923 486.169231,61.8923077 486.169231,61.1269231 L486.176923,29.6653846 L485.676923,29.6653846 L482.315385,37.3 L475.507692,52.4153846 C474.907692,53.8423077 474.292308,54.8 473.669231,55.2923077 C473.042308,55.7846154 472.1,56.0307692 470.838462,56.0384615 L466.330769,56.0384615 C464.965385,56.0384615 464.019231,55.7884615 463.503846,55.2923077 C462.988462,54.7923077 462.396154,53.8423077 461.742308,52.4192308 L456.653846,41.7384615 L451.576923,30.6461538 L451.076923,30.6461538 L451.076923,61.1269231 C451.076923,61.8961538 450.934615,62.3576923 450.665385,62.5230769 C450.396154,62.6923077 449.896154,62.7730769 449.192308,62.7730769 L440.826923,62.7730769 C440.349965,62.7949125 439.874183,62.709482 439.434615,62.5230769 C439.107692,62.3576923 438.934615,61.8923077 438.934615,61.1269231 L438.934615,10.9346154 C438.934615,8.85 439.330769,7.37307692 440.126923,6.49615385 C440.919231,5.62307692 442.273077,5.18461538 444.188462,5.18461538 L448.957692,5.18461538 Z M170.4,5.27307692 C171.215385,5.27307692 171.746154,5.38461538 171.996154,5.6 C172.246154,5.82307692 172.365385,6.28461538 172.365385,7 L172.365385,61.0384615 C172.365385,61.7538462 172.242308,62.2192308 171.996154,62.4346154 L171.996154,62.4384615 C171.75,62.6576923 171.215385,62.7692308 170.4,62.7692308 L161.707692,62.7692308 C161.046154,62.7692308 160.565385,62.6461538 160.273077,62.4 C159.973077,62.15 159.819231,61.7 159.819231,61.0423077 L159.819231,7 C159.819231,6.33461538 159.973077,5.88461538 160.273077,5.64230769 C160.576923,5.40384615 161.053846,5.28076923 161.707692,5.27307692 L170.4,5.27307692 Z M303.865385,5.27307692 C304.684615,5.27307692 305.215385,5.38461538 305.457692,5.6 C305.703846,5.81923077 305.830769,6.28461538 305.830769,7 L305.830769,61.0384615 C305.830769,61.7538462 305.707692,62.2192308 305.457692,62.4346154 L305.461538,62.4384615 C305.211538,62.6576923 304.684615,62.7692308 303.861538,62.7692308 L295.169231,62.7692308 C294.507692,62.7692308 294.030769,62.6461538 293.738462,62.4 C293.434615,62.15 293.284615,61.7 293.284615,61.0423077 L293.284615,7 C293.284615,6.33461538 293.438462,5.88461538 293.738462,5.64230769 C294.046154,5.40384615 294.523077,5.28076923 295.173077,5.27307692 L303.865385,5.27307692 Z M194.492308,5.17307692 C195.192308,5.16538462 195.888462,5.21153846 196.584615,5.3 C197.123077,5.36923077 197.638462,5.55 198.1,5.83461538 C198.573077,6.14230769 198.988462,6.52692308 199.330769,6.98076923 C199.711538,7.48076923 200.15,8.10384615 200.638462,8.87307692 L214.584615,30.1461538 L221.638462,41.2461538 L222.046154,41.2461538 L222.046154,6.90769231 C222.046154,6.25 222.169231,5.8 222.415385,5.55 C222.661538,5.3 223.161538,5.18076923 223.930769,5.18076923 L232.542308,5.18076923 C233.784615,5.18076923 234.426923,5.75769231 234.426923,6.90769231 L234.426923,57.1 C234.426923,58.8538462 234.069231,60.2346154 233.357692,61.25 C232.65,62.2653846 231.230769,62.7653846 229.096154,62.7653846 L225.646154,62.7653846 C224.946677,62.7742209 224.247463,62.7330907 223.553846,62.6423077 C223.016733,62.5751091 222.500121,62.3941636 222.038462,62.1115385 C221.571995,61.809996 221.156535,61.4360814 220.807692,61.0038462 C220.336621,60.4114742 219.900002,59.7925038 219.5,59.15 L206.384615,39.2769231 L198.515385,27.0346154 L198.103846,27.0346154 L198.103846,61.0423077 C198.103846,61.7576923 197.980769,62.2230769 197.734615,62.4384615 C197.484615,62.6615385 196.984615,62.7653846 196.215385,62.7653846 L187.607692,62.7653846 C186.953846,62.7653846 186.473077,62.6423077 186.176923,62.3961538 C185.876923,62.15 185.726923,61.7 185.726923,61.0423077 L185.726923,10.9307692 C185.726923,8.8 186.107692,7.30384615 186.869231,6.45 C187.634615,5.59615385 189.030769,5.16923077 191.053846,5.17307692 L194.492308,5.17307692 Z M282.788462,5.18456422 C283.496154,5.18456422 283.95,5.32307692 284.142308,5.59615385 C284.334615,5.86923077 284.426923,6.38846154 284.426923,7.15384615 L284.426923,14.1384615 C284.426923,14.85 284.307692,15.3307692 284.061538,15.5730769 C283.815385,15.8192308 283.396154,15.9384615 282.792308,15.9384615 L264.507692,15.9384615 C262.369231,15.9384615 260.953846,16.4192308 260.238462,17.3769231 C259.523077,18.3346154 259.173077,19.5538462 259.173077,21.0307692 L259.173077,28.5923077 L279.515385,28.5923077 C280.180769,28.5923077 280.603846,28.7153846 280.784615,28.9576923 C280.969231,29.2038462 281.065385,29.7384615 281.073077,30.5615385 L281.073077,36.9692308 C281.073077,37.6269231 280.961538,38.1076923 280.746154,38.4076923 C280.530769,38.7076923 280.115385,38.8615385 279.515385,38.8615385 L259.173077,38.8615385 L259.173077,61.0384615 C259.173077,61.8076923 259.065385,62.2807692 258.85,62.4807692 L258.846154,62.4846154 C258.630769,62.6769231 258.1,62.7653846 257.288462,62.7653846 L248.603846,62.7653846 C247.938462,62.7653846 247.461538,62.6423077 247.165385,62.3961538 C246.873077,62.15 246.723077,61.7 246.714971,61.0423077 L246.714971,20.3807692 C246.706632,18.4636382 246.969499,16.5549329 247.496154,14.7115385 C247.996154,12.9423077 248.857692,11.2884615 250.026923,9.86538462 C251.282917,8.38146761 252.870615,7.21408078 254.661538,6.45769231 C256.573077,5.60769231 258.95,5.18076923 261.796154,5.18456422 L282.788462,5.18456422 Z M327.973077,5.17307692 C328.673077,5.16538462 329.373077,5.21153846 330.065385,5.3 C330.603846,5.36923077 331.119231,5.55 331.580769,5.83461538 C332.053846,6.14230769 332.469231,6.52692308 332.811538,6.98076923 C333.192308,7.48076923 333.630769,8.10384615 334.119231,8.87307692 L348.065385,30.1461538 L355.115385,41.2384615 L355.523077,41.2384615 L355.523077,6.90769231 C355.523077,6.25 355.65,5.8 355.892308,5.55 C356.138462,5.3 356.642308,5.18076923 357.411538,5.18076923 L366.023077,5.18076923 C367.265385,5.18076923 367.907692,5.75769231 367.907692,6.90769231 L367.907692,57.1 C367.907692,58.8538462 367.55,60.2346154 366.838462,61.25 C366.126923,62.2653846 364.707692,62.7653846 362.573077,62.7653846 L359.103846,62.7653846 C358.403093,62.7741427 357.702605,62.7330132 357.007692,62.6423077 C356.471799,62.5750396 355.956455,62.3940793 355.496154,62.1115385 C355.029688,61.809996 354.614227,61.4360814 354.265385,61.0038462 C353.794381,60.4114234 353.357765,59.792457 352.957692,59.15 L339.842308,39.2769231 L331.969231,27.0346154 L331.569231,27.0346154 L331.569231,61.0423077 C331.569231,61.7576923 331.446154,62.2230769 331.2,62.4384615 C330.95,62.6615385 330.453846,62.7653846 329.680769,62.7653846 L321.076923,62.7653846 C320.419231,62.7653846 319.942308,62.6423077 319.642308,62.3961538 C319.342308,62.15 319.192308,61.7038462 319.192308,61.0423077 L319.192308,10.9307692 C319.192308,8.8 319.573077,7.30384615 320.338462,6.45 C321.1,5.59615385 322.492308,5.16923077 324.519231,5.17307692 L327.973077,5.17307692 Z M103.669231,15.3615385 L103.292308,15.3653846 C92.6961538,15.3653846 84.1769231,25.0423077 77.3615385,33.3730769 C85.1115385,44.1884615 91.7461538,53.8615385 104.238462,53.8615385 C114.461538,53.8615385 121.834615,45.9 121.834615,33.95 C121.834615,23.9 114.080769,15.3615385 103.669231,15.3615385 Z M33.6846154,15.1846154 C23.4615385,15.1846154 16.0846154,23.1461538 16.0846154,35.0961538 C16.0846154,45.1461538 23.8384615,53.6846154 34.25,53.6846154 L34.6269231,53.6807692 C45.2269231,53.6807692 53.7423077,44 60.5576923,35.6730769 C52.8038462,24.8538462 46.1769231,15.1846154 33.6846154,15.1846154 Z" id="Combined-Shape"></path>
        </g>
    </g>
</svg>