<?xml version="1.0" encoding="UTF-8"?>
<svg width="266px" height="129px" viewBox="0 0 266 129" version="1.1" xmlns="http://www.w3.org/2000/svg" xmlns:xlink="http://www.w3.org/1999/xlink">
    <title>microblink</title>
    <g id="Page-1" stroke="none" stroke-width="1" fill="none" fill-rule="evenodd">
        <g id="microblink" fill="#FFFFFF" fill-rule="nonzero">
            <path d="M121.5392,100.693 C123.5422,100.693 125.3832,101.046 127.0642,101.75 C128.7452,102.454 130.1852,103.424 131.3842,104.661 C132.5832,105.897 133.5212,107.355 134.2022,109.036 C134.8822,110.717 135.2222,112.534 135.2222,114.486 C135.2222,116.439 134.8822,118.256 134.2022,119.937 C133.5212,121.619 132.5832,123.077 131.3842,124.312 C130.1852,125.548 128.7452,126.519 127.0642,127.223 C125.3832,127.927 123.5422,128.28 121.5392,128.28 C119.5372,128.28 117.6952,127.927 116.0152,127.223 C114.3332,126.519 112.8932,125.548 111.6942,124.312 C110.4952,123.077 109.5572,121.619 108.8772,119.937 C108.1962,118.256 107.8572,116.439 107.8572,114.486 C107.8572,112.534 108.1962,110.717 108.8772,109.036 C109.5572,107.355 110.4952,105.897 111.6942,104.661 C112.8932,103.424 114.3332,102.454 116.0152,101.75 C117.6952,101.046 119.5372,100.693 121.5392,100.693 Z M64.7437,100.6928 C66.4727,100.6928 68.1727,101.0268 69.8417,101.6938 C71.5097,102.3608 72.8757,103.3878 73.9397,104.7708 L70.9727,107.0338 C70.2307,106.0688 69.2907,105.3278 68.1547,104.8078 C67.0177,104.2898 65.8427,104.0298 64.6317,104.0298 C63.1487,104.0298 61.8077,104.3078 60.6087,104.8638 C59.4097,105.4208 58.3837,106.1798 57.5317,107.1438 C56.6777,108.1088 56.0167,109.2398 55.5467,110.5378 C55.0767,111.8358 54.8427,113.2258 54.8427,114.7088 C54.8427,116.0938 55.0657,117.4038 55.5107,118.6388 C55.9547,119.8758 56.5977,120.9638 57.4387,121.9018 C58.2787,122.8428 59.3047,123.5838 60.5157,124.1278 C61.7267,124.6718 63.0987,124.9428 64.6317,124.9428 C66.1397,124.9428 67.4617,124.6348 68.5997,124.0158 C69.7367,123.3978 70.7007,122.5328 71.4917,121.4208 L74.4947,123.6818 C74.2967,123.9548 73.9517,124.3438 73.4567,124.8498 C72.9617,125.3568 72.3077,125.8638 71.4917,126.3708 C70.6757,126.8778 69.6937,127.3218 68.5437,127.7058 C67.3947,128.0888 66.0657,128.2798 64.5577,128.2798 C62.4817,128.2798 60.6087,127.8848 58.9407,127.0938 C57.2717,126.3028 55.8497,125.2638 54.6757,123.9788 C53.5017,122.6938 52.6057,121.2418 51.9877,119.6218 C51.3697,118.0038 51.0607,116.3658 51.0607,114.7088 C51.0607,112.6818 51.3947,110.8098 52.0617,109.0918 C52.7297,107.3738 53.6617,105.8898 54.8617,104.6408 C56.0597,103.3938 57.4997,102.4238 59.1807,101.7308 C60.8627,101.0398 62.7157,100.6928 64.7437,100.6928 Z M92.0481,101.3603 C93.7281,101.3603 95.1121,101.5893 96.2001,102.0463 C97.2881,102.5033 98.1471,103.0843 98.7771,103.7883 C99.4071,104.4933 99.8471,105.2843 100.0941,106.1613 C100.3411,107.0393 100.4641,107.8863 100.4641,108.7013 C100.4641,109.5423 100.3161,110.3523 100.0201,111.1303 C99.7231,111.9093 99.2971,112.6143 98.7401,113.2443 C98.1841,113.8743 97.5041,114.4073 96.7011,114.8383 C95.8971,115.2713 95.0011,115.5373 94.0131,115.6353 L101.4661,127.6133 L97.0171,127.6133 L90.3421,116.0433 L86.3741,116.0433 L86.3741,127.6133 L82.8141,127.6133 L82.8141,101.3603 L92.0481,101.3603 Z M198.99,101.36 L198.99,127.613 L195.429,127.613 L195.429,101.36 L198.99,101.36 Z M214.8586,101.36 L229.3196,122.941 L229.3946,122.941 L229.3946,101.36 L232.9546,101.36 L232.9546,127.613 L228.4296,127.613 L213.8216,106.032 L213.7476,106.032 L213.7476,127.613 L210.1866,127.613 L210.1866,101.36 L214.8586,101.36 Z M5.5814,101.36 L13.9244,121.235 L14.0714,121.235 L22.3404,101.36 L27.6434,101.36 L27.6434,127.613 L24.0834,127.613 L24.0834,106.032 L24.0084,106.032 L15.1474,127.613 L12.7744,127.613 L3.9124,106.032 L3.8384,106.032 L3.8384,127.613 L0.2784,127.613 L0.2784,101.36 L5.5814,101.36 Z M42.141,101.36 L42.141,127.613 L38.581,127.613 L38.581,101.36 L42.141,101.36 Z M153.0484,101.3597 C154.1844,101.3597 155.2414,101.4967 156.2184,101.7687 C157.1944,102.0407 158.0354,102.4417 158.7404,102.9737 C159.4444,103.5057 160.0014,104.1857 160.4084,105.0127 C160.8164,105.8417 161.0204,106.8107 161.0204,107.9237 C161.0204,109.4317 160.5994,110.6617 159.7594,111.6127 C158.9194,112.5637 157.8324,113.2627 156.4964,113.7077 L156.4964,113.7817 C157.2874,113.8317 158.0294,114.0357 158.7214,114.3937 C159.4134,114.7527 160.0124,115.2227 160.5194,115.8027 C161.0264,116.3837 161.4284,117.0577 161.7244,117.8237 C162.0214,118.5907 162.1704,119.4177 162.1704,120.3087 C162.1704,121.4947 161.9284,122.5387 161.4464,123.4407 C160.9654,124.3437 160.3024,125.1037 159.4634,125.7217 C158.6224,126.3397 157.6464,126.8097 156.5334,127.1307 C155.4224,127.4517 154.2214,127.6127 152.9364,127.6127 L143.9264,127.6127 L143.9264,101.3597 L153.0484,101.3597 Z M175.2964,101.36 L175.2964,124.275 L187.3454,124.275 L187.3454,127.613 L171.7354,127.613 L171.7354,101.36 L175.2964,101.36 Z M247.2808,101.36 L247.2808,112.707 L247.5768,112.707 L259.1828,101.36 L264.1518,101.36 L251.4698,113.485 L265.0038,127.613 L259.8128,127.613 L247.5768,114.486 L247.2808,114.486 L247.2808,127.613 L243.7198,127.613 L243.7198,101.36 L247.2808,101.36 Z M121.5392,104.03 C120.0312,104.03 118.6712,104.308 117.4612,104.864 C116.2492,105.421 115.2112,106.169 114.3462,107.107 C113.4802,108.047 112.8132,109.154 112.3442,110.426 C111.8742,111.7 111.6402,113.053 111.6402,114.486 C111.6402,115.921 111.8742,117.274 112.3442,118.547 C112.8132,119.82 113.4802,120.926 114.3462,121.865 C115.2112,122.805 116.2492,123.552 117.4612,124.108 C118.6712,124.665 120.0312,124.943 121.5392,124.943 C123.0472,124.943 124.4062,124.665 125.6182,124.108 C126.8292,123.552 127.8672,122.805 128.7322,121.865 C129.5982,120.926 130.2662,119.82 130.7352,118.547 C131.2042,117.274 131.4392,115.921 131.4392,114.486 C131.4392,113.053 131.2042,111.7 130.7352,110.426 C130.2662,109.154 129.5982,108.047 128.7322,107.107 C127.8672,106.169 126.8292,105.421 125.6182,104.864 C124.4062,104.308 123.0472,104.03 121.5392,104.03 Z M152.7514,115.3767 L147.4864,115.3767 L147.4864,124.4977 L152.7154,124.4977 C153.2574,124.4977 153.8574,124.4417 154.5124,124.3307 C155.1684,124.2207 155.7794,123.9977 156.3484,123.6637 C156.9164,123.3297 157.3984,122.8797 157.7954,122.3097 C158.1894,121.7417 158.3874,120.9877 158.3874,120.0487 C158.3874,118.4907 157.8814,117.3227 156.8674,116.5447 C155.8534,115.7657 154.4814,115.3767 152.7514,115.3767 Z M91.0461,104.4753 L86.3741,104.4753 L86.3741,112.9293 L91.0461,112.9293 C91.7381,112.9293 92.4241,112.8733 93.1041,112.7623 C93.7841,112.6513 94.3901,112.4473 94.9211,112.1503 C95.4521,111.8543 95.8791,111.4273 96.2001,110.8703 C96.5211,110.3153 96.6831,109.5913 96.6831,108.7013 C96.6831,107.8123 96.5211,107.0893 96.2001,106.5333 C95.8791,105.9773 95.4521,105.5503 94.9211,105.2533 C94.3901,104.9563 93.7841,104.7533 93.1041,104.6413 C92.4241,104.5313 91.7381,104.4753 91.0461,104.4753 Z M153.0864,104.4757 L147.4864,104.4757 L147.4864,112.2617 L152.3434,112.2617 C153.0104,112.2617 153.6414,112.1937 154.2344,112.0587 C154.8284,111.9227 155.3464,111.6927 155.7924,111.3717 C156.2374,111.0507 156.5894,110.6437 156.8484,110.1477 C157.1084,109.6537 157.2384,109.0487 157.2384,108.3307 C157.2384,107.2937 156.9044,106.3917 156.2374,105.6247 C155.5694,104.8587 154.5184,104.4757 153.0864,104.4757 Z M134.733,60.6 L134.733,71.74 L130.451,71.74 L130.451,60.6 L134.733,60.6 Z M106.5571,59.3973 L109.5841,62.4253 L101.7071,70.3023 L98.6791,67.2743 L106.5571,59.3973 Z M158.5899,59.3189 L166.4669,67.1959 L163.4389,70.2239 L155.5619,62.3459 L158.5899,59.3189 Z M108.381,34.209 L108.381,38.491 L97.241,38.491 L97.241,34.209 L108.381,34.209 Z M168.042,34.111 L168.042,38.393 L156.901,38.393 L156.901,34.111 L168.042,34.111 Z M101.7068,2.4365 L109.5838,10.3135 L106.5568,13.3415 L98.6788,5.4645 L101.7068,2.4365 Z M163.4386,2.358 L166.4666,5.386 L158.5896,13.263 L155.5616,10.235 L163.4386,2.358 Z M134.695,0.921 L134.695,12.061 L130.412,12.061 L130.412,0.921 L134.695,0.921 Z" id="Combined-Shape"></path>
        </g>
    </g>
</svg>