<?xml version="1.0" encoding="UTF-8"?>
<svg width="500px" height="94px" viewBox="0 0 500 94" version="1.1" xmlns="http://www.w3.org/2000/svg" xmlns:xlink="http://www.w3.org/1999/xlink">
    <title>nanobit</title>
    <g id="Page-1" stroke="none" stroke-width="1" fill="none" fill-rule="evenodd">
        <g id="nanobit" fill="#FFFFFF" fill-rule="nonzero">
            <path d="M38.1300813,55.1402439 C38.2317073,55.1402439 38.3333333,55.1504065 38.4349593,55.1544715 C38.5609756,55.1595528 38.6859756,55.1615854 38.8119919,55.1727642 C38.9319106,55.1839431 39.050813,55.2042683 39.1697154,55.2205285 C39.2936992,55.2378049 39.4186992,55.2510163 39.5426829,55.2743902 C39.6626016,55.296748 39.7804878,55.3292683 39.8993902,55.3577236 C40.0213415,55.3871951 40.1432927,55.4115854 40.2642276,55.4471545 C40.3831301,55.4817073 40.4989837,55.5264228 40.6168699,55.5670732 C40.7357724,55.6077236 40.8546748,55.6443089 40.9705285,55.6910569 C41.0884146,55.7388211 41.2022358,55.796748 41.3180894,55.8506098 C41.429878,55.902439 41.5436992,55.949187 41.6544715,56.0071138 C41.7693089,56.0680894 41.8810976,56.1392276 41.9939024,56.2063008 C42.1006098,56.2693089 42.2093496,56.3272358 42.3130081,56.3953252 C42.4247967,56.4684959 42.5304878,56.5538618 42.6392276,56.6341463 C42.7398374,56.7083333 42.8424797,56.7764228 42.9400407,56.8556911 C43.0447154,56.9420732 43.1432927,57.0386179 43.2449187,57.1310976 C43.3384146,57.2154472 43.4359756,57.2947154 43.5264228,57.3851626 L43.5264228,57.3851626 L66.5010163,80.3628049 C69.5731707,83.4349593 69.5721545,88.4156504 66.5,91.4878049 C64.9644309,93.023374 62.9512195,93.7916667 60.9380081,93.7916667 C58.9247967,93.7916667 56.9115854,93.023374 55.375,91.4878049 L55.375,91.4878049 L46.3323171,82.4441057 C41.7977642,77.9146341 34.4593496,77.9166667 29.9319106,82.4430894 L29.9319106,82.4430894 L29.7876016,82.5873984 C28.2520325,84.1229675 26.2388211,84.8912602 24.2256098,84.8912602 C22.1829268,84.8912602 20.1422764,84.1006098 18.597561,82.5203252 C15.5640244,79.4146341 15.7367886,74.3892276 18.8069106,71.3191057 L18.8069106,71.3191057 L32.5670732,57.5599593 C32.7581301,57.3567073 32.953252,57.1697154 33.1554878,56.9949187 C33.2164634,56.9430894 33.2815041,56.898374 33.3434959,56.8485772 C33.4878049,56.7317073 33.6310976,56.6138211 33.7815041,56.5091463 C33.8617886,56.4522358 33.9471545,56.4054878 34.0294715,56.3526423 C34.1656504,56.2642276 34.300813,56.1737805 34.4420732,56.0955285 C34.5335366,56.0447154 34.629065,56.0030488 34.722561,55.9563008 C34.8587398,55.8882114 34.9928862,55.8170732 35.1321138,55.7571138 C35.2327236,55.7134146 35.3373984,55.679878 35.4400407,55.6412602 C35.5752033,55.5904472 35.7083333,55.5355691 35.8455285,55.4928862 C35.9522358,55.4593496 36.0619919,55.4349593 36.1697154,55.4065041 C36.3058943,55.3699187 36.4410569,55.3302846 36.578252,55.3018293 C36.6880081,55.2794715 36.7977642,55.2662602 36.9075203,55.2479675 C37.046748,55.2245935 37.1849593,55.2002033 37.324187,55.1849593 C37.4329268,55.1727642 37.5416667,55.1707317 37.6504065,55.1636179 C37.7926829,55.1544715 37.9349593,55.1432927 38.0772358,55.1422764 C38.0945122,55.1422764 38.1117886,55.1402439 38.1300813,55.1402439 Z M75.9166667,15.679878 C77.2642276,15.679878 78.6087398,16.0477642 79.800813,16.7662602 C80.3150407,17.0752033 80.8038618,17.4441057 81.2469512,17.8871951 C84.1900407,20.8323171 84.1900407,25.6046748 81.2469512,28.5487805 L81.2469512,28.5487805 L72.5813008,37.2144309 L72.5813008,37.2144309 C72.2703252,37.554878 71.9786585,37.9034553 71.679878,38.2469512 C68.2754065,42.6087398 68.570122,48.9186992 72.5813008,52.9308943 L72.5813008,52.9308943 L81.2469512,61.5965447 C84.1910569,64.5406504 84.1910569,69.3140244 81.2469512,72.2581301 C79.7754065,73.7306911 77.8455285,74.4654472 75.9166667,74.4654472 C73.9878049,74.4654472 72.0579268,73.7306911 70.5863821,72.2581301 L70.5863821,72.2581301 L48.7357724,50.4065041 C48.7347561,50.4054878 48.7327236,50.4044715 48.7317073,50.4034553 C47.2601626,48.9319106 46.5243902,47.0020325 46.5243902,45.0731707 C46.5243902,44.7174797 46.5579268,44.3628049 46.6077236,44.0101626 C46.8292683,42.4481707 47.5315041,40.9420732 48.7317073,39.7418699 C48.7327236,39.7408537 48.7347561,39.7398374 48.7357724,39.7378049 L48.7357724,39.7378049 L70.5853659,17.8871951 C72.0579268,16.4156504 73.9878049,15.679878 75.9166667,15.679878 Z M324.792302,21.6638511 C330.75888,21.6725713 338.923216,21.895664 344.269309,27.101626 C349.634146,32.2469512 350.14939,41.2865854 350.14939,47.9756098 L350.148733,48.3606892 C350.125474,55.0748017 349.460136,63.8013499 344.269309,68.8495935 C338.819369,74.0863121 330.437699,74.2802646 324.443903,74.287448 L322.73381,74.2874306 C316.765623,74.2786055 308.602247,74.0545958 303.257114,68.8495935 C297.590854,63.3243533 297.315918,54.4565484 297.303168,48.6227374 L297.303168,47.5931422 C297.315336,40.6796345 297.700462,32.2252402 303.257114,27.101626 C308.602247,21.895664 316.568011,21.6725713 322.700874,21.6638511 L324.792302,21.6638511 Z M113.331301,21.6646341 C117.839538,21.6646341 119.97955,23.336266 121.378039,25.5275159 L121.489837,25.7063008 L143.319106,60.1778455 C143.685976,60.6920732 143.833333,61.4268293 144.494919,61.4268293 C145.255321,61.4268293 145.30005,60.6454412 145.302682,60.2476514 L145.302846,23.8384146 C145.302846,23.0101061 145.936474,22.3304602 146.745708,22.2575005 L146.890244,22.2510163 L153.122967,22.2510163 C153.951276,22.2510163 154.630922,22.8846451 154.704738,23.693879 L154.711382,23.8384146 L154.711382,67.0121951 C154.711382,72.2306911 151.256098,74.2865854 147.067073,74.2865854 C143.994298,74.2865854 141.200092,73.5920821 138.95342,70.245616 L138.762195,69.9522358 L117.080285,35.7012195 C116.272358,34.5985772 116.125,34.4512195 115.903455,34.4512195 C115.558166,34.4512195 114.951814,34.7770979 114.881673,35.7347166 L114.875,35.921748 L114.875,72.1128049 C114.875,72.9411134 114.241371,73.6207594 113.432138,73.6937191 L113.287602,73.7002033 L107.054878,73.7002033 C106.22753,73.7002033 105.547031,73.0656679 105.473973,72.2571895 L105.46748,72.1128049 L105.46748,28.6463415 C105.46748,24.2357724 108.406504,21.6646341 113.331301,21.6646341 Z M239.947154,21.6646341 C244.455392,21.6646341 246.595404,23.336266 247.992955,25.5275159 L248.104675,25.7063008 L269.934959,60.1778455 C270.303862,60.6920732 270.45122,61.4268293 271.111789,61.4268293 C271.87219,61.4268293 271.916919,60.6454412 271.919551,60.2476514 L271.919715,23.8384146 C271.919715,23.0101061 272.553344,22.3304602 273.362578,22.2575005 L273.507114,22.2510163 L279.739837,22.2510163 C280.568146,22.2510163 281.248698,22.8846451 281.320905,23.693879 L281.327239,23.8384146 L281.327239,67.0121951 C281.327239,72.2306911 277.872967,74.2865854 273.682927,74.2865854 C270.609163,74.2865854 267.81397,73.5920821 265.569111,70.245616 L265.378049,69.9522358 L243.695122,35.7012195 C242.886179,34.5985772 242.739837,34.4512195 242.518293,34.4512195 C242.17396,34.4512195 241.566763,34.7770979 241.49652,35.7347166 L241.489837,35.921748 L241.489837,72.1128049 C241.489837,72.9411134 240.856209,73.6207594 240.046975,73.6937191 L239.902439,73.7002033 L233.671748,73.7002033 C232.843439,73.7002033 232.163794,73.0656679 232.090834,72.2571895 L232.08435,72.1128049 L232.08435,28.6463415 C232.08435,24.2357724 235.023374,21.6646341 239.947154,21.6646341 Z M407.79878,25.3394309 C410.66565,28.2063008 411.034553,33.0558943 411.034553,36.3638211 C411.034553,39.2296748 410.887195,42.023374 408.607724,44.7428862 C407.205978,46.4259516 405.86905,47.1052627 404.024183,47.3553435 L403.757114,47.3882114 L403.757114,47.6819106 C406.182927,47.902439 408.167683,49.004065 409.416667,50.402439 C411.688183,53.0988226 411.83567,56.4119515 411.843141,59.2835026 L411.843496,59.5894309 C411.843496,63.0436992 411.843496,67.0853659 408.903455,70.3932927 C406.12579,73.516486 403.020887,73.6899967 400.022796,73.6996362 L374.871951,73.7002033 C372.299797,73.7002033 369.947154,73.9949187 367.888211,71.6432927 C367.393029,71.0776498 366.215567,69.4885869 366.129027,66.7463354 L366.123984,66.4247967 L366.123984,29.675813 C366.123984,27.6920732 366.639228,25.7804878 367.74187,24.3841463 C369.223821,22.6202439 371.31549,22.278078 372.975691,22.253527 L373.180894,22.2520325 L398.464431,22.2520325 C401.331301,22.2520325 405.006098,22.546748 407.79878,25.3394309 Z M193.396341,21.6636179 C197.707904,21.6636179 199.912078,23.0695157 201.725519,27.1847167 L201.848577,27.4695122 L220.328252,71.4979675 C220.74874,72.5028455 220.058438,73.6079383 218.998221,73.6947379 L218.863821,73.7002033 L212.103659,73.7002033 C211.507973,73.7002033 210.966843,73.3668218 210.69528,72.8447352 L210.63313,72.7103659 L205.743902,60.6920732 L180.974593,60.6920732 L176.156504,72.703252 C175.933239,73.2595372 175.419024,73.6383076 174.831271,73.6932884 L174.682927,73.7002033 L167.928862,73.7002033 C166.840081,73.7002033 166.088472,72.6353057 166.418505,71.6240183 L166.465447,71.4979675 L184.944106,27.4695122 C186.78252,23.1341463 188.765244,21.6636179 193.396341,21.6636179 Z M435.930894,22.2510163 C436.758243,22.2510163 437.438742,22.8846451 437.5118,23.693879 L437.518293,23.8384146 L437.518293,72.1128049 C437.518293,72.9411134 436.884664,73.6207594 436.07543,73.6937191 L435.930894,73.7002033 L429.403455,73.7002033 C428.575147,73.7002033 427.895501,73.0665745 427.822541,72.2573405 L427.816057,72.1128049 L427.816057,23.8384146 C427.816057,23.011066 428.449686,22.3305669 429.258919,22.2575094 L429.403455,22.2510163 L435.930894,22.2510163 Z M498.135163,22.2510163 C498.963471,22.2510163 499.643117,22.8846451 499.716077,23.693879 L499.722561,23.8384146 L499.722561,28.3810976 C499.722561,29.2094061 499.088932,29.889052 498.279699,29.9620117 L498.135163,29.9684959 L479.583333,29.9684959 L479.583333,72.1117886 C479.583333,72.9400971 478.949704,73.6197431 478.140471,73.6927028 L477.995935,73.699187 L471.468496,73.699187 C470.640187,73.699187 469.960542,73.0655582 469.887582,72.2563242 L469.881098,72.1117886 L469.881098,29.9684959 L451.404472,29.9684959 C450.576163,29.9684959 449.896517,29.3348671 449.823557,28.5256332 L449.817073,28.3810976 L449.817073,23.8384146 C449.817073,23.011066 450.450702,22.3305669 451.259936,22.2575094 L451.404472,22.2510163 L498.135163,22.2510163 Z M7.79369919,25.0284553 C9.88313008,25.0284553 11.9827236,25.8414634 13.5609756,27.4207317 L13.5609756,27.4207317 L13.570122,27.429878 L13.570122,27.429878 L27.3343496,41.1930894 C29.3130081,43.171748 30.0010163,45.9400407 29.429878,48.4827236 C29.3912602,48.6534553 29.3638211,48.8272358 29.3140244,48.995935 C29.2327236,49.2682927 29.1321138,49.5355691 29.0213415,49.7997967 L29.0213415,49.7997967 L28.9878049,49.8932927 C28.9878049,49.8953252 28.9867886,49.8963415 28.9857724,49.898374 C28.6036585,50.777439 28.0538618,51.6006098 27.3333333,52.3191057 L27.3333333,52.3191057 L13.4278455,66.2256098 C13.0447154,66.6097561 12.6300813,66.9461382 12.1941057,67.2337398 C10.8851626,68.097561 9.375,68.5294715 7.86585366,68.5294715 C5.82418699,68.5294715 3.78150407,67.7388211 2.23780488,66.1585366 C0.341463415,64.2164634 -0.301829268,61.5254065 0.231707317,59.0304878 C0.242886179,58.9796748 0.259146341,58.929878 0.271341463,58.879065 C0.317073171,58.6808943 0.365853659,58.4827236 0.426829268,58.2886179 C0.43699187,58.2550813 0.451219512,58.222561 0.462398374,58.1900407 C0.851626016,57.004065 1.51321138,55.8892276 2.44613821,54.9552846 C2.77439024,54.5843496 3.09552846,54.2103659 3.41768293,53.8363821 C6.93699187,49.2886179 6.62093496,42.7296748 2.44613821,38.554878 L2.44613821,38.554878 L2.30284553,38.4126016 C-0.836382114,35.273374 -0.767276423,30.1402439 2.50914634,27.0884146 C3.99695122,25.703252 5.89126016,25.0284553 7.79369919,25.0284553 Z M324.057714,29.3818493 L323.689024,29.3810976 C318.325203,29.3810976 313.473577,29.8211382 310.45935,33.570122 C308.474593,36.1422764 307.297764,40.0376016 307.297764,47.9756098 C307.297764,56.3546748 308.769309,60.2510163 310.45935,62.3079268 C313.268722,66.0301265 317.955303,66.5314694 322.985117,66.5686808 L323.689024,66.5711382 C328.980691,66.5711382 333.832317,66.203252 336.992886,62.3079268 C338.682927,60.1778455 340.151423,56.2073171 340.151423,47.9756098 C340.151423,39.0833333 338.609756,35.554878 336.992886,33.570122 C334.04975,29.9093165 329.212128,29.4034004 324.057714,29.3818493 Z M395.52439,51.5772358 L375.82622,51.5772358 L375.82622,62.1615854 C375.82622,63.851626 376.047764,64.6595528 376.413618,65.1747967 C377.224593,66.0558943 378.767276,65.9827236 379.575203,65.9827236 L394.863821,65.9827236 C396.406504,65.9827236 399.051829,65.9105691 400.523374,64.1453252 C401.626016,62.7489837 401.845528,60.6178862 401.845528,58.9268293 C401.845528,57.4583333 401.700203,55.1056911 400.744919,53.7083333 C400.155488,52.9004065 398.685976,51.5772358 395.52439,51.5772358 Z M193.396341,30.703252 C192.771511,30.703252 192.278119,31.8843941 191.977808,32.6962468 L191.926829,32.8353659 L183.474593,53.7825203 L203.246951,53.7825203 L194.86687,32.8353659 C194.573171,32.027439 194.058943,30.703252 193.396341,30.703252 Z M395.229779,29.9681374 L378.694106,29.9684959 C376.684574,29.9684959 375.848848,30.7330329 375.826531,32.6279923 L375.827236,32.8353659 L375.828252,32.8353659 L375.828252,43.8587398 L394.864405,43.8587398 C396.76894,43.8562194 398.591313,43.790688 399.934959,42.0213415 C400.302846,41.5071138 401.037602,40.3313008 401.037602,36.8028455 C401.037602,35.4065041 401.037602,32.8343496 399.347561,31.2906504 C398.131584,30.0764404 396.695064,29.9741612 395.229779,29.9681374 Z M60.2378049,0 C62.2520325,0.00101626016 64.2662602,0.801829268 65.7591463,2.40752033 C68.5447154,5.39939024 68.3313008,10.1077236 65.4400407,12.9979675 C64.921748,13.5650407 64.375,14.1077236 63.8079268,14.6300813 L63.8079268,14.6300813 L43.7144309,34.7235772 C42.2428862,36.1971545 40.3130081,36.9329268 38.3841463,36.9329268 C38.1432927,36.9329268 37.9014228,36.921748 37.6615854,36.898374 C35.9796748,36.7367886 34.3414634,36.0121951 33.0538618,34.7235772 L33.0538618,34.7235772 L19.8556911,21.5254065 C19.4939024,21.1636179 19.1747967,20.7743902 18.8973577,20.3628049 C18.0660569,19.129065 17.6168699,17.7012195 17.5670732,16.2672764 C17.5,14.3546748 18.1432927,12.429878 19.5365854,10.9339431 C19.7195122,10.7378049 19.9105691,10.5538618 20.1077236,10.3810976 C21.4898374,9.17479675 23.2063008,8.55792683 24.9308943,8.52947154 C26.9014228,8.49593496 28.8831301,9.23170732 30.3871951,10.7357724 C30.796748,11.1117886 31.2184959,11.4715447 31.6382114,11.8343496 C35.995935,15.1747967 42.254065,14.8607724 46.2408537,10.8729675 L46.2408537,10.8729675 L54.9075203,2.20731707 C56.3800813,0.735772358 58.3079268,0 60.2378049,0 Z" id="Combined-Shape"></path>
        </g>
    </g>
</svg>