<?xml version="1.0" encoding="UTF-8"?>
<svg width="695px" height="234px" viewBox="0 0 695 234" version="1.1" xmlns="http://www.w3.org/2000/svg" xmlns:xlink="http://www.w3.org/1999/xlink">
    <title>pseudocode</title>
    <g id="Page-1" stroke="none" stroke-width="1" fill="none" fill-rule="evenodd">
        <g id="pseudocode" fill="#FFFFFF" fill-rule="nonzero">
            <path d="M323.62,122.002 C337.564,122.002 349.46,126.199 359.355,134.547 C369.252,142.893 375.299,153.838 377.449,167.332 L377.449,167.332 L347.76,167.332 C345.911,161.836 342.862,157.486 338.564,154.238 C334.216,150.99 329.268,149.34 323.72,149.34 C316.173,149.34 309.926,152.039 304.978,157.486 C300.03,162.885 297.581,169.682 297.581,177.928 C297.581,186.126 300.03,192.922 304.978,198.272 C309.926,203.62 316.173,206.268 323.72,206.268 C329.568,206.268 334.716,204.518 339.064,200.969 C343.362,197.421 346.261,192.723 347.76,186.776 L347.76,186.776 L377.747,186.776 C375.699,200.77 369.751,212.116 359.806,220.762 C349.859,229.408 337.764,233.707 323.62,233.707 C307.477,233.707 293.982,228.409 283.236,217.764 C272.49,207.117 267.093,193.873 267.093,177.928 C267.093,161.935 272.49,148.64 283.236,137.994 C293.982,127.35 307.476,122.002 323.62,122.002 Z M447.321,122.002 C464.364,122.002 478.36,127.248 489.305,137.695 C500.25,148.141 505.748,161.535 505.748,177.879 C505.748,194.172 500.25,207.567 489.305,218.012 C478.36,228.459 464.364,233.707 447.321,233.707 C430.229,233.707 416.184,228.459 405.239,217.963 C394.243,207.518 388.745,194.123 388.745,177.879 C388.745,161.586 394.243,148.191 405.239,137.744 C416.184,127.248 430.229,122.002 447.321,122.002 Z M559.525,124.65 C575.619,124.65 588.814,129.598 599.06,139.545 C609.306,149.49 614.404,162.234 614.404,177.779 C614.404,193.322 609.256,206.068 599.009,216.062 C588.714,226.058 575.57,231.056 559.525,231.056 L559.525,231.056 L516.443,231.056 L516.443,124.65 Z M693.521,124.65 L693.521,149.99 L654.639,149.99 L654.639,165.684 L689.574,165.684 L689.574,189.674 L654.639,189.674 L654.639,205.617 L694.822,205.617 L694.822,231.008 L625.5,231.008 L625.5,124.65 L693.521,124.65 Z M447.321,149.24 C439.225,149.24 432.528,151.94 427.229,157.336 C421.881,162.734 419.232,169.582 419.233,177.879 C419.233,186.125 421.881,192.973 427.229,198.371 C432.528,203.768 439.225,206.467 447.321,206.467 C455.419,206.467 462.116,203.768 467.364,198.42 C472.612,193.072 475.21,186.225 475.21,177.879 C475.21,169.531 472.612,162.686 467.364,157.336 C462.116,151.939 455.419,149.24 447.321,149.24 Z M558.127,151.489 L545.881,151.489 L545.881,204.219 L558.127,204.219 C565.973,204.219 572.32,201.769 577.168,196.871 C581.967,192.023 584.365,185.625 584.365,177.779 C584.365,169.883 581.967,163.535 577.168,158.737 C572.32,153.889 565.973,151.489 558.127,151.489 L558.127,151.489 Z M311.375,2.699 L311.375,67.373 C311.375,72.521 312.874,76.72 315.923,79.868 C318.972,82.967 322.921,84.516 327.819,84.516 C332.767,84.516 336.716,82.967 339.764,79.868 C342.812,76.719 344.312,72.521 344.312,67.373 L344.312,67.373 L344.312,2.699 L374.25,2.699 L374.25,67.923 C374.25,80.968 369.902,91.514 361.205,99.66 C352.559,107.707 341.464,111.755 327.819,111.755 C314.174,111.755 303.078,107.707 294.432,99.66 C285.735,91.514 281.387,80.968 281.387,67.923 L281.387,67.923 L281.387,2.699 L311.375,2.699 Z M555.977,0 C573.021,0 587.015,5.247 597.96,15.693 C608.905,26.139 614.403,39.534 614.403,55.877 C614.403,72.171 608.905,85.565 597.96,96.011 C587.015,106.457 573.021,111.705 555.976,111.705 C538.884,111.705 524.839,106.457 513.894,95.961 C502.898,85.515 497.4,72.121 497.4,55.877 C497.4,39.584 502.898,26.189 513.895,15.744 C524.84,5.248 538.885,0 555.977,0 Z M137.945,0.2 C150.64,0.2 160.486,3.298 167.533,9.446 C174.53,15.594 178.029,24.09 178.029,34.935 L178.029,34.935 L148.64,34.935 C148.64,31.686 147.54,29.187 145.391,27.438 C143.392,25.839 140.793,25.039 137.594,25.039 C134.746,25.039 132.396,25.64 130.497,26.789 C128.398,28.139 127.349,29.938 127.349,32.287 C127.349,35.036 129.098,37.236 132.597,38.885 C134.746,39.935 139.045,41.284 145.392,42.833 C156.638,45.732 164.635,48.78 169.283,52.029 C177.43,57.628 181.478,65.774 181.478,76.42 C181.478,87.665 177.48,96.462 169.483,102.759 C161.886,108.706 151.69,111.705 138.945,111.705 C125.799,111.705 115.404,108.456 107.757,101.909 C100.009,95.262 96.111,86.216 96.111,74.72 L96.111,74.72 L126.299,74.72 C126.299,78.369 127.548,81.168 130.097,83.217 C132.397,85.067 135.296,86.016 138.844,86.016 C142.093,86.016 144.892,85.216 147.141,83.667 C149.589,81.968 150.839,79.719 150.839,76.97 C150.839,73.971 149.04,71.622 145.442,69.872 C143.293,68.823 138.945,67.473 132.447,65.924 C121.401,63.175 113.654,60.226 109.206,57.177 C101.359,51.829 97.461,43.783 97.461,33.137 C97.461,22.741 101.06,14.645 108.307,8.797 C115.454,3.049 125.3,0.2 137.945,0.2 Z M693.322,84.116 L693.322,109.056 L625.4,109.056 L625.4,84.116 L693.322,84.116 Z M432.576,2.699 C448.67,2.699 461.865,7.647 472.111,17.593 C482.357,27.539 487.455,40.284 487.455,55.828 C487.455,71.371 482.307,84.116 472.06,94.062 C461.765,104.058 448.621,109.056 432.576,109.056 L432.576,109.056 L389.494,109.056 L389.494,2.699 Z M264.694,2.699 L264.694,28.039 L225.81,28.039 L225.81,43.732 L260.746,43.732 L260.746,67.723 L225.81,67.723 L225.81,83.667 L265.994,83.667 L265.994,109.056 L196.671,109.056 L196.671,2.699 L264.694,2.699 Z M45.282,2.199 C56.627,2.199 66.023,5.797 73.47,13.044 C80.967,20.292 84.716,29.488 84.716,40.633 C84.716,51.779 80.968,60.975 73.471,68.272 C66.024,75.52 56.628,79.168 45.282,79.168 L45.282,79.168 L29.388,79.168 L29.388,108.556 L0,108.556 L0,2.199 Z M555.977,27.239 C547.881,27.239 541.184,29.938 535.885,35.336 C530.537,40.734 527.889,47.581 527.889,55.878 C527.889,64.125 530.537,70.972 535.885,76.37 C541.184,81.768 547.881,84.467 555.977,84.467 C564.075,84.467 570.772,81.768 576.02,76.42 C581.268,71.072 583.868,64.225 583.868,55.878 C583.868,47.531 581.268,40.684 576.02,35.336 C570.772,29.938 564.075,27.239 555.977,27.239 Z M431.178,29.538 L418.932,29.538 L418.932,82.266 L431.178,82.266 C439.024,82.266 445.371,79.817 450.221,74.919 C455.018,70.071 457.416,63.674 457.416,55.827 C457.416,47.931 455.018,41.583 450.221,36.785 C445.371,31.937 439.024,29.538 431.178,29.538 L431.178,29.538 Z M41.783,27.789 L29.388,27.789 L29.388,53.579 L41.783,53.579 C45.631,53.579 48.73,52.379 51.079,49.98 C53.429,47.581 54.578,44.482 54.578,40.684 C54.578,36.885 53.428,33.787 51.079,31.388 C48.73,28.989 45.632,27.789 41.783,27.789 L41.783,27.789 Z" id="Combined-Shape"></path>
        </g>
    </g>
</svg>