<?xml version="1.0" encoding="UTF-8"?>
<svg width="400px" height="400px" viewBox="0 0 400 400" version="1.1" xmlns="http://www.w3.org/2000/svg" xmlns:xlink="http://www.w3.org/1999/xlink">
    <title>qsoftware</title>
    <g id="Page-1" stroke="none" stroke-width="1" fill="none" fill-rule="evenodd">
        <g id="qsoftware" fill="#FFFFFF" fill-rule="nonzero">
            <path d="M336.34137,316.007818 L200.530582,394.579394 C194.281962,398.193152 186.61964,400 178.960041,400 C171.297718,400 163.63812,398.193152 157.386776,394.579394 L21.5759891,316.007818 C9.07602545,308.777636 0,293.034364 0,278.571212 L0,175.72703 L36.6010055,197.548667 L36.6010055,278.571212 C36.6936182,280.116061 38.584003,283.396848 39.9159885,284.278424 L175.685917,362.822667 C177.066933,363.513212 180.850425,363.513212 182.2723,362.798121 L318.04223,284.251152 C319.333358,283.396848 321.223739,280.116061 321.31363,278.522121 L321.31363,121.430848 C321.223739,119.886 319.333358,116.602485 318.004091,115.726364 L182.234165,37.1793333 C181.547743,36.8354545 180.270236,36.6635152 178.984556,36.6635152 C177.679809,36.6635152 176.361443,36.8436364 175.642335,37.2039394 L39.8724061,115.748182 C38.584003,116.602485 36.6936182,119.886 36.5982818,121.479939 L36.6010055,129.354303 C36.6936182,130.893697 38.5785552,134.160788 39.9050927,135.034182 L287.5482,278.120848 L250.889992,299.287455 L21.6059521,166.790909 C9.08692061,159.571636 0,143.828364 0,129.354303 L0,121.430848 C0,106.970424 9.07602545,91.2244242 21.5759891,83.9942424 L157.386776,5.42266667 C169.88674,-1.80757576 188.030618,-1.80757576 200.530582,5.42266667 L336.34137,83.9942424 C348.841333,91.2244242 357.911909,106.970424 357.911909,121.430848 L357.911909,278.571212 C357.911909,293.031636 348.841333,308.777636 336.34137,316.007818 Z M400,353.489152 L400,394.63503 L318.985855,347.290667 L355.641333,326.121394 L400,353.489152 Z" id="Combined-Shape-Copy"></path>
        </g>
    </g>
</svg>