<?xml version="1.0" encoding="UTF-8"?>
<svg width="764px" height="767px" viewBox="0 0 764 767" version="1.1" xmlns="http://www.w3.org/2000/svg" xmlns:xlink="http://www.w3.org/1999/xlink">
    <title>veniture</title>
    <g id="Page-1" stroke="none" stroke-width="1" fill="none" fill-rule="evenodd">
        <g id="veniture" fill="#FFFFFF" fill-rule="nonzero">
            <path d="M155.1645,669.9816 C167.892337,669.9816 178.713769,673.823355 187.62912,681.50698 C196.544471,689.190605 201.00208,699.777426 201.00208,713.26776 L201.00208,726.81668 L127.62676,726.81668 C128.095989,733.620501 131.204585,739.104533 136.95264,743.26894 C142.700695,747.433347 149.269803,749.51552 156.66016,749.51552 C168.390885,749.51552 177.306103,745.820397 183.40608,738.43004 L194.66752,750.74724 C184.725305,761.036277 171.821058,766.255276 155.954402,766.404391 L155.25248,766.40768 C142.114068,766.40768 130.940719,762.03805 121.7321,753.29866 C112.523481,744.55927 107.91924,732.82872 107.91924,718.10666 C107.91924,703.3846 112.61146,691.683377 121.99604,683.00264 C131.38062,674.321903 142.436663,669.9816 155.1645,669.9816 Z M506.11672,671.38928 L506.11672,722.7696 C506.11672,740.013766 513.272355,748.63572 527.58384,748.63572 C534.387661,748.63572 540.311588,746.377589 545.3558,741.86126 C550.400012,737.344931 552.92208,730.746497 552.92208,722.06576 L552.92208,671.38928 L572.6296,671.38928 L572.6296,765 L552.92208,765 L552.92208,747.93188 C549.754784,753.679935 545.385155,758.196197 539.81306,761.4808 C534.42071,764.659448 528.616466,766.300018 522.400164,766.402553 L521.77716,766.40768 C511.219507,766.40768 502.685533,763.181779 496.17498,756.72988 C489.664427,750.277981 486.4092,740.952194 486.4092,728.75224 L486.4092,671.38928 L506.11672,671.38928 Z M712.25386,669.9816 C724.981697,669.9816 735.803129,673.823355 744.71848,681.50698 C753.633831,689.190605 758.09144,699.777426 758.09144,713.26776 L758.09144,726.81668 L684.71612,726.81668 C685.185349,733.620501 688.293945,739.104533 694.042,743.26894 C699.790055,747.433347 706.359163,749.51552 713.74952,749.51552 C725.480245,749.51552 734.395463,745.820397 740.49544,738.43004 L751.75688,750.74724 C741.814665,761.036277 728.910418,766.255276 713.043762,766.404391 L712.34184,766.40768 C699.203428,766.40768 688.030079,762.03805 678.82146,753.29866 C669.612841,744.55927 665.0086,732.82872 665.0086,718.10666 C665.0086,703.3846 669.70082,691.683377 679.0854,683.00264 C688.46998,674.321903 699.526023,669.9816 712.25386,669.9816 Z M651.10776,669.9816 L651.28372,689.86508 L650.22796,689.86508 C640.491458,689.86508 633.159865,693.032328 628.23296,699.36692 C623.306055,705.701512 620.84264,714.20616 620.84264,724.88112 L620.84264,765 L601.13512,765 L601.13512,671.38928 L620.84264,671.38928 L620.84264,690.217 C624.009936,684.351637 628.320913,679.542112 633.7757,675.78828 C639.230487,672.034448 645.007783,670.098907 651.10776,669.9816 Z M476.90736,642.00396 L476.90736,661.00764 L439.60384,661.00764 L439.60384,765 L418.84056,765 L418.84056,661.00764 L381.53704,661.00764 L381.53704,642.00396 L476.90736,642.00396 Z M359.01416,642.00396 L359.01416,765 L338.25088,765 L338.25088,642.00396 L359.01416,642.00396 Z M273.4976,669.9816 C284.055253,669.9816 292.589227,673.207501 299.09978,679.6594 C305.610333,686.111299 308.86556,695.437086 308.86556,707.63704 L308.86556,765 L289.15804,765 L289.15804,713.61968 C289.15804,696.375514 282.002405,687.75356 267.69092,687.75356 C260.887099,687.75356 254.963172,690.011691 249.91896,694.52802 C244.874748,699.044349 242.35268,705.642783 242.35268,714.32352 L242.35268,765 L222.64516,765 L222.64516,671.38928 L242.35268,671.38928 L242.35268,688.4574 C245.519976,682.709345 249.889605,678.193083 255.4617,674.90848 C261.033795,671.623877 267.045701,669.9816 273.4976,669.9816 Z M20.81904,671.38928 L49.32456,742.1252 L77.83008,671.38928 L98.24144,671.38928 L60.586,765 L38.06312,765 L0.40768,671.38928 L20.81904,671.38928 Z M155.69238,686.87376 C148.477984,686.87376 141.996855,689.073238 136.2488,693.47226 C130.500745,697.871282 127.62676,703.824536 127.62676,711.3322 L181.29456,711.3322 C181.29456,703.472614 178.831145,697.431381 173.90424,693.20832 C169.103666,689.093543 163.217335,686.98343 156.245077,686.877925 L155.69238,686.87376 Z M712.78174,686.87376 C705.567344,686.87376 699.086215,689.073238 693.33816,693.47226 C687.590105,697.871282 684.71612,703.824536 684.71612,711.3322 L738.38392,711.3322 C738.38392,703.472614 735.920505,697.431381 730.9936,693.20832 C726.193026,689.093543 720.306695,686.98343 713.334437,686.877925 L712.78174,686.87376 Z M143.17,0.09 C152.546056,0.09 164.060577,6.65119817 168.963929,14.7423158 L169.17,15.09 L252.81,159.85 L345.06,319.7 C384.4422,387.9011 398.351601,475.723802 376.308974,516.07193 L375.63,517.28 L188.884256,266.184 L375.61,517.28 L354.73,553.44 L342.53,574.57 C337.813596,582.727303 330.134898,582.818958 325.351926,574.844965 L325.19,574.57 L163.67,294.79 L2.22825588,15.209 L2.14,15.09 C-2.58914894,6.94755319 1.18779199,0.234207786 10.5074471,0.0922921583 L10.81,0.09 L143.17,0.09 Z M384.31,243.02 C379.607097,234.873548 379.540924,221.664446 384.082909,213.364207 L384.31,212.96 L399.69,186.29 L415.07,159.64 C419.785405,151.511351 420.87094,144.822973 417.549001,144.64369 L417.41,144.64 L411.08,144.64 C331.996359,144.64 267.736663,81.1711411 266.459378,2.39188687 L266.44,0 L753.17,0 C762.608511,0 766.536171,6.62672363 761.960554,14.8250006 L761.81,15.09 L728.81,72.32 L695.61,129.61 C690.917042,137.733944 679.478201,144.419284 670.014359,144.605992 L669.61,144.61 L608.08,144.61 C598.703944,144.61 587.189423,151.151758 582.286071,159.261494 L582.08,159.61 L524.93,258.61 L467.79,357.61 C463.073596,365.767303 455.404675,365.858958 450.612255,357.884965 L450.45,357.61 L384.322256,243.052 L759.416256,16.535 L384.31,243.02 Z" id="Combined-Shape"></path>
        </g>
    </g>
</svg>