<?xml version="1.0" encoding="UTF-8"?>
<svg width="650px" height="217px" viewBox="0 0 650 217" version="1.1" xmlns="http://www.w3.org/2000/svg" xmlns:xlink="http://www.w3.org/1999/xlink">
    <!-- Generator: Sketch 52.5 (67469) - http://www.bohemiancoding.com/sketch -->
    <title>2019</title>
    <desc>Created with Sketch.</desc>
    <g id="Page-1" stroke="none" stroke-width="1" fill="none" fill-rule="evenodd">
        <g id="final" transform="translate(-490.000000, -762.000000)" fill="#FFFFFF">
            <g id="2-Shift-developer-conference---content" transform="translate(-267.000000, 761.000000)">
                <g id="1-conference" transform="translate(72.000000, 0.000000)">
                    <g id="Shift-developer-header" transform="translate(675.000000, 145.000000)">
                        <path d="M71.0434578,27.9409172 L146.192873,27.9423812 L146.192873,65.001464 L11.5737319,65.001464 L11.1342788,38.1962875 L75.294435,-29.4809578 C91.8486334,-47.0576188 102.834962,-61.2666032 102.834962,-77.8208016 C102.834962,-93.7875985 91.4077163,-105.799317 75.4423834,-105.799317 C60.7939459,-105.799317 48.6357428,-98.6230469 39.5537116,-83.5336922 L10.2568366,-104.480958 C22.2685553,-126.305666 44.0947272,-143.444338 78.5170913,-143.444338 C112.940919,-143.444338 143.995607,-120.592775 143.995607,-82.2138688 C143.995607,-58.9228532 136.521973,-40.6137703 109.863281,-12.9282235 L71.0434578,27.2084953 L71.0434578,27.9409172 Z M263.44692,67.4902344 L263.448386,67.4887681 C215.840964,67.4887681 183.176413,28.673339 183.176413,-37.9770516 C183.176413,-100.965333 213.645163,-143.445802 263.448386,-143.445802 C311.202292,-143.445802 343.868308,-104.625978 343.868308,-37.9770516 C343.868308,25.0112297 313.547506,67.4902344 263.44692,67.4902344 Z M263.594871,29.5522453 C287.471824,29.5522453 302.120261,5.67529216 302.120261,-37.9770516 C302.120261,-79.7250985 287.911277,-105.504884 263.594871,-105.504884 C239.864402,-105.504884 224.92446,-81.6279313 224.92446,-37.9785179 C224.92446,3.47949058 239.279928,29.5522453 263.594871,29.5522453 Z M424.21269,65 L424.21269,-92.029786 L389.643841,-66.1035156 L370.014935,-96.4243172 L432.415815,-140.955567 L465.228315,-140.955567 L465.228315,65 L424.21269,65 Z M584.685488,-143.445802 L584.686955,-143.445799 C627.751897,-143.445799 659.246037,-110.193846 659.246037,-60.8286119 C659.246037,7.14013815 613.982365,60.3154303 549.236272,72.4707031 L537.224553,39.5131828 C574.578069,29.1142562 600.359319,11.6811515 612.371037,-18.201661 L612.078069,-18.3481453 C600.800236,-12.0493172 587.323673,-8.68017659 573.84418,-8.68017659 C539.421816,-8.68017659 510.854433,-32.7036141 510.854433,-74.88965 C510.854433,-115.467286 543.22748,-143.445802 584.685488,-143.445802 Z M550.846134,-74.15869 L550.846134,-74.1572259 C550.846134,-55.9946275 563.590274,-42.9575181 584.391055,-42.9575181 C598.598576,-42.9575181 611.931584,-51.1606431 620.281194,-61.5610337 L620.281194,-64.0512681 C620.281194,-89.8325181 605.338323,-106.678221 585.271428,-106.678221 C564.325626,-106.678221 550.846134,-91.738279 550.846134,-74.15869 Z" id="2019"></path>
                    </g>
                </g>
            </g>
        </g>
    </g>
</svg>