<?xml version="1.0" encoding="UTF-8"?>
<svg width="80px" height="57px" viewBox="0 0 80 57" version="1.1" xmlns="http://www.w3.org/2000/svg" xmlns:xlink="http://www.w3.org/1999/xlink">
    <!-- Generator: Sketch 52.5 (67469) - http://www.bohemiancoding.com/sketch -->
    <title>if_crew_2318458</title>
    <desc>Created with Sketch.</desc>
    <g id="Page-1" stroke="none" stroke-width="1" fill="none" fill-rule="evenodd">
        <g id="final" transform="translate(-741.000000, -1926.000000)" fill-rule="nonzero">
            <g id="2-Shift-developer-conference---content" transform="translate(-267.000000, 761.000000)">
                <g id="3-workshops" transform="translate(176.000000, 1116.000000)">
                    <g id="Workshops" style="mix-blend-mode: screen;" transform="translate(832.000000, 49.000000)">
                        <g id="if_crew_2318458">
                            <path d="M52.4959344,39.4478717 C48.9864756,36.9022663 46.6968326,32.7583821 46.6968326,28.0909091 C46.6968326,20.3755806 52.9530667,14.0909091 60.6334842,14.0909091 C68.3139016,14.0909091 74.5701357,20.3755806 74.5701357,28.0909091 C74.5567687,32.1595451 72.8291081,35.8188329 70.0777049,38.3750826 C75.9489452,41.1446895 80,46.9315624 80,53.6019267 L72.8946045,53.6019267 C72.8946045,47.9963459 68.1230981,43.4077068 62.2365113,43.4077068 C56.3499246,43.4077068 51.5784181,47.9715425 51.5784181,53.6019267 L51.5784181,57 L51.6302823,57 L44.5248869,57 L44.5248869,53.6019267 C44.5248869,47.6991785 47.6972108,42.4882799 52.4959344,39.4478717 Z M60.6334842,21.1164565 C56.7932754,21.1164565 53.6651584,24.2587923 53.6651584,28.1164565 C53.6651584,31.9741208 56.7932754,35.1164565 60.6334842,35.1164565 C64.4736929,35.1164565 67.60181,31.9741208 67.60181,28.1164565 C67.60181,24.2587923 64.4736929,21.1164565 60.6334842,21.1164565 Z" id="Combined-Shape" fill="#005DF2"></path>
                            <path d="M14.3103951,33.3816403 C10.2256185,29.9469783 7.60180995,24.6529477 7.60180995,18.7272727 C7.60180995,8.40536948 15.5629647,0 25.3393665,0 C35.1157683,0 43.0769231,8.40536948 43.0769231,18.7272727 C43.0769231,24.718874 40.3944071,30.0646981 36.2314609,33.4955856 C44.5652543,37.7675258 50.3167421,46.7016989 50.3167421,57 L43.1211328,57 C43.1211328,46.6967166 35.0588991,38.3065098 25.158371,38.3065098 C15.257843,38.3065098 7.19560925,46.6967166 7.19560925,57 L0,57 C0,46.6092287 5.85523866,37.6071929 14.3103951,33.3816403 Z M25.3393665,7.47448166 C19.4787119,7.47448166 14.6812733,12.5122275 14.6812733,18.7272727 C14.6812733,24.9423179 19.4527798,29.9800638 25.3393665,29.9800638 C31.2259533,29.9800638 35.9974597,24.9423179 35.9974597,18.7272727 C35.9974597,12.5122275 31.2000212,7.47448166 25.3393665,7.47448166 Z" id="Combined-Shape" fill="#0FD895"></path>
                        </g>
                    </g>
                </g>
            </g>
        </g>
    </g>
</svg>