<?xml version="1.0" encoding="UTF-8"?>
<svg width="31px" height="31px" viewBox="0 0 31 31" version="1.1" xmlns="http://www.w3.org/2000/svg" xmlns:xlink="http://www.w3.org/1999/xlink">
    <!-- Generator: Sketch 52.5 (67469) - http://www.bohemiancoding.com/sketch -->
    <title>Group 30</title>
    <desc>Created with Sketch.</desc>
    <g id="Page-1" stroke="none" stroke-width="1" fill="none" fill-rule="evenodd">
        <g id="final" transform="translate(-933.000000, -10328.000000)">
            <g id="14-Footer" transform="translate(139.000000, 10188.000000)">
                <g id="3" transform="translate(1.000000, 0.000000)">
                    <g id="Group-12" transform="translate(792.000000, 139.000000)">
                        <g id="Group-11" transform="translate(0.000000, 0.059400)">
                            <g id="Group-30">
                                <path d="M31.0595,15.9705 C31.0595,7.6695 24.3305,0.9405 16.0295,0.9405 C7.7295,0.9405 0.9995,7.6695 0.9995,15.9705 C0.9995,24.2715 7.7295,30.9995 16.0295,30.9995 C24.3305,30.9995 31.0595,24.2715 31.0595,15.9705" id="Fill-9" fill="#005DF2" opacity="0.200000003"></path>
                                <path d="M16.0292,16.9715 C15.0012,16.1245 14.3132,15.0805 13.9522,14.4875 L13.6832,13.9795 C13.7772,13.8775 14.4962,13.1095 14.8062,12.6915 C15.1982,12.1665 14.6312,11.6945 14.6312,11.6945 C14.6312,11.6945 13.0352,10.0975 12.6712,9.7815 C12.3072,9.4635 11.8882,9.6395 11.8882,9.6395 C11.1242,10.1335 10.3312,10.5635 10.2842,12.6285 C10.2822,14.5625 11.7502,16.5575 13.3382,18.1015 C14.9272,19.8455 17.1102,21.5925 19.2212,21.5905 C21.2872,21.5435 21.7162,20.7515 22.2102,19.9875 C22.2102,19.9875 22.3862,19.5685 22.0692,19.2045 C21.7532,18.8405 20.1562,17.2435 20.1562,17.2435 C20.1562,17.2435 19.6822,16.6765 19.1592,17.0685 C18.7672,17.3605 18.0662,18.0095 17.8972,18.1675 C17.8972,18.1675 16.7242,17.5415 16.0292,16.9715" id="Fill-1" fill="#FFFFFF"></path>
                            </g>
                        </g>
                    </g>
                </g>
            </g>
        </g>
    </g>
</svg>