<?xml version="1.0" encoding="UTF-8"?>
<svg width="70px" height="58px" viewBox="0 0 70 58" version="1.1" xmlns="http://www.w3.org/2000/svg" xmlns:xlink="http://www.w3.org/1999/xlink">
    <!-- Generator: Sketch 52.5 (67469) - http://www.bohemiancoding.com/sketch -->
    <title>Group 51</title>
    <desc>Created with Sketch.</desc>
    <g id="Page-1" stroke="none" stroke-width="1" fill="none" fill-rule="evenodd">
        <g id="final" transform="translate(-200.000000, -1488.000000)" fill-rule="nonzero">
            <g id="2-Shift-developer-conference---content" transform="translate(-267.000000, 761.000000)">
                <g id="2-talks" transform="translate(466.000000, 643.000000)">
                    <g id="Talks" transform="translate(0.000000, 84.000000)">
                        <g id="if_conversation_2628476" transform="translate(1.000000, 0.000000)">
                            <g id="Group-51">
                                <path d="M36.3896552,6.10108851 C36.386717,6.10108851 36.3854009,6.10147985 36.3848628,6.10168306 C36.3844948,6.10182206 36.3860923,6.10162388 36.3896552,6.10108851 Z M6.05935147,24.4043541 C6.06228954,24.4043541 6.06360577,24.4039627 6.06414381,24.4037595 C6.0645119,24.4036206 6.06291445,24.4038187 6.05935147,24.4043541 Z M24.2565752,34.275799 L14.4761501,42.2362741 C13.1861596,43.2862218 12.1282876,42.7854916 12.1282876,41.1056847 L12.1282876,30.5054426 L6.05935147,30.5054426 C2.71995088,30.5054426 0,27.7744181 0,24.4055285 L0,6.09991401 C0,2.73400095 2.71286402,0 6.05935147,0 L36.3896552,0 C39.7290559,0 42.4490067,2.73102453 42.4490067,6.09991401 L42.4490067,12.202177 L36.384819,12.202177 C36.3847981,8.13467576 36.3847759,6.10097958 36.3847526,6.10108851 L6.06414381,6.10108851 L6.06425402,24.4043541 L18.1924314,24.4043541 L18.1924314,31.3639336 L24.2565752,26.4282111 L24.2565752,34.275799 Z" id="Rectangle-154" fill="#0FD895" style="mix-blend-mode: screen;"></path>
                                <path d="M33.2593515,21.3010885 C33.2622895,21.3010885 33.2636058,21.3014799 33.2641438,21.3016831 C33.2645119,21.301822 33.2629145,21.3016239 33.2593515,21.3010885 Z M63.5896552,39.6043541 C63.5867171,39.6043541 63.5854009,39.6039627 63.5848628,39.6037595 C63.5844948,39.6036206 63.5860922,39.6038187 63.5896552,39.6043541 Z M63.5848628,21.3010885 L33.2641438,21.3010885 C33.2641438,21.3010885 33.2641769,27.4019884 33.2641438,39.6043541 L42.9058735,39.6043541 L51.4565752,46.5639336 L51.4565752,39.6043541 L63.5847526,39.6043541 L63.5848628,21.3010885 Z M57.520719,45.7054426 L57.520719,56.3056847 C57.520719,57.9854916 56.462847,58.4862218 55.1728566,57.4362741 L40.7600835,45.7054426 L33.2593515,45.7054426 C29.912864,45.7054426 27.2,42.9714417 27.2,39.6055285 L27.2,21.2999141 C27.2,17.9310245 29.9199509,15.2 33.2593515,15.2 L63.5896552,15.2 C66.9361426,15.2 69.6490067,17.9340009 69.6490067,21.2999141 L69.6490067,39.6055285 C69.6490067,42.9744181 66.9290558,45.7054426 63.5896552,45.7054426 L57.520719,45.7054426 Z" id="Rectangle-154" fill="#FF6C6C" style="mix-blend-mode: screen;"></path>
                            </g>
                        </g>
                    </g>
                </g>
            </g>
        </g>
    </g>
</svg>