<?xml version="1.0" encoding="UTF-8"?>
<svg width="366px" height="452px" viewBox="0 0 366 452" version="1.1" xmlns="http://www.w3.org/2000/svg" xmlns:xlink="http://www.w3.org/1999/xlink">
    <!-- Generator: Sketch 54.1 (76490) - https://sketchapp.com -->
    <title>Group</title>
    <desc>Created with Sketch.</desc>
    <g id="Page-1" stroke="none" stroke-width="1" fill="none" fill-rule="evenodd">
        <g id="Group" transform="translate(-0.000000, -0.000000)">
            <path d="M76,12.5 C40.9299184,12.5 12.5,40.9299184 12.5,76 L12.5,376 C12.5,411.070082 40.9299184,439.5 76,439.5 L290,439.5 C325.070082,439.5 353.5,411.070082 353.5,376 L353.5,140.352696 C353.5,130.456915 349.588506,120.962267 342.618025,113.938103 L252.955863,23.5854069 C245.915159,16.490479 236.333312,12.5 226.337838,12.5 L76,12.5 Z" id="Rectangle" stroke="#FFFFFF" stroke-width="25"></path>
            <path d="M224,144 L273,144 C280.179702,144 286,149.820298 286,157 C286,164.179702 280.179702,170 273,170 L224,170 C216.820298,170 211,164.179702 211,157 C211,149.820298 216.820298,144 224,144 Z M224,220 L273,220 C280.179702,220 286,225.820298 286,233 C286,240.179702 280.179702,246 273,246 L224,246 C216.820298,246 211,240.179702 211,233 C211,225.820298 216.820298,220 224,220 Z M85,329 L281,329 C288.179702,329 294,334.820298 294,342 C294,349.179702 288.179702,355 281,355 L85,355 C77.8202983,355 72,349.179702 72,342 C72,334.820298 77.8202983,329 85,329 Z M122.5,97 C129.403559,97 135,102.596441 135,109.5 L135,280.5 C135,287.403559 129.403559,293 122.5,293 C115.596441,293 110,287.403559 110,280.5 L110,109.5 C110,102.596441 115.596441,97 122.5,97 Z" id="Combined-Shape" fill="#FFFFFF"></path>
            <path d="M153.415928,134.54543 L112.871708,134.54543 C91.308164,136.068252 80.5263919,146.475361 80.5263919,165.766755 C80.5263919,185.05815 94.6414973,194.802565 122.871708,195 C151.234522,195.151762 165.415928,205.485095 165.415928,226 C165.415928,246.514905 151.065773,256.484857 122.365464,255.909855 L91.5263919,255.909855" id="Path" stroke="#FFFFFF" stroke-width="25" stroke-linecap="round"></path>
        </g>
    </g>
</svg>