<?xml version="1.0" encoding="UTF-8"?>
<svg width="56px" height="59px" viewBox="0 0 56 59" version="1.1" xmlns="http://www.w3.org/2000/svg" xmlns:xlink="http://www.w3.org/1999/xlink">
    <!-- Generator: Sketch 52.5 (67469) - http://www.bohemiancoding.com/sketch -->
    <title>noun_teach_805826</title>
    <desc>Created with Sketch.</desc>
    <g id="Page-1" stroke="none" stroke-width="1" fill="none" fill-rule="evenodd">
        <g id="final" transform="translate(-725.000000, -820.000000)" fill-rule="nonzero">
            <g id="2-Shift-developer-conference---content" transform="translate(-267.000000, 761.000000)">
                <g id="1-conference" transform="translate(72.000000, 0.000000)">
                    <g id="noun_teach_805826" transform="translate(920.000000, 59.000000)">
                        <path d="M9.98161142,11.5317157 C13.1421653,11.5317157 15.7043004,8.95025317 15.7043004,5.76585783 C15.7043004,2.58146248 13.1421653,2.69532131e-16 9.98161142,0 C6.82105758,-2.69532131e-16 4.25892245,2.58146248 4.25892245,5.76585783 C4.25892245,8.95025317 6.82105758,11.5317157 9.98161142,11.5317157 Z M3.70848668e-05,18.1290709 L3.70848668e-05,29.2662805 C0.000309457736,31.3874595 1.48882319,33.2125696 3.55412813,33.6240551 L3.55412813,56.080554 C3.48665137,57.0997745 3.98805384,58.0720528 4.85459301,58.6023084 C5.72113217,59.1325639 6.8086189,59.1325639 7.67515806,58.6023084 C8.54169723,58.0720528 9.0430997,57.0997745 8.97562294,56.080554 L8.97562294,40.1060932 C8.9627477,39.6024172 9.31077504,39.1621817 9.80089493,39.0621694 C10.0901571,39.0119835 10.3866441,39.0931805 10.610889,39.2839973 C10.8351339,39.4748141 10.9642038,39.7557365 10.9635044,40.0514693 L10.9635044,56.0562767 C10.8960276,57.0754972 11.3974301,58.0477755 12.2639692,58.5780311 C13.1305084,59.1082866 14.2179951,59.1082866 15.0845343,58.5780311 C15.9510735,58.0477755 16.4524759,57.0754972 16.3849992,56.0562767 L16.3849992,20.3443741 L21.4812043,24.592901 C22.4099597,25.3637713 23.7461906,25.3789268 24.691934,24.6293169 L32.215764,18.6571021 C33.2952312,17.8639186 33.6137812,16.3817941 32.9567017,15.209726 C32.5759199,14.5791724 31.9452831,14.1431773 31.2243626,14.0120614 C30.5034421,13.8809456 29.7613105,14.0672713 29.1857508,14.5238924 L23.1739155,19.2822424 L17.1500323,14.2750501 C16.6950032,13.8873396 16.119494,13.6725802 15.5235839,13.6681177 L4.40951953,13.6681177 C3.23691422,13.6681078 2.11259769,14.13868 1.28513787,14.9757985 C0.457678044,15.8129171 -0.00476867466,16.94763 3.70848668e-05,18.1290709 Z" id="Shape" fill="#FFCF6E"></path>
                        <path d="M18.6666667,0 L52.5950449,0 C54.4755497,4.03655267e-16 56,1.52471034 56,3.40553587 L56,35.9277975 C56,37.808623 54.4755497,39.3333333 52.5950449,39.3333333 L21.9565076,39.3333333 L21.9565076,34.4855954 L51.1409715,34.4855954 L51.1409715,4.84773789 L21.0961809,4.84773789 C20.7825615,3.02738456 19.9372113,1.34061272 18.6666667,0 Z" id="Path" fill="#FF6C6C"></path>
                    </g>
                </g>
            </g>
        </g>
    </g>
</svg>