<?xml version="1.0" encoding="UTF-8"?>
<svg width="31px" height="31px" viewBox="0 0 31 31" version="1.1" xmlns="http://www.w3.org/2000/svg" xmlns:xlink="http://www.w3.org/1999/xlink">
    <!-- Generator: Sketch 52.5 (67469) - http://www.bohemiancoding.com/sketch -->
    <title>Group 32</title>
    <desc>Created with Sketch.</desc>
    <g id="Page-1" stroke="none" stroke-width="1" fill="none" fill-rule="evenodd">
        <g id="final" transform="translate(-1109.000000, -10328.000000)">
            <g id="14-Footer" transform="translate(139.000000, 10188.000000)">
                <g id="3" transform="translate(1.000000, 0.000000)">
                    <g id="Group-12" transform="translate(792.000000, 139.000000)">
                        <g id="Group-11" transform="translate(0.000000, 0.059400)">
                            <g id="Group-32" transform="translate(177.000000, 0.000000)">
                                <path d="M30.6503,15.9705 C30.6503,7.6695 23.9213,0.9405 15.6213,0.9405 C7.3203,0.9405 0.5913,7.6695 0.5913,15.9705 C0.5913,24.2715 7.3203,30.9995 15.6213,30.9995 C23.9213,30.9995 30.6503,24.2715 30.6503,15.9705" id="Fill-10" fill="#005DF2" opacity="0.200000003"></path>
                                <path d="M21.0654,10.5906 L10.1764,10.5906 C9.3174,10.5906 8.6214,11.2626 8.6214,12.0906 L8.6214,19.5906 C8.6214,20.4196 9.3174,21.0906 10.1764,21.0906 L21.0654,21.0906 C21.9244,21.0906 22.6214,20.4196 22.6214,19.5906 L22.6214,12.0906 C22.6214,11.2626 21.9244,10.5906 21.0654,10.5906 Z M21.0654,13.5906 L15.6214,17.3406 L10.1764,13.5906 L10.1764,12.0906 L15.6214,15.8406 L21.0654,12.0906 L21.0654,13.5906 Z" id="Fill-6" fill="#FFFFFF"></path>
                            </g>
                        </g>
                    </g>
                </g>
            </g>
        </g>
    </g>
</svg>