<?xml version="1.0" encoding="UTF-8"?>
<svg width="97px" height="98px" viewBox="0 0 97 98" version="1.1" xmlns="http://www.w3.org/2000/svg" xmlns:xlink="http://www.w3.org/1999/xlink">
    <!-- Generator: Sketch 52.6 (67491) - http://www.bohemiancoding.com/sketch -->
    <title>Combined Shape</title>
    <desc>Created with Sketch.</desc>
    <g id="Page-1" stroke="none" stroke-width="1" fill="none" fill-rule="evenodd">
        <g id="slideshare-logo" fill="#FFFFFF" fill-rule="nonzero">
            <path d="M92.951,46.469 C95.867,44.436 97.777,47.205 95.988,49.85 C92.512,54.112 85.897,59.405 75.755,63.569 C86.509,100.119 49.567,105.924 50.131,87.184 C50.131,87.522 50.113,77.139 50.097,69.403 C49.306,69.208 48.466,68.985 47.496,68.757 C47.481,76.547 47.46,87.532 47.46,87.184 C48.025,105.924 11.108,100.119 21.837,63.569 C11.696,59.405 5.082,54.112 1.603,49.85 C-0.184,47.204 1.727,44.435 4.642,46.469 C5.035,46.75 5.427,47.017 5.817,47.282 L5.817,9.48 C5.817,4.237 9.76,0 14.612,0 L83.03,0 C87.883,0 91.826,4.237 91.826,9.48 L91.826,47.247 C92.2,46.993 92.575,46.738 92.951,46.469 Z M56.526,55.779 C62.668,55.972 73.992,57.212 87.147,50.102 L87.147,13.766 C87.147,7.52 85.115,5.046 79.358,5.046 L18.804,5.046 C12.728,5.046 11.037,7.128 11.037,13.766 L11.037,50.408 C23.939,57.168 35.017,55.967 41.07,55.779 C43.609,55.653 45.244,56.214 46.234,57.258 C46.408,57.404 46.589,57.56 46.778,57.738 C47.917,58.795 49.027,59.714 50.114,60.486 C50.337,57.493 52.01,55.551 56.526,55.779 Z M63.141,29.298 C69.632,29.298 74.899,34.221 74.899,40.297 C74.899,46.373 69.632,51.296 63.141,51.296 C56.649,51.296 51.38,46.373 51.38,40.297 C51.38,34.221 56.649,29.298 63.141,29.298 Z M35.776,51.296 C29.2827882,51.296 24.019,46.37158 24.019,40.297 C24.019,34.22242 29.2827882,29.298 35.776,29.298 C42.2692118,29.298 47.533,34.22242 47.533,40.297 C47.533,46.37158 42.2692118,51.296 35.776,51.296 Z" id="Combined-Shape"></path>
        </g>
    </g>
</svg>