<?xml version="1.0" encoding="UTF-8"?>
<svg width="69px" height="25px" viewBox="0 0 69 25" version="1.1" xmlns="http://www.w3.org/2000/svg" xmlns:xlink="http://www.w3.org/1999/xlink">
    <!-- Generator: Sketch 52.5 (67469) - http://www.bohemiancoding.com/sketch -->
    <title>american-express</title>
    <desc>Created with Sketch.</desc>
    <g id="Page-1" stroke="none" stroke-width="1" fill="none" fill-rule="evenodd">
        <g id="american-express" fill="#FFFFFF">
            <polygon id="Shape" points="5.78503014 5.35778497 7.56612419 5.35778497 6.67557717 2.67889248"></polygon>
            <path d="M58.8151298,0 L58.8151298,1.29885696 L58.1677355,0 L53.0964806,0 L53.0964806,1.29885696 L52.4490863,0 L45.5435476,0 C44.3566581,0 43.3855668,0.21647616 42.5223744,0.649428481 L42.5223744,0 L37.6669175,0 L37.6669175,0.649428481 C37.1274223,0.21647616 36.4800281,0 35.6168357,0 L18.2450899,0 L17.0582005,2.705952 L15.871311,0 L10.3684599,0 L10.3684599,1.29885696 L9.72106562,0 L5.08140681,0 L2.92342597,5.08718977 L0.441748,10.7155699 L2.92342597,10.7155699 L5.94459915,10.7155699 L6.5919934,8.98376066 L8.10257999,8.98376066 L8.74997424,10.7155699 L15.0081187,10.7155699 L15.0081187,9.41671298 L15.5476139,10.7155699 L18.6766861,10.7155699 L19.2161813,9.41671298 L19.2161813,10.7155699 L34.2141482,10.7155699 L34.2141482,7.90137985 L34.4299463,7.90137985 C34.6457444,7.90137985 34.6457444,7.90137985 34.6457444,8.22609409 L34.6457444,10.6073319 L42.4144754,10.6073319 L42.4144754,9.95790338 C43.0618696,10.2826176 44.032961,10.6073319 45.3277495,10.6073319 L48.5647208,10.6073319 L49.212115,8.87552258 L50.7227016,8.87552258 L51.3700959,10.6073319 L57.6282403,10.6073319 L57.6282403,8.98376066 L58.5993317,10.6073319 L63.6705867,10.6073319 L63.6705867,0 L58.8151298,0 Z M22.3452536,9.09199874 L20.5109698,9.09199874 L20.5109698,3.13890433 L17.9213928,9.09199874 L16.3029072,9.09199874 L13.7133302,3.13890433 L13.7133302,9.09199874 L10.0447627,9.09199874 L9.28946945,7.46842753 L5.62090202,7.46842753 L4.97350777,9.20023682 L2.92342597,9.20023682 L6.16039723,1.51533312 L8.85787329,1.51533312 L11.8790465,8.7672845 L11.8790465,1.51533312 L14.7923206,1.51533312 L17.1660995,6.71076097 L19.3240804,1.51533312 L22.3452536,1.51533312 L22.3452536,9.09199874 Z M29.6823884,3.13890433 L25.4743258,3.13890433 L25.4743258,4.54599937 L29.5744894,4.54599937 L29.5744894,6.06133249 L25.4743258,6.06133249 L25.4743258,7.57666561 L29.6823884,7.57666561 L29.6823884,9.20023682 L23.6400421,9.20023682 L23.6400421,1.51533312 L29.6823884,1.51533312 L29.6823884,3.13890433 Z M37.7748166,6.27780865 C37.9906147,6.71076097 38.0985137,7.03547521 38.0985137,7.68490369 L38.0985137,9.20023682 L36.26423,9.20023682 L36.26423,8.22609409 C36.26423,7.79314177 36.26423,7.14371329 35.9405329,6.71076097 C35.6168357,6.38604673 35.2931386,6.38604673 34.6457444,6.38604673 L32.7035616,6.38604673 L32.7035616,9.20023682 L30.8692779,9.20023682 L30.8692779,1.51533312 L34.9694415,1.51533312 C35.9405329,1.51533312 36.5879271,1.51533312 37.1274223,1.84004736 C37.6669175,2.1647616 37.9906147,2.705952 37.9906147,3.57185665 C37.9906147,4.76247553 37.2353214,5.41190401 36.6958262,5.62838017 C37.2353214,5.73661825 37.5590185,6.06133249 37.7748166,6.27780865 Z M41.0117878,9.09199874 L39.1775041,9.09199874 L39.1775041,1.40709504 L41.0117878,1.40709504 L41.0117878,9.09199874 Z M62.2678991,9.09199874 L59.6783221,9.09199874 L56.2255528,3.35538049 L56.2255528,9.09199874 L52.5569853,9.09199874 L51.9095911,7.46842753 L48.1331246,7.46842753 L47.4857304,9.20023682 L45.4356486,9.20023682 C44.5724562,9.20023682 43.4934658,8.98376066 42.8460716,8.33433217 C42.1986773,7.68490369 41.8749802,6.81899905 41.8749802,5.41190401 C41.8749802,4.32952321 42.0907783,3.24714241 42.8460716,2.38123776 C43.3855668,1.73180928 44.3566581,1.51533312 45.5435476,1.51533312 L47.2699323,1.51533312 L47.2699323,3.13890433 L45.5435476,3.13890433 C44.8961534,3.13890433 44.5724562,3.24714241 44.1408601,3.57185665 C43.8171629,3.89657089 43.6013648,4.54599937 43.6013648,5.30366593 C43.6013648,6.16957057 43.7092639,6.71076097 44.1408601,7.14371329 C44.4645572,7.46842753 44.8961534,7.57666561 45.4356486,7.57666561 L46.1909419,7.57666561 L48.6726198,1.6235712 L51.3700959,1.6235712 L54.3912691,8.87552258 L54.3912691,1.6235712 L57.0887451,1.6235712 L60.2178173,6.92723713 L60.2178173,1.6235712 L62.0521011,1.6235712 L62.0521011,9.09199874 L62.2678991,9.09199874 Z" id="Shape" fill-rule="nonzero"></path>
            <polygon id="Shape" points="49.5523807 5.74991223 52.066152 5.74991223 50.8639136 2.70606917"></polygon>
            <polygon id="Shape" points="30.9723314 21.4039622 30.9723314 15.2075674 28.1306768 18.2514105"></polygon>
            <polygon id="Shape" points="19.1432355 16.0733549 19.1432355 17.4553233 22.9874302 17.4553233 22.9874302 18.9435969 19.1432355 18.9435969 19.1432355 20.5381757 23.4030188 20.5381757 25.3770647 18.3057653 23.5069159 16.0733549"></polygon>
            <path d="M34.8391268,16.0733549 L32.5014409,16.0733549 L32.5014409,17.8592832 L34.9504452,17.8592832 C35.6183554,17.8592832 36.0636289,17.5616285 36.0636289,16.9663191 C35.9523106,16.3710096 35.5070371,16.0733549 34.8391268,16.0733549 Z" id="SVGCleanerId_0"></path>
            <path d="M68.4697464,18.265176 L68.4697464,13.3944624 L67.1638526,13.3944624 L63.8991181,13.3944624 C62.9196977,13.3944624 62.1579264,13.6109386 61.6138039,14.0438909 L61.6138039,13.3944624 L56.6078777,13.3944624 C55.8461063,13.3944624 54.866686,13.6109386 54.431388,14.0438909 L54.431388,13.3944624 L45.6166049,13.3944624 L45.6166049,14.0438909 C44.963658,13.5027005 43.7665886,13.3944624 43.2224662,13.3944624 L37.3459441,13.3944624 L37.3459441,14.0438909 C36.8018217,13.5027005 35.4959279,13.3944624 34.842981,13.3944624 L28.313512,13.3944624 L26.7899692,15.0180336 L25.3752509,13.3944624 L15.5810474,13.3944624 L15.5810474,24.0017943 L25.157602,24.0017943 L26.6811447,22.3782231 L28.095863,24.0017943 L33.9723851,24.0017943 L33.9723851,21.5123184 L34.7341565,21.5123184 C35.4959279,21.5123184 36.4753482,21.5123184 37.2371196,21.1876042 L37.2371196,24.1100324 L42.1342214,24.1100324 L42.1342214,21.2958423 L42.3518704,21.2958423 C42.6783438,21.2958423 42.6783438,21.2958423 42.6783438,21.6205565 L42.6783438,24.1100324 L57.4784736,24.1100324 C58.4578939,24.1100324 59.4373143,23.8935562 59.9814367,23.4606039 L59.9814367,24.1100324 L64.6608895,24.1100324 C65.6403098,24.1100324 66.6197302,24.0017943 67.2726771,23.568842 C68.3609219,22.9194135 69.0138688,21.7287946 69.0138688,20.3216996 C69.0138688,19.564033 68.7962199,18.8063664 68.4697464,18.265176 Z M34.7341565,19.9969853 L32.5576668,19.9969853 L32.5576668,22.5946992 L29.0752834,22.5946992 L26.8987937,20.1052234 L24.6134795,22.5946992 L17.4310636,22.5946992 L17.4310636,14.9097955 L24.722304,14.9097955 L26.8987937,17.3992714 L29.1841078,14.9097955 L34.9518055,14.9097955 C36.3665238,14.9097955 37.998891,15.3427479 37.998891,17.3992714 C37.8900665,19.564033 36.3665238,19.9969853 34.7341565,19.9969853 Z M45.6166049,19.564033 C45.8342538,19.8887472 45.9430783,20.3216996 45.9430783,20.971128 L45.9430783,22.4864612 L44.0930621,22.4864612 L44.0930621,21.5123184 C44.0930621,21.0793661 44.0930621,20.3216996 43.7665886,19.9969853 C43.5489397,19.6722711 43.1136417,19.6722711 42.4606948,19.6722711 L40.5018541,19.6722711 L40.5018541,22.4864612 L38.6518379,22.4864612 L38.6518379,14.8015575 L42.7871683,14.8015575 C43.6577642,14.8015575 44.4195355,14.8015575 44.963658,15.1262717 C45.5077804,15.4509859 45.9430783,15.9921763 45.9430783,16.858081 C45.9430783,18.0486999 45.1813069,18.6981284 44.6371845,18.9146045 C45.1813069,19.1310807 45.5077804,19.3475568 45.6166049,19.564033 Z M53.1254942,16.4251287 L48.8813394,16.4251287 L48.8813394,17.8322237 L53.0166697,17.8322237 L53.0166697,19.3475568 L48.8813394,19.3475568 L48.8813394,20.86289 L53.1254942,20.86289 L53.1254942,22.4864612 L47.0313231,22.4864612 L47.0313231,14.8015575 L53.1254942,14.8015575 L53.1254942,16.4251287 Z M57.6961225,22.4864612 L54.2137391,22.4864612 L54.2137391,20.86289 L57.6961225,20.86289 C58.022596,20.86289 58.240245,20.86289 58.4578939,20.6464138 C58.5667184,20.5381757 58.6755429,20.3216996 58.6755429,20.1052234 C58.6755429,19.8887472 58.5667184,19.6722711 58.4578939,19.564033 C58.3490694,19.4557949 58.1314205,19.3475568 57.804947,19.3475568 C56.0637553,19.2393188 53.9960901,19.3475568 53.9960901,16.9663191 C53.9960901,15.8839383 54.649037,14.6933194 56.6078777,14.6933194 L60.1990857,14.6933194 L60.1990857,16.5333667 L56.8255267,16.5333667 C56.4990532,16.5333667 56.2814042,16.5333667 56.0637553,16.6416048 C55.8461063,16.7498429 55.8461063,16.9663191 55.8461063,17.1827952 C55.8461063,17.5075095 56.0637553,17.6157476 56.2814042,17.7239856 C56.4990532,17.8322237 56.7167022,17.8322237 56.9343512,17.8322237 L57.9137715,17.8322237 C58.8931919,17.8322237 59.5461388,18.0486999 59.9814367,18.4816522 C60.3079101,18.8063664 60.5255591,19.3475568 60.5255591,20.1052234 C60.5255591,21.7287946 59.5461388,22.4864612 57.6961225,22.4864612 Z M67.0550281,21.7287946 C66.6197302,22.1617469 65.8579588,22.4864612 64.769714,22.4864612 L61.2873305,22.4864612 L61.2873305,20.86289 L64.769714,20.86289 C65.0961874,20.86289 65.3138364,20.86289 65.5314854,20.6464138 C65.6403098,20.5381757 65.7491343,20.3216996 65.7491343,20.1052234 C65.7491343,19.8887472 65.6403098,19.6722711 65.5314854,19.564033 C65.4226609,19.4557949 65.2050119,19.3475568 64.8785385,19.3475568 C63.1373467,19.2393188 61.0696815,19.3475568 61.0696815,16.9663191 C61.0696815,15.8839383 61.7226284,14.6933194 63.6814691,14.6933194 L67.2726771,14.6933194 L67.2726771,16.5333667 L64.0079426,16.5333667 C63.6814691,16.5333667 63.4638202,16.5333667 63.2461712,16.6416048 C63.0285222,16.7498429 63.0285222,16.9663191 63.0285222,17.1827952 C63.0285222,17.5075095 63.1373467,17.6157476 63.4638202,17.7239856 C63.6814691,17.8322237 63.8991181,17.8322237 64.1167671,17.8322237 L65.0961874,17.8322237 C66.0756078,17.8322237 66.7285547,18.0486999 67.1638526,18.4816522 C67.2726771,18.4816522 67.2726771,18.5898903 67.2726771,18.5898903 C67.5991505,19.0228426 67.707975,19.564033 67.707975,20.1052234 C67.707975,20.7546519 67.4903261,21.2958423 67.0550281,21.7287946 Z" id="Shape" fill-rule="nonzero"></path>
            <path d="M43.7064527,16.1849754 C43.4785892,16.0733549 43.136794,16.0733549 42.7949988,16.0733549 L40.5163641,16.0733549 L40.5163641,17.8592832 L42.7949988,17.8592832 C43.136794,17.8592832 43.4785892,17.8592832 43.7064527,17.7476627 C43.9343161,17.6360422 44.0482479,17.3011806 44.0482479,16.9663191 C44.1621796,16.519837 43.9343161,16.2965959 43.7064527,16.1849754 Z" id="SVGCleanerId_1"></path>
            <path d="M35.3277574,3.14090389 C35.1091685,3.03219521 34.7812853,3.03219521 34.4534021,3.03219521 L32.267514,3.03219521 L32.267514,4.7715341 L34.4534021,4.7715341 C34.7812853,4.7715341 35.1091685,4.7715341 35.3277574,4.66282542 C35.5463462,4.55411674 35.6556406,4.2279907 35.6556406,3.90186466 C35.764935,3.46702993 35.5463462,3.24961257 35.3277574,3.14090389 Z" id="Shape"></path>
            <path d="M34.8391268,16.0733549 L32.5014409,16.0733549 L32.5014409,17.8592832 L34.9504452,17.8592832 C35.6183554,17.8592832 36.0636289,17.5616285 36.0636289,16.9663191 C35.9523106,16.3710096 35.5070371,16.0733549 34.8391268,16.0733549 Z" id="SVGCleanerId_0_1_"></path>
        </g>
    </g>
</svg>