<?xml version="1.0" encoding="UTF-8"?>
<svg width="62px" height="21px" viewBox="0 0 62 21" version="1.1" xmlns="http://www.w3.org/2000/svg" xmlns:xlink="http://www.w3.org/1999/xlink">
    <!-- Generator: Sketch 52.5 (67469) - http://www.bohemiancoding.com/sketch -->
    <title>discover</title>
    <desc>Created with Sketch.</desc>
    <g id="Page-1" stroke="none" stroke-width="1" fill="none" fill-rule="evenodd">
        <g id="discover" fill="#FFFFFF">
            <ellipse id="Oval" cx="32.6710685" cy="5.80030419" rx="4.84476941" ry="4.96383019"></ellipse>
            <path d="M3.25989262,0.836474 L0.519417,0.836474 L0.519417,10.7641344 L3.25989262,10.7641344 C4.72800456,10.7641344 5.80461999,10.3589238 6.68548715,9.64980516 C7.76210258,8.73808124 8.44722148,7.31984405 8.44722148,5.80030419 C8.44722148,2.86252714 6.39186476,0.836474 3.25989262,0.836474 Z M5.5109976,8.33287062 C4.92375282,8.8393839 4.14075979,9.14329187 2.96627024,9.14329187 L2.37902546,9.14329187 L2.37902546,2.55861917 L2.86839611,2.55861917 C4.04288566,2.55861917 4.82587869,2.76122448 5.41312347,3.36904042 C6.09824238,3.97685637 6.48973889,4.88858028 6.48973889,5.80030419 C6.58761302,6.71202811 6.19611651,7.72505467 5.5109976,8.33287062 Z" id="Shape" fill-rule="nonzero"></path>
            <rect id="SVGCleanerId_0" x="9.32808865" y="0.836474" width="1.76173433" height="9.92766038"></rect>
            <path d="M16.1159474,4.59549104 C14.8723702,4.20995083 14.5614759,3.92079567 14.5614759,3.43887041 C14.5614759,2.8605601 15.1832645,2.37863484 16.012316,2.37863484 C16.6341045,2.37863484 17.1522617,2.57140494 17.6704189,3.14971525 L18.7067332,1.89670958 C17.8776817,1.22201421 16.8413674,0.836474 15.7014217,0.836474 C13.9396873,0.836474 12.4888473,1.99309463 12.4888473,3.53525546 C12.4888473,4.8846462 13.1106359,5.46295651 14.9760016,6.13765188 C15.8050531,6.42680703 16.1159474,6.52319208 16.3232102,6.71596219 C16.737736,6.90873229 16.9449988,7.2942725 16.9449988,7.67981271 C16.9449988,8.45089313 16.3232102,9.02920344 15.3905274,9.02920344 C14.4578445,9.02920344 13.628793,8.54727818 13.2142673,7.77619776 L11.9706901,8.93281839 C12.903373,10.1858241 14.0433188,10.7641344 15.4941588,10.7641344 C17.5667874,10.7641344 19.0176275,9.5111287 19.0176275,7.67981271 C19.0176275,6.04126682 18.3958389,5.36657146 16.1159474,4.59549104 Z" id="Shape"></path>
            <path d="M19.0176275,5.89576247 C19.0176275,8.66405238 21.4168314,10.7641344 24.4419147,10.7641344 C25.2764205,10.7641344 26.006613,10.5732178 26.9454319,10.1913847 L26.9454319,7.99584447 C26.1109262,8.75951065 25.3807337,9.04588547 24.546228,9.04588547 C22.5642768,9.04588547 21.1038918,7.70946965 21.1038918,5.80030419 C21.1038918,3.98659701 22.5642768,2.55472291 24.4419147,2.55472291 C25.3807337,2.55472291 26.1109262,2.84109773 26.9454319,3.60476391 L26.9454319,1.40922364 C26.1109262,1.02739055 25.3807337,0.836474 24.4419147,0.836474 C21.5211447,1.02739055 19.0176275,3.22293082 19.0176275,5.89576247 Z" id="Shape"></path>
            <polygon id="Shape" points="41.8738123 7.32385603 39.463018 0.836474 37.5158379 0.836474 41.3174752 10.7641344 42.3374266 10.7641344 46.3245096 0.836474 44.3773295 0.836474"></polygon>
            <polygon id="Shape" points="48.0862439 10.7641344 53.3714469 10.7641344 53.3714469 9.14329187 50.0081359 9.14329187 50.0081359 6.40812013 53.2753523 6.40812013 53.2753523 4.68597497 50.0081359 4.68597497 50.0081359 2.55861917 53.3714469 2.55861917 53.3714469 0.836474 48.0862439 0.836474"></polygon>
            <path d="M58.2651534,6.61072545 C59.7332653,6.30681748 60.5162583,5.29379091 60.5162583,3.77425105 C60.5162583,1.95080323 59.2438946,0.836474 57.0906638,0.836474 L54.252314,0.836474 L54.252314,10.7641344 L56.1119225,10.7641344 L56.1119225,6.81333076 L56.4055449,6.81333076 L59.0481464,10.7641344 L61.2992514,10.7641344 L58.2651534,6.61072545 Z M56.6991673,5.39509356 L56.1119225,5.39509356 L56.1119225,2.35601385 L56.6991673,2.35601385 C57.8736568,2.35601385 58.5587757,2.86252714 58.5587757,3.87555371 C58.5587757,4.88858028 57.8736568,5.39509356 56.6991673,5.39509356 Z" id="Shape" fill-rule="nonzero"></path>
            <polygon id="Shape" points="13.8320003 20.2442982 13.8320003 14.453163 17.6158992 18.5596044 17.6158992 14.7690431 18.4125095 14.7690431 18.4125095 20.5601783 14.6286106 16.453737 14.6286106 20.2442982"></polygon>
            <polygon id="Shape" points="22.3955611 15.6113901 20.304459 15.6113901 20.304459 16.8749105 22.2959848 16.8749105 22.2959848 17.7172574 20.304459 17.7172574 20.304459 19.5072447 22.3955611 19.5072447 22.3955611 20.2442982 19.5078487 20.2442982 19.5078487 14.7690431 22.3955611 14.7690431"></polygon>
            <polygon id="Shape" points="24.8849683 15.6113901 24.8849683 20.2442982 24.088358 20.2442982 24.088358 15.6113901 22.8934425 15.6113901 22.8934425 14.8743365 26.0798837 14.8743365 26.0798837 15.6113901"></polygon>
            <polygon id="Shape" points="27.2747992 14.8743365 28.5692909 18.5596044 29.963359 14.6637498 31.2578507 18.5596044 32.6519188 14.8743365 33.6476816 14.8743365 31.357427 20.6654717 30.0629353 16.7696171 28.6688672 20.6654717 26.4781889 14.8743365"></polygon>
            <path d="M33.7472579,17.5066707 C33.7472579,16.7696171 34.0459868,16.0325635 34.5438682,15.5060967 C35.0417497,14.9796299 35.7387837,14.6637498 36.4358177,14.6637498 C37.1328517,14.6637498 37.8298857,14.9796299 38.3277672,15.5060967 C38.8256486,16.0325635 39.1243775,16.7696171 39.1243775,17.5066707 C39.1243775,18.2437243 38.8256486,18.9807778 38.3277672,19.5072447 C37.8298857,20.0337115 37.1328517,20.3495916 36.4358177,20.3495916 C35.7387837,20.3495916 35.141326,20.1390049 34.6434445,19.612538 C34.0459868,19.0860712 33.7472579,18.454311 33.7472579,17.5066707 Z M34.5438682,17.5066707 C34.5438682,18.1384309 34.7430208,18.5596044 35.141326,18.9807778 C35.5396311,19.4019513 35.9379363,19.612538 36.4358177,19.612538 C36.9336991,19.612538 37.4315806,19.4019513 37.8298857,18.9807778 C38.2281909,18.5596044 38.4273435,18.1384309 38.4273435,17.5066707 C38.4273435,16.8749105 38.2281909,16.453737 37.8298857,16.0325635 C37.4315806,15.6113901 37.0332754,15.4008033 36.4358177,15.4008033 C35.9379363,15.4008033 35.4400548,15.6113901 35.0417497,16.0325635 C34.7430208,16.453737 34.5438682,16.9802038 34.5438682,17.5066707 Z" id="Shape" fill-rule="nonzero"></path>
            <path d="M41.9125136,17.9278442 L43.5057342,20.2442982 L42.5099713,20.2442982 L41.016327,18.0331375 L40.9167507,18.0331375 L40.9167507,20.2442982 L40.1201404,20.2442982 L40.1201404,14.7690431 L41.016327,14.7690431 C41.713361,14.7690431 42.2112424,14.8743365 42.5099713,15.1902166 C42.8087002,15.5060967 43.0078527,15.9272702 43.0078527,16.3484436 C43.0078527,16.7696171 42.9082764,17.0854972 42.7091239,17.2960839 C42.5099713,17.7172574 42.2112424,17.9278442 41.9125136,17.9278442 Z M40.9167507,17.2960839 L41.1159033,17.2960839 C41.8129373,17.2960839 42.2112424,16.9802038 42.2112424,16.453737 C42.2112424,15.9272702 41.8129373,15.6113901 41.1159033,15.6113901 L40.8171744,15.6113901 L40.8171744,17.2960839 L40.9167507,17.2960839 Z" id="Shape" fill-rule="nonzero"></path>
            <polygon id="Shape" points="44.9993785 16.9802038 46.9909043 14.7690431 47.9866671 14.7690431 45.6964125 17.1907906 47.9866671 20.1390049 46.9909043 20.1390049 45.0989548 17.7172574 44.8998022 17.9278442 44.8998022 20.1390049 44.1031919 20.1390049 44.1031919 14.6637498 44.8998022 14.6637498 44.8998022 16.9802038"></polygon>
        </g>
    </g>
</svg>