<?xml version="1.0" encoding="UTF-8"?>
<svg width="38px" height="24px" viewBox="0 0 38 24" version="1.1" xmlns="http://www.w3.org/2000/svg" xmlns:xlink="http://www.w3.org/1999/xlink">
    <!-- Generator: Sketch 52.5 (67469) - http://www.bohemiancoding.com/sketch -->
    <title>mastercard</title>
    <desc>Created with Sketch.</desc>
    <g id="Page-1" stroke="none" stroke-width="1" fill="none" fill-rule="evenodd">
        <g id="mastercard">
            <path d="M37.6628288,11.7641346 C37.6628288,18.0073798 32.4868187,23.1100322 26.0168061,23.1100322 C19.6084126,23.1100322 14.3707834,18.0073798 14.3707834,11.7641346 C14.3707834,5.52088935 19.5467935,0.418237 25.9551869,0.418237 C32.4868187,0.418237 37.6628288,5.52088935 37.6628288,11.7641346 Z" id="Shape" fill="#FFFFFF"></path>
            <path d="M11.1462062,0.418237 C5.02707103,0.418237 0.037217,5.52088935 0.037217,11.7641346 C0.037217,18.0073798 5.02735118,23.1100322 11.2650189,23.1100322 C14.1759305,23.1100322 16.7898103,21.9694393 18.8096266,20.1685032 C19.2254711,19.8083159 19.5819092,19.3880975 19.9383474,18.9678791 L17.6214994,18.9678791 C17.3244676,18.6076919 17.0274358,18.1874734 16.7898103,17.8272862 L20.7700364,17.8272862 C21.0076618,17.467099 21.2452873,17.0468805 21.4235064,16.6266621 L16.1363404,16.6266621 C15.9581213,16.2664749 15.7799022,15.8462565 15.6610895,15.426038 L21.8393509,15.426038 C22.195789,14.2854452 22.4334145,13.0848211 22.4334145,11.8241658 C22.4334145,10.9837289 22.3146018,10.2033233 22.195789,9.42291762 L15.3046514,9.42291762 C15.3640577,9.00269919 15.4828704,8.64251197 15.6016831,8.22229354 L21.7799445,8.22229354 C21.6611318,7.80207511 21.4829127,7.38185668 21.3046936,7.02166946 L16.076934,7.02166946 C16.2551531,6.60145103 16.4927785,6.2412638 16.730404,5.82104537 L20.7106301,5.82104537 C20.4730046,5.40082694 20.1759728,4.98060851 19.8195347,4.62042129 L17.6214994,4.62042129 C17.9779375,4.20020286 18.3343757,3.84001564 18.7502202,3.47982841 C18.7502202,3.47982841 16.6405158,0.418237 11.1462062,0.418237 Z" id="Combined-Shape" fill="#EDEDED"></path>
            <g id="Group" transform="translate(0.933065, 9.145851)" fill="#0D1E30">
                <path d="M14.0045869,5.91322753 C13.8871481,5.97356659 13.5935508,6.0942447 13.2412342,6.0942447 C12.7127592,6.0942447 12.3017231,5.79254942 12.3017231,5.06848074 C12.3017231,4.58576829 13.0063564,0.603390565 13.0063564,0.603390565 L14.1807453,0.603390565 L14.0633064,1.32745924 L14.6505008,1.32745924 L14.4743425,2.47390132 L13.8284286,2.47390132 L13.476112,4.58576829 C13.4173925,4.7064464 13.476112,4.94780263 13.8871481,4.94780263 C14.0045869,4.94780263 14.1220258,4.88746357 14.1807453,4.88746357 L14.0045869,5.91322753 Z M14.415623,3.98237773 C14.415623,2.47390132 15.2964147,1.14644207 16.529523,1.26712019 C17.8213507,1.26712019 18.2323868,2.23254509 18.2323868,3.01695282 C18.2323868,3.31864811 18.0562284,4.10305584 18.0562284,4.10305584 L15.6487313,4.10305584 C15.6487313,4.10305584 15.4138536,5.06848074 16.7056813,5.06848074 C17.2928757,5.06848074 17.9387896,4.76678546 17.9387896,4.76678546 L17.7039118,5.91322753 C17.7039118,5.91322753 17.3515951,6.0942447 16.4708035,6.0942447 C15.5312924,6.0942447 14.415623,5.67187131 14.415623,3.98237773 Z M16.4708035,2.23254509 C15.8248896,2.23254509 15.7074508,3.01695282 15.7074508,3.07729188 L16.9992785,3.07729188 C16.9992785,3.01695282 17.1167174,2.23254509 16.4708035,2.23254509 Z M23.9281727,5.91322753 C23.9281727,5.91322753 23.2822588,6.0942447 22.8125033,6.0942447 C21.4032366,6.0942447 20.6986033,5.06848074 20.6986033,3.56000433 C20.6986033,1.26712019 22.0491505,0.0603390565 23.3996977,0.0603390565 C24.0456115,0.0603390565 24.7502448,0.362034339 24.7502448,0.362034339 L24.5740865,1.62915452 C24.5740865,1.62915452 24.104331,1.26712019 23.5171366,1.26712019 C22.6950644,1.26712019 21.9904311,2.05152792 21.9904311,3.49966528 C21.9904311,4.22373395 22.3427477,4.88746357 23.1648199,4.88746357 C23.575856,4.88746357 24.1630504,4.58576829 24.1630504,4.58576829 L23.9281727,5.91322753 Z M7.54544831,1.14644207 C7.95648441,1.14644207 9.13087325,1.20678113 9.13087325,2.65491848 L8.66111771,5.97356659 L7.60416775,5.97356659 L7.6628872,5.49085414 C7.60416775,5.49085414 7.2518511,6.03390565 6.42977891,6.03390565 C6.01874282,6.03390565 5.31410951,5.79254942 5.31410951,4.7064464 C5.31410951,3.31864811 6.42977891,2.89627471 7.42800943,2.89627471 C7.60416775,2.89627471 7.95648441,2.89627471 7.95648441,2.89627471 C7.95648441,2.89627471 8.01520385,2.83593565 8.01520385,2.59457943 C8.01520385,2.23254509 7.6628872,2.17220603 7.2518511,2.17220603 C6.48849835,2.17220603 5.96002337,2.41356226 5.96002337,2.41356226 L6.1361817,1.3877983 C6.1361817,1.3877983 6.72337612,1.14644207 7.54544831,1.14644207 Z M7.78032608,3.86169961 C7.78032608,3.86169961 7.72160664,3.86169961 7.54544831,3.80136056 C6.66465668,3.80136056 6.48849835,4.22373395 6.48849835,4.52542924 C6.48849835,4.7064464 6.60593724,5.00814169 6.95825389,5.00814169 C7.6628872,5.00814169 7.78032608,4.04271678 7.78032608,3.86169961 Z M10.2465426,6.03390565 C9.24831213,6.03390565 8.95471492,5.91322753 8.89599548,5.79254942 L9.07215381,4.7064464 C9.07215381,4.7064464 9.60062878,4.88746357 10.1291038,4.88746357 C10.422701,4.88746357 10.8337371,4.82712452 10.8337371,4.46509018 C10.8337371,3.92203867 9.36575102,4.04271678 9.36575102,2.65491848 C9.36575102,1.44813736 10.2465426,1.08610302 11.1273343,1.08610302 C11.8319676,1.08610302 12.2430037,1.20678113 12.2430037,1.20678113 L12.0668454,2.29288415 C12.0668454,2.29288415 11.4209315,2.23254509 11.2447732,2.23254509 C10.8337371,2.23254509 10.5988593,2.3532232 10.5988593,2.65491848 C10.5988593,3.25830905 12.0081259,2.95661377 12.0081259,4.46509018 C12.0081259,6.0942447 10.5401399,6.03390565 10.2465426,6.03390565 Z M33.6756,0.181017169 L34.9087083,0.241356226 L34.0279167,6.03390565 L32.8535279,6.03390565 L32.9122473,5.61153225 C32.9122473,5.61153225 32.5012112,6.0942447 31.7965779,6.0942447 C30.7983474,6.0942447 30.3285918,5.06848074 30.3285918,4.10305584 C30.3285918,2.53424037 31.2681029,1.20678113 32.3250529,1.20678113 C32.9709667,1.20678113 33.4407223,1.81017169 33.4407223,1.81017169 L33.6756,0.181017169 Z M33.1471251,3.37898716 C33.1471251,2.65491848 32.9122473,2.3532232 32.5012112,2.3532232 C31.9727362,2.3532232 31.5617001,2.95661377 31.5617001,3.92203867 C31.5617001,4.52542924 31.7965779,4.88746357 32.207614,4.88746357 C32.8535279,4.88746357 33.1471251,4.04271678 33.1471251,3.37898716 Z M1.14502912,5.97356659 L0.0293597211,5.97356659 L0.968870795,0.181017169 L2.67173462,0.181017169 L2.73045406,3.7410215 L3.9048429,0.181017169 L5.84258449,0.181017169 L4.90307342,5.97356659 L3.66996513,5.97356659 L4.315879,1.62915452 L2.7891735,5.97356659 L1.96710131,5.97356659 L1.84966243,1.62915452 L1.14502912,5.97356659 Z M19.3480562,5.97356659 L19.3480562,6.03390565 L18.0562284,6.03390565 L18.8195812,1.32745924 L19.9352506,1.32745924 L19.8178117,1.99118886 C19.8178117,1.99118886 20.2288478,1.26712019 20.7573228,1.26712019 C20.9334811,1.26712019 20.9922006,1.26712019 20.9922006,1.26712019 C20.8747617,1.56881547 20.6986033,1.87051075 20.5811645,2.65491848 C19.7590923,2.3532232 19.7003728,3.98237773 19.3480562,5.97356659 Z M26.629267,1.14644207 C27.0403031,1.14644207 28.2734114,1.20678113 28.2146919,2.65491848 L27.7449364,5.97356659 L26.6879864,5.97356659 L26.7467059,5.49085414 C26.6879864,5.49085414 26.3356698,6.03390565 25.5135976,6.03390565 C25.1025615,6.03390565 24.3979282,5.79254942 24.3979282,4.7064464 C24.3979282,3.31864811 25.5135976,2.89627471 26.5118281,2.89627471 C26.6879864,2.89627471 27.0403031,2.89627471 27.0403031,2.89627471 C27.0403031,2.89627471 27.0990225,2.83593565 27.0990225,2.59457943 C27.0990225,2.23254509 26.7467059,2.17220603 26.3356698,2.17220603 C25.572317,2.17220603 25.0438421,2.41356226 25.0438421,2.41356226 L25.2200004,1.3877983 C25.2200004,1.3877983 25.8071948,1.14644207 26.629267,1.14644207 Z M26.9228642,3.86169961 C26.8641448,3.86169961 26.8641448,3.86169961 26.6879864,3.80136056 C25.8071948,3.80136056 25.6310365,4.22373395 25.6310365,4.52542924 C25.6310365,4.7064464 25.7484754,5.00814169 26.100792,5.00814169 C26.8054253,5.00814169 26.9228642,4.04271678 26.9228642,3.86169961 Z M29.2129224,5.97356659 L29.2129224,6.03390565 L27.9210947,6.03390565 L28.6844475,1.32745924 L29.8001169,1.32745924 L29.682678,1.99118886 C29.682678,1.99118886 30.0937141,1.26712019 30.6221891,1.26712019 C30.7983474,1.26712019 30.8570668,1.26712019 30.8570668,1.26712019 C30.7396279,1.56881547 30.5634696,1.87051075 30.4460307,2.65491848 C29.6239585,2.3532232 29.5652391,3.98237773 29.2129224,5.97356659 Z" id="Combined-Shape"></path>
            </g>
        </g>
    </g>
</svg>