<?xml version="1.0" encoding="UTF-8"?>
<svg width="73px" height="19px" viewBox="0 0 73 19" version="1.1" xmlns="http://www.w3.org/2000/svg" xmlns:xlink="http://www.w3.org/1999/xlink">
    <!-- Generator: Sketch 52.5 (67469) - http://www.bohemiancoding.com/sketch -->
    <title>paypal</title>
    <desc>Created with Sketch.</desc>
    <g id="Page-1" stroke="none" stroke-width="1" fill="none" fill-rule="evenodd">
        <g id="paypal" fill="#FFFFFF">
            <path d="M56.2403905,6.10421216 L52.2528734,6.10421216 C52.0183136,6.10421216 51.7837538,6.32601166 51.6664738,6.54781117 L50.024555,16.3069892 C50.024555,16.5287887 50.1418349,16.6396885 50.3763948,16.6396885 L52.4874332,16.6396885 C52.7219931,16.6396885 52.839273,16.5287887 52.839273,16.3069892 L53.3083926,13.5344955 C53.3083926,13.312696 53.5429525,13.0908965 53.8947922,13.0908965 L55.1848713,13.0908965 C57.8823093,13.0908965 59.4069482,11.8709992 59.758788,9.43120469 C59.9933478,8.43310693 59.758788,7.54590892 59.2896683,6.99141017 C58.5859888,6.43691142 57.5304696,6.10421216 56.2403905,6.10421216 M56.7095102,9.76390394 C56.4749503,11.0947009 55.4194311,11.0947009 54.3639119,11.0947009 L53.6602324,11.0947009 L54.1293521,8.54400668 C54.1293521,8.43310693 54.246632,8.32220718 54.4811918,8.32220718 L54.7157516,8.32220718 C55.4194311,8.32220718 56.1231106,8.32220718 56.4749503,8.76580618 C56.7095102,8.87670593 56.7095102,9.20940519 56.7095102,9.76390394" id="Shape" fill-rule="nonzero"></path>
            <path d="M27.6339963,5.25362087 L23.6785664,5.25362087 C23.445894,5.25362087 23.2132217,5.47253986 23.0968855,5.69145885 L21.468179,15.3238943 C21.468179,15.5428133 21.5845152,15.6522728 21.8171876,15.6522728 L23.6785664,15.6522728 C23.9112387,15.6522728 24.1439111,15.4333538 24.2602472,15.2144348 L24.7255919,12.587407 C24.7255919,12.368488 24.9582643,12.149569 25.3072728,12.149569 L26.5869707,12.149569 C29.2627027,12.149569 30.775073,10.9455146 31.1240815,8.5374057 C31.3567539,7.55227025 31.1240815,6.6765943 30.6587368,6.12929683 C29.9607198,5.58199936 29.0300304,5.25362087 27.6339963,5.25362087 M28.099341,8.86578419 C27.8666686,10.1792981 26.8196431,10.1792981 25.7726175,10.1792981 L25.1909366,10.1792981 L25.6562813,7.66172975 C25.6562813,7.55227025 25.7726175,7.44281076 26.0052898,7.44281076 L26.2379622,7.44281076 C26.9359792,7.44281076 27.6339963,7.44281076 27.9830048,7.88064874 C28.099341,7.99010823 28.2156772,8.31848671 28.099341,8.86578419" id="Shape" fill-rule="nonzero"></path>
            <path d="M39.6166223,8.75632469 L37.7552435,8.75632469 C37.6389073,8.75632469 37.406235,8.86578419 37.406235,8.97524368 L37.2898988,9.52254115 L37.1735626,9.30362216 C36.7082179,8.75632469 35.8938647,8.5374057 34.9631753,8.5374057 C32.8691241,8.5374057 31.0077453,10.0698386 30.6587368,12.149569 C30.4260645,13.244164 30.775073,14.2292994 31.3567539,14.8860564 C31.9384347,15.5428133 32.752788,15.7617323 33.7998135,15.7617323 C35.5448562,15.7617323 36.4755456,14.7765969 36.4755456,14.7765969 L36.3592094,15.3238943 C36.3592094,15.5428133 36.4755456,15.6522728 36.7082179,15.6522728 L38.4532605,15.6522728 C38.6859329,15.6522728 38.9186052,15.4333538 39.0349414,15.2144349 L40.081967,9.08470317 C39.9656308,8.97524368 39.7329584,8.75632469 39.6166223,8.75632469 M36.9408903,12.2590285 C36.7082179,13.244164 35.8938647,14.0103804 34.7305029,14.0103804 C34.1488221,14.0103804 33.6834774,13.7914614 33.450805,13.5725424 C33.2181327,13.244164 33.1017965,12.806326 33.1017965,12.2590285 C33.2181327,11.2738931 34.1488221,10.5076766 35.1958476,10.5076766 C35.7775285,10.5076766 36.126537,10.7265956 36.4755456,10.9455146 C36.8245541,11.2738931 36.9408903,11.8211905 36.9408903,12.2590285" id="Shape" fill-rule="nonzero"></path>
            <path d="M67.4527195,8.97752389 L65.7017273,8.97752389 C65.5922903,8.97752389 65.3734162,9.09724521 65.3734162,9.21696653 L65.2639792,9.81557314 L65.1545422,9.5761305 C64.7167942,8.97752389 63.9507351,8.73808124 63.0752389,8.73808124 C61.1053727,8.73808124 59.3543805,10.4141797 59.0260694,12.6888849 C58.8071954,13.8860981 59.1355065,14.96359 59.6826915,15.6819179 C60.2298766,16.4002458 60.9959357,16.6396885 61.9808688,16.6396885 C63.622424,16.6396885 64.4979201,15.5621966 64.4979201,15.5621966 L64.3884831,16.1608032 C64.3884831,16.4002458 64.4979201,16.5199672 64.7167942,16.5199672 L66.3583494,16.5199672 C66.5772234,16.5199672 66.7960974,16.2805245 66.9055344,16.0410819 L67.8904675,9.33668785 C67.7810305,9.21696653 67.6715935,8.97752389 67.4527195,8.97752389 M64.9356682,12.8086062 C64.7167942,13.8860981 63.9507351,14.7241473 62.8563649,14.7241473 C62.3091799,14.7241473 61.8714318,14.4847047 61.6525578,14.2452621 C61.4336837,13.8860981 61.3242467,13.4072128 61.3242467,12.8086062 C61.4336837,11.7311143 62.3091799,10.893065 63.294113,10.893065 C63.841298,10.893065 64.1696091,11.1325077 64.4979201,11.3719503 C64.9356682,11.7311143 65.0451052,12.3297209 64.9356682,12.8086062" id="Shape" fill-rule="nonzero"></path>
            <path d="M49.7404001,8.61603761 L47.8309245,8.61603761 C47.6062803,8.61603761 47.4939582,8.72704358 47.3816361,8.83804956 L44.91055,12.6122528 L43.7873291,9.06006151 C43.675007,8.83804956 43.5626849,8.72704358 43.2257186,8.72704358 L41.4285651,8.72704358 C41.2039209,8.72704358 41.0915988,8.94905554 41.0915988,9.17106749 L43.1133965,15.0543842 L41.2039209,17.7185277 C41.0915988,17.9405396 41.2039209,18.2735576 41.4285651,18.2735576 L43.2257186,18.2735576 C43.4503628,18.2735576 43.5626849,18.1625516 43.675007,18.0515456 L49.8527222,9.28207347 C50.1896885,8.94905554 49.9650443,8.61603761 49.7404001,8.61603761" id="Shape"></path>
            <path d="M69.6274313,6.36842709 L67.8904675,16.3083575 C67.8904675,16.5292448 68.0145364,16.6396885 68.2626741,16.6396885 L69.9996378,16.6396885 C70.2477754,16.6396885 70.4959131,16.4188011 70.619982,16.1979138 L72.3569457,6.47887076 C72.3569457,6.25798342 72.2328768,6.14753975 71.9847392,6.14753975 L69.9996378,6.14753975 C69.8755689,6.03709608 69.7515001,6.14753975 69.6274313,6.36842709" id="Shape"></path>
            <path d="M13.3369425,2.17195691 C12.5251286,1.28163497 11.0174742,0.836474 8.92995281,0.836474 L3.13128215,0.836474 C2.78336191,0.836474 2.43544168,1.17034473 2.31946826,1.50421546 L0,16.0832373 C0,16.417108 0.231946826,16.6396885 0.463893652,16.6396885 L4.05906946,16.6396885 L4.98685676,11.1864666 L4.98685676,11.4090471 C5.10283018,11.0751763 5.45075042,10.7413056 5.79867066,10.7413056 L7.53827185,10.7413056 C10.9015008,10.7413056 13.4529159,9.4058227 14.2647298,5.73324469 C14.2647298,5.62195444 14.2647298,5.5106642 14.2647298,5.39937396 C14.1487564,5.39937396 14.1487564,5.39937396 14.2647298,5.39937396 C14.3807032,3.9526008 14.1487564,3.06227886 13.3369425,2.17195691" id="Shape"></path>
            <path d="M13.8262337,5.2262558 C13.8262337,5.33692257 13.8262337,5.44758934 13.8262337,5.55825611 C13.0287742,9.32092622 10.5224728,10.5382607 7.21871182,10.5382607 L5.50986995,10.5382607 C5.16810158,10.5382607 4.82633321,10.870261 4.71241041,11.2022613 L3.5731825,17.9529341 C3.5731825,18.1742677 3.68710529,18.3956012 4.02887367,18.3956012 L6.99086624,18.3956012 C7.33263461,18.3956012 7.67440299,18.1742677 7.67440299,17.8422674 L7.67440299,17.7316006 L8.24401694,14.3009308 L8.24401694,14.0795973 C8.24401694,13.7475969 8.58578532,13.5262634 8.92755369,13.5262634 L9.38324485,13.5262634 C12.2313146,13.5262634 14.5097705,12.4195957 15.0793844,9.09959269 C15.30723,7.77159147 15.1933072,6.55425702 14.5097705,5.77958964 C14.3958477,5.55825611 14.1680021,5.33692257 13.8262337,5.2262558" id="Shape"></path>
        </g>
    </g>
</svg>