<?xml version="1.0" encoding="UTF-8"?>
<svg width="57px" height="19px" viewBox="0 0 57 19" version="1.1" xmlns="http://www.w3.org/2000/svg" xmlns:xlink="http://www.w3.org/1999/xlink">
    <!-- Generator: Sketch 52.5 (67469) - http://www.bohemiancoding.com/sketch -->
    <title>visa</title>
    <desc>Created with Sketch.</desc>
    <g id="Page-1" stroke="none" stroke-width="1" fill="none" fill-rule="evenodd">
        <g id="visa" fill="#FFFFFF">
            <polygon id="Shape" points="21.4313966 17.5176449 24.1844902 1.71443036 28.4861988 1.71443036 25.8191394 17.5176449"></polygon>
            <polygon id="Shape" points="21.4313966 17.5176449 24.9587977 1.71443036 28.4861988 1.71443036 25.8191394 17.5176449"></polygon>
            <path d="M41.7139529,1.57580567 C40.7917566,1.20613984 39.3162424,0.836474 37.4718497,0.836474 C32.8608678,0.836474 29.5409609,3.14688548 29.5409609,6.473878 C29.5409609,8.96912239 31.8464518,10.2629528 33.6908446,11.0947009 C35.5352373,11.9264491 36.0885551,12.4809478 36.0885551,13.2202795 C36.0885551,14.329277 34.6130409,14.8837758 33.321966,14.8837758 C31.4775733,14.8837758 30.4631573,14.6065264 28.8954235,13.9596112 L28.249886,13.6823618 L27.6043485,17.4714366 C28.7109842,17.9335189 30.7398162,18.3956012 32.8608678,18.3956012 C37.7485086,18.3956012 40.9761959,16.0851897 40.9761959,12.5733643 C40.9761959,10.6326186 39.7773406,9.15395531 37.0107515,7.95254134 C35.350798,7.12079321 34.336382,6.65871092 34.336382,5.82696279 C34.336382,5.08763111 35.1663587,4.34829944 37.0107515,4.34829944 C38.5784853,4.34829944 39.6851209,4.62554882 40.5150977,4.99521466 L40.9761959,5.18004757 L41.7139529,1.57580567 Z" id="Shape"></path>
            <path d="M41.7139529,1.57580567 C40.7917566,1.20613984 39.3162424,0.836474 37.4718497,0.836474 C32.8608678,0.836474 30.3709376,3.14688548 30.3709376,6.473878 C30.3709376,8.96912239 31.8464518,10.2629528 33.6908446,11.0947009 C35.5352373,11.9264491 36.0885551,12.4809478 36.0885551,13.2202795 C36.0885551,14.329277 34.6130409,14.8837758 33.321966,14.8837758 C31.4775733,14.8837758 30.4631573,14.6065264 28.8954235,13.9596112 L28.249886,13.6823618 L27.6043485,17.4714366 C28.7109842,17.9335189 30.7398162,18.3956012 32.8608678,18.3956012 C37.7485086,18.3956012 40.9761959,16.0851897 40.9761959,12.5733643 C40.9761959,10.6326186 39.7773406,9.15395531 37.0107515,7.95254134 C35.350798,7.12079321 34.336382,6.65871092 34.336382,5.82696279 C34.336382,5.08763111 35.1663587,4.34829944 37.0107515,4.34829944 C38.5784853,4.34829944 39.6851209,4.62554882 40.5150977,4.99521466 L40.9761959,5.18004757 L41.7139529,1.57580567 Z" id="Shape"></path>
            <path d="M49.2484429,1.71443036 C48.1437074,1.71443036 47.3151558,1.802226 46.8548493,2.85577363 L39.9502524,17.5176449 L44.9215622,17.5176449 L45.8421751,14.8837758 L51.7340978,14.8837758 L52.2864656,17.5176449 L56.7054076,17.5176449 L52.8388333,1.71443036 L49.2484429,1.71443036 Z M47.1310332,12.2499067 C47.4072171,11.459746 48.9722591,7.59673798 48.9722591,7.59673798 C48.9722591,7.59673798 49.3405042,6.63098598 49.6166881,6.01641653 L49.892872,7.50894234 C49.892872,7.50894234 50.8134849,11.459746 50.9976075,12.3377023 L47.1310332,12.3377023 L47.1310332,12.2499067 Z" id="Shape" fill-rule="nonzero"></path>
            <path d="M50.3531784,1.71443036 C49.2484429,1.71443036 48.4198913,1.802226 47.9595848,2.85577363 L39.9502524,17.5176449 L44.9215622,17.5176449 L45.8421751,14.8837758 L51.7340978,14.8837758 L52.2864656,17.5176449 L56.7054076,17.5176449 L52.8388333,1.71443036 L50.3531784,1.71443036 Z M47.1310332,12.2499067 C47.4992784,11.3719503 48.9722591,7.59673798 48.9722591,7.59673798 C48.9722591,7.59673798 49.3405042,6.63098598 49.6166881,6.01641653 L49.892872,7.50894234 C49.892872,7.50894234 50.8134849,11.459746 50.9976075,12.3377023 L47.1310332,12.3377023 L47.1310332,12.2499067 Z" id="Shape" fill-rule="nonzero"></path>
            <path d="M13.4212566,12.6888849 L12.9558356,10.4061983 C12.1180779,7.77232925 9.41863619,4.87507326 6.43994193,3.47034308 L10.6287307,17.5176449 L15.6552773,17.5176449 L23.1950972,1.71443036 L18.1685506,1.71443036 L13.4212566,12.6888849 Z" id="Shape"></path>
            <path d="M13.4212566,12.6888849 L12.9558356,10.4061983 C12.1180779,7.77232925 9.41863619,4.87507326 6.43994193,3.47034308 L10.6287307,17.5176449 L15.6552773,17.5176449 L23.1950972,1.71443036 L19.0993925,1.71443036 L13.4212566,12.6888849 Z" id="Shape"></path>
            <path d="M0.26699,1.71443036 L1.03696375,1.90758076 C6.51233262,3.35620875 10.2766487,7.02606634 11.7310436,11.3719503 L10.1910961,3.16305836 C9.93443817,2.00415596 9.16446442,1.71443036 8.2233854,1.71443036 L0.26699,1.71443036 Z" id="Shape"></path>
            <path d="M0.26699,1.71443036 C5.74235887,3.04466727 10.2766487,6.50328324 11.7310436,10.493994 L10.2766487,4.19753926 C10.0199908,3.13334973 9.16446442,2.51257251 8.2233854,2.51257251 L0.26699,1.71443036 Z" id="Shape"></path>
            <path d="M0.26699,1.71443036 C5.74235887,3.04466727 10.2766487,6.50328324 11.7310436,10.493994 L10.7044119,7.035378 C10.447754,5.97118847 10.1055435,4.90699894 8.9078065,4.46358664 L0.26699,1.71443036 Z" id="Shape"></path>
        </g>
    </g>
</svg>