<?xml version="1.0" encoding="UTF-8"?>
<svg width="1000px" height="167px" viewBox="0 0 1000 167" version="1.1" xmlns="http://www.w3.org/2000/svg" xmlns:xlink="http://www.w3.org/1999/xlink">
    <!-- Generator: Sketch 61.2 (89653) - https://sketch.com -->
    <title>autodesk</title>
    <desc>Created with Sketch.</desc>
    <g id="Page-1" stroke="none" stroke-width="1" fill="none" fill-rule="evenodd">
        <g id="autodesk" fill="#FFFFFF" fill-rule="nonzero">
            <path d="M53.0620926,0.500001757 L99.5434712,0.500001757 C103.826983,0.500001757 105.88186,3.02217014 106.818312,5.33140332 L174.923385,166.579537 L128.093831,166.579537 L76.1480045,43.6080018 L42.1256632,124.102169 L109.988725,124.102169 L53.6156545,159.024068 C50.8678896,160.64914 40.4172271,166.585839 33.0845842,166.585839 C28.3582758,166.585839 25.9021928,164.803044 23.5444501,160.661709 L2.00780647,120.738549 C0.523661275,117.877493 0.500004517,116.924586 0.500004517,114.863168 C0.500004517,111.94367 1.43944714,110.351562 2.73835273,107.106871 L45.4053684,5.25015492 C46.0037038,3.63590539 47.8143224,0.500001757 53.0620926,0.500001757 Z M837.236515,26.3459591 C856.427786,26.4401105 867.234026,33.45737 868.873652,34.4088629 L862.841867,48.0950676 C858.925454,45.9796952 850.336533,41.7999232 837.550848,41.7999232 C827.747074,41.7999232 819.413016,44.7648428 819.370538,51.272374 C819.319566,58.8928121 824.102516,61.5349037 842.155393,67.4052746 C862.102761,73.9637787 872.696614,80.632724 872.586173,96.8590748 C872.484227,115.149825 858.347762,125.582264 837.703766,125.582264 C823.091555,125.582264 809.991538,120.841791 800.000863,112.057473 L806.219548,97.0034978 C815.284217,104.598449 826.268861,109.984578 838.137035,110.035551 C848.526997,110.086524 855.918057,105.031718 855.918057,97.547208 C855.918057,91.2860454 852.298987,87.1232643 834.789819,81.5757213 C814.706525,74.9917308 802.574991,68.1273897 802.676937,51.7736069 C802.795873,35.5047787 818.05374,26.2532101 837.236515,26.3459591 Z M546.354116,26.3016343 C573.760507,26.3016343 595.993156,48.5342835 595.993156,75.9491704 C595.993156,103.364057 573.760507,125.579716 546.354116,125.579716 C518.939229,125.579716 496.72357,103.364057 496.72357,75.9491704 C496.72357,48.5342835 518.939229,26.3016343 546.354116,26.3016343 Z M331.326083,27.9565522 L331.326083,83.4234864 C331.326083,100.210538 341.18083,110.065285 355.453222,110.065285 C369.742606,110.065285 379.597353,100.210538 379.597353,83.4234864 L379.597353,27.9565522 L396.588296,27.9565522 L396.588296,81.4015641 C396.588296,110.014313 379.801244,125.442089 355.453222,125.442089 C331.113696,125.442089 314.326644,110.014313 314.326644,81.4015641 L314.326644,27.9565522 L331.326083,27.9565522 Z M969.619751,27.9480567 L926.658151,74.409791 L974.164828,123.938391 L953.29995,123.938391 L905.930005,74.4100018 L905.930005,74.4080018 L949.035223,27.9480567 L969.619751,27.9480567 Z M650.163682,27.9565522 C677.561578,27.9565522 699.785731,48.3966569 699.785731,75.8115438 C699.785731,103.217935 677.561578,123.9214 650.163682,123.9214 L650.163682,123.9214 L613.75209,123.929895 L613.75209,27.9565522 Z M905.930049,27.9548531 L905.930005,74.4080018 L905.9292,74.409791 L905.930005,74.4100018 L905.930049,123.928196 L889.848122,123.928196 L889.848122,27.9548531 L905.930049,27.9548531 Z M494.370325,27.9497558 L487.837307,43.5814236 L462.571774,43.5814236 L462.571774,123.923099 L445.56384,123.923099 L445.56384,43.5814236 L415.124565,43.5814236 L415.124565,27.9497558 L494.370325,27.9497558 Z M785.426032,27.9480567 L785.426032,43.5797245 L734.028429,43.5797245 L734.028429,67.9872144 L766.948381,67.9872144 L766.948381,83.0836675 L734.028429,83.0836675 L734.028429,108.587073 L785.451519,108.587073 L785.451519,123.9214 L717.054476,123.9214 L717.054476,27.9480567 L785.426032,27.9480567 Z M264.743674,27.2675694 L306.974663,123.92055 L289.159659,123.92055 L279.423849,100.761894 L234.041039,100.761894 L224.169301,123.92055 L206.898007,123.92055 L249.128997,27.2675694 L264.743674,27.2675694 Z M990.817651,106.532019 C995.617593,106.532019 999.500023,110.422945 999.500023,115.222886 C999.500023,120.022828 995.617593,123.905258 990.817651,123.905258 C986.043196,123.905258 982.143775,120.022828 982.143775,115.222886 C982.143775,110.422945 986.043196,106.532019 990.817651,106.532019 Z M990.817651,107.738376 C986.586906,107.738376 983.435086,110.8817 983.435086,115.222886 C983.435086,119.564072 986.586906,122.698901 990.817651,122.698901 C995.065387,122.698901 998.200216,119.564072 998.200216,115.222886 C998.200216,110.8817 995.065387,107.738376 990.817651,107.738376 Z M991.068268,110.655721 C992.886299,110.655721 993.820801,111.862078 993.820801,113.195867 C993.820801,114.495674 992.945767,115.319735 991.433573,115.51513 C991.783101,115.777276 992.026522,116.076872 992.324334,116.488816 L992.478516,116.704496 L994.576898,119.652425 L993.005235,119.652425 L990.830395,116.500605 C990.428073,115.893179 990.16493,115.659337 989.564829,115.62903 L989.420146,115.625572 L989.420146,119.652425 L988.128835,119.652425 L988.128835,110.655721 L991.068268,110.655721 Z M990.762431,111.768627 L989.420146,111.768627 L989.420146,114.61461 L990.329162,114.61461 C991.357114,114.61461 992.419048,114.478683 992.419048,113.195867 C992.419048,112.354815 991.977283,111.768627 990.762431,111.768627 Z M546.354116,41.7973745 C527.494169,41.7973745 513.723009,57.0892234 513.723009,75.9491704 C513.723009,94.8091175 527.494169,110.092471 546.354116,110.092471 C565.214063,110.092471 578.993718,94.8091175 578.993718,75.9491704 C578.993718,57.0892234 565.214063,41.7973745 546.354116,41.7973745 Z M650.240141,43.5967154 L630.777015,43.5967154 L630.777015,108.587073 L650.163682,108.570082 C669.006638,108.570082 682.794788,94.6629953 682.794788,75.8115438 C682.794788,56.9600923 669.091592,43.5967154 650.240141,43.5967154 L650.240141,43.5967154 Z M256.66448,47.4188281 L240.217247,85.8183598 L273.256136,85.8183598 L256.66448,47.4188281 Z" id="Combined-Shape"></path>
        </g>
    </g>
</svg>