<?xml version="1.0" encoding="UTF-8"?>
<svg width="170px" height="60px" viewBox="0 0 170 60" version="1.1" xmlns="http://www.w3.org/2000/svg" xmlns:xlink="http://www.w3.org/1999/xlink">
    <!-- Generator: Sketch 61.2 (89653) - https://sketch.com -->
    <title>automation</title>
    <desc>Created with Sketch.</desc>
    <g id="Page-1" stroke="none" stroke-width="1" fill="none" fill-rule="evenodd">
        <g id="automation" fill="#FFFFFF" fill-rule="nonzero">
            <path d="M24.8,0.6 C26.9,0.7 28.7,2.2 29.5,4.3 L29.5,4.3 L43,41.1 L43.3,41.9 C47.7,43.5 51.8,46 55.3,49.3 C55.4,49.4 55.5,49.6 55.6,49.7 L55.6,49.7 L56.2,50.6 C56.6,51.4 56.9,52.4 56.9,53.2 C56.9,53.2532366 56.8992973,53.3063171 56.8979008,53.3592326 L56.9,53.5 C56.7346996,56.6622291 54.0993243,59.2 50.9,59.2 C48.4,59.2 46.2,57.7 45.3,55.3 L45.3,55.3 L45.2,55.1 L41.1,44.1 C41.0601329,44.0862957 41.0202347,44.0726845 40.9803057,44.0591662 L41.1,44.4 C37.7,43.3 34.2,42.8 31,42.8 C25.2,42.8 19.5,44.3 14.5,47.2 C9.7,50 5.6,54 2.7,58.8 C2.7,58.85 2.675,58.875 2.65,58.9 L2.62739527,58.926 L2.82839527,58.39 L2.7,58.6 C2.7,58.675 2.64375,58.69375 2.615625,58.740625 L2.6,58.8 C2.4,59.2 1.9,59.4 1.5,59.4 C1.3,59.4 1.2,59.4 1,59.3 C0.2,59.1 -0.2,58.2 0.1,57.5 L0.1,57.5 L19.5,4.3 C20.3,2.2 22.1,0.8 24.2,0.6 L24.2,0.6 Z M44.6,45.6 L47.8,54 L47.9,54.3 L47.9,54.4 C48.4,55.6 49.6,56.5 50.9,56.5 C52.6,56.5 54,55.1 54,53.5 C54,52.9 53.8,52.5 53.6,52 C53.4,51.6 53.1,51.3 52.8,51 L52.8,51 L52.2973037,50.5653333 C49.9386667,48.5617778 47.4,46.9066667 44.6,45.6 L44.6,45.6 Z M130.4,48 L130.4,51.9 C130.4,53.5 129.1,54.1 128,54.1 C127.4,54.1 126.8,53.9 126.4,53.7 L126.794,52.617 L126.8088,52.6312 C126.908,52.708 127.34,52.9 127.9,52.9 C128.4,52.9 128.9,52.7 128.9,52.1 L128.9,51.8 C128.6,52.1 128.3,52.3 127.8,52.3 C126.5,52.3 125.9,51.2 125.9,50.1 C125.9,49 126.5,48 127.8,48 C128.538462,48 128.936095,48.3408284 128.992899,48.3932635 L129,48.4 L129,48 L130.4,48 Z M115.6,46.3 L115.6,48.4 C115.6,48.4 116,47.9 116.8,47.9 C118,47.9 118.7,48.8 118.7,50.2 C118.7,51.6 117.8,52.5 116.7,52.5 C115.957143,52.5 115.559184,52.0688776 115.506122,52.0072886 L115.5,52 L115.5,52.3 L114.1,52.3 L114.1,46.3 L115.6,46.3 Z M136.9,47.9 C138.2,47.9 138.9,48.8 138.9,50 L138.9,50.5 L136.2,50.5 C136.3,51 136.7,51.3 137.2,51.3 C137.8,51.3 138.4,50.9 138.4,50.9 L138.9,51.9 C138.9,51.9 138.2,52.5 137.1,52.5 C135.6,52.5 134.7,51.4 134.7,50.2 C134.7,48.9 135.6,47.9 136.9,47.9 Z M121.4,47.9 C122.7,47.9 123.4,48.8 123.4,50 L123.4,50.5 L120.7,50.5 C120.8,51 121.2,51.3 121.7,51.3 C122.3,51.3 122.9,50.9 122.9,50.9 L123.4,51.9 C123.4,51.9 122.7,52.5 121.6,52.5 C120.1,52.5 119.2,51.4 119.2,50.2 C119.2,48.9 120,47.9 121.4,47.9 Z M103.4,46.2 C104.9,46.2 105.7,47 105.7,47 L105,48.1 C105,48.1 104.4,47.5 103.5,47.5 C102.2,47.5 101.7,48.3 101.7,49.2 C101.7,50.3 102.5,51 103.4,51 C104.1,51 104.6,50.6 104.6,50.6 L104.6,50.1 L103.8,50.1 L103.8,49 L105.9,49 L105.9,52.4 L104.7,52.4 L104.7,51.9 C104.7,51.9 104.1,52.4 103.1,52.4 C101.6,52.4 100.2,51.3 100.2,49.3 C100.2,47.6 101.5,46.2 103.4,46.2 Z M109,47.9 C110.4,47.9 111.5,48.8 111.5,50.2 C111.5,51.5 110.4,52.4 109.1,52.4 C107.7,52.4 106.7,51.5 106.7,50.2 C106.6,48.8 107.7,47.9 109,47.9 Z M141.4,47.9 C142.6,47.9 143.3,48.6 143.3,49.7 L143.3,52.4 L142,52.4 L142,51.8 C142,51.8 141.7,52.4 140.8,52.4 C140,52.4 139.3,51.9 139.3,51 C139.395833,49.85 141.052951,49.7102431 141.806973,49.7005932 L141.9,49.7 C142,49.3 141.7,49.1 141.3,49.1 C140.8,49.1 140.1,49.5 140.1,49.5 L139.6,48.5 C139.6,48.5 140.3,47.9 141.4,47.9 Z M146,46.9 L146,48.1 L146.9,48.1 L146.9,49.2 L146,49.2 L146,50.5 C146,51 146.5,51.1 146.8,51.1 L147,51.1 L147,52.4 L146.6,52.4 C145.9,52.4 144.6,52.2 144.6,50.8 L144.6,49.2 L144,49.2 L144,48.1 L144.6,48.1 L144.6,46.9 L146,46.9 Z M149.3,51 L149.3,52.4 L147.9,52.4 L147.9,51 L149.3,51 Z M134.4,47.9 L134.4,49.3 L134.1,49.3 C133.8,49.3 133.2,49.4 133,50.1 C132.92,50.26 132.904,50.42 132.9008,50.58 L132.9,52.3 L131.5,52.3 L131.5,48 L132.8,48 L132.8,49 C133,48.4 133.5,47.9 134.2,47.9 L134.4,47.9 Z M142,50.4 L141.9,50.4 C141.4,50.4 140.9,50.5 140.9,50.9 C140.9,51.2 141,51.3 141.3,51.3 C141.7,51.3 142,50.9 142,50.5 L142,50.4 Z M109,49.1 C108.5,49.1 108,49.5 108,50.2 C108.1,50.8 108.5,51.2 109,51.2 C109.5,51.2 110,50.8 110,50.2 C110,49.5 109.5,49.1 109,49.1 Z M116.4,49.1 C116,49.1 115.6,49.4 115.6,50.2 C115.6,50.7 115.8,51.2 116.4,51.2 C116.9,51.2 117.2,50.8 117.2,50.2 C117.2,49.6 116.9,49.1 116.4,49.1 Z M128.1,49.2 C127.6,49.2 127.3,49.6 127.3,50.1 C127.3,50.6 127.6,51.1 128.1,51.1 C128.5,51 128.9,50.8 128.9,50.1 C128.9,49.3 128.5,49.2 128.1,49.2 Z M24.4,3.4 L24.2246489,3.42383472 C23.2958478,3.58373702 22.4764706,4.26470588 22.1,5.3 L22.1,5.3 L5.8,50.1 C8,48 10.4,46.1 13.1,44.5 C18.5,41.4 24.7,39.7 31,39.7 C34,39.7 36.9,40.1 39.7,40.9 L39.7,40.9 L26.7,5.3 C26.3,4.2 25.4,3.4 24.4,3.4 L24.4,3.4 Z M121.4,49 C121,49 120.8,49.3 120.7,49.6 L122,49.6 C122,49.3 121.8,49 121.4,49 Z M136.9,49 C136.5,49 136.3,49.3 136.2,49.6 L137.5,49.6 C137.5,49.3 137.3,49 136.9,49 Z M136.9,29.4 L136.9,31.9 L130.1,31.9 L130.1,34.5 L136.1,34.5 L136.1,37 L130.1,37 L130.1,39.7 L137,39.7 L137,42.2 L127.4,42.2 L127.4,29.4 L136.9,29.4 Z M160.8,29.4 L160.8,31.9 L154,31.9 L154,34.5 L160,34.5 L160,37 L154,37 L154,39.7 L160.9,39.7 L160.9,42.2 L151.3,42.2 L151.3,29.4 L160.8,29.4 Z M117.3,29.4 L117.3,34.4 L122.4,34.4 L122.4,29.4 L125.2,29.4 L125.2,42 L122.4,42 L122.4,37 L117.3,37 L117.3,42.1 L114.5,42.1 L114.5,29.4 L117.3,29.4 Z M84.5,29.4 L87.5,34.5 L90.6,29.4 L96.7,29.4 L99.3,38 L102.1,29.4 L104.5,29.4 L107.3,38 L109.9,29.4 L112.8,29.4 L108.5,42.1 L106.1,42.1 L103.2,33.8 L100.3,42.1 L98,42.1 L93.734,29.501 L88.9,37 L88.9,42 L86.1,42 L86.1,37.1 L81.2,29.4 L84.5,29.4 Z M62.9,29.4 L68.3,42.1 L65.4,42.1 L64.2,39.3 L58.9,39.3 L57.7,42.1 L54.9,42.1 L60.3,29.4 L62.9,29.4 Z M71.7,29.4 L77.6,37.2 L77.6,29.4 L80.3,29.4 L80.3,42 L77.9,42 L71.8,34 L71.8,42 L69.1,42 L69.1,29.4 L71.7,29.4 Z M144.8,29.4 C146.4,29.4 147.6,29.8 148.5,30.7 C149.15,31.35 149.541327,32.2586735 149.593914,33.3459548 L149.6,33.6 C149.6,34.6 149.4,35.5 148.9,36.1 C148.4,36.7 147.7,37.2 146.9,37.5 L150,42 L146.7,42 L144,38 L141.9,38 L141.9,42 L139,42 L139,29.4 L144.8,29.4 Z M61.5,32.7 L59.8,36.8 L63.2,36.8 L61.5,32.7 Z M144.6,31.9 L141.8,31.9 L141.8,35.5 L144.6,35.5 L144.6,35.6 C145.3,35.6 145.8,35.4 146.2,35.1 C146.555556,34.8333333 146.753086,34.408642 146.792593,33.9663923 L146.8,33.8 C146.8,33.2 146.6,32.7 146.2,32.4 C145.8,32.1 145.3,31.9 144.6,31.9 Z M89.2,14.3 C90.1,14.3 91,14.5 91.7,14.8 C92.5,15.1 93.1,15.6 93.6,16.2 C94.1,16.8 94.6,17.5 94.9,18.2 C95.1625,18.9 95.271875,19.6 95.2951172,20.3 L95.3,20.6 C95.3,21.4 95.2,22.3 94.9,23 C94.6,23.8 94.2,24.4 93.6,25 C93.1,25.6 92.4,26.1 91.6,26.4 C91,26.7 90.1,26.9 89.2,26.9 C88.3,26.9 87.4,26.7 86.7,26.4 C85.9,26.1 85.3,25.6 84.7,25 C84.2,24.4 83.7,23.7 83.4,23 C83.1375,22.3 83.028125,21.6 83.0048828,20.9 L83,20.6 C83,19.8 83.1,18.9 83.4,18.2 C83.7,17.4 84.1,16.8 84.7,16.2 C85.2,15.6 85.9,15.1 86.7,14.8 C87.5,14.5 88.3,14.3 89.2,14.3 Z M142.3,14.3 C143.2,14.3 144.1,14.5 144.8,14.8 C145.6,15.1 146.2,15.6 146.7,16.2 C147.2,16.8 147.7,17.5 148,18.2 C148.2625,18.9 148.371875,19.6 148.395117,20.3 L148.4,20.6 C148.4,21.4 148.3,22.3 148,23 C147.7,23.8 147.3,24.4 146.7,25 C146.2,25.6 145.5,26.1 144.7,26.4 C144.1,26.7 143.2,26.9 142.3,26.9 C141.4,26.9 140.5,26.7 139.8,26.4 C139,26.1 138.4,25.6 137.8,25 C137.3,24.4 136.8,23.7 136.5,23 C136.2375,22.3 136.128125,21.6 136.104883,20.9 L136.1,20.6 C136.1,19.8 136.2,18.9 136.5,18.2 C136.8,17.4 137.2,16.8 137.8,16.2 C138.4,15.6 139,15.1 139.8,14.8 C140.6,14.5 141.4,14.3 142.3,14.3 Z M62.9,14.4 L62.9,21.5 C62.9,23 63.3,24.1 64,24.9 C64.7,25.7 65.8,26.1 67.1,26.1 C68.4,26.1 69.4,25.7 70.1,25 C70.8,24.2 71.2,23.1 71.2,21.6 L71.2,14.4 L72.1,14.4 L72.1,21.5 C72.1,22.4 72,23.2 71.7,23.8 C71.5,24.5 71.1,25 70.7,25.5 C70.3,26 69.7,26.3 69.1,26.5 C68.5,26.8 67.8,26.9 67,26.9 C66.3,26.9 65.6,26.8 65,26.6 C64.4,26.4 63.8,26 63.4,25.6 C62.9,25.1 62.6,24.6 62.4,23.9 C62.2,23.2 62,22.5 62,21.6 L62,14.4 L62.9,14.4 Z M151.1,14.4 L159.6,25.1 L159.6,14.4 L160.5,14.4 L160.5,26.7 L159.8,26.7 L151.1,15.7 L151.1,26.7 L150.2,26.7 L150.2,14.4 L151.1,14.4 Z M131,14.4 L131,15.2 L126.7,15.2 L126.7,26.7 L125.8,26.7 L125.8,15.2 L121.5,15.2 L121.5,14.4 L131,14.4 Z M97.9,14.4 L102.9,21.7 L107.9,14.4 L108.8,14.4 L108.8,26.7 L107.9,26.7 L107.9,16 L103,23.1 L102.9,23.1 L97.9,16 L97.9,26.7 L97,26.7 L97,14.4 L97.9,14.4 Z M82.7,14.4 L82.7,15.2 L78.4,15.2 L78.4,26.7 L77.5,26.7 L77.5,15.2 L73.2,15.2 L73.2,14.4 L82.7,14.4 Z M133.7,14.4 L133.7,26.7 L132.8,26.7 L132.8,14.4 L133.7,14.4 Z M117.1,14.3 L122.8,26.7 L121.8,26.7 L120.2,23.2 L113,23.2 L111.4,26.7 L110.4,26.7 L116.2,14.3 L117.1,14.3 Z M56,14.3 L61.7,26.7 L60.7,26.7 L59.1,23.2 L51.8,23.2 L50.2,26.7 L49.2,26.7 L55.1,14.3 L56,14.3 Z M142.3,15 C141.5,15 140.8,15.1 140.2,15.4 C139.6,15.7 139,16.1 138.5,16.6 C138,17.1 137.7,17.7 137.4,18.4 C137.1375,19.0125 137.028125,19.625 137.004883,20.2375 L137,20.5 C137,21.3 137.1,22 137.4,22.7 C137.7,23.4 138,24 138.5,24.5 C139,25 139.5,25.4 140.2,25.7 C140.9,25.9 141.6,26.1 142.3,26.1 C143.1,26.1 143.8,26 144.4,25.7 C145,25.4 145.6,25 146.1,24.5 C146.6,24 146.9,23.4 147.2,22.7 C147.4625,22.0875 147.571875,21.475 147.595117,20.8625 L147.6,20.6 C147.6,19.8 147.5,19.1 147.2,18.4 C146.9,17.7 146.6,17.1 146.1,16.6 C145.6,16.1 145.1,15.7 144.4,15.4 C143.8,15.1 143,15 142.3,15 Z M89.2,15 C88.4,15 87.7,15.1 87.1,15.4 C86.5,15.7 85.9,16.1 85.4,16.6 C84.9,17.1 84.6,17.7 84.3,18.4 C84.1285714,18.9142857 84.0306122,19.5020408 84.0061224,20.1632653 L84,20.5 C84,21.3 84.1,22 84.4,22.7 C84.7,23.4 85,24 85.5,24.5 C86,25 86.5,25.4 87.2,25.7 C87.8,25.9 88.5,26.1 89.2,26.1 C90,26.1 90.7,26 91.3,25.7 C91.9,25.4 92.5,25 93,24.5 C93.5,24 93.8,23.4 94.1,22.7 C94.3625,22.0875 94.471875,21.475 94.4951172,20.8625 L94.5,20.6 C94.5,19.8 94.4,19.1 94.1,18.4 C93.8,17.7 93.5,17.1 93,16.6 C92.5,16.1 92,15.7 91.3,15.4 C90.7,15.1 89.9,15 89.2,15 Z M116.7,15.3 L113.4,22.4 L119.9,22.4 L116.7,15.3 Z M55.5,15.3 L52.2,22.4 L58.7,22.4 L55.5,15.3 Z M166.5,9.2 C168.4,9.2 170,10.8 170,12.7 C170,14.6 168.5,16.2 166.5,16.2 C164.6,16.2 163.1,14.6 163.1,12.7 C163.1,10.8 164.6,9.2 166.5,9.2 Z M166.5,9.8 C165,9.8 163.8,11.1 163.8,12.7 C163.8,14.3 165,15.6 166.5,15.6 C168.1,15.6 169.3,14.3 169.3,12.7 C169.3,11.1 168.1,9.8 166.5,9.8 Z M166.8,10.9 C167.5,10.9 168,11.3 168,12 C168,12.55 167.663889,12.8479167 167.376794,12.9707755 L167.3,13 C167.3,13 167.3,13 167.4,13.2 L168.1,14.5 L167.3,14.5 L166.6,13.1 L166,13.1 L166,14.5 L165.3,14.5 L165.3,10.9 L166.8,10.9 Z M166.6,11.4 L166,11.4 L166,12.6 L166.6,12.6 C167,12.6 167.2,12.4 167.2,12 C167.2,11.6 167,11.4 166.6,11.4 Z" id="Combined-Shape"></path>
        </g>
    </g>
</svg>