<?xml version="1.0" encoding="UTF-8"?>
<svg width="228px" height="136px" viewBox="0 0 228 136" version="1.1" xmlns="http://www.w3.org/2000/svg" xmlns:xlink="http://www.w3.org/1999/xlink">
    <!-- Generator: Sketch 61.2 (89653) - https://sketch.com -->
    <title>aws</title>
    <desc>Created with Sketch.</desc>
    <g id="Page-1" stroke="none" stroke-width="1" fill="none" fill-rule="evenodd">
        <g id="aws" fill="#FFFFFF" fill-rule="nonzero">
            <path d="M4.139,89.881 C36.072,108.462 75.562,119.653 116.348,119.653 C143.861,119.653 174.106,113.943 201.936,102.139 C206.132,100.359 209.651,104.904 205.544,107.939 C180.719,126.259 144.731,136 113.74,136 C70.306,136 31.193,119.945 1.596,93.221 C-0.728,91.121 1.345,88.256 4.139,89.881 Z M226.468,88.059 C229.194,91.429 225.752,114.773 212.436,125.913 C210.387,127.625 208.439,126.712 209.347,124.45 C212.344,116.966 219.052,100.213 215.874,96.145 C212.698,92.08 194.887,94.219 186.883,95.178 C184.459,95.468 184.083,93.35 186.268,91.816 C200.479,81.836 223.762,84.717 226.468,88.059 Z M193.79,0.419 C195.46,0.419 197.155,0.531 198.87,0.749 C200.586,0.969 202.212,1.256 203.752,1.607 C205.29,1.959 206.721,2.355 208.04,2.794 C209.36,3.235 210.415,3.675 211.207,4.113 C212.263,4.73 213.009,5.346 213.45,5.961 C213.889,6.577 214.11,7.412 214.11,8.468 L214.11,12.03 C214.11,13.613 213.537,14.405 212.395,14.405 C211.778,14.405 210.811,14.098 209.492,13.482 C205.181,11.548 200.342,10.579 194.978,10.579 C190.667,10.579 187.325,11.284 184.95,12.69 C182.575,14.098 181.388,16.341 181.388,19.419 C181.388,21.53 182.134,23.312 183.63,24.763 C185.125,26.214 187.897,27.6 191.943,28.919 L202.631,32.35 C208.084,34.11 211.976,36.529 214.307,39.607 C216.637,42.687 217.804,46.204 217.804,50.162 C217.804,53.417 217.144,56.343 215.825,58.937 C214.506,61.532 212.679,63.753 210.349,65.599 C208.018,67.447 205.225,68.855 201.971,69.822 C198.716,70.789 195.153,71.273 191.283,71.273 C187.325,71.273 183.454,70.832 179.672,69.954 C175.889,69.075 172.986,68.063 170.964,66.919 C169.731,66.216 168.962,65.513 168.655,64.808 C168.346,64.105 168.193,63.402 168.193,62.697 L168.193,58.87 C168.193,57.287 168.765,56.496 169.909,56.496 C170.348,56.496 170.809,56.584 171.294,56.759 C171.776,56.937 172.415,57.2 173.207,57.551 C175.757,58.695 178.528,59.576 181.519,60.19 C184.509,60.806 187.5,61.114 190.492,61.114 C195.242,61.114 198.914,60.279 201.509,58.607 C204.102,56.937 205.401,54.562 205.401,51.482 C205.401,49.371 204.719,47.612 203.356,46.204 C201.991,44.798 199.464,43.478 195.77,42.246 L184.818,38.815 C179.277,37.056 175.252,34.506 172.745,31.162 C170.239,27.82 168.985,24.169 168.985,20.211 C168.985,17.044 169.665,14.253 171.03,11.832 C172.393,9.414 174.197,7.346 176.44,5.631 C178.682,3.916 181.299,2.619 184.29,1.738 C187.279,0.86 190.446,0.419 193.79,0.419 Z M38.492,0.419 C47.464,0.419 54.038,2.464 58.218,6.555 C62.395,10.645 64.485,16.826 64.485,25.093 L64.485,49.634 C64.485,52.451 64.769,54.693 65.343,56.363 C65.913,58.035 66.728,59.839 67.784,61.774 C68.134,62.39 68.311,62.96 68.311,63.488 C68.311,64.28 67.827,65.029 66.86,65.732 L62.11,68.898 C61.405,69.338 60.745,69.558 60.131,69.558 C59.339,69.558 58.591,69.207 57.888,68.503 C56.832,67.447 55.929,66.282 55.183,65.006 C54.435,63.732 53.665,62.258 52.874,60.586 C46.98,67.536 39.591,71.01 30.707,71.01 C24.374,71.01 19.36,69.207 15.666,65.599 C11.971,61.994 10.123,57.156 10.123,51.085 C10.123,44.666 12.41,39.498 16.985,35.582 C21.557,31.669 27.716,29.711 35.457,29.711 C38.007,29.711 40.669,29.909 43.439,30.304 C46.211,30.7 49.09,31.251 52.082,31.954 L52.082,26.412 C52.082,20.695 50.894,16.671 48.52,14.339 C46.145,12.01 42.054,10.843 36.249,10.843 C33.61,10.843 30.905,11.173 28.134,11.832 C25.363,12.492 22.658,13.35 20.019,14.405 C18.787,14.933 17.908,15.263 17.38,15.395 C16.853,15.527 16.457,15.593 16.193,15.593 C15.138,15.593 14.61,14.801 14.61,13.218 L14.61,9.523 C14.61,8.293 14.785,7.412 15.138,6.884 C15.488,6.357 16.193,5.829 17.249,5.301 C19.887,3.982 23.054,2.84 26.749,1.871 C30.443,0.904 34.356,0.419 38.492,0.419 Z M80.846,2.398 C82.252,2.398 83.241,2.642 83.815,3.124 C84.386,3.608 84.891,4.598 85.332,6.093 L97.999,55.968 L109.742,6.093 C110.092,4.598 110.576,3.608 111.193,3.124 C111.808,2.642 112.82,2.398 114.228,2.398 L120.297,2.398 C121.703,2.398 122.716,2.642 123.332,3.124 C123.946,3.608 124.431,4.598 124.783,6.093 L136.657275,56.627 L149.721,6.093 C150.16,4.598 150.665,3.608 151.238,3.124 C151.809,2.642 152.799,2.398 154.207,2.398 L161.2,2.398 C162.431,2.398 163.047,3.015 163.047,4.246 C163.047,4.598 163.002,4.994 162.915,5.433 C162.827,5.874 162.652,6.489 162.388,7.28 L144.18,65.599 C143.738,67.096 143.211,68.086 142.596,68.568 C141.98,69.053 141.013,69.294 139.693,69.294 L133.228,69.294 C131.82,69.294 130.808,69.031 130.193,68.503 C129.577,67.975 129.092,66.965 128.742,65.468 L116.998,16.912 L105.388,65.468 C105.035,66.965 104.551,67.975 103.936,68.503 C103.32,69.031 102.308,69.294 100.902,69.294 L94.436,69.294 C93.117,69.294 92.148,69.053 91.534,68.568 C90.917,68.086 90.389,67.096 89.95,65.599 L72.27,7.28 C71.828,5.786 71.61,4.773 71.61,4.246 C71.61,3.015 72.224,2.398 73.457,2.398 L80.846,2.398 Z M38.096,38.683 C33.082,38.683 29.342,39.695 26.881,41.718 C24.417,43.742 23.186,46.645 23.186,50.426 C23.186,53.945 24.11,56.607 25.957,58.409 C27.804,60.213 30.443,61.114 33.873,61.114 C36.336,61.114 38.931,60.651 41.658,59.728 C44.384,58.805 46.759,57.2 48.783,54.912 C50.015,53.506 50.872,51.9 51.356,50.096 C51.839,48.294 52.082,46.117 52.082,43.565 L52.082,40.398 C49.882,39.87 47.573,39.454 45.155,39.145 C42.735,38.838 40.382,38.683 38.096,38.683 Z" id="Combined-Shape"></path>
        </g>
    </g>
</svg>