<?xml version="1.0" encoding="UTF-8"?>
<svg width="344px" height="138px" viewBox="0 0 344 138" version="1.1" xmlns="http://www.w3.org/2000/svg" xmlns:xlink="http://www.w3.org/1999/xlink">
    <!-- Generator: Sketch 61.2 (89653) - https://sketch.com -->
    <title>ibm</title>
    <desc>Created with Sketch.</desc>
    <g id="Page-1" stroke="none" stroke-width="1" fill="none" fill-rule="evenodd">
        <g id="ibm" fill="#FFFFFF" fill-rule="nonzero">
            <path d="M0.896,0.738 L0.896,10.103 L67.506,10.103 L67.506,0.738 L0.896,0.738 Z M76.944,0.738 L76.944,10.103 L171.866,10.103 C171.866,10.103 162.171,0.738 149.329,0.738 L76.944,0.738 Z M190.488,0.738 L190.488,10.103 L247.915,10.103 L244.505,0.738 L190.488,0.738 Z M289.087,0.738 L285.676,10.103 L342.582,10.103 L342.582,0.738 L289.087,0.738 Z M0.896,18.951 L0.896,28.315 L67.506,28.315 L67.506,18.951 L0.896,18.951 Z M76.944,18.963 L76.944,28.315 L182.882,28.315 C182.882,28.315 181.645,21.107 179.486,18.963 L76.944,18.963 Z M190.488,18.963 L190.488,28.315 L254.21,28.315 L251.056,18.963 L190.488,18.963 Z M282.27,18.963 L279.115,28.315 L342.585,28.315 L342.585,18.963 L282.27,18.963 Z M20.039,37.163 L20.039,46.542 L48.886,46.542 L48.886,37.163 L20.039,37.163 Z M96.086,37.163 L96.086,46.542 L124.933,46.542 L124.933,37.163 L96.086,37.163 Z M152.992,37.163 L152.992,46.542 L181.839,46.542 C181.839,46.542 183.671,41.588 183.671,37.163 L152.992,37.163 Z M209.63,37.163 L209.63,46.542 L260.774,46.542 L257.366,37.163 L209.63,37.163 Z M275.985,37.163 L272.563,46.542 L323.961,46.542 L323.961,37.163 L275.985,37.163 Z M20.039,55.39 L20.039,64.756 L48.886,64.756 L48.886,55.39 L20.039,55.39 Z M96.086,55.39 L96.086,64.756 L169.769,64.756 C169.769,64.756 175.931,59.949 177.897,55.39 L96.086,55.39 Z M209.63,55.39 L209.63,64.756 L238.478,64.756 L238.478,59.541 L240.309,64.756 L293.151,64.756 L295.116,59.541 L295.116,64.756 L323.964,64.756 L323.964,55.39 L269.813,55.39 L266.939,63.324 L264.051,55.39 L209.63,55.39 Z M20.039,73.602 L20.039,82.97 L48.886,82.97 L48.886,73.602 L20.039,73.602 Z M96.086,73.602 L96.086,82.97 L177.897,82.97 C175.93,78.424 169.769,73.602 169.769,73.602 L96.086,73.602 Z M209.63,73.602 L209.63,82.97 L238.478,82.97 L238.478,73.602 L209.63,73.602 Z M243.718,73.602 L247.206,82.97 L286.825,82.97 L290.141,73.602 L243.718,73.602 Z M295.115,73.602 L295.115,82.97 L323.963,82.97 L323.963,73.602 L295.115,73.602 Z M20.039,91.817 L20.039,101.183 L48.886,101.183 L48.886,91.817 L20.039,91.817 Z M96.086,91.817 L96.086,101.183 L124.933,101.183 L124.933,91.817 L96.086,91.817 Z M152.992,91.817 L152.992,101.183 L183.67,101.183 C183.67,96.763 181.839,91.817 181.839,91.817 L152.992,91.817 Z M209.63,91.817 L209.63,101.183 L238.478,101.183 L238.478,91.817 L209.63,91.817 Z M250.266,91.817 L253.649,101.183 L280.212,101.183 L283.62,91.817 L250.266,91.817 Z M295.115,91.817 L295.115,101.183 L323.963,101.183 L323.963,91.817 L295.115,91.817 Z M1.417,110.03 L1.417,119.407 L68.028,119.407 L68.028,110.03 L1.417,110.03 Z M76.944,110.03 L76.944,119.407 L179.487,119.407 C181.645,117.261 182.883,110.03 182.883,110.03 L76.944,110.03 Z M191.01,110.03 L191.01,119.407 L238.478,119.407 L238.478,110.03 L191.01,110.03 Z M256.831,110.03 L260.307,119.407 L273.822,119.407 L277.085,110.03 L256.831,110.03 Z M295.115,110.03 L295.115,119.407 L343.103,119.407 L343.103,110.03 L295.115,110.03 Z M1.417,128.255 L1.417,137.621 L68.028,137.621 L68.028,128.255 L1.417,128.255 Z M76.944,128.255 L76.944,137.606 L149.329,137.606 C162.171,137.606 171.866,128.255 171.866,128.255 L76.944,128.255 Z M191.01,128.255 L191.01,137.621 L238.478,137.621 L238.478,128.255 L191.01,128.255 Z M263.421,128.255 L266.764,137.592 L267.338,137.606 L270.734,128.255 L263.421,128.255 Z M295.115,128.255 L295.115,137.621 L343.103,137.621 L343.103,128.255 L295.115,128.255 Z" id="IBM_1_"></path>
        </g>
    </g>
</svg>