<?xml version="1.0" encoding="UTF-8"?>
<svg width="131px" height="32px" viewBox="0 0 131 32" version="1.1" xmlns="http://www.w3.org/2000/svg" xmlns:xlink="http://www.w3.org/1999/xlink">
    <!-- Generator: Sketch 61.2 (89653) - https://sketch.com -->
    <title>intercom</title>
    <desc>Created with Sketch.</desc>
    <g id="Page-1" stroke="none" stroke-width="1" fill="none" fill-rule="evenodd">
        <g id="intercom" fill="#FFFFFF">
            <path d="M28.956,0 C31.165,0 32.956,1.791 32.956,4 L32.956,4 L32.956,28 C32.956,30.209 31.165,32 28.956,32 L28.956,32 L4.956,32 C2.747,32 0.956,30.209 0.956,28 L0.956,28 L0.956,4 C0.956,1.791 2.747,0 4.956,0 L4.956,0 Z M28.43,22.766 C28.048,22.319 27.373,22.267 26.927,22.651 C26.893,22.68 23.419,25.594 16.955,25.594 C10.571,25.594 7.042,22.701 6.98,22.649 C6.533,22.267 5.861,22.32 5.479,22.766 C5.095,23.214 5.148,23.887 5.595,24.27 C5.761,24.412 9.711,27.727 16.956,27.727 C24.201,27.727 28.153,24.412 28.317,24.27 L28.317,24.27 C28.764,23.887 28.816,23.214 28.43,22.766 Z M16.956,4.26 C16.367,4.26 15.889,4.738 15.889,5.327 L15.889,5.327 L15.889,20.794 C15.889,21.383 16.367,21.861 16.956,21.861 C17.545,21.861 18.023,21.383 18.023,20.794 L18.023,20.794 L18.023,5.327 C18.023,4.738 17.545,4.26 16.956,4.26 Z M110.151,10.172 C113.526,10.172 114.986,12.401 114.986,15.98 C114.986,19.606 113.51,21.788 110.151,21.788 C106.729,21.788 105.3,19.606 105.3,15.98 C105.3,12.464 106.744,10.172 110.151,10.172 Z M98.817,10.172 C100.057,10.172 101.015,10.455 101.737,11.067 C102.365,11.569 102.82,12.276 103.087,13.265 C103.228,13.783 102.867,14.301 102.271,14.411 C101.706,14.505 101.251,14.144 101.078,13.626 C100.89,13.124 100.638,12.763 100.34,12.511 C99.932,12.15 99.43,11.993 98.77,11.993 C98.064,11.993 97.451,12.197 96.996,12.652 C96.337,13.311 96.054,14.489 96.054,15.98 C96.054,17.456 96.321,18.633 97.012,19.292 C97.467,19.747 98.064,19.951 98.754,19.951 C99.476,19.951 100.025,19.763 100.481,19.339 C100.716,19.119 100.921,18.837 101.062,18.507 C101.266,18.02 101.69,17.659 102.239,17.785 C102.788,17.911 103.134,18.444 102.961,18.962 C102.678,19.825 102.192,20.516 101.533,20.987 C100.811,21.505 99.916,21.772 98.786,21.772 C97.342,21.772 96.431,21.348 95.74,20.752 L95.74,20.752 C94.563,19.7 94.029,18.052 94.029,15.98 C94.029,13.892 94.547,12.26 95.709,11.224 C96.431,10.596 97.404,10.172 98.817,10.172 Z M88.065,10.345 C90.624,10.345 91.691,12.009 91.691,13.704 C91.691,15.321 90.749,16.514 89.132,16.828 L91.094,20.312 C91.361,20.767 91.188,21.348 90.639,21.631 C90.105,21.898 89.524,21.694 89.258,21.239 L87.076,17.205 L85.004,17.205 L85.02,20.627 C85.02,21.161 84.612,21.6 84.031,21.6 C83.466,21.6 83.058,21.16 83.058,20.627 L83.058,11.585 C83.058,10.82 83.4579023,10.3722852 84.193437,10.3448523 L88.065,10.345 Z M51.035,10.344 C52.024,10.344 52.432,10.878 52.825,11.663 L54.771,15.478 L56.435,19.183 L56.388,15.635 L56.372,11.35 C56.372,10.816 56.78,10.377 57.361,10.377 C57.925,10.376 58.333,10.815 58.333,11.349 L58.333,19.826 C58.333,20.972 57.721,21.616 56.748,21.616 L56.67,21.616 C55.744,21.616 55.304,21.082 54.912,20.297 L52.934,16.451 L51.176,12.48 L51.223,16.326 L51.239,20.611 C51.239,21.145 50.831,21.584 50.25,21.584 C49.685,21.584 49.277,21.144 49.277,20.611 L49.277,12.134 C49.277,11.082 49.889,10.344 50.957,10.344 L51.035,10.344 Z M44.677,10.376 C45.242,10.376 45.65,10.816 45.65,11.349 L45.65,20.626 C45.65,21.16 45.242,21.599 44.661,21.599 C44.096,21.599 43.688,21.159 43.688,20.626 L43.688,11.349 C43.688,10.815 44.096,10.376 44.677,10.376 Z M128.485,10.377 C129.584,10.377 130.196,11.036 130.196,12.214 L130.212,20.611 C130.212,21.145 129.804,21.584 129.223,21.584 C128.658,21.584 128.25,21.144 128.25,20.611 L128.25,16.404 L128.297,12.307 L126.931,16.467 L125.55,20.564 C125.315,21.286 124.828,21.569 124.216,21.569 C123.572,21.569 123.101,21.271 122.85,20.549 L121.437,16.468 L120.134,12.371 L120.181,16.405 L120.181,20.612 C120.181,21.146 119.773,21.585 119.192,21.585 C118.627,21.585 118.219,21.145 118.219,20.612 L118.219,12.214 C118.219,11.052 118.847,10.377 119.946,10.377 C120.982,10.377 121.563,10.926 121.892,11.931 L123.336,16.216 L124.215,19.136 L125.11,16.216 L126.554,11.931 C126.884,10.926 127.449,10.377 128.485,10.377 Z M68.631,10.377 C69.133,10.377 69.541,10.754 69.541,11.303 C69.541,11.837 69.133,12.213 68.631,12.213 L66.198,12.213 L66.198,20.611 C66.198,21.145 65.79,21.584 65.209,21.584 C64.644,21.584 64.236,21.144 64.236,20.611 L64.236,12.213 L61.803,12.213 C61.301,12.213 60.893,11.836 60.893,11.287 C60.893,10.753 61.301,10.377 61.803,10.377 L68.631,10.377 Z M73.387,10.345 L79.038,10.345 C79.54,10.345 79.948,10.737 79.948,11.271 C79.948,11.805 79.54,12.181 79.038,12.181 L74.046,12.181 L74.046,14.881 L78.457,14.881 C78.944,14.881 79.336,15.242 79.336,15.76 C79.336,16.278 78.944,16.639 78.457,16.639 L74.046,16.639 L74.046,19.747 L79.038,19.747 C79.54,19.747 79.948,20.139 79.948,20.673 C79.948,21.207 79.54,21.5830016 79.038,21.5830016 L73.34,21.5830016 C72.575,21.5839376 72.1272852,21.1840938 72.0998523,20.4485627 L72.1,11.585 C72.1,10.769 72.555,10.314 73.387,10.345 Z M22.289,4.8 C21.7,4.8 21.222,5.278 21.222,5.867 L21.222,5.867 L21.222,20.118 C21.222,20.707 21.7,21.185 22.289,21.185 C22.878,21.185 23.356,20.707 23.356,20.118 L23.356,20.118 L23.356,5.867 C23.356,5.278 22.878,4.8 22.289,4.8 Z M11.623,4.8 C11.034,4.8 10.556,5.278 10.556,5.867 L10.556,5.867 L10.556,20.118 C10.556,20.707 11.034,21.185 11.623,21.185 C12.212,21.185 12.689,20.707 12.689,20.118 L12.689,20.118 L12.689,5.867 C12.689,5.278 12.212,4.8 11.623,4.8 Z M110.135,12.009 C108.298,12.009 107.325,13.312 107.325,15.98 C107.325,18.649 108.267,19.951 110.135,19.951 C111.987,19.951 112.976,18.648 112.976,15.98 C112.976,13.311 112.003,12.009 110.135,12.009 Z M6.289,6.933 C5.7,6.933 5.223,7.411 5.223,8 L5.223,8 L5.223,17.594 C5.223,18.183 5.7,18.661 6.289,18.661 C6.878,18.661 7.356,18.183 7.356,17.594 L7.356,17.594 L7.356,8 C7.356,7.411 6.878,6.933 6.289,6.933 Z M27.622,6.933 C27.033,6.933 26.556,7.411 26.556,8 L26.556,8 L26.556,17.594 C26.556,18.183 27.033,18.661 27.622,18.661 C28.211,18.661 28.689,18.183 28.689,17.594 L28.689,17.594 L28.689,8 C28.689,7.411 28.211,6.933 27.622,6.933 Z M88.095,12.18 L85.003,12.18 L85.003,15.43 L88.111,15.43 C89.163,15.43 89.712,14.755 89.712,13.797 C89.712,12.839 89.131,12.18 88.095,12.18 Z" id="Combined-Shape"></path>
        </g>
    </g>
</svg>