<?xml version="1.0" encoding="UTF-8"?>
<svg width="243px" height="120px" viewBox="0 0 243 120" version="1.1" xmlns="http://www.w3.org/2000/svg" xmlns:xlink="http://www.w3.org/1999/xlink">
    <!-- Generator: Sketch 61.2 (89653) - https://sketch.com -->
    <title>kiwi</title>
    <desc>Created with Sketch.</desc>
    <g id="Page-1" stroke="none" stroke-width="1" fill="none" fill-rule="evenodd">
        <g id="kiwi" fill="#FFFFFF" fill-rule="nonzero">
            <path d="M71.386,-0.00046779159 C83.5515142,-0.0410192635 95.5747627,2.61608996 106.59,7.78 C116.693257,12.4840809 125.482176,19.6045133 132.18,28.512 C133.151512,29.8347243 133.29692,31.5912879 132.556131,33.055756 C131.815342,34.5202241 130.314168,35.4438783 128.673,35.445 C127.285348,35.4426831 125.981075,34.7821979 125.158,33.665 C119.313441,25.9154949 111.648656,19.726239 102.842,15.645 C92.9984259,11.0361209 82.2550295,8.66824301 71.386,8.712 C59.0331643,8.62602081 46.8642835,11.7062838 36.04,17.659 C25.971,23.3 18.179,31.14 13.505,40.318 C7.11473117,52.6612962 7.11473117,67.3387038 13.505,79.682 C16.7666959,85.9704659 21.2838145,91.5229276 26.777,95.996 C38.646,105.858 54.482,111.288 71.368,111.288 C82.2189062,111.334156 92.9454963,108.977789 102.778,104.388 C111.568849,100.323447 119.226583,94.1615466 125.078,86.444 C125.901616,85.3324286 127.202551,84.6760277 128.586,84.674 C129.515811,84.6724752 130.421311,84.9709187 131.168,85.525 L131.169,85.525 C133.102313,86.9555657 133.513364,89.6808489 132.088,91.618 C125.380766,100.487089 116.599222,107.574408 106.514,112.258 C95.5186728,117.396997 83.5229208,120.040789 71.386,120 C57.5406119,120.083167 43.9046605,116.618751 31.778,109.937 C20.212,103.453 11.208,94.357 5.742,83.637 C-1.91448743,68.8093854 -1.91448743,51.1916146 5.742,36.364 C9.53950454,29.0191946 14.8025296,22.5309439 21.206,17.3 C34.651,6.149 52.472,-0.00046779159 71.386,-0.00046779159 Z M69.6973467,46.1529656 L69.885,46.162 C71.019387,46.1131374 72.0185655,46.9021864 72.234,48.017 L72.234,48.017 L77.669,64.641 L83.849,47.893 C84.1656033,46.8605022 85.1190512,46.1555998 86.199,46.1555998 C87.2789488,46.1555998 88.2323967,46.8605022 88.549,47.893 L88.549,47.893 L94.7906344,64.6400749 L100.228,48.018 C100.433968,46.9563523 101.35013,46.1903561 102.416922,46.1617114 L102.578,46.163 C103.267157,46.1032525 103.949389,46.338103 104.455743,46.8093915 C104.962097,47.28068 105.245221,47.9443333 105.235267,48.636 C105.211684,49.0173532 105.128325,49.3926369 104.988,49.748 L104.987634,49.7460749 L104.987,49.743 L97.387,72.3 C97.08409,73.3619816 96.0737777,74.0625875 94.973,73.974 C93.8479426,74.0369571 92.825991,73.3216323 92.5,72.243 L92.5,72.243 L86.2,55.124 L79.958,72.242 C79.6280882,73.3173437 78.6093318,74.0307205 77.486,73.973 C76.3794838,74.0921801 75.3530341,73.3816266 75.075,72.304 L75.075,72.304 L67.475,49.747 C67.3344339,49.3917109 67.2510664,49.0163884 67.2277325,48.635 C67.2177792,47.9433333 67.5009031,47.27968 68.0072571,46.8083915 C68.5136112,46.337103 69.1958429,46.1022525 69.885,46.162 Z M58.527,46.163 C60.1313872,46.163 61.432,47.4636128 61.432,49.068 L61.432,49.068 L61.432,71.068 C61.432,72.6723872 60.1313872,73.973 58.527,73.973 C56.9226128,73.973 55.622,72.6723872 55.622,71.068 L55.622,71.068 L55.622,49.068 C55.622,47.4636128 56.9226128,46.163 58.527,46.163 Z M179.067,49.669 C179.583218,50.1360215 179.882968,50.7959791 179.895,51.492 C179.91528,52.1579712 179.662339,52.803269 179.194905,53.2780684 C178.727471,53.7528679 178.086207,54.015866 177.42,54.006 C176.794292,53.9931449 176.188162,53.7855088 175.686,53.412 C174.227258,52.1271371 172.371344,51.389224 170.435352,51.3177254 L170.111634,51.3110749 L169.852575,51.315551 C165.191181,51.4431679 161.959,54.9985636 161.959,60.051 C161.959,65.197 165.313,68.791 170.113,68.791 C172.146652,68.7907197 174.111553,68.0547698 175.645,66.719 C176.157444,66.3307548 176.778349,66.1122492 177.421,66.094 C178.087386,66.084123 178.728811,66.3472568 179.196276,66.8222769 C179.663741,67.2972969 179.916559,67.9428581 179.896,68.609 C179.880689,69.3113865 179.575141,69.9760604 179.052,70.445 C176.63972,72.7181028 173.426386,73.9449863 170.113,73.858 C162.101,73.858 156.501,68.18 156.501,60.05 C156.501,51.92 162.098,46.243 170.113,46.243 C173.432896,46.1582546 176.651601,47.3898031 179.067,49.669 Z M44.211,46.83 C45.3453929,45.6958833 47.1843833,45.6961071 48.3185,46.8305 C49.4526167,47.9648929 49.4523929,49.8038833 48.318,50.938 L48.318,50.938 L39.324,59.877 L48.318,68.816 C49.4521167,69.9501167 49.4521167,71.7888833 48.318,72.923 C47.1838833,74.0571167 45.3451167,74.0571167 44.211,72.923 L44.211,72.923 L33.268,61.981 C32.1267952,60.8104534 32.1267952,58.9435466 33.268,57.773 L33.268,57.773 Z M28.1295,45.9555 C29.7336111,45.9555 31.034,47.2558889 31.034,48.86 L31.034,48.86 L31.034,70.86 C31.034,72.464111 29.733611,73.7644999 28.1295,73.7644999 C26.525389,73.7644999 25.225,72.464111 25.225,70.86 L25.225,70.86 L25.225,48.86 C25.225,47.2558889 26.5253889,45.9555 28.1295,45.9555 Z M206.952381,50.2218467 C209.537801,52.8295527 210.944214,56.3812124 210.845,60.052 C210.845,67.6122259 204.716226,73.741 197.156,73.741 C189.595774,73.741 183.467,67.6122259 183.467,60.052 C183.367786,56.3812124 184.774199,52.8295527 187.359619,50.2218467 C189.945038,47.6141407 193.484496,46.1772957 197.156,46.245 C200.827504,46.1772957 204.366962,47.6141407 206.952381,50.2218467 Z M242.279483,47.1145171 C242.775167,47.6102016 243.035204,48.2942083 242.994,48.994 L242.994,71.149 C242.994,72.5700287 241.842029,73.722 240.421,73.722 C238.999971,73.722 237.848,72.5700287 237.848,71.149 L237.848,59.34 L231.825,72.265 C231.432006,73.1513182 230.547422,73.7170273 229.578,73.702 C228.605256,73.7463069 227.708771,73.1771609 227.335,72.278 L221.229,59.338 L221.229,71.11 C221.229,72.5310287 220.077029,73.683 218.656,73.683 C217.234971,73.683 216.082843,72.5310287 216.082843,71.11 L216.082843,48.953 C216.075423,48.2736079 216.341966,47.619831 216.822398,47.1393984 C217.302831,46.6589658 217.956608,46.3924234 218.636,46.4 C219.671169,46.3932225 220.610156,47.0058274 221.021,47.956 L229.501,65.551 L229.575,65.707 L238.035,47.992 C238.440554,47.0415035 239.366756,46.4180305 240.4,46.4 C241.099792,46.3587959 241.783798,46.6188326 242.279483,47.1145171 Z M197.156,51.177 C193.058,51.177 188.908,54.225 188.908,60.052 C188.908,64.462 191.741,68.928 197.156,68.928 C201.257,68.928 205.408,65.879 205.408,60.052 C205.408,55.642 202.573,51.177 197.156,51.177 Z M138.136,56.611 C139.409039,56.611 140.629938,57.1167128 141.530113,58.0168875 C142.430287,58.9170621 142.936,60.1379608 142.936,61.411 C142.936,64.0619668 140.786967,66.211 138.136,66.211 C135.485033,66.211 133.336,64.0619668 133.336,61.411 C133.336,58.7600332 135.485033,56.611 138.136,56.611 Z" id="Combined-Shape"></path>
        </g>
    </g>
</svg>