<?xml version="1.0" encoding="UTF-8"?>
<svg width="579px" height="186px" viewBox="0 0 579 186" version="1.1" xmlns="http://www.w3.org/2000/svg" xmlns:xlink="http://www.w3.org/1999/xlink">
    <!-- Generator: Sketch 61.2 (89653) - https://sketch.com -->
    <title>mozilla</title>
    <desc>Created with Sketch.</desc>
    <g id="Page-1" stroke="none" stroke-width="1" fill="none" fill-rule="evenodd">
        <g id="mozilla" fill="#FFFFFF" fill-rule="nonzero">
            <path d="M578.55,0 L578.55,185.54 L0,185.54 L0,0 L578.55,0 Z M213.59,61.94 C186.15,61.94 172.59,80.42 172.59,102.8 C172.59,127.21 188.87,141.62 212.43,141.62 L212.43,141.62 L212.43,141.63 C236.84,141.63 254.47,126.2 254.450017,101.78 C254.450017,80.42 241.03,61.94 213.59,61.94 Z M520.65,61.9 C508.1,61.9 501.32,63.47 487.93,68.9 L487.93,68.9 L484.54,88.73 L502,90.6 L504.83,79.75 C508.39,77.89 511.95,77.55 516.53,77.55 C528.5386,77.55 529.058811,86.319188 529.079216,93.9641887 L529.08,97.21 C524.915011,96.7210123 520.72344,96.4938992 516.53,96.53 C499.07,96.53 480.93,100.93 480.93,119.75 C480.93,135.68 493.49,141.62 504.49,141.62 C516.86,141.62 524.66,134.16 529.07,126.36 C530.09,135.68 535.68,141.62 545.85,141.62 L545.85,141.62 L545.88,141.63 C550.694644,141.569017 555.421562,140.333221 559.65,138.03 L559.65,138.03 L559.48,126.5 C558.436332,126.822049 557.352106,126.993774 556.26,127.01 C552.69,127.01 551,125.48 551,121.07 L551,121.07 L551,87.84 C551,70.38 537.1,61.9 520.65,61.9 Z M127.32,61.95 C115.28,61.95 106.64,68.23 102.4,78.4 C98.67,67.21 88.48,61.95 77.48,61.95 C66.81,61.95 58.84,66.87 54.26,75 L54.26,75 L54.26,63.48 L21.39,63.48 L21.39,80.09 L32.39,80.09 L32.39,123.34 L22.22,123.34 L22.22,139.95 L68.84,139.95 L68.84,123.34 L54.3,123.34 L54.3,96.7 C54.3,86.02 58.54,78.56 69.05,78.56 C77.7,78.56 82.1,83.65 82.1,96.87 L82.1,96.87 L82.1,139.95 L114.1,139.95 L114.1,123.34 L103.98,123.34 L103.98,96.7 C103.98,86.02 108.22,78.56 118.73,78.56 C127.37,78.56 131.78,83.65 131.78,96.87 L131.78,96.87 L131.78,139.93 L163.78,139.93 L163.77,123.34 L153.6,123.34 L153.6,88.4 C153.6,70.26 141.05,61.95 127.32,61.95 Z M334,63.47 L266.8,63.47 L264.09,90.26 L279.86,91.95 L283.25,80.08 L307.15,80.08 L265.15,128.4 L267.35,139.93 L334.15,139.93 L338.85,113.16 L321.56,111.47 L318,123.34 L293.29,123.34 L335.69,75 L334,63.47 Z M375.51,112.47 L352.62,112.47 L352.62,139.93 L375.51,139.93 L375.51,112.47 Z M442.13,23.34 L420.6,23.34 L387.51,139.93 L409.07,139.93 L442.13,23.34 Z M486.53,23.34 L465,23.34 L431.93,139.93 L453.49,139.93 L486.53,23.34 Z M518.11,106.719966 C521.795174,106.80222 525.470412,107.136333 529.11,107.72 C528.61,120.43 520.3,126.03 512.5,126.03 C505.87,126.03 503.5,122.13 503.5,117.21 C503.5,108.91 510.28,106.71 518.11,106.719966 Z M213.269,78.729 L213.579879,78.7320865 C223.785173,78.869848 231.9203,85.8343 231.95,101.11 C231.95,115.69 224.49,124.84 213.13,124.84 C201.23,124.84 195.13,114.67 195.13,101.45 C195.13,87.03 202.08,78.73 213.27,78.73 L213.269,78.729 Z M375.51,63.48 L352.62,63.48 L352.62,90.93 L375.51,90.93 L375.51,63.48 Z" id="Combined-Shape"></path>
        </g>
    </g>
</svg>