<?xml version="1.0" encoding="UTF-8"?>
<svg width="448px" height="128px" viewBox="0 0 448 128" version="1.1" xmlns="http://www.w3.org/2000/svg" xmlns:xlink="http://www.w3.org/1999/xlink">
    <!-- Generator: Sketch 61.2 (89653) - https://sketch.com -->
    <title>shopify</title>
    <desc>Created with Sketch.</desc>
    <g id="Page-1" stroke="none" stroke-width="1" fill="none" fill-rule="evenodd">
        <g id="shopify" fill="#FFFFFF" fill-rule="nonzero">
            <path d="M413.726,49.812 C413.726,49.812 417.093624,81.8054043 417.443333,86.5079143 L417.453,86.642 L417.672,86.642 C421.83308,73.8971 430.996884,50.760672 431.361771,49.8403128 L431.373,49.812 L447.157,49.812 L428.633,89.491 C422.056,103.083 415.699,113.058 408.793,119.525 C403.542333,124.454956 397.34709,126.974711 394.205426,127.699366 L393.996,127.746 L389.831,114.921 C392.352,114.044 395.531,112.729 398.38,110.646 C401.888,108.235 404.847,104.947 406.601,101.549 C407.006231,100.840077 407.130278,100.224882 406.974715,99.2731839 L406.93,99.028 L397.832,49.812 L413.726,49.812 Z M315.075,48.606 C326.145,48.606 330.639,57.704 330.639,67.898 C330.639,86.313 319.021,104.508 301.264,104.508 C295.615522,104.508 292.521261,102.61985 292.389398,102.537757 L292.385,102.535 L292.056,102.535 L287.891,124.896 L272.764,124.896 L283.287,69.542 C284.446615,63.5343077 285.606231,55.6016893 286.278676,50.127786 L286.357,49.483 L299.729,49.483 L298.852,57.594 L299.071,57.594 C299.071,57.594 304.865,48.606 315.075,48.606 Z M51.713,0.254 C53.81,0.254 56.238,1.38 58.197,3.972 C58.394,3.961 58.59,3.953 58.78,3.953 C65.672,3.953 69.589,9.823 71.809,16.21 C74.076,15.509 75.446,15.086 75.528,15.062 C75.898908,14.9526727 76.6620982,14.8172532 77.3447545,14.9598887 C77.362342,14.9641576 77.3796383,14.9679593 77.3968725,14.9719445 C77.4335049,14.9798413 77.4699708,14.9891839 77.50609,14.9994133 C77.5266278,15.0057628 77.5476724,15.0120471 77.5685811,15.0186455 C77.6002078,15.0281214 77.6308802,15.0386036 77.6612092,15.0498066 L77.731249,15.0777343 C77.7619126,15.0899507 77.7921178,15.1034311 77.8218661,15.1177338 C77.8424885,15.1281752 77.8626489,15.1383707 77.882579,15.1489663 C77.9126709,15.164395 77.9424892,15.1814282 77.9717099,15.1994211 L78.0093095,15.223984 L78.118,15.303 L78.125,15.309 L78.157,15.338 L78.203,15.379 L78.22,15.394 L78.234,15.407 L78.227,15.4 L78.236,15.407 C78.7658607,15.9375876 82.4210567,19.5676244 84.3784811,21.5112492 C85.1141462,22.2417279 85.61,22.734 85.61,22.734 C85.61,22.734 95.178,23.443 95.63,23.481 C96.083,23.519 96.631,23.865 96.717,24.491 C96.80115,25.11074 110.037262,114.597127 110.301976,116.386793 L110.306,116.414 L71.838,124.736 L0.843,111.434 C0.843,111.434 9.954,40.974 10.299,38.49 C10.756,35.209 10.865,35.099 14.348,34.007 C14.914,33.829 19.346,32.455 25.584,30.522 C27.989,20.323 35.659,0.254 51.713,0.254 Z M49.084,42.877 C32.24,42.877 23.897,54.127 23.897,65.752 C23.897,79.564 37.678,79.939 37.678,88.345 C37.678,90.377 36.24,93.158 32.709,93.158 C27.3978421,93.158 21.1214641,87.8492896 20.9028751,87.6630191 L20.897,87.658 L17.634,98.439 C17.634,98.439 23.865,106.024 36.053,106.024 C46.209,106.024 53.74,98.377 53.74,86.502 C53.74,71.408 36.943,68.939 36.943,62.495 C36.943,61.314 37.319,56.627 44.787,56.627 C49.772617,56.627 53.8597243,58.7516211 54.0313868,58.8420305 L54.037,58.845 L58.78,44.736 C58.78,44.736 55.574,42.877 49.084,42.877 Z M255.883,48.606 C270.023,48.606 276.38,58.91 276.38,69.761 C276.38,88.505 264.323,104.508 246.457,104.508 C232.865,104.508 225.631,95.082 225.631,83.353 C225.631,65.23105 237.448066,48.9350263 255.338997,48.610918 L255.883,48.606 Z M156.574,48.716 C165.915719,48.716 169.186689,51.1588342 169.286626,51.2351728 L169.289,51.237 L165.781,61.979 C165.781,61.979 161.334,59.896 156.355,59.896 C152.08,59.896 149.34,61.869 149.34,64.938 C149.34,67.2769091 151.194296,68.9970927 154.805323,70.9976034 L155.149,71.186 C161.068,74.584 166.001,79.188 166.001,85.655 C166.001,97.712 156.246,104.398 142.653,104.398 C133.453806,104.398 127.926245,100.791224 127.750329,100.674877 L127.746,100.672 L131.473,89.93 C131.473,89.93 137.49,93.218 143.859,93.218 C148.134,93.218 150.436,90.917 150.436,88.067 C150.436,85.326 148.792,83.462 144.188,80.832 C138.488,77.544 134.213,72.94 134.213,66.912 C134.213,56.279 143.365,48.716 156.574,48.716 Z M198.884,26.136 L193.075,56.498 L193.294,56.608 C197.35,51.785 202.611,48.606 209.297,48.606 C217.189,48.606 221.684,53.758 221.684,62.308 C221.684,64.7918889 221.292423,68.4496173 220.694601,71.6190883 L220.587,72.173 L214.669,103.412 L199.542,103.412 L205.242,73.159 C205.68,71.076 205.9,68.555 205.9,66.473 C205.9,63.184 204.584,60.883 201.186,60.883 C196.436076,60.883 191.368016,66.8364091 189.330858,76.5452415 L189.239,76.996 L184.196,103.412 L169.07,103.412 L183.758,26.136 L198.884,26.136 Z M356.509,49.812 L346.206,103.412 L331.079,103.412 L341.273,49.812 L356.509,49.812 Z M393.557,25.04 C398.771376,25.04 401.411055,26.1842127 401.742261,26.3379852 L401.778,26.355 L398.818,38.193 C398.818,38.193 396.688,37.426 393.996,37.426 C389.046389,37.426 385.998344,41.8610604 385.057976,46.8954219 L385.007,47.181 L384.459,49.702 L394.982,49.702 L392.899,61.102 L382.486,61.102 L374.484,103.412 L359.358,103.412 L367.36,61.102 L360.345,61.102 L362.537,49.702 L369.552,49.702 L369.99,47.181 C371.196,40.824 373.607,34.467 378.759,30.082 C382.815,26.575 388.186,25.04 393.557,25.04 Z M308.827,61.102 C303.644727,61.102 298.78253,67.162101 296.960906,76.3497448 L296.879,76.776 L294.358,90.917 C294.358,90.917 296.678,93.108 300.606,93.108 C309.046,93.108 314.855,79.188 314.855,69.432 C314.855,65.377 313.43,61.102 308.827,61.102 Z M253.801,60.225 C245.58,60.225 241.086,74.365 241.086,83.025 C241.086,88.505 243.278,92.889 248.43,92.889 C256.431,92.889 260.925,78.64 260.925,69.323 C260.925,64.829 259.171,60.225 253.801,60.225 Z M352.234,26.903 C356.838,26.903 359.798,30.082 359.798,34.467 C359.69,39.9543818 355.778186,43.1195673 351.175401,43.2328509 L350.919,43.236 L350.7,43.236 C346.425,43.236 343.575,40.166 343.575,35.672 C343.575,30.739 347.412,26.903 352.234,26.903 Z M51.272,4.56 C39.741,4.56 33.263,19.7 30.535,28.988 C33.611,28.035 36.938,27.005 40.342,25.951 C42.671,13.774 48.186,7.676 53.331,5.255 C52.663,4.795 51.965,4.56 51.272,4.56 Z M56.042,9.075 C52.127,10.755 47.649,15.208 45.26,24.428 C49.515,23.11 53.759,21.796 57.667,20.586 C57.669,20.359 57.671,20.135 57.671,19.89 C57.671,15.099 57.029,11.549 56.042,9.075 Z M60.446,8.288 C61.331,10.822 61.881,14.018 61.881,17.988 C61.881,18.443 61.88,18.86 61.878,19.283 C64.075,18.603 66.102,17.976 67.885,17.424 C66.363,12.774 63.998,8.734 60.446,8.288 Z" id="Combined-Shape"></path>
        </g>
    </g>
</svg>