<?xml version="1.0" encoding="UTF-8"?>
<svg width="498px" height="88px" viewBox="0 0 498 88" version="1.1" xmlns="http://www.w3.org/2000/svg" xmlns:xlink="http://www.w3.org/1999/xlink">
    <!-- Generator: Sketch 61.2 (89653) - https://sketch.com -->
    <title>sony</title>
    <desc>Created with Sketch.</desc>
    <g id="Page-1" stroke="none" stroke-width="1" fill="none" fill-rule="evenodd">
        <g id="sony" fill="#FFFFFF" fill-rule="nonzero">
            <path d="M177.416,87.677 C159.376,87.677 142.63,82.267 131.452,72.234 C123.007,64.654 118.949,54.358 118.949,43.761 C118.949,33.293 123.182,22.926 131.451,15.386 C141.832,5.925 160.16,0 177.416,0 C196.512,0 211.796,4.81 223.48,15.412 C231.793,22.956 235.812,33.277 235.812,43.762 C235.812,53.925 231.547,64.748 223.48,72.234 C212.6,82.332 195.502,87.677 177.416,87.677 L177.416,76.113 C186.991,76.113 195.873,72.807 202.076,66.635 C208.236,60.505 211.106,52.97 211.106,43.761 C211.106,34.939 208.01,26.691 202.076,20.841 C195.956,14.813 186.862,11.421 177.416,11.421 C167.941,11.421 158.841,14.778 152.716,20.841 C146.814,26.689 143.71,34.961 143.71,43.761 C143.71,52.534 146.85,60.801 152.716,66.636 C158.846,72.734 167.914,76.114 177.416,76.114 L177.416,87.678 L177.416,87.677 Z M45.562,0.042 C35.912,0.042 24.949,1.847 15.634,6.007 C7.037,9.843 -2.03747298e-06,16.047 -2.03747298e-06,26.332 C-0.004,35.595 5.883,41.02 5.723,40.87 C8.227,43.175 12.258,47.1 22.797,49.405 C27.507,50.435 37.577,52.017 47.605,53.065 C57.559,54.115 67.355,55.113 71.345,56.123 C74.515,56.93 79.84,58.029 79.84,64.003 C79.84,69.953 74.23,71.769 73.255,72.163 C72.281,72.548 65.551,75.636 53.453,75.636 C44.521,75.636 33.783,72.95 29.869,71.55 C25.357,69.944 20.624,67.82 16.209,62.427 C15.111,61.09 13.379,57.413 13.379,53.772 L2.43,53.772 L2.43,84.452 L14.6,84.452 L14.6,80.307 C14.6,79.835 15.19,77.894 17.233,78.817 C19.775,79.972 27.237,82.943 35.039,84.572 C41.436,85.91 45.561,86.869 53.514,86.869 C66.49,86.869 73.461,84.755 78.28,83.379 C82.82,82.079 88.43,79.745 92.987,76.111 C95.455,74.146 100.867,69.109 100.867,59.966 C100.867,51.19 96.157,45.743 94.499998,44.086 C92.243,41.828 89.486,40.078 86.613,38.729 C84.11,37.551 80.16,36.136 76.928,35.345 C70.655,33.805 56.471,31.905 49.688,31.195 C42.575,30.452 30.236,29.43 25.308,27.905 C23.814,27.442 20.768,25.991 20.768,22.455 C20.768,19.94 22.161,17.808 24.914,16.085 C29.284,13.347 38.111,11.645 47.312,11.645 C58.19,11.605 67.402,14.092 73.262,16.712 C75.255,17.602 77.587,18.88 79.439,20.392 C81.529,22.096 84.463,25.637 85.524,30.576 L95.354,30.576 L95.354,3.87 L84.378,3.87 L84.378,6.974 C84.378,7.976 83.343,9.278 81.386,8.202 C76.474,5.625 62.586,0.065 45.56,0.042 L45.562,0.042 Z M286.096,4.895 L339.638,53.215 L339.088,20.682 C339.034,16.416 338.248,14.635 333.634,14.635 L323.567,14.635 L323.567,4.903 L369.347,4.903 L369.347,14.635 L359.527,14.635 C354.821,14.635 354.524,16.14 354.467,20.682 L355.297,82.845 L339.619,82.845 L277.949,27.805 L277.962,66.867 C278.016,71.113 278.215,73.113 282.59,73.113 L293.585,73.113 L293.585,82.841 L248.625,82.841 L248.625,73.114 L259.135,73.114 C263.061,73.114 262.905,69.371 262.905,66.646 L262.905,21.052 C262.905,18.109 262.492,14.642 256.328,14.642 L247.8,14.642 L247.8,4.895 L286.096,4.895 Z M421.66,73.095 C422.09,73.095 424,73.04 424.37,72.927 C425.427,72.597 426.144,71.843 426.476,71.057 C426.616,70.727 426.686,69.267 426.686,68.95 L426.694,53.57 C426.694,53.2 426.667,53.04 426.039,52.216 C425.349,51.316 397.994,20.316 396.742,18.951 C395.187,17.256 392.457,14.636 388.309,14.636 L378.796,14.636 L378.796,4.9 L432.483,4.9 L432.483,14.624 L426.011,14.624 C424.514,14.624 423.519,16.044 424.798,17.622 C424.798,17.622 442.861,39.229 443.032,39.455 C443.2,39.685 443.344,39.74 443.574,39.53 C443.8,39.315 462.09,17.82 462.234,17.65 C463.104,16.608 462.514,14.635 460.639,14.635 L454,14.635 L454,4.9 L498,4.9 L498,14.635 L488.17,14.635 C484.604,14.635 483.153,15.295 480.47,18.328 C479.243,19.716 451.596,51.273 450.844,52.128 C450.45,52.575 450.484,53.198 450.484,53.568 L450.484,68.946 C450.484,69.258 450.554,70.72 450.694,71.048 C451.027,71.838 451.748,72.592 452.804,72.918 C453.174,73.032 455.058,73.088 455.487,73.088 L465.542,73.088 L465.542,82.822 L412.132,82.822 L412.132,73.087 L421.662,73.095 L421.66,73.095 Z" id="path4258"></path>
        </g>
    </g>
</svg>