<?xml version="1.0" encoding="UTF-8"?>
<svg width="140px" height="70px" viewBox="0 0 140 70" version="1.1" xmlns="http://www.w3.org/2000/svg" xmlns:xlink="http://www.w3.org/1999/xlink">
    <!-- Generator: Sketch 61.2 (89653) - https://sketch.com -->
    <title>tcom</title>
    <desc>Created with Sketch.</desc>
    <g id="Page-1" stroke="none" stroke-width="1" fill="none" fill-rule="evenodd">
        <g id="tcom" fill="#FFFFFF" fill-rule="nonzero">
            <path d="M55.4965584,0.5482149 L56.1855711,24.7708795 L52.5489106,25.3661816 C51.5663613,11.566891 44.9783684,4.0211582 33.6765953,3.823543 L33.6765953,3.823543 L33.6772146,54.8632607 C33.7134184,63.8190871 35.3615975,65.274281 45.0790797,65.3720265 L45.0790797,65.3720265 L45.0790797,69.2436391 L11.5876593,69.2436391 L11.5876593,65.3720265 C21.4156085,65.2731575 22.9889155,63.7854551 22.9889155,54.5514569 L22.9889155,54.5514569 L22.9889155,3.823543 C11.6871424,4.0211582 5.10037767,11.566891 4.11782839,25.3661816 L4.11782839,25.3661816 L0.482396052,24.7708795 L1.16895236,0.5482149 L55.4965584,0.5482149 Z M14.4069616,32.299172 L14.4069616,46.2257027 L0.482396052,46.2257027 L0.482396052,32.299172 L14.4069616,32.299172 Z M56.1847114,32.299172 L56.1847114,46.2257027 L42.2591633,46.2257027 L42.2591633,32.299172 L56.1847114,32.299172 Z M97.9619699,32.299172 L97.9619699,46.2257027 L84.0359304,46.2257027 L84.0359304,32.299172 L97.9619699,32.299172 Z M139.739474,32.299172 L139.739474,46.2257027 L125.813926,46.2257027 L125.813926,32.299172 L139.739474,32.299172 Z" id="Combined-Shape"></path>
        </g>
    </g>
</svg>