<?xml version="1.0" encoding="UTF-8"?>
<svg width="881px" height="318px" viewBox="0 0 881 318" version="1.1" xmlns="http://www.w3.org/2000/svg" xmlns:xlink="http://www.w3.org/1999/xlink">
    <!-- Generator: Sketch 53.2 (72643) - https://sketchapp.com -->
    <title>challengeRocketCom</title>
    <desc>Created with Sketch.</desc>
    <g id="Page-1" stroke="none" stroke-width="1" fill="none" fill-rule="evenodd">
        <g id="challengeRocketCom" fill="#FFFFFF" fill-rule="nonzero">
            <path d="M153.9,55.9 L153.9,0.3 C73.6,0.3 8.6,65.4 8.5,145.6 C8.5,145.6 8.5,145.6 8.5,145.6 L64.1,145.6 C64.1,96.1 104.3,55.9 153.9,55.9" id="Path"></path>
            <path d="M153.9,235.5 L153.9,291.1 C234.2,291.1 299.2,226 299.2,145.8 L243.6,145.8 C243.7,195.3 203.5,235.5 153.9,235.5" id="Path"></path>
            <path d="M256.6,43 C252.3,42.4 248,42 243.7,42 C215.7,42 189.4,55.1 172.5,77.3 L154,77.3 L97,134.1 C115,141.7 134.3,145.7 153.9,145.7 C153.9,165.2 157.8,184.6 165.4,202.5 L222.3,145.7 L222.3,127.2 C244.5,110.3 257.6,83.9 257.6,55.9 C257.6,51.6 257.2,47.3 256.6,43 L256.6,43 Z M162.7,136.9 C162.6,135.2 162.4,133.5 162.4,131.8 C162.4,86.9 198.7,50.6 243.6,50.6 C243.6,50.6 243.6,50.6 243.6,50.6 C245.3,50.6 247,50.7 248.7,50.9 L162.7,136.9 Z" id="Shape"></path>
            <path d="M97.5,152.2 L0.6,299 L147.4,202.2 C138.3,179.4 120.2,161.3 97.5,152.2 L97.5,152.2 Z M30.7,268.9 L100.6,163 C108.3,166.9 115.4,172 121.5,178.1 L30.7,268.9 Z" id="Shape"></path>
            <path d="M74.3,187.2 C67.6,174.4 64.1,160.1 64.1,145.7 L8.5,145.7 C8.5,179.1 20,211.5 41.1,237.4 L74.3,187.2 Z" id="Path"></path>
            <path d="M112.4,225.3 L62.1,258.4 C88,279.5 120.4,291.1 153.8,291.1 L153.8,235.6 C139.4,235.5 125.2,232 112.4,225.3" id="Path"></path>
            <path d="M418.3,65.5 C418.3,86 408.6,94.7 386.3,94.7 C364,94.7 355.1,86.1 355.1,66.7 L355.1,28.6 C355.1,8.8 363.7,0.6 386.3,0.6 C408.9,0.6 418.3,8.9 418.3,29.6 L401.5,29.6 C401.5,20.5 399.3,15.4 386.3,15.4 C374.1,15.4 371.8,20.5 371.8,29.4 L371.8,65.7 C371.8,74.6 374.1,79.7 386.3,79.7 C398.5,79.7 401.5,74.6 401.5,65.4 L418.3,65.5 Z" id="Path"></path>
            <path d="M465.9,94.4 L465.9,49.3 C465.9,40.5 462.4,37.4 455.4,37.3 C448.2,37.3 444.7,41.2 444.7,49.2 L444.7,94.4 L428,94.4 L428,0.8 L444.7,0.8 L444.7,28.4 C448.3,23.9 454.1,22 459.8,22 C475.4,22 482.5,31.8 482.5,47.3 L482.5,94.4 L465.9,94.4 L465.9,94.4 Z" id="Path"></path>
            <path d="M493,67.1 L493,50.4 C493,31.6 502.1,22.4 521,22.4 C539.8,22.4 549,31 549,50.4 L549,94.4 L535,94.4 L533.7,86.5 C530.9,91.6 525,94.8 516.8,94.8 C502.7,94.8 493,87 493,67.1 M521,37.3 C512.2,37.3 510.1,42.4 510.1,51.3 L510.1,66.2 C510.1,76.5 514.2,79.9 520.8,79.9 C529.1,79.9 532,73.8 532,65.5 L532,51.2 C532,42.4 529.8,37.3 521,37.3" id="Shape"></path>
            <path d="M560.7,0.7 L577.4,0.7 L577.4,67.9 C577.4,75.8 578.9,78.3 585.8,78.3 L585.8,94.4 C566.5,94.4 560.8,88.7 560.8,68.1 L560.8,0.7 L560.7,0.7 Z" id="Path"></path>
            <path d="M594.5,0.7 L611.1,0.7 L611.1,67.9 C611.1,75.8 612.6,78.3 619.5,78.3 L619.5,94.4 C600.2,94.4 594.5,88.7 594.5,68.1 L594.5,0.7 Z" id="Path"></path>
            <path d="M682.7,72.4 C682.7,87.5 673.7,94.6 654.9,94.6 C636,94.6 627.1,86 627.1,66.6 L627.1,50.3 C627.1,32.3 636.1,22.3 654.9,22.3 C673.7,22.3 682.7,30.9 682.7,50.3 L682.7,64.5 L643.8,64.5 L643.8,66.3 C643.8,77.8 648.3,80 655.1,80 C663,80 666.3,77.2 666.3,72.2 L682.7,72.2 L682.7,72.4 Z M643.8,50.9 L666.5,50.9 C666.5,42 664.8,36.9 655.3,36.9 C645.5,36.9 643.8,42.2 643.8,50.9 L643.8,50.9 Z" id="Shape"></path>
            <path d="M694.4,22.7 L708.9,22.7 L709.8,30 C714,25 720.2,22.2 726.7,22.2 C738.5,22.1 750,28.3 750,50.2 L750,94.4 L733.4,94.4 L733.4,50.3 C733.4,41.1 729.5,37.3 722.6,37.3 C716.2,37.3 711.1,40.5 711.1,49.7 L711.1,94.4 L694.5,94.4 L694.5,22.7 L694.4,22.7 Z" id="Path"></path>
            <path d="M760.6,67.9 L760.6,50.1 C760.6,30.2 769.8,22.4 783.9,22.4 C792,22.4 797.4,25.6 800.2,30.7 L801.5,22.8 L815.2,22.8 L815.2,96.3 C815.2,114.9 805.5,123.8 788.1,123.8 C770.7,123.8 762.2,116.2 762.2,101.1 L778.1,101.1 C778.1,106.7 781.4,109.6 788.1,109.6 C796.8,109.6 799.6,105.1 799.6,96.2 L799.6,87.5 C797.1,91.4 792.8,94.8 784.4,94.8 C769.5,94.8 760.6,86.4 760.6,67.9 M798.8,65.5 L798.8,51.5 C798.8,43.2 796.1,37.2 787.9,37.2 C781.3,37.2 777.3,40.6 777.3,50.9 L777.3,65.9 C777.3,76 780.7,80.1 787.6,80.1 C796.1,80.1 798.8,74.6 798.8,65.5" id="Shape"></path>
            <path d="M880.6,72.4 C880.6,87.5 871.6,94.6 852.8,94.6 C834,94.6 824.9,86 824.9,66.6 L824.9,50.3 C824.9,32.3 833.9,22.3 852.7,22.3 C871.5,22.3 880.5,30.9 880.5,50.3 L880.5,64.5 L841.7,64.5 L841.7,66.3 C841.7,77.8 846.2,80 853,80 C860.9,80 864.2,77.2 864.2,72.2 L880.6,72.2 L880.6,72.4 Z M841.7,50.9 L864.4,50.9 C864.4,42 862.7,36.9 853.2,36.9 C843.4,36.9 841.7,42.2 841.7,50.9 L841.7,50.9 Z" id="Shape"></path>
            <path d="M396.7,213.7 L378.1,180.8 L371.9,180.8 L371.9,213.7 L355.1,213.7 L355.1,120.2 L378.7,120.2 C401.3,120.2 411.9,128.5 411.9,148.2 L411.9,153.1 C411.9,167 407,174.5 395.7,178.1 L416.2,213.7 L396.7,213.7 Z M378.7,165.3 C390.9,165.3 394.3,161 394.3,152.2 L394.3,149 C394.3,140.1 392,135.5 379,135.5 L371.8,135.5 L371.8,165.3 L378.7,165.3 Z" id="Shape"></path>
            <path d="M421.6,186.9 L421.6,169.6 C421.6,150.8 430.6,141.6 449.4,141.6 C468.2,141.6 477.2,150.2 477.2,169.6 L477.2,186.9 C477.2,206.2 468.2,214.9 449.4,214.9 C430.6,214.9 421.6,206.2 421.6,186.9 M460.5,186.1 L460.5,170.5 C460.5,161.6 458.2,156.5 449.4,156.5 C440.6,156.5 438.3,161.6 438.3,170.5 L438.3,186.1 C438.3,195 440.6,200.1 449.4,200.1 C458.2,200.1 460.5,195 460.5,186.1" id="Shape"></path>
            <path d="M526.3,168.7 C526.3,160.6 523.4,156.5 515.1,156.5 C505.9,156.5 503.2,161.6 503.2,170.5 L503.2,186.1 C503.2,195 505.5,200.1 514.3,200.1 C523.1,200.1 526.2,196.3 526.3,187.8 L542.1,187.8 C542.1,207.1 533.1,214.9 514.3,214.9 C495.5,214.9 486.5,206.3 486.5,186.6 L486.5,170.5 C486.5,151.2 496,141.7 514.8,141.7 C533.7,141.7 542.1,149.4 542.1,168.7 L526.3,168.7 Z" id="Path"></path>
            <polygon id="Path" points="592.6 213.7 572.6 182.6 567.9 182.6 567.9 213.7 551.2 213.7 551.2 119.8 567.9 119.8 567.9 167.5 572.4 167.5 590.1 141.9 608.8 141.9 585.9 174.2 611.3 213.7"></polygon>
            <path d="M669.1,191.7 C669.1,206.8 660.1,214 641.3,214 C622.5,214 613.5,205.4 613.5,186 L613.5,169.8 C613.5,151.8 622.5,141.8 641.3,141.8 C660.1,141.8 669.1,150.4 669.1,169.8 L669.1,184 L630.2,184 L630.2,185.8 C630.2,197.3 634.7,199.5 641.5,199.5 C649.4,199.5 652.7,196.7 652.7,191.7 L669.1,191.7 Z M630.2,170.1 L652.9,170.1 C652.9,161.2 651.2,156.1 641.7,156.1 C631.9,156.1 630.2,161.5 630.2,170.1 L630.2,170.1 Z" id="Shape"></path>
            <path d="M679.7,129.6 L696.3,127.8 L696.3,141.8 L708.5,141.8 L708.5,157 L696.3,157 L696.3,187.3 C696.3,195.2 697.6,200.5 708.7,199.2 L708.7,213.8 C687.6,216.1 679.7,208.8 679.7,187.5 L679.7,129.6 Z" id="Path"></path>
            <path d="M347.3,308 C347.3,320.2 328.5,320.3 328.5,308 C328.5,295.7 347.3,295.7 347.3,308" id="Path"></path>
            <path d="M394.8,271.7 C394.8,263.6 391.9,259.5 383.6,259.5 C374.4,259.5 371.7,264.6 371.7,273.5 L371.7,289.1 C371.7,298 374,303.1 382.8,303.1 C391.6,303.1 394.7,299.3 394.8,290.8 L410.6,290.8 C410.6,310.1 401.6,317.9 382.8,317.9 C364,317.9 355,309.3 355,289.6 L355,273.5 C355,254.2 364.5,244.7 383.3,244.7 C402.1,244.7 410.7,252.3 410.7,271.7 L394.8,271.7 Z" id="Path"></path>
            <path d="M419.5,290 L419.5,272.7 C419.5,253.9 428.5,244.7 447.3,244.7 C466.1,244.7 475.1,253.3 475.1,272.7 L475.1,290 C475.1,309.3 466.1,318 447.3,318 C428.5,318 419.5,309.3 419.5,290 M458.4,289.1 L458.4,273.5 C458.4,264.6 456.1,259.5 447.3,259.5 C438.5,259.5 436.2,264.6 436.2,273.5 L436.2,289.1 C436.2,298 438.5,303.1 447.3,303.1 C456.1,303.1 458.4,298 458.4,289.1" id="Shape"></path>
            <path d="M486.4,245 L500.9,245 L502,252.3 C506.1,247.2 512.4,244.3 518.9,244.7 C525.9,244.7 533.1,247 536.5,253.8 C540.3,248.2 547.8,244.6 556.9,244.6 C571.7,244.6 580.6,253.2 580.6,272.6 L580.6,316.7 L564,316.7 L564,272.6 C564,263.4 560.2,259.6 553.3,259.6 C546.9,259.6 542.3,262.3 542,272.5 L542,316.7 L525.3,316.7 L525.3,272.6 C525.3,263.4 521.5,259.6 514.6,259.6 C508.2,259.6 503,262.7 503,272 L503,316.7 L486.3,316.7 L486.3,245 L486.4,245 Z" id="Path"></path>
        </g>
    </g>
</svg>