<?xml version="1.0" encoding="UTF-8"?>
<svg width="1791px" height="284px" viewBox="0 0 1791 284" version="1.1" xmlns="http://www.w3.org/2000/svg" xmlns:xlink="http://www.w3.org/1999/xlink">
    <!-- Generator: Sketch 54.1 (76490) - https://sketchapp.com -->
    <title>Combined Shape</title>
    <desc>Created with Sketch.</desc>
    <g id="Page-1" stroke="none" stroke-width="1" fill="none" fill-rule="evenodd">
        <g id="Asset-1" fill="#FFFFFF">
            <path d="M0,0 L1791,0 L1791,284 L0,284 L0,0 Z M1698.1,70.8 C1692.3,59 1681.7,52.2 1666.4,50.3 C1659.9,49.4 1647.1,48.7 1627.9,48.2 L1491.9,47.9 L1491.9,232.7 L1516.4,232.7 L1516.4,161.9 L1643.5,161.9 C1647,162.3 1651,162.8 1655.4,163.6 C1667,165.4 1673.6,172.1 1675.2,183.9 C1675.9,189.9 1676.1,200.4 1676.1,215.3 L1676.1,232.7 L1701,232.7 L1701,206.2 C1700.9,191 1700.4,180.6 1699.5,175.2 C1698.6219,170.24534 1696.36969,165.63697 1693,161.9 C1688.2,157.1 1681.7,154.1 1673.7,152.8 C1684,150.6 1691.5,146.8 1696.4,141.5 C1699.2,138.2 1701.2,133.7 1702.4,127.8 C1703.7,122.4 1704.4,114.5 1704.5,103.9 C1704.4,89.9 1702.3,78.8 1698.1,70.8 Z M1652.3,70.8 C1660.4,71.4 1666.5,73.2 1670.6,76 C1676.2,80.2 1679,89.3 1678.9,103.4 C1679,119.7 1675.8,129.9 1669.5,134.1 C1665.2,136.7 1659.6,138.3 1652.8,139 C1647.8,139.6 1637.7,140 1622.6,140.1 L1516.4,140.1 L1516.4,69.6 L1625,69.6 C1637.3,69.8 1646.4,70.1 1652.3,70.8 Z M1439.9,47.9 L1439.9,126.1 L1269.9,126.1 L1269.9,47.9 L1245.4,47.9 L1245.4,232.7 L1269.9,232.7 L1269.9,147.6 L1439.9,147.6 L1439.9,232.7 L1464.4,232.7 L1464.4,47.9 L1439.9,47.9 Z M889.3,94.2 L889.3,46.1 L683.9,46.1 L683.9,232.7 L890.4,232.7 L890.4,183.9 L743.9,183.9 L743.9,160 L882.4,160 L882.4,115.1 L743.9,115.1 L743.9,94.2 L889.3,94.2 Z M662.6,137.3 C662.6,122 662.2,110.8 661.6,103.4 C660.641737,96.2619479 659.137323,89.2079208 657.1,82.3 C651.5,64.4 639.033333,53.5666667 619.7,49.8 C612.022177,48.2190942 604.231101,47.2493895 596.4,46.9 C588.5,46.3 573.3,46 550.9,46.1 L418.1,46.1 L418.1,232.7 L551.5,232.7 C571.9,232.8 586.5,232.5 595.4,232 C604.800466,231.262753 614.128895,229.791603 623.3,227.6 C639.5,224.4 650.6,214.3 656.4,197.4 C658.993697,189.846386 660.541392,181.973332 661,174 C662,165.4 662.6,153.2 662.6,137.3 Z M601.1,115.6 C602.1,121 602.5,129.3 602.5,140.7 C602.5,151.5 601.9,159.5 600.6,164.8 C599.4,169.8 598.6,173.1 598.3,174.8 C593.2204,177.524254 587.64151,179.191117 581.9,179.7 C575.8,180.7 565.6,181.1 551.5,181 L477.7,181 L477.7,96.6 L550.9,96.6 C567.5,96.6 578.5,97.2 584,98.2 C588.779695,98.844502 593.246999,100.938551 596.8,104.2 C598.4,106.5 599.8,110.3 601.1,115.6 Z M392.3,46.1 L330.6,46.1 L332.2,181.5 L330.6,181.5 L235.7,46.1 L135.3,46.1 L135.3,232.7 L196.3,232.7 L195.4,97.7 L196.9,97.7 L292.2,232.7 L392.3,232.7 L392.3,46.1 Z M113.2,46.1 L50.2,46.1 L50.2,232.7 L113.2,232.7 L113.2,46.1 Z M1033.6,109.9 L979.2,46.1 L900,46.1 L985.4,138.6 L892.7,232.7 L976.1,232.7 L1033.6,167.6 L1091.4,232.7 L1173.2,232.7 L1082.1,138.6 L1168.9,46.1 L1088.6,46.1 L1033.6,109.9 Z M1203.7,117.8 C1199.15581,113.094478 1193.02647,110.243619 1186.5,109.8 C1185.6,109.8 1184.9,109.7 1184.4,109.7 C1177.05279,109.702886 1170.0057,112.615203 1164.8,117.8 C1163.59324,119.04154 1162.48959,120.379295 1161.5,121.8 C1155.2335,131.256034 1155.2335,143.543966 1161.5,153 C1162.49054,154.388805 1163.5943,155.693256 1164.8,156.9 C1169.8681,162.322109 1176.97841,165.369383 1184.4,165.3 L1186.5,165.2 C1193.09475,164.776149 1199.26468,161.7988 1203.7,156.9 C1209.18365,151.90028 1212.30591,144.820756 1212.3,137.4 C1212.24763,129.962654 1209.13751,122.87448 1203.7,117.8 Z" id="Combined-Shape"></path>
        </g>
    </g>
</svg>