<?xml version="1.0" encoding="UTF-8"?>
<svg width="746px" height="131px" viewBox="0 0 746 131" version="1.1" xmlns="http://www.w3.org/2000/svg" xmlns:xlink="http://www.w3.org/1999/xlink">
    <!-- Generator: Sketch 54.1 (76490) - https://sketchapp.com -->
    <title>Combined Shape</title>
    <desc>Created with Sketch.</desc>
    <g id="Page-1" stroke="none" stroke-width="1" fill="none" fill-rule="evenodd">
        <g id="jutarnjilist" fill="#FFFFFF" fill-rule="nonzero">
            <path d="M299.013,87.8583521 C298.208628,90.6487291 296.978961,92.9198998 295.324,94.672 C292.104,98.081 287.014,99.785 280.054,99.785 C275.508,99.785 271.755,98.886 268.796,97.087 C265.836,95.288 263.741,92.637 262.51,89.132 C259.432,92.73 255.916,95.406 251.963,97.157 C248.009,98.908 243.57,99.785 238.645,99.785 C231.921,99.785 226.571,97.998 222.594,94.424 C218.616,90.849 216.627,86.077 216.627,80.111 C216.627,74.571 218.237,70.321 221.457,67.362 C224.677,64.404 231.376,61.834 241.558,59.656 C250.175,57.809 255.573,55.997 257.751,54.223 C259.929,52.447 261.019,49.83 261.019,46.373 C261.019,43.06 259.692,40.396 257.041,38.384 C254.389,36.371 250.814,35.365 246.316,35.365 C243.854,35.365 241.746,35.591 239.995,36.039 C238.243,36.491 236.68,37.211 235.307,38.205 C237.864,38.395 239.924,39.247 241.486,40.763 C243.049,42.279 243.83,44.148 243.83,46.373 C243.83,49.12 242.765,51.382 240.634,53.157 C238.503,54.932 235.757,55.821 232.395,55.821 C228.606,55.821 225.564,54.803 223.268,52.766 C220.971,50.73 219.824,48.078 219.824,44.811 C219.824,38.892 222.723,34.288 228.524,30.996 C234.324,27.706 242.433,26.06 252.851,26.06 C257.965,26.06 262.605,26.522 266.772,27.446 C270.938,28.369 274.205,29.637 276.573,31.245 C279.319,33.14 281.249,35.259 282.362,37.602 C283.474,39.946 284.031,43.888 284.031,49.428 L284.031,77.839 C284.031,80.064 284.326,81.71 284.919,82.774 C285.51,83.841 286.469,84.373 287.795,84.373 C289.121,84.373 290.056,83.876 290.601,82.882 C291.145,81.887 291.418,80.207 291.418,77.839 L291.418,71.873 L300.154,71.873 L300.154,78.549 C300.154,82.0897989 299.779341,85.1730948 299.030023,87.799 L303.346,87.799 C306.139,87.799 307.986,87.355 308.886,86.465 C309.785,85.576 310.235,83.714 310.235,80.878 L310.235,48.942 C310.235,46.106 309.785,44.244 308.886,43.354 C307.986,42.466 306.139,42.021 303.346,42.021 L299.013,42.021 L299.013,30.054 L333.319,30.054 L333.319,37.046 C335.876,34.067 338.634,31.82 341.593,30.306 C344.552,28.792 347.618,28.035 350.791,28.035 C355.952,28.035 360.025,29.502 363.008,32.433 C365.991,35.365 367.482,39.306 367.482,44.256 C367.482,48.534 366.298,51.969 363.931,54.565 C361.563,57.16 358.438,58.458 354.556,58.458 C351.525,58.458 349.003,57.448 346.991,55.43 C344.978,53.411 343.973,50.913 343.973,47.932 C343.973,45.674 344.588,43.776 345.82,42.237 C347.05,40.699 348.803,39.594 351.075,38.921 C350.175,38.488 349.394,38.189 348.732,38.02 C348.068,37.852 347.453,37.767 346.885,37.767 C343.286,37.767 340.326,39.714 338.007,43.607 C335.686,47.5 334.526,52.546 334.526,58.746 L334.526,80.878 C334.526,83.714 334.964,85.576 335.84,86.465 C336.716,87.355 338.55,87.799 341.345,87.799 L347.169,87.799 L347.169,99.766 L299.013,99.766 L299.013,87.8583521 Z M42.928,63.68 L42.928,21.539 C42.928,17.847 42.383,15.515 41.294,14.543 C40.205,13.574 37.743,13.087 33.908,13.087 L27.799,13.087 L27.799,0.303 L84.975,0.303 L84.975,13.087 L79.72,13.087 C75.884,13.087 73.422,13.574 72.333,14.543 C71.243,15.515 70.699,17.847 70.699,21.539 L70.699,63.68 C70.699,75.991 67.798,85.012 61.999,90.74 C56.198,96.47 47.071,99.335 34.618,99.335 C24.248,99.335 15.89,96.729 9.546,91.521 C3.2,86.313 0.028,79.518 0.028,71.138 C0.028,65.834 1.495,61.525 4.432,58.21 C7.367,54.896 11.179,53.238 15.867,53.238 C20.033,53.238 23.455,54.506 26.13,57.038 C28.805,59.572 30.143,62.804 30.143,66.733 C30.143,70.284 29.101,73.091 27.018,75.15 C24.934,77.21 22.093,78.239 18.495,78.239 C17.595,78.239 16.648,78.169 15.654,78.026 C14.66,77.885 13.665,77.672 12.671,77.388 C14.47,79.992 16.624,81.945 19.134,83.247 C21.643,84.551 24.485,85.2 27.657,85.2 C33.102,85.2 37.008,83.566 39.377,80.3 C41.744,77.032 42.928,71.492 42.928,63.68 Z M121.406,29.823 L153.936,29.823 L153.936,79.499 C153.936,82.271 154.385,84.091 155.285,84.959 C156.184,85.829 158.031,86.264 160.825,86.264 L164.874,86.264 L164.874,97.96 L130.852,97.96 L130.852,87.391 C127.869,91.524 124.329,94.66 120.234,96.797 C116.138,98.934 111.628,100.003 106.704,100.003 C98.323,100.003 92.392,98.112 88.912,94.331 C85.431,90.55 83.691,84.008 83.691,74.707 L83.691,48.284 C83.691,45.513 83.253,43.693 82.377,42.823 C81.5,41.955 79.666,41.52 76.873,41.52 L73.534,41.52 L73.534,29.823 L107.982,29.823 L107.982,74.707 C107.982,78.794 108.81,81.836 110.468,83.832 C112.125,85.829 114.634,86.827 117.997,86.827 C121.926,86.827 124.874,85.465 126.839,82.74 C128.804,80.016 129.787,75.905 129.787,70.409 L129.787,48.284 C129.787,45.513 129.349,43.693 128.473,42.823 C127.596,41.955 125.762,41.52 122.969,41.52 L121.406,41.52 L121.406,29.823 Z M167.137,73.244 L167.137,41.402 L157.406,41.402 L157.406,30.741 C163.042,30.091 167.492,27.456 170.759,22.833 C174.027,18.211 175.991,10.343 176.655,2.167 L191.002,2.167 L191.002,29.835 L208.616,29.835 L208.616,41.402 L191.002,41.402 L191.002,78.679 C191.002,81.42 191.463,83.452 192.387,84.775 C193.311,86.099 194.695,86.761 196.542,86.761 C198.861,86.761 200.459,85.798 201.336,83.87 C202.212,81.943 202.65,77.867 202.65,71.641 L202.65,65.371 L214.44,65.371 L214.44,75.404 C214.44,83.766 212.487,89.966 208.581,94.008 C204.674,98.049 198.673,100.07 190.576,100.07 C182.147,100.07 176.133,98.06 172.535,94.042 C168.937,90.025 167.137,83.092 167.137,73.244 Z M260.593,73.434 L260.593,63.279 C258.746,64.225 256.235,65.456 253.064,66.972 C245.487,70.665 241.7,74.122 241.7,77.342 C241.7,79.661 242.504,81.531 244.114,82.952 C245.724,84.373 247.831,85.084 250.436,85.084 C253.608,85.084 256.093,84.065 257.894,82.028 C259.692,79.993 260.593,77.129 260.593,73.434 Z M465.651,22.191 C463.33,19.894 462.171,17.017 462.171,13.56 C462.171,10.247 463.354,7.417 465.723,5.074 C468.089,2.729 470.93,1.557 474.245,1.557 C477.607,1.557 480.46,2.729 482.805,5.074 C485.148,7.417 486.32,10.247 486.32,13.56 C486.32,16.924 485.148,19.776 482.805,22.12 C480.46,24.464 477.607,25.636 474.245,25.636 C470.836,25.636 467.97,24.488 465.651,22.191 Z M452.015,29.848 L487.243,29.848 L487.243,104.353 C487.243,108.851 486.911,112.308 486.249,114.724 C485.585,117.139 484.496,119.363 482.981,121.399 C480.709,124.43 477.571,126.691 473.57,128.182 C469.569,129.675 464.562,130.421 458.548,130.421 C451.966,130.421 446.616,128.939 442.497,125.981 C438.377,123.021 436.317,119.245 436.317,114.652 C436.317,111.432 437.396,108.768 439.549,106.662 C441.704,104.555 444.392,103.502 447.61,103.502 C450.214,103.502 452.428,104.4 454.251,106.201 C456.074,108 456.986,110.202 456.986,112.806 C456.986,114.131 456.631,115.362 455.92,116.5 C455.21,117.636 454.098,118.724 452.582,119.766 C453.719,120.192 454.677,120.487 455.459,120.654 C456.24,120.819 456.938,120.902 457.555,120.902 C459.637,120.902 461.081,120.181 461.887,118.736 C462.691,117.292 463.094,114.25 463.094,109.609 L463.094,50.516 C463.094,46.681 462.656,44.289 461.78,43.343 C460.903,42.395 459.092,41.922 456.348,41.922 L452.015,41.922 L452.015,29.848 Z M501.13,81.002 L501.13,50.105 C501.13,46.384 500.707,44.136 499.865,43.362 C499.021,42.589 497.225,42.201 494.479,42.201 L489.705,42.201 L489.705,29.871 L526.148,29.871 L526.148,81.002 C526.148,83.952 526.66,86.201 527.504,87.046 C528.347,87.892 530.144,88.314 532.891,88.314 L536.578,88.314 L536.489,100.003 L489.705,100.003 L489.795,88.314 L494.278,88.314 C497.122,88.314 498.99,87.892 499.882,87.046 C500.774,86.201 501.13,83.952 501.13,81.002 Z M503.444,22.022 C501.081,19.678 499.901,16.741 499.901,13.211 C499.901,9.827 501.105,6.937 503.516,4.544 C505.926,2.151 508.818,0.953 512.193,0.953 C515.615,0.953 518.521,2.151 520.906,4.544 C523.292,6.937 524.485,9.827 524.485,13.211 C524.485,16.644 523.292,19.557 520.906,21.95 C518.521,24.344 515.615,25.539 512.193,25.539 C508.722,25.539 505.805,24.368 503.444,22.022 Z M411.688,100.003 L368.362,100.003 L368.362,87.976 L372.269,87.976 C375.063,87.976 376.909,87.53 377.81,86.636 C378.707,85.742 379.158,83.871 379.158,81.021 L379.158,48.924 C379.158,46.075 378.707,44.204 377.81,43.309 C376.909,42.416 375.063,41.969 372.269,41.969 L368.362,41.969 L368.362,29.942 L402.242,29.942 L402.242,40.81 C405.177,36.608 408.705,33.432 412.824,31.282 C416.944,29.134 421.514,28.058 426.532,28.058 C434.866,28.058 440.761,29.978 444.218,33.818 C447.674,37.658 449.403,44.385 449.403,53.996 L449.403,81.021 C449.403,83.871 449.84,85.742 450.717,86.636 C451.592,87.53 453.427,87.976 456.221,87.976 L459.561,87.976 L459.561,100.003 L416.802,100.003 L416.802,87.976 L418.436,87.976 C421.182,87.976 423.004,87.53 423.904,86.636 C424.803,85.742 425.254,83.871 425.254,81.021 L425.254,53.996 C425.254,49.794 424.413,46.642 422.733,44.541 C421.051,42.44 418.53,41.389 415.168,41.389 C411.427,41.389 408.538,42.755 406.503,45.483 C404.467,48.212 403.449,52.137 403.449,57.256 L403.449,81.021 C403.449,83.871 403.886,85.742 404.764,86.636 C405.64,87.53 407.474,87.976 410.268,87.976 L411.688,87.976 L411.688,100.003 Z M537.083,30.397 L571.674,30.397 L571.674,40.144 L568.411,40.144 C566.516,40.144 565.274,40.412 564.689,40.948 C564.104,41.484 563.811,43.008 563.811,45.52 L563.811,88.696 L567.658,88.696 C571.228,88.696 573.744,88.47 575.208,88.017 C576.672,87.565 577.836,86.77 578.701,85.632 C579.788,84.224 580.61,82.315 581.169,79.904 C581.727,77.492 582.103,74.894 582.298,70.641 L591.207,70.641 L591.207,99.43 L537.083,99.43 L537.083,88.896 L539.969,88.896 C541.978,88.896 543.266,88.579 543.838,87.943 C544.409,87.307 544.695,85.649 544.695,82.969 L544.695,46.022 C544.695,43.343 544.416,41.694 543.859,41.073 C543.301,40.454 542.004,40.144 539.969,40.144 L537.083,40.144 L537.083,30.397 Z M594.971,30.543 L629.144,30.543 L629.144,40.149 L626.341,40.149 C624.276,40.149 622.96,40.471 622.389,41.114 C621.816,41.758 621.53,43.367 621.53,45.942 L621.53,83.078 C621.53,85.686 621.824,87.311 622.408,87.955 C622.995,88.599 624.305,88.921 626.341,88.921 L629.144,88.921 L629.144,99.447 L594.971,99.447 L594.971,88.921 L597.814,88.921 C599.822,88.921 601.12,88.599 601.705,87.955 C602.291,87.311 602.583,85.686 602.583,83.078 L602.583,45.942 C602.583,43.367 602.297,41.758 601.726,41.114 C601.153,40.471 599.85,40.149 597.814,40.149 L594.971,40.149 L594.971,30.543 Z M632.866,99.314 L632.866,73.964 L640.82,73.964 C642.133,79.212 644.31,83.313 647.35,86.267 C650.389,89.223 653.972,90.698 658.096,90.698 C660.586,90.698 662.581,90.048 664.081,88.743 C665.581,87.439 666.331,85.731 666.331,83.618 C666.331,80.35 663.077,77.61 656.569,75.398 C654.453,74.705 652.792,74.129 651.588,73.665 C647.677,72.214 644.663,70.975 642.549,69.952 C640.433,68.93 638.905,67.972 637.969,67.08 C635.745,65.035 634.104,62.766 633.048,60.272 C631.988,57.78 631.46,54.95 631.46,51.78 C631.46,44.947 633.516,39.435 637.627,35.243 C641.738,31.05 647.168,28.954 653.917,28.954 C657.346,28.954 660.547,29.368 663.52,30.192 C666.492,31.017 669.37,32.288 672.156,34.004 L673.644,30.588 L681.558,30.588 L681.558,54.206 L672.277,54.206 C671.366,49.388 669.652,45.797 667.135,43.437 C664.617,41.078 661.256,39.897 657.052,39.897 C654.586,39.897 652.559,40.59 650.965,41.976 C649.371,43.363 648.574,45.063 648.574,47.077 C648.574,50.114 651.627,52.408 657.734,53.959 C659.233,54.355 660.398,54.669 661.229,54.899 C669.746,57.309 675.719,60.306 679.147,63.887 C682.575,67.469 684.289,72.347 684.289,78.518 C684.289,85.385 682.181,90.856 677.961,94.932 C673.743,99.01 668.06,101.048 660.908,101.048 C657.641,101.048 654.493,100.594 651.468,99.685 C648.44,98.778 645.44,97.4 642.469,95.552 L640.419,99.314 L632.866,99.314 Z M706.26,40.954 L703.75,40.954 C700.599,40.954 698.187,42.233 696.514,44.79 C694.841,47.347 694.005,48.861 694.005,53.74 L694.005,54.041 L685.514,54.041 L685.514,30.176 L745.995,30.176 L745.995,54.041 L737.588,54.041 L737.588,53.74 C737.588,48.893 736.744,47.39 735.058,44.815 C733.369,42.242 730.938,40.954 727.759,40.954 L725.248,40.954 L725.248,82.635 C725.248,85.274 725.541,86.921 726.128,87.573 C726.713,88.224 728.023,88.551 730.06,88.551 L734.869,88.551 L734.869,99.061 L697.058,99.061 L697.058,88.551 L701.533,88.551 C703.457,88.551 704.726,88.274 705.34,87.723 C705.952,87.172 706.26,85.475 706.26,82.635 L706.26,40.954 Z" id="Combined-Shape"></path>
        </g>
    </g>
</svg>