<?xml version="1.0" encoding="UTF-8"?>
<svg width="458px" height="96px" viewBox="0 0 458 96" version="1.1" xmlns="http://www.w3.org/2000/svg" xmlns:xlink="http://www.w3.org/1999/xlink">
    <!-- Generator: Sketch 54.1 (76490) - https://sketchapp.com -->
    <title>Combined Shape</title>
    <desc>Created with Sketch.</desc>
    <g id="Page-1" stroke="none" stroke-width="1" fill="none" fill-rule="evenodd">
        <g id="LIDER_logo_v2-BIJELI" fill="#FFFFFF">
            <path d="M74.003,96 L0,96 L0,0.938 L29.869,0.938 L29.869,72.804 L74.003,72.804 L74.003,96 Z M78.082,96 L78.082,0.938 L107.946,0.938 L107.946,96 L78.082,96 Z M198.128,61.47 C198.128,86.269 179.464,96 158.263,96 L115.729,96 L115.729,0.938 L157.996,0.938 C179.727,0.938 198.128,10.271 198.128,33.338 L198.128,61.47 Z M167.994,60.801 L167.994,36.003 C167.994,28.938 163.065,24.271 155.331,24.271 L145.595,24.271 L145.595,72.804 L155.997,72.804 C164.264,72.804 167.994,66.666 167.994,60.801 Z M278.006,96 L204.01,96 L204.01,0.938 L278.006,0.938 L278.006,24.003 L233.874,24.003 L233.874,37.069 L268.808,37.069 L268.808,60.004 L233.874,60.004 L233.874,72.804 L278.006,72.804 L278.006,96 Z M369.148,96 L336.35,96 L321.019,64.536 L314.75,64.536 L314.75,96 L284.886,96 L284.886,0.938 L330.482,0.938 C355.816,0.938 366.216,15.339 366.216,31.204 C366.216,42.936 360.881,54.005 349.148,59.603 L369.148,96 Z M337.149,33.737 C337.149,28.539 333.818,23.337 326.618,23.337 L314.75,23.337 L314.75,44.137 L326.484,44.137 C333.417,44.137 337.149,39.202 337.149,33.737 Z M385.788,73.563 L385.788,1.41 L457.94,1.41 L457.94,73.563 L385.788,73.563 Z" id="Combined-Shape"></path>
        </g>
    </g>
</svg>