<?xml version="1.0" encoding="UTF-8"?>
<svg width="771px" height="242px" viewBox="0 0 771 242" version="1.1" xmlns="http://www.w3.org/2000/svg" xmlns:xlink="http://www.w3.org/1999/xlink">
    <!-- Generator: Sketch 54.1 (76490) - https://sketchapp.com -->
    <title>Combined Shape</title>
    <desc>Created with Sketch.</desc>
    <g id="Page-1" stroke="none" stroke-width="1" fill="none" fill-rule="evenodd">
        <g id="Logo_tipo_2red" transform="translate(-36.000000, -185.000000)" fill="#FFFFFF">
            <path d="M384.792545,290.9798 L385.5603,290.9798 C389.3125,290.9798 391.1885,294.732 391.1885,302.26 L391.1885,376.7956 L423.7302,335.2346 C425.3414,333.2625 426.1592,331.5549 426.1592,330.1597 C426.1592,327.5382 422.9603,326.2153 416.5628,326.2153 L416.5628,324.7963 L440.5422,324.7963 L440.5422,326.2153 C437.4394,326.2153 434.9381,326.7445 433.0621,327.7786 C431.1862,328.813 428.5644,331.4826 425.1733,335.812 L415.8173,347.7175 L435.7077,387.0896 C437.8723,391.5873 439.6042,394.3052 440.9269,395.2432 C442.2257,396.1811 444.4384,396.6622 447.5409,396.6622 L447.5409,398.0812 L420.7717,398.0812 C417.2122,398.0812 413.869,394.5937 410.7662,387.6429 L400.4963,367.3675 L391.1885,379.1047 L391.1885,386.8251 C391.1885,393.3913 394.9404,396.6622 402.4446,396.6622 L402.4446,398.0812 L357.372,398.0812 L357.372,396.6622 C364.8762,396.6622 368.6281,393.3672 368.6281,386.801 L368.6281,302.26 C368.6281,295.879716 365.085332,292.587728 357.999428,292.4067 L340.3474,292.4067 L340.3474,290.9877 C347.8516,290.9877 351.6035,287.6927 351.6035,281.1266 L351.6035,230.402 C351.6035,223.8358 347.8516,220.5408 340.3474,220.5408 L340.3474,219.1218 L368.5357,219.1218 C372.2879,219.1218 374.1639,222.8737 374.1639,230.402 L374.1639,281.1266 C374.1639,287.50707 377.706659,290.79878 384.792545,290.9798 Z M74.0347,196.5855 L101.5016,258.446 L133.0812,196.5855 L163.7949,196.5855 L163.7949,198.0045 C156.291,198.0045 152.5147,201.2998 152.5147,207.8657 L158.167,281.1266 C158.6721,287.6927 162.4241,290.9877 169.4231,290.9877 L169.4231,292.4067 L124.3505,292.4067 L124.3505,290.9877 C131.8547,290.9877 135.6066,288.1738 135.6066,282.5456 L135.6066,281.1266 L129.8582,206.0379 L102.2953,260.0334 C105.2535,265.6616 106.7207,271.097 106.7207,276.3403 C106.7207,279.4431 106.384,281.6076 105.7346,282.8103 L86.9987,282.8103 C87.4556,282.3531 87.696,281.7037 87.696,280.8621 C87.696,280.4771 87.6478,280.2127 87.5276,280.0202 L55.2986,207.8657 L49.6706,281.1266 L49.6706,282.5456 C49.6706,288.1738 53.4226,290.9877 60.9267,290.9877 L60.9267,292.4067 L36.9714,292.4067 L36.9714,290.9877 C44.0906,290.9877 47.8667,287.6927 48.2275,281.1266 L53.8795,207.8416 C53.8795,201.2757 50.1276,198.0045 42.5996,198.0045 L42.5996,196.5855 L74.0347,196.5855 Z M192.5895,254.3332 L226.406,254.3332 C226.406,240.0707 225.7084,231.4361 224.2894,228.4296 C221.6679,222.7056 216.7373,219.8435 209.4976,219.8435 C202.3543,219.8435 197.7605,222.2246 195.692,227.0106 C193.6236,231.9894 192.5895,241.105 192.5895,254.3332 Z M209.4976,293.1044 C196.8225,293.1044 187.0336,289.8573 180.1789,283.3875 C173.4205,276.8936 170.0291,267.6818 170.0291,255.7522 C170.0291,243.919 173.4687,234.7073 180.3231,228.1411 C187.1779,221.6713 196.8948,218.4245 209.4976,218.4245 C222.1007,218.4245 231.8176,221.6713 238.6721,228.1411 C245.5268,234.7073 248.9661,243.919 248.9661,255.7522 L192.5895,255.7522 C192.5895,272.3718 193.5275,282.0166 195.4035,284.6381 C198.8909,289.328 203.5811,291.6853 209.4976,291.6853 C216.5448,291.6853 223.1589,289.9534 229.3642,286.4659 C235.5695,283.0025 240.5001,278.4328 244.1801,272.8049 L245.3105,273.5022 C241.5342,279.419 236.4593,284.1812 230.0859,287.7406 C223.6881,291.3245 216.8334,293.1044 209.4976,293.1044 Z M274.9226,255.632 C274.9226,271.5781 275.476,280.8862 276.6061,283.5077 C278.8671,288.8711 283.0039,291.5408 289.0168,291.5408 C293.8992,291.5408 298.6855,289.8091 303.3995,286.3216 C303.2073,284.6381 303.1109,282.8582 303.1109,280.9823 L303.1109,224.9184 C298.5171,221.527 293.8031,219.8435 289.0168,219.8435 C282.9078,219.8435 278.771,222.5132 276.6061,227.8766 C275.476,230.883 274.9226,240.1189 274.9226,255.632 Z M325.6713,196.5855 L325.6713,281.1266 C325.6713,287.6927 329.4232,290.9877 336.9515,290.9877 L336.9515,292.4067 L308.7632,292.4067 C307.8011,292.4067 306.7427,291.6371 305.5884,290.1458 C304.4098,288.6307 303.7603,287.8852 303.6643,287.8852 C298.5894,291.2763 293.707,292.9601 289.0168,292.9601 C277.9291,292.9601 269.0541,289.6407 262.3677,283.0266 C255.7054,276.4125 252.3623,267.2728 252.3623,255.632 C252.3623,243.9669 255.6814,234.8756 262.2957,228.2854 C268.9339,221.7195 277.833,218.4245 289.0168,218.4245 C293.707,218.4245 298.421,219.9878 303.1109,223.0903 L303.1109,196.5855 C303.1109,190.0196 299.359,186.7244 291.8307,186.7244 L291.8307,185.3053 L320.0431,185.3053 C323.7953,185.3053 325.6713,189.0576 325.6713,196.5855 Z M354.9226,204.5466 C352.7099,202.3339 351.6035,199.6883 351.6035,196.5855 C351.6035,193.483 352.7099,190.8371 354.9226,188.6244 C357.1353,186.4117 359.7812,185.3053 362.8837,185.3053 C365.9862,185.3053 368.6321,186.4117 370.8448,188.6244 C373.0575,190.8371 374.1639,193.483 374.1639,196.5855 C374.1639,199.6883 373.0575,202.3339 370.8448,204.5466 C368.6321,206.7593 365.9862,207.8657 362.8837,207.8657 C359.7812,207.8657 357.1353,206.7593 354.9226,204.5466 Z M474.8,292.4067 L446.6117,292.4067 C445.6497,292.4067 444.6156,291.6612 443.5092,290.1458 C442.3788,288.6307 441.7053,287.8852 441.5128,287.8852 C436.7265,291.3727 430.9061,293.1044 424.0514,293.1044 C412.122,293.1044 402.5494,290.4344 395.358,285.071 C388.1667,279.7075 384.5829,273.6947 384.5829,267.0324 C384.5829,260.3702 388.1426,254.4775 395.286,249.3544 C402.4293,244.2317 412.0257,241.6581 424.0514,241.6581 C429.872,241.6581 435.4999,242.8367 440.9597,245.1937 L440.9597,241.6581 C440.9597,227.107 434.8505,219.8435 422.6323,219.8435 C414.8396,219.8435 407.3837,221.8638 400.2406,225.9043 L399.3987,224.6295 C406.9029,220.4926 414.6474,218.4245 422.6323,218.4245 C449.8826,218.4245 463.5198,230.8589 463.5198,255.7522 L463.5198,281.1266 C463.5198,287.6927 467.2721,290.9877 474.8,290.9877 L474.8,292.4067 Z M440.9597,246.733 C435.5963,244.3037 429.9681,243.0771 424.0514,243.0771 C417.1005,243.0771 412.2181,245.6989 409.4042,250.9659 C407.8888,253.5154 407.1433,258.855 407.1433,267.0324 C407.1433,276.9897 408.3698,283.4595 410.7991,286.4659 C413.7094,289.9534 418.1349,291.6853 424.0514,291.6853 C431.1947,291.6853 436.919,289.9055 441.2483,286.3457 C441.0558,280.5012 440.9597,274.9212 440.9597,269.5578 L440.9597,246.733 Z M91.2033,302.26 L118.6702,364.1205 L150.2498,302.26 L180.9635,302.26 L180.9635,303.679 C173.4596,303.679 169.6833,306.9743 169.6833,313.5402 L175.3356,386.801 C175.8407,393.3672 179.5927,396.6622 186.5917,396.6622 L186.5917,398.0812 L141.5191,398.0812 L141.5191,396.6622 C149.0233,396.6622 152.7752,393.8482 152.7752,388.22 L152.7752,386.801 L147.0268,311.7124 L119.4639,365.7079 C122.4221,371.336 123.8893,376.7715 123.8893,382.0147 C123.8893,385.1175 123.5526,387.2821 122.9031,388.4848 L104.1673,388.4848 C104.6242,388.0276 104.8646,387.3782 104.8646,386.5365 C104.8646,386.1516 104.8164,385.8871 104.6962,385.6947 L72.4671,313.5402 L66.8392,386.801 L66.8392,388.22 C66.8392,393.8482 70.5912,396.6622 78.0953,396.6622 L78.0953,398.0812 L54.14,398.0812 L54.14,396.6622 C61.2592,396.6622 65.0353,393.3672 65.3961,386.801 L71.0481,313.5161 C71.0481,306.9502 67.2962,303.679 59.7682,303.679 L59.7682,302.26 L91.2033,302.26 Z M277.4149,398.0812 L249.2266,398.0812 C248.2645,398.0812 247.2304,397.3357 246.1241,395.8203 C244.9936,394.3052 244.3201,393.5597 244.1276,393.5597 C239.3413,397.0471 233.5209,398.7788 226.6662,398.7788 C214.7369,398.7788 205.1643,396.1089 197.9728,390.7454 C190.7816,385.382 187.1977,379.3691 187.1977,372.7069 C187.1977,366.0446 190.7575,360.1519 197.9008,355.0289 C205.0441,349.9061 214.6405,347.3325 226.6662,347.3325 C232.4869,347.3325 238.1148,348.5112 243.5746,350.8682 L243.5746,347.3325 C243.5746,332.7815 237.4654,325.518 225.2472,325.518 C217.4545,325.518 209.9985,327.5382 202.8555,331.5787 L202.0136,330.304 C209.5177,326.1671 217.2623,324.0989 225.2472,324.0989 C252.4975,324.0989 266.1347,336.5334 266.1347,361.4267 L266.1347,386.801 C266.1347,393.3672 269.8869,396.6622 277.4149,396.6622 L277.4149,398.0812 Z M243.5746,352.4074 C238.2111,349.9781 232.583,348.7516 226.6662,348.7516 C219.7154,348.7516 214.833,351.3733 212.019,356.6404 C210.5036,359.1899 209.7581,364.5295 209.7581,372.7069 C209.7581,382.6641 210.9847,389.1339 213.414,392.1404 C216.3243,395.6278 220.7497,397.3598 226.6662,397.3598 C233.8095,397.3598 239.5338,395.5799 243.8631,392.0202 C243.6707,386.1757 243.5746,380.5957 243.5746,375.2323 L243.5746,352.4074 Z M359.6037,338.1931 C359.6037,341.1995 358.5214,343.821 356.3569,346.0819 C354.1924,348.3428 351.5224,349.4492 348.3238,349.4492 C345.3174,349.4492 342.6956,348.3666 340.4347,346.2262 C338.1741,344.0616 337.0436,341.3679 337.0436,338.1931 C337.0436,338.1931 337.2361,336.3168 337.5967,332.5408 C337.5967,328.7889 335.8168,326.9129 332.2573,326.9129 C325.8595,326.9129 319.9431,330.0154 314.5073,336.2207 L314.5073,386.801 C314.5073,393.3672 318.2593,396.6622 325.7634,396.6622 L325.7634,398.0812 L280.6909,398.0812 L280.6909,396.6622 C288.195,396.6622 291.947,393.3672 291.947,386.801 L291.947,336.0765 C291.947,329.4865 288.195,326.2153 280.6909,326.2153 L280.6909,324.7963 L308.8791,324.7963 C309.721,324.7963 310.5629,325.5659 311.4045,327.0572 C312.4389,328.6446 313.1844,330.1597 313.6654,331.5549 L314.5073,333.9598 C318.1632,330.5687 321.4582,328.1876 324.3685,326.7686 C328.1204,324.9887 333.3878,324.0989 340.1461,324.0989 C345.221,324.0989 349.7428,325.3255 353.6872,327.7545 C357.6317,330.2079 359.6037,333.6713 359.6037,338.1931 Z M465.0554,360.0077 L498.8718,360.0077 C498.8718,345.7451 498.1742,337.1105 496.7552,334.1041 C494.1337,328.3801 489.2031,325.518 481.9635,325.518 C474.8202,325.518 470.2263,327.8991 468.1579,332.6851 C466.0894,337.6639 465.0554,346.7795 465.0554,360.0077 Z M481.9635,398.7788 C469.2883,398.7788 459.4995,395.5317 452.6447,389.0619 C445.8864,382.568 442.495,373.3563 442.495,361.4267 C442.495,349.5935 445.9346,340.3817 452.789,333.8155 C459.6437,327.3457 469.3606,324.0989 481.9635,324.0989 C494.5666,324.0989 504.2835,327.3457 511.1379,333.8155 C517.9927,340.3817 521.4319,349.5935 521.4319,361.4267 L465.0554,361.4267 C465.0554,378.0462 465.9934,387.6911 467.8693,390.3126 C471.3568,395.0025 476.047,397.3598 481.9635,397.3598 C489.0107,397.3598 495.6248,395.6278 501.8301,392.1404 C508.0354,388.677 512.966,384.1073 516.6459,378.4793 L517.7764,379.1767 C514.0001,385.0934 508.9252,389.8556 502.5518,393.4151 C496.154,396.9989 489.2992,398.7788 481.9635,398.7788 Z M553.0167,382.9289 C553.0167,392.5494 555.8306,397.3598 561.4826,397.3598 C567.303,397.3598 571.3438,394.9064 573.5806,390.024 L574.8554,390.6011 C572.4261,396.061 567.9524,398.7788 561.4826,398.7788 C540.7985,398.7788 530.4563,387.0417 530.4563,363.5433 L530.4563,336.0765 C530.4563,329.5103 526.7041,326.2153 519.2002,326.2153 L519.2002,324.7963 L525.4055,324.7963 C534.4248,324.7963 538.9223,318.2304 538.9223,305.098 L553.0167,305.098 L553.0167,324.7963 L572.7387,324.7963 L572.7387,326.2153 C566.1729,326.2153 559.5826,326.2153 553.0167,326.2153 C553.0167,355.3418 553.0167,374.222 553.0167,382.9289 Z M576.8563,324.7963 L605.0446,324.7963 C608.7969,324.7963 610.6728,328.5482 610.6728,336.0765 L610.6728,386.801 C610.6728,393.3672 614.4248,396.6622 621.9289,396.6622 L621.9289,398.0812 L576.8563,398.0812 L576.8563,396.6622 C584.3605,396.6622 588.1124,393.3672 588.1124,386.801 L588.1124,336.0765 C588.1124,329.5103 584.3605,326.2153 576.8563,326.2153 L576.8563,324.7963 Z M591.4315,310.2211 C589.2188,308.0084 588.1124,305.3628 588.1124,302.26 C588.1124,299.1575 589.2188,296.5116 591.4315,294.2989 C593.6443,292.0862 596.2901,290.9798 599.3926,290.9798 C602.4951,290.9798 605.141,292.0862 607.3537,294.2989 C609.5665,296.5116 610.6728,299.1575 610.6728,302.26 C610.6728,305.3628 609.5665,308.0084 607.3537,310.2211 C605.141,312.4338 602.4951,313.5402 599.3926,313.5402 C596.2901,313.5402 593.6443,312.4338 591.4315,310.2211 Z M659.1654,336.0765 L659.1654,386.801 C659.1654,393.3672 662.9173,396.6622 670.4215,396.6622 L670.4215,398.0812 L625.3489,398.0812 L625.3489,396.6622 C632.8531,396.6622 636.605,393.3672 636.605,386.801 L636.605,336.0765 C636.605,329.5103 632.8531,326.2153 625.3489,326.2153 L625.3489,324.7963 L653.5372,324.7963 C654.3791,324.7963 655.3894,325.518 656.5677,326.9849 C657.7223,328.4521 658.4199,329.1738 658.6121,329.1738 C663.6628,325.7824 668.5455,324.0989 673.2595,324.0989 C697.6718,324.0989 709.89,332.7815 709.89,350.1706 L709.89,386.801 C709.89,393.3672 713.6419,396.6622 721.146,396.6622 L721.146,398.0812 L676.0735,398.0812 L676.0735,396.6622 C683.5776,396.6622 687.3296,393.3672 687.3296,386.801 L687.3296,351.5896 C687.3296,334.2005 682.6397,325.518 673.2595,325.518 C668.3771,325.518 663.5667,327.2496 658.8768,330.713 C659.069,332.4206 659.1654,334.2005 659.1654,336.0765 Z M744.3125,361.4267 C744.3125,376.9399 744.8658,386.1757 745.996,389.1821 C748.1608,394.5456 752.2977,397.2152 758.4066,397.2152 C763.1929,397.2152 767.9069,395.5317 772.5008,392.1404 L772.5008,336.0765 C772.5008,334.2005 772.5971,332.4206 772.7893,330.713 C768.0753,327.2496 763.289,325.518 758.4066,325.518 C752.3938,325.518 748.2569,328.1876 745.996,333.5511 C744.8658,336.1725 744.3125,345.4807 744.3125,361.4267 Z M772.5008,393.9684 C767.8108,397.0709 763.0968,398.6345 758.4066,398.6345 C747.2228,398.6345 738.2996,395.3393 731.6133,388.7734 C725.0471,382.1831 721.7521,373.0918 721.7521,361.4267 C721.7521,349.7859 725.0953,340.6703 731.7575,334.1041 C738.4439,327.4418 747.3189,324.0989 758.4066,324.0989 C763.0968,324.0989 767.9792,325.7824 773.0541,329.1738 C773.2466,329.1738 773.9198,328.4762 775.0502,327.0572 C776.253,325.5418 777.2871,324.7963 778.153,324.7963 L806.3413,324.7963 L806.3413,326.2153 C798.8131,326.2153 795.0611,329.5103 795.0611,336.0765 L795.0611,388.8936 C795.0611,400.7509 791.4535,409.9144 784.2138,416.4083 C776.9744,422.9745 766.9689,426.2695 754.1736,426.2695 C746.1884,426.2695 738.4439,424.201 730.9157,420.0642 L731.7575,418.7894 C738.9009,422.8302 746.3809,424.8505 754.1736,424.8505 C760.932,424.8505 765.646,423.0706 768.2678,419.487 C770.9134,416.0237 772.3083,410.5159 772.5008,402.9877 L772.5008,393.9684 Z" id="Combined-Shape"></path>
        </g>
    </g>
</svg>