<?xml version="1.0" encoding="UTF-8"?>
<svg width="258px" height="39px" viewBox="0 0 258 39" version="1.1" xmlns="http://www.w3.org/2000/svg" xmlns:xlink="http://www.w3.org/1999/xlink">
    <!-- Generator: Sketch 54.1 (76490) - https://sketchapp.com -->
    <title>Combined Shape</title>
    <desc>Created with Sketch.</desc>
    <g id="Page-1" stroke="none" stroke-width="1" fill="none" fill-rule="evenodd">
        <g id="NETOKRACIJA---Logo-Master-File-(RGB)" transform="translate(-71.000000, -1481.000000)" fill="#FFFFFF">
            <path d="M176.69,1510.51 L178.679,1493.83 L171.901,1493.83 L172.337,1490.18 L189.539,1490.18 L189.104,1493.83 L182.327,1493.83 L180.339,1510.51 L176.69,1510.51 Z M236.65,1499.97 L242.94,1499.97 C244.629,1499.97 246.165,1498.59 246.366,1496.91 C246.463,1496.08 246.233,1495.31 245.715,1494.73 C245.203,1494.15 244.47,1493.83 243.653,1493.83 L237.383,1493.83 L236.65,1499.97 Z M244.744,1510.51 L244.961,1508.7 C245.198,1506.71 244.519,1504.85 243.097,1503.6 C243.056,1503.6 243.018,1503.6 242.979,1503.6 C242.793,1503.6 242.641,1503.61 242.488,1503.61 L236.215,1503.61 L235.393,1510.51 L231.746,1510.51 L234.169,1490.18 L244.108,1490.18 C245.89,1490.18 247.485,1490.87 248.601,1492.13 C249.728,1493.4 250.229,1495.09 250.016,1496.89 C249.78,1498.87 248.686,1500.74 247.014,1502.02 L246.949,1502.07 L246.994,1502.13 C248.322,1503.96 248.896,1506.28 248.612,1508.68 L248.394,1510.51 L244.744,1510.51 Z M223.507,1510.51 L223.724,1508.7 C224.021,1506.21 222.842,1503.9 220.72,1502.82 C219.233,1503.34 217.785,1503.61 216.356,1503.61 C216.253,1503.61 216.15,1503.61 216.05,1503.6 L215.975,1503.6 L215.887,1503.67 L215.074,1510.51 L211.426,1510.51 L213.848,1490.18 L217.496,1490.18 L216.333,1499.94 L216.56,1499.96 C216.643,1499.96 216.726,1499.97 216.811,1499.97 C221.198,1499.97 225.188,1496.4 225.712,1492.01 L225.933,1490.18 L229.579,1490.18 L229.362,1492 C228.974,1495.26 227.194,1498.4 224.483,1500.61 L224.409,1500.67 L224.479,1500.73 C226.688,1502.68 227.744,1505.57 227.373,1508.68 L227.155,1510.51 L223.507,1510.51 Z M293.514,1510.51 L295.937,1490.18 L299.583,1490.18 L297.161,1510.51 L293.514,1510.51 Z M304.362,1490.18 L308.011,1490.18 L305.63,1510.16 C305.032,1515.17 300.471,1519.25 295.46,1519.25 L295.913,1515.6 C298.902,1515.6 301.623,1513.16 301.979,1510.18 L304.362,1490.18 Z M263.44,1493.83 C260.802,1493.83 258.401,1495.97 258.085,1498.61 L257.702,1501.83 L267.29,1501.83 L267.672,1498.63 C267.824,1497.35 267.463,1496.14 266.656,1495.23 C265.856,1494.33 264.715,1493.83 263.44,1493.83 Z M266.256,1510.51 L266.856,1505.48 L257.27,1505.48 L256.668,1510.51 L253.021,1510.51 L254.436,1498.63 C254.992,1493.97 259.234,1490.18 263.895,1490.18 C266.133,1490.18 268.137,1491.05 269.541,1492.63 C270.958,1494.23 271.591,1496.35 271.321,1498.61 L269.903,1510.51 L266.256,1510.51 Z M320.563,1493.83 C317.926,1493.83 315.524,1495.97 315.21,1498.61 L314.826,1501.83 L324.414,1501.83 L324.795,1498.63 C324.947,1497.35 324.589,1496.14 323.779,1495.23 C322.979,1494.33 321.838,1493.83 320.563,1493.83 Z M323.379,1510.51 L323.979,1505.48 L314.393,1505.48 L313.79,1510.51 L310.144,1510.51 L311.559,1498.63 C312.115,1493.97 316.358,1490.18 321.018,1490.18 C323.256,1490.18 325.262,1491.05 326.664,1492.63 C328.083,1494.23 328.715,1496.35 328.444,1498.61 L327.026,1510.51 L323.379,1510.51 Z M282.112,1510.51 C279.858,1510.51 277.845,1509.63 276.442,1508.04 C275.04,1506.45 274.417,1504.33 274.686,1502.08 L275.096,1498.63 C275.362,1496.38 276.497,1494.25 278.283,1492.66 C280.072,1491.06 282.299,1490.18 284.555,1490.18 C286.808,1490.18 288.82,1491.06 290.223,1492.65 L291.357,1493.93 L288.461,1496.52 L287.327,1495.24 C286.529,1494.33 285.383,1493.83 284.101,1493.83 C282.821,1493.83 281.561,1494.33 280.55,1495.23 C279.539,1496.13 278.897,1497.33 278.745,1498.61 L278.335,1502.06 C278.183,1503.34 278.538,1504.55 279.338,1505.45 C280.137,1506.36 281.282,1506.86 282.566,1506.86 C283.845,1506.86 285.106,1506.36 286.117,1505.46 L287.564,1504.17 L289.83,1506.74 L288.382,1508.03 C286.597,1509.63 284.369,1510.51 282.112,1510.51 Z M200.636,1493.83 C199.358,1493.83 198.098,1494.33 197.088,1495.23 C196.077,1496.13 195.436,1497.33 195.284,1498.61 L194.872,1502.06 C194.72,1503.34 195.075,1504.55 195.874,1505.45 C196.675,1506.36 197.821,1506.86 199.104,1506.86 C200.382,1506.86 201.638,1506.36 202.648,1505.46 C203.659,1504.56 204.301,1503.35 204.452,1502.08 L204.863,1498.63 C205.016,1497.35 204.659,1496.15 203.862,1495.24 C203.063,1494.33 201.913,1493.83 200.636,1493.83 Z M198.648,1510.51 C196.396,1510.51 194.383,1509.63 192.98,1508.04 C191.577,1506.45 190.954,1504.33 191.222,1502.08 L191.632,1498.63 C191.902,1496.38 193.034,1494.25 194.821,1492.66 C196.608,1491.06 198.835,1490.18 201.091,1490.18 C203.339,1490.18 205.353,1491.06 206.755,1492.65 C208.156,1494.24 208.782,1496.36 208.512,1498.61 L208.104,1502.06 C207.833,1504.32 206.701,1506.44 204.914,1508.03 C203.128,1509.63 200.905,1510.51 198.648,1510.51 Z M152.125,1510.51 L154.548,1490.18 L168.386,1490.18 L167.95,1493.83 L157.761,1493.83 L157.202,1498.52 L166.282,1498.52 L165.848,1502.17 L156.768,1502.17 L156.208,1506.86 L166.397,1506.86 L165.962,1510.51 L152.125,1510.51 Z M134.162,1497.01 L132.554,1510.51 L128.906,1510.51 L131.362,1490.18 L134.514,1490.18 L144.489,1503.68 L146.098,1490.18 L149.712,1490.18 L147.29,1510.51 L144.138,1510.51 L134.162,1497.01 Z M107.914,1498.39 C114.956,1499.42 115.447,1491.75 115.433,1491.84 C114.041,1493 112.208,1493.74 110.184,1493.78 C106.342,1493.85 102.186,1491.59 97.845,1489.24 C93.892,1487.1 89.803,1484.88 86.367,1484.77 C78.072,1484.5 78.181,1492.2 78.181,1492.2 C80.735,1490.33 82.668,1489.88 86.29,1490.16 C86.687,1490.2 87.086,1490.26 87.487,1490.33 C88.055,1489.84 88.783,1489.54 89.589,1489.54 C91.085,1489.54 92.331,1490.55 92.713,1491.92 C94.575,1492.7 96.442,1493.63 98.282,1494.56 C101.604,1496.24 105.042,1497.97 107.914,1498.39 Z M107.056,1506.69 C114.432,1507.34 114.427,1500.08 114.424,1500.13 C114.302,1500.23 114.179,1500.32 114.053,1500.41 C111.4,1502.25 108.851,1502.11 106.935,1501.83 C103.56,1501.33 99.904,1499.49 96.364,1497.7 C94.759,1496.9 93.132,1496.08 91.535,1495.39 C90.992,1495.8 90.322,1496.05 89.589,1496.05 C88.128,1496.05 86.908,1495.08 86.495,1493.76 C86.17,1493.7 85.845,1493.65 85.53,1493.62 C77.204,1492.97 77.106,1500.84 77.116,1500.92 C79.364,1499.24 82.244,1498.58 85.628,1499.02 C89.196,1499.49 92.996,1501.27 96.67,1503 C97.898,1503.57 99.137,1504.15 100.363,1504.67 C100.867,1504.35 101.463,1504.16 102.107,1504.16 C103.533,1504.16 104.732,1505.08 105.172,1506.36 C105.82,1506.51 106.452,1506.64 107.056,1506.69 Z M106.199,1515 C113.45,1515.22 113.387,1508.63 113.412,1508.42 C110.58,1510.47 108.022,1510.3 106.273,1510.15 C105.619,1510.09 104.954,1509.97 104.283,1509.82 C103.706,1510.35 102.947,1510.67 102.107,1510.67 C100.517,1510.67 99.196,1509.53 98.91,1508.02 C97.548,1507.44 96.18,1506.81 94.83,1506.17 C91.366,1504.55 87.787,1502.87 84.704,1502.47 C76.337,1501.37 76.054,1509.51 76.059,1509.6 C76.647,1509.16 77.269,1508.78 77.928,1508.49 C83.168,1506.14 88.835,1508.78 94.879,1511.41 C98.797,1513.12 102.849,1514.89 106.199,1515 Z M116.77,1481.15 L120.211,1481.15 L116.864,1508.57 C116.472,1511.8 115.26,1514.31 113.264,1516.04 C111.457,1517.6 109.14,1518.42 106.372,1518.47 C106.119,1518.48 105.864,1518.47 105.605,1518.46 C101.629,1518.34 97.298,1516.45 93.112,1514.62 C87.922,1512.36 82.553,1510.02 78.988,1511.62 C77.441,1512.31 75.685,1513.86 75.215,1516.13 L74.937,1518.4 L71.494,1518.4 L74.829,1491.21 C75.185,1488.29 76.441,1485.81 78.459,1484.06 C80.665,1482.15 83.603,1481.19 86.959,1481.3 C91.161,1481.44 95.572,1483.83 99.839,1486.14 C104.556,1488.7 109.435,1491.34 112.519,1489.89 C114.003,1489.18 115.789,1487.11 116.356,1484.26 L116.387,1484.26 L116.77,1481.15 Z" id="Combined-Shape"></path>
        </g>
    </g>
</svg>