<?xml version="1.0" encoding="UTF-8"?>
<svg width="443px" height="110px" viewBox="0 0 443 110" version="1.1" xmlns="http://www.w3.org/2000/svg" xmlns:xlink="http://www.w3.org/1999/xlink">
    <!-- Generator: Sketch 54.1 (76490) - https://sketchapp.com -->
    <title>Combined Shape</title>
    <desc>Created with Sketch.</desc>
    <g id="Page-1" stroke="none" stroke-width="1" fill="none" fill-rule="evenodd">
        <g id="splitski-portal-logo" transform="translate(-89.000000, -427.000000)" fill="#FFFFFF">
            <path d="M442.4795,512.7832 L446.7775,514.6062 L447.6895,514.9972 L448.7305,515.2572 L449.6425,515.5172 L450.6855,515.7772 L451.7275,516.0392 L452.6395,516.1692 L453.6815,516.3002 L454.7225,516.4302 L455.7645,516.5602 L456.8055,516.5602 L457.8475,516.5602 L458.8905,516.4302 L459.9315,516.4302 L460.9735,516.3002 L462.0155,516.1692 L463.1895,515.9082 L464.2305,515.6482 L465.4025,515.3882 L466.4445,515.1272 L467.4855,514.7362 L468.5285,514.3452 L469.5705,513.9552 L470.4815,513.4332 L471.5225,513.0442 L472.4355,512.3922 L473.2165,511.8712 L474.1285,511.2202 L474.9105,510.5682 L475.6915,509.9182 L476.4725,509.2652 L477.1245,508.4852 L477.7755,507.7042 L478.4265,506.9222 L479.0785,506.0102 L479.4685,505.2282 L479.9895,504.3172 L480.3805,503.4062 L480.7705,502.4942 L481.0315,501.5822 L481.2915,500.6702 L481.5525,499.6292 L481.6825,498.7172 L481.6825,497.6762 L481.8125,496.6332 L481.6825,495.7212 L481.6825,494.6792 L481.5525,493.7672 L481.2915,492.5962 L481.0315,491.6832 L480.7705,490.6412 L480.5105,489.6002 L480.1205,488.6872 L479.5975,487.7762 L479.2085,486.7352 L478.6865,485.9532 L478.0355,485.0412 L477.5145,484.2602 L476.8645,483.4782 L476.2105,482.8272 L475.4305,482.0452 L474.6495,481.5252 L473.8675,480.8732 L473.0855,480.3512 L472.1735,479.7012 L471.1335,479.1802 L470.0905,478.6582 L468.9185,478.1382 L467.7465,477.7482 L466.4445,477.2262 L465.0105,476.8362 L463.7095,476.3142 L462.4065,475.9252 L461.3655,475.5332 L460.3235,475.1422 L459.4115,474.8832 L458.4985,474.4922 L457.8475,474.1012 L457.1975,473.7112 L456.6765,473.3202 L456.1545,473.0582 L455.8945,472.7992 L455.6335,472.5382 L455.3735,472.2772 L455.3735,472.1472 L455.2425,472.1472 L455.2425,472.0172 L455.2425,471.8872 L455.2425,471.6272 L455.2425,471.3652 L455.2425,471.2362 L455.2425,471.1052 L455.3735,470.9742 L455.3735,470.8452 L455.5025,470.8452 L455.5025,470.7142 L455.6335,470.5842 L455.7645,470.4552 L456.0255,470.3242 L456.2855,470.3242 L456.5465,470.1932 L456.9365,470.0622 L457.4585,469.9332 L457.8475,469.9332 L458.3695,469.8032 L460.8435,469.4122 L461.6255,469.2812 L466.5745,468.5012 L478.0355,466.6762 L485.3295,511.0902 L503.1725,508.2242 L495.8775,463.6812 L513.0725,460.8162 L510.3355,444.4062 L454.8535,453.5232 L454.4605,453.6522 L454.3325,453.6522 L453.5495,453.7832 L452.5075,454.0432 L451.5955,454.3042 L450.5545,454.5642 L449.6425,454.8262 L448.7305,455.2172 L447.9505,455.6072 L447.0395,456.1272 L446.2575,456.5182 L445.3445,457.0392 L444.5645,457.6892 L443.9115,458.2122 L443.1305,458.8632 L442.4795,459.5132 L441.8285,460.2952 L441.1775,460.9452 L440.6565,461.7272 L440.0045,462.5102 L439.6145,463.2912 L439.0915,464.2032 L438.7025,464.9832 L438.3115,465.8962 L438.0515,466.6762 L437.7915,467.5902 L437.5305,468.5012 L437.4005,469.4122 L437.2705,470.3242 L437.2705,471.3652 L437.2705,472.2772 L437.2705,473.1892 L437.4005,474.1012 L437.5305,475.1422 L437.6605,476.0542 L437.9195,477.0962 L438.1815,478.0082 L438.4415,478.9202 L438.8335,479.8322 L439.2225,480.7442 L439.7455,481.5252 L440.1355,482.3062 L440.6565,483.0882 L441.3075,483.8692 L441.8285,484.5202 L442.4795,485.3022 L443.1305,485.9532 L443.9115,486.4742 L444.5645,487.1252 L445.3445,487.6462 L446.2575,488.1682 L447.2975,488.6872 L448.3405,489.2092 L449.5135,489.7302 L450.8155,490.2512 L452.2485,490.7732 L453.6815,491.2932 L455.2425,491.8132 L456.8055,492.2052 L458.1095,492.7262 L459.2795,493.1162 L460.1915,493.6372 L460.9735,494.0272 L461.6255,494.4202 L462.1465,494.6792 L462.5375,494.9392 L462.7975,495.3312 L463.0575,495.5922 L463.3185,495.8512 L463.4485,496.1112 L463.5785,496.3712 L463.7095,496.6332 L463.8395,496.8922 L463.8395,497.1532 C463.9695,497.5452 463.7095,497.8042 463.4485,498.1952 C463.1895,498.3262 462.9275,498.4572 462.7975,498.5862 L461.7555,498.8462 L460.1915,499.2372 L459.8015,499.2372 L459.2795,499.3692 L458.7595,499.3692 L458.3695,499.3692 L457.8475,499.3692 L457.3275,499.2372 L456.8055,499.2372 L456.2855,499.1072 L455.7645,498.9762 L455.1145,498.8462 L454.5915,498.7172 L453.9395,498.5862 L453.4195,498.3262 L452.7675,498.0642 L452.1175,497.8042 L446.6475,495.2002 L442.4795,512.7832 Z M436.7485,437.8942 L500.9585,427.3442 C510.4655,425.7812 519.3225,432.1642 520.8855,441.6702 L531.4355,505.7502 C532.9985,515.1272 526.6165,524.1142 517.1095,525.6772 L452.8985,536.2272 C443.5225,537.7892 434.5355,531.4082 432.9715,521.9002 L422.4225,457.8202 C420.8605,448.4432 427.3725,439.4572 436.7485,437.8942 Z M398.3301,495.5605 L402.8011,495.5605 L402.8011,511.6215 L410.6841,511.6215 L410.6841,515.3865 L398.3301,515.3865 L398.3301,495.5605 Z M388.6541,506.9455 L387.4191,502.7385 C387.0651,501.5625 386.7131,500.0915 386.4191,498.9145 L386.3601,498.9145 C386.0661,500.0915 385.7721,501.5915 385.4491,502.7385 L384.2721,506.9455 L388.6541,506.9455 Z M383.6251,510.2965 L382.2131,515.3865 L377.5961,515.3865 L383.6251,495.5605 L389.5081,495.5605 L395.6841,515.3865 L390.8311,515.3865 L389.3021,510.2965 L383.6251,510.2965 Z M368.8611,499.3265 L363.5081,499.3265 L363.5081,495.5605 L378.7441,495.5605 L378.7441,499.3265 L373.3321,499.3265 L373.3321,515.3865 L368.8611,515.3865 L368.8611,499.3265 Z M352.0091,504.3555 L353.7731,504.3555 C356.0101,504.3555 357.3321,503.2385 357.3321,501.5015 C357.3321,499.7085 356.0981,498.7675 354.0381,498.7675 C352.9501,498.7675 352.3321,498.8275 352.0091,498.9145 L352.0091,504.3555 Z M347.5681,495.8265 C349.0091,495.5905 351.1271,495.4145 353.5391,495.4145 C356.4801,495.4145 358.5391,495.8555 359.9511,496.9725 C361.1571,497.9145 361.8051,499.3265 361.8051,501.1505 C361.8051,503.6505 360.0101,505.3865 358.3031,506.0035 L358.3031,506.0915 C359.6851,506.6505 360.4511,507.9435 360.9501,509.7675 C361.5681,512.0335 362.1561,514.6215 362.5391,515.3865 L357.9501,515.3865 C357.6561,514.7985 357.1561,513.2095 356.5981,510.7675 C356.0401,508.2675 355.1851,507.6215 353.3331,507.5915 L352.0091,507.5915 L352.0091,515.3865 L347.5681,515.3865 L347.5681,495.8265 Z M330.3041,505.5035 C330.3041,509.4155 332.1281,512.1505 335.1271,512.1505 C338.1571,512.1505 339.8921,509.2675 339.8921,505.4155 C339.8921,501.8265 338.2161,498.7675 335.1271,498.7675 C332.0681,498.7675 330.3041,501.6505 330.3041,505.5035 Z M344.6281,505.2675 C344.6281,511.7975 340.7161,515.7095 334.8921,515.7095 C329.0391,515.7095 325.5681,511.2675 325.5681,505.5915 C325.5681,499.6505 329.3921,495.2085 335.2161,495.2085 C341.3051,495.2085 344.6281,499.7675 344.6281,505.2675 Z M313.8341,504.8265 C314.2171,504.9155 314.6581,504.9455 315.3341,504.9455 C317.7171,504.9455 319.1871,503.7385 319.1871,501.7385 C319.1871,499.9145 317.9231,498.8275 315.6571,498.8275 C314.7751,498.8275 314.1571,498.8845 313.8341,498.9735 L313.8341,504.8265 Z M309.3931,495.8265 C310.7751,495.5905 312.7161,495.4145 315.4521,495.4145 C318.2171,495.4145 320.1871,495.9445 321.5111,497.0025 C322.8051,498.0035 323.6291,499.6505 323.6291,501.5915 C323.6291,503.5335 323.0111,505.2085 321.8061,506.2965 C320.2751,507.7085 318.0111,508.3865 315.3641,508.3865 C314.7751,508.3865 314.2461,508.3575 313.8341,508.2675 L313.8341,515.3865 L309.3931,515.3865 L309.3931,495.8265 Z M295.0991,515.3865 L295.0991,495.5605 L299.5701,495.5605 L299.5701,515.3865 L295.0991,515.3865 Z M277.0121,495.5605 L281.4531,495.5605 L281.4531,504.3265 L281.5121,504.3265 C281.9521,503.5625 282.4231,502.8555 282.8931,502.1505 L287.3651,495.5605 L292.8941,495.5605 L286.3351,504.0035 L293.2181,515.3865 L288.0121,515.3865 L283.1291,506.8275 L281.4531,508.9145 L281.4531,515.3865 L277.0121,515.3865 L277.0121,495.5605 Z M261.2771,510.7675 C262.4531,511.3865 264.3351,512.0035 266.2471,512.0035 C268.3071,512.0035 269.3951,511.1505 269.3951,509.8565 C269.3951,508.6215 268.4541,507.9155 266.0711,507.0915 C262.7771,505.9145 260.6001,504.0915 260.6001,501.2085 C260.6001,497.8265 263.4531,495.2675 268.1011,495.2675 C270.3651,495.2675 271.9831,495.7085 273.1601,496.2675 L272.1591,499.8555 C271.3951,499.4725 269.9541,498.9145 268.0421,498.9145 C266.1011,498.9145 265.1601,499.8265 265.1601,500.8265 C265.1601,502.0915 266.2471,502.6505 268.8371,503.6215 C272.3361,504.9155 273.9541,506.7385 273.9541,509.5335 C273.9541,512.8565 271.4241,515.6795 265.9831,515.6795 C263.7181,515.6795 261.4821,515.0625 260.3661,514.4455 L261.2771,510.7675 Z M249.1311,499.3265 L243.7771,499.3265 L243.7771,495.5605 L259.0141,495.5605 L259.0141,499.3265 L253.6021,499.3265 L253.6021,515.3865 L249.1311,515.3865 L249.1311,499.3265 Z M236.9241,515.3865 L236.9241,495.5605 L241.3961,495.5605 L241.3961,515.3865 L236.9241,515.3865 Z M221.8961,495.5605 L226.3681,495.5605 L226.3681,511.6215 L234.2501,511.6215 L234.2501,515.3865 L221.8961,515.3865 L221.8961,495.5605 Z M209.2211,504.8265 C209.6031,504.9155 210.0441,504.9455 210.7211,504.9455 C213.1031,504.9455 214.5741,503.7385 214.5741,501.7385 C214.5741,499.9145 213.3091,498.8275 211.0451,498.8275 C210.1611,498.8275 209.5431,498.8845 209.2211,498.9735 L209.2211,504.8265 Z M204.7801,495.8265 C206.1621,495.5905 208.1021,495.4145 210.8381,495.4145 C213.6031,495.4145 215.5741,495.9445 216.8971,497.0025 C218.1921,498.0035 219.0151,499.6505 219.0151,501.5915 C219.0151,503.5335 218.3971,505.2085 217.1911,506.2965 C215.6621,507.7085 213.3981,508.3865 210.7511,508.3865 C210.1611,508.3865 209.6321,508.3575 209.2211,508.2675 L209.2211,515.3865 L204.7801,515.3865 L204.7801,495.8265 Z M189.0451,510.7675 C190.2211,511.3865 192.1031,512.0035 194.0161,512.0035 C196.0751,512.0035 197.1631,511.1505 197.1631,509.8565 C197.1631,508.6215 196.2211,507.9155 193.8391,507.0915 C190.5441,505.9145 188.3691,504.0915 188.3691,501.2085 C188.3691,497.8265 191.2211,495.2675 195.8691,495.2675 C198.1341,495.2675 199.7501,495.7085 200.9281,496.2675 L199.9271,499.8555 C199.1631,499.4725 197.7211,498.9145 195.8101,498.9145 C193.8681,498.9145 192.9271,499.8265 192.9271,500.8265 C192.9271,502.0915 194.0161,502.6505 196.6041,503.6215 C200.1031,504.9155 201.7221,506.7385 201.7221,509.5335 C201.7221,512.8565 199.1921,515.6795 193.7511,515.6795 C191.4861,515.6795 189.2501,515.0625 188.1331,514.4455 L189.0451,510.7675 Z M391.6151,468.7675 C391.6151,464.1895 391.5521,461.2035 391.3611,458.5335 L399.6241,458.5335 L400.0061,464.2535 L400.2611,464.2535 C401.8491,459.6775 405.5991,457.7715 408.6501,457.7715 C409.5401,457.7715 409.9841,457.8335 410.6841,457.9615 L410.6841,467.0505 C409.9211,466.9235 409.1571,466.7965 408.0781,466.7965 C404.5181,466.7965 402.1031,468.7035 401.4691,471.6895 C401.3411,472.3265 401.2771,473.0875 401.2771,473.8515 L401.2771,489.6155 L391.6151,489.6155 L391.6151,468.7675 Z M355.5061,444.4875 L365.1681,444.4875 L365.1681,462.2835 L365.2951,462.2835 C366.3101,460.8845 367.5821,459.8045 369.1071,459.0405 C370.5691,458.2795 372.3491,457.8335 374.1301,457.8335 C380.2941,457.8335 384.9981,462.0935 384.9981,471.4995 L384.9981,489.6155 L375.3371,489.6155 L375.3371,472.5165 C375.3371,468.4495 373.9381,465.6525 370.3151,465.6525 C367.7721,465.6525 366.1841,467.3045 365.4851,469.0835 C365.2311,469.6565 365.1681,470.4825 365.1681,471.1815 L365.1681,489.6155 L355.5061,489.6155 L355.5061,444.4875 Z M339.4231,484.4665 C339.4231,480.9705 341.7751,478.5545 345.1431,478.5545 C348.4481,478.5545 350.7371,480.9065 350.8011,484.4665 C350.8011,487.8355 348.5121,490.3145 345.0161,490.3145 C341.7751,490.3145 339.4231,487.8355 339.4231,484.4665 Z M286.5941,468.4495 C286.5941,464.5725 286.4671,461.3305 286.3401,458.5335 L294.5401,458.5335 L294.9201,462.7285 L295.1121,462.7285 C296.4461,460.6955 299.2441,457.7715 304.5181,457.7715 C308.5861,457.7715 311.7011,459.8695 313.0351,463.1095 L313.1621,463.1095 C314.3701,461.4565 315.7051,460.1855 317.2301,459.2965 C318.9471,458.3425 320.8531,457.7715 323.1411,457.7715 C329.1161,457.7715 333.6291,461.9665 333.6291,471.3085 L333.6291,489.6155 L324.2231,489.6155 L324.2231,472.7065 C324.2231,468.1955 322.7611,465.5875 319.6461,465.5875 C317.3571,465.5875 315.8321,467.1145 315.1331,468.9565 C314.9411,469.6565 314.8151,470.6095 314.8151,471.4365 L314.8151,489.6155 L305.4081,489.6155 L305.4081,472.1345 C305.4081,468.2575 304.0111,465.5875 300.8941,465.5875 C298.4171,465.5875 296.9551,467.4965 296.3821,469.0215 C296.0651,469.7835 296.0011,470.6735 296.0011,471.4995 L296.0011,489.6155 L286.5941,489.6155 L286.5941,468.4495 Z M259.2571,474.0425 C259.2571,479.3805 261.4811,483.3845 265.6131,483.3845 C269.4261,483.3845 271.7781,479.6355 271.7781,473.9785 C271.7781,469.4025 269.9981,464.6995 265.6131,464.6995 C261.0371,464.6995 259.2571,469.4665 259.2571,474.0425 Z M281.7571,473.7245 C281.7571,485.1015 273.6851,490.3145 265.3581,490.3145 C256.2701,490.3145 249.2781,484.3395 249.2781,474.2965 C249.2781,464.1895 255.8881,457.7715 265.9311,457.7715 C275.4011,457.7715 281.7571,464.3165 281.7571,473.7245 Z M247.5561,488.7885 C245.8391,489.6155 242.5981,490.2495 238.9121,490.2495 C228.8691,490.2495 222.4501,484.0835 222.4501,474.3615 C222.4501,465.2715 228.6781,457.8335 240.2471,457.8335 C242.7881,457.8335 245.5861,458.2795 247.6201,459.0405 L246.0941,466.2245 C244.9501,465.7145 243.2331,465.2715 240.6911,465.2715 C235.6061,465.2715 232.3011,468.8945 232.3641,473.9785 C232.3641,479.6355 236.1781,482.6865 240.8821,482.6865 C243.1701,482.6865 244.9501,482.3045 246.4121,481.6695 L247.5561,488.7885 Z M208.1451,484.4665 C208.1451,480.9705 210.4971,478.5545 213.8671,478.5545 C217.1711,478.5545 219.4591,480.9065 219.5231,484.4665 C219.5231,487.8355 217.2351,490.3145 213.7391,490.3145 C210.4971,490.3145 208.1451,487.8355 208.1451,484.4665 Z M197.9711,450.1425 L197.9711,458.5335 L204.9001,458.5335 L204.9001,465.6525 L197.9711,465.6525 L197.9711,476.9025 C197.9711,480.6525 198.9251,482.3695 201.7861,482.3695 C203.1201,482.3695 203.7561,482.3045 204.6451,482.1145 L204.7091,489.4235 C203.5011,489.8695 201.1501,490.2495 198.4801,490.2495 C195.3651,490.2495 192.7601,489.1695 191.1701,487.5805 C189.3911,485.7385 188.5011,482.7495 188.5011,478.3655 L188.5011,465.6525 L184.3691,465.6525 L184.3691,458.5335 L188.5011,458.5335 L188.5011,452.7485 L197.9711,450.1425 Z M170.8931,489.6155 L170.8931,458.5335 L180.5541,458.5335 L180.5541,489.6155 L170.8931,489.6155 Z M180.8721,449.8895 C180.8721,452.5585 178.9011,454.7185 175.6601,454.7185 C172.6101,454.7185 170.6391,452.5585 170.6391,449.8895 C170.6391,447.1565 172.6731,445.0585 175.7871,445.0585 C178.9011,445.0585 180.8091,447.1565 180.8721,449.8895 Z M154.5551,489.6155 L154.5551,444.4875 L164.2171,444.4875 L164.2171,489.6155 L154.5551,489.6155 Z M127.3441,476.2675 C127.3441,477.0295 127.4071,477.6655 127.5351,478.3005 C128.1701,480.9065 130.3951,482.8765 133.1911,482.8765 C137.3871,482.8765 139.8651,479.3805 139.8651,474.1055 C139.8651,469.1485 137.6411,465.3985 133.3181,465.3985 C130.5851,465.3985 128.1701,467.4315 127.5351,470.2925 C127.4071,470.8005 127.3441,471.4365 127.3441,472.0075 L127.3441,476.2675 Z M117.6831,468.9565 C117.6831,464.8885 117.5561,461.4565 117.4291,458.5335 L125.8181,458.5335 L126.2641,462.8555 L126.3901,462.8555 C128.6791,459.6135 132.2381,457.8335 136.7501,457.8335 C143.5521,457.8335 149.6531,463.7465 149.6531,473.6615 C149.6531,484.9745 142.4721,490.3145 135.5431,490.3145 C131.7931,490.3145 128.8701,488.7885 127.4711,486.7535 L127.3441,486.7535 L127.3441,502.1995 L117.6831,502.1995 L117.6831,468.9565 Z M91.1741,481.2245 C92.9541,482.3045 96.6411,483.5135 99.4991,483.5135 C102.4241,483.5135 103.6311,482.5585 103.6311,480.9705 C103.6311,479.3185 102.6781,478.5545 99.1191,477.3475 C92.6361,475.1855 90.1571,471.6895 90.2211,468.0035 C90.2211,462.1565 95.1791,457.7715 102.8691,457.7715 C106.4921,457.7715 109.6701,458.6615 111.5771,459.6135 L109.9251,466.2875 C108.5251,465.5255 105.7921,464.5075 103.1861,464.5075 C100.8341,464.5075 99.4991,465.4615 99.4991,466.9865 C99.4991,468.5115 100.7081,469.2755 104.5211,470.6095 C110.4331,472.6445 112.8491,475.6955 112.9121,480.2075 C112.9121,486.0545 108.3991,490.3145 99.4991,490.3145 C95.4321,490.3145 91.8091,489.3595 89.4571,488.0885 L91.1741,481.2245 Z" id="Combined-Shape"></path>
        </g>
    </g>
</svg>