<?xml version="1.0" encoding="UTF-8"?>
<svg width="450px" height="141px" viewBox="0 0 450 141" version="1.1" xmlns="http://www.w3.org/2000/svg" xmlns:xlink="http://www.w3.org/1999/xlink">
    <!-- Generator: Sketch 53.2 (72643) - https://sketchapp.com -->
    <title>Combined-Shape</title>
    <desc>Created with Sketch.</desc>
    <g id="Page-1" stroke="none" stroke-width="1" fill="none" fill-rule="evenodd">
        <g id="theNextWeb" fill="#FFFFFF" fill-rule="nonzero">
            <path d="M269.319891,0.00381386624 C269.494963,0.001 269.588,0.001 269.588,0.001 C272.717,0.001 277.883,0.795 281.483,12.116 L298.326,65.089 L298.438006,65.9924069 L307.572,12.005 C309.6,0.008 316.959,0.017 319.742,0.017 L356.523363,0.00810725912 C356.809763,3.18423324e-05 356.967,0 356.967,0 C359.219,0 363.176,0 366.252,12.005 L379.82,64.927 L401.838,0.005 L449.838,0.005 L397.994,140.005 L356.994,140.005 L338.153928,56.1222364 L319.857,140.005 L285.916,140.005 L279.483,140.003 L259.483,88.8039091 L259.483,140.003 L239.623,140.003 C233.742,140.042 227.898,137.498 223.919,132.565 L169.483,63.731 L169.483,140.006 L129.483,140.006 L129.483,40.005 L91.484,40.005 L91.484,140.005 L51.484,140.005 L51.484,40.005 L14.812,40.005 L0,0.005 L119.485,0.005 C119.584709,0.005 119.684419,0.00538896895 119.784101,0.00615397676 L160.413,0.027 C166.103,0.027 172.416,2.747 176.343,7.933 L219.483,62.48 L219.483,12.005 C219.483,5.378 224.857,0.001 231.483,0.001 L269.589,0 C269.499016,0 269.409308,0.00127509894 269.319891,0.00381386624 Z" id="Combined-Shape"></path>
        </g>
    </g>
</svg>