<?xml version="1.0" encoding="UTF-8"?>
<svg width="872px" height="479px" viewBox="0 0 872 479" version="1.1" xmlns="http://www.w3.org/2000/svg" xmlns:xlink="http://www.w3.org/1999/xlink">
    <!-- Generator: Sketch 52.5 (67469) - http://www.bohemiancoding.com/sketch -->
    <title>Group 16</title>
    <desc>Created with Sketch.</desc>
    <g id="Page-1" stroke="none" stroke-width="1" fill="none" fill-rule="evenodd">
        <g id="final" transform="translate(-427.000000, -1845.000000)">
            <g id="BG-+-visual" transform="translate(-180.000000, 706.000000)">
                <g id="Group-16" transform="translate(607.000000, 1139.000000)">
                    <path d="M219.5,257 C209.83455,257 202,249.16489 202,239.500361 C202,229.83511 209.83455,222 219.5,222 C229.16545,222 237,229.83511 237,239.500361 C237,249.16489 229.16545,257 219.5,257" id="Fill-18" fill="#FF697E"></path>
                    <path d="M4.5,429 C2.01468241,429 0,426.985318 0,424.5 C0,422.014682 2.01468241,420 4.5,420 C6.98531759,420 9,422.014682 9,424.5 C9,426.985318 6.98531759,429 4.5,429" id="Fill-26" fill="#005DF2"></path>
                    <path d="M527.5,479 C526.119268,479 525,477.880732 525,476.5 C525,475.119268 526.119268,474 527.5,474 C528.880732,474 530,475.119268 530,476.5 C530,477.880732 528.880732,479 527.5,479" id="Fill-32" fill="#0FD895"></path>
                    <path d="M838.5,67 C819.997567,67 805,52.0013609 805,33.5006907 C805,14.9986391 819.997567,0 838.5,0 C857.002433,0 872,14.9986391 872,33.5006907 C872,52.0013609 857.002433,67 838.5,67" id="Fill-22" fill="#0FD895"></path>
                </g>
            </g>
        </g>
    </g>
</svg>