<?xml version="1.0" encoding="UTF-8"?>
<svg width="707px" height="315px" viewBox="0 0 707 315" version="1.1" xmlns="http://www.w3.org/2000/svg" xmlns:xlink="http://www.w3.org/1999/xlink">
    <!-- Generator: Sketch 52.5 (67469) - http://www.bohemiancoding.com/sketch -->
    <title>Group 17</title>
    <desc>Created with Sketch.</desc>
    <g id="Page-1" stroke="none" stroke-width="1" fill="none" fill-rule="evenodd">
        <g id="final" transform="translate(-18.000000, -1418.000000)">
            <g id="BG-+-visual" transform="translate(-180.000000, 706.000000)">
                <g id="Group-17" transform="translate(198.000000, 712.000000)">
                    <path d="M366,190 C363.238443,190 361,187.761397 361,185.000103 C361,182.238603 363.238443,180 366,180 C368.761557,180 371,182.238603 371,185.000103 C371,187.761397 368.761557,190 366,190" id="Fill-18" fill="#0FD895"></path>
                    <path d="M96,108 C92.1339504,108 89,104.86605 89,101 C89,97.1339504 92.1339504,94 96,94 C99.8660496,94 103,97.1339504 103,101 C103,104.86605 99.8660496,108 96,108" id="Fill-26" fill="#005DF2"></path>
                    <path d="M700,14 C696.13395,14 693,10.8660496 693,7 C693,3.13395042 696.13395,0 700,0 C703.86605,0 707,3.13395042 707,7 C707,10.8660496 703.86605,14 700,14" id="Fill-32" fill="#005DF2"></path>
                    <path d="M0,311 C0,313.209166 1.79103564,315 4.00012238,315 C6.20920912,315 8,313.209166 8,311 C8,308.79108 6.20920912,307 4.00012238,307 C1.79103564,307 0,308.79108 0,311 Z" id="Clip-16" fill="#FFCF6E"></path>
                </g>
            </g>
        </g>
    </g>
</svg>