<?xml version="1.0" encoding="UTF-8"?>
<svg width="1299px" height="419px" viewBox="0 0 1299 419" version="1.1" xmlns="http://www.w3.org/2000/svg" xmlns:xlink="http://www.w3.org/1999/xlink">
    <!-- Generator: Sketch 52.5 (67469) - http://www.bohemiancoding.com/sketch -->
    <title>Group 27</title>
    <desc>Created with Sketch.</desc>
    <g id="Page-1" stroke="none" stroke-width="1" fill="none" fill-rule="evenodd">
        <g id="final" transform="translate(-41.000000, -3985.000000)">
            <g id="BG-+-visual" transform="translate(-180.000000, 769.000000)">
                <g id="12-footer" transform="translate(220.000000, 2941.000000)">
                    <g id="Group-14" transform="translate(659.000000, 787.500000) rotate(-180.000000) translate(-659.000000, -787.500000) ">
                        <g id="Group-37" transform="translate(0.450138, 0.000000)">
                            <g id="agenda-bg" transform="translate(-0.000000, 0.000000)">
                                <g id="Group-27" transform="translate(17.000000, 881.000000)">
                                    <path d="M780.049862,373 C778.66913,373 777.549862,371.880732 777.549862,370.5 C777.549862,369.119268 778.66913,368 780.049862,368 C781.430594,368 782.549862,369.119268 782.549862,370.5 C782.549862,371.880732 781.430594,373 780.049862,373" id="Fill-32" fill="#0FD895" transform="translate(780.049862, 370.500000) rotate(180.000000) translate(-780.049862, -370.500000) "></path>
                                    <path d="M1291.54986,16 C1287.13137,16 1283.54986,12.4182354 1283.54986,8.00016495 C1283.54986,3.58176457 1287.13137,2.27373675e-13 1291.54986,2.27373675e-13 C1295.96835,2.27373675e-13 1299.54986,3.58176457 1299.54986,8.00016495 C1299.54986,12.4182354 1295.96835,16 1291.54986,16" id="Fill-18" fill="#FF697E" transform="translate(1291.549862, 8.000000) rotate(180.000000) translate(-1291.549862, -8.000000) "></path>
                                    <path d="M61.3364834,373.7052 L136.485898,373.706664 L136.485898,410.765747 L1.86675743,410.765747 L1.42730431,383.96057 L65.5874606,316.283325 C82.141659,298.706664 93.1279871,284.497679 93.1279871,267.943481 C93.1279871,251.976684 81.7007418,239.964965 65.735409,239.964965 C51.0869715,239.964965 38.9287683,247.141236 29.8467371,262.23059 L0.549862097,241.283325 C12.5615808,219.458617 34.3877527,202.319945 68.8101168,202.319945 C103.233945,202.319945 134.288632,225.171507 134.288632,263.550414 C134.288632,286.841429 126.814999,305.150512 100.156307,332.836059 L61.3364834,372.972778 L61.3364834,373.7052 Z M253.739945,413.254517 L253.741412,413.253051 C206.13399,413.253051 173.469438,374.437622 173.469438,307.787231 C173.469438,244.79895 203.938188,202.318481 253.741412,202.318481 C301.495318,202.318481 334.161334,241.138304 334.161334,307.787231 C334.161334,370.775512 303.840532,413.254517 253.739945,413.254517 Z M253.887896,375.316528 C277.764849,375.316528 292.413287,351.439575 292.413287,307.787231 C292.413287,266.039184 278.204302,240.259398 253.887896,240.259398 C230.157427,240.259398 215.217485,264.136351 215.217485,307.785765 C215.217485,349.243773 229.572954,375.316528 253.887896,375.316528 Z M414.505715,410.764283 L414.505715,253.734497 L379.936867,279.660767 L360.30796,249.339965 L422.70884,204.808715 L455.52134,204.808715 L455.52134,410.764283 L414.505715,410.764283 Z M574.978514,202.318481 L574.97998,202.318483 C618.044922,202.318483 649.539063,235.570436 649.539063,284.935671 C649.539063,352.904421 604.275391,406.079713 539.529297,418.234986 L527.517579,385.277465 C564.871094,374.878539 590.652344,357.445434 602.664063,327.562622 L602.371094,327.416137 C591.093261,333.714965 577.616699,337.084106 564.137206,337.084106 C529.714842,337.084106 501.147458,313.060668 501.147458,270.874632 C501.147458,230.296997 533.520505,202.318481 574.978514,202.318481 Z M541.139159,271.605593 L541.139159,271.607057 C541.139159,289.769655 553.8833,302.806764 574.684081,302.806764 C588.891601,302.806764 602.22461,294.603639 610.574219,284.203249 L610.574219,281.713014 C610.574219,255.931764 595.631349,239.086061 575.564454,239.086061 C554.618652,239.086061 541.139159,254.026004 541.139159,271.605593 Z" id="2019-copy" fill="#FFFFFF" opacity="0.0365513393" transform="translate(325.044462, 310.276733) rotate(-180.000000) translate(-325.044462, -310.276733) "></path>
                                </g>
                            </g>
                        </g>
                    </g>
                </g>
            </g>
        </g>
    </g>
</svg>