<?xml version="1.0" encoding="UTF-8"?>
<svg width="1242px" height="388px" viewBox="0 0 1242 388" version="1.1" xmlns="http://www.w3.org/2000/svg" xmlns:xlink="http://www.w3.org/1999/xlink">
    <!-- Generator: Sketch 52.5 (67469) - http://www.bohemiancoding.com/sketch -->
    <title>Group 28</title>
    <desc>Created with Sketch.</desc>
    <g id="Page-1" stroke="none" stroke-width="1" fill="none" fill-rule="evenodd">
        <g id="final" transform="translate(-115.000000, -4894.000000)">
            <g id="BG-+-visual" transform="translate(-180.000000, 769.000000)">
                <g id="12-footer" transform="translate(220.000000, 2941.000000)">
                    <g id="Group-14" transform="translate(659.000000, 787.500000) rotate(-180.000000) translate(-659.000000, -787.500000) ">
                        <g id="Group-37" transform="translate(0.450138, 0.000000)">
                            <g id="agenda-bg" transform="translate(-0.000000, 0.000000)">
                                <g id="Group-28">
                                    <path d="M203.049862,231 C201.116772,231 199.549862,229.432978 199.549862,227.500072 C199.549862,225.567022 201.116772,224 203.049862,224 C204.982952,224 206.549862,225.567022 206.549862,227.500072 C206.549862,229.432978 204.982952,231 203.049862,231" id="Fill-18" fill="#FF697E" transform="translate(203.049862, 227.500000) rotate(180.000000) translate(-203.049862, -227.500000) "></path>
                                    <path d="M1239.04986,83 C1237.11677,83 1235.54986,81.432978 1235.54986,79.5000722 C1235.54986,77.567022 1237.11677,76 1239.04986,76 C1240.98295,76 1242.54986,77.567022 1242.54986,79.5000722 C1242.54986,81.432978 1240.98295,83 1239.04986,83" id="Fill-18" fill="#005DF2" transform="translate(1239.049862, 79.500000) rotate(180.000000) translate(-1239.049862, -79.500000) "></path>
                                    <path d="M33.0498621,86 C15.1003462,86 0.549862097,71.4495159 0.549862097,53.5 C0.549862097,35.5504841 15.1003462,21 33.0498621,21 C50.999378,21 65.5498621,35.5504841 65.5498621,53.5 C65.5498621,71.4495159 50.999378,86 33.0498621,86" id="Fill-32" fill="#005DF2" transform="translate(33.049862, 53.500000) rotate(180.000000) translate(-33.049862, -53.500000) "></path>
                                    <path d="M415.549862,13 C412.788305,13 410.549862,10.7613971 410.549862,8.00010309 C410.549862,5.23860286 412.788305,3 415.549862,3 C418.311419,3 420.549862,5.23860286 420.549862,8.00010309 C420.549862,10.7613971 418.311419,13 415.549862,13" id="Fill-18" fill="#0FD895" transform="translate(415.549862, 8.000000) rotate(180.000000) translate(-415.549862, -8.000000) "></path>
                                    <path d="M289.778497,217.296521 C289.778497,242.011521 309.840497,262.045521 334.585497,262.045521 C359.331497,262.045521 379.392497,242.011521 379.392497,217.296521 C379.392497,192.580521 359.331497,172.544521 334.585497,172.544521 C309.840497,172.544521 289.778497,192.580521 289.778497,217.296521 Z" id="Clip-3" fill="#0FD895" transform="translate(334.585497, 217.295021) rotate(120.000000) translate(-334.585497, -217.295021) "></path>
                                    <path d="M33.6265588,130.070277 L482.973559,389.168277" id="Stroke-6" stroke="#FFFFFF" stroke-width="2" stroke-linejoin="round" transform="translate(258.300059, 259.619277) rotate(120.000000) translate(-258.300059, -259.619277) "></path>
                                    <path d="M197.166829,190.124262 C261.236829,190.124262 313.174829,241.999262 313.174829,305.990262 C313.174829,369.979262 261.236829,421.854262 197.166829,421.854262" id="Stroke-73" stroke="#FFFFFF" stroke-width="2" stroke-linejoin="round" transform="translate(255.170829, 305.989262) rotate(120.000000) translate(-255.170829, -305.989262) "></path>
                                </g>
                            </g>
                        </g>
                    </g>
                </g>
            </g>
        </g>
    </g>
</svg>