<?xml version="1.0" encoding="UTF-8"?>
<svg width="1440px" height="1137px" viewBox="0 0 1440 1137" version="1.1" xmlns="http://www.w3.org/2000/svg" xmlns:xlink="http://www.w3.org/1999/xlink">
    <!-- Generator: Sketch 52.6 (67491) - http://www.bohemiancoding.com/sketch -->
    <title>crypto-bg</title>
    <desc>Created with Sketch.</desc>
    <g id="Page-1" stroke="none" stroke-width="1" fill="none" fill-rule="evenodd">
        <g id="crypto-bg">
            <rect id="Rectangle-2" fill="#0E1E30" x="0" y="0" width="1440" height="1137"></rect>
            <polygon id="Fill-17" fill="#0FD895" points="1228.171 826.332 1228.171 623.244 1194 603.85 1194 806.937"></polygon>
            <polygon id="Fill-19" fill="#005DF2" points="1296.172 826.665 1296.172 686.244 1262 666.85 1262 807.27"></polygon>
            <polygon id="Fill-21" fill="#FFCF6E" points="1364.171 826.715 1364.171 751.244 1330 731.85 1330 807.32"></polygon>
            <polygon id="Fill-23" fill-opacity="0.1" fill="#0FD895" points="1070 121.849 1176.011 121.849 1203.253 73.85 1097.243 73.85"></polygon>
            <polygon id="Fill-25" fill-opacity="0.1" fill="#005DF2" points="1085 1093.274 1337.722 1093.274 1402.665 978.85 1149.946 978.85"></polygon>
            <polygon id="Fill-25-Copy" fill="#0FD895" opacity="0.100000001" points="292 104 443.95222 104 483 35 331.049584 35"></polygon>
            <polygon id="Fill-27" fill-opacity="0.1" fill="#005DF2" points="1288.188 54.85 1245.874 54.85 1235 74.009 1277.314 74.009"></polygon>
            <polygon id="Fill-29" fill-opacity="0.1" fill="#005DF2" points="55.1514 1101.0326 169.5014 1101.0326 198.8864 1049.2586 84.5384 1049.2586"></polygon>
            <path d="M198.366,116.629 C174.968,116.629 156,97.684 156,74.315 C156,50.945 174.968,32 198.366,32 C221.764,32 240.732,50.945 240.732,74.315 C240.732,97.684 221.764,116.629 198.366,116.629" id="Fill-31" fill="#FFCF6E"></path>
            <path d="M106,634 C94.4020677,634 85,624.597904 85,613.000248 C85,601.402096 94.4020677,592 106,592 C117.597932,592 127,601.402096 127,613.000248 C127,624.597904 117.597932,634 106,634" id="Fill-31-Copy" fill="#0FD895"></path>
            <path d="M85.6108,953.2578 L184.4088,953.2578 C203.3068,953.2578 218.6278,937.9378 218.6278,919.0388 C218.6278,900.1408 233.9478,884.8198 252.8458,884.8198 L654.4638,884.8198" id="Stroke-80" stroke="#FFFFFF" stroke-width="2" stroke-linejoin="round"></path>
            <path d="M1269,111.115 C1269,96.691 1280.692,85 1295.114,85 C1309.537,85 1321.229,96.691 1321.229,111.115 C1321.229,125.537 1309.537,137.228 1295.114,137.228 C1280.692,137.228 1269,125.537 1269,111.115" id="Fill-82" fill="#52D2DF"></path>
            <path d="M1362,314.058 C1362,306.847 1367.847,301 1375.058,301 C1382.269,301 1388.114,306.847 1388.114,314.058 C1388.114,321.27 1382.269,327.116 1375.058,327.116 C1367.847,327.116 1362,321.27 1362,314.058" id="Fill-84" fill="#005DF2"></path>
            <path d="M1120,861.176 C1120,855.556 1124.556,851 1130.176,851 C1135.796,851 1140.352,855.556 1140.352,861.176 C1140.352,866.796 1135.796,871.352 1130.176,871.352 C1124.556,871.352 1120,866.796 1120,861.176" id="Fill-86" fill="#FF6C6C"></path>
            <path d="M993,971.871 C993,959.792 1002.792,950 1014.871,950 C1026.95,950 1036.742,959.792 1036.742,971.871 C1036.742,983.95 1026.95,993.743 1014.871,993.743 C1002.792,993.743 993,983.95 993,971.871" id="Fill-88" fill="#005DF2"></path>
            <path d="M1361,61.176 C1361,55.557 1365.556,51 1371.176,51 C1376.796,51 1381.353,55.557 1381.353,61.176 C1381.353,66.797 1376.796,71.353 1371.176,71.353 C1365.556,71.353 1361,66.797 1361,61.176" id="Fill-90" fill="#FFCF6E"></path>
            <path d="M101,677.696 C101,672.893 104.894,669 109.696,669 C114.5,669 118.394,672.893 118.394,677.696 C118.394,682.5 114.5,686.393 109.696,686.393 C104.894,686.393 101,682.5 101,677.696" id="Fill-92" fill="#009DFF"></path>
            <path d="M1320,453.944 C1320,451.766 1321.766,450 1323.944,450 C1326.122,450 1327.889,451.766 1327.889,453.944 C1327.889,456.122 1326.122,457.888 1323.944,457.888 C1321.766,457.888 1320,456.122 1320,453.944" id="Fill-94" fill="#52D2DF"></path>
            <path d="M858,972 L1189.059,972" id="Stroke-96" stroke="#FFFFFF" stroke-width="2" stroke-linejoin="round"></path>
            <path d="M1225,316 L1401.018,316" id="Stroke-98" stroke="#FFFFFF" stroke-width="2" stroke-linejoin="round"></path>
            <path d="M275.02,919.0391 C275.02,887.1681 249.183,861.3301 217.312,861.3301 C185.44,861.3301 159.603,887.1681 159.603,919.0391 C159.603,950.9111 185.44,976.7471 217.312,976.7471 C249.183,976.7471 275.02,950.9111 275.02,919.0391 Z" id="Stroke-100" stroke="#FFFFFF" stroke-width="2" stroke-linejoin="round"></path>
            <path d="M1394.802,561.4 C1394.802,530.251 1369.551,505 1338.402,505 C1307.252,505 1282,530.251 1282,561.4 C1282,592.549 1307.252,617.8 1338.402,617.8 C1369.551,617.8 1394.802,592.549 1394.802,561.4 Z" id="Stroke-102" stroke="#FFFFFF" stroke-width="2" stroke-linejoin="round"></path>
            <path d="M915.463,77.731 C915.463,54.684 896.779,36 873.731,36 C850.683,36 832,54.684 832,77.731 C832,100.78 850.683,119.463 873.731,119.463 C896.779,119.463 915.463,100.78 915.463,77.731 Z" id="Stroke-104" stroke="#FFFFFF" stroke-width="2" opacity="0.1" stroke-linejoin="round"></path>
            <polyline id="Stroke-106" stroke="#FFFFFF" stroke-width="2" stroke-linejoin="round" points="216.256 42 198 68.082 291.502 201.662"></polyline>
            <path d="M198.087,68 L44,68" id="Stroke-108" stroke="#FFFFFF" stroke-width="2" stroke-linejoin="round"></path>
            <path d="M748.2026,884.8203 L681.0116,884.8203" id="Stroke-110" stroke="#FFFFFF" stroke-width="2" stroke-linejoin="round"></path>
            <path d="M91.5,477.989 C89.015,477.989 87,475.977 87,473.495 C87,471.012 89.015,469 91.5,469 C93.985,469 96,471.012 96,473.495 C96,475.977 93.985,477.989 91.5,477.989" id="Fill-1" fill="#FF6C6C"></path>
            <path d="M1292.5,232 C1290.56691,232 1289,230.432978 1289,228.500072 C1289,226.567022 1290.56691,225 1292.5,225 C1294.43309,225 1296,226.567022 1296,228.500072 C1296,230.432978 1294.43309,232 1292.5,232" id="Fill-18" fill="#FF697E"></path>
            <path d="M1223.5,435 C1205.55048,435 1191,420.449516 1191,402.5 C1191,384.550484 1205.55048,370 1223.5,370 C1241.44952,370 1256,384.550484 1256,402.5 C1256,420.449516 1241.44952,435 1223.5,435" id="Fill-32" fill="#005DF2"></path>
            <path d="M648,74 C635.849558,74 626,64.1504415 626,52 C626,39.8495585 635.849558,30 648,30 C660.150442,30 670,39.8495585 670,52 C670,64.1504415 660.150442,74 648,74" id="Fill-32-Copy-2" fill="#005DF2"></path>
            <path d="M84.5,372.9992 C46.6679434,372.9992 16,342.331257 16,304.4992 C16,266.667143 46.6679434,235.9992 84.5,235.9992 C122.332057,235.9992 153,266.667143 153,304.4992 C153,342.331257 122.332057,372.9992 84.5,372.9992" id="Fill-32-Copy" fill="#FF6C6C"></path>
            <path d="M30,658 L225,545.065997" id="Stroke-6" stroke="#FFFFFF" stroke-linejoin="round"></path>
            <path d="M116.15104,527.866801 C148.183831,527.866801 174.15104,553.834522 174.15104,585.867302 C174.15104,617.89908 148.183831,643.866801 116.15104,643.866801" id="Stroke-73" stroke="#FFFFFF" stroke-linejoin="round" transform="translate(145.151040, 585.866801) rotate(-44.000000) translate(-145.151040, -585.866801) "></path>
            <circle id="Oval-2" fill="#FF6C6C" opacity="0.5" cx="638" cy="1058" r="36"></circle>
            <polygon id="Stroke-8" stroke="#FFFFFF" stroke-width="0.800000012" opacity="0.5" stroke-linejoin="round" points="597 1084 543 1052.7502 543 990.2502 597 959 651 990.2502 651 1052.7502"></polygon>
        </g>
    </g>
</svg>