<?xml version="1.0" encoding="UTF-8"?>
<svg width="1311px" height="227px" viewBox="0 0 1311 227" version="1.1" xmlns="http://www.w3.org/2000/svg" xmlns:xlink="http://www.w3.org/1999/xlink">
    <!-- Generator: Sketch 52.5 (67469) - http://www.bohemiancoding.com/sketch -->
    <title>Group 28</title>
    <desc>Created with Sketch.</desc>
    <g id="Page-1" stroke="none" stroke-width="1" fill="none" fill-rule="evenodd">
        <g id="final" transform="translate(-60.000000, -10126.000000)">
            <g id="BG-+-visual-2" transform="translate(-180.000000, 586.000000)">
                <g id="BG-+-visual">
                    <g id="Group-28" transform="translate(240.000000, 9540.000000)">
                        <path d="M1170.5,91 C1166.90998,91 1164,88.0898163 1164,84.500134 C1164,80.9101837 1166.90998,78 1170.5,78 C1174.09002,78 1177,80.9101837 1177,84.500134 C1177,88.0898163 1174.09002,91 1170.5,91" id="Fill-18" fill="#FFCF6E"></path>
                        <path d="M642.5,5 C641.119221,5 640,3.88069857 640,2.50005155 C640,1.11930143 641.119221,0 642.5,0 C643.880779,0 645,1.11930143 645,2.50005155 C645,3.88069857 643.880779,5 642.5,5" id="Fill-18" fill="#FF697E"></path>
                        <path d="M352.5,159 C350.014599,159 348,156.985257 348,154.500093 C348,152.014743 350.014599,150 352.5,150 C354.985401,150 357,152.014743 357,154.500093 C357,156.985257 354.985401,159 352.5,159" id="Fill-18" fill="#39A7B7"></path>
                        <path d="M5,111 C2.23844282,111 0,108.761397 0,106.000103 C0,103.238603 2.23844282,101 5,101 C7.76155718,101 10,103.238603 10,106.000103 C10,108.761397 7.76155718,111 5,111" id="Fill-18" fill="#0FD895"></path>
                        <path d="M1308.5,227 C1307.11922,227 1306,225.880699 1306,224.500052 C1306,223.119301 1307.11922,222 1308.5,222 C1309.88078,222 1311,223.119301 1311,224.500052 C1311,225.880699 1309.88078,227 1308.5,227" id="Fill-18" fill="#017FFF"></path>
                    </g>
                </g>
            </g>
        </g>
    </g>
</svg>