<?xml version="1.0" encoding="UTF-8"?>
<svg width="998px" height="646px" viewBox="0 0 998 646" version="1.1" xmlns="http://www.w3.org/2000/svg" xmlns:xlink="http://www.w3.org/1999/xlink">
    <!-- Generator: Sketch 52.5 (67469) - http://www.bohemiancoding.com/sketch -->
    <title>hero-bg</title>
    <desc>Created with Sketch.</desc>
    <g id="Page-1" stroke="none" stroke-width="1" fill="none" fill-rule="evenodd">
        <g id="hero-bg" transform="translate(0.000000, 1.000000)">
            <path d="M983.65,594.144 C983.65,597.878 986.68,600.904 990.418,600.904 C994.156,600.904 997.187,597.878 997.187,594.144 C997.187,590.411 994.156,587.385 990.418,587.385 C986.68,587.385 983.65,590.411 983.65,594.144 Z" id="Clip-40" fill="#005DF2"></path>
            <polygon id="Fill-17" fill="#0FD895" points="833.8062 439.5336 833.8062 236.4456 799.6352 217.0516 799.6352 420.1386"></polygon>
            <polygon id="Fill-19" fill="#005DF2" points="902.0562 439.5336 902.0562 299.1126 867.8842 279.7186 867.8842 420.1386"></polygon>
            <polygon id="Fill-21" fill="#FFCF6E" points="970.4692 439.5336 970.4692 364.0626 936.2982 344.6686 936.2982 420.1386"></polygon>
            <polygon id="Fill-23" fill-opacity="0.1" fill="#0FD895" points="652.8911 103.6117 758.9021 103.6117 786.1441 55.6127 680.1341 55.6127"></polygon>
            <polygon id="Fill-25" fill-opacity="0.1" fill="#005DF2" points="600.7407 630.3246 853.4627 630.3246 918.4057 515.9006 665.6867 515.9006"></polygon>
            <polygon id="Fill-27" fill-opacity="0.1" fill="#005DF2" points="871.1714 36.4535 828.8574 36.4535 817.9834 55.6125 860.2974 55.6125"></polygon>
            <polygon id="Fill-29" fill-opacity="0.1" fill="#005DF2" points="0.1514 644.0326 114.5014 644.0326 143.8864 592.2586 29.5384 592.2586"></polygon>
            <path d="M664.5122,371.1762 C641.1142,371.1762 622.1462,352.2312 622.1462,328.8622 C622.1462,305.4922 641.1142,286.5472 664.5122,286.5472 C687.9102,286.5472 706.8782,305.4922 706.8782,328.8622 C706.8782,352.2312 687.9102,371.1762 664.5122,371.1762" id="Fill-31" fill="#FFCF6E" opacity="0.05"></path>
            <path d="M851.9819,184.9066 C851.9819,170.4826 863.6739,158.7916 878.0959,158.7916 C892.5189,158.7916 904.2109,170.4826 904.2109,184.9066 C904.2109,199.3286 892.5189,211.0196 878.0959,211.0196 C863.6739,211.0196 851.9819,199.3286 851.9819,184.9066" id="Fill-82" fill="#52D2DF"></path>
            <path d="M954.27,250.7885 C954.27,243.5775 960.117,237.7305 967.328,237.7305 C974.539,237.7305 980.384,243.5775 980.384,250.7885 C980.384,258.0005 974.539,263.8465 967.328,263.8465 C960.117,263.8465 954.27,258.0005 954.27,250.7885" id="Fill-84" fill="#005DF2"></path>
            <path d="M750.3872,554.8412 C750.3872,549.2212 754.9432,544.6652 760.5632,544.6652 C766.1832,544.6652 770.7392,549.2212 770.7392,554.8412 C770.7392,560.4612 766.1832,565.0172 760.5632,565.0172 C754.9432,565.0172 750.3872,560.4612 750.3872,554.8412" id="Fill-86" fill="#FF6C6C"></path>
            <path d="M502.7993,592.2719 C502.7993,580.1929 512.5913,570.4009 524.6703,570.4009 C536.7493,570.4009 546.5413,580.1929 546.5413,592.2719 C546.5413,604.3509 536.7493,614.1439 524.6703,614.1439 C512.5913,614.1439 502.7993,604.3509 502.7993,592.2719" id="Fill-88" fill="#005DF2"></path>
            <path d="M944.0942,134.9105 C944.0942,129.2915 948.6502,124.7345 954.2702,124.7345 C959.8902,124.7345 964.4472,129.2915 964.4472,134.9105 C964.4472,140.5315 959.8902,145.0875 954.2702,145.0875 C948.6502,145.0875 944.0942,140.5315 944.0942,134.9105" id="Fill-90" fill="#FFCF6E"></path>
            <path d="M442.8042,397.3109 C442.8042,392.5079 446.6982,388.6149 451.5002,388.6149 C456.3042,388.6149 460.1982,392.5079 460.1982,397.3109 C460.1982,402.1149 456.3042,406.0079 451.5002,406.0079 C446.6982,406.0079 442.8042,402.1149 442.8042,397.3109" id="Fill-92" fill="#009DFF" opacity="0.05"></path>
            <path d="M904.73,275.7738 C904.73,273.5958 906.496,271.8298 908.674,271.8298 C910.852,271.8298 912.619,273.5958 912.619,275.7738 C912.619,277.9518 910.852,279.7178 908.674,279.7178 C906.496,279.7178 904.73,277.9518 904.73,275.7738" id="Fill-94" fill="#52D2DF"></path>
            <path d="M816.7212,252.5316 L992.7392,252.5316" id="Stroke-98" stroke="#FFFFFF" stroke-width="2" stroke-linejoin="round"></path>
            <path d="M516.5981,228.2367 C516.5981,197.0877 491.3471,171.8367 460.1981,171.8367 C429.0481,171.8367 403.7961,197.0877 403.7961,228.2367 C403.7961,259.3857 429.0481,284.6367 460.1981,284.6367 C491.3471,284.6367 516.5981,259.3857 516.5981,228.2367 Z" id="Stroke-102" stroke="#FFFFFF" stroke-width="2" opacity="0.05" stroke-linejoin="round"></path>
            <path d="M216.5835,42.3363 C216.5835,19.2893 197.8995,0.6053 174.8515,0.6053 C151.8035,0.6053 133.1205,19.2893 133.1205,42.3363 C133.1205,65.3853 151.8035,84.0683 174.8515,84.0683 C197.8995,84.0683 216.5835,65.3853 216.5835,42.3363 Z" id="Stroke-104" stroke="#FFFFFF" stroke-width="2" opacity="0.1" stroke-linejoin="round"></path>
            <polyline id="Stroke-106" stroke="#FFFFFF" stroke-width="2" opacity="0.05" stroke-linejoin="round" points="680.3843 302.7797 662.1283 328.8617 755.6303 462.4417"></polyline>
            <path d="M662.1284,328.8617 L508.0414,328.8617" id="Stroke-108" stroke="#FFFFFF" stroke-width="2" opacity="0.05" stroke-linejoin="round"></path>
            <path d="M193.4717,316.7973 C190.9867,316.7973 188.9717,314.7853 188.9717,312.3033 C188.9717,309.8203 190.9867,307.8083 193.4717,307.8083 C195.9567,307.8083 197.9717,309.8203 197.9717,312.3033 C197.9717,314.7853 195.9567,316.7973 193.4717,316.7973" id="Fill-1" fill="#FF6C6C" opacity="0.05"></path>
        </g>
    </g>
</svg>