<?xml version="1.0" encoding="UTF-8"?>
<svg width="419px" height="684px" viewBox="0 0 419 684" version="1.1" xmlns="http://www.w3.org/2000/svg" xmlns:xlink="http://www.w3.org/1999/xlink">
    <!-- Generator: Sketch 52.5 (67469) - http://www.bohemiancoding.com/sketch -->
    <title>hero-bg</title>
    <desc>Created with Sketch.</desc>
    <g id="Page-1" stroke="none" stroke-width="1" fill="none" fill-rule="evenodd" opacity="0.5">
        <g id="hero-bg">
            <path d="M404.65,647.144 C404.65,650.878 407.68,653.904 411.418,653.904 C415.156,653.904 418.187,650.878 418.187,647.144 C418.187,643.411 415.156,640.385 411.418,640.385 C407.68,640.385 404.65,643.411 404.65,647.144 Z" id="Clip-40" fill="#005DF2" opacity="0.200000003"></path>
            <polygon id="Fill-17" fill="#0FD895" opacity="0.100000001" points="254.8062 492.5336 254.8062 289.4456 220.6352 270.0516 220.6352 473.1386"></polygon>
            <polygon id="Fill-19" fill="#005DF2" opacity="0.100000001" points="323.0562 492.5336 323.0562 352.1126 288.8842 332.7186 288.8842 473.1386"></polygon>
            <polygon id="Fill-21" fill="#FFCF6E" opacity="0.100000001" points="391.4692 492.5336 391.4692 417.0626 357.2982 397.6686 357.2982 473.1386"></polygon>
            <polygon id="Fill-23" fill-opacity="0.1" fill="#0FD895" points="139 67.999 245.011 67.999 272.253 20 166.243 20"></polygon>
            <polygon id="Fill-25" fill-opacity="0.1" fill="#005DF2" points="21.7407 683.3246 274.4627 683.3246 339.4057 568.9006 86.6867 568.9006"></polygon>
            <polygon id="Fill-27" fill-opacity="0.1" fill="#005DF2" points="357.188 0 314.874 0 304 19.159 346.314 19.159"></polygon>
            <polygon id="Fill-29" fill-opacity="0.1" fill="#005DF2" points="0 364.774 114.35 364.774 143.735 313 29.387 313"></polygon>
            <path d="M272.9819,237.9066 C272.9819,223.4826 284.6739,211.7916 299.0959,211.7916 C313.5189,211.7916 325.2109,223.4826 325.2109,237.9066 C325.2109,252.3286 313.5189,264.0196 299.0959,264.0196 C284.6739,264.0196 272.9819,252.3286 272.9819,237.9066" id="Fill-82" fill="#52D2DF" opacity="0.100000001"></path>
            <path d="M375.27,303.7885 C375.27,296.5775 381.117,290.7305 388.328,290.7305 C395.539,290.7305 401.384,296.5775 401.384,303.7885 C401.384,311.0005 395.539,316.8465 388.328,316.8465 C381.117,316.8465 375.27,311.0005 375.27,303.7885" id="Fill-84" fill="#005DF2" opacity="0.100000001"></path>
            <path d="M171.3872,607.8412 C171.3872,602.2212 175.9432,597.6652 181.5632,597.6652 C187.1832,597.6652 191.7392,602.2212 191.7392,607.8412 C191.7392,613.4612 187.1832,618.0172 181.5632,618.0172 C175.9432,618.0172 171.3872,613.4612 171.3872,607.8412" id="Fill-86" fill="#FF6C6C" opacity="0.200000003"></path>
            <path d="M365.0942,187.9105 C365.0942,182.2915 369.6502,177.7345 375.2702,177.7345 C380.8902,177.7345 385.4472,182.2915 385.4472,187.9105 C385.4472,193.5315 380.8902,198.0875 375.2702,198.0875 C369.6502,198.0875 365.0942,193.5315 365.0942,187.9105" id="Fill-90" fill="#FFCF6E" opacity="0.100000001"></path>
            <path d="M325.73,328.7738 C325.73,326.5958 327.496,324.8298 329.674,324.8298 C331.852,324.8298 333.619,326.5958 333.619,328.7738 C333.619,330.9518 331.852,332.7178 329.674,332.7178 C327.496,332.7178 325.73,330.9518 325.73,328.7738" id="Fill-94" fill="#52D2DF" opacity="0.100000001"></path>
            <path d="M237.7212,305.5316 L413.7392,305.5316" id="Stroke-98" stroke="#FFFFFF" stroke-width="2" opacity="0.100000001" stroke-linejoin="round"></path>
            <path d="M96.463,48.731 C96.463,25.684 77.779,7 54.731,7 C31.683,7 13,25.684 13,48.731 C13,71.78 31.683,90.463 54.731,90.463 C77.779,90.463 96.463,71.78 96.463,48.731 Z" id="Stroke-104" stroke="#FFFFFF" stroke-width="2" opacity="0.1" stroke-linejoin="round"></path>
        </g>
    </g>
</svg>