<?xml version="1.0" encoding="UTF-8"?>
<svg width="1198px" height="646px" viewBox="0 0 1198 646" version="1.1" xmlns="http://www.w3.org/2000/svg" xmlns:xlink="http://www.w3.org/1999/xlink">
    <!-- Generator: Sketch 52.5 (67469) - http://www.bohemiancoding.com/sketch -->
    <title>hero-bg</title>
    <desc>Created with Sketch.</desc>
    <g id="Page-1" stroke="none" stroke-width="1" fill="none" fill-rule="evenodd">
        <g id="hero-bg" transform="translate(0.000000, 1.000000)">
            <path d="M1183.65,594.144 C1183.65,597.878 1186.68,600.904 1190.418,600.904 C1194.156,600.904 1197.187,597.878 1197.187,594.144 C1197.187,590.411 1194.156,587.385 1190.418,587.385 C1186.68,587.385 1183.65,590.411 1183.65,594.144 Z" id="Clip-40" fill="#005DF2"></path>
            <polygon id="Fill-17" fill="#0FD895" points="1033.8062 439.5336 1033.8062 236.4456 999.6352 217.0516 999.6352 420.1386"></polygon>
            <polygon id="Fill-19" fill="#005DF2" points="1102.0562 439.5336 1102.0562 299.1126 1067.8842 279.7186 1067.8842 420.1386"></polygon>
            <polygon id="Fill-21" fill="#FFCF6E" points="1170.4692 439.5336 1170.4692 364.0626 1136.2982 344.6686 1136.2982 420.1386"></polygon>
            <polygon id="Fill-23" fill-opacity="0.1" fill="#0FD895" points="852.8911 103.6117 958.9021 103.6117 986.1441 55.6127 880.1341 55.6127"></polygon>
            <polygon id="Fill-25" fill-opacity="0.1" fill="#005DF2" points="800.7407 630.3246 1053.4627 630.3246 1118.4057 515.9006 865.6867 515.9006"></polygon>
            <polygon id="Fill-27" fill-opacity="0.1" fill="#005DF2" points="1071.1714 36.4535 1028.8574 36.4535 1017.9834 55.6125 1060.2974 55.6125"></polygon>
            <polygon id="Fill-29" fill-opacity="0.1" fill="#005DF2" points="200.1514 644.0326 314.5014 644.0326 343.8864 592.2586 229.5384 592.2586"></polygon>
            <path d="M864.5122,371.1762 C841.1142,371.1762 822.1462,352.2312 822.1462,328.8622 C822.1462,305.4922 841.1142,286.5472 864.5122,286.5472 C887.9102,286.5472 906.8782,305.4922 906.8782,328.8622 C906.8782,352.2312 887.9102,371.1762 864.5122,371.1762" id="Fill-31" fill="#FFCF6E"></path>
            <path d="M0.6108,608.1078 L99.4088,608.1078 C118.3068,608.1078 133.6278,592.7878 133.6278,573.8888 C133.6278,554.9908 148.9478,539.6698 167.8458,539.6698 L569.4638,539.6698" id="Stroke-80" stroke="#FFFFFF" stroke-width="2" stroke-linejoin="round"></path>
            <path d="M1051.9819,184.9066 C1051.9819,170.4826 1063.6739,158.7916 1078.0959,158.7916 C1092.5189,158.7916 1104.2109,170.4826 1104.2109,184.9066 C1104.2109,199.3286 1092.5189,211.0196 1078.0959,211.0196 C1063.6739,211.0196 1051.9819,199.3286 1051.9819,184.9066" id="Fill-82" fill="#52D2DF"></path>
            <path d="M1154.27,250.7885 C1154.27,243.5775 1160.117,237.7305 1167.328,237.7305 C1174.539,237.7305 1180.384,243.5775 1180.384,250.7885 C1180.384,258.0005 1174.539,263.8465 1167.328,263.8465 C1160.117,263.8465 1154.27,258.0005 1154.27,250.7885" id="Fill-84" fill="#005DF2"></path>
            <path d="M950.3872,554.8412 C950.3872,549.2212 954.9432,544.6652 960.5632,544.6652 C966.1832,544.6652 970.7392,549.2212 970.7392,554.8412 C970.7392,560.4612 966.1832,565.0172 960.5632,565.0172 C954.9432,565.0172 950.3872,560.4612 950.3872,554.8412" id="Fill-86" fill="#FF6C6C"></path>
            <path d="M702.7993,592.2719 C702.7993,580.1929 712.5913,570.4009 724.6703,570.4009 C736.7493,570.4009 746.5413,580.1929 746.5413,592.2719 C746.5413,604.3509 736.7493,614.1439 724.6703,614.1439 C712.5913,614.1439 702.7993,604.3509 702.7993,592.2719" id="Fill-88" fill="#005DF2"></path>
            <path d="M1144.0942,134.9105 C1144.0942,129.2915 1148.6502,124.7345 1154.2702,124.7345 C1159.8902,124.7345 1164.4472,129.2915 1164.4472,134.9105 C1164.4472,140.5315 1159.8902,145.0875 1154.2702,145.0875 C1148.6502,145.0875 1144.0942,140.5315 1144.0942,134.9105" id="Fill-90" fill="#FFCF6E"></path>
            <path d="M642.8042,397.3109 C642.8042,392.5079 646.6982,388.6149 651.5002,388.6149 C656.3042,388.6149 660.1982,392.5079 660.1982,397.3109 C660.1982,402.1149 656.3042,406.0079 651.5002,406.0079 C646.6982,406.0079 642.8042,402.1149 642.8042,397.3109" id="Fill-92" fill="#009DFF"></path>
            <path d="M1104.73,275.7738 C1104.73,273.5958 1106.496,271.8298 1108.674,271.8298 C1110.852,271.8298 1112.619,273.5958 1112.619,275.7738 C1112.619,277.9518 1110.852,279.7178 1108.674,279.7178 C1106.496,279.7178 1104.73,277.9518 1104.73,275.7738" id="Fill-94" fill="#52D2DF"></path>
            <path d="M567.8462,592.2748 L898.9052,592.2748" id="Stroke-96" stroke="#FFFFFF" stroke-width="2" stroke-linejoin="round"></path>
            <path d="M1016.7212,252.5316 L1192.7392,252.5316" id="Stroke-98" stroke="#FFFFFF" stroke-width="2" stroke-linejoin="round"></path>
            <path d="M190.02,573.8891 C190.02,542.0181 164.183,516.1801 132.312,516.1801 C100.44,516.1801 74.603,542.0181 74.603,573.8891 C74.603,605.7611 100.44,631.5971 132.312,631.5971 C164.183,631.5971 190.02,605.7611 190.02,573.8891 Z" id="Stroke-100" stroke="#FFFFFF" stroke-width="2" stroke-linejoin="round"></path>
            <path d="M716.5981,228.2367 C716.5981,197.0877 691.3471,171.8367 660.1981,171.8367 C629.0481,171.8367 603.7961,197.0877 603.7961,228.2367 C603.7961,259.3857 629.0481,284.6367 660.1981,284.6367 C691.3471,284.6367 716.5981,259.3857 716.5981,228.2367 Z" id="Stroke-102" stroke="#FFFFFF" stroke-width="2" stroke-linejoin="round"></path>
            <path d="M416.5835,42.3363 C416.5835,19.2893 397.8995,0.6053 374.8515,0.6053 C351.8035,0.6053 333.1205,19.2893 333.1205,42.3363 C333.1205,65.3853 351.8035,84.0683 374.8515,84.0683 C397.8995,84.0683 416.5835,65.3853 416.5835,42.3363 Z" id="Stroke-104" stroke="#FFFFFF" stroke-width="2" opacity="0.1" stroke-linejoin="round"></path>
            <polyline id="Stroke-106" stroke="#FFFFFF" stroke-width="2" stroke-linejoin="round" points="880.3843 302.7797 862.1283 328.8617 955.6303 462.4417"></polyline>
            <path d="M862.1284,328.8617 L708.0414,328.8617" id="Stroke-108" stroke="#FFFFFF" stroke-width="2" stroke-linejoin="round"></path>
            <path d="M663.2026,539.6703 L596.0116,539.6703" id="Stroke-110" stroke="#FFFFFF" stroke-width="2" stroke-linejoin="round"></path>
            <path d="M393.4717,316.7973 C390.9867,316.7973 388.9717,314.7853 388.9717,312.3033 C388.9717,309.8203 390.9867,307.8083 393.4717,307.8083 C395.9567,307.8083 397.9717,309.8203 397.9717,312.3033 C397.9717,314.7853 395.9567,316.7973 393.4717,316.7973" id="Fill-1" fill="#FF6C6C"></path>
        </g>
    </g>
</svg>