<?xml version="1.0" encoding="UTF-8"?>
<svg width="930px" height="40px" viewBox="0 0 930 40" version="1.1" xmlns="http://www.w3.org/2000/svg" xmlns:xlink="http://www.w3.org/1999/xlink">
    <!-- Generator: Sketch 52.5 (67469) - http://www.bohemiancoding.com/sketch -->
    <title>Group 27</title>
    <desc>Created with Sketch.</desc>
    <g id="Page-1" stroke="none" stroke-width="1" fill="none" fill-rule="evenodd">
        <g id="final" transform="translate(-334.000000, -9170.000000)">
            <g id="BG-+-visual-2" transform="translate(-180.000000, 586.000000)">
                <g id="BG-+-visual">
                    <g id="Group-27" transform="translate(514.000000, 8584.000000)">
                        <path d="M8,16 C3.58150852,16 0,12.4182354 0,8.00016495 C0,3.58176457 3.58150852,0 8,0 C12.4184915,0 16,3.58176457 16,8.00016495 C16,12.4182354 12.4184915,16 8,16" id="Fill-18" fill="#017FFF"></path>
                        <path d="M925,40 C922.238443,40 920,37.7613971 920,35.0001031 C920,32.2386029 922.238443,30 925,30 C927.761557,30 930,32.2386029 930,35.0001031 C930,37.7613971 927.761557,40 925,40" id="Fill-18" fill="#FFCF6E"></path>
                    </g>
                </g>
            </g>
        </g>
    </g>
</svg>