<?xml version="1.0" encoding="UTF-8"?>
<svg width="1249px" height="717px" viewBox="0 0 1249 717" version="1.1" xmlns="http://www.w3.org/2000/svg" xmlns:xlink="http://www.w3.org/1999/xlink">
    <!-- Generator: Sketch 52.5 (67469) - http://www.bohemiancoding.com/sketch -->
    <title>Group 16</title>
    <desc>Created with Sketch.</desc>
    <g id="Page-1" stroke="none" stroke-width="1" fill="none" fill-rule="evenodd">
        <g id="final" transform="translate(-87.000000, -8054.000000)">
            <g id="BG-+-visual-2" transform="translate(-180.000000, 586.000000)">
                <g id="BG-+-visual">
                    <g id="Group-16" transform="translate(267.000000, 7468.000000)">
                        <path d="M781.5,127 C779.56691,127 778,125.432978 778,123.500072 C778,121.567022 779.56691,120 781.5,120 C783.43309,120 785,121.567022 785,123.500072 C785,125.432978 783.43309,127 781.5,127" id="Fill-18" fill="#017FFF"></path>
                        <path d="M343,701 C340.238443,701 338,698.761397 338,696.000103 C338,693.238603 340.238443,691 343,691 C345.761557,691 348,693.238603 348,696.000103 C348,698.761397 345.761557,701 343,701" id="Fill-18" fill="#0FD895"></path>
                        <path d="M8,214 C3.58150852,214 0,210.418235 0,206.000165 C0,201.581765 3.58150852,198 8,198 C12.4184915,198 16,201.581765 16,206.000165 C16,210.418235 12.4184915,214 8,214" id="Fill-18" fill="#0FD895"></path>
                        <path d="M1186.5,27 C1179.0438,27 1173,20.9557723 1173,13.5002784 C1173,6.04422772 1179.0438,0 1186.5,0 C1193.9562,0 1200,6.04422772 1200,13.5002784 C1200,20.9557723 1193.9562,27 1186.5,27" id="Fill-18" fill="#017FFF"></path>
                        <path d="M1058,63 C1055.23844,63 1053,60.7613971 1053,58.0001031 C1053,55.2386029 1055.23844,53 1058,53 C1060.76156,53 1063,55.2386029 1063,58.0001031 C1063,60.7613971 1060.76156,63 1058,63" id="Fill-18" fill="#0FD895"></path>
                        <path d="M528.5,297 C527.119221,297 526,295.880699 526,294.500052 C526,293.119301 527.119221,292 528.5,292 C529.880779,292 531,293.119301 531,294.500052 C531,295.880699 529.880779,297 528.5,297" id="Fill-18" fill="#017FFF"></path>
                        <path d="M158.5,717 C157.119221,717 156,715.880699 156,714.500052 C156,713.119301 157.119221,712 158.5,712 C159.880779,712 161,713.119301 161,714.500052 C161,715.880699 159.880779,717 158.5,717" id="Fill-18" fill="#FF697E"></path>
                        <path d="M1245,429 C1242.79075,429 1241,427.209118 1241,425.000082 C1241,422.790882 1242.79075,421 1245,421 C1247.20925,421 1249,422.790882 1249,425.000082 C1249,427.209118 1247.20925,429 1245,429" id="Fill-18" fill="#0FD895"></path>
                        <path d="M413.5,53 C412.119221,53 411,51.8806986 411,50.5000515 C411,49.1193014 412.119221,48 413.5,48 C414.880779,48 416,49.1193014 416,50.5000515 C416,51.8806986 414.880779,53 413.5,53" id="Fill-18" fill="#017FFF"></path>
                    </g>
                </g>
            </g>
        </g>
    </g>
</svg>