<?xml version="1.0" encoding="UTF-8"?>
<svg width="1233px" height="235px" viewBox="0 0 1233 235" version="1.1" xmlns="http://www.w3.org/2000/svg" xmlns:xlink="http://www.w3.org/1999/xlink">
    <!-- Generator: Sketch 52.5 (67469) - http://www.bohemiancoding.com/sketch -->
    <title>Group 29</title>
    <desc>Created with Sketch.</desc>
    <g id="Page-1" stroke="none" stroke-width="1" fill="none" fill-rule="evenodd">
        <g id="final" transform="translate(-21.000000, -9371.000000)">
            <g id="BG-+-visual-2" transform="translate(-180.000000, 586.000000)">
                <g id="BG-+-visual">
                    <g id="Group-29" transform="translate(201.000000, 8785.000000)">
                        <path d="M1228,201 C1225.23844,201 1223,198.761397 1223,196.000103 C1223,193.238603 1225.23844,191 1228,191 C1230.76156,191 1233,193.238603 1233,196.000103 C1233,198.761397 1230.76156,201 1228,201" id="Fill-18" fill="#017FFF"></path>
                        <path d="M1007,93 C1004.23844,93 1002,90.7613971 1002,88.0001031 C1002,85.2386029 1004.23844,83 1007,83 C1009.76156,83 1012,85.2386029 1012,88.0001031 C1012,90.7613971 1009.76156,93 1007,93" id="Fill-18" fill="#0FD895"></path>
                        <path d="M613.5,235 C612.119221,235 611,233.880699 611,232.500052 C611,231.119301 612.119221,230 613.5,230 C614.880779,230 616,231.119301 616,232.500052 C616,233.880699 614.880779,235 613.5,235" id="Fill-18" fill="#FF697E"></path>
                        <path d="M2.5,5 C1.11922141,5 0,3.88069857 0,2.50005155 C0,1.11930143 1.11922141,0 2.5,0 C3.88077859,0 5,1.11930143 5,2.50005155 C5,3.88069857 3.88077859,5 2.5,5" id="Fill-18" fill="#FF697E"></path>
                    </g>
                </g>
            </g>
        </g>
    </g>
</svg>