<?xml version="1.0" encoding="UTF-8"?>
<svg width="473px" height="71px" viewBox="0 0 473 71" version="1.1" xmlns="http://www.w3.org/2000/svg" xmlns:xlink="http://www.w3.org/1999/xlink">
    <!-- Generator: Sketch 52.5 (67469) - http://www.bohemiancoding.com/sketch -->
    <title>Group 13</title>
    <desc>Created with Sketch.</desc>
    <g id="Page-1" stroke="none" stroke-width="1" fill="none" fill-rule="evenodd">
        <g id="final" transform="translate(-172.000000, -7378.000000)">
            <g id="BG-+-visual-2" transform="translate(-180.000000, 586.000000)">
                <g id="BG-+-visual">
                    <g id="Group-13" transform="translate(352.000000, 6792.000000)">
                        <path d="M18.5,37 C8.28223844,37 0,28.7171694 0,18.5003815 C0,8.28283057 8.28223844,0 18.5,0 C28.7177616,0 37,8.28283057 37,18.5003815 C37,28.7171694 28.7177616,37 18.5,37" id="Fill-18" fill="#0FD895"></path>
                        <path d="M463,71 C457.476886,71 453,66.5227943 453,61.0002062 C453,55.4772057 457.476886,51 463,51 C468.523114,51 473,55.4772057 473,61.0002062 C473,66.5227943 468.523114,71 463,71" id="Fill-18" fill="#FFCF6E"></path>
                    </g>
                </g>
            </g>
        </g>
    </g>
</svg>