<?xml version="1.0" encoding="UTF-8"?>
<svg width="1418px" height="984px" viewBox="0 0 1418 984" version="1.1" xmlns="http://www.w3.org/2000/svg" xmlns:xlink="http://www.w3.org/1999/xlink">
    <!-- Generator: Sketch 52.5 (67469) - http://www.bohemiancoding.com/sketch -->
    <title>Group 13</title>
    <desc>Created with Sketch.</desc>
    <g id="Page-1" stroke="none" stroke-width="1" fill="none" fill-rule="evenodd">
        <g id="final" transform="translate(0.000000, -2692.000000)">
            <g id="BG-+-visual" transform="translate(-180.000000, 769.000000)">
                <g id="Group-13" transform="translate(88.000000, 1923.000000)">
                    <polygon id="Fill-29" fill="#005DF2" points="0 983.774 114.35 983.774 143.735 932 29.387 932"></polygon>
                    <polygon id="Fill-3" fill="#0FD895" points="1332.0003 329.9989 1438.0113 329.9989 1465.2533 281.9999 1359.2433 281.9999"></polygon>
                    <path d="M1457.0911,633.2938 C1457.0911,618.8708 1468.7831,607.1798 1483.2051,607.1798 C1497.6281,607.1798 1509.3201,618.8708 1509.3201,633.2938 C1509.3201,647.7158 1497.6281,659.4078 1483.2051,659.4078 C1468.7831,659.4078 1457.0911,647.7158 1457.0911,633.2938" id="Fill-6" fill="#52D2DF"></path>
                    <path d="M151,677 C147.13395,677 144,673.86605 144,670 C144,666.13395 147.13395,663 151,663 C154.86605,663 158,666.13395 158,670 C158,673.86605 154.86605,677 151,677" id="Fill-32" fill="#005DF2"></path>
                    <path d="M1096.5,5 C1095.11927,5 1094,3.88073199 1094,2.5 C1094,1.11926801 1095.11927,0 1096.5,0 C1097.88073,0 1099,1.11926801 1099,2.5 C1099,3.88073199 1097.88073,5 1096.5,5" id="Fill-32" fill="#005DF2"></path>
                </g>
            </g>
        </g>
    </g>
</svg>