<?xml version="1.0" encoding="UTF-8"?>
<svg width="500px" height="113px" viewBox="0 0 500 113" version="1.1" xmlns="http://www.w3.org/2000/svg" xmlns:xlink="http://www.w3.org/1999/xlink">
    <!-- Generator: Sketch 62 (91390) - https://sketch.com -->
    <title>ai-global</title>
    <desc>Created with Sketch.</desc>
    <g id="Page-1" stroke="none" stroke-width="1" fill="none" fill-rule="evenodd">
        <g id="ai-global" fill="#000000" fill-rule="nonzero">
            <path d="M39.4984327,73.2002762 L31.661442,32.9323204 L31.3479625,32.9323204 L23.5109718,73.2002762 L39.4984327,73.2002762 Z M0,112.063536 L24.9216301,0.936464088 L38.2445141,0.936464088 L63.1661442,112.063536 L47.1786835,112.063536 L42.4764891,88.1837017 L20.6896552,88.1837017 L15.9874608,112.063536 L0,112.063536 Z M71.4733543,112.063536 L71.4733543,0.936464088 L87.4608152,0.936464088 L87.4608152,112.063536 L71.4733543,112.063536 Z M131.191223,27.1574587 C131.191223,22.6832189 131.974914,18.7292989 133.54232,15.2955801 C135.109726,11.8618613 137.199569,9.00047185 139.811912,6.71132596 C142.319762,4.52623216 145.167173,2.86142378 148.354232,1.71685083 C151.541291,0.572277887 154.754425,0 157.993731,0 C161.233036,0 164.44617,0.572277887 167.633229,1.71685083 C170.820288,2.86142378 173.719945,4.52623216 176.332289,6.71132596 C178.840138,9.00047185 180.877735,11.8618613 182.445141,15.2955801 C184.012547,18.7292989 184.796238,22.6832189 184.796238,27.1574587 L184.796238,32.7762432 L168.808778,32.7762432 L168.808778,27.1574587 C168.808778,23.3075314 167.737733,20.4721546 165.595611,18.6512431 C163.45349,16.8303316 160.919555,15.9198895 157.993731,15.9198895 C155.067906,15.9198895 152.533971,16.8303316 150.39185,18.6512431 C148.249728,20.4721546 147.178684,23.3075314 147.178684,27.1574587 L147.178684,85.8425413 C147.178684,89.6924686 148.249728,92.5278455 150.39185,94.348757 C152.533971,96.1696685 155.067906,97.0801104 157.993731,97.0801104 C160.919555,97.0801104 163.45349,96.1696685 165.595611,94.348757 C167.737733,92.5278455 168.808778,89.6924686 168.808778,85.8425413 L168.808778,64.9281767 L156.112853,64.9281767 L156.112853,50.8812155 L184.796238,50.8812155 L184.796238,85.8425413 C184.796238,90.5248852 184.012547,94.5308304 182.445141,97.8604973 C180.877735,101.190164 178.840138,103.947503 176.332289,106.132597 C173.719945,108.421743 170.820288,110.138576 167.633229,111.283149 C164.44617,112.427722 161.233036,113 157.993731,113 C154.754425,113 151.541291,112.427722 148.354232,111.283149 C145.167173,110.138576 142.319762,108.421743 139.811912,106.132597 C137.199569,103.947503 135.109726,101.190164 133.54232,97.8604973 C131.974914,94.5308304 131.191223,90.5248852 131.191223,85.8425413 L131.191223,27.1574587 Z M198.902822,112.063536 L198.902822,0.936464088 L214.890282,0.936464088 L214.890282,96.1436464 L246.551724,96.1436464 L246.551724,112.063536 L198.902822,112.063536 Z M255.956113,27.1574587 C255.956113,22.6832189 256.739805,18.7292989 258.307211,15.2955801 C259.874615,11.8618613 261.96446,9.00047185 264.576802,6.71132596 C267.084651,4.52623216 269.932062,2.86142378 273.119122,1.71685083 C276.306182,0.572277887 279.519316,0 282.75862,0 C285.997927,0 289.211061,0.572277887 292.398118,1.71685083 C295.585178,2.86142378 298.484836,4.52623216 301.097178,6.71132596 C303.605027,9.00047185 305.642625,11.8618613 307.210032,15.2955801 C308.777438,18.7292989 309.561128,22.6832189 309.561128,27.1574587 L309.561128,85.8425413 C309.561128,90.5248852 308.777438,94.5308304 307.210032,97.8604973 C305.642625,101.190164 303.605027,103.947503 301.097178,106.132597 C298.484836,108.421743 295.585178,110.138576 292.398118,111.283149 C289.211061,112.427722 285.997927,113 282.75862,113 C279.519316,113 276.306182,112.427722 273.119122,111.283149 C269.932062,110.138576 267.084651,108.421743 264.576802,106.132597 C261.96446,103.947503 259.874615,101.190164 258.307211,97.8604973 C256.739805,94.5308304 255.956113,90.5248852 255.956113,85.8425413 L255.956113,27.1574587 Z M271.943574,85.8425413 C271.943574,89.6924686 273.014618,92.5278455 275.15674,94.348757 C277.298863,96.1696685 279.832796,97.0801104 282.75862,97.0801104 C285.684444,97.0801104 288.21838,96.1696685 290.360503,94.348757 C292.502622,92.5278455 293.573669,89.6924686 293.573669,85.8425413 L293.573669,27.1574587 C293.573669,23.3075314 292.502622,20.4721546 290.360503,18.6512431 C288.21838,16.8303316 285.684444,15.9198895 282.75862,15.9198895 C279.832796,15.9198895 277.298863,16.8303316 275.15674,18.6512431 C273.014618,20.4721546 271.943574,23.3075314 271.943574,27.1574587 L271.943574,85.8425413 Z M323.667713,112.063536 L323.667713,0.936464088 L347.021945,0.936464088 C352.142136,0.936464088 356.504684,1.71684302 360.109718,3.27762432 C363.714753,4.83840558 366.666655,6.9194161 368.965517,9.52071823 C371.26438,12.1220204 372.910132,15.113473 373.902823,18.4951657 C374.895513,21.8768585 375.391851,25.3885637 375.391851,29.0303867 L375.391851,33.0883978 C375.391851,36.1059084 375.156741,38.6551461 374.68652,40.7361879 C374.216298,42.8172296 373.510977,44.6381138 372.570533,46.198895 C370.794139,49.1123534 368.077343,51.6095661 364.420064,53.6906076 C368.181837,55.4594933 370.95088,58.0607563 372.727272,61.4944751 C374.503667,64.9281939 375.391851,69.6104676 375.391851,75.5414366 L375.391851,81.7845303 C375.391851,91.5654263 373.014654,99.0570643 368.260188,104.259668 C363.505724,109.462273 355.903919,112.063536 345.454546,112.063536 L323.667713,112.063536 Z M339.655172,60.558011 L339.655172,96.1436464 L346.551725,96.1436464 C349.79103,96.1436464 352.324966,95.6754191 354.153605,94.7389503 C355.982245,93.8024815 357.366766,92.50185 358.30721,90.8370164 C359.247653,89.1721831 359.822361,87.1952233 360.031347,84.9060773 C360.240336,82.6169315 360.344828,80.1197189 360.344828,77.4143647 C360.344828,74.6049583 360.188089,72.159771 359.874608,70.0787292 C359.561128,67.9976877 358.934175,66.2288286 357.993732,64.7720995 C356.948794,63.3153702 355.538149,62.2488523 353.761757,61.5725138 C351.985362,60.8961753 349.634289,60.558011 346.708464,60.558011 L339.655172,60.558011 Z M339.655172,15.9198895 L339.655172,46.5110498 L346.865203,46.5110498 C352.194385,46.5110498 355.773241,45.1844054 357.601881,42.5310772 C359.43052,39.8777491 360.344828,36.0018672 360.344828,30.9033148 C360.344828,25.9088149 359.326029,22.1629959 357.288401,19.6657458 C355.250773,17.1684958 351.567425,15.9198895 346.238245,15.9198895 L339.655172,15.9198895 Z M420.846396,73.2002762 L413.009404,32.9323204 L412.695924,32.9323204 L404.858935,73.2002762 L420.846396,73.2002762 Z M381.347964,112.063536 L406.269592,0.936464088 L419.592478,0.936464088 L444.514106,112.063536 L428.526647,112.063536 L423.824453,88.1837017 L402.037617,88.1837017 L397.335423,112.063536 L381.347964,112.063536 Z M452.351098,112.063536 L452.351098,0.936464088 L468.338559,0.936464088 L468.338559,96.1436464 L500,96.1436464 L500,112.063536 L452.351098,112.063536 Z" id="AI-GLOBAL"></path>
        </g>
    </g>
</svg>