<?xml version="1.0" encoding="UTF-8"?>
<svg width="298px" height="197px" viewBox="0 0 298 197" version="1.1" xmlns="http://www.w3.org/2000/svg" xmlns:xlink="http://www.w3.org/1999/xlink">
    <!-- Generator: Sketch 63.1 (92452) - https://sketch.com -->
    <title>intel</title>
    <desc>Created with Sketch.</desc>
    <g id="Page-1" stroke="none" stroke-width="1" fill="none" fill-rule="evenodd">
        <g id="intel" fill="#0071C5" fill-rule="nonzero">
            <path d="M32.54351,56.36863 L32.54351,64.35703 C18.83251,79.29588 8.49718,103.34589 12.70063,126.03347 C21.28821,172.05572 82.66229,180.60458 141.55855,175.16037 C177.75617,171.80867 221.21765,158.87569 247.48185,143.23628 L247.48185,143.23628 L247.48185,165.80585 C218.53703,181.69232 176.90258,191.92072 145.09277,195.02537 C64.69438,202.83863 12.02034,179.31036 2.17725,137.79207 C-5.53461,105.41443 7.86113,78.01272 32.54351,56.36863 L32.54351,56.36863 Z M192.62673,69.96348 C208.94645,69.96348 218.37472,83.1601 218.37472,100.44588 L218.37472,105.96383 L179.51676,105.96383 C179.51676,113.79921 184.3876,119.56605 193.08395,119.56605 C199.85003,119.56605 203.21279,117.69109 207.12495,113.79921 L216.58641,122.83294 C210.52828,128.81365 204.17148,132.44558 192.97149,132.44558 C178.30734,132.44558 164.27371,124.4498 164.27371,101.14645 C164.27371,81.23536 176.52641,69.96348 192.62673,69.96348 Z M58.88895,70.98853 L58.88895,132.11188 C47.33856,131.00202 43.40981,123.99627 43.40981,115.912 L43.42651,70.98853 L58.88895,70.98853 Z M72.47991,70.98853 L104.10536,71.01993 C117.53797,71.01993 122.11383,80.49245 122.11383,89.09662 L122.11383,131.4759 L106.82285,131.4759 L106.82285,89.1759 C106.82285,85.57162 104.95711,83.35375 100.45683,83.35375 L87.79854,83.35375 L87.79854,131.4759 L72.47991,131.4759 L72.47991,70.98853 Z M64.95986,35.25734 C150.29731,-16.694 282.69314,-12.37625 296.68253,55.82845 C304.17499,92.36714 278.36985,122.21718 253.20813,131.42237 L253.20813,131.42237 L253.20813,115.13583 C274.11293,102.68772 285.81807,81.03072 282.13268,60.25866 C271.11705,-2.56082 150.21066,-2.81892 64.95986,40.99284 L64.95986,40.99284 Z M148.8629,54.50842 L148.8629,70.98853 L160.39289,70.98853 L160.39289,83.35368 L148.8629,83.35368 L148.8629,113.17422 C148.8629,116.68816 150.52216,118.63871 154.17068,118.63871 L160.39289,118.63871 L160.39289,131.40024 L151.34257,131.40024 C138.86311,131.40024 133.56823,122.71311 133.56823,114.13291 L133.56823,54.50842 L148.8629,54.50842 Z M242.71795,45.89318 L242.71795,130.8195 C231.19164,129.7078 227.28133,122.71311 227.28133,114.6399 L227.28133,45.89318 L242.71795,45.89318 Z M191.96303,82.63098 C186.72715,82.63098 182.67488,85.32267 180.98243,88.97672 C179.9795,91.17063 179.63475,92.85201 179.51676,95.53816 L203.08374,95.53816 C202.78139,88.97672 199.80579,82.63098 191.96303,82.63098 Z M58.85003,47.97832 L58.85003,62.62956 L43.42632,62.62956 L43.42632,47.97832 L58.85003,47.97832 Z M259.35227,45.89331 C262.73347,45.89331 265.5118,48.65874 265.5118,52.03625 C265.5118,55.41929 262.73347,58.17734 259.35227,58.17734 C255.9342,58.17734 253.20748,55.41929 253.20748,52.03625 C253.20748,48.65874 255.9342,45.89331 259.35227,45.89331 Z M259.35227,46.91652 C256.5389,46.91652 254.26388,49.23948 254.26388,52.03625 C254.26388,54.8367 256.5389,57.12279 259.35227,57.12279 C262.15088,57.12279 264.44803,54.8367 264.44803,52.03625 C264.44803,49.23948 262.15088,46.91652 259.35227,46.91652 Z M259.00201,48.1131 C260.90094,48.1131 262.04951,48.67356 262.04951,50.45818 L262.04951,50.58163 C262.04951,51.68596 261.50011,52.26854 260.64836,52.5543 L262.26522,55.28839 C262.27552,55.34369 262.31312,55.41936 262.31312,55.48381 C262.31312,55.59074 262.24852,55.71063 262.06607,55.71063 L260.92306,55.71063 C260.81982,55.71063 260.72948,55.64603 260.68523,55.55946 L259.12553,52.91571 C259.09783,52.86231 258.96329,52.79771 258.90983,52.79771 L258.20925,52.79771 L258.20925,55.41934 C258.20925,55.55946 258.11335,55.71063 257.92902,55.71063 L256.89475,55.71063 C256.7657,55.71063 256.63665,55.55946 256.63665,55.41934 L256.63665,48.78784 C256.63665,48.40437 256.78598,48.24398 257.11046,48.1942 C257.47549,48.1463 258.46736,48.1131 259.00201,48.1131 Z M259.12553,49.47183 L258.16132,49.47183 L258.16132,51.59014 C258.30143,51.59014 259.00201,51.61594 259.12553,51.61594 C260.12477,51.61594 260.56171,51.28225 260.56171,50.58167 L260.56171,50.45823 C260.56171,49.70965 260.12477,49.47183 259.12553,49.47183 Z" id="Combined-Shape"></path>
        </g>
    </g>
</svg>