<?xml version="1.0" encoding="UTF-8"?>
<svg width="500px" height="162px" viewBox="0 0 500 162" version="1.1" xmlns="http://www.w3.org/2000/svg" xmlns:xlink="http://www.w3.org/1999/xlink">
    <!-- Generator: Sketch 62 (91390) - https://sketch.com -->
    <title>reddit</title>
    <desc>Created with Sketch.</desc>
    <g id="Page-1" stroke="none" stroke-width="1" fill="none" fill-rule="evenodd">
        <g id="reddit" fill-rule="nonzero">
            <circle id="Oval" fill="#FF4500" cx="80.8109193" cy="80.8109193" r="80.7507025"></circle>
            <path d="M134.664793,80.8109193 C134.423926,74.307507 128.964271,69.2292252 122.440787,69.4500201 C119.550381,69.5503814 116.800482,70.7346447 114.712967,72.7217985 C105.519872,66.4592533 94.7209956,63.0268968 83.6210357,62.7860297 L88.8598956,37.5953432 L106.142112,41.2284223 C106.623846,45.6643918 110.598153,48.8759534 115.034123,48.3942192 C119.470092,47.9124849 122.681654,43.9381774 122.19992,39.5022079 C121.718185,35.0662385 117.743878,31.8546768 113.307908,32.3364111 C110.758731,32.5973505 108.470494,34.0826977 107.205941,36.2906463 L87.4146929,32.3364111 C86.0698515,32.0353272 84.72501,32.8783621 84.4239261,34.2432758 C84.4239261,34.2633481 84.4239261,34.2633481 84.4239261,34.2834203 L78.4624649,62.3042955 C67.2219992,62.4849458 56.2826174,65.9373745 46.9690887,72.2400642 C42.2320353,67.7840225 34.7651546,68.0048173 30.3091128,72.761943 C25.8530711,77.4989964 26.0738659,84.9658772 30.8309916,89.4219189 C31.7543155,90.2850261 32.8181453,91.0276997 34.0024087,91.5495785 C33.9221196,92.7338418 33.9221196,93.9181052 34.0024087,95.1023685 C34.0024087,113.187475 55.0782818,127.900442 81.0718587,127.900442 C107.065436,127.900442 128.141309,113.207547 128.141309,95.1023685 C128.221598,93.9181052 128.221598,92.7338418 128.141309,91.5495785 C132.195905,89.5222802 134.745082,85.3472501 134.664793,80.8109193 Z M53.9140907,88.9000401 C53.9140907,84.4439984 57.5471698,80.8109193 62.0032116,80.8109193 C66.4592533,80.8109193 70.0923324,84.4439984 70.0923324,88.9000401 C70.0923324,93.3560819 66.4592533,96.989161 62.0032116,96.989161 C57.5270976,96.9490165 53.9140907,93.3560819 53.9140907,88.9000401 Z M100.822963,111.09996 C95.0822963,115.415496 88.0570052,117.623444 80.8711361,117.32236 C73.685267,117.623444 66.6599759,115.415496 60.9193095,111.09996 C60.1565636,110.176636 60.2970695,108.79165 61.2203934,108.028904 C62.0232838,107.366519 63.1674026,107.366519 63.9903653,108.028904 C68.8478523,111.581694 74.769169,113.388198 80.790847,113.107186 C86.8125251,113.428342 92.7539141,111.702128 97.6716178,108.189482 C98.5547973,107.326375 100,107.346447 100.863107,108.229627 C101.726214,109.112806 101.706142,110.558009 100.822963,111.421116 L100.822963,111.421116 L100.822963,111.09996 L100.822963,111.09996 Z M99.3777599,97.2701726 C94.9217182,97.2701726 91.2886391,93.6370935 91.2886391,89.1810518 C91.2886391,84.72501 94.9217182,81.091931 99.3777599,81.091931 C103.833802,81.091931 107.466881,84.72501 107.466881,89.1810518 C107.647531,93.6370935 104.17503,97.3906062 99.7189884,97.5712565 C99.5784825,97.5712565 99.458049,97.5712565 99.3175432,97.5712565 L99.3777599,97.2701726 Z" id="Shape" fill="#FFFFFF"></path>
            <circle id="Oval" fill="#FF4500" cx="450.582096" cy="45.1826576" r="10.9995986"></circle>
            <path d="M273.785628,54.8173424 C287.936572,55.3793657 299.839422,65.6362906 302.448816,79.5664392 C302.7499,81.0317142 302.93055,82.5371337 302.990767,84.0224809 C302.990767,84.2834203 302.990767,84.564432 302.970695,84.8052991 C302.649538,89.0806905 298.956242,92.2922521 294.700923,91.9911682 L294.700923,91.9911682 L294.460056,91.9108792 L256.904857,91.9108792 C257.788037,100.80289 264.893617,107.747892 273.765556,108.450422 C278.904055,108.289843 283.781614,106.222401 287.414693,102.609394 C289.622642,100.481734 293.014853,100.140506 295.624247,101.766359 C295.82497,101.906865 296.00562,102.067443 296.206343,102.248093 C298.815737,104.636692 299.016459,108.671216 296.62786,111.28061 C290.806905,117.683661 282.4167,121.176234 273.765556,120.835006 C257.446809,120.835006 244.199117,106.001606 244.199117,87.8161381 C244.199117,69.6306704 257.667603,54.8173424 273.785628,54.8173424 Z M359.052589,27.2782015 L359.2791,27.2822818 C362.586616,27.4016286 365.234845,30.124002 365.234845,33.4604576 L365.234845,33.4604576 L365.214773,113.127258 C365.054195,115.71658 363.287836,117.884384 360.818948,118.606985 C357.54717,119.570454 354.114813,117.703733 353.151345,114.431955 C348.875953,118.707346 343.054998,121.015656 337.03332,120.835006 C320.714572,120.835006 307.446809,106.001606 307.446809,87.8161381 C307.446809,69.6306704 320.915295,54.8173424 337.03332,54.8173424 C342.954637,54.6567644 348.695303,56.945002 352.870333,61.1601766 L352.870333,61.1601766 L352.870333,33.4604576 C352.870333,30.0481734 355.640305,27.2782015 359.052589,27.2782015 L359.052589,27.2782015 Z M423.725411,27.2782015 L423.951922,27.2822818 C427.259438,27.4016286 429.907668,30.124002 429.907668,33.4604576 L429.907668,33.4604576 L429.887595,113.127258 C429.727017,115.71658 427.960658,117.884384 425.49177,118.606985 C422.219992,119.570454 418.787635,117.703733 417.824167,114.431955 C413.548776,118.707346 407.72782,121.015656 401.706142,120.835006 C385.387395,120.835006 372.119631,106.001606 372.119631,87.8161381 C372.119631,69.6306704 385.588117,54.8173424 401.706142,54.8173424 C407.627459,54.6567644 413.368125,56.945002 417.543155,61.1601766 L417.543155,61.1601766 L417.543155,33.4604576 L417.547236,33.233947 C417.666582,29.9264314 420.388956,27.2782015 423.725411,27.2782015 L423.725411,27.2782015 Z M217.32236,63.2276194 C222.761943,56.8044962 231.192292,53.7334404 239.482136,55.1184263 C242.553191,55.4997993 244.841429,58.1292654 244.841429,61.2203934 C244.841429,64.4520273 242.372541,67.1216379 239.16098,67.4026495 L239.16098,67.4026495 L237.916499,67.4026495 C236.993175,67.3022882 236.049779,67.282216 235.126455,67.3424328 C224.729024,67.904456 216.760337,76.7563228 217.302288,87.1537535 L217.302288,87.1537535 L217.302288,113.207547 C217.32236,113.448414 217.32236,113.689281 217.302288,113.930149 C217.081493,117.32236 214.110799,119.89161 210.718587,119.650743 C207.386592,119.369731 204.837415,116.539542 204.917704,113.207547 L204.917704,113.207547 L204.917704,62.424729 C204.917704,58.9923725 207.687676,56.2224006 211.120032,56.2224006 C214.552389,56.2224006 217.32236,58.9923725 217.32236,62.424729 L217.32236,62.424729 Z M450.562023,61.6820554 C453.99438,61.6820554 456.764352,64.4520273 456.764352,67.8843838 L456.764352,67.8843838 L456.764352,113.187475 C456.764352,116.619831 453.99438,119.389803 450.562023,119.389803 C447.129667,119.389803 444.359695,116.619831 444.359695,113.187475 L444.359695,113.187475 L444.359695,67.8843838 L444.363775,67.6565645 C444.483132,64.3302853 447.205941,61.6820554 450.562023,61.6820554 Z M476.535528,46.8085106 C476.776395,43.4162987 479.727017,40.8470494 483.119229,41.0879165 C486.431152,41.3890004 488.960257,44.1790446 488.920112,47.4909675 L488.920112,47.4909675 L488.920112,56.021678 L494.600562,56.021678 C494.76114,56.021678 494.94179,56.021678 495.102369,56.0417503 C498.032919,56.3026897 500.220795,58.9120835 499.959855,61.8627057 C499.959855,61.9831393 499.939783,62.1035729 499.939783,62.2039342 C499.759133,65.1545564 497.230028,67.4227218 494.259334,67.2420715 L494.259334,67.2420715 L488.90004,67.2420715 L488.90004,113.167403 C488.90004,113.307908 488.90004,113.448414 488.879968,113.568848 C488.659173,116.981132 485.748695,119.590526 482.336411,119.369731 L482.336411,119.369731 L482.1099,119.365651 C478.802385,119.246304 476.154155,116.523931 476.154155,113.187475 L476.154155,113.187475 L476.154155,67.3825773 L470.794862,67.3825773 C470.634283,67.3825773 470.453633,67.3825773 470.293055,67.362505 C467.362505,67.1015656 465.174629,64.4921718 465.435568,61.5415496 C465.435568,61.421116 465.45564,61.3006825 465.45564,61.2003212 C465.636291,58.2496989 468.165395,55.9815335 471.13609,56.1621839 L471.13609,56.1621839 L476.515456,56.1621839 L476.515456,47.2501004 C476.515456,47.1095945 476.515456,46.9490165 476.535528,46.8085106 Z M336.993175,67.3022882 C327.43878,67.3022882 319.771176,76.5355279 319.771176,87.9566439 C319.771176,99.3777599 327.498996,108.611 336.993175,108.611 L336.993175,108.611 L337.03332,108.510638 C346.547571,108.510638 354.215175,99.3777599 354.215175,87.9566439 C354.215175,76.5355279 346.547571,67.3022882 336.993175,67.3022882 Z M401.68607,67.3022882 C392.131674,67.3022882 384.464071,76.5355279 384.464071,87.9566439 C384.464071,99.3777599 392.191891,108.611 401.68607,108.611 L401.68607,108.611 L401.726214,108.510638 C411.240466,108.510638 418.908069,99.3777599 418.908069,87.9566439 C418.908069,76.5355279 411.240466,67.3022882 401.68607,67.3022882 Z M273.705339,67.2420715 C265.877158,67.743878 259.353673,73.3239663 257.627459,80.9915697 L257.627459,80.9915697 L289.823364,80.9915697 C288.077077,73.3440385 281.513448,67.7639502 273.705339,67.2420715 Z" id="Combined-Shape" fill="#000000"></path>
        </g>
    </g>
</svg>