<?xml version="1.0" encoding="UTF-8"?>
<svg width="215px" height="54px" viewBox="0 0 215 54" version="1.1" xmlns="http://www.w3.org/2000/svg" xmlns:xlink="http://www.w3.org/1999/xlink">
    <!-- Generator: Sketch 52.6 (67491) - http://www.bohemiancoding.com/sketch -->
    <title>splitAirport</title>
    <desc>Created with Sketch.</desc>
    <g id="Page-1" stroke="none" stroke-width="1" fill="none" fill-rule="evenodd">
        <path d="M104.629796,4.80296282 L110.766065,0.777783938 L106.244327,5.19333145 C106.92682,5.3893196 107.591585,5.6212823 108.235911,5.88943845 L110.766065,4.35689417 L108.845267,6.15668844 C110.915582,7.11218366 112.756592,8.45801494 114.272539,10.2019129 C121.881498,18.9550193 118.419771,34.4220516 106.540556,44.7484964 C97.167938,52.8959886 85.3556596,55.4091426 77.0508325,51.8078304 L83.6916864,42.4618734 L72.5453444,48.9175954 C72.5279243,48.9017621 72.5105361,48.8858863 72.4931801,48.8699682 L82.5078424,37.2569955 L69.3979915,44.957859 C69.3906453,44.9447371 69.383318,44.9316054 69.3760098,44.9184639 L81.4544903,31.9579483 L68.2815351,39.7417227 L81.4544903,26.5707854 L67.3563625,33.6315315 C67.3585945,33.611356 67.360853,33.5911761 67.3631382,33.5709918 L81.4544903,19.4562865 L69.3186028,26.1979992 C71.2666433,21.5096171 74.5356388,16.9194004 78.9860763,13.0506941 C86.989374,6.09353348 96.7715474,3.24464369 104.629796,4.80296282 Z M86.4185635,16.3762741 L86.4185635,39.9919443 L95.6236233,30.8911434 L88.6927548,34.212633 L95.6236233,26.1577853 L88.6927548,30.0247848 L95.6236233,21.4150102 L88.6927548,25.00421 L95.6236233,16.3762741 L88.6927548,19.7657002 L95.6236233,11.3819322 L86.4185635,16.3762741 Z M104.629796,4.80296282 L99.4731343,8.18555333 L99.4731343,17.33882 L110.766065,8.18555333 L101.1137,13.4011934 L108.845267,6.15668844 C108.64428,6.06392872 108.441132,5.97484775 108.235911,5.88943845 L101.1137,10.2034693 L106.244327,5.19333145 C105.716341,5.04171239 105.177746,4.9116233 104.629796,4.80296282 Z M0.482421875,38.4106445 L3.43115234,38.152832 C3.57080148,39.3344786 3.8957494,40.3039513 4.40600586,41.0612793 C4.91626232,41.8186073 5.70849072,42.4309059 6.78271484,42.8981934 C7.85693896,43.3654809 9.06542297,43.5991211 10.4082031,43.5991211 C11.6005919,43.5991211 12.6533157,43.4218768 13.5664062,43.0673828 C14.4794968,42.7128889 15.1589333,42.2268097 15.6047363,41.6091309 C16.0505393,40.991452 16.2734375,40.3173865 16.2734375,39.5869141 C16.2734375,38.8456994 16.0585959,38.1984891 15.6289062,37.6452637 C15.1992166,37.0920382 14.4902393,36.6274433 13.5019531,36.2514648 C12.8681609,36.0043933 11.4663194,35.6203639 9.29638672,35.0993652 C7.12645399,34.5783665 5.60644966,34.0869164 4.73632812,33.625 C3.6083928,33.0341767 2.76782503,32.3010298 2.21459961,31.4255371 C1.66137419,30.5500445 1.38476562,29.5698296 1.38476562,28.4848633 C1.38476562,27.2924745 1.72314115,26.1779837 2.39990234,25.1413574 C3.07666354,24.1047311 4.06493491,23.3178738 5.36474609,22.7807617 C6.66455728,22.2436497 8.10936705,21.9750977 9.69921875,21.9750977 C11.4502041,21.9750977 12.9943781,22.2570773 14.3317871,22.8210449 C15.6691961,23.3850126 16.6977503,24.2148383 17.4174805,25.3105469 C18.1372106,26.4062555 18.5239255,27.6469657 18.5776367,29.0327148 L15.5805664,29.2583008 C15.4194328,27.7651293 14.8742722,26.6372108 13.9450684,25.8745117 C13.0158645,25.1118126 11.6435638,24.7304688 9.828125,24.7304688 C7.93749055,24.7304688 6.55981878,25.0769008 5.69506836,25.7697754 C4.83031794,26.4626499 4.39794922,27.2978467 4.39794922,28.2753906 C4.39794922,29.1240277 4.7040985,29.8222629 5.31640625,30.3701172 C5.91797176,30.9179715 7.48900097,31.4792452 10.029541,32.0539551 C12.5700811,32.628665 14.3129836,33.1308572 15.2583008,33.5605469 C16.6333077,34.1943391 17.6484342,34.9973096 18.3037109,35.9694824 C18.9589877,36.9416553 19.2866211,38.0615171 19.2866211,39.3291016 C19.2866211,40.5859438 18.9267614,41.7702581 18.2070312,42.8820801 C17.4873011,43.993902 16.4533759,44.8586395 15.1052246,45.4763184 C13.7570733,46.0939972 12.2397545,46.402832 10.5532227,46.402832 C8.41551666,46.402832 6.6242748,46.0913117 5.17944336,45.4682617 C3.73461192,44.8452117 2.60132247,43.9079652 1.77954102,42.6564941 C0.957759563,41.405023 0.52539084,39.989754 0.482421875,38.4106445 Z M22.9860352,52.5581055 L22.9860352,28.8876953 L25.6286133,28.8876953 L25.6286133,31.1113281 C26.2516633,30.2412066 26.9552695,29.5886252 27.7394531,29.1535645 C28.5236367,28.7185037 29.4743108,28.5009766 30.5915039,28.5009766 C32.0524487,28.5009766 33.3414983,28.8769494 34.4586914,29.6289062 C35.5758845,30.3808631 36.4191378,31.4416435 36.9884766,32.8112793 C37.5578153,34.1809151 37.8424805,35.6821207 37.8424805,37.3149414 C37.8424805,39.0659267 37.5282746,40.642327 36.8998535,42.0441895 C36.2714324,43.4460519 35.3583556,44.5202599 34.1605957,45.2668457 C32.9628358,46.0134315 31.7033269,46.3867188 30.3820312,46.3867188 C29.4152295,46.3867188 28.5478066,46.1826192 27.7797363,45.7744141 C27.0116661,45.3662089 26.3805689,44.8505891 25.8864258,44.2275391 L25.8864258,52.5581055 L22.9860352,52.5581055 Z M25.6125,37.5405273 C25.6125,39.7426868 26.0582963,41.3701119 26.9499023,42.4228516 C27.8415084,43.4755912 28.9210874,44.0019531 30.1886719,44.0019531 C31.4777408,44.0019531 32.5814895,43.4567926 33.4999512,42.3664551 C34.4184128,41.2761176 34.8776367,39.5869255 34.8776367,37.2988281 C34.8776367,35.1181532 34.4291549,33.485357 33.5321777,32.4003906 C32.6352006,31.3154243 31.5636781,30.7729492 30.3175781,30.7729492 C29.0822204,30.7729492 27.9892137,31.350336 27.0385254,32.505127 C26.087837,33.6599179 25.6125,35.3383679 25.6125,37.5405273 Z M41.0746094,46 L41.0746094,22.3779297 L43.975,22.3779297 L43.975,46 L41.0746094,46 Z M48.2867187,25.7133789 L48.2867187,22.3779297 L51.1871094,22.3779297 L51.1871094,25.7133789 L48.2867187,25.7133789 Z M48.2867187,46 L48.2867187,28.8876953 L51.1871094,28.8876953 L51.1871094,46 L48.2867187,46 Z M61.734668,43.4057617 L62.1536133,45.9677734 C61.3372029,46.1396493 60.6067415,46.2255859 59.962207,46.2255859 C58.9094674,46.2255859 58.0930693,46.0590837 57.5129883,45.7260742 C56.9329072,45.3930647 56.5247082,44.955325 56.2883789,44.4128418 C56.0520496,43.8703586 55.9338867,42.7290126 55.9338867,40.9887695 L55.9338867,31.1435547 L53.8069336,31.1435547 L53.8069336,28.8876953 L55.9338867,28.8876953 L55.9338867,24.6499023 L58.8181641,22.909668 L58.8181641,28.8876953 L61.734668,28.8876953 L61.734668,31.1435547 L58.8181641,31.1435547 L58.8181641,41.1499023 C58.8181641,41.9770549 58.8691889,42.5087879 58.9712402,42.7451172 C59.0732915,42.9814465 59.2397938,43.1694329 59.4707519,43.309082 C59.7017101,43.4487312 60.0320291,43.5185547 60.4617187,43.5185547 C60.783986,43.5185547 61.2082981,43.4809574 61.734668,43.4057617 Z M121.95166,46 L131.023438,22.3779297 L134.391113,22.3779297 L144.059082,46 L140.498047,46 L137.742676,38.8457031 L127.865234,38.8457031 L125.270996,46 L121.95166,46 Z M128.767578,36.2998047 L136.775879,36.2998047 L134.310547,29.7578125 C133.55859,27.7704979 133.000002,26.1377017 132.634766,24.859375 C132.333983,26.374031 131.909671,27.8779222 131.361816,29.3710938 L128.767578,36.2998047 Z M145.402148,25.7133789 L145.402148,22.3779297 L148.302539,22.3779297 L148.302539,25.7133789 L145.402148,25.7133789 Z M145.402148,46 L145.402148,28.8876953 L148.302539,28.8876953 L148.302539,46 L145.402148,46 Z M151.885352,46 L151.885352,28.8876953 L154.495703,28.8876953 L154.495703,31.4819336 C155.161722,30.2680603 155.776706,29.4677754 156.340674,29.0810547 C156.904641,28.694334 157.524997,28.5009766 158.201758,28.5009766 C159.179302,28.5009766 160.172944,28.8124969 161.182715,29.4355469 L160.183691,32.1264648 C159.474703,31.7075174 158.765726,31.4980469 158.056738,31.4980469 C157.422946,31.4980469 156.853616,31.6887188 156.34873,32.0700684 C155.843845,32.4514179 155.483985,32.9804654 155.269141,33.6572266 C154.946873,34.6884817 154.785742,35.8164001 154.785742,37.0410156 L154.785742,46 L151.885352,46 Z M162.106836,52.5581055 L162.106836,28.8876953 L164.749414,28.8876953 L164.749414,31.1113281 C165.372464,30.2412066 166.07607,29.5886252 166.860254,29.1535645 C167.644437,28.7185037 168.595112,28.5009766 169.712305,28.5009766 C171.173249,28.5009766 172.462299,28.8769494 173.579492,29.6289062 C174.696685,30.3808631 175.539939,31.4416435 176.109277,32.8112793 C176.678616,34.1809151 176.963281,35.6821207 176.963281,37.3149414 C176.963281,39.0659267 176.649075,40.642327 176.020654,42.0441895 C175.392233,43.4460519 174.479156,44.5202599 173.281396,45.2668457 C172.083637,46.0134315 170.824128,46.3867188 169.502832,46.3867188 C168.53603,46.3867188 167.668607,46.1826192 166.900537,45.7744141 C166.132467,45.3662089 165.50137,44.8505891 165.007227,44.2275391 L165.007227,52.5581055 L162.106836,52.5581055 Z M164.733301,37.5405273 C164.733301,39.7426868 165.179097,41.3701119 166.070703,42.4228516 C166.962309,43.4755912 168.041888,44.0019531 169.309473,44.0019531 C170.598542,44.0019531 171.70229,43.4567926 172.620752,42.3664551 C173.539214,41.2761176 173.998437,39.5869255 173.998437,37.2988281 C173.998437,35.1181532 173.549956,33.485357 172.652978,32.4003906 C171.756001,31.3154243 170.684479,30.7729492 169.438379,30.7729492 C168.203021,30.7729492 167.110014,31.350336 166.159326,32.505127 C165.208638,33.6599179 164.733301,35.3383679 164.733301,37.5405273 Z M178.580273,37.4438477 C178.580273,34.2748865 179.461124,31.927742 181.222852,30.4023438 C182.694539,29.1347593 184.488466,28.5009766 186.604687,28.5009766 C188.957238,28.5009766 190.880071,29.2717208 192.373242,30.8132324 C193.866414,32.354744 194.612988,34.4843614 194.612988,37.2021484 C194.612988,39.4043079 194.282669,41.1364683 193.622021,42.3986816 C192.961374,43.660895 191.999957,44.6411098 190.737744,45.3393555 C189.475531,46.0376011 188.097859,46.3867188 186.604687,46.3867188 C184.209168,46.3867188 182.272908,45.61866 180.79585,44.0825195 C179.318791,42.546379 178.580273,40.3335105 178.580273,37.4438477 Z M181.56123,37.4438477 C181.56123,39.6352649 182.039253,41.2761176 182.995312,42.3664551 C183.951372,43.4567926 185.154485,44.0019531 186.604687,44.0019531 C188.044148,44.0019531 189.24189,43.454107 190.197949,42.3583984 C191.154009,41.2626898 191.632031,39.5922964 191.632031,37.347168 C191.632031,35.2309465 191.151323,33.627691 190.189893,32.5373535 C189.228462,31.447016 188.033406,30.9018555 186.604687,30.9018555 C185.154485,30.9018555 183.951372,31.4443305 182.995312,32.5292969 C182.039253,33.6142632 181.56123,35.2524304 181.56123,37.4438477 Z M197.180664,46 L197.180664,28.8876953 L199.791016,28.8876953 L199.791016,31.4819336 C200.457035,30.2680603 201.072019,29.4677754 201.635986,29.0810547 C202.199954,28.694334 202.820309,28.5009766 203.49707,28.5009766 C204.474614,28.5009766 205.468257,28.8124969 206.478027,29.4355469 L205.479004,32.1264648 C204.770016,31.7075174 204.061039,31.4980469 203.352051,31.4980469 C202.718258,31.4980469 202.148928,31.6887188 201.644043,32.0700684 C201.139158,32.4514179 200.779298,32.9804654 200.564453,33.6572266 C200.242186,34.6884817 200.081055,35.8164001 200.081055,37.0410156 L200.081055,46 L197.180664,46 Z M213.734668,43.4057617 L214.153613,45.9677734 C213.337203,46.1396493 212.606741,46.2255859 211.962207,46.2255859 C210.909467,46.2255859 210.093069,46.0590837 209.512988,45.7260742 C208.932907,45.3930647 208.524708,44.955325 208.288379,44.4128418 C208.05205,43.8703586 207.933887,42.7290126 207.933887,40.9887695 L207.933887,31.1435547 L205.806934,31.1435547 L205.806934,28.8876953 L207.933887,28.8876953 L207.933887,24.6499023 L210.818164,22.909668 L210.818164,28.8876953 L213.734668,28.8876953 L213.734668,31.1435547 L210.818164,31.1435547 L210.818164,41.1499023 C210.818164,41.9770549 210.869189,42.5087879 210.97124,42.7451172 C211.073291,42.9814465 211.239794,43.1694329 211.470752,43.309082 C211.70171,43.4487312 212.032029,43.5185547 212.461719,43.5185547 C212.783986,43.5185547 213.208298,43.4809574 213.734668,43.4057617 Z" id="splitAirport" fill="#D8D8D8" fill-rule="nonzero"></path>
    </g>
</svg>