<?xml version="1.0" encoding="UTF-8"?>
<svg width="1824px" height="1172px" viewBox="0 0 1824 1172" version="1.1" xmlns="http://www.w3.org/2000/svg" xmlns:xlink="http://www.w3.org/1999/xlink">
    <!-- Generator: Sketch 52.5 (67469) - http://www.bohemiancoding.com/sketch -->
    <title>Combined Shape</title>
    <desc>Created with Sketch.</desc>
    <g id="Page-1" stroke="none" stroke-width="1" fill="none" fill-rule="evenodd">
        <g id="dataRobot" fill="#FFFFFF" fill-rule="nonzero">
            <g id="Group">
                <path d="M231.6,1063.7 C231,1070.7 230,1077.7 228.8,1084.7 C227.6,1091.7 225.9,1098.6 223.9,1105.4 C221.9,1112.1 219.5,1118.3 216.8,1123.8 C213,1131.8 208.1,1138.6 202.2,1144.3 C196.2,1149.9 189.3,1154.6 181.5,1158.4 C175.8,1161.2 169.8,1163.3 163.6,1164.8 C157.5,1166.3 151.3,1167.4 145,1168 C138.8,1168.6 132.4,1168.9 125.9,1168.9 C119.6,1168.9 113.4,1168.9 107.1,1168.9 L0.7,1168.9 L0.7,918.3 L107,918.3 C117.3,918.3 127.7,918.8 138.4,919.8 C149,920.8 159.2,923 168.8,926.4 C178.5,929.8 187.3,934.6 195.5,940.7 C203.6,946.8 210.3,954.9 215.6,964.9 C221.4,976.2 225.6,989.1 228.4,1003.6 C231.1,1018.1 232.5,1031.6 232.5,1044.2 C232.5,1050.2 232.2,1056.7 231.6,1063.7 Z M170.3,1013.1 C168.1,1002.2 164.6,992.7 159.6,984.6 C153.6,975 145.9,968.9 136.7,966.2 C127.4,963.5 117.5,962.2 107,962.2 L54,962.2 L54,1125.1 L107,1125.1 C113,1125.1 119.7,1124.5 127.1,1123.2 C134.5,1121.9 140.8,1119.9 146.1,1117.1 C151.6,1114.1 156.1,1109.6 159.6,1103.6 C163.1,1097.6 165.8,1091.2 167.8,1084.2 C169.8,1077.3 171.3,1070.2 172.1,1063 C173,1055.8 173.4,1049.4 173.4,1043.8 C173.5,1034.2 172.5,1024 170.3,1013.1 Z M325.3,1168.7 C318.5,1168.7 311.7,1168.6 304.8,1168.5 C297.9,1168.4 291.2,1167.5 284.7,1165.7 C273.2,1162.7 264.3,1156.2 258.3,1146.4 C252.3,1136.5 249.3,1125.9 249.3,1114.6 C249.3,1105.8 251.1,1097.2 254.8,1088.7 C258.4,1080.2 263.9,1073.2 271.2,1067.6 C274.5,1065.1 278.4,1063.2 282.9,1061.8 C287.4,1060.4 292.2,1059.4 297.1,1058.8 C302,1058.2 306.8,1057.8 311.6,1057.7 C316.4,1057.6 320.8,1057.5 324.8,1057.5 L386.7,1057.5 L386.7,1054.5 C386.7,1048 385.8,1042.8 384.1,1038.9 C382.3,1035 379.8,1032 376.4,1029.9 C373,1027.8 368.9,1026.4 364.2,1025.8 C359.4,1025.2 354.2,1024.9 348.4,1024.9 L263.4,1024.9 L263.4,985.8 L348.3,985.8 C351.8,985.8 355.3,985.8 358.7,986 C362.1,986.1 365.5,986.2 369,986.2 C384.5,986.7 397.8,990 408.7,996 C419.7,1002 427.6,1012.9 432.6,1028.7 C434.6,1035 435.8,1041.1 436.2,1047.1 C436.6,1053.1 436.8,1059.4 436.7,1065.9 L436.7,1168.8 L325.3,1168.8 L325.3,1168.7 Z M386.5,1096.6 L319.8,1096.6 C314.5,1096.6 310,1098 306.4,1100.7 C302.8,1103.4 300.9,1107.7 300.9,1113.4 C300.9,1117.4 301.7,1120.4 303.4,1122.6 C305,1124.7 307.2,1126.3 309.8,1127.3 C312.4,1128.3 315.4,1128.9 318.7,1129.2 C322,1129.4 325.1,1129.6 328.1,1129.6 L386.5,1129.6 L386.5,1096.6 Z M547.7,1168.9 C535.2,1168.9 523.9,1166.7 514,1162.3 C504,1157.9 496.6,1149.5 491.9,1136.9 C489.9,1130.9 488.7,1124.8 488.2,1118.7 C487.7,1112.5 487.4,1106.3 487.5,1100.1 L487.5,1024.9 L455.5,1024.9 L455.5,985.8 L487.4,985.8 L487.4,918.5 L537.5,918.5 L537.5,985.8 L584.1,985.8 L584.1,1024.9 L537.5,1024.9 L537.5,1091.5 C537.5,1095.5 537.6,1100.5 537.7,1106.5 C537.8,1112.6 539.2,1117.3 541.7,1120.8 C543.9,1123.8 546.8,1126 550.3,1127.4 C553.8,1128.8 557.6,1129.6 561.6,1130 C565.6,1130.4 569.6,1130.4 573.6,1130.2 C577.6,1130 581.1,1129.8 584.1,1129.8 L584.1,1168.9 L547.7,1168.9 Z M674.3,1168.7 C667.5,1168.7 660.7,1168.7 653.8,1168.5 C646.9,1168.4 640.2,1167.4 633.7,1165.7 C622.2,1162.7 613.4,1156.3 607.4,1146.4 C601.4,1136.5 598.4,1125.9 598.4,1114.7 C598.4,1106 600.2,1097.3 603.9,1088.8 C607.5,1080.3 613,1073.3 620.3,1067.7 C623.6,1065.2 627.5,1063.3 632,1061.9 C636.5,1060.5 641.3,1059.5 646.2,1058.9 C651.1,1058.3 655.9,1057.9 660.7,1057.8 C665.5,1057.7 669.9,1057.6 673.9,1057.6 L735.8,1057.6 L735.8,1054.6 C735.8,1048.1 734.9,1042.9 733.2,1039 C731.4,1035.1 728.9,1032.1 725.5,1030 C722.1,1027.9 718,1026.5 713.3,1025.9 C708.5,1025.3 703.3,1025 697.5,1025 L612.6,1025 L612.6,985.9 L697.5,985.9 C701,985.9 704.5,985.9 707.9,986.1 C711.3,986.2 714.7,986.3 718.2,986.3 C733.7,986.8 747,990.1 757.9,996.1 C768.8,1002.1 776.8,1013 781.8,1028.8 C783.8,1035.1 785,1041.2 785.3,1047.2 C785.7,1053.2 785.9,1059.5 785.9,1066 L785.9,1168.9 L674.3,1168.9 L674.3,1168.7 Z M735.6,1096.6 L668.8,1096.6 C663.5,1096.6 659.1,1098 655.4,1100.7 C651.7,1103.4 649.9,1107.7 649.9,1113.4 C649.9,1117.4 650.7,1120.4 652.4,1122.5 C654,1124.6 656.2,1126.2 658.8,1127.2 C661.4,1128.2 664.4,1128.8 667.6,1129.1 C670.9,1129.3 674,1129.5 677.1,1129.5 L735.5,1129.5 L735.6,1096.6 Z M993.3,1168.9 C991.3,1163.1 990,1157.3 989.6,1151.2 C989.1,1145.2 988.5,1139.2 987.7,1133.2 C986.4,1121.7 984.4,1112.1 981.5,1104.5 C978.6,1096.9 974.5,1090.8 969.3,1086.3 C964,1081.8 957.4,1078.6 949.4,1076.7 C941.4,1074.8 931.6,1073.9 920.1,1073.9 L877.3,1073.9 L877.3,1168.9 L824.1,1168.9 L824.1,918.4 L946.6,918.4 C955.9,918.4 965.3,918.7 975,919.3 C984.6,919.9 993.9,921.5 1002.6,924 C1017.4,928.3 1028.9,936.3 1037.2,948.1 C1045.5,959.9 1049.6,973.3 1049.6,988.3 C1049.6,1005.6 1045.9,1020.7 1038.7,1033.6 C1031.4,1046.5 1019.1,1055.7 1001.9,1061.2 C1007.4,1063.2 1012.1,1065.1 1016,1067 C1019.9,1068.9 1023.3,1071.2 1026.3,1073.8 C1029.3,1076.4 1032,1079.6 1034.2,1083.2 C1036.4,1086.8 1038.7,1091.4 1040.9,1096.9 C1044.4,1105.2 1046.4,1113.7 1046.7,1122.4 C1047.1,1131.2 1047.8,1139.9 1048.8,1148.7 C1049.5,1155.2 1051,1162 1053.3,1169 L993.3,1169 L993.3,1168.9 Z M987.4,978.2 C985.4,973.9 982.7,970.7 979.3,968.4 C975.9,966.1 971.9,964.5 967.1,963.6 C962.3,962.7 957.2,962.2 951.7,962.2 L877,962.2 L877,1030.1 L951.6,1030.1 C963.9,1030.1 973.3,1027.6 980.1,1022.6 C986.9,1017.6 990.2,1008.2 990.2,994.7 C990.4,987.9 989.4,982.5 987.4,978.2 Z M1253.8,1119.1 C1248.9,1130.5 1242.2,1140.1 1233.5,1147.9 C1224.9,1155.7 1214.6,1161.6 1202.7,1165.6 C1190.8,1169.6 1177.8,1171.6 1163.5,1171.6 C1133,1171.6 1109.3,1163.3 1092.6,1146.6 C1075.8,1129.9 1067.4,1106.3 1067.4,1075.7 C1067.4,1061.4 1069.8,1048.5 1074.5,1037 C1079.2,1025.5 1085.9,1015.7 1094.4,1007.8 C1102.9,999.9 1113.1,993.8 1125,989.6 C1136.9,985.4 1149.8,983.2 1163.8,983.2 C1194.3,983.2 1218.2,991.6 1235.3,1008.4 C1252.4,1025.2 1261,1049 1261,1079.9 C1261.1,1094.5 1258.7,1107.7 1253.8,1119.1 Z M1207.2,1055.6 C1205.7,1048.9 1203.2,1043.1 1199.7,1038.2 C1196.2,1033.3 1191.5,1029.4 1185.7,1026.5 C1179.9,1023.7 1172.7,1022.2 1164.3,1022.2 C1155.4,1022.2 1147.9,1023.7 1142.1,1026.7 C1136.3,1029.7 1131.7,1033.7 1128.3,1038.7 C1124.9,1043.8 1122.6,1049.7 1121.2,1056.5 C1119.8,1063.3 1119.1,1070.6 1119.1,1078.6 C1119.1,1086.3 1119.9,1093.4 1121.5,1099.9 C1123.1,1106.4 1125.7,1112.1 1129.3,1117 C1132.9,1121.8 1137.6,1125.6 1143.5,1128.3 C1149.3,1131 1156.5,1132.4 1164.9,1132.4 C1173.3,1132.4 1180.5,1130.9 1186.2,1128 C1191.9,1125 1196.5,1121.1 1200,1116.1 C1203.5,1111.2 1205.9,1105.3 1207.3,1098.5 C1208.7,1091.7 1209.4,1084.6 1209.4,1077.2 C1209.4,1069.5 1208.7,1062.3 1207.2,1055.6 Z M1466.2,1120.8 C1459.9,1134.8 1449.7,1146.4 1435.5,1155.4 C1425.2,1161.9 1414.9,1165.8 1404.4,1167.1 C1393.9,1168.3 1382.8,1169 1371,1168.9 L1289.2,1168.9 L1289.2,918.4 L1339.3,918.4 L1339.3,985.7 L1383.9,985.7 C1412.7,985.7 1435.2,993.3 1451.3,1008.5 C1467.4,1023.7 1475.5,1045.8 1475.5,1074.9 C1475.6,1091.4 1472.5,1106.7 1466.2,1120.8 Z M1413.9,1038.4 C1406.2,1029.4 1393.9,1024.9 1376.9,1024.9 L1339.3,1024.9 L1339.3,1129.8 L1376.9,1129.8 C1393.1,1129.8 1405.3,1124.7 1413.3,1114.6 C1421.4,1104.4 1425.4,1091.7 1425.4,1076.4 C1425.5,1060.1 1421.6,1047.4 1413.9,1038.4 Z M1677.9,1119.1 C1673,1130.5 1666.3,1140.1 1657.6,1147.9 C1649,1155.7 1638.7,1161.6 1626.9,1165.6 C1615,1169.6 1601.9,1171.6 1587.7,1171.6 C1557.2,1171.6 1533.5,1163.3 1516.8,1146.6 C1500,1129.9 1491.7,1106.3 1491.7,1075.7 C1491.7,1061.4 1494.1,1048.5 1498.8,1037 C1503.6,1025.5 1510.2,1015.7 1518.7,1007.8 C1527.2,999.9 1537.4,993.8 1549.3,989.6 C1561.2,985.3 1574.1,983.2 1588.2,983.2 C1618.7,983.2 1642.6,991.6 1659.7,1008.4 C1676.8,1025.2 1685.4,1049 1685.4,1079.9 C1685.3,1094.5 1682.8,1107.7 1677.9,1119.1 Z M1631.3,1055.6 C1629.8,1048.9 1627.3,1043.1 1623.8,1038.2 C1620.3,1033.3 1615.7,1029.4 1609.8,1026.5 C1604,1023.7 1596.8,1022.2 1588.3,1022.2 C1579.4,1022.2 1571.9,1023.7 1566.1,1026.7 C1560.2,1029.7 1555.7,1033.7 1552.3,1038.8 C1548.9,1043.9 1546.6,1049.8 1545.2,1056.6 C1543.8,1063.4 1543.2,1070.7 1543.2,1078.6 C1543.2,1086.3 1544,1093.4 1545.6,1099.9 C1547.2,1106.4 1549.8,1112.1 1553.4,1116.9 C1557,1121.7 1561.8,1125.5 1567.6,1128.2 C1573.4,1130.9 1580.6,1132.3 1589,1132.3 C1597.5,1132.3 1604.5,1130.8 1610.3,1127.8 C1616,1124.9 1620.7,1120.9 1624.1,1116 C1627.6,1111 1630,1105.2 1631.4,1098.4 C1632.7,1091.6 1633.4,1084.5 1633.4,1077.1 C1633.6,1069.5 1632.9,1062.3 1631.3,1055.6 Z M1786.8,1168.9 C1774.3,1168.9 1763.1,1166.7 1753.1,1162.3 C1743.1,1157.9 1735.8,1149.5 1731.1,1136.9 C1729.1,1130.9 1727.8,1124.8 1727.3,1118.7 C1726.8,1112.5 1726.5,1106.3 1726.5,1100.1 L1726.5,1024.9 L1694.5,1024.9 L1694.5,985.8 L1726.5,985.8 L1726.5,918.5 L1776.6,918.5 L1776.6,985.8 L1823.2,985.8 L1823.2,1025 L1776.6,1025 L1776.6,1091.6 C1776.6,1095.6 1776.6,1100.6 1776.8,1106.7 C1776.9,1112.7 1778.2,1117.5 1780.8,1121 C1783,1124 1785.9,1126.2 1789.5,1127.6 C1793,1129 1796.7,1129.8 1800.8,1130.2 C1804.8,1130.6 1808.8,1130.7 1812.8,1130.4 C1816.8,1130.2 1820.3,1130 1823.3,1130 L1823.3,1169.1 L1786.8,1169.1 L1786.8,1168.9 Z M969.7,192.2 C986.5,192.2 1000.2,212.5 1000.2,237.5 C1000.2,262.5 986.5,282.8 969.7,282.8 C952.8,282.8 939.2,262.5 939.2,237.5 C939.2,212.5 952.9,192.2 969.7,192.2 Z M760.2,192.2 C777,192.2 790.7,212.5 790.7,237.5 C790.7,262.5 777,282.8 760.2,282.8 C743.3,282.8 729.7,262.5 729.7,237.5 C729.7,212.5 743.4,192.2 760.2,192.2 Z M1166.4,135.7 C1179.1,137.8 1189,149.5 1189.1,162.4 L1189.1,251.8 C1189.1,264.7 1179.2,276.3 1166.5,278.4 L1164,278.8 L1164,368.6 C1164,412.6 1128,448.6 1084,448.6 L960.6,448.6 L960.6,469.8 L971.4,469.8 L1010.7,485.6 L1010.7,491.4 L1025.5,491.4 L1025.5,506.8 C1056.1,508.2 1080.6,533.5 1080.6,564.5 L1080.6,582 L1086.5,582 L1105.2,600.7 L1105.2,652.2 C1097.9,659.5 1093.8,663.6 1086.5,670.9 L1047.4,670.9 L1039.4,662.9 L1039.4,636.5 L1024,636.6 L1024,594.1 C1024,587.5 1029.3,582.2 1035.9,582.2 L1043.2,582.2 L1043.2,564.7 C1043.2,554.3 1035.4,545.7 1025.4,544.4 L1025.4,565.1 L1009.3,565.1 L1009.3,627 L987.9,650.3 L987.9,682.3 C1003.7,682.3 1021,683.8 1043.7,703.3 L1043.7,735.3 L876.1,735.3 L876.1,672.8 L855.6,672.8 L855.6,735.3 L688,735.3 L688,703.3 C710.7,683.8 728,682.3 743.8,682.3 L743.8,650.3 L723.2,627 L723.2,565.1 L706.2,565.1 L706.2,544.5 C696.4,546 688.8,554.5 688.8,564.7 L688.8,582.2 L696.1,582.2 C702.7,582.2 708,587.5 708,594.1 L708,636.6 L692.6,636.5 L692.6,662.9 L684.6,670.9 L645.5,670.9 L626.8,652.2 L626.8,600.7 C634.1,593.4 638.2,589.3 645.5,582 L651.4,582 L651.4,564.5 C651.4,533.7 675.6,508.4 706.1,506.8 L706.1,491.3 L720.9,491.3 L720.9,485.5 L760.2,469.7 L771,469.7 L771,448.5 L645.8,448.5 C601.8,448.5 565.8,412.5 565.8,368.5 L565.8,278.7 L563.4,278.3 C550.7,276.2 540.8,264.5 540.8,251.7 L540.8,162.3 C540.8,149.4 550.7,137.8 563.4,135.7 L565.8,135.3 L565.8,80.4 C565.8,36.4 601.8,0.4 645.8,0.4 L1083.9,0.4 C1127.9,0.4 1163.9,36.4 1163.9,80.4 L1163.9,135.3 L1166.4,135.7 Z M1143.1,350 L1143.1,94.1 C1143.1,58.9 1114.3,30.1 1079.1,30.1 L650.7,30.1 C615.5,30.1 586.7,58.9 586.7,94.1 L586.7,350 C586.7,385.2 615.5,414 650.7,414 L1079.1,414 C1114.3,414 1143.1,385.2 1143.1,350 Z" id="Combined-Shape"></path>
            </g>
        </g>
    </g>
</svg>