<?xml version="1.0" encoding="UTF-8"?>
<svg width="1034px" height="221px" viewBox="0 0 1034 221" version="1.1" xmlns="http://www.w3.org/2000/svg" xmlns:xlink="http://www.w3.org/1999/xlink">
    <!-- Generator: Sketch 52.5 (67469) - http://www.bohemiancoding.com/sketch -->
    <title>Combined Shape</title>
    <desc>Created with Sketch.</desc>
    <g id="Page-1" stroke="none" stroke-width="1" fill="none" fill-rule="evenodd">
        <g id="microsoft" fill="#FFFFFF" fill-rule="nonzero">
            <path d="M1033.746,99.838 L1011.171,99.838 L1011.171,144.58 C1011.171,150.314 1012.2,154.413 1014.228,156.757 C1016.233,159.08 1019.465,160.257 1023.833,160.257 C1024.995,160.257 1026.495,160.004 1028.291,159.499 C1030.079,159.003 1031.604,158.336 1032.829,157.52 L1033.747,156.913 L1033.747,175.261 L1033.45,175.437 C1032.106,176.207 1029.823,176.928 1026.471,177.65 C1023.178,178.353 1019.953,178.712 1016.889,178.712 C998.242,178.712 988.787,168.554 988.787,148.509 L988.787,99.838 L955.318,99.838 L955.318,176.427 L932.751,176.427 L932.751,99.838 L917.031,99.838 L917.031,81.658 L932.751,81.658 L932.751,68.542 C932.751,61.952 934.206,55.997 937.073,50.841 C939.95,45.679 944.057,41.619 949.278,38.775 C954.496,35.935 960.479,34.502 967.064,34.502 C972.289,34.502 976.504,35.063 979.603,36.177 L979.995,36.321 L979.995,55.467 L979.162,55.095 C975.84,53.614 972.539,52.863 969.351,52.863 C964.916,52.863 961.439,54.287 959.008,57.088 C956.56,59.923 955.318,64.174 955.318,69.729 L955.318,81.659 L988.787,81.659 L988.787,60.244 L989.205,60.117 L1010.41,53.629 L1011.17,53.395 L1011.17,81.658 L1033.746,81.658 L1033.746,99.838 Z M866.635,160.26 C874.874,160.26 881.176,157.594 885.367,152.346 C889.587,147.058 891.727,139.153 891.727,128.862 C891.727,118.696 889.451,110.894 884.967,105.666 C880.505,100.465 874.276,97.83 866.451,97.83 C858.387,97.83 851.991,100.589 847.437,106.025 C842.856,111.497 840.536,119.362 840.536,129.411 C840.536,139.151 842.856,146.817 847.435,152.194 C851.986,157.544 858.444,160.26 866.635,160.26 Z M867.638,79.375 C882.359,79.375 894.035,83.755 902.336,92.396 C910.633,101.033 914.838,113.057 914.838,128.127 C914.838,143.384 910.357,155.765 901.512,164.911 C892.666,174.067 880.501,178.71 865.353,178.71 C850.816,178.71 839.066,174.304 830.432,165.606 C821.798,156.911 817.421,144.976 817.421,130.138 C817.421,114.516 821.905,102.017 830.749,92.985 C839.599,83.954 852.011,79.375 867.638,79.375 Z M781.036,79.375 C784.289,79.375 788.029,79.761 792.152,80.526 C796.294,81.296 799.704,82.245 802.29,83.354 L802.644,83.506 L802.644,104.116 L801.722,103.486 C798.919,101.579 795.561,100.02 791.738,98.856 C787.912,97.692 784.065,97.098 780.305,97.098 C776.253,97.098 773.022,98.012 770.701,99.809 C768.398,101.597 767.276,103.805 767.276,106.561 C767.276,109.67 768.185,112.125 769.975,113.861 C771.832,115.658 776.333,117.999 783.359,120.819 C792.178,124.375 798.501,128.398 802.144,132.78 C805.812,137.198 807.673,142.676 807.673,149.064 C807.673,157.919 804.216,165.159 797.395,170.589 C790.617,175.982 781.328,178.714 769.793,178.714 C766.055,178.714 761.752,178.216 757.016,177.237 C752.271,176.259 748.245,175.016 745.052,173.542 L744.708,173.382 L744.708,151.655 L745.645,152.327 C749.503211,155.097086 753.764301,157.257648 758.279,158.733 C762.826,160.231 766.977,160.991 770.616,160.991 C780.427,160.991 785.195,157.893 785.195,151.526 C785.195,149.29 784.725,147.478 783.798,146.154 C782.844,144.801 781.155,143.412 778.775,142.03 C776.34,140.62 772.507,138.831 767.367,136.716 C761.253,134.089 756.639,131.507 753.65,129.042 C750.638,126.557 748.371,123.596 746.906,120.233 C745.45,116.881 744.71,112.929 744.71,108.48 C744.71,99.921 748.138,92.848 754.896,87.455 C761.613,82.094 770.406,79.375 781.036,79.375 Z M685.879,160.26 C694.121,160.26 700.42,157.594 704.611,152.346 C708.831,147.058 710.972,139.153 710.972,128.862 C710.972,118.696 708.697,110.894 704.212,105.666 C699.749,100.465 693.52,97.83 685.698,97.83 C677.63,97.83 671.235,100.589 666.685,106.025 C662.103,111.497 659.784,119.362 659.784,129.411 C659.784,139.153 662.1,146.817 666.68,152.194 C671.23,157.544 677.69,160.26 685.879,160.26 Z M686.885,79.375 C701.603,79.375 713.277,83.755 721.58,92.396 C729.879,101.033 734.085,113.057 734.085,128.127 C734.085,143.384 729.602,155.765 720.759,164.911 C711.913,174.067 699.745,178.71 684.599,178.71 C670.062,178.71 658.313,174.304 649.679,165.606 C641.045,156.911 636.665,144.982 636.665,130.138 C636.665,114.516 641.152,102.017 649.996,92.985 C658.841,83.954 671.254,79.375 686.885,79.375 Z M602.409,98.07 L602.646,98.07 C604.729,92.744 607.453,88.473 611.222,85.358 C615.516,81.814 620.529,80.014 626.131,80.014 C629.847,80.014 632.784,80.459 634.86,81.341 L635.221,81.496 L635.221,103.97 L634.284,103.291 C633.252,102.547 631.502,101.84 629.086,101.189 C626.645,100.534 624.391,100.203 622.383,100.203 C616.459,100.203 611.607,102.764 607.966,107.818 C604.278,112.933 602.409,119.705 602.409,127.948 L602.409,176.425 L580.117,176.425 L580.117,81.658 L602.409,81.658 L602.409,98.07 Z M540.196,79.375 C544.179,79.375 548.371,79.823 552.657,80.712 C556.961,81.603 560.428,82.778 562.97,84.201 L563.272,84.371 L563.272,105.89 L562.337,105.211 C555.582,100.311 548.442,97.83 541.115,97.83 C532.549,97.83 525.514,100.734 520.207,106.459 C514.884,112.201 512.183,119.983 512.183,129.59 C512.183,139.137 514.773,146.724 519.881,152.127 C524.978,157.523 532,160.26 540.747,160.26 C543.897,160.26 547.489,159.565 551.429,158.19 C555.379,156.814 559.05,154.904 562.335,152.511 L563.272,151.827 L563.272,172.25 L562.979,172.418 C555.727,176.595 546.682,178.713 536.088,178.713 C527.01,178.713 518.811,176.72 511.717,172.789 C504.613,168.853 499.001,163.178 495.036,155.924 C491.073,148.682 489.068,140.465 489.068,131.511 C489.068,121.289 491.136,112.123 495.209,104.276 C499.3,96.41 505.313,90.224 513.088,85.891 C520.847,81.568 529.969,79.375 540.196,79.375 Z M473.715,81.659 L473.715,176.425 L451.423,176.425 L451.423,81.659 L473.715,81.659 Z M462.797,41.288 C466.656,41.288 469.918,42.574 472.489,45.112 C475.062,47.655 476.368,50.748 476.368,54.307 C476.368,57.938 475.026,61.005 472.38,63.425 C469.751,65.83 466.529,67.051 462.798,67.051 C459.066,67.051 455.856,65.83 453.258,63.421 C450.643,61.005 449.32,57.937 449.32,54.307 C449.32,50.619 450.659,47.494 453.299,45.012 C455.928,42.537 459.128,41.288 462.797,41.288 Z M407.177,74.667 L406.443,74.667 L366.07,176.425 L349.936,176.425 L308.923,74.657 L308.189,74.657 L308.189,176.424 L286.81,176.425 L286.81,44.189 L319.579,44.189 L358.418,142.41 L398.44,44.189 L429.927,44.189 L429.927,176.425 L407.177,176.425 L407.177,74.667 Z M104.868,104.868 L0,104.868 L0,0 L104.868,0 L104.868,104.868 Z M220.654,104.868 L115.788,104.868 L115.788,0 L220.654,0 L220.654,104.868 Z M104.865,220.695 L0,220.695 L0,115.828 L104.865,115.828 L104.865,220.695 Z M220.654,220.695 L115.788,220.695 L115.788,115.828 L220.654,115.828 L220.654,220.695 Z" id="Combined-Shape"></path>
        </g>
    </g>
</svg>