<?xml version="1.0" encoding="UTF-8"?>
<svg width="149px" height="48px" viewBox="0 0 149 48" version="1.1" xmlns="http://www.w3.org/2000/svg" xmlns:xlink="http://www.w3.org/1999/xlink">
    <!-- Generator: Sketch 52.5 (67469) - http://www.bohemiancoding.com/sketch -->
    <title>Combined-Shape</title>
    <desc>Created with Sketch.</desc>
    <g id="Page-1" stroke="none" stroke-width="1" fill="none" fill-rule="evenodd">
        <g id="toptal" fill="#FFFFFF" fill-rule="nonzero">
            <path d="M33.2,19.8 L17.2,35.8 L24.6,43.2 L20.6,47.2 L0.9,27.5 L16.9,11.5 L9.5,4.1 L13.5,0.1 L33.2,19.8 Z M9.8,28.1 L12.2,30.6 L24.1,18.6 L21.7,16.2 L9.8,28.1 Z M46.8,5.8 L46.8,11.8 L53.4,11.8 L53.4,15.3 L46.8,15.3 L46.8,28.9 C46.8,32 47.7,33.8 50.2,33.8 C51.4,33.8 52.2,33.7 52.9,33.5 L53.1,37 C52.2,37.3 50.8,37.6 49,37.6 C46.9,37.6 45.1,36.9 44.1,35.7 C42.9,34.3 42.3,32.1 42.3,29.1 L42.3,15.3 L38.4,15.3 L38.4,11.8 L42.3,11.8 L42.3,7.1 L46.8,5.8 Z M78,24.3 C78,33.6 71.5,37.7 65.4,37.7 C58.6,37.7 53.3,32.7 53.3,24.7 C53.3,16.3 58.9,11.4 65.8,11.4 C73.1,11.3 78,16.6 78,24.3 Z M58.1,24.5 C58.1,30 61.2,34.2 65.7,34.2 C70.1,34.2 73.4,30.1 73.4,24.4 C73.4,20.1 71.3,14.8 65.8,14.8 C60.4,14.8 58.1,19.8 58.1,24.5 Z M80.3,20.1 C80.3,16.9 80.2,14.3 80.1,11.9 L84.2,11.9 L84.5,16.2 L84.6,16.2 C86.4,13.1 89.4,11.4 93.6,11.4 C99.7,11.4 104.3,16.6 104.3,24.2 C104.3,33.3 98.7,37.7 92.8,37.7 C89.5,37.7 86.5,36.2 85,33.7 L84.9,33.7 L84.9,47.4 L80.4,47.4 L80.4,20.1 L80.3,20.1 Z M84.8,26.8 C84.8,27.5 84.9,28.1 85,28.7 C85.8,31.9 88.6,34.1 91.9,34.1 C96.7,34.1 99.6,30.1 99.6,24.4 C99.6,19.4 96.9,15.1 92.1,15.1 C89,15.1 86,17.3 85.2,20.7 C85,21.3 84.9,22 84.9,22.5 L84.9,26.8 L84.8,26.8 Z M113,5.8 L113,11.8 L119.6,11.8 L119.6,15.3 L113,15.3 L113,28.9 C113,32 113.9,33.8 116.4,33.8 C117.6,33.8 118.4,33.7 119.1,33.5 L119.3,37 C118.4,37.3 117,37.6 115.2,37.6 C113.1,37.6 111.3,36.9 110.3,35.7 C109,34.3 108.5,32.1 108.5,29.1 L108.5,15.3 L104.6,15.3 L104.6,11.8 L108.5,11.8 L108.5,7.1 L113,5.8 Z M140.4,31 C140.4,33.2 140.5,35.3 140.8,37 L136.7,37 L136.3,33.8 L136.1,33.8 C134.7,35.8 132,37.6 128.4,37.6 C123.3,37.6 120.7,34 120.7,30.4 C120.7,24.3 126.1,21 135.9,21 L135.9,20.5 C135.9,18.5 135.3,14.7 130.2,14.7 C127.8,14.7 125.4,15.4 123.6,16.6 L122.6,13.5 C124.7,12.2 127.8,11.3 130.9,11.3 C138.6,11.3 140.5,16.6 140.5,21.6 L140.5,31 L140.4,31 Z M136,24.2 C131,24.1 125.3,25 125.3,29.9 C125.3,32.9 127.3,34.3 129.6,34.3 C132.9,34.3 135.1,32.2 135.8,30.1 C136,29.6 136,29.1 136,28.6 L136,24.2 Z M143.8,0.1 L148.4,0.1 L148.4,37.1 L143.8,37.1 L143.8,0.1 Z" id="Combined-Shape"></path>
        </g>
    </g>
</svg>