<?xml version="1.0" encoding="UTF-8"?>
<svg width="448px" height="282px" viewBox="0 0 448 282" version="1.1" xmlns="http://www.w3.org/2000/svg" xmlns:xlink="http://www.w3.org/1999/xlink">
    <!-- Generator: Sketch 54 (76480) - https://sketchapp.com -->
    <title>Combined Shape</title>
    <desc>Created with Sketch.</desc>
    <g id="Page-1" stroke="none" stroke-width="1" fill="none" fill-rule="evenodd">
        <g id="46elks-logo-blue" fill="#FFFFFF" fill-rule="nonzero">
            <path d="M189.3,267.9 L180.4,267.9 L178.3,280 L157.9,280 L160,267.9 L131.1,267.9 L133.8,252.5 L171.2,212.6 L190.1,212.6 L183.3,251.4 L192.2,251.4 L189.3,267.9 Z M162.9,251.3 L165,238.7 L153.4,251.3 L162.9,251.3 Z M220.6,239.3 C224.4,236.8 229,235.6 234.3,235.6 C239.6,235.6 243.8,236.9 246.8,239.7 C249.8,242.5 251.3,246.7 251.3,252.3 C251.3,261.2 248.4,268.3 242.7,273.4 C236.9,278.6 230.1,281.2 222.1,281.2 C206.1,281.2 197.2,271.2 197.2,255.2 C197.2,239.4 202.8,225.8 214.3,217.8 C219.9,213.8 226.6,211.8 234.2,211.8 C241.9,211.8 252.6,214.1 252.6,222.4 C252.6,225.6 250.4,230 247.4,232.9 C243.9,229.8 239.6,228.3 234.8,228.3 C225.9,228.2 222.4,232.3 220.6,239.3 Z M217.2,252.9 C216.6,258 216.9,264.6 223.5,264.6 C228.1,264.6 231.1,261.2 231.1,255 C231.1,251.6 229.2,249.4 226.1,249.4 C223,249.4 220.1,250.6 217.2,252.9 Z M302.1,262.6 C303.5,264.6 304.2,266.9 304.2,269.6 C304.2,278.3 296.5,281.1 284.3,281.1 C277.2,281.1 271.4,279.2 266.7,275.4 C262,271.7 259.6,266.3 259.6,259.3 C259.6,251 262.7,244.2 268.7,238.8 C274.7,233.4 281.6,230.8 289.5,230.8 C295.8,230.8 300.7,232.3 304,235.3 C307.3,238.3 309.1,241.8 309,245.8 C309,255.9 303,261 290.8,261 C285.7,261 281.2,260.2 277.5,258.7 C276.8,264.4 281.5,267.4 288.5,267.4 C294.8,267.4 299.3,265.8 302.1,262.6 Z M279.2,250.7 C281,251.4 283.6,251.7 287,251.7 C291.3,251.7 293.4,250.4 293.4,247.6 C293.4,245.6 292,244 289.3,244 C284.9,243.9 281.4,246.2 279.2,250.7 Z M330,280 L310.5,280 L320.4,224 C321.3,219.6 321.5,216.2 321,213.6 C323.8,212.8 326.9,212.5 330.6,212.5 C338.6,212.5 341.5,216.3 340.1,224.1 L330,280 Z M366.8,239 C372.2,233.5 378.9,230.8 387,230.8 C395.3,230.8 399.3,234.8 399.2,242 C399,251.7 388.9,258.5 381.5,259.2 C382.6,263.4 386.5,266.4 391.5,266.4 C393.1,266.4 394.8,266 396.5,265.2 C397.6,267.4 398,269.6 398,272 C398,278.1 394.5,281.2 387.4,281.2 C382,281.2 377.5,279.4 374.1,275.4 C364.9,264.5 368.7,251.6 368.7,251.6 C372.5,251.9 375.9,251.5 378.7,250.5 C381.5,249.4 382.9,248.1 382.9,246.6 C382.9,244.8 381.5,243.8 378.6,243.8 C373.2,243.8 368.5,246.7 364.3,252.3 L359.4,280.1 L339.7,280.1 L349.6,224.1 C350.5,219.7 350.7,216.3 350.2,213.7 C353,212.9 356.1,212.6 359.9,212.6 C367.9,212.6 370.9,216.4 369.5,224.2 L366.8,239 Z M426.6,265.3 C426.6,264.1 424.7,262.9 420.8,261.9 C416.6,260.7 414.1,259.7 410.8,257.5 C407.4,255.3 405.6,252.1 405.6,247.8 C405.6,242.2 407.8,237.9 412.3,235 C416.8,232.1 422.5,230.7 429.5,230.7 C436.4,230.7 447.6,232.6 447.6,239.5 C447.6,242.6 446.2,245.8 443.2,249.2 C440,245.9 435.1,244.2 428.5,244.2 C425.5,244.2 424,244.9 424,246.3 C424,247.4 425.5,248.2 429.6,249.5 C434.7,251 437.1,252 440.4,254.2 C443.6,256.4 445.1,259.5 445.1,263.8 C445.1,275.3 436.3,281.1 420.3,281.1 C407.7,281.1 401.4,278 401.4,271.8 C401.4,268.2 402.8,264.8 405.7,261.7 C409.2,265.1 416,267.6 422.2,267.6 C425.1,267.4 426.6,266.7 426.6,265.3 Z M205.5,146 C210.6,149.8 214,155.9 214.1,162.7 C214.1,174.2 204.8,183.5 193.3,183.5 C184.1,183.5 176.4,177.6 173.6,169.4 C122.8,157.5 96.8,253.5 88.8,278.8 C63.7,267.3 31.7,252.7 19.3,247.4 C-0.700001,238.8 -8.5,205.6 15,185.3 L92.1,129.9 C54.8,146.7 49.8,118.6 49.8,118.6 L98.9,115.1 C98.9,115.1 99.1,115.1 99.3,115.1 C98,114.8 86,112 82.9,111.2 C44.5,102.9 20.1,87.4 10.4,65 C-2.5,35.2 16.2,5.5 17,4.2 C19.5,0.399999 24.5,-0.700002 28.3,1.7 C32.1,4.2 33.2,9.2 30.8,13 C30.7,13.3 16,36.9 25.5,58.7 C27.9,64.3 31.6,69.3 36.7,73.8 C28.8,49.1 42.9,23.8 43.5,22.7 C45.7,18.7 50.7,17.4 54.6,19.6 C58.5,21.8 59.9,26.8 57.7,30.7 C57.5,31.1 45,53.8 53.7,72.4 C55.3,75.9 57.6,79 60.6,81.9 C56.1,63 66.3,44.7 66.8,43.8 C69,39.8 74,38.5 77.9,40.7 C81.8,42.9 83.2,47.9 81,51.8 C80.8,52.1 71.7,68.9 78,82.3 C82.2,91.3 92.6,97.4 109,100.6 C121.3,103 130.9,102.2 137.6,97.3 C148.2,89.6 148.9,74.5 148.9,74.3 C149,70.4 152.3,67.3 156.2,67.4 C160.1,67.5 163.2,70.8 163.1,74.7 C163.1,75.5 162.5,92.2 151.1,104.3 C155,103.2 158.5,101.5 161.6,99.3 C176.4,88.6 177.1,68.1 177.1,67.9 C177.2,64 180.5,60.9 184.4,61 C188.3,61.1 191.4,64.4 191.3,68.3 C191.3,69.4 190.5,91.8 174.7,106.9 C180.2,105.3 185.1,102.9 189.3,99.7 C207,86.2 206.5,62.1 206.5,61.9 C206.3,58 209.5,54.7 213.4,54.6 C217.3,54.4 220.6,57.6 220.7,61.5 C220.7,62.7 221.3,93.1 197.9,111 C187.1,119.3 173.3,123.4 156.6,123.4 C154.1,123.4 151.5,123.3 148.8,123.1 L198.3,142.1 C201.2,143.2 203.6,144.5 205.5,146 Z M126.5,146.5 C130.7,146.5 134.2,143 134.2,138.8 C134.2,134.5 130.7,131.1 126.5,131.1 C122.2,131.1 118.8,134.6 118.8,138.8 C118.8,143.1 122.3,146.5 126.5,146.5 Z" id="Combined-Shape"></path>
        </g>
    </g>
</svg>