<?xml version="1.0" encoding="UTF-8"?>
<svg width="496px" height="501px" viewBox="0 0 496 501" version="1.1" xmlns="http://www.w3.org/2000/svg" xmlns:xlink="http://www.w3.org/1999/xlink">
    <title>a1</title>
    <g id="Page-1" stroke="none" stroke-width="1" fill="none" fill-rule="evenodd">
        <g id="a1" fill="#FFFFFF" fill-rule="nonzero">
            <path d="M199.5625,58.75 L283.625,75.3125 C284.815476,75.610119 286.005952,76.7580782 286.386581,77.9465298 L286.4375,78.125 L396.75,453.4375 C397.0625,454.375 396.75,455.625 396.125,456.5625 C395.539063,457.441406 394.678467,458.045654 393.543213,458.117752 L393.3125,458.125 L342.6875,464.375 L324.5625,466.875 L323.9375,466.875 L289.5625,460 C288.372024,459.702381 287.181548,458.837868 286.800919,457.406463 L286.75,457.1875 L273.3125,403.125 L303,401.5625 L318.625,454.0625 C318.925481,455.865385 320.381657,456.801498 321.882283,456.870839 L322.0625,456.875 L323,456.875 C324.814516,456.270161 326.043704,454.202003 325.554673,452.369864 L325.5,452.1875 L309.25,396.875 C308.949074,395.069444 307.489026,394.13323 305.707,394.066358 L305.5,394.0625 L239.875,397.5 L170.5,401.25 L146.75,485 C146.451705,486.491477 145.299199,487.413481 143.836073,487.766012 L143.625,487.8125 L46.75,500.3125 L45.9273834,500.312071 C45.4823293,500.309023 45.1890136,500.284298 44.7391424,500.083749 L44.5625,500 L2.375,480.3125 C0.86637931,479.709052 -0.0596016647,477.649004 0.44088011,475.820003 L0.5,475.625 L141.4375,85 C141.729167,84.125 142.293056,83.25 143.129167,82.8831481 L143.3125,82.8125 L190.8125,59.6875 L49.5625,483.75 C48.9375,485.625 50.1875,487.8125 52.0625,488.4375 C52.375,488.75 53,488.75 53.3125,488.75 C55.1059783,488.75 56.3276229,487.89225 56.9774338,486.450234 L57.0625,486.25 L199.5625,58.75 Z M481.75,0 L481.827714,0.0777141247 L481.827714,0.0777141247 L482.011786,0.261786251 C482.020239,0.270238542 482.027282,0.277282119 482.033152,0.283151766 L482.056161,0.306160781 C482.0625,0.3125 482.0625,0.3125 482.0625,0.3125 L495.1875,14.0625 C495.1875,14.0625 495.5,14.375 495.5,14.6875 L495.49926,15.0607075 C495.47525,26.867625 494.875,314.6875 494.875,314.6875 C494.875,314.6875 495.1875,315 494.875,315 C494.743222,315 492.055231,316.778234 488.990326,318.834972 L488.490354,319.170701 C488.40659,319.226984 488.322636,319.283411 488.238536,319.339953 L487.585257,319.779475 C487.476137,319.852941 487.366958,319.926471 487.257813,320 L486.604086,320.440668 C483.208444,322.730937 480.026405,324.896928 479.880239,324.996433 L479.875,325 L479.250429,325 L411.125,319.375 C411.125,319.375 410.878086,319.375 410.823217,319.155521 L410.8125,319.0625 L410.8125,105.9375 C404.875,111.5625 396.75,118.4375 386.4375,125.9375 C369.773438,137.972656 355.242529,145.741504 347.960536,149.244043 L347.6875,149.375 L347.68811,90.2581787 C347.692383,90.0146484 347.726563,89.0234375 348,88.75 C348.3125,88.4375 349.25,87.8125 350.5,87.1875 C351.75,86.5625 374.5625,76.875 392.6875,58.125 C410.8125,39.375 413,34.0625 417.6875,23.4375 C422.242958,13.415493 422.666423,9.29633257 422.686665,9.0722196 L422.6875,9.0625 C422.6875,9.0625 422.6875,8.4375 423.3125,8.125 C424.191406,7.83203125 424.795654,7.8137207 424.867752,7.81257629 L424.875,7.8125 L474.25,0.9375 L474.25,311.5625 C474.25,313.75 475.8125,315.3125 478,315.3125 C480.116935,315.3125 481.648543,313.849181 481.745154,311.772211 L481.75,311.5625 L481.75,0 Z M238.9375,156.5625 L238.735494,156.567791 C237.337391,156.641517 236.209899,157.481972 235.589264,158.85291 L235.5,159.0625 L184.5625,319.375 C184.25,320.625 184.5625,321.875 185.1875,322.8125 C186.066406,323.691406 186.945313,324.295654 188.081711,324.367752 L188.3125,324.375 L286.4375,324.375 C287.6875,324.375 288.9375,323.75 289.5625,322.8125 C290.154605,321.924342 290.46624,320.755713 289.965984,320.103741 L289.875,320 L242.375,159.375 C242.0625,157.8125 240.5,156.5625 238.9375,156.5625 Z M239.25,173.125 L281.75,316.5625 L253,316.875 L225.5,215.3125 L239.25,173.125 Z M404.25,121.875 L404.5625,144.0625 C403.883152,144.470109 403.189036,144.892486 402.496204,145.313579 L401.666449,145.817246 C399.460893,147.153237 397.334239,148.410326 395.8125,149.0625 C393.864448,149.971591 390.297236,151.63629 386.793108,153.27155 L386.137234,153.577624 C381.447989,155.765939 377.0625,157.8125 377.0625,157.8125 C377.0625,157.8125 376.815586,158.059414 376.541238,158.114283 L376.4375,158.125 L375.8125,158.125 L352.0625,155.625 C359.5625,151.875 374.5625,144.0625 391.75,131.5625 C396.125,128.125 400.5,125 404.25,121.875 Z" id="Combined-Shape"></path>
        </g>
    </g>
</svg>