<?xml version="1.0" encoding="UTF-8"?>
<svg width="1135px" height="250px" viewBox="0 0 1135 250" version="1.1" xmlns="http://www.w3.org/2000/svg" xmlns:xlink="http://www.w3.org/1999/xlink">
    <!-- Generator: Sketch 53.2 (72643) - https://sketchapp.com -->
    <title>Combined Shape</title>
    <desc>Created with Sketch.</desc>
    <g id="Page-1" stroke="none" stroke-width="1" fill="none" fill-rule="evenodd">
        <g id="AduroLogoBW" fill="#FFFFFF" fill-rule="nonzero">
            <path d="M63,141.2 L54.3,150.1 L0.4,104.9 L54.3,59.7 L63,68.6 L19.3,104.7 L63,141.2 Z M144.2,148.8 L143.9,137.9 C139.5,142.2 135.1,145.4 130.5,147.3 C126,149.2 121.2,150.2 116.3,150.2 C111.7,150.2 107.8,149.6 104.5,148.4 C101.2,147.2 98.6,145.6 96.4,143.5 C94.3,141.4 92.7,139 91.7,136.2 C90.7,133.4 90.2,130.4 90.2,127.1 C90.2,119 93.2,112.7 99.2,108.1 C105.2,103.5 114.1,101.2 125.9,101.2 L142.6,101.2 L142.6,94.1 C142.6,89.3 141.1,85.5 138,82.6 C135,79.7 130.3,78.3 124,78.3 C119.5,78.3 115,78.8 110.6,79.8 C106.2,80.8 101.6,82.3 96.9,84.1 L96.9,71.5 C98.7,70.9 100.6,70.2 102.8,69.6 C105,69 107.3,68.4 109.7,68 C112.1,67.5 114.6,67.1 117.2,66.8 C119.8,66.5 122.5,66.4 125.1,66.4 C130,66.4 134.3,66.9 138.3,68 C142.2,69.1 145.5,70.7 148.2,72.9 C150.9,75.1 153,77.9 154.4,81.2 C155.8,84.5 156.6,88.4 156.6,93 L156.6,148.7 L144.2,148.7 L144.2,148.8 Z M142.7,112 L125,112 C121.5,112 118.5,112.3 116,113 C113.5,113.7 111.4,114.7 109.8,116 C108.2,117.3 107,118.8 106.2,120.6 C105.4,122.4 105,124.4 105,126.7 C105,128.3 105.2,129.7 105.7,131.2 C106.2,132.6 107,133.9 108,135 C109.1,136.1 110.5,137 112.2,137.6 C113.9,138.2 116,138.6 118.5,138.6 C121.7,138.6 125.4,137.6 129.5,135.7 C133.6,133.7 138,130.6 142.6,126.4 L142.6,112 L142.7,112 Z M178.7,110.1 C178.7,103.2 179.6,97.1 181.5,91.8 C183.4,86.5 186,82 189.5,78.3 C192.9,74.6 197.1,71.8 201.9,69.9 C206.7,68 212.1,67 218.1,67 C220.7,67 223.2,67.2 225.7,67.5 C228.2,67.8 230.6,68.3 233,69 L233,35 L247,35 L247,148.7 L234.5,148.7 L234,133.4 C230.1,139.1 225.9,143.3 221.3,146 C216.8,148.7 211.8,150.1 206.5,150.1 C201.9,150.1 197.9,149.1 194.4,147.2 C190.9,145.3 188,142.5 185.7,139 C183.4,135.5 181.6,131.3 180.4,126.3 C179.3,121.5 178.7,116.1 178.7,110.1 Z M192.9,109.2 C192.9,119 194.3,126.3 197.2,131.1 C200.1,135.9 204.1,138.3 209.3,138.3 C212.8,138.3 216.6,136.7 220.5,133.6 C224.4,130.4 228.6,125.7 232.9,119.5 L232.9,82 C230.6,80.9 228.1,80.1 225.3,79.5 C222.5,78.9 219.8,78.7 217,78.7 C209.4,78.7 203.5,81.2 199.2,86.1 C195.1,90.9 192.9,98.6 192.9,109.2 Z M337.8,148.8 L325.3,148.8 L324.8,135.8 C322.4,138.6 320.1,140.9 317.9,142.8 C315.7,144.7 313.6,146.1 311.4,147.3 C309.3,148.4 307.1,149.2 304.9,149.7 C302.7,150.2 300.5,150.4 298,150.4 C289.7,150.4 283.5,148 279.2,143.1 C275,138.2 272.9,130.8 272.9,121 L272.9,68 L286.9,68 L286.9,119.7 C286.9,132.1 291.6,138.3 300.9,138.3 C302.6,138.3 304.3,138 305.9,137.5 C307.5,137 309.2,136.1 311,134.8 C312.8,133.5 314.7,131.8 316.8,129.7 C318.9,127.6 321.2,124.8 323.7,121.6 L323.7,68 L337.7,68 L337.7,148.8 L337.8,148.8 Z M366.7,68 L379.5,68 L379.9,82.9 C384.7,77.2 389.4,73 394,70.4 C398.6,67.8 403.3,66.5 408,66.5 C416.3,66.5 422.7,69.2 427,74.6 C431.3,80 433.3,88.1 433,98.7 L418.9,98.7 C419.1,91.6 418,86.5 415.8,83.3 C413.6,80.1 410.3,78.5 406.1,78.5 C404.2,78.5 402.3,78.8 400.4,79.5 C398.5,80.2 396.6,81.2 394.5,82.7 C392.5,84.2 390.4,86.1 388.1,88.4 C385.9,90.7 383.4,93.5 380.9,96.8 L380.9,148.7 L366.8,148.7 L366.8,68 L366.7,68 Z M702.4,110.1 C702.4,103.2 703.3,97.1 705.2,91.8 C707.1,86.5 709.7,82 713.2,78.3 C716.6,74.6 720.8,71.8 725.6,69.9 C730.4,68 735.8,67 741.8,67 C744.4,67 746.9,67.2 749.4,67.5 C751.9,67.8 754.3,68.3 756.7,69 L756.7,35 L770.7,35 L770.7,148.7 L758.2,148.7 L757.7,133.4 C753.8,139.1 749.6,143.3 745,146 C740.5,148.7 735.5,150.1 730.2,150.1 C725.6,150.1 721.6,149.1 718.1,147.2 C714.6,145.3 711.7,142.5 709.4,139 C707.1,135.5 705.3,131.3 704.1,126.3 C703,121.5 702.4,116.1 702.4,110.1 Z M716.7,109.2 C716.7,119 718.1,126.3 721,131.1 C723.9,135.9 727.9,138.3 733.1,138.3 C736.6,138.3 740.4,136.7 744.3,133.6 C748.2,130.4 752.4,125.7 756.7,119.5 L756.7,82 C754.4,80.9 751.9,80.1 749.1,79.5 C746.3,78.9 743.6,78.7 740.8,78.7 C733.2,78.7 727.3,81.2 723,86.1 C718.8,90.9 716.7,98.6 716.7,109.2 Z M864.8,104.1 C864.8,106.1 864.8,107.7 864.7,109.1 C864.6,110.4 864.6,111.7 864.5,112.9 L808,112.9 C808,121.2 810.3,127.5 814.9,131.9 C819.5,136.3 826.1,138.5 834.8,138.5 C837.2,138.5 839.5,138.4 841.9,138.2 C844.3,138 846.5,137.8 848.7,137.4 C850.9,137.1 853,136.7 855,136.3 C857,135.9 858.9,135.5 860.6,135 L860.6,146.5 C856.8,147.6 852.5,148.4 847.7,149.1 C842.9,149.8 838,150.1 832.8,150.1 C825.9,150.1 820,149.2 815,147.3 C810,145.4 806,142.7 802.8,139.1 C799.6,135.5 797.3,131.2 795.7,126 C794.2,120.8 793.4,115 793.4,108.4 C793.4,102.7 794.2,97.3 795.8,92.3 C797.4,87.2 799.8,82.8 802.9,78.9 C806,75.1 809.9,72 814.4,69.8 C818.9,67.5 824.1,66.4 829.9,66.4 C835.5,66.4 840.5,67.3 844.8,69.1 C849.1,70.9 852.8,73.4 855.7,76.6 C858.7,79.8 860.9,83.8 862.4,88.4 C864,93.2 864.8,98.4 864.8,104.1 Z M850.3,102.1 C850.5,98.5 850.1,95.2 849.3,92.2 C848.4,89.2 847.1,86.7 845.3,84.5 C843.5,82.4 841.3,80.7 838.6,79.5 C835.9,78.3 832.8,77.7 829.3,77.7 C826.3,77.7 823.5,78.3 821,79.5 C818.5,80.7 816.3,82.3 814.5,84.5 C812.7,86.6 811.2,89.2 810.1,92.2 C809,95.2 808.3,98.5 808,102.1 L850.3,102.1 Z M938.8,148.8 L938.5,137.9 C934.1,142.2 929.7,145.4 925.1,147.3 C920.6,149.2 915.8,150.2 910.9,150.2 C906.3,150.2 902.4,149.6 899.1,148.4 C895.8,147.2 893.2,145.6 891,143.5 C888.9,141.4 887.3,139 886.3,136.2 C885.3,133.4 884.8,130.4 884.8,127.1 C884.8,119 887.8,112.7 893.8,108.1 C899.8,103.5 908.7,101.2 920.5,101.2 L937.2,101.2 L937.2,94.1 C937.2,89.3 935.7,85.5 932.6,82.6 C929.6,79.7 924.9,78.3 918.6,78.3 C914.1,78.3 909.6,78.8 905.2,79.8 C900.8,80.8 896.2,82.3 891.5,84.1 L891.5,71.5 C893.3,70.9 895.2,70.2 897.4,69.6 C899.6,69 901.9,68.4 904.3,68 C906.7,67.5 909.2,67.1 911.8,66.8 C914.4,66.5 917.1,66.4 919.7,66.4 C924.6,66.4 928.9,66.9 932.9,68 C936.8,69.1 940.1,70.7 942.8,72.9 C945.5,75.1 947.6,77.9 949,81.2 C950.4,84.5 951.2,88.4 951.2,93 L951.2,148.7 L938.8,148.7 L938.8,148.8 Z M937.3,112 L919.6,112 C916.1,112 913.1,112.3 910.6,113 C908.1,113.7 906,114.7 904.4,116 C902.8,117.3 901.6,118.8 900.8,120.6 C900,122.4 899.6,124.4 899.6,126.7 C899.6,128.3 899.8,129.7 900.3,131.2 C900.8,132.6 901.6,133.9 902.6,135 C903.7,136.1 905.1,137 906.8,137.6 C908.5,138.2 910.6,138.6 913.1,138.6 C916.3,138.6 920,137.6 924.1,135.7 C928.2,133.7 932.6,130.6 937.2,126.4 L937.2,112 L937.3,112 Z M1042.1,35 L987.1,166 L973.8,166 L1028.8,35 L1042.1,35 Z M1071.6,68.7 L1080.3,59.8 L1134.2,105 L1080.3,150.2 L1071.6,141.3 L1115.3,105.2 L1071.6,68.7 Z M475.7,135.1 L566.4,68.1 C566.5,70.6 566.6,73.1 566.6,75.8 C566.6,87 565.4,97.3 563.2,106.6 C561,115.9 557.6,123.9 553,130.5 C548.4,137.1 542.8,142.3 536,145.9 C529.2,149.6 521.2,151.4 512.1,151.4 C504.3,151.4 497.1,149.9 490.7,146.9 C484.9,144.2 480,140.3 475.7,135.1 Z M559.2,30.8 L576.6,18.3 L576.6,39.1 L564.4,48.1 C564.4,48.1 564.4,48.2 564.4,48.2 L459.2,125.8 L447.8,134.2 L447.8,112.5 L462.1,102 C460.7,94.2 460,85.5 460,75.7 C460,64.4 461.1,54.1 463.4,44.8 C465.7,35.5 469.1,27.5 473.6,20.9 C478.1,14.3 483.8,9.1 490.6,5.5 C497.4,1.8 505.3,0 514.4,0 C522.2,0 529.4,1.5 535.8,4.5 C542.2,7.4 547.7,12 552.3,18.2 C555,21.8 557.2,26 559.2,30.8 Z M686.1,148.8 L593.9,148.8 L593.9,130.5 L631.6,130.5 L631.6,23 L596.4,49.3 L596.4,28.8 L635.9,0.8 L653.2,0.8 L653.2,130.5 L686,130.5 L686,148.8 L686.1,148.8 Z M36,205.9 L33.1,248.6 L25.6,248.6 L20.3,233.4 L18.8,228.5 L17.3,233.8 L12.4,248.6 L5.1,248.6 L2.2,205.9 L7.7,205.9 L9.4,235 L9.9,243 L12,236.2 L17.1,220.3 L21.1,220.3 L27,237.3 L29,242.9 L29.1,237 L30.8,205.8 L36,205.8 L36,205.9 Z M81.5,248.6 L57.3,248.6 L57.3,205.9 L81.5,205.9 L81.5,210.8 L63.1,210.8 L63.1,224 L80.8,224 L80.8,228.9 L63.1,228.9 L63.1,243.6 L81.5,243.6 L81.5,248.6 Z M185.9,248.6 L180.2,248.6 L179.4,222 L179,211.8 L177,217.7 L170.7,234.7 L166.7,234.7 L160.7,218.4 L158.7,211.8 L158.6,222.5 L157.9,248.7 L152.4,248.7 L154.5,206 L161.4,206 L167.1,222.1 L169,227.5 L170.8,222.1 L176.8,206 L183.9,206 L185.9,248.6 Z M237.1,248.6 L230.8,248.6 L227.8,239.3 L210.1,239.3 L207.1,248.6 L201.1,248.6 L215.2,205.9 L223.1,205.9 L237.1,248.6 Z M226.2,234.1 L219,211.3 L211.8,234.1 L226.2,234.1 Z M284.9,248.6 L277.6,248.6 L261.7,227.6 L261.7,248.6 L255.9,248.6 L255.9,205.9 L261.7,205.9 L261.7,225.7 L277.3,205.9 L284.2,205.9 L267.4,226.2 L284.9,248.6 Z M331.6,248.6 L307.4,248.6 L307.4,205.9 L331.6,205.9 L331.6,210.8 L313.2,210.8 L313.2,224 L330.9,224 L330.9,228.9 L313.2,228.9 L313.2,243.6 L331.6,243.6 L331.6,248.6 Z M416.3,210.8 L406.5,210.8 L406.5,205.9 L432,205.9 L432,210.8 L422.2,210.8 L422.2,243.7 L432,243.7 L432,248.7 L406.5,248.7 L406.5,243.7 L416.3,243.7 L416.3,210.8 Z M484.7,210.9 L472.1,210.9 L472.1,248.7 L466.2,248.7 L466.2,210.9 L453.6,210.9 L453.6,205.9 L484.7,205.9 L484.7,210.9 Z M586.1,205.9 L583.2,248.6 L575.7,248.6 L570.4,233.4 L568.9,228.5 L567.4,233.8 L562.5,248.6 L555.2,248.6 L552.3,205.9 L557.8,205.9 L559.5,235 L560,243 L562.1,236.2 L567.2,220.3 L571.2,220.3 L577.1,237.3 L579.1,242.9 L579.2,237 L580.9,205.8 L586.1,205.8 L586.1,205.9 Z M635.8,227 C635.8,230.8 635.3,234.1 634.4,236.9 C633.5,239.7 632.3,242 630.8,243.8 C629.3,245.6 627.5,247 625.4,247.9 C623.3,248.8 621.2,249.2 618.9,249.2 C616.2,249.2 613.8,248.7 611.8,247.7 C609.8,246.7 608.1,245.3 606.8,243.4 C605.5,241.5 604.5,239.2 603.8,236.6 C603.1,233.9 602.8,230.9 602.8,227.5 C602.8,223.7 603.2,220.4 604.1,217.6 C605,214.8 606.2,212.5 607.7,210.7 C609.2,208.9 611,207.5 613.1,206.6 C615.1,205.7 617.3,205.3 619.6,205.3 C622.3,205.3 624.7,205.8 626.7,206.8 C628.7,207.8 630.4,209.2 631.8,211.1 C633.1,213 634.2,215.2 634.8,217.9 C635.4,220.6 635.8,223.6 635.8,227 Z M629.8,227.4 C629.8,224.9 629.6,222.6 629.2,220.5 C628.8,218.4 628.2,216.6 627.4,215.1 C626.6,213.6 625.5,212.4 624.1,211.6 C622.8,210.8 621.2,210.4 619.3,210.4 C617.5,210.4 615.9,210.8 614.6,211.7 C613.3,212.6 612.2,213.8 611.4,215.3 C610.6,216.8 609.9,218.6 609.5,220.6 C609.1,222.6 608.9,224.8 608.9,227.1 C608.9,229.6 609.1,231.9 609.5,234 C609.9,236.1 610.5,237.9 611.3,239.4 C612.1,240.9 613.2,242.1 614.5,242.9 C615.8,243.7 617.4,244.1 619.3,244.1 C621.1,244.1 622.7,243.7 624,242.8 C625.3,241.9 626.4,240.7 627.3,239.2 C628.2,237.7 628.8,235.9 629.2,233.9 C629.5,231.9 629.8,229.7 629.8,227.4 Z M685.1,248.6 L678.6,248.6 L672.2,234.9 C671.7,233.9 671.2,233 670.7,232.3 C670.2,231.6 669.7,231.1 669.1,230.7 C668.5,230.3 667.9,230 667.2,229.8 C666.5,229.6 665.8,229.5 664.9,229.5 L662.2,229.5 L662.2,248.5 L656.4,248.5 L656.4,205.8 L667.8,205.8 C670.3,205.8 672.4,206.1 674.2,206.6 C676,207.1 677.4,207.9 678.6,208.9 C679.7,209.9 680.6,211.1 681.1,212.4 C681.6,213.8 681.9,215.3 681.9,217 C681.9,218.3 681.7,219.6 681.3,220.8 C680.9,222 680.3,223.1 679.6,224 C678.8,225 677.9,225.8 676.7,226.5 C675.6,227.2 674.3,227.7 672.8,228.1 C674,228.5 675,229.2 675.8,230.3 C676.6,231.3 677.5,232.7 678.4,234.4 L685.1,248.6 Z M675.9,217.7 C675.9,215.4 675.2,213.7 673.8,212.6 C672.4,211.5 670.4,210.9 667.8,210.9 L662.3,210.9 L662.3,225 L667,225 C668.4,225 669.6,224.8 670.7,224.5 C671.8,224.2 672.7,223.7 673.5,223.1 C674.3,222.5 674.9,221.7 675.3,220.8 C675.6,219.9 675.9,218.8 675.9,217.7 Z M735,248.6 L727.7,248.6 L711.8,227.6 L711.8,248.6 L706,248.6 L706,205.9 L711.8,205.9 L711.8,225.7 L727.4,205.9 L734.3,205.9 L717.5,226.2 L735,248.6 Z M831.6,210.9 L813.5,210.9 L813.5,224.8 L830.6,224.8 L830.6,229.7 L813.5,229.7 L813.5,248.7 L807.6,248.7 L807.6,206 L831.6,206 L831.6,210.9 Z M885.8,227 C885.8,230.8 885.3,234.1 884.4,236.9 C883.5,239.7 882.3,242 880.8,243.8 C879.3,245.6 877.5,247 875.4,247.9 C873.3,248.8 871.2,249.2 868.9,249.2 C866.2,249.2 863.8,248.7 861.8,247.7 C859.8,246.7 858.1,245.3 856.8,243.4 C855.5,241.5 854.5,239.2 853.8,236.6 C853.1,233.9 852.8,230.9 852.8,227.5 C852.8,223.7 853.2,220.4 854.1,217.6 C855,214.8 856.2,212.5 857.7,210.7 C859.2,208.9 861,207.5 863.1,206.6 C865.1,205.7 867.3,205.3 869.6,205.3 C872.3,205.3 874.7,205.8 876.7,206.8 C878.7,207.8 880.4,209.2 881.8,211.1 C883.1,213 884.2,215.2 884.8,217.9 C885.5,220.6 885.8,223.6 885.8,227 Z M879.8,227.4 C879.8,224.9 879.6,222.6 879.2,220.5 C878.8,218.4 878.2,216.6 877.4,215.1 C876.6,213.6 875.5,212.4 874.1,211.6 C872.8,210.8 871.2,210.4 869.3,210.4 C867.5,210.4 865.9,210.8 864.6,211.7 C863.3,212.6 862.2,213.8 861.4,215.3 C860.6,216.8 859.9,218.6 859.5,220.6 C859.1,222.6 858.9,224.8 858.9,227.1 C858.9,229.6 859.1,231.9 859.5,234 C859.9,236.1 860.5,237.9 861.3,239.4 C862.1,240.9 863.2,242.1 864.5,242.9 C865.8,243.7 867.4,244.1 869.3,244.1 C871.1,244.1 872.7,243.7 874,242.8 C875.3,241.9 876.4,240.7 877.3,239.2 C878.2,237.7 878.8,235.9 879.2,233.9 C879.6,231.9 879.8,229.7 879.8,227.4 Z M935.2,248.6 L928.7,248.6 L922.3,234.9 C921.8,233.9 921.3,233 920.8,232.3 C920.3,231.6 919.8,231.1 919.2,230.7 C918.6,230.3 918,230 917.3,229.8 C916.6,229.6 915.9,229.5 915,229.5 L912.3,229.5 L912.3,248.5 L906.5,248.5 L906.5,205.8 L917.9,205.8 C920.4,205.8 922.5,206.1 924.3,206.6 C926.1,207.1 927.5,207.9 928.7,208.9 C929.8,209.9 930.7,211.1 931.2,212.4 C931.7,213.8 932,215.3 932,217 C932,218.3 931.8,219.6 931.4,220.8 C931,222 930.4,223.1 929.7,224 C928.9,225 928,225.8 926.8,226.5 C925.7,227.2 924.4,227.7 922.9,228.1 C924.1,228.5 925.1,229.2 925.9,230.3 C926.7,231.3 927.6,232.7 928.5,234.4 L935.2,248.6 Z M925.9,217.7 C925.9,215.4 925.2,213.7 923.8,212.6 C922.4,211.5 920.4,210.9 917.8,210.9 L912.3,210.9 L912.3,225 L917,225 C918.4,225 919.6,224.8 920.7,224.5 C921.8,224.2 922.7,223.7 923.5,223.1 C924.3,222.5 924.9,221.7 925.3,220.8 C925.7,219.9 925.9,218.8 925.9,217.7 Z M1037.7,205.9 L1022.3,233.4 L1022.3,248.7 L1016.4,248.7 L1016.4,233.3 L1001,206 L1008,206 L1016.5,221.6 L1019.6,227.9 L1022.5,222.2 L1031.1,206 L1037.7,206 L1037.7,205.9 Z M1085.9,227 C1085.9,230.8 1085.4,234.1 1084.5,236.9 C1083.6,239.7 1082.4,242 1080.9,243.8 C1079.4,245.6 1077.6,247 1075.5,247.9 C1073.4,248.8 1071.3,249.2 1069,249.2 C1066.3,249.2 1063.9,248.7 1061.9,247.7 C1059.9,246.7 1058.2,245.3 1056.9,243.4 C1055.6,241.5 1054.6,239.2 1053.9,236.6 C1053.2,233.9 1052.9,230.9 1052.9,227.5 C1052.9,223.7 1053.3,220.4 1054.2,217.6 C1055.1,214.8 1056.3,212.5 1057.8,210.7 C1059.3,208.9 1061.1,207.5 1063.2,206.6 C1065.2,205.7 1067.4,205.3 1069.7,205.3 C1072.4,205.3 1074.8,205.8 1076.8,206.8 C1078.8,207.8 1080.5,209.2 1081.9,211.1 C1083.2,213 1084.3,215.2 1084.9,217.9 C1085.6,220.6 1085.9,223.6 1085.9,227 Z M1079.9,227.4 C1079.9,224.9 1079.7,222.6 1079.3,220.5 C1078.9,218.4 1078.3,216.6 1077.5,215.1 C1076.7,213.6 1075.6,212.4 1074.2,211.6 C1072.9,210.8 1071.3,210.4 1069.4,210.4 C1067.6,210.4 1066,210.8 1064.7,211.7 C1063.4,212.6 1062.3,213.8 1061.5,215.3 C1060.7,216.8 1060,218.6 1059.6,220.6 C1059.2,222.6 1059,224.8 1059,227.1 C1059,229.6 1059.2,231.9 1059.6,234 C1060,236.1 1060.6,237.9 1061.4,239.4 C1062.2,240.9 1063.3,242.1 1064.6,242.9 C1065.9,243.7 1067.5,244.1 1069.4,244.1 C1071.2,244.1 1072.8,243.7 1074.1,242.8 C1075.4,241.9 1076.5,240.7 1077.4,239.2 C1078.3,237.7 1078.9,235.9 1079.3,233.9 C1079.7,231.9 1079.9,229.7 1079.9,227.4 Z M1134.2,233.8 C1134.2,236.2 1133.9,238.3 1133.2,240.2 C1132.5,242.1 1131.6,243.7 1130.3,245.1 C1129,246.4 1127.4,247.5 1125.6,248.2 C1123.7,248.9 1121.6,249.3 1119.2,249.3 C1116.6,249.3 1114.3,249 1112.5,248.3 C1110.7,247.6 1109.2,246.6 1108,245.3 C1106.8,244 1106,242.5 1105.5,240.7 C1105,238.9 1104.7,236.9 1104.7,234.7 L1104.7,206 L1110.5,206 L1110.5,234.3 C1110.5,236 1110.7,237.4 1111,238.7 C1111.3,240 1111.8,241 1112.5,241.9 C1113.2,242.7 1114.1,243.4 1115.3,243.8 C1116.4,244.2 1117.8,244.5 1119.5,244.5 C1122.6,244.5 1124.9,243.6 1126.3,241.8 C1127.8,240 1128.5,237.5 1128.5,234.2 L1128.5,206 L1134.3,206 L1134.3,233.8 L1134.2,233.8 Z M1132.8,187 L1.8,187 C1.5,187 1.3,186.8 1.3,186.5 L1.3,184.8 C1.3,184.5 1.5,184.3 1.8,184.3 L1132.8,184.3 C1133.1,184.3 1133.3,184.5 1133.3,184.8 L1133.3,186.5 C1133.2,186.8 1133,187 1132.8,187 Z" id="Combined-Shape"></path>
        </g>
    </g>
</svg>