<?xml version="1.0" encoding="UTF-8"?>
<svg width="77px" height="15px" viewBox="0 0 77 15" version="1.1" xmlns="http://www.w3.org/2000/svg" xmlns:xlink="http://www.w3.org/1999/xlink">
    <!-- Generator: Sketch 53.2 (72643) - https://sketchapp.com -->
    <title>Combined Shape</title>
    <desc>Created with Sketch.</desc>
    <g id="Page-1" stroke="none" stroke-width="1" fill="none" fill-rule="evenodd">
        <g id="agilo" fill="#FFFFFF" fill-rule="nonzero">
            <path d="M30.024,11.31 C29.652,6.688 29.374,3.716 29.188,2.392 L29.095,2.392 L24.683,11.122 L22.918,14.28 C22.64,14.768 22.385,15 21.99,15 C21.804,15 21.48,14.86 21.224,14.768 C20.528,14.512 20.528,14.094 20.784,13.63 L27.748,0.836 C28.073,0.232 28.514,0 29.14,0 L30.14,0 C30.417,0 30.998,0.14 31.09,0.86 L32.692,13.63 C32.715,13.793 32.715,13.932 32.715,14.07 C32.715,14.744 32.435,15 31.321,15 C30.834,15 30.578,14.768 30.485,14.21 L30.022,11.31 L30.024,11.31 Z M54.22,14.768 C53.43,14.768 53.268,14.258 53.407,13.63 L56.077,0.882 C56.193,0.302 56.379,0 56.773,0 L57.679,0 C58.537,0 58.537,0.418 58.444,0.882 L55.96,12.654 L62.323,12.654 C62.857,12.654 62.973,13.004 62.973,13.56 C62.973,14.42 62.508,14.767 61.881,14.767 L54.221,14.767 L54.22,14.768 Z M65.783,4.203 C66.41,1.115 67.57,0 70.38,0 L73.074,0 C76.881,0 76.672,3.18 76.371,4.667 L75.211,10.31 C74.585,13.4 73.493,14.768 70.683,14.768 L67.803,14.768 C63.996,14.768 64.251,11.564 64.553,10.078 L65.783,4.203 Z M74.003,4.923 L74.049,4.76 C74.396,2.88 74.071,2.113 72.632,2.113 L70.402,2.113 C68.752,2.113 68.405,2.88 68.01,4.807 L66.92,9.96 C66.502,11.982 66.758,12.654 68.338,12.654 L70.473,12.654 C72.33,12.654 72.539,11.888 72.913,10.054 L74.003,4.924 L74.003,4.923 Z M50.503,0.883 C50.621,0.303 50.807,0 51.201,0 L52.107,0 C52.967,0 52.967,0.418 52.874,0.882 L50.157,14.002 C50.041,14.582 49.855,14.884 49.46,14.884 L48.554,14.884 C47.696,14.884 47.696,14.466 47.787,14.002 L50.504,0.882 L50.503,0.883 Z M25.312,9.194 L30.142,9.194 L30.306,11.307 L24.29,11.307 L25.31,9.194 L25.312,9.194 Z M43.632,7.592 C43.75,7.012 43.959,6.71 44.354,6.71 L45.144,6.71 C46.002,6.71 46.002,7.128 45.908,7.593 L44.7,13.42 C44.513,14.373 43.933,14.768 43.05,14.768 L38.13,14.768 C35.6,14.768 34.298,13.375 34.786,10.96 L36.156,4.32 C36.897,0.672 38.476,0 40.984,0 L45.651,0 C46.186,0 46.301,0.348 46.301,0.906 C46.301,1.766 45.838,2.113 45.211,2.113 L41.008,2.113 C39.336,2.113 38.801,3.019 38.5,4.573 L37.245,10.217 C36.827,12.051 37.361,12.655 39.033,12.655 L42.633,12.655 L43.631,7.593 L43.632,7.592 Z M15.082,14.28 C14.802,14.768 14.572,15 14.176,15 C13.99,15 12.934,14.86 12.678,14.768 C11.981,14.512 12.005,14.094 12.238,13.63 L17.995,2.902 C18.275,2.415 18.645,2.182 19.04,2.182 C19.226,2.182 20.12,2.322 20.375,2.414 C21.072,2.669 21.072,3.087 20.815,3.552 L15.083,14.28 L15.082,14.28 Z M9.255,14.27 C8.977,14.758 8.745,14.99 8.35,14.99 C8.164,14.99 7.108,14.85 6.852,14.758 C6.156,14.502 6.179,14.084 6.412,13.62 L11.078,4.935 C11.358,4.448 11.566,4.215 11.96,4.215 C12.146,4.215 13.202,4.355 13.458,4.447 C14.155,4.702 14.155,5.12 13.898,5.585 L9.256,14.27 L9.255,14.27 Z M3.472,14.28 C3.192,14.768 2.962,15 2.566,15 C2.38,15 1.324,14.86 1.068,14.768 C0.372,14.512 0.395,14.094 0.628,13.63 L4.086,7.06 C4.366,6.572 4.574,6.34 4.969,6.34 C5.154,6.34 6.209,6.48 6.465,6.57 C7.162,6.826 7.162,7.244 6.905,7.71 L3.471,14.28 L3.472,14.28 Z" id="Combined-Shape"></path>
        </g>
    </g>
</svg>