<?xml version="1.0" encoding="UTF-8"?>
<svg width="137px" height="35px" viewBox="0 0 137 35" version="1.1" xmlns="http://www.w3.org/2000/svg" xmlns:xlink="http://www.w3.org/1999/xlink">
    <!-- Generator: Sketch 53.2 (72643) - https://sketchapp.com -->
    <title>Combined Shape</title>
    <desc>Created with Sketch.</desc>
    <g id="Page-1" stroke="none" stroke-width="1" fill="none" fill-rule="evenodd">
        <g id="algebra" fill="#FFFFFF" fill-rule="nonzero">
            <path d="M18,0 L19,0 C20.931,0.08 21.951,1.158 22.687,1.727 C24.231,2.923 25.011,4.802 25.637,6.311 L25.7,6.468 L28.707,13.818 C28.435,13.964 28.273,13.861 28,14 C27.235,14.387 25.805,14.632 25,15 L22.61,8.177 L22.398,7.657 C21.93,6.53 21.349,5.127 20.541,4.502 C20.26,4.284 19.628,3.937 18.458,3.913 C17.306,3.939 16.675,4.285 16.396,4.502 C15.588,5.127 15.006,6.53 14.54,7.656 L14.489,7.779 L5,31 L12.685,31 C13.073,32.052 13.73,32.667 14.639,33.432 C14.966,33.706 14.608,33.764 15,34 L0,34 L11.299,6.31 C11.925,4.802 12.704,2.923 14.249,1.728 C14.986,1.158 16.077,0.081 18,0 Z M15.283,32.556 C13.749,31.264 12.931,29.515 12.916,27.432 C12.916,25.015 14.033,22.985 16.33,21.228 C18.186,19.808 20.591,18.696 23.375,17.405 C27.654,15.423 30.041,14.451 35.013,10.919 L36.294,14.038 C32.381,16.942 28.389,18.958 24.852,20.597 C19.46,23.093 16.41,24.643 16.43,27.467 C16.439,28.47 16.793,29.23 17.546,29.866 C19.121,31.19 22.412,31.903 26.812,31.869 C28.564,31.857 30.906,31.58 32.105,31.454 L28.152,21.738 C29.176,21.235 30.257,20.768 31.307,20.175 L37.068,34.233 L33.996,34.811 C33.862,34.835 30.831,34.974 27,35 L26,35 C20.778,35 17.516,34.434 15.283,32.556 Z M47.573,11 L51.427,11 L56,24 L52.757,24 L51.86,21.308 L47.14,21.308 L46.24,24 L43,24 L47.573,11 Z M49.499,14.25 L49.5,14.25 L48.149,18.298 L50.851,18.298 L49.499,14.25 Z M58,11 L61.37,11 L61.37,20.992 L67,20.992 L67,24 L58,24 L58,11 Z M82,16.837 L82,23.767 L79.35,23.767 L79.35,22.012 C78.782,23.122 77.336,24 75.325,24 C71.797,24 69,21.297 69,17.536 C69,13.776 71.797,11 75.637,11 C78.783,11 81.177,12.862 81.872,15.495 L78.545,15.495 C78.033,14.492 76.99,13.901 75.637,13.901 C73.516,13.901 72.145,15.369 72.145,17.571 C72.145,19.578 73.278,21.189 75.563,21.189 C76.972,21.189 78.18,20.579 78.691,19.379 L74.888,19.379 L74.888,16.838 L82,16.838 L82,16.837 Z M88.174,14.01 L88.174,15.94 L93.477,15.94 L93.477,18.95 L88.174,18.95 L88.174,20.992 L94,20.992 L94,24 L85,24 L85,11 L94,11 L94,14.01 L88.174,14.01 Z M104.9,19.914 C104.9,19.19 104.65,18.837 103.621,18.837 L101.063,18.837 L101.063,20.992 L103.621,20.992 C104.649,20.992 104.901,20.582 104.901,19.914 L104.9,19.914 Z M103.28,14.008 L101.063,14.008 L101.063,15.958 L103.406,15.958 C104.09,15.958 104.467,15.661 104.467,14.974 C104.467,14.175 104.017,14.008 103.28,14.008 Z M108,20.193 C108,22.643 106.216,24 103.692,24 L98,24 L98,11 L103.692,11 C105.891,11 107.568,12.114 107.568,14.417 C107.568,15.679 107.044,16.441 106.09,16.961 C107.387,17.444 108,18.725 108,20.193 Z M116.407,14.01 L114.137,14.01 L114.137,16.72 L116.407,16.72 C117.497,16.72 118.013,16.275 118.013,15.384 C118.013,14.474 117.459,14.009 116.407,14.009 L116.407,14.01 Z M115.116,19.488 L114.138,19.488 L114.138,24 L111,24 L111,11 L116.757,11 C119.49,11 121.188,12.635 121.188,15.346 C121.188,17.426 120.191,18.671 118.603,19.191 L122,24 L118.16,24 L115.116,19.488 Z M131.85,18.298 L130.5,14.25 L129.15,18.298 L131.85,18.298 Z M132.858,21.308 L128.142,21.308 L127.242,24 L124,24 L128.574,11 L132.426,11 L137,24 L133.759,24 L132.859,21.308 L132.858,21.308 Z" id="Combined-Shape"></path>
        </g>
    </g>
</svg>