<?xml version="1.0" encoding="UTF-8"?>
<svg width="314px" height="103px" viewBox="0 0 314 103" version="1.1" xmlns="http://www.w3.org/2000/svg" xmlns:xlink="http://www.w3.org/1999/xlink">
    <!-- Generator: Sketch 53.2 (72643) - https://sketchapp.com -->
    <title>path2987</title>
    <desc>Created with Sketch.</desc>
    <g id="Page-1" stroke="none" stroke-width="1" fill="none" fill-rule="evenodd">
        <g id="atos" fill="#FFFFFF" fill-rule="nonzero">
            <path d="M191.83407,102.27776 C182.30278,101.56031 173.27734,97.773561 166.1011,91.481168 C165.66337,91.097398 165.23701,90.707328 165.15364,90.614397 C165.07024,90.521467 164.91248,90.3816 164.80301,90.303554 L164.60398,90.161718 L163.72219,91.137563 C161.06027,94.083447 157.41232,96.760311 153.48095,98.65246 C147.11221,101.71766 140.08305,102.85613 132.71266,102.01614 C122.68673,100.87349 115.13416,96.045141 111.3786,88.377381 C109.7226,84.996378 108.76229,81.05559 108.49717,76.553126 C108.44987,75.74928 108.42107,67.330836 108.42057,54.174137 L108.41982,33.083726 L100.95349,33.083726 L93.487168,33.083726 L93.506458,25.257751 L93.525748,17.431697 L100.97244,17.412797 L108.41913,17.393897 L108.43843,8.999765 L108.45773,0.6056559 L118.65238,0.6056559 L128.84704,0.6056559 L128.86634,8.999891 L128.88564,17.394134 L140.19796,17.413034 L151.51028,17.431934 L151.52958,25.257988 L151.54888,33.083964 L140.21693,33.083964 L128.88497,33.083964 L128.88497,53.265313 C128.88497,75.248167 128.86767,74.306974 129.30886,76.274257 C130.2053,80.271198 132.57313,83.472247 135.84733,85.113566 C138.66339,86.525237 142.0515,86.740945 145.96336,85.757619 C148.92903,85.01213 152.04086,83.392705 154.54215,81.293114 C155.38425,80.586294 156.39917,79.622814 156.39917,79.530199 C156.39917,79.487669 156.13061,78.92001 155.80239,78.268475 C153.23456,73.171573 151.72731,67.883613 151.19781,62.114071 C151.04305,60.427862 151.0207,56.593943 151.15671,55.065007 C151.72577,48.667714 153.30294,43.249337 156.19783,37.74622 C160.96453,28.684825 169.12716,21.318696 178.59843,17.531401 C179.67882,17.099433 181.42507,16.472234 181.45744,16.504602 C181.46954,16.516412 181.32531,16.781423 181.13698,17.092975 C178.29768,21.789175 175.86118,31.461309 175.42036,39.786272 L175.33636,41.372306 L174.82278,42.098106 C172.19876,45.806254 170.52381,50.192949 169.91515,54.951286 C169.72282,56.454785 169.72259,60.266258 169.91439,61.772986 C170.56293,66.859098 172.37635,71.393379 175.33321,75.322196 C179.08451,80.306638 184.45607,83.757022 190.27993,84.923217 C192.19223,85.30612 192.65425,85.346049 195.13092,85.342268 C197.13144,85.342268 197.5856,85.316278 198.50388,85.171529 C201.8407,84.645923 204.57219,83.65858 207.48578,81.924882 C208.00688,81.614747 208.51626,81.297682 208.61773,81.220267 L208.80221,81.079454 L208.39033,80.906037 C207.51669,80.538254 204.51986,78.993488 203.54435,78.408185 C197.66581,74.880936 192.86478,70.27617 189.12406,64.577506 C180.68524,51.72157 179.63233,35.19269 186.37151,21.366658 C186.80003,20.487523 187.43218,19.276675 187.77627,18.675859 C188.4576,17.486274 190.17784,14.854383 190.4043,14.655056 C190.75707,14.344528 196.05458,14.226554 198.76916,14.468802 C205.45881,15.065602 211.54622,16.993981 217.24066,20.320249 C227.22364,26.151535 234.5732,35.714752 237.56889,46.771231 C238.71365,50.996243 239.14961,54.594607 239.07126,59.171179 C239.00546,63.010295 238.64595,65.710309 237.72038,69.314816 C234.51293,81.805805 225.81701,92.359437 214.04656,98.04613 C209.08918,100.44121 203.8216,101.84469 198.13283,102.28627 C196.99568,102.37457 193.04727,102.36937 191.83376,102.27727 L191.83407,102.27776 Z M219.44115,65.898688 C219.53825,65.547129 219.73454,64.679571 219.87744,63.970861 C220.94501,58.676286 220.46731,53.003296 218.53713,48.053586 C215.66066,40.677298 209.96683,35.085898 202.7983,32.59797 C202.36697,32.448258 201.97113,32.325795 201.91867,32.325795 C201.72461,32.325795 201.06057,35.388078 200.80103,37.479951 C200.66944,38.540535 200.66899,42.553462 200.80027,43.619481 C201.49228,49.23561 203.42323,53.941339 206.7512,58.121619 C207.46907,59.023356 209.23306,60.846046 210.10099,61.582951 C212.58102,63.688448 215.12664,65.154302 218.21123,66.25324 C218.71149,66.43154 219.15315,66.568494 219.19269,66.557626 C219.23219,66.546596 219.34401,66.250247 219.44107,65.898688 L219.44115,65.898688 Z M270.19553,102.28146 C259.89849,101.9188 250.40667,99.86686 241.55669,96.090421 C240.25664,95.535598 236.16277,93.536813 235.89805,93.327563 C235.78511,93.238333 235.84825,93.114611 236.52924,92.091435 C238.93727,88.473225 241.88759,83.458543 243.80924,79.717633 C244.30713,78.748403 244.72823,77.955346 244.74503,77.955346 C244.76183,77.955346 245.211,78.129315 245.74321,78.341951 C252.55672,81.06386 260.05896,83.074773 266.75908,83.975013 C269.67062,84.366186 270.69026,84.430765 273.99766,84.433285 C276.56014,84.433285 277.29814,84.411235 278.20438,84.297749 C281.64281,83.866254 284.33774,83.113677 286.72484,81.918344 C289.84262,80.357197 291.76376,78.35849 292.42811,75.984677 C292.63311,75.252183 292.61812,72.969725 292.40171,71.966394 C291.83981,69.361201 290.2467,67.46393 286.95889,65.484362 C285.92951,64.864565 283.98592,63.892028 282.56268,63.284596 C280.27873,62.309696 278.38545,61.647372 271.95115,59.572195 C256.89978,54.717857 249.32187,50.248706 244.96053,43.654212 C242.44002,39.843053 241.14074,34.967294 241.13998,29.316985 C241.13919,23.090353 242.98912,17.618974 246.64511,13.035551 C247.48952,11.976856 249.64323,9.814735 250.72874,8.935892 C255.0709,5.4204251 260.6189,2.8709662 267.10016,1.4127667 C275.73579,-0.5301342 285.20623,-0.4502695 297.75992,1.6713093 C302.11426,2.4071977 308.50095,3.7562594 308.57774,3.9563505 C308.61284,4.0477295 307.54584,31.277417 307.50549,31.320811 C307.49319,31.334201 292.06544,31.056984 291.85538,31.039737 C291.83868,31.039737 291.84938,27.971704 291.88058,24.224888 L291.93598,17.412638 L291.07704,17.251349 C286.58569,16.407969 280.21713,16.264636 275.62725,16.903491 C269.09992,17.81208 264.40788,20.304497 262.64704,23.798669 C261.50116,26.072464 261.46576,28.539208 262.54844,30.670851 C264.61759,34.744892 271.08218,38.388303 283.16906,42.292392 C292.37385,45.265604 298.48044,47.896156 302.89732,50.790772 C308.15892,54.23903 311.24265,58.128549 312.80334,63.285226 C314.03251,67.346587 314.22335,72.847892 313.29666,77.505423 C311.05945,88.749574 302.21533,96.971131 288.55063,100.50949 C282.92274,101.96676 277.13194,102.52576 270.19553,102.28146 L270.19553,102.28146 Z M0.4853594,94.289547 L0.4853594,88.036296 L4.7209013,88.036296 L8.9564432,88.036296 L9.302309,87.069901 C10.830331,82.800393 35.427625,13.265199 35.427625,13.215032 C35.427625,13.179592 33.048559,13.141792 30.140807,13.130762 L24.853989,13.111072 L24.853989,6.8957499 L24.853989,0.6804183 L46.083598,0.6613593 L67.313215,0.6423003 L82.810138,44.320311 L98.307061,87.998252 L102.30273,88.017942 L106.2984,88.037632 L106.279,94.271274 L106.2596,100.50492 L87.196736,100.50492 L68.133871,100.50492 L68.114501,94.270644 L68.095131,88.036294 L71.999094,88.036294 C74.213925,88.036294 75.903064,88.007154 75.903064,87.969354 C75.903064,87.916594 71.956905,76.735127 71.265568,74.828799 L71.107453,74.392815 L51.848089,74.411715 L32.588724,74.430615 L30.190056,81.214356 L27.791396,87.998176 L31.950602,88.017866 L36.109807,88.037556 L36.109807,94.290098 L36.109807,100.54272 L18.297593,100.54272 L0.4853594,100.54272 L0.4853715,94.289468 L0.4853594,94.289547 Z M65.5947,58.891836 C65.5947,58.870576 62.572188,50.334942 58.878011,39.923698 C55.183834,29.512454 52.090986,20.789545 52.005034,20.539421 L51.848754,20.084615 L51.756324,20.311979 C51.705444,20.437041 48.627493,29.117658 44.916337,39.602223 C41.205188,50.086866 38.145275,58.724798 38.116538,58.797725 C38.066918,58.923811 38.7504,58.930426 51.829494,58.930426 C59.400361,58.930426 65.594696,58.913096 65.594696,58.891836 L65.5947,58.891836 Z" id="path2987"></path>
        </g>
    </g>
</svg>