<?xml version="1.0" encoding="UTF-8"?>
<svg width="500px" height="96px" viewBox="0 0 500 96" version="1.1" xmlns="http://www.w3.org/2000/svg" xmlns:xlink="http://www.w3.org/1999/xlink">
    <title>Combined Shape</title>
    <g id="Page-1" stroke="none" stroke-width="1" fill="none" fill-rule="evenodd">
        <g id="blank_logo" transform="translate(-13.000000, -2.000000)" fill="#FFFFFF">
            <path d="M148.947514,34.5338476 L148.947514,59.5072952 C149.991251,57.7711355 151.64708,56.239368 153.907922,54.9108182 C156.169944,53.5822684 158.87069,52.9150568 162.004262,52.9150568 C165.601325,52.9150568 168.822171,53.7702153 171.66444,55.4723096 C174.510248,57.1791027 176.756938,59.7081635 178.413945,63.0594921 C180.068594,66.4119953 180.89297,70.545653 180.89297,75.4581157 C180.89297,80.3729278 180.068594,84.5042361 178.413945,87.8555647 C176.756938,91.2104173 174.510248,93.7371288 171.66444,95.4427472 C168.822171,97.1471908 165.601325,98 162.004262,98 C158.810542,98 156.128666,97.3492338 153.951559,96.0500507 C151.774451,94.7508675 150.106829,92.9430531 148.947514,90.6313059 L148.947514,90.6313059 L148.426234,90.6313059 L147.639598,96.9604186 L139.718983,96.9604186 L139.718983,34.5338476 L148.947514,34.5338476 Z M258.627976,52.9149393 C261.934916,52.9149393 264.589666,53.4799548 266.594586,54.6064617 C268.595968,55.7329685 270.234106,57.3093734 271.511358,59.3321521 L271.511358,59.3321521 L271.947723,59.3321521 L272.729642,53.9556954 L280.824803,53.9556954 L280.824803,96.9603011 L272.904188,96.9603011 L272.122269,90.6311884 L271.599811,90.6311884 C270.436957,92.8865515 268.798819,94.676746 266.679501,96.0052958 C264.561361,97.3373696 261.847643,97.9998825 258.540703,97.9998825 C254.942461,97.9998825 251.721616,97.1470734 248.879346,95.4426297 C246.033539,93.7370114 243.786849,91.2102999 242.1322,87.8566219 C240.47991,84.5041187 239.650816,80.3728103 239.650816,75.4579983 C239.650816,70.5455355 240.492883,66.4118779 242.174657,63.0593746 C243.85879,59.7092207 246.136144,57.1789852 249.009076,55.4721922 C251.882009,53.7700978 255.087523,52.9149393 258.627976,52.9149393 Z M204.133889,34.5338476 C207.499796,34.5338476 210.067273,35.4171981 211.8375,37.1803752 C213.608906,38.9423776 214.49343,41.4996305 214.49343,44.8521337 L214.49343,44.8521337 L214.49343,88.984421 L229.030281,88.984421 L229.030281,96.9604186 L190.8165,96.9604186 L190.8165,88.984421 L205.266079,88.984421 L205.266079,45.3701624 C205.266079,43.4648505 204.339098,42.5121945 202.480419,42.5121945 L202.480419,42.5121945 L192.035964,42.5121945 L192.035964,34.5338476 Z M319.603146,52.9152917 C324.883163,52.9152917 328.859981,54.5069673 331.530063,57.6856196 C334.197787,60.864272 335.532828,65.5464997 335.532828,71.7311282 L335.532828,71.7311282 L335.532828,96.9606535 L326.306656,96.9606535 L326.306656,72.8588098 C326.306656,69.2737222 325.551863,66.497981 324.044634,64.5339357 C322.532688,62.5698903 320.153909,61.586693 316.905939,61.586693 C313.712218,61.586693 311.058647,62.6556411 308.940508,64.794712 C306.821189,66.933783 305.76212,70.0231605 305.76212,74.0710674 L305.76212,74.0710674 L305.76212,96.9606535 L296.535948,96.9606535 L296.535948,53.9560478 L304.543836,53.9560478 L305.328113,60.372086 L305.76212,60.372086 C306.923794,58.2905738 308.721146,56.5273967 311.162432,55.0837294 C313.596641,53.6388874 316.411785,52.9152917 319.603146,52.9152917 Z M360.527933,34.5342 L360.527933,71.9908474 L377.067346,53.9561653 L388.643992,53.9561653 L370.625655,73.0304288 L370.625655,73.7234831 L390.996825,96.960771 L379.768092,96.960771 L360.527933,74.8523393 L360.527933,96.960771 L351.302941,96.960771 L351.302941,34.5342 L360.527933,34.5342 Z M160.087794,61.6722088 C156.782034,61.6722088 154.040011,62.8151611 151.861724,65.0963668 C149.685796,67.3822713 148.598422,70.8346214 148.598422,75.4581157 C148.598422,80.0228767 149.685796,83.4658294 151.861724,85.7764019 C154.040011,88.0893237 156.782034,89.2440227 160.087794,89.2440227 C163.395913,89.2440227 166.136757,88.1034198 168.316223,85.81869 C170.490972,83.5363095 171.580705,80.1133261 171.580705,75.5450412 C171.580705,70.9215468 170.490972,67.4539261 168.316223,65.1398296 C166.136757,62.8304317 163.395913,61.6722088 160.087794,61.6722088 Z M260.454813,61.6720914 C257.149053,61.6720914 254.407029,62.8303143 252.229922,65.1397121 C250.053994,67.4538086 248.966619,70.9214294 248.966619,75.5449237 C248.966619,80.1132087 250.053994,83.536192 252.229922,85.8185725 C254.407029,88.1033023 257.149053,89.2439052 260.454813,89.2439052 C263.764111,89.2439052 266.503775,88.0892063 268.683241,85.7762844 C270.85799,83.4657119 271.947723,80.0239339 271.947723,75.4579983 C271.947723,70.8345039 270.85799,67.3821539 268.683241,65.0974241 C266.503775,62.8150436 263.764111,61.6720914 260.454813,61.6720914 Z M513,2 L513,10.2379486 L13,10.2379486 L13,2 L513,2 Z" id="Combined-Shape"></path>
        </g>
    </g>
</svg>