<?xml version="1.0" encoding="UTF-8"?>
<svg width="500px" height="357px" viewBox="0 0 500 357" version="1.1" xmlns="http://www.w3.org/2000/svg" xmlns:xlink="http://www.w3.org/1999/xlink">
    <title>bonsai-tech</title>
    <g id="Page-1" stroke="none" stroke-width="1" fill="none" fill-rule="evenodd">
        <g id="bonsai-tech" fill="#FFFFFF" fill-rule="nonzero">
            <path d="M425.701684,303.167602 C430.392943,303.167602 434.522855,304.210104 438.091419,306.335204 C441.659984,308.460305 444.346431,311.38733 446.110666,315.156375 L441.259022,316.760225 C439.735365,313.913392 437.570168,311.708099 434.763432,310.064154 C431.956696,308.460305 428.869286,307.618284 425.501203,307.618284 C422.65437,307.618284 420.008019,308.179631 417.562149,309.302326 C415.116279,310.42502 412.991179,311.988773 411.186848,313.953488 C409.382518,315.918204 407.939054,318.283881 406.856455,320.930233 C405.813953,323.61668 405.252606,326.503609 405.252606,329.591018 C405.252606,332.678428 405.813953,335.605453 406.896552,338.372093 C407.97915,341.098637 409.422614,343.504411 411.267041,345.509222 C413.071371,347.514034 415.236568,349.117883 417.722534,350.32077 C420.2085,351.523657 422.814755,352.1251 425.621492,352.1251 C427.425822,352.1251 429.190056,351.844427 430.914194,351.323176 C432.678428,350.801925 434.282277,350.120289 435.765838,349.238172 C437.249399,348.396151 438.532478,347.353649 439.615076,346.230954 C440.697674,345.068164 441.459503,343.865277 441.860465,342.622294 L446.712109,344.025662 C446.070569,345.829992 445.028067,347.473937 443.704892,349.03769 C442.34162,350.601443 440.737771,351.924619 438.893344,353.047314 C437.048917,354.170008 435.00401,355.052125 432.758621,355.693665 C430.513232,356.335204 428.18765,356.615878 425.821973,356.615878 C422.173216,356.615878 418.805132,355.894146 415.717723,354.490778 C412.590217,353.08741 409.903769,351.122694 407.65838,348.636728 C405.372895,346.150762 403.608661,343.303929 402.285485,340.056135 C400.96231,336.80834 400.32077,333.319968 400.32077,329.631115 C400.32077,325.982358 400.96231,322.574178 402.205293,319.326383 C403.448276,316.078589 405.21251,313.271852 407.457899,310.906175 C409.703288,308.540497 412.389735,306.655974 415.477145,305.252606 C418.564555,303.849238 421.972735,303.167602 425.701684,303.167602 Z M5.21251002,283.239775 L5.21251002,315.276664 C7.65838011,311.708099 10.5453087,308.781075 13.8732959,306.535686 C17.2012831,304.290297 21.0505213,303.167602 25.4210104,303.167602 C29.0697674,303.167602 32.3576584,303.929431 35.2846832,305.493184 C38.2117081,307.056937 40.6976744,309.101844 42.702486,311.627907 C44.7072975,314.15397 46.2710505,317.040898 47.3536488,320.248597 C48.436247,323.456295 48.9975942,326.70409 48.9975942,330.032077 C48.9975942,333.600642 48.3560545,336.968725 47.1130714,340.176423 C45.8700882,343.384122 44.105854,346.190858 41.9005613,348.596632 C39.6952686,351.002406 37.0890136,352.927025 34.0817963,354.410585 C31.074579,355.85405 27.8267843,356.575782 24.3384122,356.575782 C20.2886929,356.575782 16.5196472,355.53328 13.0312751,353.40818 C9.54290297,351.283079 6.77626303,348.596632 4.81154771,345.268645 L4.81154771,355.573376 L0.240577386,355.573376 L0.240577386,283.239775 L5.21251002,283.239775 Z M82.4779471,303.08741 C86.0465116,303.08741 89.3344026,303.809142 92.3817161,305.21251 C95.4290297,306.615878 98.0753809,308.580593 100.360866,311.026464 C102.646351,313.472334 104.410585,316.319166 105.733761,319.566961 C107.01684,322.814755 107.65838,326.222935 107.65838,329.871692 C107.65838,333.440257 107.01684,336.848436 105.733761,340.096231 C104.450682,343.344026 102.686447,346.190858 100.441059,348.636728 C98.1956696,351.082598 95.5493184,353.007217 92.4619086,354.450682 C89.414595,355.894146 86.0866079,356.575782 82.5180433,356.575782 C78.8692863,356.575782 75.5412991,355.85405 72.4538893,354.450682 C69.3664796,353.047314 66.7201283,351.082598 64.4747394,348.636728 C62.2293504,346.190858 60.4651163,343.344026 59.2221331,340.096231 C57.97915,336.848436 57.3376103,333.440257 57.3376103,329.871692 C57.3376103,326.222935 57.97915,322.814755 59.2622294,319.566961 C60.5453087,316.319166 62.3095429,313.472334 64.5549318,311.026464 C66.8003208,308.580593 69.446672,306.655974 72.5340818,305.21251 C75.6214916,303.809142 78.9093825,303.08741 82.4779471,303.08741 Z M193.504411,303.247795 C197.55413,303.247795 201.122694,303.929431 204.210104,305.292702 C207.297514,306.655974 209.743384,308.380112 211.427426,310.505213 L208.660786,313.19166 C206.936648,311.226945 204.691259,309.703288 201.964715,308.740978 C199.238172,307.738573 196.311147,307.257418 193.183641,307.257418 C191.259022,307.257418 189.454691,307.457899 187.77065,307.858861 C186.086608,308.259824 184.603047,308.901363 183.360064,309.743384 C182.117081,310.585405 181.114675,311.708099 180.392943,313.071371 C179.671211,314.434643 179.310345,316.038492 179.310345,317.882919 C179.310345,319.406576 179.550922,320.609463 180.072173,321.531676 C180.553328,322.453889 181.355253,323.255814 182.437851,323.897354 C183.520449,324.538893 184.923817,325.140337 186.647955,325.621492 C188.372093,326.102646 190.417001,326.663994 192.782678,327.265437 C196.030473,328.067362 198.877306,328.82919 201.403368,329.550922 C203.929431,330.272654 206.014435,331.154771 207.698476,332.23737 C209.382518,333.279872 210.665597,334.562951 211.547715,336.006415 C212.429832,337.44988 212.87089,339.294306 212.87089,341.539695 C212.87089,346.150762 211.06656,349.839615 207.457899,352.606255 C203.849238,355.21251 199.03769,356.575782 193.023256,356.575782 C189.053729,356.575782 185.244587,355.934242 181.635926,354.611067 C177.987169,353.287891 174.819567,351.323176 172.133119,348.676824 L174.619086,345.308741 C177.385726,347.834804 180.272654,349.67923 183.239775,350.842021 C186.206897,352.044908 189.494787,352.646351 193.063352,352.646351 C197.55413,352.646351 201.162791,351.724138 203.929431,349.839615 C206.655974,347.955092 208.059342,345.348837 208.059342,341.940658 C208.059342,340.336808 207.698476,339.013633 207.01684,337.931034 C206.335204,336.848436 205.292702,335.926223 203.889334,335.164395 C202.485966,334.402566 200.801925,333.72093 198.716921,333.119487 C196.672013,332.518043 194.306335,331.9166 191.579791,331.234964 C188.652767,330.593424 186.126704,329.911788 184.001604,329.270249 C181.836407,328.628709 180.072173,327.826784 178.708901,326.904571 C177.305533,325.982358 176.263031,324.859663 175.581395,323.536488 C174.899759,322.213312 174.538893,320.52927 174.538893,318.484362 C174.538893,315.918204 175.020048,313.672815 176.022454,311.748196 C177.02486,309.823577 178.388132,308.259824 180.152366,306.976744 C181.9166,305.733761 183.921411,304.771451 186.206897,304.170008 C188.492382,303.528468 190.898156,303.247795 193.504411,303.247795 Z M242.502005,303.247795 C248.716921,303.247795 253.608661,305.052125 257.177225,308.660786 C260.74579,312.269447 262.55012,317.241379 262.55012,323.576584 L262.55012,348.757017 C262.55012,350.400962 263.271852,351.242983 264.715317,351.242983 L264.715317,355.693665 C264.394547,355.773857 264.033681,355.813953 263.672815,355.85405 C263.311949,355.894146 262.991179,355.894146 262.750601,355.894146 C261.427426,355.894146 260.384924,355.453087 259.582999,354.57097 C258.781075,353.688853 258.340016,352.606255 258.179631,351.363272 L258.179631,347.113071 C255.813953,350.200481 252.76664,352.606255 249.077787,354.2502 C245.348837,355.773857 241.339214,356.575782 237.048917,356.575782 C234.68324,356.575782 232.437851,356.17482 230.392943,355.332799 C228.348035,354.490778 226.543705,353.368083 224.979952,351.964715 C223.416199,350.561347 222.213312,348.877306 221.371291,346.91259 C220.52927,344.947875 220.088212,342.862871 220.088212,340.617482 C220.088212,338.372093 220.609463,336.327185 221.692061,334.482759 C222.734563,332.638332 224.218123,331.034483 226.102646,329.671211 C227.987169,328.307939 230.232558,327.265437 232.878909,326.503609 C235.525261,325.74178 238.412189,325.380914 241.619888,325.380914 C244.386528,325.380914 247.193264,325.621492 250,326.142743 C252.806736,326.623897 255.332799,327.305533 257.578188,328.18765 L257.578188,323.135525 C257.578188,318.243785 256.17482,314.354451 253.40818,311.507618 C250.64154,308.62069 246.872494,307.177225 242.101043,307.177225 C239.57498,307.177225 236.928629,307.698476 234.121893,308.781075 C231.315156,309.823577 228.468324,311.347233 225.541299,313.352045 L223.656776,309.983962 C230.272654,305.493184 236.527666,303.247795 242.502005,303.247795 Z M367.682438,303.127506 C371.331195,303.127506 374.699278,303.849238 377.786688,305.252606 C380.874098,306.655974 383.560545,308.580593 385.805934,310.986367 C388.051323,313.392141 389.815557,316.198877 391.05854,319.406576 C392.301524,322.614274 392.943063,325.982358 392.943063,329.550922 L392.943063,330.793905 C392.943063,330.793905 392.902967,331.59583 392.862871,331.716119 L347.674419,331.716119 C347.8749,334.68324 348.556536,337.44988 349.759423,339.975942 C350.96231,342.502005 352.44587,344.707298 354.2502,346.551724 C356.054531,348.396151 358.179631,349.839615 360.545309,350.922213 C362.910986,351.964715 365.477145,352.526063 368.163593,352.526063 C369.967923,352.526063 371.692061,352.285485 373.416199,351.764234 C375.140337,351.283079 376.744186,350.601443 378.227747,349.719326 C379.711307,348.877306 381.034483,347.834804 382.197273,346.59182 C383.360064,345.388933 384.242181,344.025662 384.923817,342.582197 L389.294306,343.785084 C388.572574,345.629511 387.489976,347.353649 386.086608,348.877306 C384.68324,350.441059 382.999198,351.764234 381.114675,352.886929 C379.230152,354.009623 377.145148,354.89174 374.899759,355.53328 C372.694467,356.295108 370.368885,356.575782 368.003208,356.575782 C364.354451,356.575782 360.986367,355.85405 357.898957,354.450682 C354.771451,353.047314 352.085004,351.082598 349.839615,348.596632 C347.55413,346.110666 345.789896,343.263833 344.46672,340.016038 C343.183641,336.768244 342.542101,333.319968 342.542101,329.591018 C342.542101,325.942261 343.183641,322.534082 344.46672,319.326383 C345.7498,316.118685 347.514034,313.311949 349.759423,310.906175 C352.004812,308.500401 354.651163,306.575782 357.738573,305.21251 C360.825982,303.849238 364.113873,303.127506 367.682438,303.127506 Z M322.774659,286.407378 L322.774659,304.049719 L334.763432,304.049719 L334.763432,308.099439 L322.774659,308.099439 L322.774659,345.7498 C322.774659,347.674419 323.416199,349.117883 324.739374,350.080192 C326.06255,351.042502 327.546111,351.523657 329.190056,351.523657 C331.234964,351.523657 332.999198,351.162791 334.482759,350.481155 C335.966319,349.799519 336.888532,349.35846 337.209302,349.157979 L338.652767,353.127506 C338.372093,353.247795 337.931034,353.528468 337.329591,353.889334 C336.688051,354.2502 335.926223,354.611067 334.963913,354.931836 C334.001604,355.252606 332.919006,355.573376 331.756215,355.813953 C330.553328,356.094627 329.270249,356.214916 327.906977,356.214916 C326.503609,356.214916 325.220529,356.014435 323.977546,355.613472 C322.734563,355.21251 321.692061,354.611067 320.769848,353.809142 C319.847634,353.007217 319.125902,352.044908 318.604651,350.922213 C318.0834,349.799519 317.802727,348.476343 317.802727,346.952686 L317.802727,308.099439 L310.585405,308.099439 L310.585405,304.049719 L317.802727,304.049719 L317.802727,286.407378 L322.774659,286.407378 Z M282.55814,304.049719 L282.55814,355.613472 L277.586207,355.613472 L277.586207,304.049719 L282.55814,304.049719 Z M146.351243,303.167602 C151.964715,303.167602 155.934242,305.132318 158.259824,309.061748 C160.585405,312.991179 161.748196,318.644747 161.748196,325.982358 L161.748196,355.613472 L156.776263,355.613472 L156.776263,326.864475 C156.776263,320.2085 155.85405,315.31676 153.969527,312.309543 C152.085004,309.262229 149.077787,307.738573 144.987971,307.738573 C142.822775,307.738573 140.657578,308.139535 138.492382,308.94146 C136.327185,309.743384 134.36247,310.866079 132.477947,312.309543 C130.63352,313.753007 128.989575,315.477145 127.626303,317.401764 C126.222935,319.36648 125.220529,321.451484 124.538893,323.696872 L124.538893,355.613472 L119.566961,355.613472 L119.566961,304.049719 L124.218123,304.049719 L124.218123,316.359262 C125.260626,314.394547 126.583801,312.590217 128.147554,310.946271 C129.711307,309.342422 131.435445,307.939054 133.40016,306.776263 C135.364876,305.613472 137.409783,304.731355 139.615076,304.089816 C141.780273,303.448276 144.025662,303.167602 146.351243,303.167602 Z M301.403368,347.193264 L301.403368,355.613472 L297.032879,355.613472 L297.032879,347.193264 L301.403368,347.193264 Z M462.87089,283.239775 L462.87089,316.359262 C464.99599,312.309543 467.923015,309.141941 471.651965,306.736167 C475.380914,304.370489 479.390537,303.167602 483.680834,303.167602 C486.527666,303.167602 488.973536,303.688853 491.018444,304.771451 C493.063352,305.813953 494.78749,307.33761 496.110666,309.342422 C497.473937,311.307137 498.436247,313.712911 499.077787,316.519647 C499.719326,319.326383 500,322.493986 500,325.982358 L500,355.613472 L495.068164,355.613472 L495.068164,326.864475 C495.068164,314.113873 490.817963,307.738573 482.277466,307.738573 C480.152366,307.738573 478.107458,308.139535 476.06255,308.94146 C474.057739,309.743384 472.173216,310.866079 470.408982,312.309543 C468.644747,313.753007 467.121091,315.477145 465.797915,317.401764 C464.474739,319.36648 463.472334,321.451484 462.830794,323.696872 L462.830794,355.613472 L457.898957,355.613472 L457.898957,283.239775 L462.87089,283.239775 Z M242.141139,328.82919 C239.57498,328.82919 237.209302,329.109864 235.084202,329.671211 C232.959102,330.232558 231.154771,330.994387 229.631115,331.996792 C228.107458,332.999198 226.944667,334.202085 226.102646,335.605453 C225.260626,337.008821 224.859663,338.61267 224.859663,340.296712 C224.859663,342.02085 225.180433,343.624699 225.862069,345.148356 C226.503609,346.672013 227.465918,347.955092 228.628709,349.077787 C229.831596,350.160385 231.234964,351.042502 232.838813,351.643945 C234.442662,352.325581 236.206897,352.606255 238.051323,352.606255 C241.900561,352.606255 245.388933,351.884523 248.596632,350.441059 C251.80433,348.997594 254.2502,347.072975 255.974338,344.707298 C257.01684,343.303929 257.578188,341.980754 257.578188,340.737771 L257.578188,331.59583 C255.21251,330.673617 252.726544,329.991981 250.160385,329.510826 C247.594226,329.029671 244.907779,328.82919 242.141139,328.82919 Z M24.2181235,307.578188 C22.052927,307.578188 20.0080192,307.97915 18.0834002,308.700882 C16.1587811,309.462711 14.3945469,310.465116 12.7906977,311.708099 C11.1868484,312.951083 9.70328789,314.434643 8.4202085,316.078589 C7.13712911,317.722534 6.05453087,319.446672 5.21251002,321.251002 L5.21251002,338.291901 C5.41299118,340.21652 6.13472334,342.02085 7.3777065,343.704892 C8.62068966,345.388933 10.1443464,346.832398 11.8684844,348.075381 C13.6327185,349.318364 15.5172414,350.280674 17.5621492,351.002406 C19.6070569,351.764234 21.531676,352.1251 23.3360064,352.1251 C26.38332,352.1251 29.1499599,351.483561 31.6760225,350.240577 C34.202085,348.997594 36.3672815,347.313553 38.1716119,345.228549 C39.9759423,343.143545 41.4194066,340.777867 42.4218123,338.131516 C43.4643144,335.485164 43.9454691,332.758621 43.9454691,329.991981 C43.9454691,327.064956 43.4643144,324.298316 42.5020048,321.611868 C41.5396953,318.925421 40.1764234,316.559743 38.4522855,314.474739 C36.6880513,312.389735 34.6030473,310.705694 32.1972735,309.462711 C29.7914996,308.219727 27.1050521,307.578188 24.2181235,307.578188 Z M82.5180433,307.538091 C79.7514034,307.538091 77.1451484,308.139535 74.6992783,309.342422 C72.2534082,310.545309 70.1283079,312.149158 68.3239775,314.194066 C66.5196472,316.238974 65.0360866,318.644747 63.9534884,321.371291 C62.8307939,324.178027 62.2694467,327.064956 62.2694467,330.112269 C62.2694467,333.159583 62.7906977,336.006415 63.8732959,338.692863 C64.9157979,341.37931 66.3592622,343.704892 68.2036889,345.669607 C70.0080192,347.634322 72.1331195,349.238172 74.5789896,350.360866 C77.0248597,351.523657 79.6311147,352.085004 82.3977546,352.085004 C85.1643945,352.085004 87.7706496,351.523657 90.2165196,350.360866 C92.6623897,349.198075 94.8275862,347.594226 96.6720128,345.549318 C98.5164395,343.504411 99.9599038,341.138733 101.042502,338.452285 C102.085004,335.765838 102.646351,332.878909 102.646351,329.7915 C102.646351,326.744186 102.1251,323.897354 101.042502,321.210906 C100,318.524459 98.5164395,316.198877 96.6720128,314.15397 C94.8275862,312.149158 92.702486,310.545309 90.2967121,309.342422 C87.8909383,308.139535 85.2846832,307.538091 82.5180433,307.538091 Z M367.802727,307.217322 C365.076183,307.217322 362.55012,307.738573 360.184443,308.740978 C357.818765,309.78348 355.693665,311.186848 353.889334,312.991179 C352.085004,314.795509 350.601443,317.000802 349.518845,319.526864 C348.436247,322.052927 347.794707,324.819567 347.594226,327.786688 L388.208577,327.786385 L388.165196,327.221052 C387.918204,324.411655 387.252072,321.844427 386.1668,319.486768 C385.00401,316.960706 383.520449,314.795509 381.716119,312.991179 C379.911788,311.186848 377.786688,309.743384 375.42101,308.740978 C373.055333,307.698476 370.489174,307.217322 367.802727,307.217322 Z M282.55814,283.239775 L282.55814,292.34162 L277.586207,292.34162 L277.586207,283.239775 L282.55814,283.239775 Z M250.160385,0.160384924 C258.901363,0.160384924 266.038492,7.29751403 266.038492,16.0384924 C266.038492,24.1445054 259.9351,30.8712206 252.045284,31.8057349 L252.045859,132.258722 C252.093105,132.494023 252.094804,132.739365 252.046782,132.981618 L252.045859,200.101545 C252.093085,200.336749 252.094803,200.581986 252.046841,200.824142 L252.044577,262.670385 L259.181577,262.670385 L259.182037,128.428228 C259.182037,127.746592 259.542903,127.105052 260.144346,126.784282 L274.738651,118.356385 L274.739346,65.2403019 C266.899179,64.2845038 260.785886,57.5685132 260.785886,49.478749 C260.785886,40.7377706 267.923015,33.6006415 276.663994,33.6006415 C285.404972,33.6006415 292.542436,40.7377706 292.542436,49.478749 C292.579248,57.5713835 286.464347,64.2892694 278.588556,65.2413171 L278.587651,78.6453849 L304.57097,63.6327185 L304.57097,46.7121091 C304.57097,46.6491139 304.574045,46.5867043 304.580061,46.5250396 C301.03196,45.6645411 298.396151,42.466467 298.396151,38.6527666 C298.396151,34.1795702 302.022393,30.553328 306.495589,30.553328 C310.968786,30.553328 314.595028,34.1795702 314.595028,38.6527666 C314.595028,42.466467 311.959219,45.6645411 308.409942,46.5246472 C308.417191,46.5863001 308.420209,46.6487932 308.420209,46.7121091 L308.420209,64.7153168 C308.420209,65.3969527 308.059342,66.0384924 307.457899,66.3592622 L278.587651,83.0053849 L278.587651,116.133385 L295.629511,106.295108 L295.629511,95.3889334 C295.629511,94.7072975 296.030473,94.0256616 296.631917,93.7048917 L319.108485,81.4618465 C318.294028,79.5548038 317.842823,77.4584119 317.842823,75.2606255 C317.842823,66.5196472 324.979952,59.382518 333.72093,59.382518 C342.461909,59.382518 349.599038,66.5196472 349.599038,75.2606255 C349.599038,84.0016038 342.502005,91.138733 333.72093,91.138733 C328.548152,91.138733 323.937056,88.6392438 321.034407,84.7870299 L299.478749,96.5517241 L299.478749,107.417803 C299.478749,108.099439 299.117883,108.740978 298.516439,109.061748 L263.031275,129.550922 L263.030651,159.227385 L278.307651,149.283385 L278.308077,140.477318 C274.820884,139.64639 272.208278,136.560411 272.096736,132.845858 L272.093023,132.598236 C272.093023,128.125039 275.719265,124.498797 280.192462,124.498797 C284.665658,124.498797 288.291901,128.125039 288.291901,132.598236 C288.291901,136.393905 285.680956,139.579756 282.157094,140.45776 L282.156651,146.778385 L311.717794,127.538371 L311.622103,127.250379 C311.131299,125.724209 310.866079,124.098801 310.866079,122.413793 C310.866079,113.672815 318.003208,106.535686 326.744186,106.535686 C335.485164,106.535686 342.622294,113.672815 342.622294,122.413793 C342.622294,131.154771 335.525261,138.291901 326.744186,138.291901 C321.292614,138.291901 316.464901,135.515724 313.603405,131.305728 L282.156651,151.764385 L282.157177,175.982358 C282.157177,176.663994 281.796311,177.305533 281.194868,177.626303 L263.030651,188.109385 L263.030651,195.463385 L310.592413,168.30597 C310.425775,167.698337 310.328136,167.062165 310.308444,166.406403 L310.304731,166.158781 C310.304731,161.685585 313.930974,158.059342 318.40417,158.059342 C322.877366,158.059342 326.503609,161.685585 326.503609,166.158781 C326.503609,170.631978 322.877366,174.25822 318.40417,174.25822 C316.048676,174.25822 313.928031,173.252714 312.448047,171.647514 L272.588608,194.378594 L272.607778,194.580811 L272.607778,194.580811 L272.614274,194.78749 L272.574178,194.78749 L272.573577,262.670385 L321.291099,262.670409 C322.333601,262.670409 323.215718,263.51243 323.215718,264.595028 C323.215718,265.677626 322.373697,266.519647 321.331195,266.519647 L176.623897,266.519647 C175.581395,266.519647 174.699278,265.677626 174.699278,264.595028 C174.699278,263.51243 175.541299,262.670409 176.623897,262.670409 L228.387577,262.670385 L228.388132,190.978348 C228.388132,190.836695 228.397652,190.696233 228.415969,190.558337 L198.356415,173.900729 C196.965157,175.02702 195.193283,175.701684 193.263833,175.701684 C188.790637,175.701684 185.164395,172.075442 185.164395,167.602245 C185.164395,163.129049 188.790637,159.502807 193.263833,159.502807 C197.73703,159.502807 201.363272,163.129049 201.363272,167.602245 C201.363272,168.742313 201.127722,169.827366 200.702635,170.81139 L218.403651,180.628385 L218.403651,162.649385 L192.250372,145.275274 C189.395704,149.47627 184.579477,152.245389 179.109864,152.245389 C170.368885,152.245389 163.231756,145.10826 163.231756,136.367281 C163.231756,127.626303 170.368885,120.489174 179.109864,120.489174 C187.850842,120.489174 194.987971,127.626303 194.987971,136.367281 C194.987971,138.15169 194.692207,139.869259 194.14673,141.472915 L218.403651,157.589385 L218.40417,147.754611 C218.40417,147.674498 218.409143,147.595331 218.418815,147.51744 C214.88836,146.646407 212.269447,143.45663 212.269447,139.655172 C212.269447,135.181976 215.895689,131.555734 220.368885,131.555734 C224.842082,131.555734 228.468324,135.181976 228.468324,139.655172 C228.468324,143.48424 225.81123,146.69271 222.240288,147.537336 C222.249299,147.607949 222.253408,147.680719 222.253408,147.754611 L222.252651,160.146385 L241.138733,172.694467 C241.693912,173.064586 242.044101,173.708024 242.094691,174.435559 L242.101043,174.619086 L242.100651,193.623385 L248.235651,197.168385 L248.235651,143.334385 L175.3014,101.185689 C173.178665,104.036906 170.190008,106.062672 166.680032,107.01684 C165.31676,107.377706 163.953488,107.538091 162.55012,107.538091 C159.78348,107.538091 157.097033,106.816359 154.651163,105.412991 C147.072975,101.042502 144.46672,91.2991179 148.837209,83.7209302 C153.207698,76.1427426 162.951083,73.5364876 170.52927,77.9069767 C177.545896,81.9536023 180.300152,90.6063378 177.200699,97.8817517 L248.235651,138.894385 L248.235651,133.725385 L212.750601,113.231756 C212.149158,112.87089 211.788292,112.269447 211.788292,111.587811 L211.787651,92.2533849 L186.206897,77.5862069 C185.605453,77.2253408 185.244587,76.6238974 185.244587,75.9422614 L185.244587,57.6583801 C185.244587,57.5782667 185.24956,57.4991004 185.259232,57.4212087 C181.728335,56.5496378 179.109864,53.360078 179.109864,49.5589415 C179.109864,45.085745 182.736106,41.4595028 187.209302,41.4595028 C191.682499,41.4595028 195.308741,45.085745 195.308741,49.5589415 C195.308741,53.387652 192.652142,56.5958807 189.081704,57.440869 C189.089903,57.5117176 189.093825,57.5844885 189.093825,57.6583801 L189.093825,74.819567 L211.787651,87.8583849 L211.788218,78.6274972 C203.967336,77.6537087 197.8749,70.9468428 197.8749,62.8708901 C197.8749,54.1299118 205.012029,46.9927827 213.753007,46.9927827 C222.493986,46.9927827 229.631115,54.1299118 229.631115,62.8708901 C229.631115,71.0116564 223.496902,77.7050243 215.637431,78.6378873 L215.63753,110.505213 L231.675651,119.765385 L231.676353,104.501382 C228.20915,103.656497 225.616032,100.57991 225.504916,96.8795385 L225.501203,96.6319166 C225.501203,92.1587201 229.127445,88.5324779 233.600642,88.5324779 C238.073838,88.5324779 241.70008,92.1587201 241.70008,96.6319166 C241.70008,100.442057 239.069189,103.63772 235.52493,104.501382 L235.524651,121.988385 L248.235651,129.327385 L248.235921,31.8000677 C240.395666,30.8443521 234.282277,24.1283198 234.282277,16.0384924 C234.282277,7.29751403 241.419407,0.160384924 250.160385,0.160384924 Z M232.196651,192.653385 L232.196577,262.670385 L238.291577,262.670385 L238.291651,196.030385 L232.196651,192.653385 Z M242.100651,198.141385 L242.100577,262.670385 L248.235577,262.670385 L248.235651,201.541385 L242.100651,198.141385 Z M268.764651,196.557385 L262.990651,199.850385 L262.990577,262.670385 L268.764577,262.670385 L268.764651,196.557385 Z M222.252651,165.206385 L222.253408,182.157177 L238.291651,191.423385 L238.291901,175.862069 L222.252651,165.206385 Z M278.307651,154.268385 L263.030651,164.207385 L263.030651,183.712385 L278.307939,174.899759 L278.307651,154.268385 Z M179.109864,124.298316 C172.453889,124.298316 167.040898,129.711307 167.040898,136.367281 C167.040898,143.023256 172.453889,148.436247 179.109864,148.436247 C185.765838,148.436247 191.178829,143.023256 191.178829,136.367281 C191.178829,129.711307 185.765838,124.298316 179.109864,124.298316 Z M179.109864,128.267843 C183.58306,128.267843 187.209302,131.894085 187.209302,136.367281 C187.209302,140.840478 183.58306,144.46672 179.109864,144.46672 C174.636667,144.46672 171.010425,140.840478 171.010425,136.367281 C171.010425,131.894085 174.636667,128.267843 179.109864,128.267843 Z M326.744186,110.344828 C320.088212,110.344828 314.675221,115.757819 314.675221,122.413793 C314.675221,129.069767 320.088212,134.482759 326.744186,134.482759 C333.40016,134.482759 338.813152,129.069767 338.813152,122.413793 C338.813152,115.757819 333.40016,110.344828 326.744186,110.344828 Z M326.744186,114.314354 C331.217382,114.314354 334.843625,117.940597 334.843625,122.413793 C334.843625,126.88699 331.217382,130.513232 326.744186,130.513232 C322.27099,130.513232 318.644747,126.88699 318.644747,122.413793 C318.644747,117.940597 322.27099,114.314354 326.744186,114.314354 Z M162.590217,79.5910184 C158.420209,79.5910184 154.370489,81.7562149 152.1251,85.6054531 C148.797113,91.3793103 150.761828,98.7570168 156.535686,102.085004 C159.342422,103.688853 162.590217,104.129912 165.677626,103.287891 C168.805132,102.44587 171.371291,100.441059 173.015237,97.6744186 C176.343224,91.9005613 174.378508,84.5228549 168.604651,81.1948677 C166.720128,80.1122694 164.635124,79.5910184 162.590217,79.5910184 Z M162.590217,83.5605453 C167.063413,83.5605453 170.689655,87.1867875 170.689655,91.659984 C170.689655,96.1331804 167.063413,99.7594226 162.590217,99.7594226 C158.11702,99.7594226 154.490778,96.1331804 154.490778,91.659984 C154.490778,87.1867875 158.11702,83.5605453 162.590217,83.5605453 Z M333.72093,63.19166 C327.064956,63.19166 321.651965,68.6046512 321.651965,75.2606255 C321.651965,81.9165998 327.064956,87.329591 333.72093,87.329591 C340.376905,87.329591 345.789896,81.9165998 345.789896,75.2606255 C345.789896,68.6046512 340.376905,63.19166 333.72093,63.19166 Z M333.72093,67.1611868 C338.194127,67.1611868 341.820369,70.7874291 341.820369,75.2606255 C341.820369,79.733822 338.194127,83.3600642 333.72093,83.3600642 C329.247734,83.3600642 325.621492,79.733822 325.621492,75.2606255 C325.621492,70.7874291 329.247734,67.1611868 333.72093,67.1611868 Z M213.753007,50.8019246 C207.097033,50.8019246 201.684042,56.2149158 201.684042,62.8708901 C201.684042,69.5268645 207.097033,74.9398557 213.753007,74.9398557 C220.408982,74.9398557 225.821973,69.5268645 225.821973,62.8708901 C225.821973,56.2149158 220.408982,50.8019246 213.753007,50.8019246 Z M213.672815,54.7714515 C218.146011,54.7714515 221.772253,58.3976937 221.772253,62.8708901 C221.772253,67.3440866 218.146011,70.9703288 213.672815,70.9703288 C209.199618,70.9703288 205.573376,67.3440866 205.573376,62.8708901 C205.573376,58.3976937 209.199618,54.7714515 213.672815,54.7714515 Z M276.663994,37.4097835 C270.008019,37.4097835 264.595028,42.8227747 264.595028,49.478749 C264.595028,56.0153864 269.815657,61.3532127 276.307206,61.5425184 C276.422025,61.5189173 276.541469,61.5076183 276.663994,61.5076183 C276.784605,61.5076183 276.90307,61.5188889 277.01827,61.5404986 C283.510812,61.3547643 288.732959,56.0163364 288.732959,49.478749 C288.732959,42.8227747 283.319968,37.4097835 276.663994,37.4097835 Z M276.663994,41.4595028 C281.13719,41.4595028 284.763432,45.085745 284.763432,49.5589415 C284.763432,54.0321379 281.13719,57.6583801 276.663994,57.6583801 C272.190797,57.6583801 268.564555,54.0321379 268.564555,49.5589415 C268.564555,45.085745 272.190797,41.4595028 276.663994,41.4595028 Z M250.160385,3.96952686 C243.504411,3.96952686 238.091419,9.38251804 238.091419,16.0384924 C238.091419,22.6944667 243.504411,28.1074579 250.160385,28.1074579 C256.816359,28.1074579 262.22935,22.6543705 262.22935,16.0384924 C262.22935,9.42261427 256.816359,3.96952686 250.160385,3.96952686 Z M250.160385,7.93905373 C254.633581,7.93905373 258.259824,11.5652959 258.259824,16.0384924 C258.259824,20.5116888 254.633581,24.137931 250.160385,24.137931 C245.687188,24.137931 242.060946,20.5116888 242.060946,16.0384924 C242.060946,11.5652959 245.687188,7.93905373 250.160385,7.93905373 Z" id="Combined-Shape"></path>
        </g>
    </g>
</svg>