<?xml version="1.0" encoding="UTF-8"?>
<svg width="130px" height="36px" viewBox="0 0 130 36" version="1.1" xmlns="http://www.w3.org/2000/svg" xmlns:xlink="http://www.w3.org/1999/xlink">
    <!-- Generator: Sketch 53.2 (72643) - https://sketchapp.com -->
    <title>Combined Shape</title>
    <desc>Created with Sketch.</desc>
    <g id="Page-1" stroke="none" stroke-width="1" fill="none" fill-rule="evenodd">
        <g id="cloudbees" fill="#FFFFFF" fill-rule="nonzero">
            <path d="M70.9882,0.0027771 L70.9882,14.6223771 C70.9882,14.6417771 70.9882,14.6584771 70.9882,14.6778771 L66.9454,14.6778771 C66.9454,13.1558771 66.0236,11.7836771 64.60975,11.2012771 C63.19594,10.6187771 61.56858,10.9407771 60.48649,12.0169771 C59.40441,13.0931771 59.08071,14.7117771 59.66633,16.1178771 C60.25195,17.5240771 61.63156,18.4408771 63.16186,18.4408771 L66.1006,18.4408771 L66.1006,22.4618771 L63.16186,22.4618771 C59.88827,22.4643771 56.95897,20.4402771 55.81918,17.3880771 C54.679387,14.3359771 55.569939,10.9006771 58.05147,8.7772371 C60.53299,6.6537571 64.08115,6.2907071 66.9454,7.8672071 L66.9454,0.0027771 L70.9882,0.0027771 Z M2.91268,9.34801 C4.54375,7.822818 6.46759,7.30425366 8.45833,7.30425366 C9.73326,7.2885298 10.9946,7.565631 12.1443,8.11399 L12.1443,12.36511 C11.2873,11.64403 10.1998,11.25071 9.07731,11.25588 C8.08279,11.23406 7.12054,11.60729 6.40346,12.29301 C5.69461,13.02209 5.30728,14.00216 5.32723,15.01616 C5.30849,15.97303 5.65865,16.90076 6.30587,17.60902 C7.04851,18.37072 8.07474,18.79322 9.14143,18.77642 C10.2462,18.77032 11.3116,18.36752 12.1415,17.64222 L12.1415,21.85732 C11.0039,22.47582 9.72066,22.78022 8.42488,22.73912 C5.97966,22.73912 4.12274,21.86562 2.78442,20.56782 C1.294316,19.12012 0.4685421,17.12653 0.500917369,15.05498 C0.4746341,12.90239 1.348075,10.83555 2.91268,9.34801 Z M14.5645,0 L18.99768,0 L18.99768,22.4646 L14.5645,22.4646 L14.5645,0 Z M22.9955,9.63916 C24.19716,8.34137 26.23817,7.30423 28.85048,7.30423 C31.4633,7.30423 33.5126,8.34137 34.7055,9.64194 C36.058,11.10056 36.7186,13.1748 36.7186,15.02444 C36.7274,17.00232 36.0121,18.91573 34.7055,20.40703 C33.5038,21.70473 31.4633,22.74193 28.85048,22.74193 C26.23817,22.74193 24.19716,21.70473 22.9955,20.40703 C20.313368,17.31343 20.313368,12.73276 22.9955,9.63916 Z M28.87929,18.78473 C29.79384,18.80203 30.67079,18.42363 31.2826,17.74763 C32.6034,16.16885 32.6034,13.87735 31.2826,12.29855 C30.65077,11.63281 29.77089,11.25549 28.84999,11.25549 C27.92958,11.25549 27.04921,11.63281 26.41737,12.29855 C25.09657,13.87735 25.09657,16.16885 26.41737,17.74763 C27.04628,18.43433 27.94569,18.81323 28.87929,18.78473 Z M48.8143,15.55969 L48.8143,7.58157 L53.5096,7.58157 L53.5096,16.02002 C53.5096,17.67277 53.3451,19.22847 51.8785,20.65657 C50.2251,22.27607 47.77156,22.74467 46.0429,22.74467 C44.25011,22.74467 41.84671,22.27887 40.17382,20.65657 C38.838287,19.36157 38.5762,17.90017 38.5762,16.31119 L38.5762,7.58157 L43.27704,7.58157 L43.27704,15.55969 C43.27704,16.20859 43.34117,17.21244 44.09119,17.89457 C44.62884,18.36407 45.32819,18.60847 46.0429,18.57677 C46.76787,18.60377 47.47683,18.36047 48.03086,17.89457 C48.7167,17.24572 48.8143,16.27237 48.8143,15.55969 Z M74.77757,35.9834 C70.4571,35.9788 66.9558101,32.4965 66.9512,28.1994 L66.9512,15.5154 L70.99404,15.5154 L70.99404,28.1966 C70.99291,29.7189 71.91402,31.0919 73.32774,31.6752 C74.74146,32.2586 76.36929,31.9373 77.4519,30.8613 C78.5346,29.7853 78.8588,28.1665 78.2734,26.76 C77.6879,25.35351 76.30812,24.43637 74.77757,24.43637 L71.83327,24.43637 L71.83327,20.41541 L74.77757,20.41541 C79.1,20.41541 82.6039,23.90043 82.6039,28.1994 C82.6039,32.4984 79.1,35.9834 74.77757,35.9834 Z M88.83202,28.88159 C88.83592,29.77688 89.14549,30.6443 89.71043,31.3413 C90.42723,32.1178 91.40282,32.2481 92.11668,32.2481 C92.7744,32.2758 93.42772,32.1355 94.01561,31.8405 C94.4585,31.5436 94.8086,31.1283 95.0249,30.6425 L99.4497,31.0945 C98.9951,32.6001 98.0034,33.8889 96.6616,34.7189 C95.2798,35.5555 93.69237,35.9968 92.07469,35.9945 C89.89452,35.9945 87.97606,35.3983 86.28368,33.715 C85.015121,32.4533 84.1035,30.5454 84.1035,28.1495 C84.1035,26.07802 84.85057,23.94276 86.31444,22.45637 C88.07127,20.709363 90.25145,20.3849 91.89061,20.3849 C93.53026,20.3849 95.8584,20.662213 97.6484,22.55345 C99.3716,24.36427 99.6977,26.62986 99.6977,28.41017 L99.664,28.88159 L88.83202,28.88159 Z M94.395,24.42527 C93.05614,23.29918 91.08006,23.35533 89.80809,24.55562 C89.39842,24.98909 89.11717,25.52635 88.99412,26.10853 L95.3374,26.10853 C95.1792,25.47407 94.854,24.89302 94.395,24.42527 Z M105.88975,28.88156 C105.89316,29.77685 106.20322,30.6443 106.76816,31.3413 C107.48447,32.1177 108.46055,32.2481 109.17441,32.2481 C109.8292,32.2696 110.4791,32.1245 111.06211,31.8266 C111.505,31.5297 111.8551,31.1144 112.0714,30.6286 L116.4962,31.0806 C116.0343,32.6373 115.0499,33.9898 113.7081,34.913 C112.3136,35.7449 110.74668,35.9806 109.12119,35.9806 C106.94102,35.9806 105.02256,35.3844 103.33018,33.7012 C102.061621,32.4394 101.15,30.5315 101.15,28.1356 C101.15,26.06412 101.89707,23.92886 103.36094,22.44247 C105.11777,20.695463 107.29795,20.371 108.93711,20.371 C110.57676,20.371 112.9049,20.648313 114.6949,22.53955 C116.4181,24.35037 116.7442,26.61596 116.7442,28.39627 L116.7247,28.88156 L105.88975,28.88156 Z M111.4557,24.4252 C110.1168,23.2991 108.14072,23.35525 106.86875,24.55554 C106.45908,24.98901 106.17783,25.52627 106.05479,26.10846 L112.398,26.10846 C112.2398,25.474 111.9146,24.89294 111.4557,24.4252 Z M127.06611,24.75517 C126.2932,24.27049 125.40795,23.99165 124.49543,23.94543 C124.01454,23.921 123.54106,24.07075 123.16268,24.36694 C122.98893,24.53945 122.88478,24.76932 122.86993,25.01306 C122.88715,25.29632 123.06276,25.54599 123.3244,25.65919 C123.7739,25.86126 124.24038,26.02365 124.71848,26.14447 L125.95363,26.5327 C126.84008,26.77002 127.6621,27.20108 128.3598,27.79445 C129.1963,28.57091 129.4974,29.45829 129.4974,30.54533 C129.5355,31.9564 128.9997,33.3231 128.0113,34.3361 C126.58097,35.7587 124.82443,36 123.29373,36 C121.34201,36 119.22859,35.5785 117.341,33.9285 L119.32617,30.7894 C119.81307,31.2072 120.34849,31.5656 120.921,31.857 C121.52764,32.1558 122.19574,32.3106 122.87271,32.309 C123.16547,32.309 123.9127,32.309 124.3365,31.9846 C124.63268,31.7611 124.8119,31.4168 124.82443,31.0473 C124.81815,30.6956 124.61776,30.37583 124.30304,30.21534 C123.84961,29.98445 123.36918,29.81027 122.87271,29.69678 L121.70169,29.34182 C120.82719,29.089 120.02484,28.6349 119.35963,28.0163 C118.66547,27.32213 118.289326,26.37432 118.319645,25.39574 C118.294098,24.14107 118.79999,22.93349 119.71373,22.06806 C121.0158,20.870094 122.7807,20.6121985 124.10508,20.6121985 C125.79334,20.5720773 127.4599,20.997247 128.9202,21.84067 L127.06611,24.75517 Z" id="Combined-Shape"></path>
        </g>
    </g>
</svg>