<?xml version="1.0" encoding="UTF-8"?>
<svg width="730px" height="150px" viewBox="0 0 730 150" version="1.1" xmlns="http://www.w3.org/2000/svg" xmlns:xlink="http://www.w3.org/1999/xlink">
    <!-- Generator: Sketch 54.1 (76490) - https://sketchapp.com -->
    <title>Combined Shape</title>
    <desc>Created with Sketch.</desc>
    <g id="Page-1" stroke="none" stroke-width="1" fill="none" fill-rule="evenodd">
        <g id="codeanywhere_vectors" transform="translate(-67.000000, -82.000000)" fill="#FFFFFF">
            <path d="M120.376946,156.830996 L124.1192,159.3225 L124.117494,159.323486 L130.7055,163.7106 C135.0995,166.6376 138.6545,173.2756 138.6545,178.5506 L138.6545,220.2156 C138.6545,227.3986 135.3465,231.4576 130.4585,231.4576 C128.1785,231.4576 125.5565,230.5766 122.7665,228.7206 L67.5945,191.9846 L67.5942,121.6895 L122.7666,84.9531 C131.5446,79.1011 138.6546,82.9191 138.6546,93.4581 L138.6546,135.1231 C138.6546,140.3881 135.0996,147.0361 130.7056,149.9521 L120.376946,156.830996 Z M214.5444,191.9844 L214.5447,191.9846 L159.3717,228.7206 C156.5817,230.5766 153.9607,231.4576 151.6797,231.4576 C146.7927,231.4576 143.4837,227.3986 143.4837,220.2156 L143.4837,178.5506 C143.4837,173.2756 147.0447,166.6376 151.4327,163.7106 L157.871612,159.422771 L161.763267,156.83167 L151.4336,149.9521 C147.0446,147.0361 143.4836,140.3881 143.4836,135.1231 L143.4836,93.4581 C143.4836,82.9191 150.5996,79.1011 159.3716,84.9531 L214.5446,121.6891 L214.5446,191.9841 L214.5444,191.9844 Z M274.4751,142.4946 C271.9191,142.0336 269.2111,141.5406 266.5001,141.5406 C254.3951,141.5406 253.2341,144.8696 253.2341,156.7936 C253.2341,168.0726 253.7241,172.7916 266.5521,172.7916 C269.2111,172.7916 271.8171,172.3046 274.4491,171.7906 L275.3271,179.2466 C271.4291,180.1486 266.8091,180.8456 261.0541,180.8456 C245.7251,180.8456 243.2731,169.2576 243.2731,156.7936 C243.2731,141.7446 246.7581,133.6436 263.5841,133.6436 C268.4341,133.6436 272.1521,134.3406 275.2481,135.2426 L274.4751,142.4946 Z M301.1045,173.0542 C309.4155,173.0542 311.7385,169.4152 311.7385,157.2342 C311.7385,145.0752 309.4155,141.4352 301.1045,141.4352 C292.7935,141.4352 290.5225,144.5602 290.5225,157.2342 C290.5225,169.9292 292.7935,173.0542 301.1045,173.0542 Z M301.1045,180.8462 C286.0585,180.8462 280.6395,174.4492 280.6395,157.2342 C280.6395,140.0462 286.0585,133.6432 301.1045,133.6432 C316.1505,133.6432 321.5695,140.3292 321.5695,157.2342 C321.5695,174.1602 316.1505,180.8462 301.1045,180.8462 Z M350.1499,141.231 C337.8909,141.231 337.6569,147.969 337.6569,157.234 C337.6569,165.697 338.2529,173.311 349.2189,173.311 C352.1639,173.311 355.6219,172.792 357.6089,171.764 C357.8139,169.903 357.8919,167.658 357.8919,165.592 L357.8919,142.521 C355.6219,141.745 352.5229,141.231 350.1499,141.231 Z M357.8919,116.508 L367.6739,116.508 L367.6739,168.382 C367.6739,171.402 367.5429,174.035 367.2859,176.819 C362.1499,179.713 355.2329,180.846 349.2189,180.846 C334.1229,180.846 327.7729,175.246 327.7729,157.234 C327.7729,139.501 333.8379,133.644 347.8529,133.644 C351.0519,133.644 354.7699,134.137 357.8919,134.907 L357.8919,116.508 Z M394.728,155.0112 C398.11,154.8592 403.427,154.4182 406.599,153.9782 C406.678,153.3862 406.704,152.4312 406.704,151.8392 C406.704,144.8442 404.122,141.0262 396.484,141.0262 C386.805,141.0262 385.489,147.1402 385.489,155.4512 L394.728,155.0112 Z M385.749,162.1372 C386.262,170.9882 390.882,173.0542 398.005,173.0542 C404.148,173.0542 409.774,172.4612 414.499,171.8642 L415.324,179.1682 C410.343,179.9702 404.329,180.8452 395.478,180.8452 C380.069,180.8452 376.016,170.8572 376.016,157.2342 C376.016,140.5602 381.179,133.6432 396.484,133.6432 C413.025,133.6432 416.562,142.3682 416.562,156.0702 C416.562,157.1812 416.536,158.3142 416.434,159.4782 C411.169,160.4072 400.2,161.4922 393.852,161.7752 L385.749,162.1372 Z M451.3608,157.3076 C447.3068,157.4646 442.6118,157.5436 438.8678,158.4196 C434.0938,159.5306 432.3898,160.9986 432.3898,166.3686 C432.3898,172.1256 435.5908,173.5156 441.4768,173.5156 C444.4678,173.5156 448.1858,173.2846 451.0748,171.9426 C451.2818,170.0856 451.3608,167.8416 451.3608,165.7756 L451.3608,157.3076 Z M422.7128,166.5206 C422.7128,158.4976 426.1968,153.4646 435.0738,152.1216 C440.1338,151.3456 445.6818,151.1406 451.3608,150.9106 C451.3608,144.5346 448.5738,141.3356 441.5788,141.3356 C436.0808,141.3356 430.2998,141.9026 425.6048,142.4946 L424.8018,135.3216 C429.7568,134.4936 435.7718,133.6436 442.5068,133.6436 C452.6248,133.6436 460.9618,136.4066 460.9618,148.1206 L460.9618,168.3816 C460.9618,171.4026 460.8308,174.0346 460.5738,176.8186 C455.4378,179.7136 448.5968,180.8456 440.0288,180.8456 C427.5918,180.8456 422.7128,175.9696 422.7128,166.5206 Z M509.8262,180.2271 L500.0202,180.2271 L500.0202,151.8121 C500.0202,144.4821 498.7312,141.3881 489.3102,141.3881 C486.3672,141.3881 482.9082,141.9021 480.9212,142.9351 C480.7162,144.7911 480.6382,147.0361 480.6382,149.1021 L480.6382,180.2271 L470.8562,180.2271 L470.8562,146.1071 C470.8562,143.0871 470.9872,140.4551 471.2442,137.6701 C476.4562,135.1171 483.2962,133.6441 491.9932,133.6441 C508.1742,133.6441 509.8262,141.2051 509.8262,150.7531 L509.8262,180.2271 Z M537.2681,164.9736 L547.1021,134.2626 L557.0391,134.2626 L535.6431,197.1586 L525.7061,197.1586 L532.8301,177.1286 L514.2751,134.2626 L524.6491,134.2626 L537.2681,164.9736 Z M617.4419,134.2622 L627.0919,134.2622 L616.7709,174.4222 C615.6349,178.8062 613.1839,180.8452 609.5449,180.8452 C605.8799,180.8452 603.5039,178.7802 602.1619,174.4222 L594.4459,149.3372 L586.7559,174.3962 C585.4139,178.7542 583.0389,180.8452 579.3479,180.8452 C575.6589,180.8452 573.1809,178.7802 572.0459,174.3702 L561.7999,134.2622 L571.8129,134.2622 L579.9419,170.8302 L587.9179,143.9152 C589.1299,139.8362 591.2709,137.9012 594.6529,137.9012 C598.0329,137.9012 600.1749,139.8102 601.3889,143.9152 L609.2329,170.7312 L617.4419,134.2622 Z M673.3223,180.2271 L663.5143,180.2271 L663.5143,151.9171 C663.5143,144.5871 662.1723,141.4881 652.7013,141.4881 C649.7603,141.4881 646.5593,142.1591 644.0293,143.2971 L644.0293,180.2271 L634.2233,180.2271 L634.2233,116.5081 L644.0293,116.5081 L644.0293,135.3741 C647.3853,134.3151 651.1783,133.6441 655.3863,133.6441 C671.6173,133.6441 673.3223,141.2051 673.3223,150.7531 L673.3223,180.2271 Z M699.3433,155.0112 C702.7253,154.8592 708.0423,154.4182 711.2143,153.9782 C711.2933,153.3862 711.3193,152.4312 711.3193,151.8392 C711.3193,144.8442 708.7373,141.0262 701.0993,141.0262 C691.4203,141.0262 690.1043,147.1402 690.1043,155.4512 L699.3433,155.0112 Z M690.3643,162.1372 C690.8773,170.9882 695.4993,173.0542 702.6203,173.0542 C708.7633,173.0542 714.3893,172.4612 719.1143,171.8642 L719.9403,179.1682 C714.9583,179.9702 708.9443,180.8452 700.0933,180.8452 C684.6853,180.8452 680.6343,170.8572 680.6343,157.2342 C680.6343,140.5602 685.7943,133.6432 701.0993,133.6432 C717.6403,133.6432 721.1773,142.3682 721.1773,156.0702 C721.1773,157.1812 721.1513,158.3142 721.0493,159.4782 C715.7843,160.4072 704.8153,161.4922 698.4673,161.7752 L690.3643,162.1372 Z M739.3276,180.2271 L729.5486,180.2271 L729.5486,146.1071 C729.5486,143.0871 729.6766,140.4551 729.9336,137.6701 C735.0696,134.7811 741.9866,133.6441 748.0006,133.6441 C749.5236,133.6441 750.9416,133.6961 752.2846,133.8221 L751.5116,141.6191 C750.4776,141.4881 749.3166,141.4351 748.0006,141.4351 C745.0586,141.4351 741.6006,141.9551 739.6136,142.9881 C739.4066,144.8441 739.3276,147.0881 739.3276,149.1541 L739.3276,180.2271 Z M774.9497,155.0112 C778.3317,154.8592 783.6487,154.4182 786.8207,153.9782 C786.8997,153.3862 786.9257,152.4312 786.9257,151.8392 C786.9257,144.8442 784.3437,141.0262 776.7057,141.0262 C767.0267,141.0262 765.7107,147.1402 765.7107,155.4512 L774.9497,155.0112 Z M765.9707,162.1372 C766.4837,170.9882 771.1057,173.0542 778.2267,173.0542 C784.3697,173.0542 789.9957,172.4612 794.7207,171.8642 L795.5467,179.1682 C790.5647,179.9702 784.5507,180.8452 775.6997,180.8452 C760.2917,180.8452 756.2407,170.8572 756.2407,157.2342 C756.2407,140.5602 761.4007,133.6432 776.7057,133.6432 C793.2467,133.6432 796.7837,142.3682 796.7837,156.0702 C796.7837,157.1812 796.7577,158.3142 796.6557,159.4782 C791.3907,160.4072 780.4217,161.4922 774.0737,161.7752 L765.9707,162.1372 Z" id="Combined-Shape"></path>
        </g>
    </g>
</svg>