<?xml version="1.0" encoding="UTF-8"?>
<svg width="500px" height="307px" viewBox="0 0 500 307" version="1.1" xmlns="http://www.w3.org/2000/svg" xmlns:xlink="http://www.w3.org/1999/xlink">
    <title>cornaro</title>
    <g id="Page-1" stroke="none" stroke-width="1" fill="none" fill-rule="evenodd">
        <g id="cornaro" fill="#FFFFFF">
            <path d="M228.074324,282.820946 C234.138514,282.820946 238.209459,287.550676 238.209459,294.273649 C238.209459,302.043919 233.462838,306.199324 227.719595,306.199324 L227.719595,306.131757 C221.706081,306.131757 217.584459,301.486486 217.584459,294.64527 C217.584459,287.449324 222.010135,282.820946 228.074324,282.820946 Z M301.452703,283.125 L301.452703,303.310811 L311.114865,303.310811 L311.114865,305.760135 L298.496622,305.760135 L298.496622,283.125 L301.452703,283.125 Z M286.148649,283.125 L286.148649,285.574324 L276.858108,285.574324 L276.858108,292.736486 L285.608108,292.736486 L285.608108,295.152027 L276.858108,295.152027 L276.858108,303.310811 L286.655405,303.310811 L286.655405,305.760135 L273.885135,305.760135 L273.885135,283.125 L286.148649,283.125 Z M263.344595,283.125 L263.344595,285.608108 L256.418919,285.608108 L256.418919,305.760135 L253.462838,305.760135 L253.462838,285.608108 L246.570946,285.608108 L246.570946,283.125 L263.344595,283.125 Z M191.824324,283.125 L191.824324,292.601351 L202.787162,292.601351 L202.787162,283.125 L205.743243,283.125 L205.743243,305.760135 L202.787162,305.760135 L202.787162,295.152027 L191.824324,295.152027 L191.824324,305.760135 L188.868243,305.760135 L188.868243,283.125 L191.824324,283.125 Z M227.888514,285.135135 C223.006757,285.135135 220.591216,289.679054 220.591216,294.577703 C220.591216,299.476351 223.209459,303.75 227.820946,303.75 L227.85473,303.75 C232.5,303.75 235.118243,299.493243 235.118243,294.341216 C235.118243,289.831081 232.77027,285.135135 227.888514,285.135135 Z M324.847973,234.087838 L328.040541,245.033784 L339.442568,244.695946 L330.016892,251.114865 L333.868243,261.841216 L324.847973,254.864865 L315.827703,261.841216 L319.679054,251.114865 L310.27027,244.695946 L321.655405,245.033784 L324.847973,234.087838 Z M274.949324,234.087838 L278.141892,245.033784 L289.543919,244.695946 L280.118243,251.114865 L283.969595,261.841216 L274.949324,254.864865 L265.929054,261.841216 L269.780405,251.114865 L260.35473,244.695946 L271.756757,245.033784 L274.949324,234.087838 Z M225.050676,234.087838 L228.243243,245.033784 L239.64527,244.695946 L230.219595,251.114865 L234.070946,261.841216 L225.050676,254.864865 L216.030405,261.841216 L219.881757,251.114865 L210.456081,244.695946 L221.858108,245.033784 L225.050676,234.087838 Z M175.152027,234.087838 L178.327703,245.033784 L189.746622,244.695946 L180.320946,251.114865 L184.172297,261.841216 L175.152027,254.864865 L166.131757,261.841216 L169.983108,251.114865 L160.557432,244.695946 L171.959459,245.033784 L175.152027,234.087838 Z M109.037162,157.043919 C110.152027,157.043919 111.317568,157.043919 112.550676,157.14527 C113.783784,157.246622 114.966216,157.314189 116.148649,157.432432 C117.331081,157.550676 118.39527,157.702703 119.391892,157.85473 C120.388514,158.006757 121.216216,158.175676 121.858108,158.310811 L120.168919,165.337838 C119.270543,165.060053 118.356856,164.834451 117.432432,164.662162 C116.25,164.425676 114.983108,164.206081 113.648649,163.986486 C112.314189,163.766892 110.996622,163.597973 109.679054,163.445946 C108.597137,163.311056 107.508977,163.232122 106.418919,163.209459 L103.851351,163.209459 C103.156214,163.254732 102.466524,163.362142 101.790541,163.530405 C101.204535,163.693394 100.638106,163.919965 100.101351,164.206081 C99.5103016,164.514313 98.945367,164.870221 98.4121622,165.27027 C96.69223,166.773966 95.6258221,168.888605 95.4391892,171.165541 C94.8679042,174.745554 94.6079227,178.36834 94.6621622,181.993243 C94.6621622,188.637387 95.6475225,193.665541 97.6182432,197.077703 C99.5478126,200.440314 103.226573,202.407565 107.094595,202.14527 C109.679465,202.137985 112.260061,201.934699 114.814189,201.537162 C117.286406,201.191781 119.72287,200.626476 122.094595,199.847973 L122.094595,203.969595 C120.819128,204.57086 119.50414,205.084439 118.158784,205.506757 C116.731841,205.952766 115.282844,206.324882 113.817568,206.621622 C112.326686,206.927585 110.821425,207.15873 109.307432,207.314189 C107.850315,207.500166 106.384215,207.607304 104.915541,207.635135 C101.688736,207.729771 98.4827308,207.08857 95.5405405,205.760135 C93.0399426,204.568691 90.8833995,202.760915 89.2736486,200.506757 C87.5819803,198.056465 86.3934769,195.294773 85.777027,192.381757 C85.0118594,188.92707 84.6434846,185.396339 84.6790541,181.858108 C84.6380743,179.040286 84.9963615,176.230859 85.7432432,173.513514 C86.3830538,171.231629 87.3685785,169.061196 88.6655405,167.077703 C89.8307156,165.309974 91.260703,163.73186 92.9054054,162.398649 C94.45876,161.146656 96.1608406,160.091366 97.972973,159.256757 C99.7478129,158.480058 101.607239,157.91316 103.513514,157.567568 C105.334408,157.221408 107.183657,157.046097 109.037162,157.043919 Z M151.908784,156.976351 C155.441248,156.885242 158.95941,157.458233 162.280405,158.665541 C165.098601,159.754162 167.621416,161.490043 169.64527,163.733108 C171.671184,166.019778 173.180657,168.716088 174.070946,171.638514 C175.09267,175.01663 175.588338,178.531886 175.540541,182.060811 L175.557432,182.077703 C175.602113,185.650779 175.106656,189.210098 174.087838,192.635135 C173.199783,195.607554 171.684897,198.355083 169.64527,200.692568 C167.599535,202.933599 165.060887,204.668438 162.22973,205.760135 C158.924777,207.014987 155.409424,207.622862 151.875,207.550676 C148.325418,207.637875 144.793979,207.01772 141.486486,205.726351 C138.732128,204.613759 136.295129,202.838231 134.391892,200.557432 C132.477716,198.211968 131.079105,195.48957 130.287162,192.567568 C129.373011,189.141373 128.929748,185.606638 128.969595,182.060811 C128.923082,178.541301 129.372311,175.032769 130.304054,171.638514 C131.099256,168.733114 132.517198,166.035566 134.459459,163.733108 C136.398141,161.485427 138.856894,159.745744 141.621622,158.665541 C144.911928,157.452935 148.403477,156.87961 151.908784,156.976351 Z M391.722973,156.841216 C395.248801,156.839894 398.743705,157.498769 402.027027,158.783784 C404.845817,159.871279 407.368877,161.607329 409.391892,163.851351 C411.41694,166.138636 412.926302,168.834748 413.817568,171.756757 C414.838766,175.134989 415.334423,178.650164 415.287162,182.179054 L415.337838,182.077703 C415.370246,185.629021 414.869163,189.165072 413.851351,192.567568 C412.961843,195.539376 411.44712,198.286612 409.408784,200.625 C407.358227,202.868187 404.813583,204.603171 401.976351,205.692568 C398.67669,206.945286 395.167277,207.553126 391.638514,207.483108 C388.088898,207.570759 384.55737,206.950589 381.25,205.658784 C378.495642,204.546191 376.058642,202.770663 374.155405,200.489865 C372.245315,198.121243 370.857956,195.375308 370.084459,192.432432 C369.172159,189.005877 368.728928,185.471396 368.766892,181.925676 C368.725205,178.405327 369.180134,174.896687 370.118243,171.503378 C370.913445,168.597979 372.331387,165.900431 374.273649,163.597973 C376.213255,161.351309 378.671735,159.611818 381.435811,158.530405 C384.72633,157.318604 388.217723,156.745304 391.722973,156.841216 Z M198.699324,157.094595 C204.329955,157.094595 208.643018,158.186937 211.638514,160.371622 C214.634009,162.556306 216.109234,165.968468 216.064189,170.608108 C216.097817,172.437525 215.847081,174.261064 215.320946,176.013514 C214.865012,177.447238 214.192853,178.802948 213.327703,180.033784 C212.537504,181.138154 211.580078,182.112677 210.489865,182.922297 C209.435499,183.696724 208.30325,184.35909 207.111486,184.898649 C208.507883,187.443694 209.842342,189.836712 211.114865,192.077703 C212.249653,194.124883 213.519347,196.09432 214.915541,197.972973 C216.01591,199.473015 217.317543,200.814436 218.783784,201.959459 C219.98318,202.903784 221.463354,203.420953 222.989865,203.429054 L223.310811,203.429054 L223.310811,206.587838 C222.461334,206.863743 221.591559,207.072715 220.709459,207.212838 C219.591474,207.381923 218.461721,207.461006 217.331081,207.449324 C215.791043,207.470501 214.254064,207.306027 212.753378,206.959459 C211.336431,206.57718 210.032644,205.858648 208.952703,204.864865 C207.458937,203.48238 206.168022,201.895749 205.118243,200.152027 C203.432204,197.420591 201.892861,194.601281 200.506757,191.706081 L197.904898,186.570892 L194.746622,186.570946 L194.746622,206.942568 L185.202703,206.942568 L185.202703,157.635135 C187.128378,157.488739 189.307432,157.364865 191.739865,157.263514 C194.172297,157.162162 196.486486,157.094595 198.699324,157.094595 Z M340.743243,157.094595 C346.373874,157.094595 350.686937,158.186937 353.682432,160.371622 C356.677928,162.556306 358.153153,165.968468 358.108108,170.608108 C358.144501,172.437687 357.893705,174.261654 357.364865,176.013514 C356.91919,177.44824 356.252387,178.804643 355.388514,180.033784 C354.599807,181.139407 353.642168,182.114147 352.550676,182.922297 C351.496923,183.697656 350.364573,184.360081 349.172297,184.898649 C350.557432,187.432432 351.891892,189.831081 353.158784,192.077703 C354.294126,194.124551 355.563797,196.093952 356.959459,197.972973 C358.052823,199.473419 359.348948,200.815022 360.810811,201.959459 C362.010207,202.903784 363.490381,203.420953 365.016892,203.429054 L365.337838,203.429054 L365.337838,206.587838 C364.488342,206.863676 363.618573,207.072647 362.736486,207.212838 C361.646394,207.377747 360.545037,207.456818 359.442568,207.449324 C357.902537,207.470337 356.365577,207.305865 354.864865,206.959459 C353.448417,206.575941 352.14491,205.857564 351.064189,204.864865 C349.570753,203.48207 348.279879,201.895489 347.22973,200.152027 C345.542267,197.421419 344.002881,194.602032 342.618243,191.706081 L339.983108,186.503378 L339.983108,186.570946 L336.773649,186.570946 L336.773649,206.942568 L327.22973,206.942568 L327.22973,157.635135 C329.172297,157.483108 331.334459,157.364865 333.783784,157.263514 C336.233108,157.162162 338.530405,157.094595 340.743243,157.094595 Z M232.179054,157.212838 L265.540541,191.722973 C265.540541,189.076577 265.506757,186.593468 265.439189,184.273649 L265.439189,157.584459 L271.013514,157.584459 L271.013514,207.212838 L266.621622,207.212838 L233.445946,172.533784 L233.344595,172.533784 C233.344595,175.422297 233.47973,178.091216 233.564189,180.523649 L233.564189,206.942568 L227.989865,206.942568 L227.989865,157.212838 L232.179054,157.212838 Z M304.324324,156.266892 L321.638514,206.942568 L311.418919,206.942568 L305.89527,190.27027 L288.209459,190.540541 L282.533784,206.942568 L276.469595,206.942568 L295.050676,157.956081 L304.324324,156.266892 Z M391.672297,162.787162 C389.726155,162.773816 387.785807,163.000758 385.89527,163.462838 C384.369291,163.795794 382.930458,164.446146 381.672297,165.371622 C380.324356,166.864713 379.520722,168.769623 379.391892,170.777027 C378.845324,174.523826 378.602417,178.308666 378.665541,182.094595 C378.640593,184.799712 378.855397,187.50172 379.307432,190.168919 C379.655702,192.358279 380.37552,194.472031 381.435811,196.418919 C382.372753,198.102145 383.75104,199.497952 385.422297,200.456081 C387.323566,201.461563 389.455295,201.950812 391.60473,201.875 C393.709763,201.927075 395.812166,201.694106 397.85473,201.182432 C399.337307,200.794133 400.746589,200.166518 402.027027,199.324324 C402.7012,198.768043 403.190191,198.019829 403.429054,197.179054 C403.873074,195.897993 404.206501,194.581239 404.425676,193.243243 C404.71069,191.520135 404.908016,189.783665 405.016892,188.040541 C405.185811,186.103604 405.27027,184.115991 405.27027,182.077703 L405.202703,182.077703 C405.227322,179.360881 404.966888,176.64897 404.425676,173.986486 C404.000159,171.825809 403.175233,169.763493 401.993243,167.905405 C400.940998,166.292022 399.485197,164.981801 397.77027,164.10473 C395.871969,163.184954 393.780999,162.733165 391.672297,162.787162 Z M152.027027,162.77027 C150.080885,162.756925 148.140537,162.983866 146.25,163.445946 C144.676713,163.760697 143.190059,164.411828 141.891892,165.35473 C140.54395,166.847821 139.740317,168.752731 139.611486,170.760135 C139.06038,174.506457 138.817449,178.291667 138.885135,182.077703 C138.864367,184.782672 139.079142,187.484314 139.527027,190.152027 C139.874333,192.343985 140.600241,194.458834 141.672297,196.402027 C142.606461,198.087335 143.985409,199.483812 145.658784,200.439189 C147.559216,201.446917 149.691555,201.936306 151.841216,201.858108 C153.946285,201.911015 156.048799,201.678034 158.091216,201.165541 C159.595842,200.788258 161.028223,200.166228 162.331081,199.324324 C162.999016,198.765677 163.481954,198.017711 163.716216,197.179054 C164.162258,195.898599 164.49573,194.581669 164.712838,193.243243 C165.005829,191.521257 165.203204,189.784361 165.304054,188.040541 C165.422297,186.081081 165.540541,184.121622 165.540541,182.077703 L165.422297,182.077703 C165.468012,179.362496 165.224522,176.650139 164.695946,173.986486 C164.269669,171.826034 163.444798,169.763855 162.263514,167.905405 C161.210072,166.293046 159.754574,164.983098 158.040541,164.10473 C156.169208,163.192227 154.108685,162.734976 152.027027,162.77027 Z M297.297297,164.273649 L289.949324,185.608108 L304.391892,185.608108 L297.297297,164.273649 Z M339.408784,162.22973 L338.091216,162.22973 C337.649409,162.243935 337.209141,162.289091 336.773649,162.364865 L336.773649,181.655405 L338.496622,181.689334 C339.791847,181.695028 341.081841,181.524545 342.331081,181.182432 C343.369165,180.926503 344.356968,180.498265 345.253378,179.915541 C345.643436,179.635944 346.000457,179.312925 346.317568,178.952703 C346.718731,178.488902 347.043722,177.964356 347.280405,177.398649 C347.606695,176.606414 347.839133,175.778711 347.972973,174.932432 C348.172549,173.692741 348.262986,172.437931 348.243243,171.182432 C348.281084,169.748648 348.09297,168.317846 347.685811,166.942568 C347.367354,165.895476 346.785778,164.947508 345.996622,164.189189 C345.204021,163.468337 344.247182,162.952224 343.209459,162.685811 C341.968086,162.367579 340.690205,162.214234 339.408784,162.22973 Z M197.364865,162.22973 L196.047297,162.22973 C195.605475,162.243712 195.165191,162.288869 194.72973,162.364865 L194.72973,181.655405 L196.452703,181.689334 C197.747928,181.695028 199.037922,181.524545 200.287162,181.182432 C201.32494,180.925598 202.312598,180.497423 203.209459,179.915541 C203.599982,179.636521 203.957065,179.313445 204.273649,178.952703 C204.675984,178.489764 205.001096,177.965021 205.236486,177.398649 C205.561905,176.606114 205.794313,175.778514 205.929054,174.932432 C206.128115,173.692681 206.218548,172.437916 206.199324,171.182432 C206.237447,169.748634 206.049327,168.317787 205.641892,166.942568 C205.324827,165.89485 204.743048,164.94655 203.952703,164.189189 C203.159705,163.468898 202.203012,162.952864 201.165541,162.685811 C199.924349,162.366607 198.646339,162.213246 197.364865,162.22973 Z M250,0 L305.743243,66.4358108 L290.540541,98.6655405 L500,150.760135 C500,150.760135 347.314189,116.081081 266.891892,111.216216 L266.891892,111.216216 L275.185811,93.5641892 L250,63.5135135 L224.814189,93.5641892 L233.108108,111.216216 C152.685811,116.081081 0,150.760135 0,150.760135 L0,150.760135 L209.459459,98.6655405 L194.256757,66.4358108 L250,0 Z" id="Combined-Shape"></path>
        </g>
    </g>
</svg>