<?xml version="1.0" encoding="UTF-8"?>
<svg width="517px" height="119px" viewBox="0 0 517 119" version="1.1" xmlns="http://www.w3.org/2000/svg" xmlns:xlink="http://www.w3.org/1999/xlink">
    <!-- Generator: Sketch 53.2 (72643) - https://sketchapp.com -->
    <title>Combined Shape</title>
    <desc>Created with Sketch.</desc>
    <g id="Page-1" stroke="none" stroke-width="1" fill="none" fill-rule="evenodd">
        <g id="couchbase_logo" fill="#FFFFFF" fill-rule="nonzero">
            <path d="M178.570339,88.1521601 C160.342953,88.1521601 151.189678,74.820641 151.189678,60.1539623 C151.189678,45.5073612 160.659606,32.3163852 178.748457,32.3163852 C185.690103,32.3163852 190.61308,33.8523208 194.784005,36.6230281 L189.598799,45.2413331 C186.669751,43.3389816 183.414153,42.1042099 178.570339,42.1042099 C168.81839,42.1042099 163.573811,49.9947023 163.573811,59.8277015 C163.573811,69.9618645 168.575952,78.2790057 178.748457,78.2790057 C184.492755,78.2790057 187.941314,76.236111 190.697192,74.1731388 L195.481633,82.4702024 C192.770285,84.954804 186.328358,88.1521601 178.570339,88.1521601 Z M217.430197,88.1521601 C203.828925,88.1521601 197.827346,77.7720466 197.827346,67.5776508 C197.827346,57.3782356 203.749762,46.7371135 217.351034,46.7371135 C230.972097,46.7371135 237.171585,57.0369166 237.171585,67.2363318 C237.171585,77.2701069 231.110633,88.1521601 217.430197,88.1521601 Z M217.212498,54.9890026 C211.364297,54.9890026 209.47427,59.9682446 209.47427,67.2363318 C209.47427,74.5194772 211.765062,79.7346309 217.608315,79.7346309 C223.510941,79.7346309 225.529609,74.8607962 225.529609,67.5776508 C225.529609,60.2945054 223.115123,54.9890026 217.212498,54.9890026 Z M254.398543,47.7083669 L254.398543,73.0412647 C254.398543,76.9262782 255.734427,78.8687849 259.465005,78.8687849 C263.393491,78.8687849 266.406651,75.07914 267.198285,74.1103963 L267.198285,47.7083669 L278.192111,47.7083669 L278.192111,75.5860991 C278.192111,80.7510589 278.751203,84.771596 279.245974,87.1859261 L268.420371,87.1859261 C268.09877,86.1318527 267.698005,83.5418437 267.618841,81.940656 C265.525957,84.6511305 261.518307,88.1546698 255.096171,88.1546698 C246.521779,88.1546698 243.409666,82.5731001 243.409666,75.3250904 L243.409666,47.7083669 L254.398543,47.7083669 Z M305.108182,88.1521601 C292.565721,88.1521601 284.787911,79.8400383 284.787911,67.4923211 C284.787911,54.2260542 293.52063,46.7371135 305.429783,46.7371135 C311.733174,46.7371135 315.498386,48.6394651 317.333989,49.8541592 L313.845849,57.4635654 C312.1092,56.3492592 309.635342,55.1747203 305.790967,55.1747203 C299.680537,55.1747203 296.434835,59.9682446 296.434835,67.1510021 C296.434835,74.3739147 299.527158,79.5539326 306.028457,79.5539326 C310.471506,79.5539326 313.12843,77.9125897 314.320829,77.2098741 L317.65559,84.6335626 C315.81504,85.8231598 312.227945,88.1521601 305.108182,88.1521601 Z M347.027708,87.1834164 L347.027708,61.8505186 C347.027708,57.9655051 345.686876,56.0280178 342.025566,56.0280178 C338.032759,56.0280178 335.0196,59.7473911 334.223018,60.7964452 L334.223018,87.1834164 L323.23414,87.1834164 L323.23414,28.9182533 L334.223018,28.9182533 L334.223018,52.4240906 C336.236738,50.2356334 339.967316,46.7371135 346.33008,46.7371135 C354.904472,46.7371135 358.016585,52.278528 358.016585,59.581751 L358.016585,87.1834164 L347.027708,87.1834164 Z M377.954397,28.9167475 L377.954397,50.8013194 C379.710837,49.0043752 383.119813,46.7356077 387.449065,46.7356077 C397.116902,46.7356077 403.959594,53.4515612 403.959594,67.1494962 C403.959594,80.7269657 394.964646,88.1506543 383.179186,88.1506543 C374.302983,88.1506543 368.880286,85.9069837 366.96552,84.9984728 L366.96552,28.9167475 L377.954397,28.9167475 Z M377.954397,78.6037607 C378.671816,78.8446918 380.30951,79.4520389 383.179186,79.4520389 C388.864112,79.4520389 392.31267,75.245784 392.31267,67.1494962 C392.31267,59.8512927 389.878393,55.5195528 384.336951,55.5195528 C381.066511,55.5195528 378.612444,57.6226803 377.954397,58.4559002 L377.954397,78.6037607 Z M431.248723,87.1834164 C430.932069,86.2096533 430.66984,84.2069139 430.590676,82.9922197 C428.854028,85.1154247 425.207561,88.1521601 419.720544,88.1521601 C413.080709,88.1521601 407.935084,84.1065259 407.935084,77.0040788 C407.935084,66.7494503 418.325288,62.9648248 428.67591,62.9648248 L430.011794,62.9648248 L430.011794,60.7964452 C430.011794,57.5237982 428.695701,55.5160393 423.807358,55.5160393 C418.82006,55.5160393 415.371501,58.1512228 413.936664,59.2002768 L409.191804,52.4441682 C411.541969,50.2958661 416.727176,46.7371135 425.088816,46.7371135 C435.874837,46.7371135 440.941299,50.9032132 440.941299,61.4439474 L440.941299,75.3075226 C440.941299,80.7485492 441.500391,84.6335626 442.059483,87.1834164 L431.248723,87.1834164 Z M430.011794,69.7861856 L428.67591,69.7861856 C422.634749,69.7861856 418.463824,71.6032074 418.463824,76.0754903 C418.463824,78.8863528 420.680401,80.1010469 423.089939,80.1010469 C426.780935,80.1010469 428.913401,77.9577643 430.011794,76.7832253 L430.011794,69.7861856 Z M460.701983,88.1521601 C453.661382,88.1521601 449.173804,86.0490326 446.784057,84.4277673 L450.450315,76.6627598 C451.989054,77.7118138 455.754266,79.8952516 460.043936,79.8952516 C464.051587,79.8952516 466.302797,78.7458097 466.302797,76.4971197 C466.302797,73.9121301 461.889435,73.2244727 456.372731,70.5340758 C451.019302,67.9189698 447.842868,64.8621569 447.842868,58.9191906 C447.842868,51.4503275 453.681173,46.7371135 462.532638,46.7371135 C469.197211,46.7371135 473.288973,48.8000858 475.080046,49.8742368 L471.270305,57.4635654 C469.736512,56.5098799 466.683772,54.9890026 462.972984,54.9890026 C459.267145,54.9890026 457.708614,56.309104 457.708614,58.3269017 C457.708614,60.9219301 461.295709,61.5493547 465.748653,63.3663765 C471.893717,65.8810946 476.257602,68.7923449 476.257602,75.4279881 C476.257602,83.7802651 470.374768,88.1521601 460.701983,88.1521601 Z M501.715087,79.8972594 C506.979457,79.8972594 509.873871,78.1806255 511.808428,77.2068625 L515.316359,84.3494647 C512.723755,85.8251675 508.755687,88.1541678 500.695857,88.1541678 C487.614096,88.1541678 480.17273,79.8771818 480.17273,67.2533978 C480.17273,54.7099241 488.732279,46.7341019 499.56283,46.7341019 C511.828219,46.7341019 517.750635,55.3775039 516.454333,70.1295124 L491.923556,70.1295124 C492.443067,76.0172653 495.431487,79.8972594 501.715087,79.8972594 Z M505.900855,62.6405717 C505.826639,58.2686767 504.109781,54.7300017 499.399556,54.7300017 C495.050513,54.7300017 492.581603,57.5408641 491.864184,62.6405717 L505.900855,62.6405717 Z M59.0073267,0.0020077589 C91.4280834,0.0020077589 117.713993,26.4776599 117.713993,59.1324425 C117.713993,91.7872252 91.4280834,118.262877 59.0073267,118.262877 C26.5865701,118.262877 0.300660058,91.7872252 0.300660058,59.1324425 C0.300660058,26.4776599 26.5865701,0.0020077589 59.0073267,0.0020077589 Z M98.6881412,69.4950512 L98.6881412,46.4046165 C98.6881412,42.8666454 95.9778501,39.5651962 92.6413545,38.9886744 C90.5866212,38.6289643 85.8264889,38.2889643 82.0937234,38.2988194 C80.6896556,38.3037469 79.5546601,39.4124425 79.5497678,41.1025875 L79.5497678,57.2451962 C72.3973389,57.2205585 66.1793245,56.8165005 59.0073267,56.8165005 C51.8304367,56.8165005 45.6173145,57.2205585 38.4599934,57.2451962 C38.4599934,57.2451962 38.4648856,41.107515 38.4648856,41.1025875 C38.4599934,39.4124425 37.3249978,38.3037469 35.9160378,38.2988194 C32.1832723,38.2889643 27.4280323,38.6289643 25.3684067,38.9886744 C22.0368034,39.5651962 19.3216201,42.8666454 19.3265123,46.4046165 L19.3265123,69.4950512 C19.3265123,73.0280947 21.3861378,76.2112831 25.3684067,76.9060657 C32.2957934,78.1231672 46.8256934,78.8672252 59.0073267,78.8672252 C71.1889601,78.8672252 85.7188601,78.1231672 92.6413545,76.9060657 C96.6285156,76.2112831 98.6881412,73.0280947 98.6881412,69.4950512 Z" id="Combined-Shape"></path>
        </g>
    </g>
</svg>