<?xml version="1.0" encoding="UTF-8"?>
<svg width="598px" height="164px" viewBox="0 0 598 164" version="1.1" xmlns="http://www.w3.org/2000/svg" xmlns:xlink="http://www.w3.org/1999/xlink">
    <!-- Generator: Sketch 53.2 (72643) - https://sketchapp.com -->
    <title>Combined Shape</title>
    <desc>Created with Sketch.</desc>
    <g id="Page-1" stroke="none" stroke-width="1" fill="none" fill-rule="evenodd">
        <g id="dalmacijavino" fill="#FFFFFF" fill-rule="nonzero">
            <path d="M150.19,108.83 L150.19,110.4 L130.48,110.4 L130.48,108.83 C134.48,107.66 134.7,104.5 134.7,99.13 L134.7,43.56 C134.7,39.86 133.7,38.28 129.43,37.13 L129.43,35.55 L145.87,32.17 L145.87,99.17 C145.87,104.92 146.4,107.87 150.19,108.83 Z M171.91,99.23 C171.91,105 172.55,107.77 176.24,108.83 L176.24,110.4 L156.52,110.4 L156.52,108.83 C160.52,107.66 160.73,104.6 160.73,99.23 L160.73,73.18 C160.73,69.49 159.79,67.7 155.46,65.91 L155.46,64.33 L171.91,60.75 L171.91,99.23 Z M200.8,99.13 C200.8,104.92 201.43,107.87 205.13,108.83 L205.13,110.4 L185.4,110.4 L185.4,108.83 C189.41,107.66 189.63,104.5 189.63,99.13 L189.63,77.51 C189.63,70.76 186.89,67.18 181.09,67.18 C179.128846,67.2772841 177.263934,68.0593439 175.82,69.39 L174.65,67.8 C177.81,63.91 182.31,60.75 187.31,60.75 C198.37,60.75 200.8,68.34 200.8,77.62 L200.8,99.13 Z M229.69,99.13 C229.69,104.92 230.22,107.87 234,108.83 L234,110.4 L214.27,110.4 L214.27,108.83 C218.28,107.66 218.49,104.5 218.49,99.13 L218.49,77.51 C218.49,70.76 215.54,67.18 209.84,67.18 C207.878846,67.2772841 206.013934,68.0593439 204.57,69.39 L203.2,67.92 C206.28,63.91 211.14,60.75 216.2,60.75 C224.53,60.75 229.69,64.44 229.69,77.19 L229.69,99.13 Z M354.75,63.25 L354.75,61.66 L371.1,58.08 L371.1,105.13 C371.1,125.06 362.98,131.82 352.54,134.45 L352.54,132.87 C360.04,130.75 360.04,109.46 360.04,107.56 L360.04,73.18 C360.04,69.6 359.19,65.04 354.75,63.25 Z M439.94,62.65 C433.51,62.65 437.3,70.34 437.3,70.34 L450.16,98.22 L445.1,111.36 L443.63,111.36 C424.96,70.34 423.8,68.09 423.8,68.09 C421.27,62.65 418.43,62.75 416.63,62.65 L416.63,61.05 L439.94,61.05 L439.94,62.65 Z M509.63,99.23 C509.63,105 510.27,107.87 514,108.83 L514,110.41 L494.25,110.41 L494.25,108.83 C498.25,107.67 498.47,104.6 498.47,99.23 L498.47,72.66 C498.47,68.97 497.52,67.7 493.2,65.91 L493.2,64.44 L509.63,60.75 L509.63,99.23 Z M540.33,99.13 C540.33,104.92 540.84,108 544.69,108.93 L544.69,110.41 L524.97,110.41 L524.97,108.93 C528.99,107.77 529.2,104.5 529.2,99.13 L529.2,77.51 C529.2,71.39 525.61,67.18 519.49,67.18 C517.676997,67.2382867 515.928066,67.864404 514.49,68.97 L513.23,67.07 C516.71,63.49 521.77,60.75 526.41,60.75 C534.84,60.75 540.33,64.44 540.33,77.19 L540.33,99.13 Z M547.81,86.05 C547.81,72.87 555.61,62 570.05,61 L570.05,62.54 C563.83,63.6 560.99,68.97 560.99,86.05 C560.99,103.13 563.83,108.62 570.05,109.68 L570.05,111.25 C555.61,110.19 547.81,99.23 547.81,86.05 Z M574.89,61 C589.45,62 597.25,72.89 597.25,86.09 C597.25,99.29 589.45,110.23 574.89,111.29 L574.89,109.72 C581.13,108.66 583.96,103.07 583.96,86.09 C583.96,69.11 581.13,63.64 574.89,62.58 L574.89,61 Z M346.13,99.13 C346.13,104.92 346.65,107.77 350.4,108.8 L350.4,110.37 L330.78,110.37 L330.78,108.8 C334.79,107.53 335,104.47 335,99.1 L335,70.1 C335,66.51 334,65 329.66,63.25 L329.66,61.66 L346.13,58.08 L346.13,99.13 Z M339.13,52.35 L339.13,52.34 C336.484711,52.2617877 334.14729,50.5970603 333.208552,48.1227032 C332.269814,45.6483461 332.914812,42.8521289 334.842542,41.0389743 C336.770272,39.2258198 339.600721,38.7531546 342.012991,39.8415596 C344.425261,40.9299646 345.943822,43.3648826 345.86,46.01 C345.801911,47.9745052 344.866079,49.8094701 343.31,51.01 C342.114989,51.9293556 340.636795,52.4032265 339.13,52.35 Z M364.86,39.29 C368.04051,39.3857298 370.690555,41.7566696 371.1382,44.906975 C371.585846,48.0572804 369.701164,51.072586 366.673216,52.0505119 C363.645267,53.0284378 360.352904,51.6851444 358.873303,48.868126 C357.393703,46.0511075 358.156314,42.5779941 360.68,40.64 C361.872469,39.7148013 363.351632,39.2370812 364.86,39.29 Z M485.54,99.13 C485.54,104.92 486.06,107.77 489.79,108.81 L489.79,110.39 L470.17,110.39 L470.17,108.81 C474.17,107.54 474.39,104.48 474.39,99.11 L474.39,70.11 C474.39,66.59 473.37,64.51 469.22,62.74 C466.38,63.12 462.83,65.32 457.88,77.74 L452,93.14 L451,90.91 L456.31,77.05 C457.41,73.88 460.5,62.68 450.6,62.68 L450.6,61.08 L469.08,61.08 L485.54,58.08 L485.54,99.13 Z M478.54,52.36 L478.54,52.38 C474.928254,52.2657329 472.089041,49.2521422 472.19,45.64 C472.249494,43.6758548 473.185037,41.8414561 474.74,40.64 C475.93554,39.7133286 477.418354,39.2355722 478.93,39.29 C480.665219,39.3478574 482.307503,40.0881431 483.5,41.35 C484.685658,42.6098632 485.319225,44.2909732 485.26,46.02 C485.212974,47.7530012 484.4777,49.3959199 483.216697,50.585616 C481.955694,51.775312 480.272804,52.413817 478.54,52.36 Z M281.35,105.66 L281.36,105.66 C282.744939,105.6693 283.982649,104.797277 284.44,103.49 L286.03,104.12 C285.18,107.39 281.07,111.39 274.96,111.39 C274.96,111.39 265.15,111.6 265.15,102 L265.15,85.02 C253.86,87.66 249.44,92.4 249.44,98.3 C249.44,99.89 250.39,105.89 257.03,105.89 C258.423527,105.94128 259.805174,105.616593 261.03,104.95 C261.14,105.16 262.1,106.63 262.19,106.74 C258.853061,109.728681 254.549145,111.411895 250.07,111.48 C250.07,111.48 238.07,111.59 238.07,100.74 C238.07,89.66 246.93,87.97 265.17,83.34 L265.17,77 C265.17,68 261.23,62.55 255.43,63 L255.24,63 L255,63 C253.787572,63.1567975 252.606841,63.5008962 251.5,64.02 C247.82,65.92 247.29,67.81 247.92,67.92 C249.359997,68.0795159 250.662957,68.8474619 251.5,70.03 C252.344286,71.2001703 252.686119,72.6591338 252.449508,74.0825567 C252.212897,75.5059797 251.41745,76.7758968 250.24,77.61 C248.163122,79.0598679 245.363912,78.9006838 243.464793,77.2247109 C241.565673,75.5487379 241.059644,72.7910489 242.24,70.55 C243.19,68.86 244.77,65.91 250.46,62.86 C251.974766,62.0877671 253.59058,61.5323313 255.26,61.21 C256.935085,60.8499272 258.647321,60.6921329 260.36,60.74 C261.48421,60.7314013 262.607448,60.8082895 263.72,60.97 C273.71,62.37 276.49,70.53 276.49,81.83 L276.49,84.66 L276.49,98.66 C276.49,98.66 276.35,105.66 281.35,105.66 Z M128.35,103.46 L128.37,103.49 L129.96,104.12 C129.11,107.39 125,111.39 118.89,111.39 L118.83,111.39 C118.46,111.4 109.04,111.41 109.04,102 L109.04,85.03 C97.79,87.67 93.37,92.41 93.37,98.3 C93.37,99.89 94.32,105.89 100.94,105.89 C102.332953,105.935447 103.713089,105.611115 104.94,104.95 C105.05,105.16 106.01,106.63 106.1,106.74 C102.763061,109.728681 98.4591448,111.411895 93.98,111.48 C93.98,111.48 81.98,111.59 81.98,100.74 C81.98,89.66 90.83,87.97 109.07,83.34 L109.07,77 C109.07,68.64 105.64,63.3 100.47,63 C100.103603,62.9800971 99.7363966,62.9800971 99.37,63 L99.18,63 L98.94,63 C97.7516663,63.1837931 96.5983709,63.5479916 95.52,64.08 C91.84,65.98 91.31,67.87 91.94,67.98 C93.3799969,68.1395159 94.6829575,68.9074619 95.52,70.09 C96.3642862,71.2601703 96.7061192,72.7191338 96.469508,74.1425567 C96.2328968,75.5659797 95.4374504,76.8358968 94.26,77.67 C92.1831217,79.1198679 89.3839122,78.9606838 87.4847927,77.2847109 C85.5856731,75.6087379 85.0796442,72.8510489 86.26,70.61 C87.21,68.92 88.79,65.97 94.48,62.92 C95.5712207,62.3549992 96.7215349,61.9123127 97.91,61.6 C99.8916402,61.044138 101.941958,60.7714356 104,60.79 L104.37,60.79 L105.44,60.79 L105.57,60.79 C105.92,60.85 106.25,60.85 106.57,60.85 L106.63,60.85 C107.01,60.88 107.38,60.92 107.74,60.98 C117.73,62.38 120.51,70.54 120.51,81.84 L120.51,84.67 L120.51,98.67 C120.51,98.67 120.35,105.67 125.35,105.67 C126.718978,105.648507 127.923643,104.76107 128.35,103.46 Z M310.88,103.8 L310.93,103.8 C317.49,104.75 324.89,100.75 327.06,96.95 L328.33,97.69 C326.95,102.96 321.14,111.39 308.03,111.39 C295.24,111.39 284.87,99.9 284.87,85.98 C284.87,73.54 294.28,60.79 311.41,60.79 C320.4,60.79 324.21,64.69 325.58,66.27 C327.435598,68.3401399 327.626097,71.4138502 326.040319,73.6972757 C324.454541,75.9807012 321.507862,76.8757249 318.92,75.86 C317.473902,75.294281 316.313837,74.1741338 315.697849,72.7487227 C315.081861,71.3233115 315.061034,69.7108457 315.64,68.27 C316.12403,66.776453 317.24993,65.5772037 318.71,65 C319.66,64.69 317.02,62.37 311.41,62.37 C307.39,62.37 296.5,65.64 296.5,84.51 C296.5,97.27 303.48,102.64 310.88,103.8 Z M420.7,105.66 L420.75,105.66 C422.078642,105.604225 423.239264,104.744652 423.68,103.49 L425.26,104.12 C424.41,107.41 420.3,111.41 414.18,111.41 C414.18,111.41 404.36,111.61 404.36,102 L404.36,84.76 C393.06,87.4 388.63,92.15 388.63,98.06 C388.63,99.66 389.58,105.66 396.23,105.66 C397.624298,105.706745 399.005616,105.378682 400.23,104.71 C400.33,104.92 401.29,106.4 401.39,106.5 C398.051278,109.499934 393.738069,111.187556 389.25,111.25 C389.25,111.25 377.25,111.36 377.25,100.49 C377.25,89.41 386.12,87.71 404.39,83.08 L404.39,79.14 L404.39,76.79 C404.39,72.39 403.45,68.83 401.82,66.39 L401.6,66.07 L401.48,65.91 C400.295984,64.2502711 398.49403,63.1366639 396.48,62.82 C396.413421,62.8151627 396.346579,62.8151627 396.28,62.82 L396.07,62.82 C395.916838,62.8097366 395.763162,62.8097366 395.61,62.82 C393.930443,62.8251507 392.275732,63.2259814 390.78,63.99 C387.08,65.9 386.56,67.79 387.19,67.9 C388.630742,68.065397 389.934575,68.8317166 390.78,70.01 C391.627497,71.1852908 391.970102,72.6505588 391.731586,74.0797784 C391.493069,75.5089981 390.693218,76.7836064 389.51,77.62 C387.425985,79.0408184 384.643303,78.8651656 382.754492,77.1935683 C380.865682,75.5219709 380.353059,72.7812787 381.51,70.54 C382.46,68.83 384.05,65.89 389.76,62.83 C391.163571,62.1091981 392.65661,61.5778915 394.2,61.25 C396.007695,60.8233472 397.86345,60.6350822 399.72,60.69 C402.138047,60.6367712 404.544148,61.0440098 406.81,61.89 C411.23,63.65 413.68,67.28 414.89,72.18 L414.89,72.31 L414.95,72.59 C415.590719,75.6169703 415.889259,78.7063543 415.84,81.8 L415.84,98.66 C415.84,98.66 415.7,105.66 420.7,105.66 Z M75,46.39 C75.32,46.19 75.59,46.24 76,47 C78.2698279,53.7272488 79.3822687,60.7907407 79.29,67.89 C79.29,105.83 55.64,113.84 30.8,114.51 L30.8,112.91 C44.95,112.39 63.12,107.85 63.12,67.91 C63.12,65.03 63.02,62.34 62.83,59.81 C62.5270173,58.6076319 62.9576007,57.3393681 63.93,56.57 C64.84,55.6 73,47.52 75,46.39 Z M9.62,36.39 L9.59,36.38 C9.64442306,33.5352628 9.1240297,30.7088126 8.06,28.07 C13.16,28.2 18.36,28.49 23.46,29.07 L23.46,114.67 L0.62,114.67 L0.62,112.94 C6.14,112.78 9.62,107.78 9.62,98.78 L9.62,36.39 Z M65.12,30 C87.45,22.59 102.2,26.87 117.24,32.42 C117.052296,33.0489942 116.828594,33.6666795 116.57,34.27 C84.28,27.45 68.87,41.88 62.38,48.88 C61.06,50.27 60.5,48.83 60.38,48.34 C56.87,33.84 46.41,21.48 0.64,21.84 L0.64,20 C23.48,17.88 50.87,17.05 65.12,30 Z M106.47,2.48 C89.96,3.15 82.28,12.18 79.67,18.02 C79.19,19.09 78.67,19.55 77.77,18.27 C74.2,13.27 64.95,6.6 47.46,8.65 L47.11,7.06 C55.11,5.2 68.35,3.95 77.05,9.28 C85.14,-0.32 100.3,0.64 106.23,0.76 L106.47,2.48 Z M136.57,156.78 L133.33,156.78 L133.33,161.49 L131.83,161.49 L131.83,148.15 L136.83,148.15 C139.83,148.15 141.83,149.75 141.83,152.4 C141.81,155.3 139.41,156.78 136.57,156.78 Z M136.7,149.54 L133.33,149.54 L133.33,155.41 L136.63,155.41 C138.83,155.41 140.28,154.23 140.28,152.41 C140.28,150.53 138.85,149.54 136.7,149.54 Z M154,161.72 C151.203133,161.756471 148.660953,160.10083 147.563407,157.528052 C146.465861,154.955273 147.03012,151.974428 148.992063,149.980794 C150.954006,147.987161 153.925428,147.375215 156.515461,148.431398 C159.105495,149.487581 160.801655,152.002908 160.81,154.8 C160.873434,156.634826 160.180036,158.415092 158.892285,159.723643 C157.604534,161.032195 155.835607,161.754027 154,161.72 Z M154,149.31 C152.569321,149.313831 151.202419,149.902477 150.21659,150.939298 C149.23076,151.976119 148.711737,153.370945 148.78,154.8 C148.720389,156.235659 149.24515,157.634189 150.234465,158.676268 C151.22378,159.718346 152.593182,160.315001 154.03,160.33 C155.460679,160.326169 156.827581,159.737523 157.81341,158.700702 C158.79924,157.663881 159.318263,156.269055 159.25,154.84 C159.309611,153.404341 158.78485,152.005811 157.795535,150.963732 C156.80622,149.921654 155.436818,149.324999 154,149.31 Z M173.73,157.83 L173.65,157.83 L168.8,150.71 L168.8,161.49 L167.33,161.49 L167.33,148.15 L168.85,148.15 L173.71,155.43 L178.57,148.15 L180.09,148.15 L180.09,161.49 L178.58,161.49 L178.58,150.69 L173.73,157.83 Z M199.43,161.49 L197.81,161.49 L196.25,158 L189,158 L187.42,161.53 L185.88,161.53 L191.95,148.1 L193.36,148.1 L199.43,161.49 Z M192.63,149.81 L189.58,156.61 L195.66,156.61 L192.63,149.81 Z M205.2,148.15 L206.71,148.15 L206.71,160.15 L214.21,160.15 L214.21,161.54 L205.21,161.54 L205.2,148.15 Z M225.5,161.72 C222.703982,161.752408 220.16484,160.094148 219.070455,157.521 C217.976071,154.947853 218.54284,151.968618 220.505614,149.977065 C222.468388,147.985511 225.439057,147.375438 228.027861,148.432254 C230.616665,149.48907 232.311707,152.003807 232.32,154.8 C232.363423,156.630879 231.662136,158.401029 230.376604,159.70541 C229.091072,161.009792 227.331317,161.73677 225.5,161.72 Z M225.5,149.31 C224.07106,149.316553 222.706778,149.90639 221.723132,150.9429 C220.739487,151.979409 220.22181,153.372673 220.29,154.8 C220.230389,156.235659 220.75515,157.634189 221.744465,158.676268 C222.73378,159.718346 224.103182,160.315001 225.54,160.33 C226.970679,160.326169 228.337581,159.737523 229.32341,158.700702 C230.30924,157.663881 230.828263,156.269055 230.76,154.84 C230.819656,153.402623 230.293545,152.002553 229.302056,150.96017 C228.310567,149.917787 226.938562,149.322309 225.5,149.31 Z M236.13,161.49 L235.45,161.49 L235.45,159.49 L237.2,159.49 L237.2,161.2 C237.275577,161.827671 237.093964,162.459214 236.696507,162.950855 C236.299051,163.442495 235.719574,163.752394 235.09,163.81 L234.86,163.15 C235.81,162.8 236.21,162.31 236.13,161.49 Z M259.14,161.72 C256.34745,161.736177 253.820495,160.067507 252.738739,157.49294 C251.656983,154.918372 252.233748,151.945612 254.199795,149.962369 C256.165842,147.979126 259.133467,147.376496 261.717357,148.435792 C264.301247,149.495087 265.991859,152.007415 266,154.8 C266.064048,156.643701 265.363918,158.432019 264.06513,159.742166 C262.766342,161.052314 260.984189,161.767991 259.14,161.72 Z M259.14,149.31 C257.709321,149.313831 256.342419,149.902477 255.35659,150.939298 C254.37076,151.976119 253.851737,153.370945 253.92,154.8 C253.860344,156.237377 254.386455,157.637448 255.377944,158.67983 C256.369433,159.722213 257.741438,160.317691 259.18,160.33 C260.60894,160.323447 261.973222,159.73361 262.956868,158.6971 C263.940513,157.660591 264.45819,156.267327 264.39,154.84 C264.449611,153.404341 263.92485,152.005811 262.935535,150.963732 C261.94622,149.921654 260.576818,149.324999 259.14,149.31 Z M277.06,161.49 L272.44,161.49 L272.44,148.15 L277.06,148.15 C281.25,148.15 284.15,151.03 284.15,154.8 C284.15,158.57 281.25,161.49 277.06,161.49 Z M277.06,149.54 L273.94,149.54 L273.94,160.1 L277.06,160.1 C279.023915,160.220928 280.892672,159.241848 281.911211,157.55835 C282.92975,155.874852 282.92975,153.765148 281.911211,152.08165 C280.892672,150.398152 279.023915,149.419072 277.06,149.54 Z M301.65,148.06 L302.75,148.06 L302.75,161.49 L301.27,161.49 L301.27,149.62 L298.76,150.4 L298.39,149.18 L301.65,148.06 Z M313.62,161.72 C312.094724,161.69843 310.631124,161.114415 309.51,160.08 L310.39,158.92 C311.25729,159.795569 312.428125,160.304005 313.66,160.34 C316.06,160.34 317.66,157.91 317.66,154.5 C316.883219,155.841777 315.440168,156.657081 313.89,156.63 C311.15,156.63 309.25,154.9 309.25,152.48 C309.242583,151.227855 309.75265,150.028242 310.659572,149.164868 C311.566494,148.301493 312.789734,147.851026 314.04,147.92 C315.350933,147.872257 316.622602,148.372229 317.55,149.3 C318.6,150.3 319.21,151.79 319.21,154.48 C319.17,158.73 316.92,161.72 313.62,161.72 Z M313.95,149.26 C313.100382,149.220772 312.272768,149.536925 311.665693,150.132618 C311.058619,150.72831 310.726859,151.549792 310.75,152.4 C310.763291,153.234246 311.123405,154.025272 311.743856,154.583109 C312.364308,155.140946 313.189044,155.415198 314.02,155.34 C315.165413,155.418775 316.258021,154.847646 316.84714,153.862195 C317.436259,152.876744 317.422066,151.64395 316.810415,150.672323 C316.198763,149.700697 315.093295,149.154874 313.95,149.26 Z M333.33,148.06 L333.33,157.06 L335.4,157.06 L335.4,158.32 L333.33,158.32 L333.33,161.48 L331.88,161.48 L331.88,158.32 L324.88,158.32 L324.49,157.23 L332.04,148.05 L333.33,148.06 Z M331.88,150.19 L326.28,157.07 L331.88,157.07 L331.88,150.19 Z M349.53,150.61 C348.687519,149.790655 347.56499,149.322339 346.39,149.3 C343.97,149.3 342.47,151.73 342.48,155.18 C343.304551,153.894136 344.743139,153.134987 346.27,153.18 C348.77,153.18 350.88,154.78 350.88,157.3 C350.868519,158.535706 350.350493,159.712572 349.446958,160.555619 C348.543424,161.398666 347.33354,161.834034 346.1,161.76 C344.797854,161.796137 343.536113,161.30586 342.6,160.4 C341.53,159.34 340.92,157.97 340.92,155.22 C340.92,151.15 342.98,147.96 346.46,147.96 C347.937195,147.954883 349.363297,148.500367 350.46,149.49 L349.53,150.61 Z M346.08,154.44 C344.918142,154.274444 343.766434,154.801582 343.132356,155.789138 C342.498278,156.776694 342.498278,158.043306 343.132356,159.030862 C343.766434,160.018418 344.918142,160.545556 346.08,160.38 C346.923571,160.442248 347.754221,160.145484 348.367377,159.562796 C348.980533,158.980107 349.319211,158.165646 349.3,157.32 C349.269643,156.505755 348.909391,155.738883 348.302061,155.195681 C347.694732,154.65248 346.892575,154.379682 346.08,154.44 Z M354.22,161.49 L354.22,159.49 L356,159.49 L356,161.49 L354.22,161.49 Z M377.91,161.72 C376.074537,161.786888 374.295318,161.080068 373.006131,159.771865 C371.716943,158.463663 371.036247,156.674287 371.13,154.84 C371.067664,153.02793 371.743506,151.268163 373.00277,149.963657 C374.262034,148.65915 375.996859,147.921638 377.81,147.92 C379.645704,147.834003 381.441601,148.473342 382.81,149.7 L381.81,150.84 C380.713626,149.81095 379.252839,149.260456 377.75,149.31 C376.344526,149.34842 375.014244,149.95326 374.061365,150.987114 C373.108487,152.020969 372.613913,153.396062 372.69,154.8 C372.69,158 374.69,160.36 377.96,160.36 C379.355458,160.356729 380.710078,159.888769 381.81,159.03 L381.81,155.72 L377.75,155.72 L377.75,154.36 L383.26,154.36 L383.26,159.68 C381.783525,160.98705 379.881877,161.712165 377.91,161.72 Z M396,161.72 C393.203982,161.752408 390.66484,160.094148 389.570455,157.521 C388.47607,154.947853 389.04284,151.968618 391.005614,149.977065 C392.968388,147.985511 395.939057,147.375438 398.527861,148.432254 C401.116665,149.48907 402.811707,152.003807 402.82,154.8 C402.860611,156.630068 402.15841,158.398585 400.873492,159.702343 C399.588574,161.006102 397.830466,161.73397 396,161.72 Z M396,149.31 C394.569321,149.313831 393.202419,149.902477 392.21659,150.939298 C391.23076,151.976119 390.711737,153.370945 390.78,154.8 C390.720344,156.237377 391.246455,157.637448 392.237944,158.67983 C393.229433,159.722213 394.601438,160.317691 396.04,160.33 C397.46894,160.323447 398.833222,159.73361 399.816868,158.6971 C400.800513,157.660591 401.31819,156.267327 401.25,154.84 C401.309611,153.404341 400.78485,152.005811 399.795535,150.963732 C398.80622,149.921654 397.436818,149.324999 396,149.31 Z M413.92,161.49 L409.3,161.49 L409.3,148.15 L413.92,148.15 C418.11,148.15 421.01,151.03 421.01,154.8 C421.01,158.57 418.11,161.49 413.92,161.49 Z M413.92,149.54 L410.8,149.54 L410.8,160.1 L413.92,160.1 C415.883915,160.220928 417.752672,159.241848 418.771211,157.55835 C419.78975,155.874852 419.78975,153.765148 418.771211,152.08165 C417.752672,150.398152 415.883915,149.419072 413.92,149.54 Z M429,148.15 L429,161.49 L427.5,161.49 L427.5,148.15 L429,148.15 Z M446,148.15 L447.46,148.15 L447.46,161.49 L446.26,161.49 L437.66,150.55 L437.66,161.49 L436.19,161.49 L436.19,148.15 L437.6,148.15 L446,158.84 L446,148.15 Z M464.24,149.52 L456.11,149.52 L456.11,154.08 L463.38,154.08 L463.38,155.45 L456.11,155.45 L456.11,160.12 L464.33,160.12 L464.33,161.49 L454.6,161.49 L454.6,148.15 L464.24,148.15 L464.24,149.52 Z" id="Combined-Shape"></path>
        </g>
    </g>
</svg>