<?xml version="1.0" encoding="UTF-8"?>
<svg width="151px" height="32px" viewBox="0 0 151 32" version="1.1" xmlns="http://www.w3.org/2000/svg" xmlns:xlink="http://www.w3.org/1999/xlink">
    <!-- Generator: Sketch 53.2 (72643) - https://sketchapp.com -->
    <title>Combined Shape</title>
    <desc>Created with Sketch.</desc>
    <g id="Page-1" stroke="none" stroke-width="1" fill="none" fill-rule="evenodd">
        <g id="Asset-1" fill="#FFFFFF" fill-rule="nonzero">
            <path d="M120.31,27.3 C119.873999,27.292481 119.48279,27.0303715 119.31,26.63 C119.138403,26.2216488 119.233542,25.74992 119.55,25.44 L123.75,21.24 L119.48,17 C119.162665,16.6947007 119.067133,16.2250014 119.24,15.82 C119.410731,15.4179204 119.803202,15.1549649 120.24,15.15 C120.529605,15.1469951 120.807828,15.2626201 121.01,15.47 L125.29,19.74 L129.48,15.53 C129.682834,15.3235976 129.960621,15.2081536 130.25,15.21 C130.682061,15.2114713 131.073249,15.4657437 131.25,15.86 C131.427183,16.2560895 131.352558,16.7195467 131.06,17.04 L126.83,21.27 L131.08,25.16 C131.356881,25.4350945 131.465968,25.8370065 131.36617,26.2143396 C131.266371,26.5916726 130.972849,26.887101 130.59617,26.9893396 C130.21949,27.0915781 129.816881,26.9850945 129.54,26.71 L125.3,22.8 L121.08,27 C120.873863,27.1990781 120.596484,27.3071478 120.31,27.3 Z M9.19,27.29 L1.29,27.29 C0.947053181,27.2926899 0.617371429,27.1576435 0.374863949,26.9151361 C0.132356468,26.6726286 -0.0026899034,26.3429468 -1.97107955e-16,26 L-1.97107955e-16,16.44 C-0.00539698309,16.0953299 0.128453104,15.7630521 0.371258621,15.5183643 C0.614064137,15.2736766 0.945298503,15.1372647 1.29,15.14 L9.18,15.14 C10.7984285,15.2292874 12.0907126,16.5215715 12.18,18.14 L12.18,24.3 C12.1089805,25.9210033 10.8110033,27.2189805 9.19,27.29 Z M2.18,17.33 L2.18,25.14 L9.18,25.14 C9.61144088,25.1080731 9.95743155,24.7705212 10,24.34 L10,18.15 C9.95568443,17.7094716 9.60996608,17.359588 9.17,17.31 L2.18,17.33 Z M29.14,27.35 C28.8440808,27.3635984 28.5553725,27.2561691 28.3403224,27.0524375 C28.1252723,26.8487058 28.0024054,26.5662218 28,26.27 L28,22.65 L20.12,22.65 L20.12,26.27 C20.1174265,26.5626212 19.9972998,26.8419177 19.7866499,27.0450444 C19.5760001,27.248171 19.2925214,27.3580654 19,27.35 C18.4035325,27.35 17.92,26.8664675 17.92,26.27 L17.92,18.15 C17.9797729,16.4399774 19.4096802,15.0994392 21.12,15.15 L27,15.15 C28.7043803,15.1105065 30.1248868,16.4464061 30.19,18.15 L30.19,26.27 C30.1902257,26.8549455 29.7247199,27.3337516 29.14,27.35 Z M20.12,20.56 L28,20.56 L28,18.15 C27.9207716,17.6609422 27.4953928,17.303624 27,17.31 L21.15,17.31 C20.6546072,17.303624 20.2292284,17.6609422 20.15,18.15 L20.12,20.56 Z M40.23,27.35 C39.9401168,27.3553691 39.6602484,27.2439584 39.4533627,27.0408343 C39.246477,26.8377101 39.1299503,26.5599329 39.13,26.27 C39.13,25.35 39.13,23.99 39.13,22.53 L39.13,17.31 L36,17.31 C35.5874965,17.3496472 35.188192,17.1519519 34.9696347,16.799867 C34.7510774,16.4477821 34.7510774,16.0022179 34.9696347,15.650133 C35.188192,15.2980481 35.5874965,15.1003528 36,15.14 L44.48,15.14 C44.8925035,15.1003528 45.291808,15.2980481 45.5103653,15.650133 C45.7289226,16.0022179 45.7289226,16.4477821 45.5103653,16.799867 C45.291808,17.1519519 44.8925035,17.3496472 44.48,17.31 L41.33,17.31 L41.33,26.31 C41.3082926,26.8986317 40.8189232,27.3613081 40.23,27.35 Z M61.78,27.35 C61.4909104,27.3526644 61.212604,27.2403729 61.0063114,27.037831 C60.8000187,26.8352891 60.68264,26.5590898 60.68,26.27 L60.68,22.65 L52.76,22.65 L52.76,26.27 C52.75736,26.5590898 52.6399813,26.8352891 52.4336886,27.037831 C52.227396,27.2403729 51.9490896,27.3526644 51.66,27.35 C51.3727478,27.3526974 51.0964755,27.2397784 50.8933486,27.0366514 C50.6902216,26.8335245 50.5773026,26.5572522 50.58,26.27 L50.58,18.15 C50.6397862,16.4439866 52.0635314,15.1050412 53.77,15.15 L59.67,15.15 C61.3743803,15.1105065 62.7948868,16.4464061 62.86,18.15 L62.86,26.27 C62.86,26.8664675 62.3764675,27.35 61.78,27.35 Z M52.76,20.56 L60.68,20.56 L60.68,18.15 C60.6007716,17.6609422 60.1753928,17.303624 59.68,17.31 L53.79,17.31 C53.2946072,17.303624 52.8692284,17.6609422 52.79,18.15 L52.76,20.56 Z M78,27.29 L69.8,27.29 C69.2409802,27.2362706 68.8142833,26.7665959 68.8142833,26.205 C68.8142833,25.6434041 69.2409802,25.1737294 69.8,25.12 L78,25.12 C78.57,25.12 78.78,24.31 78.79,23.76 C78.8,23.21 78.57,22.32 77.95,22.32 L71.57,22.32 C69.5,22.32 68.57,20.45 68.57,18.72 C68.57,16.99 69.57,15.14 71.57,15.14 L78.69,15.14 C79.1025035,15.1003528 79.501808,15.2980481 79.7203653,15.650133 C79.9389226,16.0022179 79.9389226,16.4477821 79.7203653,16.799867 C79.501808,17.1519519 79.1025035,17.3496472 78.69,17.31 L71.52,17.31 C70.95,17.31 70.74,18.14 70.74,18.71 C70.74,19.28 70.96,20.15 71.55,20.15 L78,20.15 C80,20.15 81,21.94 81,23.71 C81,25.48 80,27.29 78,27.29 Z M91,27.35 C90.7101168,27.3553691 90.4302484,27.2439584 90.2233627,27.0408343 C90.016477,26.8377101 89.8999503,26.5599329 89.9,26.27 C89.9,25.1 89.9,23.22 89.9,21.34 L89.9,17.34 L86,17.34 C85.5874965,17.3796472 85.188192,17.1819519 84.9696347,16.829867 C84.7510774,16.4777821 84.7510774,16.0322179 84.9696347,15.680133 C85.188192,15.3280481 85.5874965,15.1303528 86,15.17 L95.23,15.17 C95.6425035,15.1303528 96.041808,15.3280481 96.2603653,15.680133 C96.4789226,16.0322179 96.4789226,16.4777821 96.2603653,16.829867 C96.041808,17.1819519 95.6425035,17.3796472 95.23,17.34 L92,17.34 L92,26.34 C91.9663746,26.8794722 91.5391109,27.3110085 91,27.35 Z M112.5,27.35 C112.21091,27.3526644 111.932604,27.2403729 111.726311,27.037831 C111.520019,26.8352891 111.40264,26.5590898 111.4,26.27 L111.4,22.65 L103.48,22.65 L103.48,26.27 C103.469095,26.8696885 102.979788,27.3500991 102.38,27.35 C102.092748,27.3526974 101.816476,27.2397784 101.613349,27.0366514 C101.410222,26.8335245 101.297303,26.5572522 101.3,26.27 L101.3,18.15 C101.359786,16.4439866 102.783531,15.1050412 104.49,15.15 L110.38,15.15 C112.088232,15.1049423 113.51487,16.4424154 113.58,18.15 L113.58,26.27 C113.574573,26.8642051 113.094205,27.3445731 112.5,27.35 Z M103.48,20.56 L111.4,20.56 L111.4,18.15 C111.320772,17.6609422 110.895393,17.303624 110.4,17.31 L104.54,17.31 C104.044607,17.303624 103.619228,17.6609422 103.54,18.15 L103.48,20.56 Z M138.82,18.25 C138.795796,17.4747448 139.082091,16.7219066 139.61532,16.1586365 C140.148549,15.5953663 140.884582,15.2682801 141.66,15.25 C143.271798,15.2064465 144.613832,16.4775428 144.657789,18.0893297 C144.701746,19.7011166 143.430985,21.0434692 141.81921,21.0878292 C140.207434,21.1321893 138.864763,19.8617647 138.82,18.25 Z M126.92,4.34 C126.895796,3.56474476 127.182091,2.81190663 127.71532,2.24863647 C128.248549,1.68536631 128.984582,1.35828009 129.76,1.34 C131.363809,1.30219096 132.695697,2.56949191 132.73759,4.17319991 C132.779484,5.7769079 131.515579,7.11201855 129.911983,7.15799634 C128.308387,7.20397414 126.970062,5.9434738 126.92,4.34 Z M119.88,2.3 C119.924786,1.10697157 120.88979,0.154561756 122.083304,0.125451664 C123.276818,0.0963415707 124.287106,1.00057353 124.39,2.19 C124.345214,3.38302843 123.38021,4.33543824 122.186696,4.36454834 C120.993182,4.39365843 119.982894,3.48942647 119.88,2.3 Z M138.78,25.62 C138.757577,24.4898266 139.650077,23.5527017 140.78,23.52 C141.620273,23.4916642 142.394217,23.9743797 142.738382,24.7414602 C143.082547,25.5085406 142.928559,26.4075906 142.348731,27.0164102 C141.768903,27.6252298 140.878429,27.8228653 140.095482,27.5165057 C139.312535,27.210146 138.792662,26.4606555 138.78,25.62 Z M134.22,28.51 C134.209282,28.074136 134.431909,27.665663 134.804019,27.438449 C135.17613,27.211235 135.641191,27.199799 136.024019,27.408449 C136.406848,27.617099 136.649282,28.014136 136.66,28.45 C136.676569,29.1237874 136.143787,29.6834315 135.47,29.7 C134.796213,29.7165685 134.236569,29.1837874 134.22,28.51 Z M116,5.67 C115.983431,4.92993844 116.569938,4.31656854 117.31,4.3 C118.050062,4.28343146 118.663431,4.86993844 118.68,5.61 C118.696568,6.35006152 118.110062,6.96343135 117.37,6.97999989 C116.629938,6.99656843 116.016569,6.41006152 116,5.67 Z M115.79,10.92 C115.776193,10.340101 116.235101,9.85880712 116.815,9.845 C117.394899,9.83119288 117.876193,10.290101 117.89,10.87 C117.903807,11.449899 117.444899,11.9311928 116.865,11.9449999 C116.285101,11.958807 115.803807,11.4998989 115.79,10.92 Z M133.5,10.32 C133.478547,9.35719763 133.840566,8.42533018 134.50637,7.72951841 C135.172174,7.03370663 136.087187,6.63098508 137.05,6.61 C138.523457,6.57383858 139.873292,7.42980824 140.468882,8.77801238 C141.064472,10.1262165 140.788249,11.7005225 139.76926,12.7654375 C138.750271,13.8303525 137.189663,14.1756646 135.816529,13.6400489 C134.443394,13.1044331 133.528788,11.7936191 133.5,10.32 Z M145,27.64 C145.139558,27.3126564 145.343615,27.0167734 145.6,26.77 C145.852582,26.5282433 146.147492,26.3350264 146.47,26.2 C146.805653,26.0595504 147.166152,25.9881308 147.53,25.99 C147.893953,25.9870205 148.254673,26.0584838 148.59,26.2 C148.912508,26.3350264 149.207418,26.5282433 149.46,26.77 C149.710015,27.0199966 149.910235,27.3152359 150.05,27.64 C150.200376,27.9763906 150.27546,28.3415683 150.27,28.71 C150.275503,29.0848894 150.20048,29.4565933 150.05,29.8 C149.907777,30.1234113 149.707849,30.4182203 149.46,30.67 C149.207418,30.9117567 148.912508,31.1049736 148.59,31.24 C148.253954,31.3780906 147.893261,31.4461459 147.53,31.44 C147.166811,31.4453123 146.806283,31.3772883 146.47,31.24 C146.147492,31.1049736 145.852582,30.9117567 145.6,30.67 C145.345827,30.421356 145.142092,30.1259412 145,29.8 C144.84952,29.4565933 144.774497,29.0848894 144.78,28.71 C144.77454,28.3415683 144.849624,27.9763906 145,27.64 Z M145.45,29.64 C145.557325,29.9147465 145.716941,30.1660576 145.92,30.38 C146.125631,30.588866 146.370253,30.7553454 146.64,30.87 C146.920744,30.991804 147.223988,31.0531342 147.53,31.05 C147.835928,31.0522493 148.13899,30.9909557 148.42,30.87 C148.685336,30.7526994 148.926202,30.5864679 149.13,30.38 C149.333059,30.1660576 149.492675,29.9147465 149.6,29.64 C149.717768,29.3443377 149.775555,29.0282052 149.77,28.71 C149.776444,28.3982095 149.718574,28.0884355 149.6,27.8 C149.495057,27.524053 149.335158,27.2722969 149.13,27.06 C148.923515,26.8567591 148.683272,26.6909578 148.42,26.57 C148.136887,26.4571015 147.834793,26.3993981 147.53,26.4 C147.225114,26.3983957 146.92283,26.4561354 146.64,26.57 C146.372342,26.6884479 146.128393,26.8544692 145.92,27.06 C145.714842,27.2722969 145.554943,27.524053 145.45,27.8 C145.331426,28.0884355 145.273556,28.3982095 145.28,28.71 C145.287101,29.0309244 145.35851,29.3471633 145.49,29.64 L145.45,29.64 Z M147.7,27.13 C147.996939,27.1048892 148.293491,27.1825576 148.54,27.35 C148.738406,27.5219175 148.842501,27.7784391 148.82,28.04 C148.838119,28.2753066 148.750087,28.5063906 148.58,28.67 C148.406771,28.8052182 148.198696,28.8884482 147.98,28.91 L148.89,30.31 L148.36,30.31 L147.49,28.94 L147,28.94 L147,30.31 L146.51,30.31 L146.51,27.13 L147.7,27.13 Z M147.48,28.54 L147.8,28.54 C147.889144,28.532884 147.976752,28.5126667 148.06,28.48 C148.137694,28.4465189 148.203785,28.390863 148.25,28.32 C148.3023,28.2327087 148.326721,28.1315376 148.32,28.03 C148.324975,27.9394044 148.304171,27.8492541 148.26,27.77 C148.216879,27.7101142 148.16254,27.6591714 148.1,27.62 C148.026901,27.5882158 147.94931,27.5679747 147.87,27.56 C147.786958,27.5501386 147.703042,27.5501386 147.62,27.56 L147,27.56 L147,28.56 L147.48,28.54 Z" id="Combined-Shape"></path>
        </g>
    </g>
</svg>