<?xml version="1.0" encoding="UTF-8"?>
<svg width="2500px" height="422px" viewBox="0 0 2500 422" version="1.1" xmlns="http://www.w3.org/2000/svg" xmlns:xlink="http://www.w3.org/1999/xlink">
    <!-- Generator: Sketch 53.1 (72631) - https://sketchapp.com -->
    <title>Combined-Shape</title>
    <desc>Created with Sketch.</desc>
    <g id="Page-1" stroke="none" stroke-width="1" fill="none" fill-rule="evenodd">
        <g id="digitalOcean" transform="translate(0.000000, -1.000000)" fill="#015DF2" fill-rule="nonzero">
            <path d="M209.98004,340.620758 L129.216567,340.620758 L129.216567,259.832335 L211.227545,259.832335 L211.227545,340.614874 C297.596016,339.79976 363.886407,254.43294 330.513972,164.123752 C318.161345,130.026347 291.307985,103.172986 257.210579,90.8203593 C217.534381,75.9012358 173.069789,81.329236 138.147764,105.354913 C103.22574,129.380589 82.2611815,168.966577 82.010978,211.354291 L0,211.354291 C0,74.6277445 132.959082,-33.505988 278.318363,11.254491 C341.720099,31.1694285 391.374404,80.8330511 411.277445,144.238523 C456.012974,289.672655 347.904192,422.656687 209.98004,422.656687 L209.98004,340.620758 Z M129.216567,404.018962 L67.0908184,404.018962 L67.0908184,340.620758 L129.216567,340.620758 L129.216567,404.018962 Z M67.0908184,340.620758 L14.9700599,340.620758 L14.9700599,288.42515 L67.0908184,288.42515 L67.0908184,340.620758 Z M749.251497,123.105788 C762.924152,131.813373 772.854291,144.238523 780.339321,162.776447 C787.799401,177.696607 791.516966,197.581836 791.516966,218.714571 C791.516966,239.847305 787.824351,259.732535 780.339321,275.9002 C773.566609,291.257766 762.849344,304.548896 749.276447,314.423154 C724.426148,331.82169 694.602462,340.520958 659.805389,340.520958 L584.006986,340.520958 L584.006986,98.1556886 L659.780439,98.1556886 C694.585828,98.1556886 725.648703,106.938124 749.251497,123.105788 Z M628.742515,139.273453 L628.742515,300.875249 L653.567864,300.875249 C680.913174,300.875249 702.045908,294.687625 718.188623,284.707585 C735.653693,272.282435 745.633733,249.802395 745.633733,218.839321 C745.633733,187.876247 736.826347,166.618762 718.188623,155.441118 C700.798403,144.263473 678.443114,139.273453 652.345309,139.273453 L628.742515,139.273453 Z M844.93513,94.5379241 L844.835329,94.5379241 C852.320359,94.5379241 858.582834,97.0329341 862.300399,102.022954 C867.260173,106.936613 869.96894,113.681443 869.785429,120.660679 C869.785429,135.074098 858.101044,146.758483 843.687625,146.758483 C829.274205,146.758483 817.58982,135.074098 817.58982,120.660679 C817.308598,113.405723 820.552492,106.462486 826.297405,102.022954 C831.209381,97.0606439 837.955356,94.3514169 844.93513,94.5379241 Z M822.38024,169.113772 L865.868263,169.113772 L865.868263,339.398204 L822.55489,339.398204 L822.55489,169.113772 L822.38024,169.113772 Z M1021.35729,184.083832 L1021.38224,184.083832 L1018.88723,184.083832 L1018.88723,169.113772 L1061.07784,169.113772 L1061.07784,323.52994 C1061.07784,349.627744 1052.37026,369.537924 1037.47505,385.680639 C1022.57984,401.823353 1002.69461,409.308383 976.596806,409.308383 C957.959082,409.308383 941.816367,405.466068 929.391218,396.833333 C916.966068,388.200599 907.035928,379.443114 900.823353,370.735529 L899.575848,369.488024 L929.515968,340.89521 C944.411178,362.002994 956.761477,369.488024 976.721557,369.488024 C990.319361,369.488024 1000.32435,365.795409 1007.78443,358.310379 C1015.24451,350.825349 1018.96208,339.547904 1018.96208,325.875249 L1018.96208,322.157685 C1006.78106,331.260518 991.926219,336.068819 976.721557,335.830339 C953.093812,335.830339 933.283433,328.370259 918.313373,312.202595 C903.343313,296.03493 895.858283,274.927146 895.858283,251.299401 C895.469795,228.694867 903.941288,206.835551 919.461078,190.396208 C934.425812,174.051839 955.714274,164.958092 977.869261,165.446108 C993.912176,165.446108 1008.88224,172.906188 1021.35729,184.083832 Z M1010.20459,284.757485 L1010.47904,284.682635 C1017.93912,276.07485 1021.65669,264.722555 1021.65669,251.12475 C1021.65669,237.526946 1017.96407,226.324351 1010.47904,217.566866 C1002.99401,208.809381 993.013972,205.091816 980.538922,205.091816 C968.063872,205.091816 958.083832,208.859281 950.598802,217.566866 C943.113772,226.274451 939.146707,237.601796 939.146707,251.199601 C939.146707,264.797405 942.839321,276 950.324351,284.757485 C957.809381,293.51497 967.789421,297.232535 980.264471,297.232535 C992.739521,297.232535 1002.71956,293.46507 1010.20459,284.757485 Z M1101.17265,169.088822 L1144.66068,169.088822 L1144.66068,339.373253 L1100.8982,339.373253 L1100.8982,169.113772 L1101.17265,169.088822 Z M1122.03094,94.5379241 L1122.00599,94.5379241 C1128.98341,94.3580336 1135.72903,97.0489726 1140.6668,101.982035 C1145.60458,106.915097 1148.30197,113.658139 1148.12874,120.635729 C1148.12874,135.049148 1136.44436,146.733533 1122.03094,146.733533 C1107.61752,146.733533 1095.93313,135.049148 1095.93313,120.635729 C1095.76019,113.662581 1098.4542,106.923546 1103.38648,101.991271 C1108.31876,97.0589945 1115.05779,94.3649844 1122.03094,94.5379241 Z M1237.52495,123.105788 L1238.82236,170.336327 L1278.46806,170.336327 L1278.46806,208.884232 L1238.6976,208.884232 L1238.6976,273.40519 C1238.6976,284.682635 1239.97006,292.142715 1243.68762,295.860279 C1246.18263,299.602794 1253.66766,300.850299 1263.6477,300.850299 L1278.61776,299.602794 L1278.61776,338.150699 L1276.12275,338.150699 C1269.12874,339.185649 1262.05722,339.603094 1254.99002,339.398204 C1233.95709,339.398204 1217.68962,334.433134 1209.00699,325.725549 C1200.32435,317.017964 1195.33433,300.9501 1195.33433,278.49501 L1195.33433,207.636727 L1170.38423,207.636727 L1170.38423,169.113772 L1195.33433,169.113772 L1195.33433,123.105788 L1237.52495,123.105788 Z M1478.56786,98.1556886 L1522.05589,98.1556886 L1522.05589,340.520958 L1478.61776,340.520958 L1478.61776,98.3053892 L1478.56786,98.1556886 Z M1955.76347,279.767465 L1955.76347,279.617764 L1984.33134,308.210579 C1966.94112,333.060878 1942.09082,346.733533 1911.02794,346.733533 C1887.93848,347.131999 1865.78156,337.633585 1850.1497,320.635729 C1833.90719,304.468064 1825.1996,282.187625 1825.1996,257.237525 C1824.92121,233.658027 1833.87569,210.904692 1850.1497,193.839321 C1867.53992,176.449102 1887.42515,167.741517 1911.02794,167.741517 C1939.62076,167.741517 1963.22355,178.919162 1981.86128,202.546906 L1953.29341,229.992016 C1940.86826,215.071856 1925.97305,206.364271 1912.3004,206.364271 C1900.37878,205.819239 1888.88751,210.877247 1881.23752,220.036926 C1872.48004,229.992016 1868.76248,241.169661 1868.76248,256.08982 C1868.76248,271.00998 1872.52994,282.162675 1881.23752,292.142715 C1889.18636,300.839149 1900.39425,305.837505 1912.17565,305.94012 C1920.09054,305.980921 1927.86235,303.83072 1934.63074,299.727545 C1942.32972,293.803455 1949.40997,287.116084 1955.76347,279.767465 Z M2130.96307,193.864271 L2130.53892,193.664671 C2136.89679,201.130572 2141.19675,210.126093 2143.01397,219.762475 C2146.59273,230.191459 2148.28253,241.17519 2148.00399,252.197605 L2148.00399,268.365269 L2033.68263,268.365269 C2034.98004,279.493014 2038.67265,288.250499 2046.15768,294.463074 C2054.72113,301.081382 2065.27606,304.59969 2076.0978,304.443114 C2083.46338,304.718288 2090.76603,302.993932 2097.23054,299.453094 C2101.93504,297.424207 2106.17899,294.461927 2109.70559,290.745509 C2113.47305,286.978044 2117.19062,284.483034 2119.68563,280.765469 L2148.25349,308.210579 L2147.00599,309.458084 C2128.36826,333.085828 2104.74052,344.263473 2076.17265,344.263473 C2050.07485,344.263473 2030.16467,335.481038 2014.04691,319.313373 C1997.92914,303.145709 1990.44411,282.012974 1990.44411,255.91517 C1989.99344,232.981836 1997.45631,210.593229 2011.57685,192.516966 C2026.49701,175.126746 2046.38224,166.419162 2069.98503,166.419162 C2082.40926,166.120317 2094.73593,168.68126 2106.01297,173.904192 C2115.85161,178.393061 2124.42399,185.250961 2130.96307,193.864271 Z M2037.77445,233.734531 L2103.71756,233.734531 C2102.49501,226.249501 2100,218.764471 2095.00998,213.774451 C2090.04491,207.561876 2081.38723,205.066866 2071.40719,205.066866 C2063.03326,204.698167 2054.88824,207.856625 2048.9521,213.774451 C2043.53196,219.326245 2039.67582,226.212227 2037.77445,233.734531 Z M2296.23253,182.761477 L2296.30739,182.786427 C2310.05489,193.964072 2316.26747,210.056886 2316.26747,230.016966 L2316.26747,339.398204 L2274.02695,339.398204 L2274.02695,325.725549 C2259.10679,336.978044 2244.08683,343.190619 2228.04391,343.190619 C2212.001,343.190619 2198.20359,339.448104 2187.0509,329.517964 C2175.8982,319.587824 2170.90818,307.162675 2170.90818,290.99501 C2170.90818,273.679641 2177.19561,258.709581 2190.86826,248.729541 C2204.54092,238.749501 2221.93945,233.759481 2243.06387,233.759481 C2253.62335,233.687343 2264.12115,235.373737 2274.12675,238.749501 L2274.12675,230.041916 C2274.40797,222.78696 2271.16407,215.843724 2265.41916,211.404192 C2259.04352,206.353059 2251.09527,203.703642 2242.96407,203.919162 C2225.57385,203.919162 2213.1487,210.231537 2201.97106,228.869261 L2174.52595,202.771457 C2180.63872,190.296407 2191.91617,181.538922 2203.09381,175.326347 C2215.66713,169.943834 2229.14288,166.9812 2242.81437,166.593812 C2265.16966,166.593812 2283.75749,171.583832 2296.23253,182.761477 Z M2220.50898,274.752495 L2220.53393,274.677645 C2215.86615,277.835546 2212.71404,282.785005 2211.82635,288.350299 C2211.82635,293.340319 2214.24651,297.082834 2218.03892,300.825349 C2221.83134,304.567864 2228.01896,305.815369 2235.50399,305.815369 C2249.19992,306.068664 2262.49563,301.191792 2272.77944,292.142715 L2272.77944,275.97505 C2262.39956,272.230567 2251.49742,270.134325 2240.46906,269.762475 C2231.68663,269.762475 2225.499,271.03493 2220.50898,274.752495 Z M2481.36228,185.256487 C2492.53992,198.929142 2498.7525,217.575183 2500,241.194611 L2500,340.770459 L2456.71158,340.770459 L2456.71158,241.344311 C2456.89985,231.488212 2453.83999,221.843964 2448.00399,213.899202 C2442.52431,207.200874 2434.19281,203.497981 2425.5489,203.919162 C2415.95821,203.622049 2406.76151,207.742169 2400.5988,215.096806 C2394.38623,222.531936 2391.89122,233.684631 2391.89122,246.159681 L2391.89122,340.570858 L2348.40319,340.570858 L2348.40319,170.286427 L2390.66866,170.286427 L2390.66866,180.266467 C2400.5988,170.286427 2414.26314,165.296407 2431.66168,165.296407 C2452.79441,165.296407 2468.88723,171.583832 2481.36228,185.256487 Z M1425.1996,182.761477 L1425.22455,182.786427 C1437.6996,193.964072 1445.18463,210.056886 1445.18463,230.016966 L1445.18463,339.373253 L1402.94411,339.373253 L1402.94411,325.700599 C1388.02395,336.953094 1373.00399,343.165669 1356.96108,343.165669 C1340.91816,343.165669 1327.12076,339.423154 1315.96806,329.493014 C1304.81537,319.562874 1299.82535,307.137725 1299.82535,290.97006 C1299.82535,273.654691 1306.11277,258.684631 1319.78543,248.704591 C1333.45808,238.724551 1350.85662,233.734531 1371.98104,233.734531 C1382.54051,233.662392 1393.03832,235.348787 1403.04391,238.724551 L1403.04391,230.016966 C1403.32513,222.76201 1400.08124,215.818774 1394.33633,211.379241 C1387.96068,206.328108 1380.01243,203.678692 1371.88124,203.894212 C1354.49102,203.894212 1342.06587,210.206587 1330.88822,228.844311 L1303.44311,202.746507 C1309.55589,190.271457 1320.83333,181.513972 1332.01098,175.301397 C1344.6015,169.921329 1358.09469,166.967048 1371.78144,166.593812 C1394.13673,166.593812 1412.72455,171.583832 1425.1996,182.761477 Z M1348.17864,274.752495 L1348.20359,274.677645 C1344.3268,278.536088 1341.35301,283.205529 1339.49601,288.350299 C1339.49601,293.340319 1341.91617,297.082834 1345.70858,300.825349 C1349.501,304.567864 1355.68862,305.815369 1363.17365,305.815369 C1376.86958,306.068664 1390.16529,301.191792 1400.4491,292.142715 L1400.4491,275.97505 C1390.06922,272.230567 1379.16708,270.134325 1368.13872,269.762475 C1359.35629,269.762475 1353.16866,271.03493 1348.17864,274.752495 Z M1677.54491,344.288423 C1627.26515,344.308608 1581.92504,314.036345 1562.66982,267.589698 C1543.4146,221.14305 1554.03698,167.670621 1589.583,132.110323 C1625.12903,96.5500249 1678.59719,85.9061758 1725.05156,105.142743 C1771.50594,124.37931 1801.7964,169.707264 1801.79641,219.987026 C1801.55025,288.515116 1746.0729,344.014751 1677.54491,344.288423 Z M1677.54491,137.976048 C1644.86228,137.925587 1615.36879,157.571628 1602.82205,187.750033 C1590.27531,217.928437 1597.14726,252.693492 1620.23239,275.828606 C1643.31752,298.963721 1678.06763,305.910843 1708.2731,293.429402 C1738.47857,280.94796 1758.18836,251.497033 1758.20858,218.814371 C1758.25506,197.37806 1749.7618,176.805978 1734.60635,161.64584 C1719.45089,146.485703 1698.88143,137.98609 1677.44511,138.025948 L1677.54491,137.976048 Z" id="Combined-Shape"></path>
        </g>
    </g>
</svg>