<?xml version="1.0" encoding="UTF-8"?>
<svg width="136px" height="137px" viewBox="0 0 136 137" version="1.1" xmlns="http://www.w3.org/2000/svg" xmlns:xlink="http://www.w3.org/1999/xlink">
    <!-- Generator: Sketch 54.1 (76490) - https://sketchapp.com -->
    <title>Combined Shape</title>
    <desc>Created with Sketch.</desc>
    <g id="Page-1" stroke="none" stroke-width="1" fill="none" fill-rule="evenodd">
        <g id="dolceGusto" fill="#FFFFFF" fill-rule="nonzero">
            <path d="M68.0381,136.5782 C30.6431,136.5782 0.2191,106.1552 0.2191,68.7612 C0.2191,31.3652 30.6431,0.9412 68.0381,0.9412 C105.4331,0.9412 135.8571,31.3652 135.8571,68.7612 C135.8571,106.1552 105.4331,136.5782 68.0381,136.5782 Z M106.917,47.764 L106.917,46.692 L107.21,46.692 C107.393,46.692 107.459,46.7 107.459,46.836 C107.459,47.002 107.363,47.002 107.21,47.002 L106.917,47.002 L106.917,47.19 L107.134,47.19 L107.437,47.764 L107.684,47.764 L107.332,47.17 C107.504,47.17 107.66,47.102 107.66,46.836 C107.66,46.584 107.504,46.5 107.21,46.5 L106.716,46.5 L106.716,47.764 L106.917,47.764 Z M107.164,48.258 L107.164,48.071 C106.637,48.071 106.183,47.664 106.183,47.129 C106.183,46.58 106.637,46.166 107.164,46.166 C107.683,46.166 108.11,46.58 108.11,47.129 C108.11,47.664 107.683,48.071 107.164,48.071 L107.164,48.258 C107.786,48.258 108.297,47.756 108.297,47.129 C108.297,46.496 107.786,46 107.164,46 C106.508,46 106,46.496 106,47.129 C106,47.756 106.508,48.258 107.164,48.258 Z M100.6407,30.3951 C100.4257,31.6661 99.9787,32.8891 98.9757,33.9161 C98.5217,34.3951 97.8437,34.9151 97.2087,35.1021 L97.5807,35.1021 L99.9237,35.1021 C100.7347,35.1021 102.3607,34.7041 103.2107,33.8331 C104.7837,32.2231 104.7547,30.4401 105.0837,28.0691 L102.7547,28.0691 C102.1647,28.0691 101.0267,28.0841 100.6407,30.3951 Z M30.4552,48.7232 L33.2472,48.7232 L33.2472,37.8252 L38.1152,46.5282 C39.1352,48.3502 39.8372,48.9632 41.7212,48.9632 C42.2852,48.9632 42.9972,48.8852 43.2682,48.7462 L43.2682,35.0592 L91.4902,35.0592 C92.2822,35.0592 94.9032,34.3952 94.9032,32.8622 L40.5012,32.8622 L40.5012,43.7432 L35.5992,35.0592 C34.5912,33.2272 33.8912,32.6102 31.9822,32.6102 C31.4252,32.6102 30.7092,32.6822 30.4552,32.8302 L30.4552,48.7232 Z M85.3693,48.7076 C84.4713,44.4046 82.9903,39.5906 81.6183,36.8716 L78.0523,36.8716 C76.5443,39.5906 75.3583,43.6976 74.3613,48.7076 L77.1223,48.7076 C77.2253,47.9826 77.3473,47.1916 77.5223,46.4086 L81.5453,46.4086 C81.7093,47.1916 81.8733,48.0046 81.9943,48.7076 L85.3693,48.7076 Z M52.8783,43.9026 L52.8783,41.6956 L48.3523,41.6956 L48.3523,39.1806 L53.5933,39.1806 L53.5933,36.9716 L45.2333,36.9716 L45.2333,43.9516 C45.2333,45.5986 45.5003,47.0966 46.1973,47.7856 C47.1033,48.6546 48.6433,48.9756 50.6863,48.9756 C51.7633,48.9756 52.9313,48.8036 53.6363,48.4536 L53.6363,46.3856 C52.7693,46.6296 51.8563,46.7486 50.9973,46.7486 C49.7913,46.7486 49.0703,46.6316 48.6963,46.1236 C48.3713,45.6336 48.3523,44.8736 48.3523,43.9516 L48.3523,43.9026 L52.8783,43.9026 Z M59.5343,36.6486 C58.1233,36.6486 56.7703,36.8716 55.7683,37.8126 C54.8453,38.6866 54.6403,41.7036 55.6733,42.7916 C56.7123,43.8856 59.5063,44.2896 60.5163,44.9556 C60.8753,45.2016 60.7753,46.1996 60.5163,46.4206 C60.2643,46.6296 59.7663,46.7486 58.9473,46.7486 C57.6853,46.7486 56.4673,46.5086 55.3153,46.1866 L55.3153,48.3246 C55.9033,48.6546 57.0753,48.9756 58.9913,48.9756 C60.2863,48.9756 61.8483,48.7236 62.7933,48.0186 C63.9893,47.1036 64.2263,44.2016 63.0913,42.9556 C62.0803,41.8486 59.1063,41.3596 58.1233,40.6876 C57.7443,40.4286 57.8263,39.4416 58.1233,39.2116 C58.4183,38.9756 58.8603,38.9046 59.6933,38.9046 C60.9453,38.9046 61.9823,39.1276 63.0603,39.4596 L63.0603,37.3506 C62.5633,37.0276 61.3073,36.6486 59.5343,36.6486 Z M94.4623,43.9026 L94.4623,41.6956 L89.6633,41.6956 L89.6633,39.1806 L94.9033,39.1806 L94.9033,36.9716 L86.5403,36.9716 L86.5403,46.7486 C86.5403,48.4756 87.9973,48.7076 89.6633,48.7076 L89.6633,43.9026 L94.4623,43.9026 Z M68.5193,42.8346 C68.5193,41.1316 68.6133,40.0886 68.9443,39.5436 C69.2833,39.0496 70.0963,38.9046 70.9753,38.9046 C71.7893,38.9046 72.5163,39.0166 73.3313,39.2856 L73.3313,37.1916 C72.6813,36.8716 71.6833,36.6896 70.7563,36.6896 C69.0283,36.6896 67.3083,36.9306 66.3513,37.9086 C65.4573,38.8406 65.1473,40.7756 65.1473,42.8346 C65.1473,44.8736 65.4573,46.8016 66.3513,47.7196 C67.3083,48.7236 69.0283,48.9756 70.7563,48.9756 C71.6103,48.9756 72.5083,48.8486 73.0973,48.5576 L73.5793,46.3856 C72.7033,46.6316 71.9603,46.7486 70.9753,46.7486 C70.0963,46.7486 69.2833,46.6296 68.9443,46.1316 C68.6133,45.5986 68.5193,44.5216 68.5193,42.8346 Z M79.4663,39.7566 C80.1243,41.0806 80.6463,42.7366 81.0923,44.4286 L77.9453,44.4286 C78.3493,42.8536 78.8833,41.2216 79.4663,39.7566 Z M103.9643,43.9026 L103.9643,41.6956 L99.4323,41.6956 L99.4323,39.1806 L104.6703,39.1806 L104.6703,36.9716 L96.3103,36.9716 L96.3103,43.9516 C96.3103,45.5986 96.5823,47.0966 97.2933,47.7856 C98.1763,48.6546 99.7253,48.9756 101.7713,48.9756 C102.8453,48.9756 104.0043,48.8036 104.7183,48.4536 L104.7183,46.3856 C103.8553,46.6296 102.9393,46.7486 102.0763,46.7486 C100.8873,46.7486 100.1413,46.6316 99.7853,46.1236 C99.4463,45.6336 99.4323,44.8736 99.4323,43.9516 L99.4323,43.9026 L103.9643,43.9026 Z M48.673,68.6431 C48.673,75.0881 52.205,78.9731 57.79,78.9731 C63.34,78.9731 66.891,75.0881 66.891,68.6431 C66.891,62.1881 63.34,58.3091 57.79,58.3091 C52.205,58.3091 48.673,62.1881 48.673,68.6431 Z M57.79,77.5471 C53.422,77.5471 52.535,72.2131 52.535,68.6431 C52.535,65.0821 53.422,59.7411 57.79,59.7411 C62.152,59.7411 63.009,65.0821 63.009,68.6431 C63.009,72.2131 62.152,77.5471 57.79,77.5471 Z M112.7775,78.192 L112.7775,76.823 C111.9165,77.237 110.7385,77.383 109.7335,77.383 C102.4535,77.383 100.6705,70.01 100.6705,66.419 L113.3435,66.419 L113.3435,65.442 C113.3435,60.491 109.8285,58.309 105.9115,58.309 C99.6125,58.309 97.0315,61.794 97.0315,68.085 C97.0315,75.317 100.8445,78.973 107.5795,78.973 C110.2595,78.973 111.7245,78.587 112.7775,78.192 Z M109.4585,64.981 L100.6705,64.981 C100.6705,63.397 102.0115,59.741 105.3265,59.741 C108.6805,59.741 109.4585,62.702 109.4585,64.981 Z M67.5411,77.7525 L67.5411,78.4925 L77.6891,78.4925 L77.6891,77.7525 C75.8231,77.7525 74.3241,77.3505 74.3241,74.5335 L74.3241,52.3855 L67.5411,53.4125 L67.5411,54.1525 C68.8631,54.2875 70.8861,54.4225 70.8861,56.9775 L70.8861,74.5335 C70.8861,77.3505 69.3861,77.7525 67.5411,77.7525 Z M96.1271,104.4986 L96.1271,103.1006 C95.5471,103.1786 95.0071,103.3016 94.4621,103.3016 C92.1621,103.3016 90.7351,102.8116 90.7351,99.6766 L90.7351,86.6376 L95.7681,86.6376 L95.7681,85.2696 L90.7351,85.2696 L90.7351,79.0626 L89.6531,79.0626 C89.6531,83.5746 87.4731,85.2696 84.0821,85.2696 L84.0821,86.6376 L87.4731,86.6376 L87.4731,98.5196 C87.4731,103.1376 87.8181,104.6726 94.1381,104.6726 C94.7961,104.6726 95.4621,104.5806 96.1271,104.4986 Z M32.9249,78.7134 C27.8929,80.2994 22.7999,82.4734 22.7999,90.9774 C22.7999,95.4144 23.9469,98.3754 25.7689,100.3184 C27.8689,102.8934 31.1619,104.2504 35.8649,104.2504 C39.9259,104.2504 43.9399,103.4344 45.2339,103.1434 L45.2339,89.7384 L36.8499,89.7384 L36.8499,90.3614 C40.7189,90.9014 41.3479,91.2054 41.3479,94.1884 L41.3479,102.2074 C40.1859,102.4634 39.4799,102.5514 38.2159,102.5654 L38.2159,102.5514 C37.2879,102.5514 36.4319,102.4794 35.6329,102.3714 C29.2309,101.3734 27.3919,96.0184 27.2539,90.5084 C27.3649,84.3184 29.5729,81.3304 35.3559,79.5124 C40.3929,77.9144 45.5299,75.7624 45.5299,67.2794 C45.5299,55.5574 37.5939,54.1524 30.1069,54.1524 L19.5359,54.1524 L19.5359,54.9224 C21.9729,54.9224 23.4559,55.2214 23.4559,58.1434 L23.4559,79.4834 C24.8569,79.2954 27.4819,78.7914 27.4819,75.7334 L27.4819,58.9814 C27.4819,55.9304 27.8469,55.6924 30.1069,55.6924 C38.6579,55.6924 41.0659,60.0414 41.0659,67.2794 C41.0659,73.7604 38.8269,76.8344 32.9249,78.7134 Z M113.4806,103.524 L113.4806,103.327 C112.9786,103.327 112.5406,102.928 112.5406,102.389 C112.5406,101.866 112.9786,101.444 113.4806,101.444 C114.0356,101.444 114.4506,101.866 114.4506,102.389 C114.4506,102.928 114.0356,103.327 113.4806,103.327 L113.4806,103.524 C114.1486,103.524 114.6336,103.028 114.6336,102.389 C114.6336,101.77 114.1486,101.268 113.4806,101.268 C112.8606,101.268 112.3516,101.77 112.3516,102.389 C112.3516,103.028 112.8606,103.524 113.4806,103.524 Z M113.2589,103.0318 L113.2589,101.9418 L113.5639,101.9418 C113.7329,101.9418 113.8059,101.9828 113.8059,102.1098 C113.8059,102.2508 113.7009,102.2608 113.5639,102.2608 L113.2589,102.2608 L113.2589,102.4518 L113.4709,102.4518 L113.7909,103.0318 L114.0349,103.0318 L113.7009,102.4248 C113.8389,102.4248 114.0079,102.3718 114.0079,102.1098 C114.0079,101.8428 113.8529,101.7698 113.5639,101.7698 L113.0759,101.7698 L113.0759,103.0318 L113.2589,103.0318 Z M93.7325,77.9146 L93.7325,76.6786 C92.9445,76.8346 92.1385,77.0186 91.2915,77.0186 C85.2285,77.0186 81.6185,71.7586 81.6185,66.2956 C81.6185,61.5296 83.8985,59.3736 86.8415,59.3736 C88.8605,59.3736 89.6535,60.2666 89.8575,61.2306 C90.2175,62.6486 90.5485,63.9806 92.2175,63.9806 C93.3505,63.9806 94.2695,63.2096 94.2695,61.9576 C94.2695,58.8166 90.3885,57.9516 87.4065,57.9516 C80.7235,57.9516 78.0165,61.9576 78.0165,67.6846 C78.0165,74.3386 81.3945,78.6016 89.0945,78.6016 C91.1185,78.6016 92.5695,78.3466 93.7325,77.9146 Z M65.2189,84.481 L61.9439,84.481 L61.9439,94.555 C61.9439,98.307 59.5559,102.217 56.8559,102.217 C54.6709,102.217 53.5139,100.575 53.5139,97.163 L53.5139,84.358 L47.0819,84.358 L47.0819,85.069 C48.3319,85.174 50.2529,85.292 50.2529,87.762 L50.2529,98.069 C50.2529,101.901 52.0789,104.299 55.6009,104.299 C60.0689,104.299 61.3259,100.717 61.8769,99.335 L61.9439,99.335 L61.9439,104.18 L65.2409,104.213 L65.2189,84.481 Z M80.7404,89.5064 L81.8004,89.5064 L81.4924,85.1824 C80.5564,84.9124 78.3094,84.4814 76.5604,84.4814 C73.0354,84.4814 69.4274,85.7604 69.4274,89.6024 C69.4274,91.2914 69.9394,92.3194 71.6704,93.5294 C74.0024,95.2094 79.5344,96.6744 79.5344,99.5884 C79.5344,101.0124 78.0634,102.9364 75.2674,102.9364 C71.6704,102.9364 70.6324,100.4224 70.2054,98.9654 L69.1264,98.9654 L69.4274,103.5654 C70.5874,103.9344 72.5534,104.2994 74.9834,104.2994 C79.7464,104.2994 82.8834,102.2684 82.8834,98.7334 C82.8834,95.6254 81.0584,94.4864 78.8834,93.3194 C76.4724,92.0024 72.7714,90.8054 72.7714,88.4494 C72.7714,86.5024 74.7484,85.8364 76.3394,85.8364 C79.3914,85.8364 80.3814,88.1454 80.7404,89.5064 Z M95.9904,94.4009 C95.9904,100.5749 99.3664,104.2989 104.7184,104.2989 C110.0764,104.2989 113.4704,100.5749 113.4704,94.4009 C113.4704,88.2059 110.0764,84.4809 104.7184,84.4809 C99.3664,84.4809 95.9904,88.2059 95.9904,94.4009 Z M104.7184,102.9359 C100.5454,102.9359 99.7214,97.8089 99.7214,94.4009 C99.7214,90.9579 100.5454,85.8369 104.7184,85.8369 C108.9084,85.8369 109.7594,90.9579 109.7594,94.4009 C109.7594,97.8089 108.9084,102.9359 104.7184,102.9359 Z" id="Combined-Shape"></path>
        </g>
    </g>
</svg>