<?xml version="1.0" encoding="UTF-8"?>
<svg width="324px" height="146px" viewBox="0 0 324 146" version="1.1" xmlns="http://www.w3.org/2000/svg" xmlns:xlink="http://www.w3.org/1999/xlink">
    <!-- Generator: Sketch 53.2 (72643) - https://sketchapp.com -->
    <title>Combined Shape</title>
    <desc>Created with Sketch.</desc>
    <g id="Page-1" stroke="none" stroke-width="1" fill="none" fill-rule="evenodd">
        <g id="Asset-1" fill="#FFFFFF" fill-rule="nonzero">
            <path d="M139.3106,139.3954 L138.853,138.28 C138.435695,138.633694 137.974238,138.931718 137.4802,139.1666 C136.84509,139.460524 136.148746,139.597831 135.4496,139.567 C134.98264,139.565454 134.519021,139.488184 134.0768,139.3382 C133.666762,139.178308 133.288917,138.945788 132.9614,138.6518 C132.640648,138.328105 132.379274,137.950564 132.1892,137.5364 C132.003667,137.072311 131.906663,136.577589 131.9032,136.0778 C131.843578,135.039831 132.291433,134.037489 133.1044,133.3894 C134.12421,132.763807 135.314512,132.473733 136.5078,132.56 L138.71,132.56 L138.71,132.131 C138.778583,131.444286 138.537425,130.762751 138.0522,130.272 C137.563652,129.91548 136.969161,129.73411 136.3648,129.7572 C135.768016,129.743535 135.17462,129.850541 134.6202,130.0718 C134.2007,130.254226 133.798647,130.474398 133.419,130.7296 L132.6182,129.2996 C133.235435,128.832675 133.933519,128.483633 134.6774,128.27 C135.359354,128.094696 136.061089,128.00818 136.7652,128.0126 C137.314294,128.019397 137.860977,128.086534 138.3954,128.2128 C138.867966,128.348376 139.306548,128.582286 139.6824,128.8992 C140.057238,129.228047 140.350898,129.63917 140.5404,130.1004 C140.761219,130.684838 140.868011,131.306173 140.855,131.9308 L140.855,137.3934 C140.836107,137.76496 140.836107,138.13724 140.855,138.5088 C140.8359,138.737201 140.8359,138.966799 140.855,139.1952 C140.830848,139.327574 140.830848,139.463226 140.855,139.5956 L139.3106,139.3954 Z M138.71,134.0472 L136.6508,134.0472 C135.948395,134.027667 135.254654,134.206057 134.6488,134.562 C134.246148,134.888999 134.023146,135.388099 134.0482,135.9062 C134.034135,136.413437 134.218878,136.906083 134.563,137.279 C134.976821,137.671974 135.53868,137.869665 136.1074,137.8224 C136.675704,137.863626 137.243369,137.734159 137.7376,137.4506 C138.090832,137.254607 138.417606,137.014332 138.71,136.7356 L138.71,134.0472 Z M150.8364,139.3954 L150.8364,132.56 C150.864858,132.236491 150.864858,131.911109 150.8364,131.5876 C150.807896,131.272541 150.730712,130.963807 150.6076,130.6724 C150.480872,130.412387 150.282395,130.194061 150.0356,130.0432 C149.741671,129.814563 149.378325,129.693448 149.006,129.7 C148.382283,129.702003 147.770312,129.869801 147.2328,130.1862 C146.695607,130.501729 146.188248,130.865496 145.717,131.273 L145.717,139.3382 L143.6006,139.3382 L143.6006,127.8982 L145.3738,127.8982 L145.6312,129.1852 C146.227824,128.737391 146.870129,128.353925 147.5474,128.0412 C148.203037,127.74554 148.916103,127.599019 149.6352,127.6122 C150.055337,127.61619 150.47154,127.693623 150.865,127.841 C151.264419,127.988198 151.625944,128.2227 151.9232,128.5274 C152.258019,128.894142 152.52007,129.321189 152.6954,129.7858 C152.889562,130.376339 152.986162,130.994579 152.9814,131.6162 L152.9814,139.1952 L150.8364,139.3954 Z M172.029,139.3954 L170.4274,135.42 L164.3356,135.42 L162.8484,139.5384 L160.7034,139.5384 L166.738,123.7512 L168.1108,123.7512 L174.2312,139.5384 L172.029,139.3954 Z M168.0536,128.699 C167.805733,127.9554 167.605533,127.2976 167.453,126.7256 C167.453,127.2976 167.1098,127.9268 166.8524,128.6704 L165.1078,133.4466 L169.741,133.4466 L168.0536,128.699 Z M185.6426,133.3608 C185.657641,134.264283 185.482234,135.160806 185.1278,135.992 C184.833418,136.757697 184.363171,137.443474 183.755,137.994 C183.179956,138.538051 182.498243,138.956817 181.753,139.2238 C180.970438,139.490997 180.148918,139.626306 179.322,139.6242 C178.637573,139.647985 177.953373,139.570892 177.2914,139.3954 C176.82845,139.294294 176.384422,139.120544 175.9758,138.8806 L175.9758,122.4928 L178.0922,122.4928 L178.0922,128.2128 C178.474905,128.072163 178.866661,127.957503 179.2648,127.8696 C179.692608,127.82437 180.123992,127.82437 180.5518,127.8696 C181.20604,127.867093 181.8553,127.983379 182.468,128.2128 C183.080774,128.431386 183.637513,128.78301 184.0982,129.2424 C184.604168,129.73192 184.994935,130.327839 185.2422,130.987 C185.525824,131.745493 185.661734,132.55124 185.6426,133.3608 Z M183.5262,133.3608 C183.52433,132.847074 183.447246,132.33639 183.2974,131.845 C183.154268,131.416049 182.931054,131.018146 182.6396,130.6724 C182.354531,130.326192 181.99204,130.051875 181.5814,129.8716 C181.132844,129.710882 180.654082,129.652258 180.18,129.7 C179.763376,129.688398 179.347735,129.746394 178.9502,129.8716 L178.1208,130.2148 L178.1208,137.565 C178.354984,137.67489 178.606699,137.742659 178.8644,137.7652 C179.168606,137.797616 179.475394,137.797616 179.7796,137.7652 C180.295505,137.770079 180.805203,137.652456 181.2668,137.422 C181.726479,137.191198 182.134994,136.870222 182.468,136.4782 C182.811081,136.069485 183.081901,135.605221 183.2688,135.1054 C183.43754,134.578379 183.524351,134.028572 183.5262,133.4752 L183.5262,133.3608 Z M189.5608,134.1902 C189.555328,134.678861 189.642675,135.164118 189.8182,135.6202 C189.949484,136.06053 190.184928,136.462746 190.5046,136.7928 C190.799903,137.152756 191.18452,137.428891 191.62,137.5936 C192.098434,137.798103 192.615741,137.895708 193.1358,137.8796 C193.630435,137.873417 194.121629,137.796366 194.5944,137.6508 C195.038771,137.485338 195.469151,137.284494 195.8814,137.0502 L196.482,138.5088 C195.370497,139.242025 194.066949,139.630105 192.7354,139.6242 C191.908282,139.644229 191.087242,139.478066 190.333,139.138 C189.683289,138.811977 189.108615,138.354186 188.6456,137.7938 C188.215424,137.21466 187.886625,136.566733 187.6732,135.8776 C187.465698,135.132597 187.359873,134.36296 187.3586,133.5896 C187.352107,132.823007 187.467963,132.060287 187.7018,131.3302 C187.893477,130.66414 188.21415,130.042228 188.6456,129.4998 C189.053219,128.982337 189.571037,128.562221 190.1614,128.27 C190.771667,127.957797 191.449411,127.800639 192.1348,127.8124 C192.81654,127.804698 193.491186,127.951361 194.1082,128.2414 C194.683833,128.505722 195.184975,128.908601 195.5668,129.414 C195.98934,129.957967 196.300351,130.579988 196.482,131.2444 C196.709875,132.024238 196.815992,132.834582 196.7966,133.6468 L196.7966,134.1902 L189.5608,134.1902 Z M194.48,132.56 C194.479061,132.200416 194.421143,131.843253 194.3084,131.5018 C194.218118,131.156882 194.073292,130.828608 193.8794,130.5294 C193.679259,130.243325 193.414767,130.00822 193.1072,129.843 C192.772182,129.667603 192.398499,129.579099 192.0204,129.5856 C191.655149,129.583272 191.293864,129.661388 190.9622,129.8144 C190.652983,129.976432 190.380401,130.200339 190.1614,130.4722 C189.928481,130.759959 189.753647,131.090203 189.6466,131.4446 C189.531638,131.805189 189.473739,132.18153 189.47498,132.56 L194.48,132.56 Z M204.7474,130.1576 C204.401018,129.985271 204.018869,129.897083 203.632,129.9002 C203.228871,129.896947 202.83278,130.005872 202.488,130.2148 C202.022742,130.46537 201.590428,130.772793 201.201,131.13 L201.201,139.3954 L199.0846,139.3954 L199.0846,127.9554 L200.8292,127.9554 L201.1152,129.2138 C201.642807,128.719186 202.240261,128.304823 202.8884,127.984 C203.31129,127.79138 203.768152,127.684455 204.2326,127.6694 C204.498587,127.637618 204.767413,127.637618 205.0334,127.6694 C205.224487,127.732382 205.407016,127.818844 205.5768,127.9268 L204.7474,130.1576 Z M212.6696,139.3096 C212.142332,139.521156 211.578913,139.628012 211.0108,139.6242 C210.293281,139.691359 209.582406,139.440462 209.066,138.9378 C208.640836,138.437181 208.42564,137.791594 208.4654,137.136 L208.4654,129.7 L206.5778,129.7 L206.5778,128.0126 L208.4654,128.0126 L208.4654,125.4958 L210.5818,124.8094 L210.5818,128.0126 L214.071,128.0126 L213.3846,129.7 L210.5246,129.7 L210.5246,136.3352 C210.5246,137.2504 210.8964,137.708 211.64,137.708 C212.013737,137.703481 212.382964,137.625749 212.7268,137.4792 C213.027289,137.332992 213.314387,137.160733 213.5848,136.9644 L214.214,138.3944 C213.747465,138.77441 213.226961,139.082857 212.6696,139.3096 Z M217.36,123.1506 C217.730042,123.150482 218.083024,123.306209 218.3324,123.5796 C218.615311,123.822018 218.773076,124.179618 218.7614,124.552 C218.765165,124.9228 218.60881,125.277206 218.3324,125.5244 C218.083024,125.797791 217.730042,125.953518 217.36,125.9534 C216.978121,125.957079 216.609461,125.813711 216.3304,125.553 C216.071448,125.284351 215.927759,124.925126 215.93,124.552 C215.945575,123.773424 216.581268,123.150444 217.36,123.1506 Z M216.3018,139.3954 L216.3018,127.9554 L218.4182,127.9554 L218.4182,139.3954 L216.3018,139.3954 Z M223.8522,139.6242 C223.126341,139.647409 222.401621,139.55078 221.7072,139.3382 C221.203207,139.17239 220.715061,138.961817 220.2486,138.709 L220.9922,137.1074 C221.367579,137.336497 221.759534,137.537254 222.1648,137.708 C222.687861,137.895803 223.239248,137.992538 223.795,137.994 C224.369159,138.018026 224.93724,137.868531 225.4252,137.565 C225.822581,137.335697 226.063677,136.908299 226.0544,136.4496 C226.071005,136.065472 225.92576,135.691986 225.654,135.42 C225.380876,135.146525 225.061303,134.923792 224.7102,134.7622 L223.4804,134.1902 C223.047555,134.016758 222.635134,133.796161 222.2506,133.5324 C221.384896,132.940411 220.878717,131.949593 220.9064,130.9012 C220.899165,130.069763 221.254119,129.276338 221.8788,128.7276 C222.686966,128.080866 223.70531,127.754996 224.7388,127.8124 C225.252495,127.764696 225.769505,127.764696 226.2832,127.8124 C226.692582,127.892639 227.094422,128.00745 227.4844,128.1556 L228.0564,128.413 L228.3424,128.5846 L228.0278,129.2996 C228.0278,129.4998 227.8562,129.6428 227.799,129.8144 C227.783429,129.899494 227.783429,129.986706 227.799,130.0718 L226.4262,129.7 C225.933803,129.557766 225.42284,129.49028 224.9104,129.4998 C224.436157,129.479736 223.964376,129.578024 223.5376,129.7858 C223.17703,129.985216 222.965002,130.375796 222.9942,130.7868 C222.977318,131.131732 223.113344,131.466567 223.366,131.702 C223.661023,131.953623 223.987983,132.165185 224.3384,132.3312 L225.5968,132.9032 C226.04264,133.079929 226.465234,133.310434 226.8552,133.5896 C227.25538,133.852046 227.588431,134.204688 227.8276,134.6192 C228.104863,135.085597 228.243734,135.621241 228.228,136.1636 C228.244088,137.187981 227.764823,138.15716 226.941,138.7662 C226.520744,139.036392 226.055972,139.230047 225.5682,139.3382 C225.011006,139.507472 224.434175,139.60361 223.8522,139.6242 Z M243.3002,139.281 C242.618889,139.512948 241.903495,139.628957 241.1838,139.6242 C240.37764,139.649495 239.576117,139.493101 238.8386,139.1666 C238.206559,138.863131 237.64234,138.435103 237.1798,137.9082 C236.71533,137.379284 236.37351,136.754242 236.1788,136.0778 C235.948875,135.356622 235.833078,134.603939 235.8356,133.847 C235.826665,133.068599 235.952453,132.29452 236.2074,131.559 C236.467558,130.865929 236.866585,130.233324 237.38,129.7 C237.888428,129.147455 238.500672,128.700421 239.1818,128.3844 C239.93806,128.050644 240.757676,127.88477 241.5842,127.8982 C242.154532,127.896208 242.722392,127.973206 243.2716,128.127 C243.727993,128.248898 244.169282,128.421576 244.5872,128.6418 L244.5872,130.5294 C244.148907,130.160604 243.644098,129.879076 243.1,129.7 C242.575239,129.521925 242.023898,129.434871 241.4698,129.4426 C240.948226,129.441631 240.432109,129.548749 239.954,129.7572 C239.516457,129.958972 239.133889,130.263064 238.8386,130.6438 C238.51731,131.031887 238.274478,131.478698 238.1236,131.9594 C237.948123,132.494647 237.86118,133.054945 237.8662,133.6182 C237.868002,134.169475 237.944978,134.717928 238.095,135.2484 C238.245878,135.729102 238.48871,136.175913 238.81,136.564 C239.109102,136.940947 239.490688,137.244259 239.9254,137.4506 C240.401624,137.66492 240.91902,137.772304 241.4412,137.7652 C241.974155,137.769915 242.504673,137.692749 243.0142,137.5364 C243.431049,137.370942 243.832924,137.170004 244.2154,136.9358 L244.816,138.3944 C244.34665,138.747453 243.837996,139.044968 243.3002,139.281 Z M251.251,127.8124 C251.985069,127.806988 252.713317,127.942928 253.396,128.2128 C254.021107,128.461918 254.579349,128.853667 255.0262,129.3568 C255.546278,129.895901 255.945959,130.539288 256.1988,131.2444 C256.460488,132.047295 256.586152,132.888279 256.5706,133.7326 C256.591187,134.579559 256.455452,135.423056 256.1702,136.2208 C255.907202,136.938042 255.509153,137.598221 254.9976,138.1656 C253.992959,139.149695 252.627726,139.677171 251.2224,139.6242 C249.880847,139.678488 248.573204,139.194557 247.5902,138.28 C247.040934,137.736406 246.629154,137.069716 246.389,136.3352 C246.096381,135.518836 245.951124,134.656978 245.96,133.7898 C245.948312,132.931724 246.093705,132.078749 246.389,131.273 C246.637384,130.55731 247.037363,129.903685 247.5616,129.3568 C248.017917,128.871452 248.574112,128.490897 249.1918,128.2414 C249.842572,127.962029 250.542806,127.816146 251.251,127.8124 Z M251.251,129.557 C250.323071,129.50234 249.433928,129.936068 248.9058,130.701 C248.372754,131.558972 248.094994,132.550973 248.105,133.561 C248.048749,134.638513 248.35041,135.704382 248.963,136.5926 C249.515094,137.329104 250.387922,137.754873 251.3082,137.7366 C252.226187,137.781116 253.10211,137.348561 253.6248,136.5926 C254.212747,135.743352 254.53163,134.736877 254.54,133.704 C254.561933,132.688357 254.272505,131.69033 253.7106,130.844 C253.129549,130.064547 252.19233,129.633642 251.2224,129.7 L251.251,129.557 Z M273.1586,139.3954 L273.1586,132.1596 C273.189453,131.836201 273.189453,131.510599 273.1586,131.1872 C273.129979,130.914144 273.042137,130.650617 272.9012,130.415 C272.792009,130.190651 272.610749,130.009391 272.3864,129.9002 C272.090965,129.73399 271.751065,129.664011 271.414,129.7 C270.757861,129.690348 270.112708,129.869005 269.555,130.2148 C269.041784,130.504155 268.562194,130.84946 268.125,131.2444 L268.125,139.3954 L265.98,139.3954 L265.98,132.2168 C265.98,131.845 265.98,131.5304 265.98,131.2158 C265.928828,130.93895 265.842321,130.669816 265.7226,130.415 C265.593863,130.195411 265.405422,130.016888 265.1792,129.9002 C264.898092,129.751273 264.581614,129.682044 264.264,129.7 C263.95076,129.658624 263.63344,129.658624 263.3202,129.7 C263.013045,129.79416 262.716043,129.91871 262.4336,130.0718 L261.6614,130.558 L261.0036,131.13 L261.0036,139.2524 L258.8872,139.2524 L258.8872,127.8124 L260.6604,127.8124 L260.9178,129.1566 C261.538318,128.645258 262.232559,128.230642 262.977,127.9268 C263.584866,127.674006 264.234969,127.538164 264.8932,127.5264 C265.524927,127.497237 266.148505,127.678276 266.6664,128.0412 C267.148019,128.370805 267.517276,128.839861 267.7246,129.3854 C268.336203,128.83799 269.019311,128.376171 269.7552,128.0126 C270.400532,127.709705 271.10174,127.544142 271.8144,127.5264 C272.258584,127.525303 272.700959,127.583004 273.13,127.698 C273.530549,127.833274 273.900044,128.047192 274.2168,128.3272 C274.570348,128.628455 274.845203,129.011288 275.0176,129.4426 C275.212264,130.003432 275.309008,130.593569 275.3036,131.1872 L275.3036,139.1094 L273.1586,139.3954 Z M287.7732,133.5896 C287.788408,134.481053 287.623021,135.366361 287.287,136.1922 C286.993778,136.896981 286.566389,137.538064 286.0286,138.0798 C285.51189,138.593462 284.886343,138.984429 284.1982,139.2238 C283.50785,139.501683 282.768654,139.637851 282.0246,139.6242 C281.6917,139.656181 281.3565,139.656181 281.0236,139.6242 L280.28,139.3096 L280.28,145.0296 L278.1636,145.0296 L278.1636,128.5846 C278.697465,128.384152 279.241638,128.212308 279.7938,128.0698 C280.54259,127.888025 281.311339,127.801541 282.0818,127.8124 C282.909108,127.805346 283.731455,127.940791 284.5128,128.2128 C285.192506,128.466046 285.807797,128.866473 286.3146,129.3854 C286.810044,129.900046 287.190268,130.514255 287.43,131.1872 C287.682124,131.962207 287.798237,132.774998 287.7732,133.5896 Z M285.5996,133.5896 C285.616112,132.976508 285.51915,132.365645 285.3136,131.7878 C285.139688,131.315914 284.866617,130.886802 284.5128,130.5294 C284.193937,130.203252 283.801693,129.958099 283.3688,129.8144 C282.921324,129.643671 282.446339,129.556429 281.9674,129.557 C281.644062,129.524885 281.318338,129.524885 280.995,129.557 L280.2228,129.7572 L280.2228,137.3362 C280.466282,137.465571 280.725989,137.561759 280.995,137.6222 C281.308847,137.652989 281.624953,137.652989 281.9388,137.6222 C282.947625,137.667064 283.92353,137.257813 284.5986,136.5068 C285.245299,135.704717 285.59848,134.705718 285.5996,133.6754 L285.5996,133.5896 Z M296.8394,139.3954 L296.3818,138.3372 C295.964495,138.690894 295.503038,138.988918 295.009,139.2238 C294.37389,139.517724 293.677546,139.655031 292.9784,139.6242 C292.51144,139.622654 292.047821,139.545384 291.6056,139.3954 C291.195562,139.235508 290.817717,139.002988 290.4902,138.709 C290.169448,138.385305 289.908074,138.007764 289.718,137.5936 C289.519012,137.133585 289.421466,136.636098 289.432,136.135 C289.374976,135.10372 289.809971,134.106414 290.6046,133.4466 C291.608809,132.744699 292.811856,132.383785 294.0366,132.417 L296.2388,132.417 L296.2388,131.988 C296.312895,131.29514 296.058981,130.607457 295.5524,130.129 C295.074727,129.772519 294.489169,129.590794 293.8936,129.6142 C293.28753,129.600576 292.684793,129.707513 292.1204,129.9288 C291.712929,130.117057 291.320859,130.336999 290.9478,130.5866 L290.147,129.1566 C290.764235,128.689675 291.462319,128.340633 292.2062,128.127 C292.878771,127.953507 293.570818,127.867001 294.2654,127.8696 C294.824052,127.874523 295.380417,127.941671 295.9242,128.0698 C296.396766,128.205376 296.835348,128.439286 297.2112,128.7562 C297.586913,129.078119 297.872688,129.491999 298.0406,129.9574 C298.261419,130.541838 298.368211,131.163173 298.3552,131.7878 L298.3552,135.42 C298.3552,136.0778 298.3552,136.6498 298.3552,137.0788 C298.3552,137.5078 298.3552,137.9082 298.3552,138.1942 C298.3552,138.4802 298.3552,138.709 298.3552,138.8806 C298.346377,139.013921 298.346377,139.147679 298.3552,139.281 L296.8394,139.3954 Z M296.2388,134.0472 L294.1796,134.0472 C293.476845,134.024525 292.782245,134.203137 292.1776,134.562 C291.756381,134.87674 291.520282,135.381133 291.5484,135.9062 C291.534335,136.413437 291.719078,136.906083 292.0632,137.279 C292.485819,137.676546 293.058312,137.874316 293.6362,137.8224 C294.203318,137.849228 294.766995,137.72067 295.2664,137.4506 C295.619632,137.254607 295.946406,137.014332 296.2388,136.7356 L296.2388,134.0472 Z M308.3652,139.3954 L308.3652,132.56 C308.3652,132.2454 308.3652,131.9022 308.3652,131.5876 C308.34047,131.268566 308.252997,130.957553 308.1078,130.6724 C307.991539,130.414393 307.802735,130.195778 307.5644,130.0432 C307.264392,129.858263 306.915406,129.768523 306.5634,129.7858 C305.940774,129.795628 305.330764,129.962888 304.7902,130.272 C304.261938,130.587516 303.764073,130.95134 303.303,131.3588 L303.303,139.424 L301.158,139.424 L301.158,127.984 L302.9598,127.984 L303.2172,129.271 C303.808056,128.829718 304.440198,128.446602 305.1048,128.127 C305.770645,127.831701 306.492921,127.685294 307.2212,127.698 C307.631769,127.704716 308.038111,127.782115 308.4224,127.9268 C308.832056,128.070172 309.203709,128.3049 309.5092,128.6132 C309.844552,128.974405 310.09817,129.403604 310.2528,129.8716 C310.460559,130.458784 310.557534,131.079427 310.5388,131.702 L310.5388,139.281 L308.3652,139.3954 Z M318.6326,140.2534 C318.332565,141.122642 317.939413,141.956892 317.46,142.7416 C317.125872,143.286966 316.711259,143.778717 316.2302,144.2002 C315.836575,144.5228 315.378128,144.756901 314.886,144.8866 C314.427746,145.001453 313.957027,145.059092 313.4846,145.0582 C313.066643,145.108534 312.644157,145.108534 312.2262,145.0582 L311.2252,144.7436 L311.74,143.1134 C311.985525,143.238159 312.244643,143.334128 312.5122,143.3994 C312.816406,143.431816 313.123194,143.431816 313.4274,143.3994 C314.141772,143.359577 314.815272,143.053441 315.315,142.5414 C316.053636,141.658371 316.564301,140.607578 316.8022,139.4812 L311.7114,128.0412 L313.9422,128.0412 L317.8032,136.8786 L320.6632,128.0412 L322.7796,128.0412 L318.6326,140.2534 Z M74.36,84.5978 C74.3517654,86.5438896 74.6708131,88.477512 75.3038,90.3178 C75.9182608,92.0727299 76.8923803,93.680027 78.1638,95.0368 C79.3416121,96.3940343 80.7940823,97.485824 82.4252,98.24 C84.359178,99.0238083 86.4304243,99.4127747 88.517,99.384 C90.4654819,99.3643367 92.3976387,99.0262093 94.237,98.383 C96.0216071,97.7615876 97.744941,96.9765132 99.385,96.0378 L101.816,101.7578 C99.6559312,103.233738 97.2834764,104.371745 94.7804,105.1326 C92.1801468,105.901092 89.4838222,106.295911 86.7724,106.3052 C83.4834385,106.407619 80.2150052,105.751975 77.22,104.389 C74.6144476,103.120914 72.3272697,101.283352 70.5276,99.0122 C68.7483425,96.728185 67.4187482,94.1272268 66.6094,91.3474 C65.7305681,88.3764119 65.2874193,85.2936374 65.2938,82.1954 C65.2667385,79.1195857 65.7301528,76.0591202 66.6666,73.1292 C67.4746305,70.4559608 68.7850363,67.9613365 70.5276,65.779 C72.1546094,63.7057339 74.2267219,62.0245861 76.5908,60.8598 C79.0266119,59.6276569 81.7265202,59.0091324 84.4558,59.058 C87.1730149,59.0011953 89.8660249,59.5789684 92.3208,60.7454 C94.6386495,61.8425671 96.6738115,63.4569984 98.2696,65.4644 C99.9634122,67.6632668 101.216194,70.1688302 101.959,72.8432 C102.813235,75.9444784 103.22722,79.1504538 103.1888,82.367 L103.1888,84.5978 L74.36,84.5978 Z M94.38,78.0198 C94.3712775,76.5486861 94.1595462,75.0858158 93.7508,73.6726 C93.351779,72.3046123 92.7336276,71.0103578 91.9204,69.8402 C91.1522713,68.6486933 90.1008761,67.6660809 88.8602,66.9802 C87.5326366,66.2727132 86.0455651,65.9181796 84.5416,65.9506 C83.0659162,65.9180549 81.6041411,66.2418038 80.2802,66.8944 C79.0365634,67.5197398 77.9361259,68.3961944 77.0484,69.4684 C76.1442308,70.6224115 75.4562868,71.9304741 75.0178,73.3294 C74.5323945,74.8057471 74.2908943,76.351348 74.3028,77.9054 L94.38,78.0198 Z M168.0536,105.4472 L168.0536,76.4182 C168.062815,75.1076229 167.976788,73.7981083 167.7962,72.5 C167.636935,71.3966518 167.25763,70.3365442 166.6808,69.3826 C166.182131,68.5213856 165.46101,67.8101436 164.593,67.3234 C163.474893,66.8486042 162.255573,66.661773 161.0466,66.78 C158.451911,66.7433967 155.897822,67.4264669 153.6678,68.7534 C151.644088,69.9988898 149.730465,71.4149708 147.9478,72.9862 C147.980498,73.3381756 147.980498,73.6924244 147.9478,74.0444 L147.9478,105.5044 L139.3678,105.5044 L139.3678,76.6184 C139.378547,75.3162417 139.282895,74.0153817 139.0818,72.7288 C138.930498,71.652558 138.601915,70.6088232 138.1094,69.64 C137.608757,68.7387065 136.865694,67.9956434 135.9644,67.495 C134.838925,66.968058 133.602201,66.7226763 132.3608,66.78 C131.062197,66.7817162 129.770908,66.9744458 128.5284,67.352 C127.304436,67.7036672 126.124297,68.1929933 125.0106,68.8106 C123.946092,69.4073981 122.92364,70.0762918 121.9504,70.8126 C121.0066,71.5562 120.12,72.2998 119.2906,73.072 L119.2906,105.4472 L110.7106,105.4472 L110.7106,60.2306 L117.8034,60.2306 L118.8616,65.5216 C121.35405,63.4984995 124.129025,61.8508586 127.0984,60.631 C129.547969,59.6171696 132.169437,59.0831669 134.8204,59.058 C137.352922,58.9684806 139.847873,59.6899122 141.9418,61.1172 C143.869805,62.4534273 145.353914,64.3359544 146.2032,66.5226 C148.64384,64.2791297 151.423738,62.435517 154.44,61.06 C157.002385,59.7879656 159.81642,59.1039988 162.6768,59.058 C164.436689,59.0528861 166.188672,59.2935432 167.882,59.773 C169.522426,60.2572191 171.035985,61.0970003 172.315,62.2326 C173.672687,63.4916212 174.720152,65.0481341 175.3752,66.78 C176.216051,68.9878772 176.614478,71.339568 176.5478,73.7012 L176.5478,105.4472 L168.0536,105.4472 Z M205.205,59.058 C208.144272,59.0014415 211.06407,59.5464704 213.785,60.6596 C216.234257,61.6778629 218.430733,63.2202774 220.22,65.1784 C222.308085,67.3675674 223.898327,69.9821974 224.8818,72.8432 C225.958194,76.0496945 226.489884,79.413841 226.4548,82.796 C226.484169,86.1847666 225.922841,89.5527352 224.796,92.7488 C223.818279,95.618786 222.26067,98.2569858 220.22,100.4994 C215.270952,105.692601 207.973243,107.931277 200.963401,106.406636 C193.953559,104.881996 188.244954,99.8144461 185.9,93.0348 C184.738087,89.7770079 184.157267,86.34049 184.184,82.8818 C184.150819,79.4598854 184.732032,76.05979 185.9,72.8432 C186.923355,69.9541812 188.529588,67.3063302 190.619,65.064 C192.467689,63.1643784 194.687254,61.6651985 197.1398,60.6596 C199.691791,59.5843875 202.435813,59.0394754 205.205,59.058 Z M205.205,66.065 C201.513194,65.8725068 197.981323,67.5898386 195.8528,70.6124 C193.557967,74.2170931 192.429512,78.4413124 192.621,82.7102 C192.408889,87.0146277 193.603525,91.271147 196.0244,94.8366 C198.176929,97.8494053 201.70583,99.5708203 205.4052,99.4126 C209.024488,99.5022409 212.444724,97.7598568 214.5,94.7794 C216.797481,91.1853069 217.9356,86.9722685 217.7604,82.7102 C217.972282,78.4261605 216.831689,74.1839549 214.5,70.5838 C212.309615,67.591609 208.76634,65.8951318 205.062,66.065 L205.205,66.065 Z M251.68,105.7332 L245.1306,105.7332 L227.4558,60.2306 L236.0358,60.2306 L248.391,94.5506 L248.5626,94.5506 L262.0332,60.2306 L270.3844,60.2306 L251.68,105.7332 Z M280.28,40.4108 C281.762296,40.396176 283.186886,40.9845939 284.2268,42.041 C285.329427,43.0415881 285.944827,44.4705682 285.9142,45.9592 C285.871887,48.2283487 284.492008,50.2578525 282.397412,51.1316337 C280.302816,52.005415 277.88974,51.5581793 276.2474,49.9918 C274.122747,47.7784243 274.122747,44.2829757 276.2474,42.0696 C277.294927,40.9689217 278.761192,40.3657775 280.28,40.4108 Z M276.0472,105.4472 L276.0472,60.2306 L284.6272,60.2306 L284.6272,105.4472 L276.0472,105.4472 Z M305.1048,106.4196 C302.202739,106.486256 299.308014,106.100293 296.5248,105.2756 C294.489467,104.603419 292.525581,103.731645 290.6618,102.673 L293.5218,96.2666 C295.036449,97.2049145 296.635467,97.999636 298.298,98.6404 C300.365855,99.4474962 302.57066,99.845721 304.7902,99.813 C307.071325,99.9204473 309.332405,99.3427264 311.2824,98.1542 C312.876484,97.2275258 313.840633,95.5073966 313.7992,93.664 C313.879544,92.1785107 313.316913,90.7302569 312.2548,89.6886 C311.148609,88.5372626 309.864235,87.5715679 308.451,86.8286 C306.878,86.085 305.2478,85.3414 303.5318,84.5978 C301.781131,83.9023859 300.120038,82.9998268 298.584,81.9094 C297.042032,80.8439605 295.73721,79.4709763 294.7516,77.8768 C293.676236,75.9177231 293.152372,73.7036554 293.2358,71.4704 C293.173249,68.104892 294.596062,64.8826377 297.1254,62.6616 C300.448606,60.0271108 304.655902,58.7679931 308.88,59.1438 C310.934303,59.1252122 312.985117,59.316877 315.0004,59.7158 C316.7736,60.1448 318.3752,60.6024 319.891,61.1172 C320.653719,61.4065099 321.398625,61.7407624 322.1218,62.1182 C322.530455,62.326055 322.922482,62.5650962 323.2944,62.8332 L321.9788,65.6932 L321.0636,67.638 C320.874461,67.9803118 320.730271,68.3455929 320.6346,68.7248 C318.9472,68.0384 317.1454,67.4092 315.3436,66.8658 C313.359294,66.3209559 311.309503,66.0514998 309.2518,66.065 C307.348869,65.9900576 305.458441,66.4035888 303.7606,67.2662 C302.326812,68.0293745 301.475496,69.5639831 301.587,71.1844 C301.533386,72.5816225 302.098422,73.9314302 303.1314,74.8738 C304.308858,75.8777753 305.605647,76.7326955 306.9924,77.4192 C308.594,78.1914 310.2528,78.935 312.0546,79.7072 C313.858251,80.4567065 315.567029,81.4166943 317.1454,82.5672 C318.700763,83.6585235 320.023047,85.0488663 321.035,86.657 C322.09391,88.5499221 322.617888,90.6952646 322.5508,92.8632 C322.61324,95.0136053 322.14157,97.1459462 321.178,99.0694 C320.303095,100.747351 319.025612,102.182062 317.46,103.245 C315.769955,104.372763 313.890425,105.186581 311.9116,105.6474 C309.681282,106.173619 307.396316,106.432837 305.1048,106.4196 Z M21.8218,30.7154 L0,30.7154 C1.80324593,13.800652 16.0781672,0.972239475 33.0887621,0.979593817 C50.0993571,0.98694816 64.3631806,13.8276991 66.1518,30.744 L64.0354,30.744 C63.0228934,21.4966847 57.915137,13.1914136 50.1191208,8.11596876 C42.3231045,3.04052392 32.661314,1.73036857 23.7952,4.5464 C23.740437,4.69468693 23.6734744,4.83817839 23.595,4.9754 C26.2019196,4.24465334 28.8956155,3.86945999 31.603,3.86 C47.0083447,3.93823557 59.9442661,15.4763418 61.776,30.7726 L59.631,30.7726 C57.8324259,16.627323 45.8049545,6.02061193 31.5458,6.005 C28.4815686,6.00340188 25.4379402,6.50584212 22.5368,7.4922 C22.5368,7.6066 22.5368,7.864 22.5368,7.864 C30.2569647,5.59680629 38.5828932,6.82645071 45.3180818,11.2285348 C52.0532705,15.6306188 56.5212131,22.7629817 57.5432,30.744 L55.4554,30.744 C53.6533076,18.1865719 42.9162082,8.84943448 30.2302,8.8078 C27.3048136,8.79292986 24.3999258,9.29644375 21.6502,10.295 L21.6502,10.6668 C23.9477856,9.9560887 26.3380232,9.58984262 28.743,9.58 C40.9979365,9.60916099 51.3800194,18.6158917 53.1388,30.744 L51.051,30.744 C49.2851502,19.7713343 39.8282153,11.694797 28.7144,11.6678 C26.0813874,11.6865037 23.4705256,12.1506569 20.9924,13.0406 C21.0038687,13.1547126 21.0038687,13.2696874 20.9924,13.3838 C23.0428773,12.766705 25.1716954,12.4488272 27.313,12.44 C37.9760077,12.4659509 47.058713,20.1941116 48.7916,30.7154 L46.7038,30.7154 C44.9691393,21.3336712 36.7965276,14.5191553 27.2558,14.4992 C24.9307128,14.4889778 22.6235153,14.9058244 20.449,15.729 L20.449,16.0722 C25.5774948,14.575142 31.0995747,15.3110343 35.6570479,18.0988793 C40.2145211,20.8867244 43.3844609,25.4678142 44.3872,30.7154 L42.2422,30.7154 C40.5820831,22.9272057 33.7031626,17.3596912 25.74,17.3592 C23.7886606,17.3746701 21.8542553,17.722863 20.02,18.3888 C20.0062222,18.5027852 20.0062222,18.6180148 20.02,18.732 C24.2680322,17.5868763 28.7991787,18.2202009 32.5704346,20.4861916 C36.3416906,22.7521824 39.0281397,26.4556105 40.0114,30.744 L37.8378,30.744 C36.2291485,24.5670852 30.6642897,20.2466885 24.2814,20.2192 C22.6691142,20.2136221 21.0695361,20.5044545 19.5624,21.0772 C19.5624,21.2202 19.5624,21.449 19.5624,21.449 C20.6472228,21.1743208 21.7609901,21.0302991 22.88,21.02 C28.9145039,20.9069716 34.2585879,24.8973779 35.8644,30.7154 L33.7194,30.7154 C32.7685616,27.8760891 30.7241063,25.5335374 28.0395187,24.2073512 C25.3549312,22.8811649 22.2521466,22.6809801 19.4194,23.6512 C19.4194,23.7942 19.4194,23.9086 19.4194,24.0516 C24.5341241,22.8948916 29.7060006,25.7449518 31.46,30.6868 L29.0576,30.6868 C27.6415692,27.7954856 24.7261214,25.9402006 21.5072,25.882 C20.7220108,25.8775115 19.9407616,25.9932522 19.1906,26.2252 C19.1906,26.3968 19.1906,26.5684 19.1906,26.74 L20.02,26.74 C22.8236653,26.7764521 25.3818501,28.3464968 26.6838,30.8298 L24.167,30.8298 C23.1161848,29.5995615 21.5807249,28.8892808 19.9628,28.885 C19.6297744,28.8557481 19.2948256,28.8557481 18.9618,28.885 C18.9475603,29.1135784 18.9475603,29.3428216 18.9618,29.5714 C20.0143843,29.6306205 21.0187421,30.0323636 21.8218,30.7154 Z M64.064,37.8082 L66.1518,37.894 C64.3285502,54.7888945 50.0831573,67.6048189 33.0902,67.638 C16.0913266,67.6063299 1.83690169,54.7933637 0,37.894 L21.7074,37.894 C20.9517431,38.5451523 20.0121582,38.9449756 19.019,39.038 C19.0047603,39.2665784 19.0047603,39.4958216 19.019,39.7244 C19.3520256,39.7536519 19.6869744,39.7536519 20.02,39.7244 C21.5002252,39.7728509 22.9360957,39.2150307 23.9954,38.18 L24.31,37.751 L26.7124,37.751 C26.3490856,38.4104038 25.8967782,39.0166882 25.3682,39.5528 C23.9449185,40.9623495 22.0231371,41.7536713 20.02,41.755 L20.2774,41.755 L19.3622,41.755 C19.3622,41.898 19.3622,42.0696 19.3622,42.2412 C20.1164293,42.4512721 20.895863,42.5571212 21.6788,42.5558 C24.8923824,42.558173 27.8201957,40.7101996 29.2006,37.8082 L31.46,37.8082 C29.9798024,41.8016375 26.2220566,44.4954432 21.9648,44.615 C21.2438396,44.6126038 20.5250445,44.5359323 19.8198,44.3862 C19.8198,44.5292 19.8198,44.6722 19.8198,44.8152 C20.9728471,45.1973095 22.1800924,45.3904687 23.3948,45.3872 C26.3597307,45.3894291 29.2022505,44.2050459 31.2884,42.0982 C32.5066266,40.8696487 33.4349138,39.3843891 34.0054,37.751 L36.1504,37.751 C35.5582382,39.967119 34.394494,41.9888781 32.7756,43.614 C30.2816191,46.0898828 26.9090464,47.4779844 23.3948,47.475 C22.2662506,47.4664343 21.1428112,47.3224036 20.0486,47.046 C20.0486,47.1604 20.0486,47.2748 20.0486,47.4178 C21.5751235,47.952052 23.1789569,48.2322398 24.7962,48.2472 C31.1708834,48.2231394 36.7330497,43.9165676 38.3526,37.751 L40.5262,37.751 C38.8399069,45.0886468 32.3250417,50.3005389 24.7962,50.335 C23.2980505,50.3380146 21.8065391,50.1359388 20.3632,49.7344 C20.3494222,49.8483852 20.3494222,49.9636148 20.3632,50.0776 C22.1974553,50.743537 24.1318606,51.0917299 26.0832,51.1072 C34.0463626,51.1067088 40.9252831,45.5391943 42.5854,37.751 L44.7304,37.751 C43.0071143,46.6955123 35.1921673,53.1680144 26.0832,53.195 C24.2428684,53.1896104 22.4128508,52.9199236 20.6492,52.3942 C20.6354222,52.5081852 20.6354222,52.6234148 20.6492,52.7374 C22.8291682,53.5374663 25.1338595,53.9441766 27.456,53.9386 C36.9852823,53.9303266 45.151582,47.1230724 46.8754,37.751 L48.9632,37.751 C47.2300437,48.2880918 38.1346446,56.0288569 27.456,56.055 C25.3160574,56.0558537 23.1872111,55.7476044 21.1354,55.1398 C21.1216222,55.2537852 21.1216222,55.3690148 21.1354,55.483 C23.615071,56.3637368 26.2259773,56.8182279 28.8574,56.8272 C39.9668146,56.7883283 49.4171105,48.717461 51.194,37.751 L53.2818,37.751 C51.4985535,49.8772999 41.1140539,58.8755783 28.8574,58.915 C26.4444529,58.9147286 24.0447709,58.5581494 21.736,57.8568 L21.736,58.2286 C24.4961988,59.1805769 27.3962519,59.6639191 30.316,59.6586 C43.0064235,59.6559196 53.7608378,50.3159181 55.5412,37.751 L57.629,37.751 C55.8481211,51.4809394 44.1609471,61.7607572 30.316,61.775 C27.7131421,61.7769483 25.1230681,61.4110643 22.6226,60.6882 C22.6226,60.8026 22.6226,60.917 22.6226,61.06 C25.5286949,62.0199528 28.5710884,62.5028724 31.6316,62.49 C45.8955546,62.4599009 57.9194544,51.8440953 59.7168,37.6938 L61.8618,37.6938 C60.0128824,52.9952587 47.0443231,64.5160507 31.6316,64.5492 C28.9157264,64.5548264 26.21183,64.1891749 23.595,63.4624 C23.6522,63.634 23.7952,63.777 23.7952,63.92 C26.8020257,64.8800599 29.9341433,65.390836 33.0902,65.4358 C48.9259575,65.411052 62.2368143,53.5382102 64.064,37.8082 Z" id="Combined-Shape"></path>
        </g>
    </g>
</svg>