<?xml version="1.0" encoding="UTF-8"?>
<svg width="65px" height="57px" viewBox="0 0 65 57" version="1.1" xmlns="http://www.w3.org/2000/svg" xmlns:xlink="http://www.w3.org/1999/xlink">
    <!-- Generator: Sketch 53.2 (72643) - https://sketchapp.com -->
    <title>Combined-Shape</title>
    <desc>Created with Sketch.</desc>
    <g id="Page-1" stroke="none" stroke-width="1" fill="none" fill-rule="evenodd">
        <g id="ericsson" transform="translate(0.000000, -1.000000)" fill="#FFFFFF" fill-rule="nonzero">
            <path d="M22.89539,15.92337 C21.6245457,16.3911812 20.2006165,16.144686 19.1609748,15.2769086 C18.1213331,14.4091311 17.6242739,13.0521984 17.8573809,11.7181993 C18.0904879,10.3842001 19.0182683,9.27624813 20.29059,8.81247 L41.04425,1.2313 C41.9879147,0.871366057 43.0369708,0.907951866 43.953268,1.33275194 C44.8695651,1.75755202 45.5753718,2.5345296 45.91046,3.4873 C46.2590092,4.41363917 46.2158308,5.4418971 45.7908482,6.33575427 C45.3658657,7.22961144 44.5956297,7.91219135 43.65716,8.22662 L22.89539,15.92337 Z M22.89539,27.17478 C21.6248808,27.6412881 20.2019808,27.3941744 19.1631592,26.5266071 C18.1243375,25.6590398 17.6275834,24.3029628 17.8601856,22.9696513 C18.0927878,21.6363398 19.019371,20.5285703 20.29059,20.064 L41.04425,12.49149 C41.9866333,12.1273523 43.0364051,12.1609711 43.9535583,12.5846603 C44.8707115,13.0083494 45.5768244,13.7858812 45.91046,14.73949 C46.2601656,15.6653204 46.2175042,16.6936781 45.792316,17.5873621 C45.3671278,18.481046 44.5961296,19.1628828 43.65716,19.4756 L22.89539,27.17478 Z M22.89539,38.42429 C21.6242408,38.8936686 20.1991636,38.6479697 19.1585839,37.7800236 C18.1180042,36.9120775 17.6205778,35.5542188 17.8542434,34.2194766 C18.087909,32.8847343 19.0170399,31.7766148 20.29059,31.31379 L41.04425,23.7421 C41.9863069,23.3774329 43.0359987,23.4105264 43.9532139,23.8338107 C44.8704291,24.257095 45.5766961,25.0343562 45.91046,25.9878 C46.2601631,26.9137953 46.2175144,27.9422977 45.7923474,28.8361615 C45.3671805,29.7300254 44.596195,30.4120939 43.65716,30.7251 L22.89539,38.42429 Z M0,47.781 L6.882,47.781 L6.882,49.674 L2.379,49.674 L2.379,51.214 L6.763,51.214 L6.763,53.224 L2.379,53.224 L2.379,54.882 L6.999,54.882 L6.999,56.902 L0,56.902 L0,47.781 Z M17.79358,47.78119 L20.29059,47.78119 L20.29059,56.90238 L17.79358,56.90238 L17.79358,47.78119 Z M29.3053,48.01639 L29.187,49.90928 C27.1718,48.8502 24.08525,49.20298 24.08525,52.16528 C23.9669,55.24478 27.1718,55.71557 29.30534,54.64648 L29.42314,56.65719 C25.74644,57.72619 21.46989,56.65719 21.46989,52.16528 C21.46985,47.89878 25.8642,46.7118 29.3053,48.01639 Z M36.65839,47.89878 L36.54059,49.79169 C35.23285,49.08539 32.86377,49.08539 32.86377,50.1449 C32.86377,51.80219 37.13025,50.62519 37.13025,54.05808 C37.13025,57.37308 33.09985,57.49079 30.48456,56.6572 L30.61249,54.64649 C32.2641,55.36249 34.64325,55.59788 34.64325,54.29349 C34.64325,52.75357 30.36676,53.58728 30.36676,50.37998 C30.36676,47.66318 33.68958,46.9473 36.65839,47.89878 Z M44.1286,47.89878 L44.01276,49.79169 C42.7063,49.08539 40.33319,49.08539 40.33319,50.1449 C40.33319,51.80219 44.6001,50.62519 44.6001,54.05808 C44.6001,57.37308 40.57288,57.49079 37.96601,56.6572 L38.08387,54.64649 C39.74549,55.36249 42.115,55.59788 42.115,54.29349 C42.115,52.75357 37.84822,53.58728 37.84822,50.37998 C37.84821,47.66318 41.16016,46.9473 44.1286,47.89878 Z M55.643,47.781 L58.719,47.781 L61.687,53.587 L61.687,47.781 L64.056,47.781 L64.056,56.902 L61.096,56.902 L57.892,50.861 L57.892,56.902 L55.643,56.902 L55.643,47.781 Z M47.924,52.2829 C47.924,53.70499 48.5233,55.24478 49.82171,55.24478 C51.24804,55.24478 51.83532,53.70499 51.83532,52.2829 C51.83532,51.09629 51.24804,49.32099 49.82171,49.32099 C48.52325,49.321 47.924,50.86069 47.924,52.2829 Z M49.82171,47.5456 C52.43865,47.5456 54.4522,48.96778 54.4522,52.2829 C54.4522,55.4802 52.43865,57.01999 49.82171,57.01999 C47.33271,57.01999 45.31921,55.4802 45.31921,52.2829 C45.31915,48.96778 47.3327,47.5456 49.82166,47.5456 L49.82171,47.5456 Z M8.77875,47.78119 L13.17316,47.78119 C14.47077,47.78119 16.13196,48.25189 16.13196,50.1449 C16.1976963,51.199888 15.4977624,52.1502651 14.47077,52.40048 C14.8658122,52.5243188 15.1768671,52.8310991 15.30616,53.22439 C15.30616,53.34207 16.61378,56.78466 16.61378,56.90239 L13.9989,56.90239 L13.0549,54.05809 C12.9267525,53.7052456 12.5948248,53.4675214 12.21951,53.45979 C11.74759,53.45979 11.15762,53.34208 11.15762,53.45979 L11.15762,56.90239 L8.77875,56.90239 L8.77875,47.78119 Z M11.1576,51.56699 L12.4552,51.56699 C12.7561112,51.5956755 13.0553762,51.4977537 13.281128,51.29674 C13.5068799,51.0957264 13.6387245,50.8097802 13.645,50.50757 C13.645,49.90927 13.1732,49.55609 12.45524,49.55609 L11.15759,49.55609 L11.1576,51.56699 Z" id="Combined-Shape"></path>
        </g>
    </g>
</svg>