<?xml version="1.0" encoding="UTF-8"?>
<svg width="128px" height="43px" viewBox="0 0 128 43" version="1.1" xmlns="http://www.w3.org/2000/svg" xmlns:xlink="http://www.w3.org/1999/xlink">
    <!-- Generator: Sketch 54 (76480) - https://sketchapp.com -->
    <title>Combined Shape</title>
    <desc>Created with Sketch.</desc>
    <g id="Page-1" stroke="none" stroke-width="1" fill="none" fill-rule="evenodd">
        <g id="euFondovi" fill="#FFFFFF" fill-rule="nonzero">
            <path d="M15.4373322,30.4686534 L21.2659,28.9068 L24.0999,39.4828 L13.5239,42.3158 L11.3276217,34.1204425 L14.7141,36.5611 L13.2221,32.0741 L15.4373322,30.4686534 Z M7.75640257,31.563434 L2.3759,33.0054 L0.3779,25.5464 L7.8359,23.5474 L9.37334723,29.2841778 L4.5941,29.3021 L7.75640257,31.563434 Z M33.1253,17.055 L30.7383,8.149 L39.6443,5.762 L42.0303,14.669 L33.126,17.0548124 L33.126,28.911 L21.268,28.911 L21.268,17.054 L33.126,17.054 L33.1253,17.055 Z M39.954,5.432 L39.954,0.251 L45.134,0.251 L45.134,5.432 L39.954,5.432 Z M30.8105,19.4537 L32.0105,27.7277 L32.0105,18.1827 L22.4115,18.1827 L30.8105,19.4537 Z M31.8135,8.813 L33.7345,15.983 L40.9445,14.052 L34.3795,14.788 L31.8135,8.813 Z M6.5791,29.9351 L9.8661,29.9221 L10.8371,26.8041 L11.8471,29.9221 L15.1281,29.9021 L12.4661,31.8311 L13.4811,34.8831 L10.8611,32.9941 L8.2701,34.9031 L9.2491,31.8431 L6.5791,29.9351 Z M41.5566,28.8326 C41.5566,28.9376 41.5086,28.9866 41.3946,29.0036 C41.1106,29.0436 40.6956,29.1076 39.8186,29.1076 C38.7706,29.1076 37.8436,28.8406 37.8436,27.3606 L37.8436,24.6636 C37.8436,23.1856 38.7786,22.9246 39.8266,22.9246 C40.7036,22.9246 41.1106,22.9896 41.3946,23.0306 C41.5086,23.0466 41.5566,23.0866 41.5566,23.1926 L41.5566,23.9486 C41.5566,24.0376 41.4846,24.1106 41.3946,24.1106 L39.7446,24.1106 C39.3636,24.1106 39.2256,24.2406 39.2256,24.6636 L39.2256,25.4026 L41.3296,25.4026 C41.4186,25.4026 41.4926,25.4766 41.4926,25.5646 L41.4926,26.3376 C41.4926,26.4266 41.4186,26.4996 41.3296,26.4996 L39.2256,26.4996 L39.2256,27.3606 C39.2256,27.7836 39.3636,27.9136 39.7446,27.9136 L41.3946,27.9136 C41.4846,27.9136 41.5566,27.9866 41.5566,28.0766 L41.5566,28.8326 Z M47.3193,26.7681 C47.3193,28.6211 46.2623,29.1081 44.9703,29.1081 C43.6783,29.1081 42.6303,28.6211 42.6303,26.7681 L42.6303,23.1521 C42.6303,23.0631 42.7033,22.9971 42.7923,22.9971 L43.8573,22.9971 C43.9463,22.9971 44.0193,23.0631 44.0193,23.1521 L44.0193,26.7681 C44.0193,27.5971 44.2393,27.9471 44.9703,27.9471 C45.7023,27.9471 45.9293,27.5971 45.9293,26.7681 L45.9293,23.1521 C45.9293,23.0631 46.0033,22.9971 46.0913,22.9971 L47.1483,22.9971 C47.2373,22.9971 47.3193,23.0631 47.3193,23.1521 L47.3193,26.7681 Z M53.1699,28.938 C53.1699,28.995 53.1379,29.036 53.0479,29.036 L51.8049,29.036 C51.7159,29.036 51.6829,28.954 51.6429,28.873 L50.5539,26.817 L50.4639,26.825 C50.2929,26.825 50.0409,26.809 49.8869,26.809 L49.8869,28.873 C49.8869,28.962 49.8149,29.036 49.7249,29.036 L48.6679,29.036 C48.5779,29.036 48.5059,28.962 48.5059,28.873 L48.5059,23.42 C48.5059,23.144 48.6189,23.071 48.8709,23.03 C49.2449,22.973 49.9359,22.924 50.5209,22.924 C51.9019,22.924 52.9669,23.387 52.9669,24.827 L52.9669,24.931 C52.9669,25.793 52.5119,26.322 51.9189,26.557 L53.1459,28.848 C53.1619,28.881 53.1699,28.914 53.1699,28.938 Z M51.5849,24.931 L51.5849,24.827 C51.5849,24.331 51.2029,24.103 50.5209,24.103 C50.4069,24.103 49.9839,24.119 49.8869,24.127 L49.8869,25.688 C49.9769,25.695 50.3749,25.704 50.4639,25.704 C51.3169,25.704 51.5849,25.484 51.5849,24.931 Z M58.6064,26.5005 C58.6064,28.3855 57.5424,29.1085 56.2014,29.1085 C54.8604,29.1085 53.7954,28.3855 53.7954,26.5005 L53.7954,25.5335 C53.7954,23.6475 54.8604,22.9245 56.2014,22.9245 C57.5424,22.9245 58.6064,23.6475 58.6064,25.5335 L58.6064,26.5005 Z M57.2094,26.5005 L57.2094,25.5335 C57.2094,24.5585 56.8834,24.1445 56.2014,24.1445 C55.5184,24.1445 55.2014,24.5585 55.2014,25.5335 L55.2014,26.5005 C55.2014,27.4755 55.5184,27.8905 56.2014,27.8905 C56.8834,27.8905 57.2094,27.4755 57.2094,26.5005 Z M64.1328,24.9556 C64.1328,26.4766 62.9218,26.9226 61.7108,26.9226 C61.5158,26.9226 61.2558,26.9066 61.0528,26.8976 L61.0528,28.8736 C61.0528,28.9626 60.9798,29.0356 60.8898,29.0356 L59.8418,29.0356 C59.7528,29.0356 59.6798,28.9706 59.6798,28.8806 L59.6798,23.4206 C59.6798,23.1436 59.7928,23.0706 60.0448,23.0306 C60.4588,22.9656 61.1098,22.9246 61.6948,22.9246 C62.9218,22.9246 64.1328,23.3546 64.1328,24.8836 L64.1328,24.9556 Z M62.7508,24.9556 L62.7508,24.8836 C62.7508,24.3066 62.3938,24.0786 61.7108,24.0786 C61.5978,24.0786 61.1508,24.0946 61.0528,24.1026 L61.0528,25.7606 C61.1428,25.7686 61.6218,25.7766 61.7108,25.7766 C62.4348,25.7766 62.7508,25.5086 62.7508,24.9556 Z M68.9111,27.3287 C68.9111,28.1897 68.3421,29.1077 66.6921,29.1077 C66.0511,29.1077 65.5711,29.0357 65.1561,28.9307 C65.0751,28.9047 64.9941,28.8567 64.9941,28.7667 L64.9941,27.9717 C64.9941,27.8567 65.0591,27.8157 65.1401,27.8157 L65.1651,27.8157 C65.4981,27.8487 66.3911,27.9147 66.7091,27.9147 C67.2691,27.9147 67.4321,27.7347 67.4321,27.3457 C67.4321,27.1097 67.3181,26.9797 66.8951,26.7277 L65.7741,26.0607 C65.0181,25.6147 64.8151,25.1017 64.8151,24.5097 C64.8151,23.6157 65.3181,22.9257 66.8951,22.9257 C67.4891,22.9257 68.3091,23.0217 68.6181,23.1027 C68.6831,23.1197 68.7401,23.1607 68.7401,23.2497 L68.7401,24.0697 C68.7401,24.1437 68.7081,24.2087 68.6021,24.2087 L68.5861,24.2087 C68.3581,24.1917 67.4161,24.1187 66.8621,24.1187 C66.4001,24.1187 66.2291,24.2577 66.2291,24.5497 C66.2291,24.7767 66.3351,24.8837 66.7731,25.1187 L67.8141,25.6797 C68.6591,26.1347 68.9111,26.6707 68.9111,27.3287 Z M74.624,23.0875 C74.624,23.1195 74.607,23.1605 74.583,23.2005 L72.649,25.9475 L74.591,28.8645 C74.616,28.8985 74.624,28.9305 74.624,28.9535 C74.624,29.0025 74.583,29.0355 74.51,29.0355 L73.112,29.0355 C73.015,29.0355 72.975,28.9865 72.934,28.9215 L71.284,26.2395 L71.284,28.8725 C71.284,28.9625 71.211,29.0355 71.122,29.0355 L70.057,29.0355 C69.968,29.0355 69.895,28.9625 69.895,28.8725 L69.895,23.1515 C69.895,23.0635 69.968,22.9975 70.057,22.9975 L71.122,22.9975 C71.211,22.9975 71.284,23.0635 71.284,23.1515 L71.284,25.7355 L73.072,23.0955 C73.112,23.0295 73.161,22.9975 73.251,22.9975 L74.494,22.9975 C74.583,22.9975 74.624,23.0385 74.624,23.0875 Z M76.8672,28.8726 C76.8672,28.9626 76.8022,29.0356 76.7132,29.0356 L75.6242,29.0356 C75.5342,29.0356 75.4772,28.9626 75.4772,28.8726 L75.4772,23.1516 C75.4772,23.0626 75.5342,22.9976 75.6242,22.9976 L76.7132,22.9976 C76.8022,22.9976 76.8672,23.0626 76.8672,23.1516 L76.8672,28.8726 Z M83.6846,27.4673 C83.6846,28.2473 83.2786,29.0923 81.6776,29.0923 C81.1096,29.0923 80.6866,29.0353 80.3296,28.9793 C80.1906,28.9533 80.1746,28.9213 80.1746,28.8313 L80.1746,28.5073 C80.1746,28.4173 80.2396,28.3763 80.3126,28.3763 L80.3366,28.3763 C80.7106,28.4093 81.3036,28.4253 81.6776,28.4253 C82.6536,28.4253 82.9136,28.0353 82.9136,27.4673 C82.9136,27.0613 82.6766,26.8333 81.9376,26.3783 L81.1496,25.8993 C80.4016,25.4443 80.0286,25.0293 80.0286,24.3793 C80.0286,23.3963 80.7356,22.9413 81.9706,22.9413 C82.4506,22.9413 83.0756,22.9893 83.3846,23.0383 C83.4656,23.0543 83.5226,23.0953 83.5226,23.1763 L83.5226,23.5263 C83.5226,23.6073 83.4656,23.6553 83.3846,23.6553 L83.3686,23.6553 C83.0106,23.6313 82.4416,23.6073 81.9706,23.6073 C81.1326,23.6073 80.7756,23.7853 80.7756,24.3793 C80.7756,24.7613 81.0436,24.9883 81.6616,25.3633 L82.4096,25.8093 C83.3516,26.3693 83.6846,26.8173 83.6846,27.4673 Z M88.6709,23.5015 C88.6709,23.5825 88.6069,23.6315 88.5169,23.6315 L86.9319,23.6315 L86.9319,28.8725 C86.9319,28.9535 86.8749,29.0345 86.7859,29.0345 L86.3389,29.0345 C86.2579,29.0345 86.1919,28.9625 86.1919,28.8725 L86.1919,23.6315 L84.6089,23.6315 C84.5189,23.6315 84.4449,23.5905 84.4449,23.5015 L84.4449,23.1445 C84.4449,23.0625 84.5189,22.9975 84.6089,22.9975 L88.5169,22.9975 C88.6069,22.9975 88.6709,23.0545 88.6709,23.1445 L88.6709,23.5015 Z M93.7871,28.9293 C93.7871,28.9873 93.7461,29.0353 93.6821,29.0353 L93.1611,29.0353 C93.0631,29.0353 93.0151,29.0353 92.9491,28.9293 L91.4951,26.5083 L91.4221,26.5083 L91.2841,26.5083 C91.0161,26.5083 90.8211,26.5003 90.3911,26.4843 L90.3911,28.8723 C90.3911,28.9533 90.3341,29.0353 90.2441,29.0353 L89.8061,29.0353 C89.7241,29.0353 89.6591,28.9623 89.6591,28.8723 L89.6591,23.1843 C89.6591,23.0713 89.7081,23.0223 89.8541,23.0063 C90.2031,22.9653 90.8121,22.9413 91.2841,22.9413 C92.5681,22.9413 93.5591,23.3713 93.5591,24.6883 L93.5591,24.7443 C93.5591,25.6553 93.0231,26.1913 92.2841,26.3863 L93.7631,28.8573 C93.7781,28.8803 93.7871,28.9063 93.7871,28.9293 Z M92.8281,24.7443 L92.8281,24.6883 C92.8281,23.8753 92.3001,23.6073 91.2841,23.6073 C91.0321,23.6073 90.5851,23.6073 90.3911,23.6313 L90.3911,25.8593 C90.7481,25.8663 91.0971,25.8743 91.2841,25.8743 C92.2841,25.8743 92.8281,25.6223 92.8281,24.7443 Z M98.9434,26.8414 C98.9434,28.3934 98.1794,29.0924 96.8634,29.0924 C95.5474,29.0924 94.7834,28.3934 94.7834,26.8414 L94.7834,23.1524 C94.7834,23.0704 94.8474,22.9974 94.9374,22.9974 L95.3764,22.9974 C95.4584,22.9974 95.5304,23.0634 95.5304,23.1524 L95.5304,26.8414 C95.5304,27.8904 95.8554,28.4584 96.8634,28.4584 C97.8714,28.4584 98.1964,27.8984 98.1964,26.8414 L98.1964,23.1524 C98.1964,23.0704 98.2604,22.9974 98.3504,22.9974 L98.7894,22.9974 C98.8704,22.9974 98.9434,23.0634 98.9434,23.1524 L98.9434,26.8414 Z M104.2061,28.9537 C104.2061,28.9947 104.1731,29.0357 104.1011,29.0357 L103.4671,29.0357 C103.3941,29.0357 103.3371,29.0117 103.2881,28.9537 L100.9961,26.1667 L100.9961,28.8727 C100.9961,28.9537 100.9391,29.0357 100.8501,29.0357 L100.4031,29.0357 C100.3211,29.0357 100.2571,28.9627 100.2571,28.8727 L100.2571,23.1517 C100.2571,23.0707 100.3211,22.9977 100.4111,22.9977 L100.8421,22.9977 C100.9231,22.9977 100.9961,23.0627 100.9961,23.1517 L100.9961,25.7767 L103.3371,23.0707 C103.3861,23.0217 103.4181,22.9977 103.4991,22.9977 L104.0841,22.9977 C104.1651,22.9977 104.1971,23.0387 104.1971,23.0877 C104.1971,23.1117 104.1901,23.1437 104.1651,23.1687 L101.7201,25.9317 L104.1651,28.8567 C104.1901,28.8817 104.2061,28.9217 104.2061,28.9537 Z M109.0215,23.5015 C109.0215,23.5825 108.9565,23.6315 108.8665,23.6315 L107.2825,23.6315 L107.2825,28.8725 C107.2825,28.9535 107.2255,29.0345 107.1355,29.0345 L106.6895,29.0345 C106.6075,29.0345 106.5425,28.9625 106.5425,28.8725 L106.5425,23.6315 L104.9585,23.6315 C104.8695,23.6315 104.7955,23.5905 104.7955,23.5015 L104.7955,23.1445 C104.7955,23.0625 104.8695,22.9975 104.9585,22.9975 L108.8665,22.9975 C108.9565,22.9975 109.0215,23.0545 109.0215,23.1445 L109.0215,23.5015 Z M114.1455,26.8414 C114.1455,28.3934 113.3815,29.0924 112.0655,29.0924 C110.7495,29.0924 109.9845,28.3934 109.9845,26.8414 L109.9845,23.1524 C109.9845,23.0704 110.0495,22.9974 110.1385,22.9974 L110.5785,22.9974 C110.6595,22.9974 110.7325,23.0634 110.7325,23.1524 L110.7325,26.8414 C110.7325,27.8904 111.0575,28.4584 112.0655,28.4584 C113.0725,28.4584 113.3975,27.8984 113.3975,26.8414 L113.3975,23.1524 C113.3975,23.0704 113.4625,22.9974 113.5515,22.9974 L113.9915,22.9974 C114.0725,22.9974 114.1455,23.0634 114.1455,23.1524 L114.1455,26.8414 Z M119.5869,28.9293 C119.5869,28.9873 119.5459,29.0353 119.4809,29.0353 L118.9599,29.0353 C118.8629,29.0353 118.8149,29.0353 118.7499,28.9293 L117.2949,26.5083 L117.2219,26.5083 L117.0839,26.5083 C116.8159,26.5083 116.6199,26.5003 116.1899,26.4843 L116.1899,28.8723 C116.1899,28.9533 116.1329,29.0353 116.0429,29.0353 L115.6049,29.0353 C115.5239,29.0353 115.4589,28.9623 115.4589,28.8723 L115.4589,23.1843 C115.4589,23.0713 115.5069,23.0223 115.6529,23.0063 C116.0029,22.9653 116.6119,22.9413 117.0839,22.9413 C118.3679,22.9413 119.3579,23.3713 119.3579,24.6883 L119.3579,24.7443 C119.3579,25.6553 118.8219,26.1913 118.0829,26.3863 L119.5629,28.8573 C119.5779,28.8803 119.5869,28.9063 119.5869,28.9293 Z M118.6279,24.7443 L118.6279,24.6883 C118.6279,23.8753 118.0999,23.6073 117.0839,23.6073 C116.8319,23.6073 116.3849,23.6073 116.1899,23.6313 L116.1899,25.8593 C116.5479,25.8663 116.8969,25.8743 117.0839,25.8743 C118.0829,25.8743 118.6279,25.6223 118.6279,24.7443 Z M124.8652,28.7994 C124.8652,28.9304 124.7602,29.0354 124.6302,29.0354 L124.1252,29.0354 C123.9962,29.0354 123.9062,28.9864 123.8652,28.9044 L121.3542,24.1354 C121.3462,24.1184 121.3392,24.1114 121.3302,24.1114 C121.3222,24.1114 121.3222,24.1184 121.3222,24.1354 L121.3222,28.8814 C121.3222,28.9624 121.2572,29.0354 121.1762,29.0354 L120.7532,29.0354 C120.6722,29.0354 120.6072,29.0194 120.6072,28.9384 L120.6072,23.2254 C120.6072,23.0954 120.7132,22.9974 120.8432,22.9974 L121.2902,22.9974 C121.5162,22.9974 121.5572,23.0384 121.6232,23.1604 L124.1172,27.9054 L124.1342,27.9304 C124.1412,27.9304 124.1412,27.9144 124.1412,27.9054 L124.1412,23.1524 C124.1412,23.0704 124.2072,22.9974 124.2882,22.9974 L124.7192,22.9974 C124.8072,22.9974 124.8652,23.0704 124.8652,23.1524 L124.8652,28.7994 Z M127.0234,28.8726 C127.0234,28.9536 126.9664,29.0356 126.8774,29.0356 L126.4294,29.0356 C126.3484,29.0356 126.2844,28.9626 126.2844,28.8726 L126.2844,23.1516 C126.2844,23.0706 126.3404,22.9976 126.4294,22.9976 L126.8774,22.9976 C126.9584,22.9976 127.0234,23.0626 127.0234,23.1516 L127.0234,28.8726 Z M38.8945,39.3179 C38.8945,39.3989 38.8375,39.4799 38.7485,39.4799 L38.3015,39.4799 C38.2205,39.4799 38.1555,39.4069 38.1555,39.3179 L38.1555,33.5969 C38.1555,33.5159 38.2115,33.4429 38.3015,33.4429 L38.7485,33.4429 C38.8305,33.4429 38.8945,33.5069 38.8945,33.5969 L38.8945,39.3179 Z M43.0713,39.3179 C43.0713,39.3989 43.0143,39.4799 42.9253,39.4799 L42.4783,39.4799 C42.3973,39.4799 42.3323,39.4069 42.3323,39.3179 L42.3323,33.5969 C42.3323,33.5159 42.3883,33.4429 42.4783,33.4429 L42.9253,33.4429 C43.0073,33.4429 43.0713,33.5069 43.0713,33.5969 L43.0713,39.3179 Z M48.6787,39.2447 C48.6787,39.3747 48.5727,39.4797 48.4427,39.4797 L47.9387,39.4797 C47.8087,39.4797 47.7197,39.4317 47.6797,39.3507 L45.1677,34.5807 C45.1597,34.5637 45.1527,34.5567 45.1437,34.5567 C45.1347,34.5567 45.1347,34.5637 45.1347,34.5807 L45.1347,39.3257 C45.1347,39.4067 45.0707,39.4797 44.9897,39.4797 L44.5667,39.4797 C44.4857,39.4797 44.4207,39.4647 44.4207,39.3837 L44.4207,33.6707 C44.4207,33.5407 44.5257,33.4427 44.6567,33.4427 L45.1027,33.4427 C45.3307,33.4427 45.3707,33.4827 45.4367,33.6047 L47.9307,38.3507 L47.9477,38.3757 C47.9547,38.3757 47.9547,38.3587 47.9547,38.3507 L47.9547,33.5977 C47.9547,33.5157 48.0207,33.4427 48.1017,33.4427 L48.5327,33.4427 C48.6217,33.4427 48.6787,33.5157 48.6787,33.5977 L48.6787,39.2447 Z M54.0742,33.5806 C54.0742,33.5976 54.0742,33.6136 54.0662,33.6296 L52.5712,38.9206 C52.4252,39.4316 52.0512,39.5366 51.7422,39.5366 C51.4412,39.5366 51.0592,39.4316 50.9132,38.9206 L49.4102,33.6296 C49.4022,33.6136 49.4022,33.5976 49.4022,33.5806 C49.4022,33.4996 49.4672,33.4426 49.5482,33.4426 L50.0192,33.4426 C50.0842,33.4426 50.1492,33.4996 50.1652,33.5646 L51.5792,38.7406 C51.6122,38.8536 51.6522,38.9116 51.7422,38.9116 C51.8232,38.9116 51.8632,38.8536 51.8962,38.7406 L53.3182,33.5646 C53.3352,33.4996 53.3912,33.4426 53.4572,33.4426 L53.9352,33.4426 C54.0162,33.4426 54.0742,33.4996 54.0742,33.5806 Z M58.1699,39.3824 C58.1699,39.4324 58.1379,39.4884 58.0889,39.4964 C57.7799,39.5284 56.9829,39.5364 56.5039,39.5364 C55.3659,39.5364 54.7739,39.1074 54.7739,38.0264 L54.7739,34.8974 C54.7739,33.8164 55.3659,33.3864 56.5039,33.3864 C56.9829,33.3864 57.7469,33.4024 58.0889,33.4354 C58.1379,33.4434 58.1699,33.4994 58.1699,33.5484 L58.1699,33.9544 C58.1699,34.0114 58.1379,34.0524 58.0799,34.0524 L56.5129,34.0524 C55.6499,34.0524 55.5119,34.2794 55.5119,34.8974 L55.5119,36.0274 L58.0069,36.0274 C58.0969,36.0274 58.1699,36.1004 58.1699,36.1904 L58.1699,36.4974 C58.1699,36.5874 58.0969,36.6604 58.0069,36.6604 L55.5119,36.6604 L55.5119,38.0264 C55.5119,38.6434 55.6499,38.8704 56.5129,38.8704 L58.0799,38.8704 C58.1379,38.8704 58.1699,38.9114 58.1699,38.9684 L58.1699,39.3824 Z M62.6797,37.9117 C62.6797,38.6927 62.2737,39.5377 60.6717,39.5377 C60.1037,39.5377 59.6817,39.4797 59.3237,39.4237 C59.1857,39.3987 59.1687,39.3667 59.1687,39.2767 L59.1687,38.9517 C59.1687,38.8627 59.2347,38.8217 59.3077,38.8217 L59.3307,38.8217 C59.7047,38.8547 60.2987,38.8707 60.6717,38.8707 C61.6477,38.8707 61.9087,38.4807 61.9087,37.9117 C61.9087,37.5057 61.6717,37.2787 60.9327,36.8237 L60.1447,36.3447 C59.3967,35.8897 59.0237,35.4737 59.0237,34.8237 C59.0237,33.8417 59.7297,33.3867 60.9647,33.3867 C61.4447,33.3867 62.0707,33.4337 62.3787,33.4827 C62.4597,33.4997 62.5177,33.5407 62.5177,33.6217 L62.5177,33.9717 C62.5177,34.0527 62.4597,34.1007 62.3787,34.1007 L62.3637,34.1007 C62.0047,34.0767 61.4367,34.0527 60.9647,34.0527 C60.1277,34.0527 59.7707,34.2307 59.7707,34.8237 C59.7707,35.2067 60.0387,35.4337 60.6567,35.8077 L61.4037,36.2547 C62.3467,36.8147 62.6797,37.2627 62.6797,37.9117 Z M67.5957,33.9468 C67.5957,34.0278 67.5307,34.0768 67.4417,34.0768 L65.8577,34.0768 L65.8577,39.3178 C65.8577,39.3988 65.7997,39.4798 65.7107,39.4798 L65.2637,39.4798 C65.1827,39.4798 65.1167,39.4068 65.1167,39.3178 L65.1167,34.0768 L63.5337,34.0768 C63.4437,34.0768 63.3707,34.0358 63.3707,33.9468 L63.3707,33.5898 C63.3707,33.5078 63.4437,33.4428 63.5337,33.4428 L67.4417,33.4428 C67.5307,33.4428 67.5957,33.4998 67.5957,33.5898 L67.5957,33.9468 Z M69.335,39.3179 C69.335,39.3989 69.277,39.4799 69.189,39.4799 L68.741,39.4799 C68.66,39.4799 68.596,39.4069 68.596,39.3179 L68.596,33.5969 C68.596,33.5159 68.652,33.4429 68.741,33.4429 L69.189,33.4429 C69.27,33.4429 69.335,33.5069 69.335,33.5969 L69.335,39.3179 Z M74.1943,39.2691 C74.1943,39.3671 74.1213,39.4151 74.0313,39.4311 C73.6903,39.4971 73.3733,39.5381 72.6823,39.5381 C71.6833,39.5381 70.5373,39.0001 70.5373,37.0271 L70.5373,35.8971 C70.5373,33.9061 71.6833,33.3861 72.6823,33.3861 C73.1953,33.3861 73.6903,33.4591 74.0483,33.5161 C74.1213,33.5241 74.1773,33.5481 74.1773,33.6221 L74.1773,34.0361 C74.1773,34.0841 74.1623,34.1251 74.0803,34.1251 L74.0553,34.1251 C73.7633,34.1011 73.1623,34.0521 72.6903,34.0521 C71.8943,34.0521 71.2773,34.5161 71.2773,35.8971 L71.2773,37.0271 C71.2773,38.3911 71.8943,38.8711 72.6903,38.8711 C73.1543,38.8711 73.7383,38.8311 74.0313,38.8061 L74.0633,38.8061 C74.1533,38.8061 74.1943,38.8461 74.1943,38.9361 L74.1943,39.2691 Z M75.9326,39.3179 C75.9326,39.3989 75.8756,39.4799 75.7866,39.4799 L75.3396,39.4799 C75.2586,39.4799 75.1936,39.4069 75.1936,39.3179 L75.1936,33.5969 C75.1936,33.5159 75.2496,33.4429 75.3396,33.4429 L75.7866,33.4429 C75.8686,33.4429 75.9326,33.5069 75.9326,33.5969 L75.9326,39.3179 Z M78.1025,39.7808 C78.1025,40.5608 77.7375,40.9428 76.8425,40.9428 C76.6645,40.9428 76.4605,40.9028 76.4125,40.8788 C76.3795,40.8618 76.3635,40.8298 76.3635,40.7888 L76.3635,40.4888 C76.3635,40.3988 76.4375,40.3498 76.5265,40.3498 L76.8425,40.3498 C77.2735,40.3498 77.3635,40.1788 77.3635,39.7808 L77.3635,33.5968 C77.3635,33.5158 77.4365,33.4428 77.5175,33.4428 L77.9485,33.4428 C78.0295,33.4428 78.1025,33.5158 78.1025,33.5968 L78.1025,39.7808 Z M82.7988,37.9117 C82.7988,38.6927 82.3938,39.5377 80.7928,39.5377 C80.2238,39.5377 79.8008,39.4797 79.4438,39.4237 C79.3048,39.3987 79.2888,39.3667 79.2888,39.2767 L79.2888,38.9517 C79.2888,38.8627 79.3538,38.8217 79.4268,38.8217 L79.4508,38.8217 C79.8248,38.8547 80.4188,38.8707 80.7928,38.8707 C81.7678,38.8707 82.0278,38.4807 82.0278,37.9117 C82.0278,37.5057 81.7918,37.2787 81.0518,36.8237 L80.2648,36.3447 C79.5168,35.8897 79.1428,35.4737 79.1428,34.8237 C79.1428,33.8417 79.8498,33.3867 81.0848,33.3867 C81.5648,33.3867 82.1898,33.4337 82.4988,33.4827 C82.5798,33.4997 82.6368,33.5407 82.6368,33.6217 L82.6368,33.9717 C82.6368,34.0527 82.5798,34.1007 82.4988,34.1007 L82.4828,34.1007 C82.1248,34.0767 81.5568,34.0527 81.0848,34.0527 C80.2478,34.0527 79.8908,34.2307 79.8908,34.8237 C79.8908,35.2067 80.1578,35.4337 80.7768,35.8077 L81.5238,36.2547 C82.4658,36.8147 82.7988,37.2627 82.7988,37.9117 Z M87.7891,39.399 C87.7891,39.44 87.7571,39.48 87.6841,39.48 L87.0491,39.48 C86.9771,39.48 86.9191,39.456 86.8711,39.399 L84.5791,36.612 L84.5791,39.318 C84.5791,39.399 84.5211,39.48 84.4341,39.48 L83.9861,39.48 C83.9041,39.48 83.8391,39.407 83.8391,39.318 L83.8391,33.597 C83.8391,33.516 83.9041,33.443 83.9941,33.443 L84.4251,33.443 C84.5061,33.443 84.5791,33.508 84.5791,33.597 L84.5791,36.222 L86.9191,33.516 C86.9681,33.467 87.0011,33.443 87.0821,33.443 L87.6671,33.443 C87.7481,33.443 87.7801,33.483 87.7801,33.533 C87.7801,33.556 87.7721,33.589 87.7481,33.614 L85.3021,36.377 L87.7481,39.302 C87.7721,39.326 87.7891,39.367 87.7891,39.399 Z M89.5928,39.3179 C89.5928,39.3989 89.5358,39.4799 89.4468,39.4799 L88.9998,39.4799 C88.9178,39.4799 88.8538,39.4069 88.8538,39.3179 L88.8538,33.5969 C88.8538,33.5159 88.9098,33.4429 88.9998,33.4429 L89.4468,33.4429 C89.5278,33.4429 89.5928,33.5069 89.5928,33.5969 L89.5928,39.3179 Z M96.5732,34.4019 C96.5732,34.4909 96.5002,34.5639 96.4102,34.5639 L94.7612,34.5639 C94.3792,34.5639 94.2402,34.6939 94.2402,35.1169 L94.2402,35.8479 L96.3442,35.8479 C96.4342,35.8479 96.5082,35.9219 96.5082,36.0099 L96.5082,36.7829 C96.5082,36.8729 96.4342,36.9449 96.3442,36.9449 L94.2402,36.9449 L94.2402,39.3179 C94.2402,39.4069 94.1672,39.4799 94.0782,39.4799 L93.0212,39.4799 C92.9322,39.4799 92.8592,39.4069 92.8592,39.3179 L92.8592,35.1169 C92.8592,33.6369 93.7932,33.3789 94.8422,33.3789 C95.7192,33.3789 96.1262,33.4429 96.4102,33.4829 C96.5242,33.4999 96.5732,33.5409 96.5732,33.6459 L96.5732,34.4019 Z M102.1963,36.9449 C102.1963,38.8309 101.1323,39.5529 99.7913,39.5529 C98.4503,39.5529 97.3843,38.8309 97.3843,36.9449 L97.3843,35.9779 C97.3843,34.0929 98.4503,33.3699 99.7913,33.3699 C101.1323,33.3699 102.1963,34.0929 102.1963,35.9779 L102.1963,36.9449 Z M100.7983,36.9449 L100.7983,35.9779 C100.7983,35.0029 100.4723,34.5889 99.7913,34.5889 C99.1083,34.5889 98.7923,35.0029 98.7923,35.9779 L98.7923,36.9449 C98.7923,37.9209 99.1083,38.3349 99.7913,38.3349 C100.4723,38.3349 100.7983,37.9209 100.7983,36.9449 Z M107.9814,39.1714 C107.9814,39.3424 107.8354,39.4804 107.6654,39.4804 L106.8694,39.4804 C106.6984,39.4804 106.5764,39.4474 106.4464,39.2294 L104.5924,36.0264 C104.5604,35.9784 104.5444,35.9614 104.5194,35.9614 C104.4964,35.9614 104.4794,35.9784 104.4794,36.0264 L104.4794,39.3174 C104.4794,39.4064 104.4064,39.4804 104.3174,39.4804 L103.3584,39.4804 C103.2684,39.4804 103.1954,39.4064 103.1954,39.3174 L103.1954,33.7514 C103.1954,33.5814 103.3344,33.4424 103.5034,33.4424 L104.3254,33.4424 C104.4874,33.4424 104.5684,33.5244 104.6674,33.6944 L106.5914,37.0424 C106.6254,37.0914 106.6324,37.1084 106.6574,37.1084 C106.6724,37.1084 106.6984,37.0914 106.6984,37.0344 L106.6984,33.5974 C106.6984,33.5084 106.7714,33.4424 106.8604,33.4424 L107.8194,33.4424 C107.9094,33.4424 107.9814,33.5084 107.9814,33.5974 L107.9814,39.1714 Z M113.6787,36.9859 C113.6787,38.6999 112.7027,39.5529 111.0857,39.5529 C110.4107,39.5529 109.6887,39.4889 109.3557,39.4309 C109.1997,39.4079 109.1187,39.3349 109.1187,39.1469 L109.1187,33.7759 C109.1187,33.5899 109.1997,33.5159 109.3557,33.4919 C109.6887,33.4339 110.4107,33.3699 111.0857,33.3699 C112.7027,33.3699 113.6787,34.2229 113.6787,35.9379 L113.6787,36.9859 Z M112.2877,36.9859 L112.2877,35.9379 C112.2877,34.8399 111.8177,34.5479 111.0857,34.5479 C110.8827,34.5479 110.6217,34.5559 110.5087,34.5639 L110.5087,38.3589 C110.6217,38.3679 110.8827,38.3759 111.0857,38.3759 C111.8177,38.3759 112.2877,38.0829 112.2877,36.9859 Z M119.334,36.9449 C119.334,38.8309 118.27,39.5529 116.929,39.5529 C115.588,39.5529 114.523,38.8309 114.523,36.9449 L114.523,35.9779 C114.523,34.0929 115.588,33.3699 116.929,33.3699 C118.27,33.3699 119.334,34.0929 119.334,35.9779 L119.334,36.9449 Z M117.937,36.9449 L117.937,35.9779 C117.937,35.0029 117.611,34.5889 116.929,34.5889 C116.246,34.5889 115.929,35.0029 115.929,35.9779 L115.929,36.9449 C115.929,37.9209 116.246,38.3349 116.929,38.3349 C117.611,38.3349 117.937,37.9209 117.937,36.9449 Z M124.916,33.5728 C124.916,33.5808 124.908,33.5968 124.908,33.6138 L123.697,38.6508 C123.511,39.4308 122.917,39.5528 122.356,39.5528 C121.796,39.5528 121.195,39.4308 121.008,38.6508 L119.797,33.6138 C119.797,33.5968 119.789,33.5898 119.789,33.5728 C119.789,33.4998 119.854,33.4428 119.936,33.4428 L121.064,33.4428 C121.145,33.4428 121.211,33.5088 121.228,33.5898 L122.243,38.2778 C122.26,38.3668 122.283,38.3998 122.356,38.3998 C122.43,38.3998 122.454,38.3668 122.471,38.2778 L123.486,33.5898 C123.503,33.5088 123.56,33.4428 123.641,33.4428 L124.778,33.4428 C124.859,33.4428 124.916,33.4918 124.916,33.5728 Z M127.1025,39.3179 C127.1025,39.4069 127.0375,39.4799 126.9485,39.4799 L125.8585,39.4799 C125.7695,39.4799 125.7125,39.4069 125.7125,39.3179 L125.7125,33.5969 C125.7125,33.5069 125.7695,33.4429 125.8585,33.4429 L126.9485,33.4429 C127.0375,33.4429 127.1025,33.5069 127.1025,33.5969 L127.1025,39.3179 Z" id="Combined-Shape"></path>
        </g>
    </g>
</svg>