<?xml version="1.0" encoding="UTF-8"?>
<svg width="64px" height="54px" viewBox="0 0 64 54" version="1.1" xmlns="http://www.w3.org/2000/svg" xmlns:xlink="http://www.w3.org/1999/xlink">
    <!-- Generator: Sketch 54 (76480) - https://sketchapp.com -->
    <title>Combined Shape</title>
    <desc>Created with Sketch.</desc>
    <g id="Page-1" stroke="none" stroke-width="1" fill="none" fill-rule="evenodd">
        <g id="eu" fill="#FFFFFF" fill-rule="nonzero">
            <path d="M4.764,35.596 L4.764,0.254 L59.165,0.254 L59.165,35.596 L4.764,35.596 Z M32.1924,5.8619 L33.3764,6.7059 L32.9584,5.3339 L34.2224,4.4499 L32.6814,4.4499 L32.2354,3.0039 L31.7444,4.4499 L30.2004,4.4499 L31.4444,5.3299 L30.9794,6.6949 L32.1924,5.8619 Z M32.1924,30.3882 L33.3764,31.2312 L32.9584,29.8602 L34.2224,28.9752 L32.6814,28.9752 L32.2354,27.5312 L31.7444,28.9752 L30.2004,28.9752 L31.4444,29.8562 L30.9794,31.2222 L32.1924,30.3882 Z M19.9727,18.107 L21.1577,18.949 L20.7397,17.579 L22.0047,16.695 L20.4637,16.695 L20.0177,15.249 L19.5267,16.695 L17.9827,16.695 L19.2257,17.575 L18.7607,18.94 L19.9727,18.107 Z M21.7109,11.8609 L22.8959,12.7049 L22.4779,11.3339 L23.7429,10.4489 L22.2019,10.4489 L21.7559,9.0039 L21.2639,10.4489 L19.7209,10.4489 L20.9639,11.3289 L20.4999,12.6949 L21.7109,11.8609 Z M26.0303,7.4673 L27.2143,8.3103 L26.7963,6.9393 L28.0603,6.0553 L26.5203,6.0553 L26.0733,4.6083 L25.5823,6.0553 L24.0383,6.0553 L25.2823,6.9353 L24.8173,8.3003 L26.0303,7.4673 Z M38.1426,7.4673 L39.3266,8.3103 L38.9106,6.9393 L40.1736,6.0553 L38.6326,6.0553 L38.1856,4.6083 L37.6956,6.0553 L36.1516,6.0553 L37.3956,6.9353 L36.9306,8.3003 L38.1426,7.4673 Z M42.5674,11.8609 L43.7524,12.7049 L43.3344,11.3339 L44.5984,10.4489 L43.0584,10.4489 L42.6104,9.0039 L42.1184,10.4489 L40.5764,10.4489 L41.8184,11.3289 L41.3554,12.6949 L42.5674,11.8609 Z M21.6582,24.1939 L22.8432,25.0369 L22.4252,23.6659 L23.6902,22.7829 L22.1492,22.7829 L21.7032,21.3359 L21.2122,22.7829 L19.6682,22.7829 L20.9122,23.6629 L20.4462,25.0279 L21.6582,24.1939 Z M25.9775,28.7476 L27.1615,29.5896 L26.7445,28.2196 L28.0085,27.3356 L26.4685,27.3356 L26.0215,25.8896 L25.5295,27.3356 L23.9865,27.3356 L25.2295,28.2156 L24.7645,29.5806 L25.9775,28.7476 Z M38.249,28.7476 L39.433,29.5896 L39.016,28.2196 L40.279,27.3356 L38.74,27.3356 L38.292,25.8896 L37.802,27.3356 L36.257,27.3356 L37.501,28.2156 L37.037,29.5806 L38.249,28.7476 Z M42.6201,24.1939 L43.8041,25.0369 L43.3871,23.6659 L44.6511,22.7829 L43.1111,22.7829 L42.6631,21.3359 L42.1721,22.7829 L40.6281,22.7829 L41.8721,23.6629 L41.4081,25.0279 L42.6201,24.1939 Z M44.2539,18.107 L45.4359,18.949 L45.0209,17.579 L46.2839,16.695 L44.7439,16.695 L44.2969,15.249 L43.8049,16.695 L42.2629,16.695 L43.5039,17.575 L43.0409,18.94 L44.2539,18.107 Z M15.042,44.7867 C14.804,44.8107 14.188,44.8167 13.817,44.8167 C12.937,44.8167 12.478,44.4837 12.478,43.6487 L12.478,41.2287 C12.478,40.3917 12.937,40.0587 13.817,40.0587 C14.188,40.0587 14.778,40.0717 15.042,40.0987 C15.08,40.1037 15.105,40.1477 15.105,40.1847 L15.105,40.5007 C15.105,40.5437 15.08,40.5757 15.036,40.5757 L13.823,40.5757 C13.157,40.5757 13.05,40.7517 13.05,41.2287 L13.05,42.1017 L14.98,42.1017 C15.049,42.1017 15.105,42.1597 15.105,42.2277 L15.105,42.4677 C15.105,42.5367 15.049,42.5927 14.98,42.5927 L13.05,42.5927 L13.05,43.6487 C13.05,44.1267 13.157,44.3027 13.823,44.3027 L15.036,44.3027 C15.08,44.3027 15.105,44.3347 15.105,44.3777 L15.105,44.6977 C15.105,44.7357 15.08,44.7797 15.042,44.7867 Z M18.4082,44.774 L18.0942,44.774 C18.0242,44.774 17.9732,44.717 17.9732,44.648 L17.9732,44.529 C17.6292,44.724 17.3462,44.817 16.9742,44.817 C16.2202,44.817 15.8812,44.346 15.8812,43.51 L15.8812,41.442 C15.8812,41.374 15.9372,41.317 16.0072,41.317 L16.3082,41.317 C16.3782,41.317 16.4342,41.374 16.4342,41.442 L16.4342,43.51 C16.4342,44.145 16.6472,44.34 17.1252,44.34 C17.3892,44.34 17.6852,44.24 17.9732,44.094 L17.9732,41.442 C17.9732,41.379 18.0312,41.317 18.0992,41.317 L18.4082,41.317 C18.4702,41.317 18.5272,41.374 18.5272,41.442 L18.5272,44.648 C18.5272,44.717 18.4772,44.774 18.4082,44.774 Z M20.8047,41.7505 C20.5157,41.7505 20.2517,41.8265 19.9377,42.0155 L19.9377,44.6475 C19.9377,44.7105 19.8807,44.7735 19.8117,44.7735 L19.5037,44.7735 C19.4417,44.7735 19.3847,44.7175 19.3847,44.6475 L19.3847,41.4415 C19.3847,41.3735 19.4347,41.3165 19.5037,41.3165 L19.7987,41.3165 C19.8677,41.3165 19.9187,41.3735 19.9187,41.4415 L19.9187,41.5735 C20.2337,41.3545 20.5217,41.2725 20.8047,41.2725 C20.8937,41.2725 20.9367,41.3105 20.9367,41.3855 L20.9367,41.6435 C20.9367,41.7125 20.8937,41.7505 20.8047,41.7505 Z M23.5098,42.8062 C23.5098,42.1652 23.2518,41.7572 22.6618,41.7572 C22.0768,41.7572 21.8188,42.1602 21.8188,42.8062 L21.8188,43.2852 C21.8188,43.9252 22.0718,44.3342 22.6618,44.3342 C23.2458,44.3342 23.5098,43.9322 23.5098,43.2852 L23.5098,42.8062 Z M22.6618,44.8172 C21.7378,44.8172 21.2668,44.2082 21.2668,43.2852 L21.2668,42.8062 C21.2668,41.8822 21.7378,41.2732 22.6618,41.2732 C23.5858,41.2732 24.0628,41.8822 24.0628,42.8062 L24.0628,43.2852 C24.0628,44.2082 23.5858,44.8172 22.6618,44.8172 Z M26.9131,42.8248 C26.9131,42.1658 26.7191,41.7378 26.0961,41.7378 C25.8321,41.7378 25.5371,41.7688 25.3601,41.8008 L25.3601,44.2898 C25.5671,44.3278 25.8941,44.3518 26.0961,44.3518 C26.7121,44.3518 26.9131,43.9498 26.9131,43.2778 L26.9131,42.8248 Z M26.0961,44.8168 C25.9011,44.8168 25.6061,44.7928 25.3601,44.7488 L25.3601,45.8868 C25.3601,45.9488 25.3101,46.0058 25.2411,46.0058 L24.9211,46.0058 C24.8571,46.0058 24.8081,45.9558 24.8081,45.8868 L24.8081,41.5618 C24.8081,41.4798 24.8261,41.4418 24.9391,41.4178 C25.2721,41.3358 25.7131,41.2728 26.0961,41.2728 C27.0321,41.2728 27.4661,41.8828 27.4661,42.8248 L27.4661,43.2778 C27.4661,44.2648 27.0141,44.8168 26.0961,44.8168 Z M29.2217,44.817 C28.9897,44.817 28.5367,44.799 28.2297,44.724 C28.1477,44.705 28.0967,44.668 28.0967,44.598 L28.0967,44.378 C28.0967,44.322 28.1477,44.283 28.2097,44.283 L28.2347,44.283 C28.5367,44.322 28.9957,44.352 29.2217,44.352 C29.6297,44.352 29.8437,44.246 29.8437,43.906 C29.8437,43.718 29.7317,43.598 29.3717,43.384 L28.7387,43.007 C28.3547,42.775 28.0967,42.504 28.0967,42.109 C28.0967,41.455 28.5867,41.273 29.2347,41.273 C29.5857,41.273 29.9197,41.304 30.2147,41.355 C30.2957,41.368 30.3347,41.412 30.3347,41.48 L30.3347,41.688 C30.3347,41.763 30.2897,41.795 30.2277,41.795 L30.2087,41.795 C29.9887,41.775 29.5857,41.745 29.2347,41.745 C28.8827,41.745 28.6497,41.788 28.6497,42.109 C28.6497,42.297 28.7947,42.418 29.0837,42.587 L29.7057,42.958 C30.2277,43.265 30.3977,43.536 30.3977,43.906 C30.3977,44.547 29.9257,44.817 29.2217,44.817 Z M33.542,44.774 L33.09,44.774 C33.021,44.774 32.995,44.754 32.945,44.692 L31.694,43.146 L31.694,44.648 C31.694,44.717 31.638,44.774 31.568,44.774 L31.267,44.774 C31.197,44.774 31.141,44.717 31.141,44.648 L31.141,40.173 C31.141,40.104 31.197,40.047 31.267,40.047 L31.568,40.047 C31.638,40.047 31.694,40.104 31.694,40.173 L31.694,42.788 L32.951,41.374 C32.988,41.33 33.014,41.317 33.077,41.317 L33.517,41.317 C33.579,41.317 33.611,41.348 33.611,41.385 C33.611,41.412 33.599,41.436 33.579,41.455 L32.196,42.952 L33.592,44.635 C33.604,44.648 33.611,44.673 33.611,44.692 C33.611,44.736 33.586,44.774 33.542,44.774 Z M36.0264,43.1011 L35.5614,43.1011 C34.7994,43.1011 34.5994,43.2721 34.5994,43.7181 L34.5994,43.7931 C34.5994,44.2461 34.8124,44.3651 35.1774,44.3651 C35.4664,44.3651 35.7244,44.2771 36.0264,44.1141 L36.0264,43.1011 Z M36.4534,44.7741 L36.1654,44.7741 C36.0954,44.7741 36.0394,44.7171 36.0394,44.6481 L36.0394,44.5091 C35.7364,44.6851 35.4224,44.8171 35.0704,44.8171 C34.5364,44.8171 34.0474,44.5851 34.0474,43.7991 L34.0474,43.7241 C34.0474,43.0451 34.4424,42.7051 35.5614,42.7051 L36.0264,42.7051 L36.0264,42.4551 C36.0264,41.9261 35.8434,41.7451 35.3534,41.7451 C34.9444,41.7451 34.6434,41.7691 34.3924,41.7941 L34.3604,41.7941 C34.3034,41.7941 34.2474,41.7751 34.2474,41.6941 L34.2474,41.4741 C34.2474,41.4051 34.2914,41.3681 34.3804,41.3551 C34.6364,41.3101 34.9264,41.2731 35.3534,41.2731 C36.2274,41.2731 36.5794,41.7121 36.5794,42.4551 L36.5794,44.6481 C36.5794,44.7171 36.5224,44.7741 36.4534,44.7741 Z M41.5176,44.774 L41.2036,44.774 C41.1336,44.774 41.0836,44.717 41.0836,44.648 L41.0836,44.529 C40.7386,44.724 40.4556,44.817 40.0846,44.817 C39.3296,44.817 38.9906,44.346 38.9906,43.51 L38.9906,41.442 C38.9906,41.374 39.0466,41.317 39.1166,41.317 L39.4176,41.317 C39.4876,41.317 39.5436,41.374 39.5436,41.442 L39.5436,43.51 C39.5436,44.145 39.7576,44.34 40.2356,44.34 C40.4986,44.34 40.7946,44.24 41.0836,44.094 L41.0836,41.442 C41.0836,41.379 41.1406,41.317 41.2096,41.317 L41.5176,41.317 C41.5796,41.317 41.6366,41.374 41.6366,41.442 L41.6366,44.648 C41.6366,44.717 41.5866,44.774 41.5176,44.774 Z M45.0146,44.774 L44.7126,44.774 C44.6436,44.774 44.5866,44.717 44.5866,44.648 L44.5866,42.58 C44.5866,41.946 44.3726,41.751 43.8966,41.751 C43.6316,41.751 43.3356,41.851 43.0466,41.996 L43.0466,44.648 C43.0466,44.711 42.9906,44.774 42.9206,44.774 L42.6136,44.774 C42.5506,44.774 42.4936,44.717 42.4936,44.648 L42.4936,41.442 C42.4936,41.374 42.5436,41.317 42.6136,41.317 L42.9276,41.317 C42.9966,41.317 43.0466,41.374 43.0466,41.442 L43.0466,41.562 C43.3926,41.368 43.6756,41.273 44.0456,41.273 C44.8006,41.273 45.1406,41.745 45.1406,42.58 L45.1406,44.648 C45.1406,44.717 45.0836,44.774 45.0146,44.774 Z M46.4941,44.774 L46.1921,44.774 C46.1231,44.774 46.0661,44.717 46.0661,44.648 L46.0661,41.442 C46.0661,41.374 46.1231,41.317 46.1921,41.317 L46.4941,41.317 C46.5631,41.317 46.6201,41.374 46.6201,41.442 L46.6201,44.648 C46.6201,44.717 46.5631,44.774 46.4941,44.774 Z M46.5071,40.764 L46.1861,40.764 C46.1171,40.764 46.0591,40.708 46.0591,40.638 L46.0591,40.135 C46.0591,40.066 46.1171,40.009 46.1861,40.009 L46.5071,40.009 C46.5761,40.009 46.6331,40.066 46.6331,40.135 L46.6331,40.638 C46.6331,40.708 46.5761,40.764 46.5071,40.764 Z M48.0605,40.7642 L47.7405,40.7642 C47.6775,40.7642 47.6145,40.7132 47.6145,40.6442 L47.6145,40.1352 C47.6145,40.0722 47.6705,40.0092 47.7405,40.0092 L48.0605,40.0092 C48.1225,40.0092 48.1865,40.0662 48.1865,40.1352 L48.1865,40.6442 C48.1865,40.7132 48.1295,40.7642 48.0605,40.7642 Z M47.3875,46.0112 C47.2625,46.0112 47.1735,46.0052 47.0485,45.9872 C46.9665,45.9742 46.9355,45.9432 46.9355,45.8862 L46.9355,45.6542 C46.9355,45.5972 46.9795,45.5662 47.0675,45.5662 L47.3255,45.5662 C47.5635,45.5662 47.6215,45.4902 47.6215,45.1762 L47.6215,41.4422 C47.6215,41.3792 47.6645,41.3172 47.7345,41.3172 L48.0605,41.3172 C48.1295,41.3172 48.1735,41.3732 48.1735,41.4422 L48.1735,45.1762 C48.1735,45.8292 47.8905,46.0112 47.3875,46.0112 Z M50.96,43.1011 L50.495,43.1011 C49.733,43.1011 49.532,43.2721 49.532,43.7181 L49.532,43.7931 C49.532,44.2461 49.746,44.3651 50.111,44.3651 C50.4,44.3651 50.657,44.2771 50.96,44.1141 L50.96,43.1011 Z M51.387,44.7741 L51.099,44.7741 C51.029,44.7741 50.973,44.7171 50.973,44.6481 L50.973,44.5091 C50.67,44.6851 50.356,44.8171 50.004,44.8171 C49.47,44.8171 48.981,44.5851 48.981,43.7991 L48.981,43.7241 C48.981,43.0451 49.376,42.7051 50.495,42.7051 L50.96,42.7051 L50.96,42.4551 C50.96,41.9261 50.777,41.7451 50.287,41.7451 C49.878,41.7451 49.577,41.7691 49.325,41.7941 L49.294,41.7941 C49.237,41.7941 49.181,41.7751 49.181,41.6941 L49.181,41.4741 C49.181,41.4051 49.225,41.3681 49.314,41.3551 C49.57,41.3101 49.859,41.2731 50.287,41.2731 C51.161,41.2731 51.513,41.7121 51.513,42.4551 L51.513,44.6481 C51.513,44.7171 51.456,44.7741 51.387,44.7741 Z M3.4219,52.3218 L1.0029,52.3218 C0.6009,52.3218 0.4819,52.2268 0.4819,51.8938 C0.4819,51.7878 0.5119,51.6238 0.5749,51.5298 L2.8249,48.2548 C2.8379,48.2358 2.8449,48.2178 2.8449,48.2048 C2.8449,48.1788 2.8179,48.1608 2.7809,48.1608 L0.6939,48.1608 C0.6309,48.1608 0.5679,48.1228 0.5679,48.0528 L0.5679,47.7588 C0.5679,47.6958 0.6249,47.6518 0.6939,47.6518 L2.9319,47.6518 C3.2839,47.6518 3.4659,47.7198 3.4659,48.0658 C3.4659,48.1788 3.4289,48.3428 3.3659,48.4368 L1.1219,51.7118 C1.1089,51.7308 1.1029,51.7558 1.1029,51.7678 C1.1029,51.7938 1.1219,51.8058 1.1659,51.8058 L3.4219,51.8058 C3.4909,51.8058 3.5479,51.8428 3.5479,51.9128 L3.5479,52.2088 C3.5479,52.2718 3.4909,52.3218 3.4219,52.3218 Z M6.0332,50.649 L5.5682,50.649 C4.8072,50.649 4.6062,50.82 4.6062,51.266 L4.6062,51.341 C4.6062,51.794 4.8192,51.913 5.1842,51.913 C5.4732,51.913 5.7312,51.825 6.0332,51.662 L6.0332,50.649 Z M6.4612,52.322 L6.1722,52.322 C6.1022,52.322 6.0462,52.265 6.0462,52.196 L6.0462,52.057 C5.7432,52.233 5.4292,52.365 5.0782,52.365 C4.5442,52.365 4.0532,52.133 4.0532,51.347 L4.0532,51.272 C4.0532,50.593 4.4492,50.253 5.5682,50.253 L6.0332,50.253 L6.0332,50.003 C6.0332,49.474 5.8502,49.293 5.3602,49.293 C4.9522,49.293 4.6502,49.317 4.3992,49.342 L4.3672,49.342 C4.3102,49.342 4.2552,49.323 4.2552,49.242 L4.2552,49.022 C4.2552,48.953 4.2982,48.915 4.3872,48.903 C4.6432,48.858 4.9332,48.821 5.3602,48.821 C6.2342,48.821 6.5872,49.26 6.5872,50.003 L6.5872,52.196 C6.5872,52.265 6.5302,52.322 6.4612,52.322 Z M7.9531,48.3121 L7.6321,48.3121 C7.5691,48.3121 7.5061,48.2611 7.5061,48.1921 L7.5061,47.6831 C7.5061,47.6201 7.5621,47.5571 7.6321,47.5571 L7.9531,47.5571 C8.0151,47.5571 8.0791,47.6141 8.0791,47.6831 L8.0791,48.1921 C8.0791,48.2611 8.0221,48.3121 7.9531,48.3121 Z M7.2801,53.5591 C7.1551,53.5591 7.0661,53.5531 6.9411,53.5341 C6.8591,53.5221 6.8281,53.4911 6.8281,53.4341 L6.8281,53.2021 C6.8281,53.1441 6.8721,53.1141 6.9601,53.1141 L7.2181,53.1141 C7.4561,53.1141 7.5131,53.0381 7.5131,52.7241 L7.5131,48.9901 C7.5131,48.9271 7.5571,48.8651 7.6261,48.8651 L7.9531,48.8651 C8.0221,48.8651 8.0661,48.9201 8.0661,48.9901 L8.0661,52.7241 C8.0661,53.3771 7.7831,53.5591 7.2801,53.5591 Z M11.1035,50.2916 C11.1035,49.5806 10.8325,49.3046 10.2805,49.3046 C9.7395,49.3046 9.4375,49.6126 9.4375,50.2916 L9.4375,50.3486 L11.1035,50.3486 L11.1035,50.2916 Z M11.5425,50.7696 L9.4375,50.7696 L9.4375,50.8566 C9.4375,51.6046 9.7325,51.8816 10.3115,51.8816 C10.6755,51.8816 11.1405,51.8556 11.4305,51.8126 L11.4605,51.8126 C11.5115,51.8126 11.5625,51.8376 11.5625,51.8996 L11.5625,52.1136 C11.5625,52.1956 11.5375,52.2396 11.4365,52.2586 C11.0785,52.3276 10.7325,52.3646 10.3115,52.3646 C9.5885,52.3646 8.8845,52.0256 8.8845,50.8566 L8.8845,50.2916 C8.8845,49.3926 9.3815,48.8206 10.2805,48.8206 C11.1975,48.8206 11.6625,49.3986 11.6625,50.2916 L11.6625,50.6306 C11.6625,50.7126 11.6195,50.7696 11.5425,50.7696 Z M14.4121,49.3482 C14.2041,49.3102 13.8771,49.3042 13.6761,49.3042 C13.0601,49.3042 12.8591,49.6882 12.8591,50.3612 L12.8591,50.8132 C12.8591,51.4972 13.0551,51.8812 13.6761,51.8812 C13.8901,51.8812 14.1971,51.8632 14.4121,51.8432 L14.4121,49.3482 Z M14.8331,52.2582 C14.4431,52.3342 14.0591,52.3652 13.6761,52.3652 C12.7391,52.3652 12.3071,51.7552 12.3071,50.8132 L12.3071,50.3612 C12.3071,49.3732 12.7591,48.8212 13.6761,48.8212 C13.8711,48.8212 14.1671,48.8392 14.4121,48.8832 L14.4121,47.7142 C14.4121,47.6522 14.4621,47.5942 14.5311,47.5942 L14.8511,47.5942 C14.9151,47.5942 14.9651,47.6462 14.9651,47.7142 L14.9651,52.1142 C14.9651,52.1962 14.9461,52.2402 14.8331,52.2582 Z M18.3418,52.3218 L18.0408,52.3218 C17.9718,52.3218 17.9148,52.2648 17.9148,52.1958 L17.9148,50.1278 C17.9148,49.4938 17.7008,49.2988 17.2238,49.2988 C16.9588,49.2988 16.6638,49.3988 16.3748,49.5438 L16.3748,52.1958 C16.3748,52.2588 16.3188,52.3218 16.2488,52.3218 L15.9418,52.3218 C15.8788,52.3218 15.8208,52.2648 15.8208,52.1958 L15.8208,48.9898 C15.8208,48.9208 15.8718,48.8648 15.9418,48.8648 L16.2558,48.8648 C16.3248,48.8648 16.3748,48.9208 16.3748,48.9898 L16.3748,49.1088 C16.7208,48.9148 17.0038,48.8208 17.3738,48.8208 C18.1278,48.8208 18.4678,49.2928 18.4678,50.1278 L18.4678,52.1958 C18.4678,52.2648 18.4108,52.3218 18.3418,52.3218 Z M21.4561,50.3541 C21.4561,49.7121 21.1981,49.3041 20.6071,49.3041 C20.0221,49.3041 19.7651,49.7071 19.7651,50.3541 L19.7651,50.8321 C19.7651,51.4731 20.0171,51.8811 20.6071,51.8811 C21.1921,51.8811 21.4561,51.4801 21.4561,50.8321 L21.4561,50.3541 Z M20.6071,52.3651 C19.6841,52.3651 19.2131,51.7551 19.2131,50.8321 L19.2131,50.3541 C19.2131,49.4301 19.6841,48.8211 20.6071,48.8211 C21.5311,48.8211 22.0091,49.4301 22.0091,50.3541 L22.0091,50.8321 C22.0091,51.7551 21.5311,52.3651 20.6071,52.3651 Z M26.3008,49.3482 C26.0928,49.3102 25.7658,49.3042 25.5648,49.3042 C24.9478,49.3042 24.7468,49.6882 24.7468,50.3612 L24.7468,50.8132 C24.7468,51.4972 24.9428,51.8812 25.5648,51.8812 C25.7788,51.8812 26.0858,51.8632 26.3008,51.8432 L26.3008,49.3482 Z M26.7208,52.2582 C26.3308,52.3342 25.9478,52.3652 25.5648,52.3652 C24.6278,52.3652 24.1948,51.7552 24.1948,50.8132 L24.1948,50.3612 C24.1948,49.3732 24.6478,48.8212 25.5648,48.8212 C25.7598,48.8212 26.0548,48.8392 26.3008,48.8832 L26.3008,47.7142 C26.3008,47.6522 26.3508,47.5942 26.4198,47.5942 L26.7398,47.5942 C26.8028,47.5942 26.8528,47.6462 26.8528,47.7142 L26.8528,52.1142 C26.8528,52.1962 26.8338,52.2402 26.7208,52.2582 Z M29.8408,50.3541 C29.8408,49.7121 29.5828,49.3041 28.9918,49.3041 C28.4068,49.3041 28.1498,49.7071 28.1498,50.3541 L28.1498,50.8321 C28.1498,51.4731 28.4018,51.8811 28.9918,51.8811 C29.5768,51.8811 29.8408,51.4801 29.8408,50.8321 L29.8408,50.3541 Z M28.9918,52.3651 C28.0688,52.3651 27.5978,51.7551 27.5978,50.8321 L27.5978,50.3541 C27.5978,49.4301 28.0688,48.8211 28.9918,48.8211 C29.9158,48.8211 30.3938,49.4301 30.3938,50.3541 L30.3938,50.8321 C30.3938,51.7551 29.9158,52.3651 28.9918,52.3651 Z M34.3896,47.9791 L34.0876,47.9791 C33.7916,47.9791 33.7036,48.0661 33.7036,48.4121 L33.7036,48.8651 L34.3646,48.8651 C34.4326,48.8651 34.4846,48.9151 34.4846,48.9771 L34.4846,49.2231 C34.4846,49.2861 34.4326,49.3301 34.3646,49.3301 L33.7036,49.3301 L33.7036,52.1961 C33.7036,52.2581 33.6476,52.3221 33.5846,52.3221 L33.2776,52.3221 C33.2076,52.3221 33.1516,52.2581 33.1516,52.1961 L33.1516,49.3301 L32.5406,49.2601 C32.4726,49.2541 32.4216,49.2101 32.4216,49.1471 L32.4216,48.9771 C32.4216,48.9151 32.4726,48.8651 32.5406,48.8651 L33.1516,48.8651 L33.1516,48.4121 C33.1516,47.7391 33.4786,47.5381 34.0316,47.5381 C34.2016,47.5381 34.3006,47.5571 34.3826,47.5771 C34.4516,47.5941 34.5016,47.6201 34.5016,47.6761 L34.5016,47.8841 C34.5016,47.9541 34.4576,47.9791 34.3896,47.9791 Z M37.0801,50.3541 C37.0801,49.7121 36.8221,49.3041 36.2311,49.3041 C35.6471,49.3041 35.3901,49.7071 35.3901,50.3541 L35.3901,50.8321 C35.3901,51.4731 35.6421,51.8811 36.2311,51.8811 C36.8161,51.8811 37.0801,51.4801 37.0801,50.8321 L37.0801,50.3541 Z M36.2311,52.3651 C35.3081,52.3651 34.8371,51.7551 34.8371,50.8321 L34.8371,50.3541 C34.8371,49.4301 35.3081,48.8211 36.2311,48.8211 C37.1561,48.8211 37.6341,49.4301 37.6341,50.3541 L37.6341,50.8321 C37.6341,51.7551 37.1561,52.3651 36.2311,52.3651 Z M40.8984,52.3218 L40.5964,52.3218 C40.5274,52.3218 40.4704,52.2648 40.4704,52.1958 L40.4704,50.1278 C40.4704,49.4938 40.2574,49.2988 39.7804,49.2988 C39.5154,49.2988 39.2194,49.3988 38.9314,49.5438 L38.9314,52.1958 C38.9314,52.2588 38.8754,52.3218 38.8054,52.3218 L38.4974,52.3218 C38.4344,52.3218 38.3774,52.2648 38.3774,52.1958 L38.3774,48.9898 C38.3774,48.9208 38.4274,48.8648 38.4974,48.8648 L38.8114,48.8648 C38.8804,48.8648 38.9314,48.9208 38.9314,48.9898 L38.9314,49.1088 C39.2764,48.9148 39.5594,48.8208 39.9304,48.8208 C40.6844,48.8208 41.0244,49.2928 41.0244,50.1278 L41.0244,52.1958 C41.0244,52.2648 40.9674,52.3218 40.8984,52.3218 Z M43.874,49.3482 C43.667,49.3102 43.34,49.3042 43.139,49.3042 C42.522,49.3042 42.321,49.6882 42.321,50.3612 L42.321,50.8132 C42.321,51.4972 42.517,51.8812 43.139,51.8812 C43.352,51.8812 43.66,51.8632 43.874,51.8432 L43.874,49.3482 Z M44.295,52.2582 C43.905,52.3342 43.522,52.3652 43.139,52.3652 C42.202,52.3652 41.769,51.7552 41.769,50.8132 L41.769,50.3612 C41.769,49.3732 42.221,48.8212 43.139,48.8212 C43.334,48.8212 43.629,48.8392 43.874,48.8832 L43.874,47.7142 C43.874,47.6522 43.925,47.5942 43.994,47.5942 L44.314,47.5942 C44.377,47.5942 44.427,47.6462 44.427,47.7142 L44.427,52.1142 C44.427,52.1962 44.408,52.2402 44.295,52.2582 Z M47.4141,50.3541 C47.4141,49.7121 47.1561,49.3041 46.5661,49.3041 C45.9811,49.3041 45.7241,49.7071 45.7241,50.3541 L45.7241,50.8321 C45.7241,51.4731 45.9761,51.8811 46.5661,51.8811 C47.1501,51.8811 47.4141,51.4801 47.4141,50.8321 L47.4141,50.3541 Z M46.5661,52.3651 C45.6421,52.3651 45.1711,51.7551 45.1711,50.8321 L45.1711,50.3541 C45.1711,49.4301 45.6421,48.8211 46.5661,48.8211 C47.4901,48.8211 47.9681,49.4301 47.9681,50.3541 L47.9681,50.8321 C47.9681,51.7551 47.4901,52.3651 46.5661,52.3651 Z M51.2256,49.0152 L50.3776,52.0072 C50.2956,52.2892 50.0826,52.3652 49.8126,52.3652 C49.5416,52.3652 49.3286,52.2892 49.2466,52.0072 L48.3976,49.0152 C48.3916,48.9962 48.3916,48.9842 48.3916,48.9712 C48.3916,48.9092 48.4296,48.8652 48.4926,48.8652 L48.8376,48.8652 C48.8886,48.8652 48.9316,48.9032 48.9576,48.9842 L49.6806,51.7242 C49.7176,51.8752 49.7486,51.9072 49.8126,51.9072 C49.8696,51.9072 49.9066,51.8752 49.9446,51.7242 L50.6666,48.9842 C50.6916,48.9032 50.7366,48.8652 50.7866,48.8652 L51.1316,48.8652 C51.1956,48.8652 51.2326,48.9092 51.2326,48.9712 C51.2326,48.9842 51.2326,48.9962 51.2256,49.0152 Z M53.6357,50.649 L53.1707,50.649 C52.4097,50.649 52.2087,50.82 52.2087,51.266 L52.2087,51.341 C52.2087,51.794 52.4227,51.913 52.7867,51.913 C53.0767,51.913 53.3337,51.825 53.6357,51.662 L53.6357,50.649 Z M54.0637,52.322 L53.7747,52.322 C53.7047,52.322 53.6487,52.265 53.6487,52.196 L53.6487,52.057 C53.3467,52.233 53.0327,52.365 52.6807,52.365 C52.1467,52.365 51.6557,52.133 51.6557,51.347 L51.6557,51.272 C51.6557,50.593 52.0517,50.253 53.1707,50.253 L53.6357,50.253 L53.6357,50.003 C53.6357,49.474 53.4527,49.293 52.9637,49.293 C52.5547,49.293 52.2527,49.317 52.0017,49.342 L51.9707,49.342 C51.9137,49.342 51.8577,49.323 51.8577,49.242 L51.8577,49.022 C51.8577,48.953 51.9017,48.915 51.9897,48.903 C52.2467,48.858 52.5357,48.821 52.9637,48.821 C53.8367,48.821 54.1897,49.26 54.1897,50.003 L54.1897,52.196 C54.1897,52.265 54.1327,52.322 54.0637,52.322 Z M59.2275,52.3345 C58.9895,52.3585 58.3735,52.3645 58.0025,52.3645 C57.1225,52.3645 56.6635,52.0315 56.6635,51.1965 L56.6635,48.7765 C56.6635,47.9395 57.1225,47.6065 58.0025,47.6065 C58.3735,47.6065 58.9635,47.6195 59.2275,47.6465 C59.2655,47.6515 59.2895,47.6955 59.2895,47.7325 L59.2895,48.0475 C59.2895,48.0915 59.2655,48.1225 59.2215,48.1225 L58.0085,48.1225 C57.3425,48.1225 57.2355,48.2995 57.2355,48.7765 L57.2355,49.6495 L59.1655,49.6495 C59.2345,49.6495 59.2895,49.7065 59.2895,49.7755 L59.2895,50.0155 C59.2895,50.0845 59.2345,50.1405 59.1655,50.1405 L57.2355,50.1405 L57.2355,51.1965 C57.2355,51.6745 57.3425,51.8505 58.0085,51.8505 L59.2215,51.8505 C59.2655,51.8505 59.2895,51.8815 59.2895,51.9255 L59.2895,52.2455 C59.2895,52.2835 59.2655,52.3275 59.2275,52.3345 Z M61.7197,52.3648 C60.7007,52.3648 60.1107,51.8248 60.1107,50.6248 L60.1107,47.7708 C60.1107,47.7088 60.1607,47.6518 60.2297,47.6518 L60.5697,47.6518 C60.6317,47.6518 60.6887,47.7018 60.6887,47.7708 L60.6887,50.6248 C60.6887,51.4348 60.9407,51.8758 61.7197,51.8758 C62.4987,51.8758 62.7497,51.4408 62.7497,50.6248 L62.7497,47.7708 C62.7497,47.7088 62.8007,47.6518 62.8687,47.6518 L63.2087,47.6518 C63.2717,47.6518 63.3287,47.7018 63.3287,47.7708 L63.3287,50.6248 C63.3287,51.8248 62.7377,52.3648 61.7197,52.3648 Z" id="Combined-Shape"></path>
        </g>
    </g>
</svg>