<?xml version="1.0" encoding="UTF-8"?>
<svg width="500px" height="310px" viewBox="0 0 500 310" version="1.1" xmlns="http://www.w3.org/2000/svg" xmlns:xlink="http://www.w3.org/1999/xlink">
    <title>extensionengine</title>
    <g id="Page-1" stroke="none" stroke-width="1" fill="none" fill-rule="evenodd">
        <g id="extensionengine" fill="#FFFFFF" fill-rule="nonzero">
            <path d="M142.2,199.75 C139.65,208.15 132,215 120.45,215 C107.4,215 95.85,205.5 95.85,189.2 C95.85,173.95 107.1,163.9 119.3,163.9 C134.15,163.9 142.85,173.7 142.85,188.9 C142.85,190.8 142.65,192.35 142.55,192.55 L107.35,192.55 C107.65,199.85 113.4,205.1 120.5,205.1 C127.4,205.1 131,201.45 132.55,196.7 L142.2,199.75 Z M131.25,184.15 C131.05,178.5 127.3,173.45 119.4,173.45 C112.2,173.45 108.05,179 107.65,184.15 L131.25,184.15 Z M167.1,213.5 L155.65,213.5 L155.65,165.35 L166.8,165.35 L166.8,171.8 C169.95,166.25 175.7,164 181.05,164 C192.8,164 198.45,172.5 198.45,183.1 L198.45,213.5 L187,213.5 L187,185 C187,179.05 184.35,174.3 177.1,174.3 C170.55,174.3 167.1,179.35 167.1,185.65 L167.1,213.5 Z M221.4,213.4 C222.2,219.35 226.85,223.8 233.45,223.8 C242.55,223.8 247.1,219.15 247.1,209.35 L247.1,204.3 C245,208.05 240.2,211.3 233.15,211.3 C220.3,211.3 210.9,201.4 210.9,187.85 C210.9,175 219.9,164.4 233.15,164.4 C240.65,164.4 245.3,167.45 247.4,171.4 L247.4,165.25 L258.5,165.25 L258.5,208.85 C258.5,221.7 251.9,233.65 233.8,233.65 C221.05,233.65 212.15,225.75 210.85,216.05 L221.4,213.4 Z M247.4,187.9 C247.4,179.7 242.15,174.35 235.05,174.35 C227.75,174.35 222.5,179.7 222.5,187.9 C222.5,196.3 227.55,201.55 235.05,201.55 C242.35,201.55 247.4,196.2 247.4,187.9 Z M274.4,213.5 L274.4,165.35 L285.75,165.35 L285.75,213.5 L274.4,213.5 Z M313.95,213.5 L302.5,213.5 L302.5,165.35 L313.65,165.35 L313.65,171.8 C316.8,166.25 322.55,164 327.9,164 C339.65,164 345.3,172.5 345.3,183.1 L345.3,213.5 L333.85,213.5 L333.85,185 C333.85,179.05 331.2,174.3 323.95,174.3 C317.4,174.3 313.95,179.35 313.95,185.65 L313.95,213.5 Z M403.75,199.75 C401.2,208.15 393.55,215 382,215 C368.95,215 357.4,205.5 357.4,189.2 C357.4,173.95 368.65,163.9 380.85,163.9 C395.7,163.9 404.4,173.7 404.4,188.9 C404.4,190.8 404.2,192.35 404.1,192.55 L368.9,192.55 C369.2,199.85 374.95,205.1 382.05,205.1 C388.95,205.1 392.55,201.45 394.1,196.7 L403.75,199.75 Z M392.75,184.15 C392.55,178.5 388.8,173.45 380.9,173.45 C373.7,173.45 369.55,179 369.15,184.15 L392.75,184.15 Z M141.75,130.7 C139.2,139.1 131.55,145.95 120,145.95 C106.95,145.95 95.4,136.45 95.4,120.15 C95.4,104.9 106.65,94.85 118.85,94.85 C133.7,94.85 142.4,104.65 142.4,119.85 C142.4,121.75 142.2,123.3 142.1,123.5 L106.9,123.5 C107.2,130.8 112.95,136.05 120.05,136.05 C126.95,136.05 130.55,132.4 132.1,127.65 L141.75,130.7 Z M130.75,115.05 C130.55,109.4 126.8,104.35 118.9,104.35 C111.7,104.35 107.55,109.9 107.15,115.05 L130.75,115.05 Z M167.55,120.1 L150.35,96.25 L164,96.25 C164.9,97.75 173.7,110.3 174.6,111.7 L185.1,96.25 L198.15,96.25 L181.25,119.9 L198.75,144.4 L185.3,144.4 L174.15,128.3 C173.15,129.8 164.15,142.95 163.25,144.4 L150.1,144.4 L167.55,120.1 Z M226.05,96.3 L236.05,96.3 L236.05,106.5 L226.05,106.5 L226.05,128.85 C226.05,133.1 227.95,134.9 232.2,134.9 C233.8,134.9 235.65,134.6 236.15,134.5 L236.15,144 C235.45,144.3 233.3,145.1 229.15,145.1 C220.25,145.1 214.7,139.75 214.7,130.75 L214.7,106.5 L205.8,106.5 L205.8,96.3 L208.25,96.3 C213.4,96.3 215.65,93.05 215.65,88.8 L215.65,81.6 L226.05,81.6 L226.05,96.3 Z M262.15,144.45 L250.7,144.45 L250.7,96.3 L261.85,96.3 L261.85,102.75 C265,97.2 270.75,94.95 276.1,94.95 C287.85,94.95 293.5,103.45 293.5,114.05 L293.5,144.5 L282.05,144.5 L282.05,116 C282.05,110.05 279.4,105.3 272.15,105.3 C265.65,105.3 262.15,110.35 262.15,116.65 L262.15,144.45 Z M316.95,128.6 C317.35,132.95 320.6,136.8 326.75,136.8 C331.5,136.8 333.95,134.25 333.95,131.25 C333.95,128.7 332.15,126.7 328.3,125.9 L321.2,124.3 C312.7,122.4 308.25,116.9 308.25,110.25 C308.25,101.85 315.95,94.75 325.95,94.75 C339.4,94.75 343.75,103.45 344.55,108.2 L334.85,110.95 C334.45,108.2 332.4,103.75 325.95,103.75 C321.9,103.75 319.05,106.3 319.05,109.3 C319.05,111.85 320.95,113.75 323.9,114.35 L331.2,115.85 C340.3,117.85 345.05,123.35 345.05,130.5 C345.05,137.8 339.1,145.95 326.85,145.95 C312.9,145.95 307.55,136.85 306.95,131.4 L316.95,128.6 Z M371.6,144.45 L360.15,144.45 L360.15,96.3 L371.3,96.3 L371.3,102.75 C374.45,97.2 380.2,94.95 385.55,94.95 C397.3,94.95 402.95,103.45 402.95,114.05 L402.95,144.5 L391.5,144.5 L391.5,116 C391.5,110.05 388.85,105.3 381.6,105.3 C375.05,105.3 371.6,110.35 371.6,116.65 L371.6,144.45 Z M168.85,0 L168.85,19.85 L19.65,19.85 L19.65,290.25 L72.8,290.25 L72.8,310 L0,310 L0,0 L168.85,0 Z M330.1,309.95 L330.1,290.1 L480.3,290.1 L480.3,19.75 L428.65,19.75 L428.65,0 L500,0 L500,309.95 L330.1,309.95 Z" id="Shape"></path>
        </g>
    </g>
</svg>