<?xml version="1.0" encoding="UTF-8"?>
<svg width="500px" height="108px" viewBox="0 0 500 108" version="1.1" xmlns="http://www.w3.org/2000/svg" xmlns:xlink="http://www.w3.org/1999/xlink">
    <title>freshbooks</title>
    <g id="Page-1" stroke="none" stroke-width="1" fill="none" fill-rule="evenodd">
        <g id="freshbooks" fill="#FFFFFF" fill-rule="nonzero">
            <path d="M107.858793,0 L107.858793,61.338896 C107.858793,86.7745251 87.4452856,107.44176 62.1088011,107.852561 L61.3395379,107.858793 L0,107.858793 L0,46.5186136 C0,21.08362 20.4122496,0.417020539 45.7493317,0.00623204878 L46.5186136,0 L107.858793,0 Z M51.3535944,15.7940308 L33.7046855,15.7940308 L33.7046855,93.0597561 L51.3535944,93.0597561 L51.3535944,63.3601412 L51.3604498,63.2665418 C51.4005928,62.9950354 51.6127289,62.7796154 51.8827209,62.7350962 L51.986457,62.7266367 L73.5942875,62.7266367 L73.5942875,47.645122 L51.9858151,47.645122 L51.8923902,47.6382521 C51.6213983,47.5980277 51.4064546,47.3855053 51.3620349,47.1158382 L51.3535944,47.0122593 L51.3535944,15.7940308 Z M365.992555,38.7265725 C377.796791,38.7265725 387.36611,48.2958922 387.36611,60.1007702 C387.36611,71.9043646 377.796791,81.4743261 365.992555,81.4743261 C354.187677,81.4743261 344.618357,71.9043646 344.618357,60.1007702 C344.618357,48.2958922 354.187677,38.7265725 365.992555,38.7265725 Z M410.95706,38.7265725 C422.761938,38.7265725 432.331258,48.2958922 432.331258,60.1007702 C432.331258,71.9043646 422.761938,81.4743261 410.95706,81.4743261 C399.152824,81.4743261 389.583504,71.9043646 389.583504,60.1007702 C389.583504,48.2958922 399.152824,38.7265725 410.95706,38.7265725 Z M210.307317,38.7265725 C222.111553,38.7265725 231.039024,48.2958922 231.039024,60.1007702 C231.039024,60.8620026 230.997946,61.6136072 230.920282,62.3543004 L230.920282,62.3543004 L199.425417,62.3543004 C200.480616,67.7560976 205.243774,71.8465982 210.949166,71.8465982 C214.784211,71.8465982 218.187291,69.9935815 220.331065,67.1418485 L220.331065,67.1418485 L227.472914,73.6572529 C223.552503,78.4293967 217.60706,81.4743261 210.949166,81.4743261 C199.144929,81.4743261 189.57561,71.9043646 189.57561,60.1007702 C189.57561,48.2958922 198.503081,38.7265725 210.307317,38.7265725 Z M484.502311,39.3686778 C488.71027,39.3686778 492.086393,40.9489089 494.637741,44.096534 L494.637741,44.096534 L487.932349,50.4521181 C486.759692,48.66457 485.368164,48.4020539 483.753915,48.4020539 C482.845058,48.4020539 482.067779,48.6863928 481.423363,49.2531451 C480.777664,49.8218228 480.454814,50.5483954 480.454814,51.4347882 C480.454814,52.9861361 482.361104,53.8815148 486.174326,55.4039795 C491.423363,57.5368421 494.957381,59.503466 496.77638,61.3025674 C498.594737,63.1035944 499.503594,64.884724 499.503594,67.9315789 C499.503594,71.8365854 497.97792,75.1042362 494.928498,77.7351733 C491.965725,80.228113 488.388062,81.4739409 484.194223,81.4739409 C469.235071,81.4739409 468.935888,68.3877204 468.929904,67.8642715 L468.929782,67.8481386 L478.818742,67.8481386 C478.818742,67.8481386 478.925289,73.1241335 484.37009,73.1241335 C487.713479,73.1241335 489.385494,71.6844673 489.385494,68.8038511 C489.385494,67.1421053 488.094737,66.2326059 485.514506,64.7929397 C484.517073,64.3224647 483.518999,63.8654685 482.52285,63.4219512 C481.526059,62.9797176 480.513864,62.5220796 479.487548,62.0503209 C476.612709,60.7216945 474.588318,59.3924262 473.415661,58.0631579 C471.920796,56.3744544 471.172401,54.1992298 471.172401,51.5406932 C471.172401,48.0240051 472.448395,45.1157895 474.999743,42.8166881 C477.610141,40.5182285 480.777664,39.3686778 484.502311,39.3686778 Z M247.253402,39.3686778 C251.462003,39.3686778 254.838126,40.9489089 257.389474,44.096534 L257.389474,44.096534 L250.684082,50.4521181 C249.511425,48.66457 248.120539,48.4020539 246.505648,48.4020539 C245.596791,48.4020539 244.81887,48.6863928 244.175096,49.2531451 C243.528755,49.8218228 243.205905,50.5483954 243.205905,51.4347882 C243.205905,52.9861361 245.112837,53.8815148 248.926059,55.4039795 C254.175096,57.5368421 257.709114,59.503466 259.528113,61.3025674 C261.34647,63.1035944 262.255327,64.884724 262.255327,67.9315789 C262.255327,71.8365854 260.729653,75.1042362 257.680231,77.7351733 C254.717458,80.228113 251.139795,81.4739409 246.945956,81.4739409 C231.986175,81.4739409 231.686979,68.3877204 231.680995,67.8642715 L231.680873,67.8481386 L241.570475,67.8481386 C241.570475,67.8481386 241.677664,73.1241335 247.121823,73.1241335 C250.465212,73.1241335 252.137227,71.6844673 252.137227,68.8038511 C252.137227,67.1421053 250.84647,66.2326059 248.265597,64.7929397 C247.268806,64.3224647 246.271374,63.8654685 245.274583,63.4219512 C244.27715,62.9797176 243.264955,62.5220796 242.239281,62.0503209 C239.364442,60.7216945 237.340693,59.3924262 236.167394,58.0631579 C234.672529,56.3744544 233.924134,54.1992298 233.924134,51.5406932 C233.924134,48.0240051 235.20077,45.1157895 237.751476,42.8166881 C240.361874,40.5182285 243.528755,39.3686778 247.253402,39.3686778 Z M445.834403,26.3840822 L445.834403,48.6620026 C445.834403,48.8064185 445.834403,48.8783055 445.908216,48.8783055 C445.982028,48.8783055 446.056483,48.8064185 446.129653,48.7345315 L455.504493,39.9649551 L470.3543,39.9649551 L454.641207,54.2537869 C454.567394,54.4700899 454.493582,54.5419769 454.493582,54.6138639 C454.493582,54.6863928 454.567394,54.829525 454.641207,55.045828 L469.93389,80.4623877 L458.639923,80.4623877 C458.639923,80.4623877 446.277279,61.6395379 445.982028,61.1356868 C445.908216,61.1356868 445.834403,61.2794608 445.834403,61.4957638 L445.834403,80.4623877 L435.79525,80.4623877 L435.79525,26.3840822 L445.834403,26.3840822 Z M275.081964,26.3843389 L275.081964,41.7251605 C275.081964,41.7251605 277.614698,38.4709884 283.997882,38.4709884 C294.405456,38.4709884 300.458087,44.3759949 300.458087,54.7842105 L300.458087,80.4626444 L290.419576,80.4626444 L290.419576,54.7765083 C290.419576,49.8509628 286.293132,48.354172 282.750128,48.354172 C279.207125,48.354172 275.008151,49.8509628 275.008151,54.7765083 L275.008151,80.4626444 L265.042811,80.4626444 L265.042811,26.3843389 L275.081964,26.3843389 Z M188.266945,38.4707317 L188.266945,48.583697 L185.593004,48.583697 C182.123813,48.583697 179.392105,51.6613607 179.171951,55.130552 L179.171951,80.4623877 L169.132157,80.4623877 L169.132157,39.7030809 L178.506996,39.7030809 L178.506996,41.3269576 C180.278498,39.850706 183.083376,38.4707317 185.666816,38.4707317 L188.266945,38.4707317 Z M163.862901,26.3841463 L163.862901,36.9399872 L146.301284,36.9399872 C146.006033,36.9399872 145.857766,37.0876123 145.857766,37.3828626 L145.857766,48.2339538 C145.857766,48.5285623 146.006033,48.6761874 146.301284,48.6761874 L163.221053,48.6761874 L163.221053,59.2320282 L146.301284,59.2320282 C146.006033,59.2320282 145.857766,59.3796534 145.857766,59.6749037 L145.857766,80.4624519 L135.302567,80.4624519 L135.302567,26.3841463 L163.862901,26.3841463 Z M323.784172,26.3847329 C324.015743,26.3863821 324.195015,26.3962773 324.321245,26.4556483 C332.737805,27.0326701 338.880295,33.3060976 338.880295,41.0211168 C338.880295,44.698267 337.667202,47.9428113 335.619705,50.5390886 C339.638318,53.6392169 342.216624,58.2541078 342.216624,63.6623235 C342.216624,72.8914634 334.557445,80.2464056 324.927792,80.4620668 L324.927792,80.4620668 L307.336008,80.4620668 L307.336008,26.3844031 Z M365.992555,48.3543004 C359.515661,48.3543004 354.246085,53.6232349 354.246085,60.1007702 C354.246085,66.5776637 359.515661,71.8465982 365.992555,71.8465982 C372.469448,71.8465982 377.738383,66.5776637 377.738383,60.1007702 C377.738383,53.6232349 372.469448,48.3543004 365.992555,48.3543004 Z M410.95706,48.3543004 C404.480167,48.3543004 399.211232,53.6232349 399.211232,60.1007702 C399.211232,66.5776637 404.480167,71.8465982 410.95706,71.8465982 C417.433954,71.8465982 422.70353,66.5776637 422.70353,60.1007702 C422.70353,53.6232349 417.433954,48.3543004 410.95706,48.3543004 Z M324.35077,57.2496149 L318.024069,57.2496149 C317.699936,57.2496149 317.537548,57.3921053 317.537548,57.6758023 L317.537548,57.6758023 L317.537548,70.367715 C317.537548,70.6514121 317.699936,70.7932606 318.024069,70.7932606 L318.024069,70.7932606 L324.35077,70.7932606 C328.487484,70.7932606 331.651155,67.6019897 331.651155,63.986457 C331.651155,60.2983954 328.487484,57.2496149 324.35077,57.2496149 L324.35077,57.2496149 Z M210.307317,48.3543004 C206.621823,48.3543004 203.331707,50.063543 201.17638,52.7272144 L201.17638,52.7272144 L219.438254,52.7272144 C217.282927,50.063543 213.992811,48.3543004 210.307317,48.3543004 Z M322.438703,37.2399872 L318.011232,37.2399872 C317.695443,37.2399872 317.537548,37.372208 317.537548,37.6366496 L317.537548,37.6366496 L317.537548,46.7682285 C317.537548,47.0326701 317.695443,47.1648909 318.011232,47.1648909 L318.011232,47.1648909 L322.913671,47.1648909 C326.076059,46.9665597 328.289795,44.6507702 328.289795,42.0705392 C328.289795,39.4896662 325.838575,37.2399872 322.438703,37.2399872 L322.438703,37.2399872 Z M82.5300385,15.7942234 L64.8079589,15.7942234 L64.4951613,15.7977915 C57.3206505,15.96163 51.5350574,21.7472231 51.3712189,28.9217339 L51.3676508,29.2345315 L51.3676508,34.7614891 L69.0897304,34.7614891 L69.402528,34.757921 C76.5770388,34.5940825 82.3626319,28.8084894 82.5264704,21.6339786 L82.5300385,21.321181 L82.5300385,15.7942234 Z" id="Combined-Shape"></path>
        </g>
    </g>
</svg>