<?xml version="1.0" encoding="UTF-8"?>
<svg width="500px" height="500px" viewBox="0 0 500 500" version="1.1" xmlns="http://www.w3.org/2000/svg" xmlns:xlink="http://www.w3.org/1999/xlink">
    <title>Fill 2</title>
    <g id="Page-1" stroke="none" stroke-width="1" fill="none" fill-rule="evenodd">
        <g id="GoodFood_logo_white-vektori" transform="translate(-175.000000, -175.000000)" fill="#FFFFFF">
            <path d="M569.294934,411.481096 C557.876449,414.737998 553.324277,423.998007 556.921328,436.588576 C560.577305,449.444313 568.698291,456.490907 582.408822,452.574769 C587.045702,451.25875 591.262721,447.402765 593.479879,444.25144 L583.900431,410.73838 C580.041889,410.298889 574.492856,410.007941 569.294934,411.481096 L569.294934,411.481096 Z M657.982477,402.734236 C652.394158,344.419376 625.422421,290.671298 582.00001,251.431346 C538.851368,212.423417 483.192849,190.963224 425.263154,190.963224 C417.801424,190.963224 410.198512,191.314326 402.723277,192.030034 C340.496765,197.984038 284.301757,227.804388 244.502178,276.025677 C204.692777,324.221186 186.064231,385.044093 191.990157,447.276319 C197.611622,505.593634 224.580904,559.314704 267.999632,598.575526 C311.143363,637.568724 366.805565,659.036282 424.714389,659.036282 C432.193307,659.036282 439.804813,658.693773 447.272682,657.973155 C458.319186,656.903889 469.091921,655.094363 479.578611,652.592454 C479.739435,648.931663 480.339762,645.518853 481.235955,642.344203 C469.981976,645.252457 458.319186,647.31733 446.356846,648.474985 C439.182388,649.160002 431.912173,649.498828 424.714389,649.498828 C308.556679,649.498828 212.591555,562.170171 201.520498,446.370329 C195.811869,386.676841 213.675581,328.330063 251.859557,282.095078 C290.036167,235.844134 343.937902,207.236682 403.623154,201.524521 C410.822164,200.84687 418.099746,200.509272 425.263154,200.509272 C541.436825,200.509272 637.404403,287.813376 648.471778,403.637771 C650.076332,420.254965 649.771872,436.64382 647.80393,452.56863 C651.124756,450.531993 654.545023,448.859961 657.959151,447.56604 C659.366052,432.926557 659.436029,417.922469 657.982477,402.734236 L657.982477,402.734236 Z M616.951552,450.373629 C616.045537,447.198979 613.240329,445.027302 610.308672,444.625867 L587.09358,363.275766 C585.894155,359.087094 581.434058,356.610965 577.246502,357.812814 L572.483173,359.158296 C568.137249,360.411706 565.807146,364.823807 567.001662,369.00143 C567.919953,372.19695 570.572931,374.405456 573.644542,374.777427 L579.208306,394.272185 C574.796089,394.140829 569.962783,394.722725 564.90727,396.1701 C545.135771,401.817196 535.481436,420.033992 541.467516,440.996994 C547.613193,462.516113 564.439531,474.426575 586.827178,468.041673 C592.169964,466.512047 596.85595,463.767067 600.314274,460.592417 C602.265029,461.903526 604.534977,462.205522 606.861397,461.545058 L611.498277,460.232722 C615.668645,459.029645 618.141157,454.567211 616.951552,450.373629 L616.951552,450.373629 Z M547.370116,342.720336 C549.196877,349.166619 555.919555,352.86915 562.331635,351.04612 C568.794048,349.204676 572.502816,342.51655 570.660095,336.064129 C568.837016,329.644854 562.1082,325.901811 555.678933,327.730979 C549.233707,329.588383 545.528623,336.302289 547.370116,342.720336 L547.370116,342.720336 Z M537.951492,385.046549 L542.576095,383.732985 C546.755057,382.534819 549.252122,378.071158 548.056379,373.894762 C547.128266,370.722567 544.35375,368.531248 541.403678,368.127358 L518.18122,286.782167 C516.991616,282.597178 512.532747,280.12596 508.343964,281.327809 L503.575724,282.686795 C499.232255,283.91688 496.897242,288.330208 498.107716,292.51888 C499.007593,295.704579 501.683896,297.910629 504.749369,298.275235 L510.310678,317.779814 C505.903371,317.64232 501.062699,318.236492 496.009642,319.683868 C476.223411,325.323598 466.571531,343.546531 472.541652,364.502168 C478.694695,386.032335 495.544358,397.937887 517.93446,391.54562 C523.289523,390.025814 527.970598,387.294338 531.433833,384.107412 C533.360035,385.425886 535.650853,385.714379 537.951492,385.046549 L537.951492,385.046549 Z M462.898366,367.876922 C456.996994,347.219599 437.77426,336.302289 418.147625,341.910101 C397.76966,347.720472 388.45416,368.19365 394.09895,387.989177 C399.994184,408.653865 419.243927,419.717263 438.753934,414.153646 C459.26203,408.300308 468.582441,387.823447 462.898366,367.876922 L462.898366,367.876922 Z M385.698058,486.534685 C391.61539,507.193236 410.854084,518.263999 430.354269,512.699154 C450.869732,506.834768 460.185232,486.371411 454.487652,466.434706 C448.599784,445.76388 429.384416,434.856391 409.741822,440.458065 C389.366313,446.278256 380.040991,466.745297 385.698058,486.534685 L385.698058,486.534685 Z M260.8485,460.237632 C260.148732,465.434188 259.66135,471.374688 260.75397,475.267501 C265.393305,491.441521 284.663918,492.187919 298.686275,488.203034 C313.41331,483.986126 327.368146,473.752606 322.671111,457.282728 C318.336236,442.109226 309.461466,440.578372 302.751064,441.720068 L269.078747,447.42609 C268.127309,447.389261 265.857361,445.993446 264.988176,442.964884 C264.535169,441.375104 266.097983,437.004743 269.865678,433.765028 C274.185821,434.716441 278.195366,434.513882 282.382922,433.323082 C295.976825,429.431496 304.226714,415.670996 300.347302,402.104462 C299.442515,398.901576 297.893205,396.235165 295.462434,393.168546 L302.12864,389.706631 C305.3844,387.989177 306.849001,384.309971 305.896335,380.979412 C304.556955,376.358614 299.251,374.115735 295.04994,376.411402 L280.548794,384.161428 C276.593267,383.412574 272.516201,383.472728 268.501745,384.624244 C254.907842,388.49005 246.747572,402.076226 250.630667,415.666085 C251.693823,419.411583 253.60161,422.780199 256.358939,425.894695 C250.928989,432.590187 248.679912,440.594332 250.537365,447.079899 C252.187343,452.859579 255.847004,457.457051 260.8485,460.237632 L260.8485,460.237632 Z M385.59739,389.949701 C379.69479,369.28133 360.488016,358.361565 340.845421,363.971832 C320.479734,369.790796 311.148274,390.248015 316.802886,410.048453 C322.694436,430.70332 341.954,441.781449 361.459097,436.214149 C381.972104,430.364494 391.292515,409.88395 385.59739,389.949701 L385.59739,389.949701 Z M343.239363,498.484432 L338.617214,499.799223 C334.424748,500.988796 331.943643,505.453685 333.146752,509.654633 C334.335129,513.84576 338.789087,516.310841 342.987692,515.117585 L347.61475,513.802793 L358.424316,551.64693 C359.620059,555.84174 364.103481,558.466412 368.309451,557.264563 L373.793418,555.709156 C377.982202,554.502396 380.415428,549.893875 379.2381,545.718707 C378.240011,542.240832 375.102106,540.004091 371.635188,539.903426 L362.928608,509.423839 L373.490186,506.407553 C377.675286,505.215524 380.151481,500.76414 378.944689,496.57424 C377.755084,492.376974 373.299898,489.905756 369.093928,491.108833 L358.56918,494.11407 L356.870095,488.203034 C356.570546,487.171825 356.09053,486.065731 355.383397,485.176927 C354.444235,484.036459 351.799851,480.266409 350.71828,476.500041 C349.073213,470.717906 351.575189,466.411381 357.368526,464.762675 L369.790012,461.23324 C373.986161,460.027708 376.566707,455.379902 375.370964,451.183864 C374.178904,446.998875 369.571488,444.565713 365.377794,445.761424 L352.95017,449.314184 C338.655272,453.394825 331.165305,466.61394 335.250965,480.919508 C336.910764,486.685684 340.177573,491.552007 341.985919,494.003584 L343.239363,498.484432 Z M531.797221,444.375431 C525.897077,423.715653 506.68662,412.789749 487.036659,418.397561 C466.66115,424.216525 457.351788,444.684793 462.997806,464.471727 C468.901634,485.137643 488.148921,496.204723 507.661383,490.639879 C528.186667,484.787768 537.48498,464.304769 531.797221,444.375431 L531.797221,444.375431 Z M674.533818,440.137653 C674.287058,444.090621 673.959272,447.999393 673.540639,451.902028 C660.146845,451.911849 644.835443,459.111896 632.998324,472.361702 C628.438787,477.435495 624.889615,482.936503 622.245231,488.512397 C606.899454,481.51368 581.085402,491.826996 565.114745,509.712332 C555.061419,520.963557 553.299724,530.744081 552.817253,542.642267 C541.04029,544.471435 528.484989,551.21726 518.454989,562.464802 C503.354744,579.390131 498.836948,600.718967 505.698352,615.239369 C505.025593,615.936663 504.296361,616.517332 503.623603,617.224446 C502.596049,618.39315 479.96287,638.135889 489.320111,666.650041 C464.072011,673.359036 437.362993,676.19486 409.851084,674.537561 C272.030047,666.190907 167.094396,547.66941 175.468279,409.871674 C183.80165,272.045702 302.310334,167.11652 440.151013,175.465629 C577.958546,183.828241 682.888059,302.331324 674.533818,440.137653 L674.533818,440.137653 Z M553.448271,335.624638 L556.265756,345.472682 C556.443767,346.081586 557.106705,346.417957 557.715625,346.258365 C558.291399,346.07422 558.702665,345.430943 558.529565,344.825721 L557.726674,342.047595 L559.581671,341.511121 L562.977385,344.251191 C563.275707,344.504082 563.658737,344.543366 564.033174,344.43779 C564.650689,344.279426 564.983385,343.633693 564.822561,343.030927 C564.758723,342.80136 564.658054,342.582842 564.453035,342.442892 L561.872489,340.328914 C563.028947,339.173715 563.43162,337.558154 563.014215,336.086226 C562.216234,333.295824 559.399977,332.7127 557.731585,333.187793 L554.353058,334.153937 C553.70117,334.338082 553.282537,335.001002 553.448271,335.624638 L553.448271,335.624638 Z M549.735821,342.047595 C548.281041,336.943112 551.233569,331.612744 556.377473,330.143271 C561.475954,328.702034 566.840838,331.644662 568.277203,336.731959 C569.757763,341.870817 566.780682,347.198729 561.671152,348.67434 C556.524793,350.121715 551.196739,347.171721 549.735821,342.047595 L549.735821,342.047595 Z M425.949418,497.235932 C437.948588,493.816984 442.261365,482.131178 439.038752,470.841897 C435.536231,458.561918 425.426434,452.698759 414.144218,455.926197 C402.303417,459.29604 397.943988,470.862766 401.158008,482.131178 C404.680171,494.405018 414.832937,500.419176 425.949418,497.235932 L425.949418,497.235932 Z M345.255184,379.425233 C333.408244,382.799987 329.056182,394.364257 332.26038,405.641262 C335.781315,417.908965 345.930398,423.918211 357.040741,420.750927 C369.033772,417.323385 373.352688,405.627758 370.143579,394.361802 C366.626327,382.083051 356.532488,376.22112 345.255184,379.425233 L345.255184,379.425233 Z M491.459926,433.846052 C479.58966,437.240448 475.259696,448.796125 478.476171,460.064537 C481.965187,472.348198 492.131457,478.343941 503.244255,475.171746 C515.234831,471.75157 519.563568,460.05226 516.340955,448.796125 C512.84089,436.497732 502.712677,430.6358 491.459926,433.846052 L491.459926,433.846052 Z M294.551509,473.752606 C300.473751,472.068298 309.942709,467.949601 308.081574,461.449303 C307.211161,458.420741 306.40827,457.22994 305.875465,456.454078 L305.241991,456.463899 L276.037136,461.375645 C275.812474,462.845118 274.786148,469.081476 275.391386,471.251925 C276.967704,477.214522 290.928678,474.778905 294.551509,473.752606 L294.551509,473.752606 Z M500.367842,335.001002 C488.966544,338.25422 484.416828,347.517913 488.00774,360.094978 C491.684588,372.935983 499.798207,379.998536 513.508738,376.092219 C518.135797,374.777427 522.354044,370.920215 524.587162,367.775028 L515.026129,334.252148 C511.136895,333.797925 505.580496,333.510659 500.367842,335.001002 L500.367842,335.001002 Z M559.399977,339.157755 C560.454539,338.859441 561.074509,337.780355 560.766365,336.723366 C560.360009,335.280901 558.8684,335.269853 558.369969,335.407347 L556.030045,336.080088 L557.094428,339.816993 L559.399977,339.157755 Z M278.29849,419.005238 C283.781229,417.438783 287.373368,411.889897 285.752854,406.266126 C284.140934,400.62394 278.210098,397.309341 272.578812,398.923673 C266.938932,400.531868 263.469558,405.907658 265.079023,411.532657 C266.720408,417.31602 272.674569,420.608522 278.29849,419.005238 L278.29849,419.005238 Z M447.428595,372.306209 C450.641387,383.566027 446.337203,395.261654 434.346627,398.684286 C423.211731,401.846659 413.072469,395.837413 409.560128,383.575849 C406.337515,372.308664 410.705537,360.733345 422.550021,357.367185 C433.827326,354.144657 443.926075,360.015182 447.428595,372.306209 L447.428595,372.306209 Z" id="Fill-2"></path>
        </g>
    </g>
</svg>