<?xml version="1.0" encoding="UTF-8"?>
<svg width="588px" height="113px" viewBox="0 0 588 113" version="1.1" xmlns="http://www.w3.org/2000/svg" xmlns:xlink="http://www.w3.org/1999/xlink">
    <!-- Generator: Sketch 53.2 (72643) - https://sketchapp.com -->
    <title>Combined Shape</title>
    <desc>Created with Sketch.</desc>
    <g id="Page-1" stroke="none" stroke-width="1" fill="none" fill-rule="evenodd">
        <g id="Asset-1" fill="#FFFFFF">
            <path d="M279.997466,59.818267 L276.8,63.13 L256.58,72.86 L238.04,46.9 L253.99,30.38 L274.21,20.66 L283.965403,34.3144066 L300.11,17.6 L336.71,0 L370.3,47 L341.4,76.92 L304.8,94.53 L279.997466,59.818267 Z M481.44,92.49 C479.484856,94.4601923 477.287251,96.1739214 474.9,97.59 C472.094756,99.2708145 469.142625,100.693326 466.08,101.84 C458.58,104.72 452.913333,104.99 449.08,102.65 C445.246667,100.31 443.58,95.5833333 444.08,88.47 C444.640898,81.4428212 447.445469,74.7819651 452.08,69.47 C457.065527,63.5440148 463.511237,59.021677 470.78,56.35 C473.239319,55.3864765 475.783876,54.6565904 478.38,54.17 C480.587915,53.7561687 482.841534,53.641806 485.08,53.83 C484.65,55.06 484.3,56.2 484.08,57.27 C483.835569,58.2550547 483.671695,59.2583651 483.59,60.27 C482.282866,58.5960597 480.35959,57.5155677 478.25,57.27 C475.575856,57.1130179 472.902629,57.592828 470.45,58.67 C464.981151,60.68811 460.245942,64.3048477 456.86,69.05 C453.403979,73.9705353 451.404247,79.765252 451.09,85.77 C450.65,91.95 451.86,96.22 454.72,98.58 C457.58,100.94 461.7,101.086667 467.08,99.02 C469.810026,97.9440195 472.385706,96.5115922 474.74,94.76 C477.443938,92.7698856 479.945941,90.5190879 482.21,88.04 L481.44,92.49 Z M459.15,74.25 C461.109617,72.2877059 463.306617,70.577809 465.69,69.16 C468.494879,67.4757426 471.44702,66.0498785 474.51,64.9 C482.01,62.02 487.676667,61.75 491.51,64.09 C495.343333,66.43 497.01,71.1566667 496.51,78.27 C495.940777,85.2951471 493.13726,91.9535002 488.51,97.27 C483.520755,103.196372 477.071736,107.718613 469.8,110.39 C467.342461,111.356395 464.797304,112.083105 462.2,112.56 C459.993146,112.982221 457.738835,113.099983 455.5,112.91 C455.894687,111.782066 456.228501,110.633745 456.5,109.47 C456.747543,108.485171 456.914758,107.481879 457,106.47 C458.307134,108.14394 460.23041,109.224432 462.34,109.47 C465.014144,109.626982 467.687371,109.147172 470.14,108.07 C475.605847,106.046435 480.339585,102.430821 483.73,97.69 C487.185389,92.7698697 489.181924,86.9743719 489.49,80.97 C489.943333,74.79 488.736667,70.52 485.87,68.16 C483.003333,65.8 478.88,65.6533333 473.5,67.72 C470.774208,68.7983552 468.202137,70.2306454 465.85,71.98 C463.14492,73.9724704 460.639819,76.2230425 458.37,78.7 L459.15,74.25 Z M30.24,65.76 C30.14,63.22 30.03,60.6366667 29.91,58.01 L31.4,58.22 C31.8776675,58.2798511 32.3585975,58.3099092 32.84,58.31 C33.318079,58.3099094 33.7956821,58.2798505 34.27,58.22 L35.77,58.01 C35.65,60.6366667 35.54,63.22 35.44,65.76 C35.34,68.3 35.29,70.88 35.29,73.5 L35.29,83.79 C35.29,86.42 35.34,89.02 35.44,91.57 C35.54,94.12 35.65,96.63 35.77,99.1 C34.85,99.02 33.87,98.98 32.84,98.98 C31.81,98.98 30.84,98.98 29.91,99.1 C30.03,96.6333333 30.14,94.1233333 30.24,91.57 C30.33,89.02 30.39,86.42 30.39,83.79 L30.39,78.41 L24.13,78.32 C22.13,78.32 20.0466667,78.32 17.88,78.32 C15.7133333,78.32 13.63,78.32 11.63,78.32 L5.38,78.41 L5.38,83.79 C5.38,86.42 5.38,89.02 5.53,91.57 C5.68,94.12 5.74,96.63 5.86,99.1 C4.94,99 4,99 2.93,99 C1.86,99 0.93,99 0,99.12 C0.12,96.6533333 0.23,94.1433333 0.33,91.59 C0.43,89.04 0.48,86.44 0.48,83.81 L0.48,73.5 C0.48,70.8733333 0.43,68.2933333 0.33,65.76 C0.23,63.2266667 0.12,60.64 0,58 L1.5,58.21 C1.97428788,58.2701672 2.45191106,58.3002274 2.93,58.3 C3.4114025,58.2999092 3.89233252,58.2698511 4.37,58.21 L5.86,58 C5.74,60.6666667 5.63,63.2533333 5.53,65.76 C5.43,68.2666667 5.38,70.8466667 5.38,73.5 L5.38,75.6 L11.63,75.72 C13.63,75.72 15.73,75.72 17.88,75.72 C20.03,75.72 22.12,75.72 24.13,75.72 L30.39,75.6 L30.39,73.5 C30.39,70.87 30.33,68.29 30.24,65.76 Z M83,99.1 C82.4768532,99.0225131 81.9488488,98.9824115 81.42,98.98 L78.27,98.98 C77.7378302,98.9823761 77.2064983,99.0224766 76.68,99.1 C76.4,98.19 76.02,97.1 75.54,95.78 C75.06,94.46 74.54,93.13 73.96,91.72 L72.2,87.41 C71.6,86 71,84.57 70.52,83.25 C69.24,83.25 67.95,83.18 66.63,83.16 C65.31,83.14 64,83.16 62.69,83.16 C61.38,83.16 60.23,83.16 59.04,83.16 L55.39,83.25 C54.11,86.3566667 52.9533333,89.3166667 51.92,92.13 C50.8866667,94.9433333 50.11,97.2766667 49.59,99.13 C48.1176685,98.9699796 46.6323315,98.9699796 45.16,99.13 C48.3866667,92.13 51.5366667,85.1833333 54.61,78.29 C57.6833333,71.3966667 60.7733333,64.3766667 63.88,57.23 L65,57.23 C65.9466667,59.55 66.9833333,62.0533333 68.11,64.74 C69.2366667,67.4266667 70.3733333,70.1466667 71.52,72.9 C72.68,75.6333333 73.84,78.3666667 75,81.1 C76.16,83.8333333 77.2466667,86.3566667 78.26,88.67 C79.2733333,90.9966667 80.19,93.08 81.01,94.92 C81.83,96.75 82.5,98.15 83,99.1 Z M56.52,80.5 C57.52,80.5 58.64,80.5 59.75,80.56 C60.86,80.62 61.95,80.62 62.98,80.62 C64.01,80.62 65.22,80.62 66.33,80.62 C67.44,80.62 68.57,80.62 69.68,80.53 L63,65.31 L56.52,80.5 Z M105.06,73.74 C107.88,79.0733333 110.823333,84.5566667 113.89,90.19 C114.28,89.43 114.89,88.35 115.62,86.93 C116.35,85.51 117.25,83.93 118.25,82.06 C119.25,80.19 120.32,78.24 121.45,76.06 C122.58,73.88 123.75,71.77 124.92,69.57 C126.09,67.37 127.26,65.23 128.42,63.11 C129.58,60.99 130.65,59.03 131.65,57.19 L132.43,57.19 C132.87,61.0166667 133.276667,64.7166667 133.65,68.29 C134.023333,71.8633333 134.413333,75.37 134.82,78.81 C135.22,82.27 135.62,85.67 136.02,89.04 C136.42,92.41 136.85,95.75 137.33,99.04 C136.867474,98.9612016 136.399189,98.9210628 135.93,98.92 L133.12,98.92 C132.647496,98.9210615 132.175888,98.9611983 131.71,99.04 C131.27,93.74 130.83,88.5966667 130.39,83.61 C129.95,78.6233333 129.413333,73.54 128.78,68.36 L128.66,68.36 C125.913333,73.38 123.213333,78.38 120.56,83.36 C117.906667,88.34 115.386667,93.5533333 113,99 L112.46,99 C110.073333,93.98 107.57,88.9466667 104.95,83.9 C102.33,78.8533333 99.7066667,73.6933333 97.08,68.42 L97,68.42 C96.72,70.8866667 96.41,73.5533333 96.07,76.42 C95.73,79.2866667 95.4066667,82.1466667 95.1,85 C94.8266667,87.8133333 94.59,90.48 94.39,93 C94.19,95.49 94.09,97.54 94.09,99.13 C92.6979145,98.970021 91.2920855,98.970021 89.9,99.13 C90.42,95.9033333 90.96,92.4933333 91.52,88.9 C92.08,85.3066667 92.6166667,81.7 93.13,78.08 C93.65,74.4533333 94.13,70.8733333 94.57,67.34 C95.01,63.8066667 95.3866667,60.4366667 95.7,57.23 L96.7,57.23 C99.4666667,62.9033333 102.253333,68.4066667 105.06,73.74 Z M182.07,99.1 C181.546853,99.0225131 181.018849,98.9824115 180.49,98.98 L177.32,98.98 C176.78783,98.9823761 176.256498,99.0224766 175.73,99.1 C175.45,98.19 175.08,97.1 174.6,95.78 C174.12,94.46 173.6,93.13 173.01,91.72 C172.42,90.31 171.85,88.86 171.25,87.41 C170.65,85.96 170.09,84.57 169.57,83.25 C168.3,83.25 167,83.18 165.68,83.16 C164.36,83.14 163.05,83.16 161.74,83.16 C160.43,83.16 159.28,83.16 158.09,83.16 L154.44,83.25 C153.16,86.3566667 152.003333,89.3166667 150.97,92.13 C149.97,94.95 149.16,97.27 148.64,99.13 C147.167669,98.9699796 145.682331,98.9699796 144.21,99.13 C147.436667,92.15 150.586667,85.2133333 153.66,78.32 C156.733333,71.4266667 159.823333,64.4066667 162.93,57.26 L164.07,57.26 C165.07,59.58 166.07,62.08 167.18,64.77 C168.29,67.46 169.43,70.18 170.59,72.93 C171.75,75.68 172.9,78.42 174.06,81.13 C175.22,83.84 176.3,86.36 177.32,88.7 C178.34,91.04 179.25,93.11 180.07,94.95 C180.89,96.79 181.55,98.15 182.07,99.1 Z M155.58,80.5 C156.58,80.5 157.69,80.5 158.81,80.56 C159.93,80.62 161,80.62 162.04,80.62 L165.39,80.62 L168.74,80.53 L162.1,65.31 L155.58,80.5 Z M221.28,63.15 C220.349657,62.418494 219.343973,61.7882654 218.28,61.27 C217.113796,60.7220609 215.893947,60.2964543 214.64,60 C213.242235,59.6606486 211.808351,59.4927465 210.37,59.5 C208.019136,59.4805785 205.682217,59.8627375 203.46,60.63 C201.365022,61.3655839 199.46166,62.5615929 197.89,64.13 C196.236594,65.8383625 194.974138,67.8855892 194.19,70.13 C192.443847,75.4508395 192.377511,81.1801574 194,86.54 C194.709256,88.7591214 195.905008,90.7918998 197.5,92.49 C199.07538,94.1349326 200.994338,95.4119612 203.12,96.23 C205.516508,97.1439599 208.065471,97.5919802 210.63,97.55 C211.46,97.55 212.34,97.55 213.26,97.43 C214.18,97.31 215.06,97.23 215.92,97.07 C216.72881,96.9219261 217.527156,96.7215047 218.31,96.47 C218.970894,96.26544 219.605295,95.9834842 220.2,95.63 L220.29,92.04 C220.29,90.85 220.29,89.63 220.29,88.4 C220.29,87 220.29,85.6 220.2,84.21 C220.11,82.82 220.07,81.48 219.99,80.21 C220.934322,80.4051151 221.895742,80.505612 222.86,80.51 C223.3,80.51 223.73,80.51 224.17,80.45 C224.596986,80.4124621 225.019112,80.3320571 225.43,80.21 C225.35,81.13 225.29,82.57 225.25,84.55 C225.21,86.53 225.19,89.12 225.19,92.35 C225.19,93.15 225.19,93.96 225.19,94.78 C225.19,95.59 225.19,96.4 225.19,97.2 C224.35,97.52 223.31,97.85 222.05,98.2 C220.732834,98.5495486 219.397498,98.8266309 218.05,99.03 C216.64,99.25 215.22,99.45 213.8,99.63 C212.523597,99.8006317 211.237725,99.8908097 209.95,99.9 C206.704935,99.9398857 203.47125,99.5087277 200.35,98.62 C197.659639,97.8432144 195.176142,96.4767784 193.08,94.62 C191.052316,92.7676079 189.475403,90.4757825 188.47,87.92 C187.394176,84.9517982 186.895235,81.805415 187,78.65 C186.947319,75.5488848 187.515111,72.4685278 188.67,69.59 C189.72601,67.0196411 191.341886,64.7171021 193.4,62.85 C195.541694,60.9520912 198.059934,59.5277009 200.79,58.67 C203.891894,57.6775268 207.13343,57.1912964 210.39,57.23 C212.198758,57.216158 214.006335,57.3264168 215.8,57.56 C217.216024,57.7473762 218.616432,58.0381531 219.99,58.43 C221.078443,58.7458545 222.147018,59.1265344 223.19,59.57 C224.1,59.96 224.92,60.34 225.64,60.7 C225.270668,61.3819509 224.97885,62.1031097 224.77,62.85 C224.525826,63.6528564 224.355124,64.4762429 224.26,65.31 L223.55,65.31 C222.867745,64.5156393 222.107243,63.7919898 221.28,63.15 Z M388.58,65.67 C388.48,63.11 388.373333,60.5566667 388.26,58.01 C389.26,58.09 390.35,58.16 391.43,58.22 C392.51,58.28 393.56,58.31 394.6,58.31 C395.64,58.31 396.69,58.31 397.77,58.16 C398.85,58.01 399.9,58.01 400.94,58.01 C402.561474,58.0025137 404.180645,58.1329841 405.78,58.4 C407.181932,58.6243052 408.534929,59.0877069 409.78,59.77 C410.910537,60.4093514 411.857561,61.3288252 412.53,62.44 C413.243721,63.7139489 413.589899,65.1609744 413.53,66.62 C413.672724,69.2322049 412.651093,71.773465 410.74,73.56 C408.667513,75.3470173 406.165429,76.5635953 403.48,77.09 L403.48,77.21 C406.475845,77.1949315 409.405443,78.091249 411.88,79.78 C413.94,81.34 414.96,83.78 414.96,87.26 C415.026425,89.2234261 414.552537,91.1674064 413.59,92.88 C412.695448,94.3688877 411.466286,95.6288641 410,96.56 C408.50906,97.5189719 406.855116,98.1968177 405.12,98.56 C403.381733,98.9362146 401.608511,99.1272802 399.83,99.13 C398.83,99.13 397.91,99.13 396.93,99.07 C395.95,99.01 394.99,99.01 394.03,99.01 L391.13,99.01 C390.13,99.01 389.13,99.01 388.23,99.13 C388.343333,96.5833333 388.45,94.0433333 388.55,91.51 C388.65,88.9766667 388.7,86.3933333 388.7,83.76 L388.7,73.44 C388.72,70.8133333 388.68,68.2233333 388.58,65.67 Z M401,76 C402.300882,75.7584526 403.547515,75.2841902 404.68,74.6 C405.752625,73.9507776 406.648984,73.0475492 407.29,71.97 C407.99108,70.6983809 408.336524,69.2613316 408.29,67.81 C408.352522,66.4469599 408.044983,65.0924077 407.4,63.89 C406.841555,62.9547554 406.05769,62.1743288 405.12,61.62 C404.162131,61.0466481 403.102867,60.6630044 402,60.49 C400.852068,60.3102998 399.691912,60.2200284 398.53,60.22 C397.53,60.22 396.62,60.22 395.9,60.31 C395.18,60.4 394.55,60.44 393.99,60.52 C393.91,62.44 393.83,64.33 393.75,66.2 C393.67,68.07 393.63,69.97 393.63,71.89 L393.63,76.37 L396.86,76.37 C398.248913,76.3857446 399.63589,76.2617878 401,76 Z M393.74,90.78 C393.82,92.78 393.9,94.78 393.98,96.78 C394.74,96.86 395.63,96.93 396.67,96.99 C397.71,97.05 398.76,97.08 399.84,97.08 C401.096349,97.0827879 402.342924,96.8592173 403.52,96.42 C404.671179,95.9961258 405.720496,95.3351924 406.6,94.48 C407.504611,93.5761468 408.215721,92.4975734 408.69,91.31 C409.229519,89.9486778 409.4946,88.4941288 409.47,87.03 C409.52735,85.5668265 409.207073,84.1135257 408.54,82.81 C407.91955,81.7148763 406.995823,80.822403 405.88,80.24 C404.577811,79.5740299 403.170519,79.137634 401.72,78.95 C399.927128,78.7063869 398.119316,78.5894305 396.31,78.6 L393.62,78.6 L393.62,84.7 C393.64,86.72 393.68,88.74 393.76,90.73 L393.74,90.78 Z M428.12,65.76 C428.02,63.22 427.91,60.6366667 427.79,58.01 L429.29,58.22 C430.242907,58.3399488 431.207093,58.3399488 432.16,58.22 L433.65,58.01 C433.53,60.64 433.43,63.22 433.33,65.76 C433.23,68.3 433.18,70.87 433.18,73.5 L433.18,83.79 C433.18,86.42 433.23,89.02 433.33,91.57 C433.43,94.12 433.53,96.63 433.65,99.1 C432.74,99.02 431.76,98.98 430.72,98.98 C429.68,98.98 428.72,98.98 427.79,99.1 C427.91,96.6333333 428.02,94.1233333 428.12,91.57 C428.22,89.02 428.27,86.42 428.27,83.79 L428.27,73.5 C428.27,70.8733333 428.22,68.2933333 428.12,65.76 Z M506.6,65.76 C506.5,63.22 506.39,60.6366667 506.27,58.0097897 L509.68,58.22 C510.79,58.28 511.93,58.31 513.09,58.31 C514.25,58.31 515.38,58.31 516.5,58.16 C517.62,58.01 518.75,58.01 519.91,58.01 C521.515699,58.0031431 523.117724,58.1640159 524.69,58.49 C526.108799,58.7674072 527.464609,59.302952 528.69,60.07 C529.813902,60.7978965 530.73848,61.7946527 531.38,62.97 C532.798506,65.9794609 532.686926,69.4867883 531.08,72.4 C530.263078,73.7285585 529.196816,74.8865053 527.94,75.81 C526.714872,76.6966297 525.367478,77.400643 523.94,77.9 C522.693326,78.3612078 521.403538,78.6962176 520.09,78.9 L522.09,81.41 C522.93,82.48 523.86,83.67 524.9,84.97 C525.94,86.27 527,87.61 528.1,89 C529.2,90.39 530.29,91.78 531.33,93.07 C532.37,94.36 533.33,95.55 534.26,96.63 C535.19,97.71 535.92,98.52 536.48,99.08 C535.883314,99.0002355 535.281994,98.9601474 534.68,98.96 L531.15,98.96 C530.571211,98.9587429 529.993072,98.998845 529.42,99.08 C528.82,98.25 527.91,96.99 526.69,95.32 C525.47,93.65 524.13,91.84 522.69,89.93 C521.25,88.02 519.69,86.11 518.17,84.22 C516.65,82.33 515.23,80.72 513.96,79.4 L511.68,79.4 L511.68,83.77 C511.68,86.4 511.73,89 511.83,91.55 C511.93,94.1 512.04,96.61 512.16,99.08 C511.24,99 510.27,98.96 509.23,98.96 C508.19,98.96 507.23,98.96 506.3,99.08 C506.42,96.6133333 506.53,94.1033333 506.63,91.55 C506.73,89 506.78,86.4 506.78,83.77 L506.78,73.5 C506.76,70.8733333 506.7,68.2933333 506.6,65.76 Z M513.48,77.15 C514.13,77.15 514.86,77.21 515.66,77.21 C516.957706,77.2034565 518.251255,77.0627076 519.52,76.79 C520.821961,76.5201184 522.06714,76.0261071 523.2,75.33 C524.333283,74.6164532 525.290498,73.6558198 526,72.52 C526.784486,71.1682824 527.169388,69.6217399 527.11,68.06 C527.155697,66.720027 526.856107,65.3908101 526.24,64.2 C525.699897,63.2241475 524.931282,62.3937688 524,61.78 C523.088774,61.1801896 522.070023,60.7625017 521,60.55 C519.957231,60.3329595 518.895114,60.2223921 517.83,60.22 C516.44,60.22 515.28,60.22 514.36,60.31 C513.44,60.4 512.67,60.44 512.03,60.52 C511.95,62.72 511.87,64.8933333 511.79,67.04 C511.71,69.19 511.67,71.35 511.67,73.5 L511.67,76.91 C512.266554,77.0347315 512.871554,77.1149525 513.48,77.15 Z M544.58,69.59 C545.607458,67.0344024 547.180803,64.7341112 549.19,62.85 C551.23028,60.9749431 553.642651,59.5506901 556.27,58.67 C562.160805,56.7498124 568.509195,56.7498124 574.4,58.67 C577.029288,59.5529633 579.444478,60.9768692 581.49,62.85 C583.49338,64.7369973 585.062906,67.0366945 586.09,69.59 C588.289892,75.4296886 588.289892,81.8703114 586.09,87.71 C585.059954,90.2588187 583.490735,92.5546542 581.49,94.44 C579.454956,96.306443 577.034507,97.7027246 574.4,98.53 C568.490698,100.329994 562.179302,100.329994 556.27,98.53 C553.637591,97.704711 551.219992,96.3081039 549.19,94.44 C547.184198,92.5568943 545.611283,90.2606438 544.58,87.71 C542.393741,81.8678365 542.393741,75.4321635 544.58,69.59 Z M580.58,70.06 C579.852864,67.8340505 578.659698,65.7886216 577.08,64.06 C575.614441,62.5099361 573.81583,61.3131422 571.82,60.56 C569.721886,59.7943795 567.503365,59.4116422 565.27,59.43 C563.056304,59.413184 560.857742,59.7959845 558.78,60.56 C556.779292,61.3092814 554.976605,62.5065123 553.51,64.06 C551.930302,65.7886216 550.737136,67.8340505 550.01,70.06 C549.124371,72.835245 548.702048,75.7374468 548.76,78.65 C548.701137,81.5593336 549.123494,84.4583949 550.01,87.23 C550.734875,89.4569633 551.928307,91.5028468 553.51,93.23 C554.974757,94.7856796 556.777989,95.9832723 558.78,96.73 C560.855891,97.5019345 563.055305,97.8882722 565.27,97.87 C567.50437,97.8899853 569.723769,97.5037082 571.82,96.73 C573.817119,95.979372 575.616262,94.7822237 577.08,93.23 C578.661693,91.5028468 579.855125,89.4569633 580.58,87.23 C581.471396,84.4595274 581.893874,81.5596436 581.83,78.65 C581.905853,75.7393763 581.496937,72.8364122 580.62,70.06 L580.58,70.06 Z" id="Combined-Shape"></path>
        </g>
    </g>
</svg>