<?xml version="1.0" encoding="UTF-8"?>
<svg width="81px" height="74px" viewBox="0 0 81 74" version="1.1" xmlns="http://www.w3.org/2000/svg" xmlns:xlink="http://www.w3.org/1999/xlink">
    <!-- Generator: Sketch 53.2 (72643) - https://sketchapp.com -->
    <title>Combined Shape</title>
    <desc>Created with Sketch.</desc>
    <g id="Page-1" stroke="none" stroke-width="1" fill="none" fill-rule="evenodd">
        <g id="here" transform="translate(-1.000000, 0.000000)" fill="#FFFFFF" fill-rule="nonzero">
            <path d="M22.95,62.453001 L11.95,73.453001 L0.95,62.453001 L22.95,62.453001 Z M39.05,37.453001 L43.75,32.753001 C41.75,30.853001 39.95,30.153001 38.25,31.853001 C36.85,33.253001 36.75,34.753001 39.05,37.453001 Z M62.65,7.453001 C61.15,8.953001 61.05,10.353001 63.45,13.053001 L68.15,8.353001 C66.15,6.453002 64.35,5.7530016 62.65,7.453001 Z M76.85,12.253001 L81.05,14.853001 C81.05,14.853001 80.15,17.653001 77.05,20.453001 C77.05,20.453001 76.95,20.553001 76.95,20.553001 C71.25,26.153001 64.85,25.153001 59.85,20.153001 C58.55,18.853001 57.55,17.453001 56.85,15.953001 C55.35,17.253001 53.25,20.653001 56.85,24.253001 L64.55,31.953001 L59.15,37.353001 L52.95,31.153001 L43.05,41.053001 C46.95,44.953001 50.65,39.753001 52.75,36.553001 L56.65,39.153001 C56.65,39.153001 55.75,41.953001 52.65,44.753001 C52.65,44.753001 52.55,44.853001 52.55,44.853001 C47.55,49.853001 41.95,49.653001 37.25,46.153001 L43.75,52.653001 L38.65,57.753001 L31.85,50.953001 C28.35,47.553001 26.35,46.453001 24.65,48.153001 C22.85,49.953001 22.95,51.853001 26.55,55.553001 L33.45,62.453001 L23.15,62.453001 L3.95,43.253001 L9.15,38.053001 L18.85,47.753001 C18.35,45.953001 19.45,43.453001 21.35,41.553001 C23.75,39.153001 28.65,37.553001 33.15,42.053001 L33.85,42.753001 C30.45,38.253001 30.15,32.753001 34.65,28.253001 C38.85,24.053001 44.15,23.653001 49.05,27.553001 L42.65,21.153001 L47.35,16.453001 L50.85,19.353001 C48.05,14.353001 51.85,10.953001 52.65,10.553001 L55.75,14.053001 C54.85,10.653001 55.75,7.053001 58.85,3.9530017 C63.55,-0.7469983 69.55,-0.6469983 74.85,4.6530018 C75.45,5.1530018 76.05,5.9530016 76.95,6.853001 L67.05,16.753001 C70.95,20.653001 74.75,15.453001 76.85,12.253001 Z" id="Combined-Shape"></path>
        </g>
    </g>
</svg>