<?xml version="1.0" encoding="UTF-8"?>
<svg width="2497px" height="700px" viewBox="0 0 2497 700" version="1.1" xmlns="http://www.w3.org/2000/svg" xmlns:xlink="http://www.w3.org/1999/xlink">
    <!-- Generator: Sketch 52.5 (67469) - http://www.bohemiancoding.com/sketch -->
    <title>Shape</title>
    <desc>Created with Sketch.</desc>
    <g id="Page-1" stroke="none" stroke-width="1" fill="none" fill-rule="evenodd">
        <g id="heroku" fill="#0FD895" fill-rule="nonzero">
            <path d="M564.685315,0 L62.9370629,0 C27.972028,0 0,27.972028 0,62.9370629 L0,636.363636 C0,671.328671 27.972028,699.300699 62.9370629,699.300699 L564.685315,699.300699 C599.65035,699.300699 627.622378,671.328671 627.622378,636.363636 L627.622378,62.9370629 C627.622378,27.972028 599.65035,2.32913921e-14 564.685315,0 Z M592.657343,636.363636 C592.657343,652.097902 580.41958,664.335664 564.685315,664.335664 L62.9370629,664.335664 C47.2027972,664.335664 34.965035,652.097902 34.965035,636.363636 L34.965035,62.9370629 C34.965035,47.2027972 47.2027972,34.965035 62.9370629,34.965035 L564.685315,34.965035 C580.41958,34.965035 592.657343,47.2027972 592.657343,62.9370629 L592.657343,636.363636 Z M157.342657,594.405594 L236.013986,524.475524 L157.342657,454.545455 L157.342657,594.405594 Z M440.559441,311.188811 C426.573427,297.202797 400.34965,279.72028 356.643357,279.72028 C309.440559,279.72028 260.48951,291.958042 225.524476,304.195804 L225.524476,104.895105 L157.342657,104.895105 L157.342657,407.342657 L206.293706,384.615385 C206.293706,384.615385 286.713287,347.902098 356.643357,347.902098 C391.608392,347.902098 400.34965,367.132867 400.34965,384.615385 L400.34965,594.405594 L470.27972,594.405594 L470.27972,384.615385 C470.27972,379.370629 470.27972,340.909091 440.559441,311.188811 Z M347.902098,218.531469 L417.832168,218.531469 C449.300699,181.818182 465.034965,145.104895 470.27972,104.895105 L400.34965,104.895105 C393.356643,145.104895 375.874126,181.818182 347.902098,218.531469 Z M2279.72028,382.867133 L2279.72028,227.272727 L2349.65035,227.272727 L2349.65035,381.118881 C2349.65035,416.083916 2361.88811,433.566434 2389.86014,433.566434 C2417.83217,433.566434 2428.32168,417.832168 2428.32168,381.118881 L2428.32168,227.272727 L2496.5035,227.272727 L2496.5035,382.867133 C2496.5035,451.048951 2463.28671,491.258741 2388.11189,491.258741 C2312.93706,491.258741 2279.72028,451.048951 2279.72028,382.867133 Z M1986.01399,229.020979 L2055.94406,229.020979 L2055.94406,323.426573 L2127.62238,229.020979 L2208.04196,229.020979 L2120.62937,330.41958 L2215.03497,487.762238 L2136.36364,487.762238 L2075.17483,384.615385 L2055.94406,407.342657 L2055.94406,487.762238 L1986.01399,487.762238 L1986.01399,229.020979 Z M1653.84615,356.643357 C1653.84615,262.237762 1718.53147,222.027972 1781.46853,222.027972 C1844.40559,222.027972 1909.09091,262.237762 1909.09091,356.643357 C1909.09091,451.048951 1844.40559,491.258741 1781.46853,491.258741 C1718.53147,491.258741 1653.84615,452.797203 1653.84615,356.643357 Z M1837.41259,356.643357 C1837.41259,309.440559 1816.43357,279.72028 1779.72028,279.72028 C1743.00699,279.72028 1722.02797,309.440559 1722.02797,356.643357 C1722.02797,403.846154 1743.00699,435.314685 1779.72028,435.314685 C1816.43357,435.314685 1837.41259,405.594406 1837.41259,356.643357 Z M1372.37762,229.020979 L1473.77622,229.020979 C1540.20979,229.020979 1580.41958,251.748252 1580.41958,312.937063 C1580.41958,353.146853 1562.93706,377.622378 1529.72028,388.111888 L1583.91608,487.762238 L1510.48951,487.762238 L1459.79021,398.601399 L1440.55944,398.601399 L1440.55944,487.762238 L1372.37762,487.762238 L1372.37762,229.020979 Z M1472.02797,344.405594 C1500,344.405594 1513.98601,335.664336 1513.98601,314.685315 C1513.98601,293.706294 1501.74825,284.965035 1472.02797,284.965035 L1442.30769,284.965035 L1442.30769,344.405594 L1472.02797,344.405594 Z M1104.8951,229.020979 L1290.20979,229.020979 L1290.20979,286.713287 L1174.82517,286.713287 L1174.82517,328.671329 L1256.99301,328.671329 L1256.99301,382.867133 L1174.82517,382.867133 L1174.82517,430.06993 L1295.45455,430.06993 L1295.45455,486.013986 L1104.8951,486.013986 L1104.8951,229.020979 Z M788.461538,229.020979 L858.391608,229.020979 L858.391608,325.174825 L944.055944,325.174825 L944.055944,229.020979 L1013.98601,229.020979 L1013.98601,487.762238 L944.055944,487.762238 L944.055944,382.867133 L858.391608,382.867133 L858.391608,487.762238 L788.461538,487.762238 L788.461538,229.020979 Z" id="Shape"></path>
        </g>
    </g>
</svg>