<?xml version="1.0" encoding="UTF-8"?>
<svg width="500px" height="120px" viewBox="0 0 500 120" version="1.1" xmlns="http://www.w3.org/2000/svg" xmlns:xlink="http://www.w3.org/1999/xlink">
    <title>hr-prodigy</title>
    <g id="Page-1" stroke="none" stroke-width="1" fill="none" fill-rule="evenodd">
        <g id="hr-prodigy" fill="#FFFFFF" fill-rule="nonzero">
            <path d="M115.837204,3.50382553 C119.825766,7.49238735 120.475402,13.7295141 117.394402,18.4544155 C114.313403,23.1793169 108.344026,25.1003377 103.085618,23.0591631 C102.041348,22.643226 100.858555,22.8462097 100.014654,23.5712787 L99.8605099,23.7133237 L75.9451659,47.6190476 C75.0068265,48.5621501 74.8039666,50.0115694 75.4473304,51.1760462 C78.2612726,56.40059 78.3063011,62.679358 75.5675806,67.9437229 C75.0123938,69.0300077 75.1839947,70.3383844 75.9819553,71.2431428 L76.1207311,71.3900914 L100.22126,95.4954305 C101.050212,96.3147835 102.278559,96.580144 103.371813,96.1760462 C104.75504,95.6808456 106.217588,95.4444248 107.686388,95.4785955 C112.919935,95.5998404 117.463715,99.1171396 118.892681,104.153286 C120.321647,109.189433 118.302273,114.568974 113.912314,117.420811 C109.522355,120.272648 103.786441,119.931153 99.7658689,116.578584 C95.7452969,113.226016 94.3784814,107.644874 96.3949014,102.813853 C96.8512292,101.752528 96.657786,100.530052 95.9117758,99.6633403 L95.7744108,99.5141895 L72.037037,75.7768158 C71.0839,74.828478 69.6154974,74.631773 68.4463684,75.2958153 C63.7024136,77.9546344 58.0078191,78.3156272 52.9660919,76.2771439 C47.9243647,74.2386606 44.08093,70.0212287 42.5180375,64.8124098 C42.1624927,63.5997153 41.0865071,62.7477189 39.8379672,62.6683723 L39.6584897,62.6623377 L25.6132756,62.6623377 C24.4210635,62.6690965 23.3458836,63.3808486 22.8739779,64.4757095 C20.6073353,69.64719 15.0259191,72.5217148 9.49952117,71.3637833 C3.97312326,70.2058519 0.0150882475,65.3325513 0.0150882475,59.6861472 C0.0150882475,54.0397431 3.97312326,49.1664425 9.49952117,48.0085111 C15.0259191,46.8505796 20.6073353,49.7251044 22.8739779,54.8965849 C23.3222428,55.9192589 24.301875,56.5999312 25.4053223,56.6722911 L25.6012506,56.6786917 L39.6464646,56.6786917 C40.9703737,56.6736351 42.133537,55.7990614 42.5060125,54.5286195 C44.0508844,49.3695116 47.8346968,45.1790945 52.8099102,43.117475 C57.7851236,41.0558555 63.4238359,41.3417847 68.1649832,43.8961039 C69.2703417,44.5016703 70.6289867,44.3482749 71.5697892,43.5304941 L71.7147667,43.3958634 L95.6301106,19.4805195 C96.4685992,18.6303309 96.7244122,17.3644815 96.2818663,16.2554113 C94.2406917,10.997003 96.1617125,5.02762646 100.886614,1.94662697 C105.611515,-1.13437252 111.848642,-0.484736296 115.837204,3.50382553 Z M107.407407,101.440596 C104.112029,101.440596 101.440596,104.112029 101.440596,107.407407 C101.440596,110.702786 104.112029,113.374218 107.407407,113.374218 C110.702786,113.374218 113.374218,110.702786 113.374218,107.407407 C113.374218,104.112029 110.702786,101.440596 107.407407,101.440596 Z M59.6705147,101.440596 C62.9658934,101.440596 65.6373256,104.112029 65.6373256,107.407407 C65.6373256,110.702786 62.9658934,113.374218 59.6705147,113.374218 C56.375136,113.374218 53.7037037,110.702786 53.7037037,107.407407 C53.7037037,104.112029 56.375136,101.440596 59.6705147,101.440596 Z M16.6600451,103.753372 C18.6757134,106.360402 18.1963204,110.107839 15.589291,112.123507 C12.9822616,114.139175 9.23482469,113.659782 7.21915646,111.052753 C5.20348823,108.445723 5.6828812,104.698287 8.28991062,102.682618 C10.89694,100.66695 14.6443769,101.146343 16.6600451,103.753372 Z M470.971621,49.2544493 L483.405483,77.7585378 L494.381914,49.2544493 L499.810005,49.2544493 L485.459355,84.5695046 C484.006734,88.0952381 482.386564,90.5860189 480.598846,92.041847 C478.811127,93.4976752 476.63941,94.2255892 474.083694,94.2255892 C472.793057,94.2390599 471.505624,94.0944862 470.25012,93.7950938 C469.229905,93.5361719 468.236806,93.1815734 467.283969,92.7362259 L466.810967,92.5060125 L468.516114,88.4680135 C469.300101,88.8890505 470.132862,89.2121393 470.995671,89.4300144 C471.942375,89.6439273 472.911233,89.7440426 473.881674,89.7282347 C475.309545,89.7684075 476.700877,89.2734641 477.782588,88.3405483 C478.782,87.4653056 479.762105,85.9221898 480.722904,83.7112008 L480.892256,83.3140933 L465.35113,49.2544493 L470.971621,49.2544493 Z M445.2405,49.0909091 C446.509116,49.4349568 447.730457,49.9341555 448.876864,50.5772006 C449.941934,51.1847268 450.930242,51.9178834 451.820587,52.7609428 C452.539226,53.4421747 453.21188,54.1700256 453.834213,54.9396771 L454.201539,55.4064454 L454.206349,49.2544493 L459.297739,49.2544493 L459.297739,77.4939875 C459.297739,80.2709636 458.890492,82.6960077 458.075998,84.7691198 C457.322417,86.746054 456.122397,88.5222156 454.569505,89.959115 C452.985165,91.3856913 451.113849,92.4566548 449.081289,93.1000481 C446.760667,93.8324324 444.338008,94.189661 441.904762,94.1582492 C439.127884,94.171318 436.364591,93.7700771 433.706109,92.967773 C431.275237,92.2235588 428.965696,91.1321804 426.848719,89.7282627 L426.363636,89.3987494 L428.679654,85.4304954 C430.587348,86.8005174 432.680751,87.8913545 434.896585,88.6700337 C437.131424,89.4319893 439.478738,89.8116898 441.839827,89.7931698 C445.634921,89.7979798 448.654802,88.7734488 450.899471,86.7195767 C453.066737,84.7365278 454.187737,81.8424797 454.262471,78.0374322 L454.266474,77.6262626 L454.266474,73.5930736 C452.745173,75.598457 450.886424,77.3237401 448.773449,78.6916787 C446.613757,80.1026134 443.968254,80.8080808 440.836941,80.8080808 C438.795248,80.8089616 436.770606,80.436473 434.862915,79.7089947 C430.966804,78.2463884 427.821344,75.2802977 426.132756,71.4766715 C425.199575,69.3520748 424.73686,67.0508078 424.776335,64.7306397 C424.739391,62.3998284 425.201897,60.08812 426.132756,57.950938 C426.978272,56.0271397 428.205561,54.2950261 429.74026,52.8595479 C431.239467,51.4708792 432.990524,50.3818774 434.89899,49.6512747 C438.200945,48.3792126 441.820426,48.1830872 445.2405,49.0909091 Z M356.255411,53.7854738 C357.848104,55.408211 359.104341,57.3297553 359.9519,59.4396344 C362.638052,66.11876 361.162585,73.7520431 356.180856,78.9490139 C354.562457,80.60259 352.6315,81.9179623 350.500241,82.8186628 C348.242406,83.7759982 345.812117,84.259764 343.359788,84.2400192 C340.927233,84.2644073 338.516417,83.7802781 336.281866,82.8186628 C334.180618,81.9106176 332.272747,80.608498 330.661376,78.982684 C329.066094,77.3605897 327.807376,75.4390015 326.957672,73.3285233 C326.071069,71.1443529 325.621662,68.807437 325.634636,66.4502165 C325.623946,64.0822933 326.073188,61.734798 326.957672,59.5382395 C328.669033,55.2191052 332.039387,51.7655969 336.315536,49.9494949 C343.128501,47.0991735 350.986268,48.6108294 356.255411,53.7854738 Z M401.746032,35.1683502 L401.746032,83.4535835 L396.654642,83.4535835 L396.654642,76.5584416 C395.941553,77.5824006 395.157183,78.5548276 394.307359,79.4684945 C393.444872,80.3944262 392.476179,81.2153937 391.421356,81.9143819 C390.329611,82.6364049 389.1376,83.1939188 387.883598,83.5690236 C386.477868,83.9798163 385.019018,84.180003 383.554594,84.1630592 C381.491817,84.1640512 379.448999,83.7591816 377.542088,82.972583 C375.587802,82.1723323 373.810936,80.9937485 372.313612,79.5045695 C370.719151,77.9067315 369.459945,76.0064753 368.609909,73.9153439 C367.686388,71.709155 367.223826,69.1959275 367.222218,66.3756614 C367.220619,63.5553952 367.683181,61.0421677 368.609909,58.8359788 C369.459939,56.7455533 370.719166,54.8460836 372.313612,53.2491582 C373.813082,51.7558187 375.58676,50.566017 377.537278,49.7450697 C379.438979,48.937638 381.48377,48.5213186 383.549784,48.5209235 C385.02598,48.5052234 386.496546,48.7053501 387.914863,49.1149591 C389.170943,49.4820277 390.372125,50.0158862 391.486291,50.7022607 C392.538255,51.3549378 393.50731,52.1326044 394.372294,53.018278 C395.072433,53.733066 395.719457,54.4976517 396.308334,55.3059095 L396.654642,55.7960558 L396.654642,35.1683502 L401.746032,35.1683502 Z M217.041847,37.1524772 C222.552509,37.1588905 226.839827,38.5040885 229.9038,41.1880712 C232.872024,43.7881794 234.402514,47.3858986 234.495271,51.9812288 L234.499759,52.4290524 L234.499759,52.5613276 C234.498156,56.3099246 233.583454,59.363476 231.755652,61.7219817 C229.994314,63.9851706 227.655381,65.7276894 224.988759,66.7683754 L224.58634,66.9191919 L235.889851,83.4535835 L223.985089,83.4535835 L214.064454,68.6387686 L206.063011,68.6387686 L206.063011,83.4535835 L195.877826,83.4535835 L195.877826,37.1524772 L217.041847,37.1524772 Z M280.165967,37.152593 C282.38724,37.1795572 284.594213,37.5242622 286.719577,38.1770082 C288.718101,38.7874806 290.581109,39.7753156 292.207792,41.0870611 C293.712333,42.3346614 294.905492,43.9156583 295.692641,45.7046657 C296.532078,47.6563153 296.948469,49.7636791 296.914382,51.8879269 C296.914382,54.4019561 296.433381,56.6065416 295.47138,58.5016835 C294.529545,60.3613416 293.185504,61.987992 291.536797,63.2635883 C289.80802,64.5845638 287.843371,65.5640314 285.747956,66.1495911 C283.659103,66.7461308 281.502303,67.0680084 279.33198,67.1077532 L278.739779,67.1115921 L267.518038,67.1115921 L267.518038,83.4535835 L262.294372,83.4535835 L262.294372,37.1524772 L280.165967,37.152593 Z M322.333464,48.6513405 L322.797018,48.6604137 L322.797018,54.1486291 L322.400192,54.1486291 C320.600232,54.1391308 318.815284,54.4763602 317.142857,55.1418951 C315.496198,55.798585 314.017139,56.8150267 312.813853,58.1168831 C311.516523,59.5428228 310.526024,61.2201224 309.9038,63.044733 C309.248723,64.8670377 308.897789,66.9450989 308.850998,69.2789165 L308.845599,69.8220298 L308.845599,83.4535835 L303.751804,83.4535835 L303.751804,49.2544493 L308.845599,49.2544493 L308.845599,58.1842232 C309.450449,56.7914394 310.227728,55.4800832 311.159211,54.2809043 C312.06564,53.1097232 313.134625,52.0739416 314.333814,51.2049062 C315.51804,50.3490334 316.832924,49.6903729 318.227513,49.2544493 C319.411411,48.8951052 320.636416,48.6947671 321.870374,48.657615 L322.333464,48.6513405 Z M158.051948,37.1524772 L158.051948,55.4713805 L176.832612,55.4713805 L176.832612,37.1524772 L187.017797,37.1524772 L187.017797,83.4463684 L176.832612,83.4463684 L176.832612,64.8629149 L158.051948,64.8629149 L158.051948,83.4463684 L147.866763,83.4463684 L147.866763,37.1524772 L158.051948,37.1524772 Z M416.928812,49.2544493 L416.928812,83.4439634 L411.837422,83.4439634 L411.837422,49.2544493 L416.928812,49.2544493 Z M343.354978,53.025493 C341.604062,53.0042197 339.868349,53.3525096 338.261183,54.047619 C336.761194,54.6991689 335.419211,55.6662829 334.326599,56.8831169 C333.227516,58.1235466 332.365102,59.5549251 331.782107,61.1063011 C331.155733,62.7601305 330.841773,64.5158572 330.856181,66.2842713 C330.844972,68.066637 331.17139,69.8350041 331.818182,71.4959115 C332.419129,73.0612156 333.3175,74.4953411 334.463684,75.7190957 C335.601042,76.9149726 336.960289,77.8780448 338.465608,78.5545936 C340.044745,79.2667451 341.759852,79.6269997 343.492063,79.6103896 C345.24209,79.6304602 346.976771,79.282213 348.583454,78.5882636 C350.084186,77.9349581 351.434819,76.9805111 352.551708,75.7840308 C353.578562,74.6673734 354.399632,73.3791332 354.978138,71.9790774 L355.12987,71.5945166 C356.370261,68.2412836 356.359155,64.5505843 355.093795,61.2049062 C354.483753,59.627102 353.573948,58.1823585 352.414622,56.950457 C351.26864,55.7409236 349.897883,54.7663626 348.379028,54.0812891 C346.800678,53.3693322 345.086395,53.0090785 343.354978,53.025493 Z M384.473304,53.1601732 C382.865596,53.1475241 381.270893,53.4489819 379.77874,54.047619 C378.344648,54.6255262 377.048895,55.5000161 375.976431,56.6137566 C374.847872,57.8090934 373.971117,59.2190983 373.398268,60.7599808 C372.789657,62.3892897 372.464793,64.1096303 372.436593,65.8463465 L372.436267,66.3203463 C372.409638,68.1853083 372.736044,70.0384752 373.398268,71.7821068 C373.98892,73.3312074 374.876101,74.7502054 376.010101,75.959596 C377.09215,77.1079451 378.403042,78.0165573 379.858105,78.6267436 C381.322825,79.2417325 382.896765,79.55423 384.485329,79.5456344 C386.067853,79.5433636 387.633047,79.2159171 389.083694,78.5834536 C390.558561,77.9471876 391.903101,77.0437609 393.049543,75.9187109 C394.150259,74.8281498 395.036241,73.5421042 395.662882,72.1276964 L395.827321,71.7388167 C396.520914,70.0248492 396.865887,68.1830888 396.842232,66.3275613 C396.865532,64.4779347 396.516283,62.6425414 395.815296,60.9307359 C395.178349,59.3762406 394.233467,57.966689 393.037518,56.7869168 C391.892348,55.6603076 390.547499,54.7566736 389.071669,54.1221741 C387.621401,53.4885248 386.055957,53.1610261 384.473304,53.1601732 Z M441.837422,53.025493 C440.27038,53.014041 438.713911,53.282819 437.241462,53.8191438 C435.841231,54.3280319 434.558469,55.1150322 433.470418,56.1327561 C432.377242,57.1666823 431.510772,58.4164299 430.925926,59.8027898 C430.291627,61.3208858 429.976451,62.9532517 430,64.5983646 C429.945983,67.7994578 431.227915,70.8783619 433.537759,73.0952381 C434.621054,74.1342739 435.902837,74.9440795 437.306397,75.4761905 C438.752279,76.0308695 440.288816,76.3114261 441.837422,76.3036742 C443.439056,76.3094811 445.02888,76.0293073 446.531987,75.4761905 C447.998323,74.9451678 449.354763,74.1495638 450.533911,73.1289081 C451.708073,72.1074212 452.663567,70.8590629 453.342953,69.4588745 C454.753874,66.418332 454.753874,62.9106723 453.342953,59.8701299 C452.66215,58.470121 451.706883,57.2212401 450.533911,56.1976912 C449.353404,55.1789314 447.997331,54.3835423 446.531987,53.8504089 C445.028435,53.2992072 443.438815,53.0198835 441.837422,53.025493 Z M59.6657047,47.7368927 C53.0749473,47.7368927 47.7320827,53.0797573 47.7320827,59.6705147 C47.7320827,66.1598758 52.911816,71.4394454 59.3624169,71.6003578 L59.6657047,71.6041366 C66.2593936,71.6014809 71.5993266,66.2593941 71.5993266,59.6705147 C71.5993266,53.0797573 66.2564621,47.7368927 59.6657047,47.7368927 Z M59.6705147,53.7037037 C62.9658934,53.7037037 65.6373256,56.375136 65.6373256,59.6705147 C65.6373256,62.9658934 62.9658934,65.6373256 59.6705147,65.6373256 C56.375136,65.6373256 53.7037037,62.9658934 53.7037037,59.6705147 C53.7037037,56.375136 56.375136,53.7037037 59.6705147,53.7037037 Z M11.9288119,53.7037037 C8.63343323,53.7037037 5.96200096,56.375136 5.96200096,59.6705147 C5.96200096,62.8909984 8.51338436,65.5155746 11.7051179,65.6332101 L11.9288119,65.6373256 C15.2271221,65.6346707 17.8956229,62.9640159 17.8956229,59.6705147 C17.8956229,56.375136 15.2241906,53.7037037 11.9288119,53.7037037 Z M107.407407,53.7037037 C110.702786,53.7037037 113.374218,56.375136 113.374218,59.6705147 C113.374218,62.9658934 110.702786,65.6373256 107.407407,65.6373256 C104.112029,65.6373256 101.440596,62.9658934 101.440596,59.6705147 C101.440596,56.375136 104.112029,53.7037037 107.407407,53.7037037 Z M279.244829,41.981722 L267.508418,41.981722 L267.508418,62.3424723 L278.980279,62.3424723 C280.742262,62.364636 282.497542,62.1214101 284.187109,61.6209716 C285.654503,61.1891528 287.026451,60.4823669 288.229918,59.5382395 C289.237304,58.7427964 290.065144,57.745263 290.660989,56.6112978 L290.817701,56.2987013 C291.420485,54.9844782 291.729535,53.5493694 291.712362,52.0995671 C291.710758,48.7469937 290.572391,46.2225429 288.297258,44.5262145 C286.022126,42.8298862 283.00465,41.981722 279.244829,41.981722 Z M216.180856,46.3443963 L206.063011,46.3443963 L206.063011,59.6440596 L216.380471,59.6440596 C218.894501,59.6392496 220.823312,59.0420074 222.166907,57.8523329 C223.439786,56.7252728 224.109723,55.2413397 224.176716,53.4005335 L224.182299,53.0904281 L224.182299,52.958153 C224.180696,50.7551708 223.475228,49.1021324 222.065897,47.999038 C220.656566,46.8959436 218.694885,46.3443963 216.180856,46.3443963 Z M417.328042,36.1616162 L417.328042,41.7821068 L411.507937,41.7821068 L411.507937,36.1616162 L417.328042,36.1616162 Z M17.6987525,10.3942457 C18.5488811,13.5780802 16.6570388,16.8482534 13.4732043,17.6983821 C10.2893698,18.5485108 7.01919655,16.6566684 6.16906788,13.4728339 C5.31893921,10.2889995 7.21078156,7.01882619 10.394616,6.16869752 C13.5784505,5.31856885 16.8486238,7.2104112 17.6987525,10.3942457 Z M107.407407,5.96681097 C104.112029,5.96681097 101.440596,8.63824323 101.440596,11.9336219 C101.440596,15.2290006 104.112029,17.9004329 107.407407,17.9004329 C110.702786,17.9004329 113.374218,15.2290006 113.374218,11.9336219 C113.374218,8.63824323 110.702786,5.96681097 107.407407,5.96681097 Z M59.6705147,5.96681097 C62.9658934,5.96681097 65.6373256,8.63824323 65.6373256,11.9336219 C65.6373256,15.2290006 62.9658934,17.9004329 59.6705147,17.9004329 C56.375136,17.9004329 53.7037037,15.2290006 53.7037037,11.9336219 C53.7037037,8.63824323 56.375136,5.96681097 59.6705147,5.96681097 Z" id="Combined-Shape"></path>
        </g>
    </g>
</svg>