<?xml version="1.0" encoding="UTF-8"?>
<svg width="123px" height="48px" viewBox="0 0 123 48" version="1.1" xmlns="http://www.w3.org/2000/svg" xmlns:xlink="http://www.w3.org/1999/xlink">
    <!-- Generator: Sketch 53.2 (72643) - https://sketchapp.com -->
    <title>Combined Shape</title>
    <desc>Created with Sketch.</desc>
    <g id="Page-1" stroke="none" stroke-width="1" fill="none" fill-rule="evenodd">
        <g id="ict" fill="#FFFFFF" fill-rule="nonzero">
            <path d="M118.544459,41.8482229 L120.0323,39.0995 L121.1263,39.0995 L122.6313,41.9335 L121.6893,41.9335 L121.4183,41.4615 L119.7083,41.4615 L119.4333,41.9335 L118.646542,41.9335 L117.4555,41.9343 L116.1845,40.8613 L115.8235,40.8613 L115.8235,41.9343 L114.9675,41.9343 L114.9675,39.0993 L115.8235,39.0993 L115.8235,40.1523 L116.1845,40.1523 L117.3085,39.0993 L118.4475,39.0993 L116.9285,40.4983 L118.544459,41.8482229 Z M0.628,47.026 L0.628,0.795 L46.859,0.795 L46.859,47.026 L0.628,47.026 Z M10.8685,23.9099 L10.8685,18.7689 L5.7265,18.7689 L5.7265,23.9099 L5.7265,29.0509 L5.7265,34.1929 L10.8685,34.1929 L10.8685,29.0559 L16.0105,29.0559 L16.0105,23.9149 L10.8685,23.9149 L10.8685,23.9099 Z M26.2928,18.7733 L26.2928,18.7683 L26.2928,13.6273 L21.1518,13.6273 L21.1518,18.7683 L21.1518,18.7733 L16.0098,18.7733 L16.0098,23.9143 L21.1518,23.9143 L21.1518,29.0513 L26.2928,29.0513 L26.2928,23.9143 L31.4348,23.9143 L31.4348,18.7733 L26.2928,18.7733 Z M36.576,18.7684 L36.576,23.9094 L36.576,23.9144 L31.434,23.9144 L31.434,29.0564 L36.576,29.0564 L36.576,34.1924 L41.718,34.1924 L41.718,29.0514 L41.718,23.9094 L41.718,18.7684 L36.576,18.7684 Z M51.8,27.954 L51.8,5.848 L61.893,5.848 L61.893,27.954 L51.8,27.954 Z M72.7365,27.9546 C69.9495,27.9546 67.8645,27.4526 66.4855,26.4516 C65.1065,25.4506 64.4155,23.9376 64.4155,21.9146 L64.4155,11.8296 C64.4155,9.9126 65.1115,8.4366 66.5055,7.4006 C67.8995,6.3666 69.8845,5.8486 72.4575,5.8486 L92.1065,5.8486 L92.1065,11.8296 L73.9905,11.8296 L73.9905,21.9146 L92.0665,21.9146 L92.0665,27.9546 L72.7365,27.9546 Z M103.7124,27.9546 L103.7124,11.8296 L94.3754,11.8296 L94.3754,5.8486 L122.6244,5.8486 L122.6244,11.8296 L113.7054,11.8296 L113.7054,27.9546 L103.7124,27.9546 Z M54.1606,29.8123 L55.0266,29.8123 L56.0806,30.4213 L57.1336,29.8123 L57.9996,29.8123 L56.7996,30.9763 L55.3606,30.9763 L54.1606,29.8123 Z M60.3586,37.5743 L51.8066,37.5743 L51.8066,35.9573 L56.7896,32.9833 L51.9526,32.9833 L51.9526,31.2803 L60.3586,31.2803 L60.3586,32.9833 L55.6026,35.8553 L60.3586,35.8553 L60.3586,37.5743 Z M70.2823,36.2793 C70.2823,36.6813 70.0993,36.9983 69.7343,37.2293 C69.3693,37.4593 68.8643,37.5743 68.2243,37.5743 L63.4233,37.5743 C62.7783,37.5743 62.2713,37.4583 61.9053,37.2263 C61.5363,36.9953 61.3533,36.6793 61.3533,36.2793 L61.3533,31.2803 L64.2393,31.2803 L64.2393,35.8553 L67.4013,35.8553 L67.4013,31.2803 L70.2823,31.2803 L70.2823,36.2793 Z M74.246,34.078 L77.086,34.078 L77.086,32.984 L74.246,32.984 L74.246,34.078 Z M71.396,37.575 L71.396,31.28 L78.103,31.28 C78.769,31.28 79.251,31.383 79.552,31.587 C79.853,31.792 80.003,32.118 80.003,32.567 L80.003,34.305 C80.003,34.716 79.853,35.022 79.549,35.224 C79.248,35.425 78.784,35.526 78.163,35.526 L74.284,35.526 L74.284,37.575 L71.396,37.575 Z M83.71,33.765 L86.868,33.765 L86.868,32.983 L83.71,32.983 L83.71,33.765 Z M80.834,32.58 C80.834,32.177 81.017,31.86 81.385,31.628 C81.752,31.397 82.259,31.28 82.904,31.28 L87.691,31.28 C88.338,31.28 88.844,31.397 89.211,31.628 C89.578,31.86 89.763,32.177 89.763,32.58 L89.763,37.575 L86.868,37.575 L86.868,35.04 L83.71,35.04 L83.71,37.575 L80.834,37.575 L80.834,32.58 Z M90.8522,37.5745 L90.8522,31.2805 L94.3992,31.2805 L96.6562,33.7565 C96.7252,33.8335 96.8052,33.9335 96.8962,34.0575 C96.9862,34.1795 97.1092,34.3535 97.2612,34.5745 C97.2092,34.3995 97.1712,34.2165 97.1472,34.0265 C97.1232,33.8355 97.1112,33.6275 97.1112,33.4035 L97.1112,31.2805 L99.8662,31.2805 L99.8662,37.5745 L97.1112,37.5745 L94.0652,34.2785 C93.9982,34.2085 93.9102,34.1005 93.8022,33.9565 C93.6952,33.8125 93.5792,33.6485 93.4552,33.4655 C93.5072,33.6405 93.5462,33.8215 93.5712,34.0095 C93.5952,34.1975 93.6052,34.4035 93.6052,34.6245 L93.6052,37.5745 L90.8522,37.5745 Z M101.016,37.574 L101.016,31.28 L103.902,31.28 L103.902,37.574 L101.016,37.574 Z M112.5963,35.8796 C112.5963,36.4416 112.4093,36.8646 112.0363,37.1486 C111.6623,37.4326 111.1023,37.5746 110.3553,37.5746 L107.1903,37.5746 C106.4433,37.5746 105.8843,37.4326 105.5103,37.1486 C105.1373,36.8646 104.9503,36.4416 104.9503,35.8796 L104.9503,34.6506 L107.6863,34.6506 L107.6863,35.8546 L109.8463,35.8546 L109.8463,31.2806 L112.5963,31.2806 L112.5963,35.8796 Z M116.579,33.765 L119.737,33.765 L119.737,32.983 L116.579,32.983 L116.579,33.765 Z M113.703,32.58 C113.703,32.177 113.886,31.86 114.255,31.628 C114.621,31.397 115.128,31.28 115.773,31.28 L120.56,31.28 C121.207,31.28 121.714,31.397 122.081,31.628 C122.447,31.86 122.632,32.177 122.632,32.58 L122.632,37.575 L119.737,37.575 L119.737,35.04 L116.579,35.04 L116.579,37.575 L113.703,37.575 L113.703,32.58 Z M51.8181,40.9911 L52.6641,40.9901 L52.6641,41.0401 C52.6641,41.1471 52.6911,41.2191 52.7421,41.2571 C52.7941,41.2941 52.9021,41.3131 53.0671,41.3131 L54.1431,41.3131 C54.2491,41.3131 54.3241,41.2961 54.3701,41.2591 C54.4151,41.2231 54.4371,41.1621 54.4371,41.0791 C54.4371,40.9941 54.4111,40.9331 54.3591,40.8961 C54.3071,40.8591 54.1951,40.8351 54.0221,40.8221 L52.6761,40.7921 C52.3391,40.7821 52.1111,40.7171 51.9921,40.5981 C51.8731,40.4781 51.8141,40.2611 51.8141,39.9471 C51.8141,39.7841 51.8291,39.6501 51.8611,39.5441 C51.8921,39.4391 51.9431,39.3521 52.0121,39.2821 C52.0931,39.2031 52.2001,39.1471 52.3321,39.1141 C52.4641,39.0811 52.6791,39.0651 52.9771,39.0651 L54.2871,39.0651 C54.6111,39.0651 54.8451,39.1241 54.9871,39.2441 C55.1301,39.3631 55.2021,39.5571 55.2021,39.8251 C55.2021,39.8431 55.2011,39.8621 55.2011,39.8821 C55.1991,39.9021 55.1981,39.9351 55.1941,39.9811 L54.3681,39.9811 L54.3681,39.9701 C54.3681,39.8761 54.3441,39.8051 54.2971,39.7581 C54.2501,39.7111 54.1801,39.6881 54.0851,39.6881 L53.0971,39.6881 C52.9321,39.6881 52.8231,39.7041 52.7701,39.7371 C52.7171,39.7701 52.6911,39.8271 52.6911,39.9101 C52.6911,39.9911 52.7151,40.0511 52.7621,40.0861 C52.8101,40.1231 52.8981,40.1461 53.0261,40.1561 L54.4371,40.1791 C54.7591,40.1881 54.9861,40.2601 55.1181,40.3971 C55.2481,40.5341 55.3151,40.7691 55.3151,41.1001 C55.3151,41.2971 55.2901,41.4491 55.2421,41.5571 C55.1931,41.6651 55.1131,41.7561 54.9981,41.8321 C54.9231,41.8801 54.8201,41.9161 54.6901,41.9361 C54.5611,41.9581 54.3731,41.9681 54.1281,41.9681 L52.9851,41.9681 C52.5161,41.9681 52.2031,41.9151 52.0441,41.8091 C51.8861,41.7031 51.8071,41.5051 51.8071,41.2161 C51.8071,41.1991 51.8071,41.1721 51.8091,41.1331 C51.8101,41.0951 51.8141,41.0471 51.8181,40.9911 Z M57.9409,39.8059 L56.6769,39.8059 L56.6769,40.5229 L57.9409,40.5229 C58.0549,40.5229 58.1349,40.4949 58.1809,40.4389 C58.2259,40.3819 58.2499,40.2819 58.2499,40.1369 C58.2499,40.0219 58.2249,39.9379 58.1759,39.8849 C58.1269,39.8329 58.0489,39.8059 57.9409,39.8059 Z M57.9709,39.0989 C58.1619,39.0989 58.3139,39.1089 58.4289,39.1269 C58.5419,39.1459 58.6389,39.1749 58.7179,39.2169 C58.8599,39.2919 58.9629,39.4039 59.0269,39.5519 C59.0919,39.6989 59.1229,39.9039 59.1229,40.1639 C59.1229,40.5519 59.0589,40.8259 58.9309,40.9869 C58.8019,41.1469 58.5859,41.2269 58.2799,41.2269 L56.6769,41.2269 L56.6769,41.9339 L55.8169,41.9339 L55.8169,39.0989 L57.9709,39.0989 Z M60.4911,41.2487 L62.3601,41.2487 L62.3601,41.9337 L59.6321,41.9337 L59.6321,39.0987 L60.4911,39.0987 L60.4911,41.2487 Z M62.732,41.934 L62.732,39.099 L63.59,39.099 L63.59,41.934 L62.732,41.934 Z M66.0342,41.9339 L65.1782,41.9339 L65.1782,39.7949 L64.0032,39.7949 L64.0032,39.0989 L67.2102,39.0989 L67.2102,39.7949 L66.0342,39.7949 L66.0342,41.9339 Z M67.5532,40.9911 L68.3992,40.9901 L68.3992,41.0401 C68.3992,41.1471 68.4262,41.2191 68.4772,41.2571 C68.5292,41.2941 68.6372,41.3131 68.8022,41.3131 L69.8782,41.3131 C69.9842,41.3131 70.0592,41.2961 70.1042,41.2591 C70.1502,41.2231 70.1722,41.1621 70.1722,41.0791 C70.1722,40.9941 70.1462,40.9331 70.0942,40.8961 C70.0422,40.8591 69.9302,40.8351 69.7572,40.8221 L68.4112,40.7921 C68.0742,40.7821 67.8462,40.7171 67.7272,40.5981 C67.6082,40.4781 67.5492,40.2611 67.5492,39.9471 C67.5492,39.7841 67.5642,39.6501 67.5962,39.5441 C67.6272,39.4391 67.6782,39.3521 67.7472,39.2821 C67.8282,39.2031 67.9352,39.1471 68.0672,39.1141 C68.1992,39.0811 68.4142,39.0651 68.7122,39.0651 L70.0212,39.0651 C70.3462,39.0651 70.5802,39.1241 70.7222,39.2441 C70.8652,39.3631 70.9372,39.5571 70.9372,39.8251 C70.9372,39.8431 70.9362,39.8621 70.9362,39.8821 C70.9342,39.9021 70.9332,39.9351 70.9292,39.9811 L70.1032,39.9811 L70.1032,39.9701 C70.1032,39.8761 70.0792,39.8051 70.0322,39.7581 C69.9852,39.7111 69.9152,39.6881 69.8202,39.6881 L68.8322,39.6881 C68.6672,39.6881 68.5582,39.7041 68.5052,39.7371 C68.4522,39.7701 68.4262,39.8271 68.4262,39.9101 C68.4262,39.9911 68.4502,40.0511 68.4972,40.0861 C68.5452,40.1231 68.6332,40.1461 68.7612,40.1561 L70.1722,40.1791 C70.4942,40.1881 70.7212,40.2601 70.8532,40.3971 C70.9832,40.5341 71.0502,40.7691 71.0502,41.1001 C71.0502,41.2971 71.0252,41.4491 70.9772,41.5571 C70.9282,41.6651 70.8482,41.7561 70.7332,41.8321 C70.6582,41.8801 70.5552,41.9161 70.4252,41.9361 C70.2962,41.9581 70.1082,41.9681 69.8632,41.9681 L68.7202,41.9681 C68.2512,41.9681 67.9382,41.9151 67.7792,41.8091 C67.6212,41.7031 67.5422,41.5051 67.5422,41.2161 C67.5422,41.1991 67.5422,41.1721 67.5442,41.1331 C67.5452,41.0951 67.5492,41.0471 67.5532,40.9911 Z M72.416,40.1523 L72.776,40.1523 L73.9,39.0993 L75.039,39.0993 L73.521,40.4983 L75.239,41.9343 L74.047,41.9343 L72.776,40.8613 L72.416,40.8613 L72.416,41.9343 L71.56,41.9343 L71.56,39.0993 L72.416,39.0993 L72.416,40.1523 Z M76.9366,41.2601 L77.4826,41.2601 C77.7856,41.2601 77.9866,41.2221 78.0856,41.1451 C78.1856,41.0681 78.2346,40.9251 78.2346,40.7171 L78.2346,40.3161 C78.2346,40.1081 78.1856,39.9661 78.0856,39.8881 C77.9866,39.8121 77.7856,39.7731 77.4826,39.7731 L76.9326,39.7731 C76.6236,39.7731 76.4206,39.8121 76.3256,39.8901 C76.2286,39.9671 76.1806,40.1141 76.1806,40.3311 L76.1806,40.7251 C76.1806,40.9291 76.2316,41.0701 76.3326,41.1461 C76.4336,41.2221 76.6346,41.2601 76.9366,41.2601 Z M76.7056,41.9681 C76.3766,41.9681 76.1366,41.9531 75.9846,41.9241 C75.8326,41.8931 75.7076,41.8421 75.6126,41.7701 C75.5046,41.6891 75.4266,41.5821 75.3786,41.4521 C75.3306,41.3201 75.3066,41.1461 75.3066,40.9291 L75.3066,40.1561 C75.3066,39.9191 75.3306,39.7311 75.3786,39.5931 C75.4266,39.4541 75.5046,39.3441 75.6126,39.2631 C75.7066,39.1921 75.8326,39.1411 75.9896,39.1101 C76.1456,39.0801 76.3836,39.0651 76.7016,39.0651 L77.7096,39.0651 C78.0296,39.0651 78.2686,39.0801 78.4266,39.1101 C78.5836,39.1411 78.7096,39.1921 78.8026,39.2631 C78.9076,39.3431 78.9826,39.4521 79.0316,39.5901 C79.0796,39.7281 79.1046,39.9061 79.1046,40.1221 L79.1046,40.9111 C79.1046,41.1291 79.0796,41.3071 79.0316,41.4441 C78.9826,41.5801 78.9076,41.6891 78.8026,41.7701 C78.7086,41.8421 78.5836,41.8931 78.4296,41.9241 C78.2746,41.9531 78.0346,41.9681 77.7096,41.9681 L76.7056,41.9681 Z M79.634,41.279 L79.634,40.553 L80.905,40.553 L80.905,41.279 L79.634,41.279 Z M83.7297,39.7983 L82.3837,39.7983 L82.3837,41.2453 L83.8367,41.2453 C84.0187,41.2453 84.1517,41.2063 84.2367,41.1323 C84.3207,41.0573 84.3637,40.9403 84.3637,40.7803 L84.3637,40.2813 C84.3637,40.1153 84.3117,39.9933 84.2087,39.9153 C84.1067,39.8373 83.9477,39.7983 83.7297,39.7983 Z M83.9917,39.0993 C84.4197,39.0993 84.7317,39.1753 84.9267,39.3273 C85.1217,39.4783 85.2197,39.7193 85.2197,40.0513 L85.2197,41.0253 C85.2197,41.3403 85.1417,41.5713 84.9857,41.7153 C84.8297,41.8613 84.5827,41.9343 84.2427,41.9343 L81.5277,41.9343 L81.5277,39.0993 L83.9917,39.0993 Z M86.9099,40.7805 L87.9889,40.7805 L87.4429,39.7765 L86.9099,40.7805 Z M86.3109,41.9335 L85.3759,41.9335 L86.9099,39.0995 L88.0039,39.0995 L89.5089,41.9335 L88.5669,41.9335 L88.2959,41.4615 L86.5859,41.4615 L86.3109,41.9335 Z M90.71,41.2487 L92.58,41.2487 L92.58,41.9337 L89.852,41.9337 L89.852,39.0987 L90.71,39.0987 L90.71,41.2487 Z M93.7545,41.9339 L92.9205,41.9339 L92.9205,39.0989 L94.1875,39.0989 L95.1885,40.8689 L96.2065,39.0989 L97.4555,39.0989 L97.4555,41.9339 L96.6255,41.9339 L96.6255,39.9139 L95.4655,41.9339 L94.9055,41.9339 L93.7545,39.9139 L93.7545,41.9339 Z M99.2874,40.7805 L100.3664,40.7805 L99.8204,39.7765 L99.2874,40.7805 Z M98.6884,41.9335 L97.7534,41.9335 L99.2874,39.0995 L100.3814,39.0995 L101.8864,41.9335 L100.9444,41.9335 L100.6734,41.4615 L98.9634,41.4615 L98.6884,41.9335 Z M103.5856,41.9339 L102.7296,41.9339 L102.7296,39.7949 L101.5546,39.7949 L101.5546,39.0989 L104.7616,39.0989 L104.7616,39.7949 L103.5856,39.7949 L103.5856,41.9339 Z M105.174,41.934 L105.174,39.099 L106.033,39.099 L106.033,41.934 L105.174,41.934 Z M110.4402,41.9339 L109.1842,41.9339 L107.5002,39.8719 L107.5002,41.9339 L106.6442,41.9339 L106.6442,39.0989 L107.9122,39.0989 L109.5862,41.1779 L109.5862,39.0989 L110.4402,39.0989 L110.4402,41.9339 Z M110.9608,40.9911 L111.8088,40.9901 L111.8088,41.0401 C111.8088,41.1471 111.8338,41.2191 111.8848,41.2571 C111.9368,41.2941 112.0448,41.3131 112.2098,41.3131 L113.2868,41.3131 C113.3928,41.3131 113.4688,41.2961 113.5138,41.2591 C113.5588,41.2231 113.5818,41.1621 113.5818,41.0791 C113.5818,40.9941 113.5548,40.9331 113.5038,40.8961 C113.4508,40.8591 113.3388,40.8351 113.1668,40.8221 L111.8198,40.7921 C111.4828,40.7821 111.2548,40.7171 111.1358,40.5981 C111.0178,40.4781 110.9568,40.2611 110.9568,39.9471 C110.9568,39.7841 110.9738,39.6501 111.0048,39.5441 C111.0368,39.4391 111.0868,39.3521 111.1558,39.2821 C111.2378,39.2031 111.3448,39.1471 111.4768,39.1141 C111.6088,39.0811 111.8238,39.0651 112.1218,39.0651 L113.4308,39.0651 C113.7548,39.0651 113.9878,39.1241 114.1308,39.2441 C114.2728,39.3631 114.3448,39.5571 114.3448,39.8251 L114.3448,39.8821 C114.3438,39.9021 114.3408,39.9351 114.3368,39.9811 L113.5108,39.9811 L113.5108,39.9701 C113.5108,39.8761 113.4888,39.8051 113.4408,39.7581 C113.3938,39.7111 113.3228,39.6881 113.2278,39.6881 L112.2398,39.6881 C112.0748,39.6881 111.9668,39.7041 111.9138,39.7371 C111.8608,39.7701 111.8348,39.8271 111.8348,39.9101 C111.8348,39.9911 111.8588,40.0511 111.9068,40.0861 C111.9538,40.1231 112.0418,40.1461 112.1708,40.1561 L113.5818,40.1791 C113.9038,40.1881 114.1298,40.2601 114.2618,40.3971 C114.3928,40.5341 114.4578,40.7691 114.4578,41.1001 C114.4578,41.2971 114.4338,41.4491 114.3858,41.5571 C114.3368,41.6651 114.2558,41.7561 114.1408,41.8321 C114.0658,41.8801 113.9638,41.9161 113.8338,41.9361 C113.7048,41.9581 113.5178,41.9681 113.2718,41.9681 L112.1288,41.9681 C111.6598,41.9681 111.3458,41.9151 111.1868,41.8091 C111.0288,41.7031 110.9498,41.5051 110.9498,41.2161 C110.9498,41.1991 110.9508,41.1721 110.9528,41.1331 C110.9548,41.0951 110.9568,41.0471 110.9608,40.9911 Z M120.0323,40.7805 L121.1113,40.7805 L120.5653,39.7765 L120.0323,40.7805 Z" id="Combined-Shape"></path>
        </g>
    </g>
</svg>