<?xml version="1.0" encoding="UTF-8"?>
<svg width="1576px" height="330px" viewBox="0 0 1576 330" version="1.1" xmlns="http://www.w3.org/2000/svg" xmlns:xlink="http://www.w3.org/1999/xlink">
    <!-- Generator: Sketch 53.2 (72643) - https://sketchapp.com -->
    <title>Combined Shape</title>
    <desc>Created with Sketch.</desc>
    <g id="Page-1" stroke="none" stroke-width="1" fill="none" fill-rule="evenodd">
        <g id="_include-logo-_-black-on-white--(4)" transform="translate(-999.000000, -872.000000)" fill="#FFFFFF">
            <path d="M1234.0596,922.4722 C1220.1536,922.4722 1208.8526,911.1952 1208.8526,897.2852 C1208.8526,883.3742 1220.1066,872.0972 1234.0186,872.0972 L1234.0596,872.0972 C1247.9696,872.0972 1259.2466,883.3742 1259.2466,897.2852 C1259.2466,911.1952 1247.9696,922.4722 1234.0596,922.4722 Z M1234.0596,992.2222 C1220.1536,992.2222 1208.8526,980.9462 1208.8526,967.0352 C1208.8526,953.1242 1220.1066,941.8472 1234.0186,941.8472 L1234.0596,941.8472 C1247.9696,941.8472 1259.2466,953.1242 1259.2466,967.0352 C1259.2466,980.9462 1247.9696,992.2222 1234.0596,992.2222 Z M1234.0596,1061.9727 C1220.1536,1061.9727 1208.8526,1050.6967 1208.8526,1036.7857 C1208.8526,1022.8737 1220.1066,1011.5977 1234.0186,1011.5977 L1234.0596,1011.5977 C1247.9696,1011.5977 1259.2466,1022.8737 1259.2466,1036.7857 C1259.2466,1050.6967 1247.9696,1061.9727 1234.0596,1061.9727 Z M1234.0596,1131.7227 C1220.1536,1131.7227 1208.8526,1120.4467 1208.8526,1106.5357 C1208.8526,1092.6237 1220.1066,1081.3477 1234.0186,1081.3477 L1234.0596,1081.3477 C1247.9696,1081.3477 1259.2466,1092.6237 1259.2466,1106.5357 C1259.2466,1120.4467 1247.9696,1131.7227 1234.0596,1131.7227 Z M1234.0596,1201.4727 C1220.1536,1201.4727 1208.8526,1190.1967 1208.8526,1176.2857 C1208.8526,1162.3737 1220.1066,1151.0977 1234.0186,1151.0977 L1234.0596,1151.0977 C1247.9696,1151.0977 1259.2466,1162.3737 1259.2466,1176.2857 C1259.2466,1190.1967 1247.9696,1201.4727 1234.0596,1201.4727 Z M1094.5596,922.4722 C1080.6536,922.4722 1069.3526,911.1952 1069.3526,897.2852 C1069.3526,883.3742 1080.6066,872.0972 1094.5186,872.0972 L1094.5596,872.0972 C1108.4696,872.0972 1119.7466,883.3742 1119.7466,897.2852 C1119.7466,911.1952 1108.4696,922.4722 1094.5596,922.4722 Z M1094.5596,992.2222 C1080.6536,992.2222 1069.3526,980.9462 1069.3526,967.0352 C1069.3526,953.1242 1080.6066,941.8472 1094.5186,941.8472 L1094.5596,941.8472 C1108.4696,941.8472 1119.7466,953.1242 1119.7466,967.0352 C1119.7466,980.9462 1108.4696,992.2222 1094.5596,992.2222 Z M1094.5596,1061.9727 C1080.6536,1061.9727 1069.3526,1050.6967 1069.3526,1036.7857 C1069.3526,1022.8737 1080.6066,1011.5977 1094.5186,1011.5977 L1094.5596,1011.5977 C1108.4696,1011.5977 1119.7466,1022.8737 1119.7466,1036.7857 C1119.7466,1050.6967 1108.4696,1061.9727 1094.5596,1061.9727 Z M1094.5596,1131.7227 C1080.6536,1131.7227 1069.3526,1120.4467 1069.3526,1106.5357 C1069.3526,1092.6237 1080.6066,1081.3477 1094.5186,1081.3477 L1094.5596,1081.3477 C1108.4696,1081.3477 1119.7466,1092.6237 1119.7466,1106.5357 C1119.7466,1120.4467 1108.4696,1131.7227 1094.5596,1131.7227 Z M1094.5596,1201.4727 C1080.6536,1201.4727 1069.3526,1190.1967 1069.3526,1176.2857 C1069.3526,1162.3737 1080.6066,1151.0977 1094.5186,1151.0977 L1094.5596,1151.0977 C1108.4696,1151.0977 1119.7466,1162.3737 1119.7466,1176.2857 C1119.7466,1190.1967 1108.4696,1201.4727 1094.5596,1201.4727 Z M1164.3096,992.2222 C1150.4036,992.2222 1139.1026,980.9462 1139.1026,967.0352 C1139.1026,953.1242 1150.3566,941.8472 1164.2686,941.8472 L1164.3096,941.8472 C1178.2196,941.8472 1189.4966,953.1242 1189.4966,967.0352 C1189.4966,980.9462 1178.2196,992.2222 1164.3096,992.2222 Z M1303.8096,992.2222 C1289.9036,992.2222 1278.6026,980.9462 1278.6026,967.0352 C1278.6026,953.1242 1289.8566,941.8472 1303.7686,941.8472 L1303.8096,941.8472 C1317.7196,941.8472 1328.9966,953.1242 1328.9966,967.0352 C1328.9966,980.9462 1317.7196,992.2222 1303.8096,992.2222 Z M1024.8096,992.2222 C1010.9036,992.2222 999.6026,980.9462 999.6026,967.0352 C999.6026,953.1242 1010.8566,941.8472 1024.7686,941.8472 L1024.8096,941.8472 C1038.7196,941.8472 1049.9966,953.1242 1049.9966,967.0352 C1049.9966,980.9462 1038.7196,992.2222 1024.8096,992.2222 Z M1303.8096,1131.7227 C1289.9036,1131.7227 1278.6026,1120.4467 1278.6026,1106.5357 C1278.6026,1092.6237 1289.8566,1081.3477 1303.7686,1081.3477 L1303.8096,1081.3477 C1317.7196,1081.3477 1328.9966,1092.6237 1328.9966,1106.5357 C1328.9966,1120.4467 1317.7196,1131.7227 1303.8096,1131.7227 Z M1164.3096,1131.7227 C1150.4036,1131.7227 1139.1026,1120.4467 1139.1026,1106.5357 C1139.1026,1092.6237 1150.3566,1081.3477 1164.2686,1081.3477 L1164.3096,1081.3477 C1178.2196,1081.3477 1189.4966,1092.6237 1189.4966,1106.5357 C1189.4966,1120.4467 1178.2196,1131.7227 1164.3096,1131.7227 Z M1024.8096,1131.7227 C1010.9036,1131.7227 999.6026,1120.4467 999.6026,1106.5357 C999.6026,1092.6237 1010.8566,1081.3477 1024.7686,1081.3477 L1024.8096,1081.3477 C1038.7196,1081.3477 1049.9966,1092.6237 1049.9966,1106.5357 C1049.9966,1120.4467 1038.7196,1131.7227 1024.8096,1131.7227 Z M2435.1924,1021.2852 L2524.3174,1021.2852 C2532.8764,1021.2852 2539.8174,1028.2252 2539.8174,1036.7852 C2539.8174,1045.3452 2532.8764,1052.2852 2524.3174,1052.2852 L2435.1924,1052.2852 L2435.1924,1091.0352 L2559.1924,1091.0352 C2567.7514,1091.0352 2574.6924,1097.9752 2574.6924,1106.5352 C2574.6924,1115.0952 2567.7514,1122.0352 2559.1924,1122.0352 L2419.6924,1122.0352 C2411.1334,1122.0352 2404.1924,1115.0952 2404.1924,1106.5352 L2404.1924,967.0352 C2404.1924,958.4752 2411.1334,951.5352 2419.6924,951.5352 L2559.1924,951.5352 C2567.7514,951.5352 2574.6924,958.4752 2574.6924,967.0352 C2574.6924,975.5942 2567.7514,982.5352 2559.1924,982.5352 L2435.1924,982.5352 L2435.1924,1021.2852 Z M2349.86283,1122.035 L2210.442,1122.035 C2201.884,1122.035 2194.942,1115.095 2194.942,1106.535 L2194.942,967.035 C2194.942,958.475 2201.884,951.535 2210.442,951.535 L2334.4424,951.535 L2334.4424,897.2852 C2334.4424,888.7252 2341.3834,881.7852 2349.9424,881.7852 C2358.5014,881.7852 2365.4424,888.7252 2365.4424,897.2852 L2365.4424,1106.5352 C2365.4424,1115.0952 2358.5014,1122.0352 2349.9424,1122.0352 C2349.91586,1122.0352 2349.88934,1122.03513 2349.86283,1122.035 Z M1861.6924,1122.0352 L1722.1924,1122.0352 C1713.6314,1122.0352 1706.6924,1115.0952 1706.6924,1106.5352 L1706.6924,967.0352 C1706.6924,958.4752 1713.6314,951.5352 1722.1924,951.5352 L1861.6924,951.5352 C1870.2534,951.5352 1877.1924,958.4752 1877.1924,967.0352 C1877.1924,975.5942 1870.2534,982.5352 1861.6924,982.5352 L1737.6924,982.5352 L1737.6924,1091.0352 L1861.6924,1091.0352 C1870.2534,1091.0352 1877.1924,1097.9752 1877.1924,1106.5352 C1877.1924,1115.0952 1870.2534,1122.0352 1861.6924,1122.0352 Z M1931.4424,1122.0352 C1922.8814,1122.0352 1915.9424,1115.0952 1915.9424,1106.5352 L1915.9424,897.2852 C1915.9424,888.7252 1922.8814,881.7852 1931.4424,881.7852 C1940.0034,881.7852 1946.9424,888.7252 1946.9424,897.2852 L1946.9424,1106.5352 C1946.9424,1115.0952 1940.0034,1122.0352 1931.4424,1122.0352 Z M2140.6924,1122.0352 L2001.1924,1122.0352 C1992.6314,1122.0352 1985.6924,1115.0952 1985.6924,1106.5352 L1985.6924,967.0352 C1985.6924,958.4752 1992.6314,951.5352 2001.1924,951.5352 C2009.7534,951.5352 2016.6924,958.4752 2016.6924,967.0352 L2016.6924,1091.0352 L2125.1924,1091.0352 L2125.1924,967.0352 C2125.1924,958.4752 2132.1334,951.5352 2140.6924,951.5352 C2149.2514,951.5352 2156.1924,958.4752 2156.1924,967.0352 L2156.1924,1106.5352 C2156.1924,1115.0952 2149.2514,1122.0352 2140.6924,1122.0352 Z M1652.4424,1122.0352 C1643.8814,1122.0352 1636.9424,1115.0952 1636.9424,1106.5352 L1636.9424,982.5352 L1528.4424,982.5352 L1528.4424,1106.5352 C1528.4424,1115.0952 1521.5034,1122.0352 1512.9424,1122.0352 C1504.3814,1122.0352 1497.4424,1115.0952 1497.4424,1106.5352 L1497.4424,967.0352 C1497.4424,958.4752 1504.3814,951.5352 1512.9424,951.5352 L1652.4424,951.5352 C1661.0034,951.5352 1667.9424,958.4752 1667.9424,967.0352 L1667.9424,1106.5352 C1667.9424,1115.0952 1661.0034,1122.0352 1652.4424,1122.0352 Z M1443.1924,1122.0352 C1434.6314,1122.0352 1427.6924,1115.0952 1427.6924,1106.5352 L1427.6924,967.0352 C1427.6924,958.4752 1434.6314,951.5352 1443.1924,951.5352 C1451.7534,951.5352 1458.6924,958.4752 1458.6924,967.0352 L1458.6924,1106.5352 C1458.6924,1115.0952 1451.7534,1122.0352 1443.1924,1122.0352 Z M2225.942,1091.035 L2334.442,1091.035 L2334.442,982.535 L2225.942,982.535 L2225.942,1091.035 Z" id="Combined-Shape"></path>
        </g>
    </g>
</svg>