<?xml version="1.0" encoding="UTF-8"?>
<svg width="500px" height="500px" viewBox="0 0 500 500" version="1.1" xmlns="http://www.w3.org/2000/svg" xmlns:xlink="http://www.w3.org/1999/xlink">
    <title>jsk</title>
    <g id="Page-1" stroke="none" stroke-width="1" fill="none" fill-rule="evenodd">
        <g id="jsk" fill="#FFFFFF" fill-rule="nonzero">
            <path d="M233.926755,499.898271 C199.745677,497.253306 169.430315,489.216684 140.335707,475.025432 C68.0569685,439.776195 16.6836216,371.464903 3.30620549,292.675483 C0.406917599,275.839268 0,270.244151 0,249.949135 C0,229.65412 0.406917599,224.059003 3.30620549,207.222787 C20.9562564,103.509664 103.509664,20.9562564 207.222787,3.30620549 C224.059003,0.406917599 229.65412,0 249.949135,0 C269.786368,0 275.686673,0.406917599 291.302136,3.00101729 C336.46999,10.5798576 378.179044,30.162767 413.275687,60.2746694 C420.498474,66.4801628 434.181078,80.1119023 440.183113,87.1820956 C469.684639,121.719227 489.420142,163.886063 496.897253,208.596134 C499.491353,224.211597 499.898271,230.111902 499.898271,249.949135 C499.898271,269.786368 499.491353,275.686673 496.897253,291.302136 C485.452696,359.715158 446.185148,420.091556 388.046796,458.748728 C359.562564,477.670397 326.856562,490.69176 292.929807,496.64293 C279.094608,499.033571 270.295015,499.796541 253.001017,499.949135 C243.896236,500 235.350966,500 233.926755,499.898271 Z M79.5523906,299.542218 L79.5523906,295.727365 L77.1617497,295.676501 C70.9053917,295.625636 69.2777213,293.540183 69.1759919,285.656155 C69.1759919,282.960326 69.2268566,275.940997 69.3794507,270.040692 C69.6337742,258.54527 69.3794507,256.81587 67.0396745,253.713123 C66.3784334,252.848423 64.8016277,251.62767 63.4791455,251.017294 L61.0885046,249.898271 L63.6317396,248.677518 C65.0559512,248.067141 66.6327569,246.846389 67.1922686,246.083418 C69.3794507,242.929807 69.6337742,241.149542 69.3794507,229.857579 C69.0233978,213.987792 69.1251272,209.816887 70.0406918,207.57884 C71.0579858,205.239064 73.2451679,204.170905 77.0091556,204.170905 L79.5523906,204.170905 L79.5523906,200.305188 L79.5523906,196.439471 L73.0925738,196.64293 C65.4120041,196.846389 62.5635809,197.863683 60.3763988,201.169888 C57.629705,205.340793 57.2227874,210.528993 58.2909461,227.06002 C58.5961343,232.24822 58.6978637,237.33469 58.4944049,238.351984 C57.8331638,241.963377 53.6113937,245.371312 49.7965412,245.371312 L48.0162767,245.371312 L48.0162767,249.643947 L48.0162767,253.916582 L50.6612411,254.476094 C54.3234995,255.289929 56.4089522,256.71414 57.7314344,259.409969 C58.7995931,261.648016 58.7995931,262.054934 58.3926755,269.684639 C58.138352,274.109868 57.9348932,281.129196 57.9348932,285.300102 C57.9348932,294.354018 58.5961343,296.998983 61.7497457,300.050865 C64.2929807,302.543235 67.0905392,303.255341 74.1098678,303.306205 L79.5523906,303.35707 L79.5523906,299.542218 Z M433.062055,302.797558 C440.793489,301.068159 443.133266,294.862665 442.115972,278.78942 C441.302136,265.462869 441.353001,261.088505 442.370295,259.257375 C443.591048,256.917599 446.185148,255.137335 449.23703,254.476094 L451.881994,253.916582 L451.881994,249.643947 L451.881994,245.371312 L450.203459,245.371312 C447.863683,245.371312 444.201424,243.387589 442.929807,241.45473 C441.353001,239.114954 441.098678,236.571719 441.709054,228.687691 C442.522889,218.260427 442.472024,207.985758 441.55646,205.035605 C440.539166,201.831129 438.555443,199.338759 435.961343,197.965412 C434.130214,196.998983 432.807731,196.795524 427.110885,196.64293 L420.34588,196.439471 L420.34588,200.254323 L420.34588,204.069176 L423.906409,204.272635 C426.703967,204.425229 427.670397,204.679552 428.687691,205.645982 C430.874873,207.68057 431.129196,210.274669 430.722279,225.330621 C430.315361,241.149542 430.569685,243.28586 433.418108,246.439471 C434.384537,247.50763 435.961343,248.626653 436.927772,248.931841 C437.894201,249.23703 438.657172,249.694812 438.606307,249.847406 C438.606307,250.050865 437.436419,250.76297 435.961343,251.475076 C433.87589,252.49237 433.11292,253.255341 432.044761,255.289929 L430.773143,257.833164 L430.773143,274.364191 C430.773143,292.777213 430.722279,293.234995 427.466938,294.811801 C426.449644,295.320448 424.516785,295.727365 423.041709,295.727365 L420.34588,295.727365 L420.34588,299.542218 L420.34588,303.35707 L425.584944,303.35707 C428.433367,303.35707 431.790437,303.102747 433.062055,302.797558 Z M106.256358,284.537131 C109.053917,282.807731 110.325534,280.264496 110.325534,276.398779 C110.274669,274.262462 109.969481,272.533062 109.409969,271.464903 C106.154629,265.412004 96.948118,265.157681 93.5401831,271.007121 C92.1668362,273.397762 91.8107833,277.670397 92.8280773,280.315361 C94.7100712,285.350966 101.475076,287.487284 106.256358,284.537131 Z M140.335707,284.537131 C143.133266,282.807731 144.404883,280.264496 144.404883,276.398779 C144.354018,274.262462 144.04883,272.533062 143.489318,271.464903 C140.233978,265.412004 131.027467,265.157681 127.619532,271.007121 C126.246185,273.397762 125.890132,277.670397 126.907426,280.315361 C128.78942,285.350966 135.554425,287.487284 140.335707,284.537131 Z M174.415056,284.537131 C177.212614,282.807731 178.484232,280.264496 178.484232,276.398779 C178.433367,274.262462 178.128179,272.533062 177.568667,271.464903 C174.313327,265.412004 165.106816,265.157681 161.698881,271.007121 C160.325534,273.397762 159.969481,277.670397 160.986775,280.315361 C162.868769,285.350966 169.633774,287.487284 174.415056,284.537131 Z M248.524924,284.587996 C253.967447,282.706002 258.341811,278.89115 260.783316,273.80468 C263.53001,268.209563 263.682604,266.581892 263.682604,233.570702 L263.682604,203.153611 L256.561546,203.153611 L249.491353,203.153611 L249.338759,234.079349 C249.186165,264.343845 249.186165,265.005086 248.118006,267.243133 C246.083418,271.515768 243.031536,273.346897 237.741607,273.346897 C233.163784,273.346897 229.043744,270.854527 225.991862,266.225839 L225.178026,265.005086 L220.701933,268.311292 C218.209563,270.091556 215.971516,271.719227 215.717192,271.871821 C214.445575,272.736521 222.024415,280.976602 225.839268,282.909461 C227.92472,283.97762 232.299084,285.350966 234.944049,285.757884 C238.09766,286.215666 245.625636,285.60529 248.524924,284.587996 Z M317.85351,284.74059 C322.329603,283.570702 327.568667,280.620549 330.671414,277.568667 C339.369278,269.074262 339.318413,253.967447 330.467955,245.879959 C327.212614,242.878942 323.80468,241.098678 313.224822,236.673449 C303.509664,232.655137 301.932859,231.892167 299.898271,229.908444 C297.711089,227.873856 296.744659,226.042726 296.744659,223.80468 C296.744659,217.039674 303.4588,213.173957 313.072228,214.39471 C316.88708,214.852492 320.651068,216.378433 324.669379,219.125127 C326.19532,220.142421 327.466938,220.905392 327.517803,220.854527 C327.568667,220.752798 329.145473,218.769074 330.976602,216.480163 C332.858596,214.140387 334.384537,212.004069 334.384537,211.80061 C334.384537,211.291963 329.603255,207.68057 326.754832,206.052899 C320.091556,202.238047 310.020346,200.712106 302.49237,202.288911 C294.354018,204.018311 287.436419,209.104781 284.231943,215.615463 C282.858596,218.463886 282.756867,219.074262 282.756867,224.516785 C282.756867,230.111902 282.858596,230.569685 284.384537,233.723296 C287.639878,240.284842 291.759919,243.234995 307.171923,249.796541 C316.12411,253.611394 318.565615,254.984741 320.34588,257.070193 C324.771109,262.360122 321.97355,270.498474 315.005086,272.533062 C311.597152,273.550356 305.442523,273.550356 301.678535,272.583927 C298.016277,271.617497 293.743642,269.48118 290.132248,266.785351 C288.606307,265.615463 287.23296,264.699898 287.029502,264.699898 C286.775178,264.699898 283.926755,267.802645 280.162767,272.278739 L278.78942,273.906409 L280.010173,275.228891 C284.181078,279.704985 293.947101,284.282808 301.983723,285.60529 C305.696846,286.164802 314.242116,285.707019 317.85351,284.74059 Z M366.429298,272.533062 L366.429298,260.478128 L372.126144,253.407935 C376.602238,247.812818 377.92472,246.490336 378.382503,246.998983 C378.738555,247.355036 383.723296,255.95117 389.572737,266.12411 L400.101729,284.537131 L407.934893,284.537131 C412.258393,284.537131 415.768057,284.435402 415.768057,284.333672 C415.768057,284.231943 410.274669,274.821974 403.509664,263.377416 C396.744659,251.932859 390.233978,240.793489 388.96236,238.657172 L386.724313,234.74059 L399.186165,218.972533 L411.698881,203.153611 L403.662258,203.153611 L395.676501,203.153611 L381.485249,221.21058 C373.70295,231.129196 367.141404,239.420142 366.88708,239.572737 C366.632757,239.725331 366.429298,232.197355 366.429298,221.515768 L366.429298,203.153611 L359.053917,203.153611 L351.678535,203.153611 L351.678535,243.845371 L351.678535,284.537131 L359.053917,284.537131 L366.429298,284.537131 L366.429298,272.533062 Z" id="Shape"></path>
        </g>
    </g>
</svg>