<?xml version="1.0" encoding="UTF-8"?>
<svg width="110px" height="19px" viewBox="0 0 110 19" version="1.1" xmlns="http://www.w3.org/2000/svg" xmlns:xlink="http://www.w3.org/1999/xlink">
    <!-- Generator: Sketch 53.2 (72643) - https://sketchapp.com -->
    <title>Combined Shape</title>
    <desc>Created with Sketch.</desc>
    <g id="Page-1" stroke="none" stroke-width="1" fill="none" fill-rule="evenodd">
        <g id="lloyds_logo_new" fill="#FFFFFF" fill-rule="nonzero">
            <path d="M16.9025796,13.0056014 L21.0055499,13.0056014 L21.0055499,15.3389347 L14.1222774,15.3389347 L14.1222774,5.18207198 L16.9025796,5.18207198 L16.9025796,13.0056014 Z M24.2428089,13.0056014 L28.3457792,13.0056014 L28.3457792,15.3389347 L21.4625067,15.3389347 L21.4625067,5.18207198 L24.2428089,5.18207198 L24.2428089,13.0056014 Z M33.405081,15.4761896 C30.0984108,15.4761896 27.8984629,13.3899151 27.8984629,10.2605034 C27.8984629,7.13109159 30.0984108,5.04481708 33.405081,5.04481708 C36.6847579,5.04481708 38.8847058,7.13109159 38.8847058,10.2605034 C38.8847058,13.3899151 36.6847579,15.4761896 33.405081,15.4761896 Z M33.405081,13.1428563 C34.970688,13.1428563 36.0234238,11.9899151 36.0234238,10.2605034 C36.0234238,8.53109159 34.970688,7.37815041 33.405081,7.37815041 C31.8259773,7.37815041 30.7732415,8.53109159 30.7732415,10.2605034 C30.7732415,11.9899151 31.8259773,13.1428563 33.405081,13.1428563 Z M44.7538042,5.18207198 L47.6960658,5.18207198 L44.2544296,11.9624641 L44.2544296,15.3389347 L41.4741273,15.3389347 L41.4741273,11.9624641 L38.0324911,5.18207198 L40.9882493,5.18207198 L42.8777751,9.46442492 L44.7538042,5.18207198 Z M52.5818397,5.18207198 C55.5780877,5.18207198 57.5755864,7.19971904 57.5755864,10.2330524 C57.5755864,13.2938367 55.5780877,15.3389347 52.5818397,15.3389347 L48.1144608,15.3389347 L48.1144608,5.18207198 L52.5818397,5.18207198 Z M52.6493227,13.0056014 C53.8775145,13.0056014 54.7008079,11.8938367 54.7008079,10.2330524 C54.7008079,8.59971904 53.8775145,7.51540531 52.6493227,7.51540531 L50.8947631,7.51540531 L50.8947631,13.0056014 L52.6493227,13.0056014 Z M61.8520846,15.4761896 C60.3809538,15.4761896 59.0447891,14.982072 58.0055499,14.1173661 L59.0312925,12.2232484 C59.9625588,12.909523 60.8938251,13.1428563 61.7036219,13.1428563 C62.6213915,13.1428563 63.0667798,12.9644249 63.0667798,12.5114838 C63.0667798,12.0036406 62.4459356,11.8114838 61.4741794,11.5506994 L61.001798,11.42717 C59.1257688,10.9330524 57.8435906,10.1644249 57.8435906,8.42128767 C57.8435906,6.40364061 59.4361909,5.04481708 61.838588,5.04481708 C63.0397865,5.04481708 64.3219647,5.38795433 65.4556802,6.21148375 L64.2544817,8.17422884 C63.4716781,7.63893473 62.7293644,7.37815041 61.8790778,7.37815041 C61.1637573,7.37815041 60.7183691,7.59775825 60.7183691,7.954621 C60.7183691,8.43501316 61.3527099,8.62717002 62.2434864,8.86050335 L62.7023712,8.98403276 C64.348958,9.42324845 65.9415583,10.3977582 65.9415583,12.2369739 C65.9415583,14.1859935 64.2949715,15.4761896 61.8520846,15.4761896 Z M76.5768892,4.63305237 L77.9535437,4.63305237 L77.9535437,15.3389347 L76.617379,15.3389347 L76.5903858,13.9938367 C76.0775145,14.899719 75.2002347,15.4761896 73.9315531,15.4761896 C71.947551,15.4761896 70.4764202,13.9663857 70.4764202,11.7016798 C70.4764202,9.40952296 71.947551,7.87226806 73.9315531,7.87226806 C75.2002347,7.87226806 76.0640179,8.43501316 76.5768892,9.34089551 L76.5768892,4.63305237 Z M74.2419752,14.2683465 C75.6321263,14.2683465 76.5768892,13.2389347 76.5768892,11.6742288 C76.5768892,10.1232485 75.6321263,9.0801112 74.2419752,9.0801112 C72.8383274,9.0801112 71.9070612,10.1232485 71.9070612,11.6879543 C71.9070612,13.2389347 72.8383274,14.2683465 74.2419752,14.2683465 Z M85.6697501,11.5781504 C85.6697501,11.7565818 85.6697501,12.0173661 85.6427568,12.182072 L80.1496354,12.182072 C80.2846015,13.5134445 80.9729288,14.3644249 82.2281138,14.3644249 C83.091897,14.3644249 83.7937209,13.9526602 84.2930955,13.2938367 L85.3458313,13.8703073 C84.6710007,14.8859935 83.5642785,15.4761896 82.2416104,15.4761896 C80.1226422,15.4761896 78.6920012,13.9663857 78.6920012,11.7016798 C78.6920012,9.40952296 80.0821523,7.87226806 82.1876239,7.87226806 C84.2795989,7.87226806 85.6697501,9.354621 85.6697501,11.5781504 Z M82.1876239,8.98403276 C80.999922,8.98403276 80.2711049,9.83501316 80.1496354,11.2212877 L84.2526057,11.2212877 C84.1311362,9.82128767 83.3753259,8.98403276 82.1876239,8.98403276 Z M88.7392654,15.4761896 C87.673033,15.4761896 86.7417667,15.2016798 86.1344191,14.6663857 L86.6742837,13.8016798 C87.3221211,14.22717 88.0239449,14.3781504 88.752762,14.3781504 C89.6030486,14.3781504 90.1699064,13.9801112 90.1699064,13.3761896 C90.1699064,12.799719 89.589552,12.4840328 88.7932519,12.2506994 L88.1049246,12.0585426 C86.9307193,11.7291308 86.1209225,11.2761896 86.1209225,10.1369739 C86.1209225,8.77815041 87.2006516,7.87226806 88.8067485,7.87226806 C89.8324911,7.87226806 90.6692811,8.0918759 91.3846015,8.57226806 L90.7907506,9.50560139 C90.1968996,9.13501316 89.5760554,8.98403276 88.9012248,8.98403276 C88.091428,8.98403276 87.5380669,9.354621 87.5380669,9.93109159 C87.5380669,10.4801112 88.0509382,10.7408955 88.752762,10.9467779 L89.4410893,11.1389347 C90.601798,11.454621 91.5870507,12.0310916 91.5870507,13.2663857 C91.5870507,14.5977583 90.4668319,15.4761896 88.7392654,15.4761896 Z M93.0408287,6.48599355 C92.5414541,6.48599355 92.1770455,6.11540531 92.1770455,5.60756218 C92.1770455,5.09971904 92.5414541,4.7291308 93.0408287,4.7291308 C93.5267068,4.7291308 93.8911153,5.09971904 93.8911153,5.60756218 C93.8911153,6.11540531 93.5267068,6.48599355 93.0408287,6.48599355 Z M92.3525015,15.3389347 L92.3525015,8.00952296 L93.729156,8.00952296 L93.729156,15.3389347 L92.3525015,15.3389347 Z M100.622069,8.00952296 L101.958234,8.00952296 L101.958234,14.7350132 C101.958234,16.999719 100.325143,18.4957975 97.8552633,18.4957975 C96.5865817,18.4957975 95.4798595,18.1801112 94.6700627,17.5487386 L94.9669882,16.4369739 C95.7632884,16.999719 96.6945546,17.2879543 97.8147735,17.2879543 C99.4748569,17.2879543 100.581579,16.2585426 100.581579,14.6938367 L100.581579,14.0212877 C100.068708,14.9134445 99.2049246,15.4761896 97.936243,15.4761896 C95.9522409,15.4761896 94.4811101,13.9389347 94.4811101,11.6467779 C94.4811101,9.38207198 95.9522409,7.87226806 97.936243,7.87226806 C99.2049246,7.87226806 100.082205,8.44873865 100.595076,9.354621 L100.622069,8.00952296 Z M98.2466651,14.2683465 C99.6368162,14.2683465 100.581579,13.2252092 100.581579,11.6742288 C100.581579,10.1232484 99.6368162,9.0801112 98.2466651,9.0801112 C96.8430174,9.0801112 95.9117511,10.109523 95.9117511,11.6605033 C95.9117511,13.2252092 96.8430174,14.2683465 98.2466651,14.2683465 Z M106.948124,7.87226806 C108.689187,7.87226806 109.863393,9.01148375 109.863393,10.72717 L109.863393,15.3389347 L108.486738,15.3389347 L108.486738,10.9742288 C108.486738,9.83501316 107.690438,9.0801112 106.489239,9.0801112 C105.288041,9.0801112 104.491741,9.83501316 104.491741,10.9742288 L104.491741,15.3389347 L103.115086,15.3389347 L103.115086,8.00952296 L104.437754,8.00952296 L104.464747,9.09383669 C104.977619,8.31148375 105.841402,7.87226806 106.948124,7.87226806 Z M0.30656592,0.261483373 L10.130172,5.04187553 C10.2024752,5.07716965 10.2448932,5.15069906 10.2448932,5.22716965 L10.2458572,5.22716965 L10.2458572,15.133052 C10.2458572,15.2467775 10.1552371,15.3389344 10.043408,15.3389344 C10.0048463,15.3389344 9.96917665,15.32815 9.9392913,15.3095226 L0.115685253,10.5291304 C0.0433819698,10.4948167 0.000964043773,10.4212873 0.000964043773,10.3448167 L-2.66453526e-15,10.3448167 L-2.66453526e-15,0.438934353 C-2.66453526e-15,0.325208863 0.0906201146,0.233052 0.202449192,0.233052 C0.241010943,0.233052 0.275716519,0.243836314 0.30656592,0.261483373 Z" id="Combined-Shape"></path>
        </g>
    </g>
</svg>