<?xml version="1.0" encoding="UTF-8"?>
<svg width="498px" height="105px" viewBox="0 0 498 105" version="1.1" xmlns="http://www.w3.org/2000/svg" xmlns:xlink="http://www.w3.org/1999/xlink">
    <title>locastic</title>
    <g id="Page-1" stroke="none" stroke-width="1" fill="none" fill-rule="evenodd">
        <g id="locastic" fill="#FFFFFF" fill-rule="nonzero">
            <path d="M56.4295181,86.6716867 C56.6942771,87.3009036 56.8930723,88.1319277 57.0253012,89.1626506 C57.1566265,90.1930723 57.2243976,91.4644578 57.2243976,92.9743976 C57.2243976,94.4840361 57.1566265,95.7545181 57.0253012,96.7849398 C56.8930723,97.8165663 56.6942771,98.671988 56.4295181,99.3518072 C56.1638554,100.030723 55.8337349,100.521687 55.4358434,100.822892 C55.0388554,101.125602 54.5743976,101.275904 54.0451807,101.275904 L6.92921687,101.275904 C5.18072289,101.275904 3.71114458,100.78494 2.51957831,99.8039157 C1.32801205,98.8237952 0.732228916,97.2262048 0.732228916,95.0120482 L0.732228916,6.32771084 C0.732228916,5.82620482 0.902409639,5.37319277 1.24819277,4.96987952 C1.59277108,4.56656627 2.16174699,4.24126506 2.95662651,3.98885542 C3.75120482,3.73674699 4.82409639,3.53584337 6.17439759,3.38403614 C7.525,3.23403614 9.20572289,3.15783133 11.2198795,3.15783133 C13.285241,3.15783133 14.9804217,3.23403614 16.3054217,3.38403614 C17.6283133,3.53584337 18.6885542,3.73674699 19.4834337,3.98885542 C20.278012,4.24126506 20.8460843,4.56656627 21.1918675,4.96987952 C21.535241,5.37319277 21.7075301,5.82620482 21.7075301,6.32771084 L21.7075301,84.8978916 L54.0451807,84.8978916 C54.5743976,84.8978916 55.0388554,85.0370482 55.4358434,85.3126506 C55.8337349,85.5903614 56.1638554,86.0424699 56.4295181,86.6716867 Z M128.677711,36.7795181 C131.658133,40.0069277 133.873795,43.978012 135.325904,48.6909639 C136.775904,53.4051205 137.50241,58.8081325 137.50241,64.9048193 C137.50241,70.7454819 136.725904,76.0743976 135.170181,80.8885542 C133.614759,85.7045181 131.255723,89.8533133 128.094578,93.3373494 C124.93253,96.8213855 120.96747,99.510241 116.198795,101.405723 C111.429217,103.3 105.85753,104.249096 99.4822289,104.249096 C93.3126506,104.249096 87.9475904,103.403012 83.386747,101.712952 C78.8256024,100.021988 75.0403614,97.563253 72.0349398,94.3361446 C69.0283133,91.1087349 66.798494,87.139759 65.348494,82.4256024 C63.8972892,77.711747 63.1707831,72.3334337 63.1707831,66.2873494 C63.1707831,60.4475904 63.9605422,55.1069277 65.5430723,50.2659639 C67.1237952,45.425 69.4948795,41.2753012 72.6572289,37.8171687 C75.8180723,34.3587349 79.7710843,31.6828313 84.5135542,29.7876506 C89.2572289,27.8921687 94.8168675,26.9439759 101.192169,26.9439759 C107.412952,26.9439759 112.803012,27.7771084 117.364759,29.4415663 C121.925,31.1066265 125.696084,33.5524096 128.677711,36.7795181 Z M116.354217,75.3939759 C117.026807,72.5506024 117.364759,69.3114458 117.364759,65.673494 C117.364759,62.2924699 117.093072,59.1792169 116.547892,56.336747 C116.004217,53.4933735 115.082831,51.0225904 113.788253,48.9210843 C112.492771,46.8204819 110.767771,45.1831325 108.618072,44.0027108 C106.466566,42.8246988 103.758133,42.2355422 100.492771,42.2355422 C97.5885542,42.2355422 95.0506024,42.7620482 92.8728916,43.8114458 C90.6954819,44.8608434 88.9072289,46.3978916 87.5081325,48.4222892 C86.1081325,50.4463855 85.0587349,52.8783133 84.3590361,55.7216867 C83.6587349,58.5653614 83.3093373,61.8054217 83.3093373,65.4424699 C83.3093373,68.823494 83.5933735,71.9364458 84.1644578,74.7789157 C84.7343373,77.6225904 85.6536145,80.0939759 86.925,82.1945783 C88.1945783,84.2963855 89.9186747,85.9216867 92.0951807,87.0740964 C94.2728916,88.2268072 96.9662651,88.8039157 100.181627,88.8039157 C103.135843,88.8039157 105.702108,88.2783133 107.879518,87.228012 C110.056325,86.1786145 111.844578,84.6533133 113.243373,82.6557229 C114.643373,80.6584337 115.68012,78.2373494 116.354217,75.3939759 Z M202.333133,82.1894578 C202.514157,82.8822289 202.655422,83.7674699 202.759337,84.8457831 C202.862349,85.9240964 202.914458,87.3093373 202.914458,89.0027108 C202.914458,90.3394578 202.875301,91.4554217 202.798494,92.3536145 C202.720482,93.2509036 202.616265,94.0084337 202.488253,94.6243976 C202.359337,95.2406627 202.204217,95.7412651 202.023193,96.125 C201.841265,96.5105422 201.442169,96.9993976 200.821988,97.5888554 C200.201807,98.1792169 199.143675,98.8975904 197.645482,99.7442771 C196.145181,100.591867 194.440964,101.349096 192.530723,102.015964 C190.619277,102.681928 188.539157,103.221386 186.291566,103.632831 C184.045482,104.043373 181.731928,104.249096 179.356627,104.249096 C174.035843,104.249096 169.321988,103.427108 165.214458,101.785542 C161.10753,100.141867 157.659036,97.7168675 154.868675,94.5081325 C152.079217,91.3012048 149.973795,87.3858434 148.553614,82.7668675 C147.131325,78.1478916 146.422289,72.8608434 146.422289,66.9054217 C146.422289,60.026506 147.286446,54.0858434 149.018675,49.0813253 C150.749096,44.0756024 153.164458,39.9307229 156.263855,36.6451807 C159.363253,33.361747 163.031928,30.9222892 167.267771,29.3310241 C171.503313,27.7400602 176.153012,26.9439759 181.216867,26.9439759 C183.282229,26.9439759 185.310542,27.125 187.3,27.4828313 C189.288253,27.8424699 191.14759,28.3304217 192.878614,28.9454819 C194.60994,29.561747 196.159337,30.2554217 197.528614,31.0243976 C198.896687,31.7945783 199.864759,32.4614458 200.43494,33.0268072 C201.003012,33.5924699 201.403012,34.0662651 201.636145,34.4509036 C201.868072,34.8364458 202.049096,35.3364458 202.178313,35.9527108 C202.306325,36.5686747 202.411145,37.3268072 202.488253,38.2243976 C202.565361,39.1225904 202.604217,40.2138554 202.604217,41.4966867 C202.604217,44.4731928 202.345181,46.5659639 201.83012,47.7713855 C201.313253,48.9777108 200.64006,49.5810241 199.814759,49.5810241 C198.935843,49.5810241 198.005723,49.2231928 197.024398,48.5039157 C196.043373,47.7843373 194.881024,46.9903614 193.537952,46.1168675 C192.193675,45.2433735 190.593373,44.4493976 188.733133,43.7289157 C186.872892,43.010241 184.65241,42.651506 182.068976,42.651506 C177.00512,42.651506 173.130723,44.5894578 170.445181,48.4641566 C167.758735,52.3418675 166.415663,58.025 166.415663,65.5201807 C166.415663,69.214759 166.751506,72.476506 167.42259,75.2975904 C168.093675,78.1210843 169.088855,80.4831325 170.406024,82.3813253 C171.724398,84.2804217 173.376506,85.7054217 175.365964,86.6554217 C177.353313,87.6054217 179.666566,88.0795181 182.301205,88.0795181 C184.986446,88.0795181 187.3,87.6828313 189.237048,86.8870482 C191.174398,86.0909639 192.866867,85.2045181 194.312952,84.2295181 C195.758133,83.2548193 196.973494,82.3701807 197.955723,81.5731928 C198.935843,80.7774096 199.762952,80.3798193 200.43494,80.3798193 C200.899096,80.3798193 201.287048,80.5090361 201.597289,80.7644578 C201.907229,81.0228916 202.151205,81.4966867 202.333133,82.1894578 Z M270.197892,33.3599398 C272.649096,35.5388554 274.436747,38.3436747 275.561145,41.7753012 C276.68253,45.2069277 277.246084,49.2801205 277.246084,53.9930723 L277.246084,100.099398 C277.246084,100.81747 276.99006,101.379819 276.479819,101.789458 C275.969578,102.2 275.164759,102.49247 274.067169,102.674096 C272.96747,102.853614 271.346988,102.942771 269.201205,102.942771 C266.903313,102.942771 265.229217,102.853614 264.184036,102.674096 C263.135843,102.49247 262.394277,102.2 261.962048,101.789458 C261.527108,101.379819 261.309639,100.81747 261.309639,100.099398 L261.309639,94.6436747 C258.501506,97.6665663 255.295783,100.021988 251.695482,101.712952 C248.095181,103.403012 244.098494,104.249096 239.705422,104.249096 C236.078313,104.249096 232.746084,103.775 229.708735,102.826807 C226.668976,101.879518 224.038855,100.471386 221.817169,98.6018072 C219.595181,96.7313253 217.871687,94.4135542 216.645482,91.6463855 C215.419578,88.8804217 214.80753,85.653012 214.80753,81.9644578 C214.80753,77.9686747 215.584639,74.498494 217.143072,71.5518072 C218.701205,68.6060241 221.024096,66.1722892 224.11506,64.2521084 C227.20512,62.3301205 231.048494,60.9087349 235.645482,59.9864458 C240.242169,59.0641566 245.578916,58.603012 251.657831,58.603012 L258.322289,58.603012 L258.322289,54.4542169 C258.322289,52.3021084 258.103916,50.4195783 257.671687,48.8060241 C257.236747,47.1924699 256.522892,45.8475904 255.526205,44.7713855 C254.530422,43.6963855 253.201506,42.9021084 251.543373,42.3891566 C249.881928,41.8783133 247.826205,41.6204819 245.375,41.6204819 C242.15753,41.6204819 239.285241,41.9795181 236.755723,42.6966867 C234.228313,43.4156627 231.993675,44.2081325 230.052711,45.0789157 C228.110843,45.9518072 226.49006,46.7442771 225.187952,47.4611446 C223.885542,48.1792169 222.824699,48.5373494 222.008735,48.5373494 C221.446084,48.5373494 220.947892,48.3578313 220.514759,47.9996988 C220.080723,47.6418675 219.721687,47.128012 219.441867,46.4623494 C219.161145,45.796988 218.943675,44.9768072 218.790361,44.0027108 C218.637952,43.0310241 218.560843,41.9548193 218.560843,40.7756024 C218.560843,39.1888554 218.687349,37.9331325 218.943675,37.0108434 C219.199699,36.088253 219.683133,35.2563253 220.399096,34.5135542 C221.11506,33.7716867 222.364759,32.9503012 224.153614,32.0539157 C225.941265,31.1593373 228.034639,30.325 230.435241,29.5563253 C232.836145,28.7879518 235.454518,28.1620482 238.288554,27.6740964 C241.123193,27.1870482 244.046084,26.9439759 247.061145,26.9439759 C252.423193,26.9439759 257.007229,27.4698795 260.813253,28.5189759 C264.616265,29.5692771 267.745783,31.1831325 270.197892,33.3599398 Z M258.322289,82.4256024 L258.322289,70.7454819 L250.967771,70.7454819 C247.852108,70.7454819 245.195181,70.9756024 243,71.436747 C240.803916,71.8978916 239.016265,72.5891566 237.637651,73.5114458 C236.258434,74.4328313 235.249699,75.5475904 234.611145,76.8539157 C233.972289,78.1599398 233.653916,79.6587349 233.653916,81.3496988 C233.653916,84.2198795 234.559639,86.4722892 236.373193,88.111747 C238.185542,89.7521084 240.702108,90.5713855 243.919578,90.5713855 C246.625904,90.5713855 249.116867,89.8789157 251.388855,88.4954819 C253.661145,87.1129518 255.973193,85.089759 258.322289,82.4256024 Z M334.261145,66.5183735 C335.88494,68.1587349 337.195482,70.1186747 338.190663,72.3978916 C339.184639,74.6768072 339.684639,77.3804217 339.684639,80.5045181 C339.684639,84.3972892 338.937048,87.8310241 337.445181,90.801506 C335.950904,93.7716867 333.841265,96.2572289 331.117771,98.2557229 C328.393373,100.253012 325.171084,101.750602 321.451506,102.750301 C317.731024,103.749096 313.698193,104.249096 309.348795,104.249096 C306.727711,104.249096 304.227711,104.05753 301.843976,103.672892 C299.458434,103.287952 297.325301,102.800904 295.439759,102.212952 C293.553012,101.623795 291.980723,101.021687 290.723193,100.406928 C289.466265,99.7918675 288.549398,99.2156627 287.972289,98.678012 C287.395181,98.1406627 286.950904,97.2945783 286.637349,96.1421687 C286.321988,94.989759 286.165964,93.286747 286.165964,91.0325301 C286.165964,89.5466867 286.216566,88.3557229 286.321988,87.4581325 C286.42741,86.5635542 286.584639,85.8442771 286.793675,85.3069277 C287.002711,84.7683735 287.265361,84.4111446 287.580723,84.2307229 C287.894277,84.0521084 288.287651,83.9620482 288.759337,83.9620482 C289.335542,83.9620482 290.185542,84.2822289 291.312349,84.9231928 C292.440361,85.5638554 293.839157,86.2677711 295.517771,87.0355422 C297.194277,87.8042169 299.14488,88.5231928 301.372289,89.186747 C303.599699,89.8533133 306.12741,90.1864458 308.956325,90.1864458 C310.736446,90.1864458 312.321687,90.0078313 313.710241,89.6478916 C315.097892,89.2909639 316.303916,88.7771084 317.326205,88.111747 C318.34759,87.4472892 319.119578,86.6012048 319.643976,85.5756024 C320.166265,84.5521084 320.43012,83.3737952 320.43012,82.0409639 C320.43012,80.5045181 319.945181,79.1855422 318.976506,78.0837349 C318.006024,76.9828313 316.722892,76.0216867 315.125301,75.2024096 C313.526807,74.3834337 311.718072,73.614759 309.702711,72.8966867 C307.685241,72.1795181 305.616265,71.3861446 303.494277,70.5144578 C301.372289,69.6436747 299.301205,68.6448795 297.285542,67.5180723 C295.269277,66.3915663 293.460843,65.0090361 291.863253,63.3674699 C290.263554,61.7292169 288.981627,59.7563253 288.011747,57.4506024 C287.041265,55.1454819 286.558434,52.3795181 286.558434,49.1521084 C286.558434,45.8743976 287.212651,42.863253 288.523193,40.1228916 C289.831627,37.3837349 291.718072,35.0391566 294.180723,33.0912651 C296.643675,31.1442771 299.642771,29.6337349 303.179819,28.5578313 C306.716566,27.4816265 310.685542,26.9439759 315.086747,26.9439759 C317.286747,26.9439759 319.41988,27.0978916 321.490964,27.4054217 C323.560241,27.7126506 325.43253,28.0966867 327.110241,28.5578313 C328.787048,29.0189759 330.200904,29.5177711 331.354217,30.0563253 C332.505422,30.5939759 333.33012,31.0551205 333.828916,31.4388554 C334.327108,31.8237952 334.681024,32.2075301 334.89006,32.5924699 C335.099096,32.9762048 335.25512,33.4373494 335.361747,33.975 C335.466265,34.5135542 335.558434,35.1789157 335.636446,35.9731928 C335.715663,36.7677711 335.75512,37.7536145 335.75512,38.9319277 C335.75512,40.3153614 335.715663,41.4421687 335.636446,42.3129518 C335.558434,43.1846386 335.426506,43.8759036 335.243976,44.3876506 C335.059337,44.9003012 334.812048,45.2454819 334.496386,45.425 C334.183133,45.6057229 333.816867,45.6939759 333.396988,45.6939759 C332.926205,45.6939759 332.190964,45.425 331.196988,44.8864458 C330.200904,44.3490964 328.957229,43.7728916 327.464157,43.1578313 C325.970181,42.5439759 324.241867,41.9668675 322.277108,41.4292169 C320.312349,40.8915663 318.071687,40.6228916 315.558434,40.6228916 C313.776205,40.6228916 312.229518,40.8024096 310.921084,41.1605422 C309.610542,41.5183735 308.536446,42.0322289 307.699398,42.6966867 C306.859639,43.363253 306.231928,44.1457831 305.812048,45.0412651 C305.391867,45.9379518 305.184036,46.8978916 305.184036,47.9222892 C305.184036,49.5111446 305.681024,50.8421687 306.677108,51.9183735 C307.671084,52.9933735 308.98253,53.9424699 310.606627,54.761747 C312.229518,55.5819277 314.076506,56.3496988 316.14759,57.0665663 C318.216867,57.7846386 320.312349,58.5653614 322.434337,59.410241 C324.556325,60.2563253 326.650904,61.2430723 328.721084,62.3686747 C330.79006,63.4963855 332.637349,64.8801205 334.261145,66.5183735 Z M393.05241,45.6701807 L377.432831,45.6701807 L377.432831,77.2993976 C377.432831,80.973494 378.04488,83.7286145 379.275,85.5650602 C380.50241,87.4027108 382.692169,88.3204819 385.843373,88.3204819 C386.912349,88.3204819 387.87259,88.2337349 388.726807,88.0563253 C389.580723,87.8810241 390.341566,87.6792169 391.009337,87.4524096 C391.67741,87.2262048 392.238855,87.0256024 392.691566,86.8481928 C393.145482,86.671988 393.55994,86.585241 393.934337,86.585241 C394.253614,86.585241 394.561747,86.671988 394.854518,86.8481928 C395.146988,87.0256024 395.375301,87.3774096 395.535843,87.9054217 C395.696988,88.4334337 395.842771,89.1506024 395.976205,90.0566265 C396.108434,90.9626506 396.176807,92.1210843 396.176807,93.5298193 C396.176807,95.7445783 396.028916,97.4427711 395.736145,98.6243976 C395.442771,99.8072289 395.054819,100.637349 394.575301,101.115663 C394.094578,101.595181 393.385241,102.020783 392.451807,102.398795 C391.518072,102.776807 390.421084,103.104217 389.167169,103.381024 C387.912048,103.655723 386.551506,103.871084 385.082229,104.021988 C383.612048,104.172892 382.131627,104.249096 380.636747,104.249096 C376.631627,104.249096 373.15994,103.768675 370.223494,102.814759 C367.285542,101.859036 364.856928,100.387952 362.933735,98.398494 C361.010843,96.4108434 359.596687,93.9060241 358.688855,90.8876506 C357.778916,87.8674699 357.326205,84.2945783 357.326205,80.1686747 L357.326205,45.6701807 L348.754518,45.6701807 C347.741265,45.6701807 346.964759,45.0786145 346.43253,43.8960843 C345.898795,42.7141566 345.631024,40.738253 345.631024,37.9704819 C345.631024,36.5108434 345.697289,35.2783133 345.831627,34.2710843 C345.964157,33.2656627 346.163554,32.4725904 346.43253,31.8936747 C346.699096,31.3159639 347.033133,30.9009036 347.433133,30.648494 C347.834337,30.3963855 348.301506,30.2704819 348.835241,30.2704819 L357.326205,30.2704819 L357.326205,15.2481928 C357.326205,14.7463855 357.472892,14.2933735 357.766566,13.8900602 C358.059337,13.4876506 358.59488,13.1475904 359.368976,12.8707831 C360.14247,12.5951807 361.183434,12.3924699 362.49247,12.2668675 C363.801205,12.1421687 365.417169,12.0777108 367.339157,12.0777108 C369.313855,12.0777108 370.956627,12.1421687 372.266566,12.2668675 C373.574398,12.3924699 374.600904,12.5951807 375.349398,12.8707831 C376.098193,13.1475904 376.631627,13.4876506 376.952108,13.8900602 C377.271386,14.2933735 377.432831,14.7463855 377.432831,15.2481928 L377.432831,30.2704819 L392.972892,30.2704819 C393.50512,30.2704819 393.974699,30.3963855 394.373494,30.648494 C394.774699,30.9009036 395.10753,31.3159639 395.375301,31.8936747 C395.643072,32.4725904 395.842771,33.2656627 395.976205,34.2710843 C396.108434,35.2783133 396.176807,36.5108434 396.176807,37.9704819 C396.176807,40.738253 395.909036,42.7141566 395.375301,43.8960843 C394.840964,45.0786145 394.065663,45.6701807 393.05241,45.6701807 Z M418.547892,0.184638554 C422.568072,0.184638554 425.294277,0.909337349 426.729819,2.35903614 C428.165663,3.80843373 428.88253,6.39126506 428.88253,10.1024096 C428.88253,13.9683735 428.139759,16.6388554 426.658735,18.1138554 C425.174699,19.5900602 422.424398,20.326506 418.405422,20.326506 C414.337952,20.326506 411.597892,19.6135542 410.187349,18.189759 C408.775602,16.7668675 408.06988,14.196988 408.06988,10.4846386 C408.06988,6.61957831 408.798795,3.93644578 410.259639,2.43584337 C411.718373,0.936144578 414.481627,0.184638554 418.547892,0.184638554 Z M425.61747,30.9692771 C426.310241,31.2490964 426.802108,31.5798193 427.089157,31.9608434 C427.375301,32.3430723 427.51988,32.7891566 427.51988,33.2960843 L427.51988,101.198494 C427.51988,101.706627 427.375301,102.151506 427.089157,102.532831 C426.802108,102.914759 426.310241,103.231928 425.61747,103.486747 C424.923494,103.741867 424.002711,103.931928 422.85512,104.059036 C421.705723,104.18494 420.245783,104.249096 418.476506,104.249096 C416.706325,104.249096 415.24759,104.18494 414.097892,104.059036 C412.950301,103.931928 412.028614,103.741867 411.335843,103.486747 C410.641867,103.231928 410.152108,102.914759 409.863855,102.532831 C409.577711,102.151506 409.433133,101.706627 409.433133,101.198494 L409.433133,33.2960843 C409.433133,32.7891566 409.577711,32.3430723 409.863855,31.9608434 C410.152108,31.5798193 410.641867,31.2490964 411.335843,30.9692771 C412.028614,30.6906627 412.950301,30.4740964 414.097892,30.3204819 C415.24759,30.1686747 416.706325,30.0918675 418.476506,30.0918675 C420.245783,30.0918675 421.705723,30.1686747 422.85512,30.3204819 C424.002711,30.4740964 424.923494,30.6906627 425.61747,30.9692771 Z M497.112651,84.8457831 C497.216867,85.9240964 497.267771,87.3093373 497.267771,89.0036145 C497.267771,90.3394578 497.228614,91.4554217 497.151807,92.3536145 C497.073795,93.2509036 496.970783,94.0084337 496.841566,94.6243976 C496.712651,95.2406627 496.556627,95.7412651 496.376506,96.1259036 C496.195482,96.5105422 495.795482,96.9993976 495.175301,97.5888554 C494.555422,98.1792169 493.496084,98.898494 491.998795,99.7442771 C490.500602,100.591867 488.795482,101.349096 486.883133,102.015964 C484.971687,102.681928 482.89247,103.221386 480.645181,103.632831 C478.39759,104.043373 476.086446,104.249096 473.70994,104.249096 C468.388253,104.249096 463.674398,103.427108 459.567771,101.785542 C455.45994,100.142771 452.011446,97.7168675 449.221988,94.5090361 C446.43253,91.3012048 444.327108,87.386747 442.906928,82.7668675 C441.48494,78.1478916 440.775602,72.8608434 440.775602,66.9054217 C440.775602,60.026506 441.639759,54.0858434 443.371988,49.0813253 C445.10241,44.076506 447.517771,39.9307229 450.617169,36.6460843 C453.716867,33.361747 457.384337,30.9222892 461.621084,29.3310241 C465.857831,27.7409639 470.506325,26.9439759 475.570181,26.9439759 C477.635542,26.9439759 479.663855,27.125 481.653313,27.4828313 C483.641566,27.8424699 485.501807,28.3304217 487.232229,28.9466867 C488.963554,29.561747 490.512651,30.2554217 491.882831,31.0243976 C493.251205,31.7945783 494.219277,32.4623494 494.788253,33.0268072 C495.356325,33.5924699 495.75753,34.0662651 495.989458,34.4521084 C496.221687,34.8364458 496.402711,35.3364458 496.531627,35.9527108 C496.660542,36.5686747 496.763554,37.3268072 496.841566,38.2243976 C496.919578,39.1225904 496.957831,40.2138554 496.957831,41.4966867 C496.957831,44.4740964 496.699699,46.5659639 496.18253,47.7713855 C495.666566,48.9777108 494.994277,49.5810241 494.168373,49.5810241 C493.29006,49.5810241 492.35994,49.2231928 491.378916,48.5039157 C490.396687,47.785241 489.234337,46.9903614 487.891265,46.1168675 C486.547892,45.2433735 484.946687,44.4493976 483.086446,43.7289157 C481.226205,43.010241 479.005723,42.651506 476.422289,42.651506 C471.359639,42.651506 467.48494,44.5894578 464.79759,48.4650602 C462.112048,52.3418675 460.768976,58.025 460.768976,65.5201807 C460.768976,69.214759 461.103916,72.476506 461.776205,75.2987952 C462.448193,78.1210843 463.44247,80.4831325 464.759639,82.3822289 C466.076807,84.2813253 467.73012,85.7054217 469.718373,86.6554217 C471.708735,87.6054217 474.01988,88.0795181 476.654518,88.0795181 C479.340964,88.0795181 481.653313,87.6828313 483.589458,86.8870482 C485.528012,86.0909639 487.219277,85.2045181 488.666265,84.2295181 C490.112651,83.2548193 491.326807,82.3701807 492.307831,81.5731928 C493.29006,80.7774096 494.116265,80.3798193 494.788253,80.3798193 C495.253313,80.3798193 495.640361,80.5090361 495.950602,80.7653614 C496.259639,81.0228916 496.505723,81.4966867 496.686747,82.1894578 C496.867771,82.8822289 497.008735,83.7674699 497.112651,84.8457831 Z" id="Combined-Shape"></path>
        </g>
    </g>
</svg>