<?xml version="1.0" encoding="UTF-8"?>
<svg width="45px" height="29px" viewBox="0 0 45 29" version="1.1" xmlns="http://www.w3.org/2000/svg" xmlns:xlink="http://www.w3.org/1999/xlink">
    <!-- Generator: Sketch 54.1 (76490) - https://sketchapp.com -->
    <title>Combined Shape</title>
    <desc>Created with Sketch.</desc>
    <g id="Page-1" stroke="none" stroke-width="1" fill="none" fill-rule="evenodd">
        <g id="ManpowerGroup_logo" transform="translate(0.806452, 0.000000)" fill="#FFFFFF">
            <path d="M13.9449678,10.7252928 C13.7552037,11.2510524 13.1805907,11.5227024 12.659626,11.3311082 C12.1399915,11.1399638 11.8708633,10.554837 12.0610709,10.0290773 L14.0855174,4.39054134 C14.2761683,3.86343245 14.8507813,3.59178248 15.3713026,3.78382642 C15.8900504,3.97542061 16.1582918,4.5591982 15.9685276,5.08720659 L13.9449678,10.7252928 Z M17.4028432,12.1995786 C17.1536669,12.8899473 16.4008175,13.2457009 15.7211248,12.9942897 C15.038772,12.7424288 14.688063,11.9783008 14.9359091,11.2892813 L17.6830556,3.6390064 C17.9304584,2.94818792 18.6833078,2.59288415 19.3652173,2.8442953 C20.0453534,3.0952567 20.3973925,3.85983444 20.1486595,4.55065292 L17.4028432,12.1995786 Z M21.755891,13.9990348 C21.4220302,14.9241739 20.4133539,15.4018101 19.5017766,15.0644964 C18.5884258,14.7280822 18.1166756,13.7030982 18.4492063,12.7793084 L22.0591589,2.72556087 C22.392133,1.7986228 23.4021394,1.32098659 24.3146035,1.6583003 C25.2275109,1.99561401 25.6979309,3.01789942 25.3658437,3.94528725 L21.755891,13.9990348 Z M27.2204779,16.2500416 C26.7802074,17.4729163 25.4452077,18.1039178 24.2383431,17.6591134 C23.0310352,17.2116106 22.4080944,15.858308 22.8479216,14.6349836 L27.5454712,1.55305842 C27.9857418,0.327485273 29.3198547,-0.302616736 30.5284928,0.143087112 C31.734914,0.588341209 32.356968,1.94344282 31.9180275,3.16856621 L27.2204779,16.2500416 Z M0.775474481,23.1540207 L2.11804765,27.0039711 L3.46589615,23.1540207 L4.24189816,23.1540207 L4.24189816,27.7360658 L3.70513266,27.7360658 L3.70513266,23.9238406 L3.69379069,23.9238406 L2.3625595,27.7360658 L1.87881113,27.7360658 L0.548107473,23.9238406 L0.536765499,23.9238406 L0.536765499,27.7360658 L1.33226763e-15,27.7360658 L1.33226763e-15,23.1540207 L0.775474481,23.1540207 Z M6.8816766,26.0228336 C6.81837256,26.0738902 6.73423094,26.1110481 6.63109811,26.1343072 C6.52717398,26.1581336 6.41955711,26.1768543 6.30560984,26.191604 C6.1929814,26.2060701 6.0785066,26.2233726 5.96244919,26.2426606 C5.84744686,26.2622323 5.74405026,26.2928663 5.6530507,26.3351298 C5.56125985,26.3779606 5.48661383,26.4389448 5.4288489,26.5172316 C5.37055643,26.596653 5.34206961,26.7030208 5.34206961,26.8400227 C5.34206961,26.9293717 5.35921445,27.0045384 5.39271284,27.0666572 C5.426475,27.1279251 5.47078782,27.1784144 5.52459626,27.2164232 C5.57840469,27.2549993 5.6403899,27.2822295 5.71239824,27.299532 C5.78414282,27.3168345 5.85931636,27.3256276 5.93923771,27.3256276 C6.10620212,27.3256276 6.24942751,27.3003829 6.36891388,27.2518792 C6.48787272,27.2022408 6.58546645,27.1406893 6.66143129,27.0666572 C6.73686861,26.9917742 6.79252341,26.9112183 6.82786816,26.8238548 C6.86400422,26.7370586 6.8816766,26.6550844 6.8816766,26.5782159 L6.8816766,26.0228336 Z M7.70542041,27.7235853 C7.61784982,27.7783293 7.49651708,27.8061268 7.34142218,27.8061268 C7.21033007,27.8061268 7.1058784,27.7666998 7.02806719,27.6878457 C6.95078351,27.6089916 6.91148225,27.4793646 6.91148225,27.299532 C6.77221336,27.4793646 6.61078806,27.6089916 6.42535998,27.6878457 C6.2399319,27.7666998 6.04052418,27.8061268 5.82529044,27.8061268 C5.68654909,27.8061268 5.55361061,27.7896752 5.4288489,27.7550702 C5.30355965,27.7207488 5.19462395,27.6671394 5.1036244,27.5950929 C5.01183354,27.5219118 4.93956143,27.4263225 4.88575299,27.309176 C4.83194456,27.1914622 4.80530411,27.0490711 4.80530411,26.8822862 C4.80530411,26.6945114 4.83510976,26.5399234 4.8952486,26.4202241 C4.9548599,26.3008084 5.03267112,26.2032336 5.13000108,26.1286342 C5.22812234,26.0534676 5.33890441,25.9967381 5.46445742,25.9584456 C5.58974666,25.9198695 5.71820111,25.8875337 5.84982076,25.8620054 C5.98856211,25.832506 6.12070929,25.8095306 6.2462623,25.7950645 C6.37155155,25.7805985 6.48233362,25.758474 6.57781721,25.7303929 C6.67277327,25.702879 6.74873812,25.662601 6.80386538,25.6084243 C6.85952018,25.5553822 6.88747947,25.4776627 6.88747947,25.374415 C6.88747947,25.2547156 6.86664189,25.1582754 6.82470296,25.0859453 C6.78355534,25.0127641 6.7297469,24.9574528 6.66406896,24.9191604 C6.59812726,24.880017 6.52480008,24.8547724 6.44303236,24.8417246 C6.36126464,24.8292441 6.28160706,24.8221529 6.20115818,24.8221529 C5.98671574,24.8221529 5.8073543,24.8664019 5.66439268,24.9537654 C5.52143105,25.0416962 5.44414737,25.2076301 5.43148657,25.4515672 L4.92426295,25.4515672 C4.93270349,25.2456389 4.97253228,25.0726138 5.04401309,24.9316409 C5.1154939,24.790668 5.21044996,24.6757907 5.33072764,24.5878599 C5.44968648,24.5004964 5.58579016,24.4375266 5.73903869,24.3992342 C5.89175968,24.3600908 6.05635019,24.34137 6.23149136,24.34137 C6.37076025,24.34137 6.50897407,24.3524323 6.64613282,24.3728549 C6.78355534,24.3946958 6.90778951,24.4383775 7.01909912,24.5044675 C7.12988119,24.5705574 7.21982567,24.6635938 7.28761375,24.7830095 C7.35513806,24.9027088 7.38890021,25.0584314 7.38890021,25.2504609 L7.38890021,26.9537654 C7.38890021,27.0816905 7.39628568,27.1755779 7.40973779,27.2357112 C7.42371743,27.2952773 7.47119546,27.3256276 7.55032551,27.3256276 C7.59384704,27.3256276 7.6458091,27.3168345 7.70542041,27.299532 L7.70542041,27.7235853 Z M8.6541897,24.4182385 L8.6541897,24.9441214 L8.66632297,24.9441214 C8.87707267,24.5424762 9.21073771,24.34137 9.66890069,24.34137 C9.87094608,24.34137 10.0405482,24.3708694 10.1761243,24.4310027 C10.3109092,24.4905687 10.4203724,24.5745284 10.5039865,24.6814636 C10.5876006,24.7881152 10.645893,24.9157566 10.679919,25.0635371 C10.7134173,25.2104666 10.7313535,25.3746986 10.7313535,25.5533967 L10.7313535,27.7360658 L10.222811,27.7360658 L10.222811,25.4904269 C10.222811,25.2844987 10.1671562,25.1222522 10.0563742,25.0019855 C9.9455921,24.8820026 9.79181603,24.8224365 9.59689235,24.8224365 C9.44179745,24.8224365 9.30754013,24.8479648 9.19359286,24.8995887 C9.08017313,24.9509289 8.9865359,25.0235428 8.91057106,25.1174302 C8.83539751,25.2113175 8.77842387,25.3222238 8.74044145,25.4481634 C8.70298656,25.5743866 8.68399535,25.712523 8.68399535,25.8617217 L8.68399535,27.7360658 L8.1770355,27.7360658 L8.1770355,24.4182385 L8.6541897,24.4182385 Z M13.7045332,25.5959438 C13.6665508,25.4481634 13.6090496,25.3168345 13.5312384,25.2013899 C13.4539547,25.0850943 13.3545146,24.9937598 13.2329181,24.9254007 C13.1115854,24.8570416 12.9691513,24.8224365 12.8064071,24.8224365 C12.6360138,24.8224365 12.4904145,24.8587434 12.3709281,24.9319245 C12.2517055,25.0045384 12.1535842,25.099844 12.0784107,25.2167069 C12.0029734,25.3349879 11.9486374,25.4683024 11.9143477,25.6177847 C11.8808493,25.768118 11.8637045,25.9201532 11.8637045,26.0741739 C11.8637045,26.2364204 11.8813769,26.3932775 11.9175129,26.5453127 C11.953649,26.6973479 12.0100951,26.8312296 12.087115,26.9466742 C12.16519,27.0624025 12.2651576,27.1554389 12.389128,27.2257836 C12.5120434,27.2961282 12.6608078,27.3313005 12.8362128,27.3313005 C13.011354,27.3313005 13.1577446,27.2952773 13.274857,27.2220962 C13.3919695,27.1500496 13.4869256,27.0538931 13.5584064,26.9339101 C13.6293596,26.8142108 13.6813217,26.6769253 13.7135013,26.5231882 C13.7451533,26.3688838 13.7604518,26.2108921 13.7604518,26.0477946 C13.7604518,25.8937739 13.7425156,25.7434406 13.7045332,25.5959438 Z M11.8813769,24.4182385 L11.8813769,24.8672529 L11.8935101,24.8672529 C11.9771242,24.6837328 12.1087439,24.5501347 12.287314,24.466175 C12.4664117,24.3827826 12.6631817,24.34137 12.8778879,24.34137 C13.1171245,24.34137 13.324709,24.3881719 13.5019603,24.4829102 C13.678684,24.5770813 13.8261297,24.7033045 13.9427146,24.8641327 C14.0603546,25.0246774 14.1497716,25.2096157 14.2085916,25.419515 C14.2687304,25.6291306 14.2977448,25.8509431 14.2977448,26.0872217 C14.2977448,26.3223656 14.269258,26.5444618 14.2117568,26.7540774 C14.1539919,26.9634094 14.0666851,27.1469295 13.949045,27.3026521 C13.8311413,27.4586583 13.6844869,27.5814778 13.5072356,27.6716778 C13.3310394,27.7615941 13.1247737,27.8064104 12.8900212,27.8064104 C12.8145839,27.8064104 12.729651,27.797901 12.6368051,27.7808821 C12.5429041,27.7638633 12.4505857,27.7360658 12.3587948,27.6969224 C12.267004,27.65863 12.1815435,27.6067225 12.0992483,27.5397816 C12.0182718,27.4739753 11.9491649,27.3917175 11.8935101,27.2930081 L11.8813769,27.2930081 L11.8813769,29 L11.374417,29 L11.374417,24.4182385 L11.8813769,24.4182385 Z M15.2436126,26.615941 C15.2934646,26.7722309 15.3625715,26.9029925 15.4493508,27.0073748 C15.5371851,27.1126081 15.6397904,27.1923131 15.7569029,27.2484754 C15.8748067,27.3037867 15.9987771,27.3315842 16.1298692,27.3315842 C16.2609613,27.3315842 16.3854593,27.3037867 16.5025717,27.2484754 C16.6204755,27.1923131 16.7230808,27.1126081 16.8103876,27.0073748 C16.898222,26.9029925 16.9668013,26.7722309 17.0161257,26.615941 C17.0659777,26.4599348 17.0907718,26.2809531 17.0907718,26.0804141 C17.0907718,25.8790243 17.0659777,25.7006098 17.0161257,25.5440363 C16.9668013,25.3883137 16.898222,25.2561339 16.8103876,25.1494823 C16.7230808,25.0425472 16.6204755,24.9614239 16.5025717,24.9052617 C16.3854593,24.850234 16.2609613,24.8224365 16.1298692,24.8224365 C15.9987771,24.8224365 15.8748067,24.850234 15.7569029,24.9052617 C15.6397904,24.9614239 15.5371851,25.0425472 15.4493508,25.1494823 C15.3625715,25.2561339 15.2934646,25.3883137 15.2436126,25.5440363 C15.1942882,25.7006098 15.1689666,25.8790243 15.1689666,26.0804141 C15.1689666,26.2809531 15.1942882,26.4599348 15.2436126,26.615941 Z M14.7276847,25.3968231 C14.7915163,25.1849383 14.8864724,25.0005673 15.0143993,24.8445611 C15.1415349,24.6885548 15.2992674,24.5654517 15.4854868,24.4761027 C15.6727613,24.3859027 15.8874675,24.3410864 16.1298692,24.3410864 C16.3759636,24.3410864 16.5925162,24.3859027 16.7774168,24.4761027 C16.9628448,24.5654517 17.118731,24.6885548 17.2458667,24.8445611 C17.3730023,25.0005673 17.4679583,25.1849383 17.5320537,25.3968231 C17.5958852,25.6084243 17.6275373,25.8367607 17.6275373,26.0804141 C17.6275373,26.3240675 17.5958852,26.550702 17.5320537,26.7603177 C17.4679583,26.9696497 17.3730023,27.1534534 17.2458667,27.309176 C17.118731,27.4654659 16.9628448,27.5868671 16.7774168,27.6747979 C16.5925162,27.7618777 16.3759636,27.8061268 16.1298692,27.8061268 C15.8874675,27.8061268 15.6727613,27.7618777 15.4854868,27.6747979 C15.2992674,27.5868671 15.1415349,27.4654659 15.0143993,27.309176 C14.8864724,27.1534534 14.7915163,26.9696497 14.7276847,26.7603177 C14.6643807,26.550702 14.6327287,26.3240675 14.6327287,26.0804141 C14.6327287,25.8367607 14.6643807,25.6084243 14.7276847,25.3968231 Z M20.5933315,27.7360658 L19.9674128,25.0992767 L19.954752,25.0992767 L19.3335811,27.7360658 L18.7854736,27.7360658 L17.7947654,24.4182385 L18.3555337,24.4182385 L19.0537245,27.1324635 L19.0658578,27.1324635 L19.6862374,24.4182385 L20.2414665,24.4182385 L20.8858489,27.1324635 L20.8971909,27.1324635 L21.5898426,24.4182385 L22.1152661,24.4182385 L21.130097,27.7360658 L20.5933315,27.7360658 Z M24.4308751,25.393703 C24.3847159,25.2785421 24.3232582,25.1786981 24.245447,25.0953056 C24.1681633,25.0119132 24.0769,24.9455396 23.9713933,24.8967522 C23.8661503,24.8476812 23.7490379,24.8224365 23.6224298,24.8224365 C23.4908101,24.8224365 23.3723788,24.8476812 23.2673996,24.8967522 C23.1616291,24.9455396 23.0703658,25.0133314 22.9957198,25.0992767 C22.9192274,25.1840874 22.8604074,25.2836477 22.8166221,25.3971068 C22.7728368,25.5105659 22.7469877,25.6308325 22.7393384,25.7593249 L24.5105327,25.7593249 C24.5036748,25.6308325 24.4765068,25.5091476 24.4308751,25.393703 Z M24.5529991,27.5238973 C24.3219394,27.712523 24.0315321,27.8066941 23.6820411,27.8066941 C23.4351553,27.8066941 23.221768,27.7638633 23.0408239,27.6784853 C22.8596161,27.5931074 22.7063676,27.4725571 22.583716,27.31882 C22.4608007,27.1647993 22.367691,26.9812793 22.3064971,26.7668416 C22.2450394,26.5526876 22.2102222,26.3198128 22.2020454,26.0673663 C22.2020454,25.8149199 22.2373901,25.5848816 22.308871,25.3741313 C22.3811431,25.165083 22.4811107,24.9826975 22.610884,24.8281095 C22.7401297,24.6749397 22.8931145,24.5552404 23.0698383,24.4692951 C23.2470896,24.3836335 23.4414857,24.34137 23.6522354,24.34137 C23.9262892,24.34137 24.1541837,24.4020706 24.3346002,24.5240391 C24.5163356,24.6460077 24.6614073,24.801163 24.7708706,24.989505 C24.8803338,25.1778471 24.9557711,25.3829244 24.9969187,25.6050206 C25.0399127,25.827684 25.0562663,26.0392852 25.0480895,26.2403914 L22.7393384,26.2403914 C22.7348544,26.3859027 22.7506804,26.5240391 22.7868165,26.6548007 C22.8229525,26.7847114 22.8799261,26.9004397 22.9595837,27.0014182 C23.0395051,27.1015459 23.1400002,27.1821018 23.2642344,27.2419515 C23.386886,27.3015175 23.5324853,27.3318678 23.6991859,27.3318678 C23.9144197,27.3318678 24.0903521,27.2782584 24.2283022,27.1707559 C24.3649334,27.0641044 24.4548779,26.9018579 24.499982,26.6834492 L25.0006115,26.6834492 C24.9328234,27.055595 24.7835314,27.3358389 24.5529991,27.5238973 Z M26.0451281,24.4182385 L26.0451281,25.1174302 L26.0564701,25.1174302 C26.1793854,24.8479648 26.3318427,24.6488441 26.5098853,24.5206354 C26.6895105,24.3927103 26.9155586,24.3328606 27.1904037,24.34137 L27.1904037,24.9185931 C26.9878308,24.9185931 26.8142722,24.9489434 26.6713106,25.0087931 C26.5280852,25.0689264 26.4122915,25.1560062 26.3249847,25.2717345 C26.2376779,25.3871791 26.1735826,25.5275847 26.1350726,25.6923841 C26.0944525,25.8566161 26.0749338,26.0460928 26.0749338,26.2602468 L26.0749338,27.7360658 L25.5666551,27.7360658 L25.5666551,24.4182385 L26.0451281,24.4182385 Z M30.2814872,27.6810382 C30.0351289,27.7857042 29.7863968,27.838179 29.535027,27.838179 C29.2166605,27.838179 28.9323198,27.7752092 28.6822689,27.648986 C28.4311629,27.5221954 28.2190943,27.3528578 28.0436894,27.1387037 C27.8682844,26.925117 27.7348184,26.6789108 27.6435551,26.400936 C27.5517642,26.122394 27.5069239,25.8344916 27.5069239,25.5343923 C27.5069239,25.2002553 27.5491266,24.8834208 27.6353783,24.581336 C27.7200475,24.2803858 27.8474469,24.0160261 28.0170489,23.7893916 C28.1861235,23.5624734 28.3968732,23.3817898 28.6487705,23.2470572 C28.9014591,23.1120408 29.1971417,23.0451 29.535027,23.0451 C29.7660868,23.0451 29.9839582,23.0734648 30.188905,23.1313289 C30.3935881,23.1894767 30.5771698,23.2802439 30.7378038,23.4039143 C30.8987015,23.5278684 31.0334864,23.6855765 31.1429496,23.8753368 C31.2524129,24.0659481 31.3273226,24.2965537 31.3671514,24.5654517 L30.799789,24.5654517 C30.772621,24.3904411 30.7206589,24.2395405 30.6446941,24.1130336 C30.5695205,23.987094 30.4764109,23.8835626 30.3651013,23.8018721 C30.2535279,23.7213161 30.1269198,23.6597646 29.9858045,23.6194866 C29.843898,23.5783577 29.6951335,23.5582187 29.535027,23.5582187 C29.2767993,23.5582187 29.0547076,23.6140973 28.8698071,23.7247199 C28.6849065,23.8364771 28.5335044,23.982272 28.4163919,24.1649411 C28.2987519,24.3464757 28.2127639,24.5543894 28.1568453,24.7864133 C28.1011905,25.0195717 28.073495,25.2581194 28.073495,25.5026237 C28.073495,25.7423061 28.1051471,25.9723443 28.1689786,26.1921713 C28.2322827,26.4125656 28.3259199,26.6071479 28.4493628,26.7767693 C28.5728056,26.945256 28.7242078,27.0802723 28.9051518,27.1803999 C29.0868872,27.2810949 29.2963181,27.3318678 29.535027,27.3318678 C29.75791,27.3318678 29.9546801,27.2930081 30.125601,27.2155723 C30.2965219,27.1387037 30.4410661,27.0326195 30.5587061,26.8984541 C30.6758186,26.7637215 30.7644442,26.6051624 30.8245831,26.4230606 C30.8834031,26.2418097 30.909516,26.0460928 30.9018667,25.8359098 L29.5413574,25.8359098 L29.5413574,25.3230747 L31.4088266,25.3230747 L31.4088266,27.7357822 L31.0506312,27.7357822 L30.9018667,27.165083 C30.7354299,27.404198 30.5275816,27.5766558 30.2814872,27.6810382 Z M32.5459254,24.4182385 L32.5459254,25.1174302 L32.5572674,25.1174302 C32.6807103,24.8479648 32.8318486,24.6488441 33.0112101,24.5206354 C33.1903078,24.3927103 33.4168835,24.3328606 33.6909372,24.34137 L33.6909372,24.9185931 C33.4883643,24.9185931 33.3150695,24.9489434 33.1718441,25.0087931 C33.0288825,25.0689264 32.9136164,25.1560062 32.8263095,25.2717345 C32.7382114,25.3871791 32.6749074,25.5275847 32.6345511,25.6923841 C32.5952498,25.8566161 32.5754673,26.0460928 32.5754673,26.2602468 L32.5754673,27.7360658 L32.0685074,27.7360658 L32.0685074,24.4182385 L32.5459254,24.4182385 Z M34.3886005,26.615941 C34.4379249,26.7722309 34.5062405,26.9029925 34.5943386,27.0073748 C34.6811179,27.1126081 34.7842507,27.1923131 34.9013632,27.2484754 C35.0184757,27.3037867 35.1424461,27.3315842 35.274857,27.3315842 C35.4059491,27.3315842 35.5307109,27.3037867 35.647032,27.2484754 C35.7641445,27.1923131 35.8667498,27.1126081 35.9540566,27.0073748 C36.0421547,26.9029925 36.1104703,26.7722309 36.1597947,26.615941 C36.2099104,26.4599348 36.2357596,26.2809531 36.2357596,26.0804141 C36.2357596,25.8790243 36.2099104,25.7006098 36.1597947,25.5440363 C36.1104703,25.3883137 36.0421547,25.2561339 35.9540566,25.1494823 C35.8667498,25.0425472 35.7641445,24.9614239 35.647032,24.9052617 C35.5307109,24.850234 35.4059491,24.8224365 35.274857,24.8224365 C35.1424461,24.8224365 35.0184757,24.850234 34.9013632,24.9052617 C34.7842507,24.9614239 34.6811179,25.0425472 34.5943386,25.1494823 C34.5062405,25.2561339 34.4379249,25.3883137 34.3886005,25.5440363 C34.3379572,25.7006098 34.3131632,25.8790243 34.3131632,26.0804141 C34.3131632,26.2809531 34.3379572,26.4599348 34.3886005,26.615941 Z M33.8713537,25.3968231 C33.9359766,25.1849383 34.0314602,25.0005673 34.1580683,24.8445611 C34.2854676,24.6885548 34.4424089,24.5654517 34.6296834,24.4761027 C34.8172216,24.3859027 35.0311365,24.3410864 35.274857,24.3410864 C35.5204239,24.3410864 35.7369765,24.3859027 35.9210858,24.4761027 C36.1059863,24.5654517 36.2624,24.6885548 36.3895357,24.8445611 C36.5174626,25.0005673 36.6124186,25.1849383 36.676514,25.3968231 C36.7403455,25.6084243 36.7719976,25.8367607 36.7719976,26.0804141 C36.7719976,26.3240675 36.7403455,26.550702 36.676514,26.7603177 C36.6124186,26.9696497 36.5174626,27.1534534 36.3895357,27.309176 C36.2624,27.4654659 36.1059863,27.5868671 35.9210858,27.6747979 C35.7369765,27.7618777 35.5204239,27.8061268 35.274857,27.8061268 C35.0311365,27.8061268 34.8172216,27.7618777 34.6296834,27.6747979 C34.4424089,27.5868671 34.2854676,27.4654659 34.1580683,27.309176 C34.0314602,27.1534534 33.9359766,26.9696497 33.8713537,26.7603177 C33.8080497,26.550702 33.7758701,26.3240675 33.7758701,26.0804141 C33.7758701,25.8367607 33.8080497,25.6084243 33.8713537,25.3968231 Z M39.3226228,27.7360658 L39.3226228,27.2096157 L39.3104895,27.2096157 C39.2028727,27.4152602 39.0654501,27.5655935 38.8984857,27.6617501 C38.7317851,27.7581903 38.535015,27.8064104 38.307648,27.8064104 C38.1050751,27.8064104 37.9362643,27.777762 37.8006882,27.7196142 C37.6659033,27.6617501 37.5564401,27.5794923 37.4720347,27.4725571 C37.3886844,27.3656219 37.3296006,27.2385477 37.2961022,27.0910509 C37.2620763,26.9429868 37.245459,26.7796057 37.245459,26.5997731 L37.245459,24.4182385 L37.7526826,24.4182385 L37.7526826,26.6641611 C37.7526826,26.8692384 37.8096563,27.0320522 37.9204383,27.1517515 C38.0312204,27.2714509 38.1842052,27.3313005 38.3793926,27.3313005 C38.535015,27.3313005 38.6692724,27.3060559 38.7819008,27.254432 C38.8958481,27.2033754 38.9894853,27.1307616 39.0654501,27.0363069 C39.141415,26.9412849 39.1983886,26.8320806 39.2358435,26.7058573 C39.2730346,26.5799177 39.2920258,26.4417813 39.2920258,26.2917317 L39.2920258,24.4182385 L39.799777,24.4182385 L39.799777,27.7360658 L39.3226228,27.7360658 Z M42.7922117,25.5959438 C42.7537017,25.4481634 42.6967281,25.3168345 42.6194444,25.2013899 C42.5416332,25.0850943 42.4414018,24.9937598 42.3205966,24.9254007 C42.1990001,24.8570416 42.0573573,24.8224365 41.8932943,24.8224365 C41.722901,24.8224365 41.578093,24.8587434 41.4578153,24.9319245 C41.339384,25.0045384 41.2412627,25.099844 41.1658254,25.2167069 C41.0911794,25.3349879 41.0360521,25.4683024 41.0025537,25.6177847 C40.9677365,25.768118 40.9505917,25.9201532 40.9505917,26.0741739 C40.9505917,26.2364204 40.9690554,26.3932775 41.0051914,26.5453127 C41.0400086,26.6973479 41.0975098,26.8312296 41.1742659,26.9466742 C41.2526047,27.0624025 41.3525723,27.1554389 41.4760152,27.2257836 C41.5994581,27.2961282 41.7482226,27.3313005 41.9244188,27.3313005 C42.0985049,27.3313005 42.2451593,27.2952773 42.3617442,27.2220962 C42.4801755,27.1500496 42.5743403,27.0538931 42.6460849,26.9339101 C42.7167744,26.8142108 42.7695277,26.6769253 42.8011798,26.5231882 C42.8328318,26.3688838 42.8486578,26.2108921 42.8486578,26.0477946 C42.8486578,25.8937739 42.8296666,25.7434406 42.7922117,25.5959438 Z M40.9690554,24.4182385 L40.9690554,24.8672529 L40.9811886,24.8672529 C41.0645389,24.6837328 41.1956311,24.5501347 41.37552,24.466175 C41.5532989,24.3827826 41.7508602,24.34137 41.9647751,24.34137 C42.204803,24.34137 42.4123874,24.3881719 42.5891112,24.4829102 C42.7655712,24.5770813 42.9138082,24.7033045 43.0296018,24.8641327 C43.1485607,25.0246774 43.2366588,25.2096157 43.2954788,25.419515 C43.3561452,25.6291306 43.3854233,25.8509431 43.3854233,26.0872217 C43.3854233,26.3223656 43.3569365,26.5444618 43.2991715,26.7540774 C43.2411428,26.9634094 43.1535722,27.1469295 43.0372511,27.3026521 C42.9193473,27.4586583 42.7719016,27.5814778 42.5946503,27.6716778 C42.4181903,27.7615941 42.2129797,27.8064104 41.9782272,27.8064104 C41.9022624,27.8064104 41.8173295,27.797901 41.7236923,27.7808821 C41.6311101,27.7638633 41.5382642,27.7360658 41.4470009,27.6969224 C41.35521,27.65863 41.2684307,27.6067225 41.1869268,27.5397816 C41.105159,27.4739753 41.0368434,27.3917175 40.9811886,27.2930081 L40.9690554,27.2930081 L40.9690554,29 L40.462623,29 L40.462623,24.4182385 L40.9690554,24.4182385 Z M43.5760196,23.4669374 C43.5961751,23.4669374 43.6154667,23.4666473 43.6341825,23.4654872 C43.6520345,23.4640371 43.667871,23.4602668 43.6825557,23.4533063 C43.6955128,23.4472158 43.7073182,23.437645 43.717108,23.424884 C43.7240184,23.4118329 43.7289133,23.3935615 43.7289133,23.3706497 C43.7289133,23.3512181 43.7245943,23.3358469 43.7176838,23.3233759 C43.7101975,23.312355 43.6998318,23.3033643 43.6886024,23.2969838 C43.6762211,23.2911833 43.6624002,23.2868329 43.6465638,23.2842227 C43.632167,23.2819026 43.6160426,23.2810325 43.6016458,23.2810325 L43.4812888,23.2810325 L43.4812888,23.4669374 L43.5760196,23.4669374 Z M43.6160426,23.2073666 C43.6845713,23.2073666 43.7358238,23.2207077 43.7689364,23.2488399 C43.8026248,23.2766821 43.8193251,23.3178654 43.8193251,23.37471 C43.8193251,23.4274942 43.8040645,23.4663573 43.7758468,23.4901392 C43.7461895,23.5147912 43.7101975,23.5295824 43.6667193,23.5339327 L43.833146,23.7920534 L43.7358238,23.7920534 L43.5774593,23.5408933 L43.4812888,23.5408933 L43.4812888,23.7920534 L43.390877,23.7920534 L43.390877,23.2073666 L43.6160426,23.2073666 Z M43.2057345,23.6685035 C43.2264659,23.7207077 43.2555474,23.7662413 43.2921152,23.8045244 C43.328683,23.8428074 43.3721612,23.8729698 43.4225499,23.8944316 C43.4723628,23.9167633 43.5270705,23.9277842 43.5849456,23.9277842 C43.6431085,23.9277842 43.6955128,23.9167633 43.7461895,23.8944316 C43.7957144,23.8729698 43.8380409,23.8428074 43.8751846,23.8045244 C43.913192,23.7662413 43.9416977,23.7207077 43.9615652,23.6685035 C43.9822966,23.6160093 43.9935261,23.5591647 43.9935261,23.4979698 C43.9935261,23.437645 43.9822966,23.3822506 43.9615652,23.3303364 C43.9416977,23.2781323 43.913192,23.2340487 43.8751846,23.1954756 C43.8380409,23.1574826 43.7957144,23.1284803 43.7461895,23.1058585 C43.6955128,23.0843968 43.6431085,23.0730858 43.5849456,23.0730858 C43.5270705,23.0730858 43.4723628,23.0843968 43.4225499,23.1058585 C43.3721612,23.1284803 43.328683,23.1574826 43.2921152,23.1954756 C43.2555474,23.2340487 43.2264659,23.2781323 43.2057345,23.3303364 C43.1850032,23.3822506 43.1737737,23.437645 43.1737737,23.4979698 C43.1737737,23.5591647 43.1850032,23.6160093 43.2057345,23.6685035 Z M43.1248246,23.3007541 C43.1504509,23.2401392 43.1875946,23.187935 43.2319366,23.1424014 C43.2782943,23.0986079 43.3306985,23.062935 43.3914529,23.037413 C43.4524952,23.012761 43.5167049,23 43.5849456,23 C43.6534742,23 43.7176838,23.012761 43.7772865,23.037413 C43.8380409,23.062935 43.8913089,23.0986079 43.9353631,23.1424014 C43.9811448,23.187935 44.0168488,23.2401392 44.0439148,23.3007541 C44.0701169,23.361949 44.0839378,23.4274942 44.0839378,23.4979698 C44.0839378,23.5696056 44.0701169,23.6363109 44.0439148,23.6975058 C44.0168488,23.7595708 43.9811448,23.812645 43.9353631,23.8575986 C43.8913089,23.9022622 43.8380409,23.937645 43.7772865,23.962587 C43.7176838,23.986949 43.6534742,24 43.5849456,24 C43.5167049,24 43.4524952,23.986949 43.3914529,23.962587 C43.3306985,23.937645 43.2782943,23.9022622 43.2319366,23.8575986 C43.1875946,23.812645 43.1504509,23.7595708 43.1248246,23.6975058 C43.096607,23.6363109 43.0839378,23.5696056 43.0839378,23.4979698 C43.0839378,23.4274942 43.096607,23.361949 43.1248246,23.3007541 Z" id="Combined-Shape"></path>
        </g>
    </g>
</svg>