<?xml version="1.0" encoding="UTF-8"?>
<svg width="762px" height="120px" viewBox="0 0 762 120" version="1.1" xmlns="http://www.w3.org/2000/svg" xmlns:xlink="http://www.w3.org/1999/xlink">
    <!-- Generator: Sketch 61.2 (89653) - https://sketch.com -->
    <title>minecraft</title>
    <desc>Created with Sketch.</desc>
    <g id="Page-1" stroke="none" stroke-width="1" fill="none" fill-rule="evenodd">
        <g id="minecraft" fill="#0FD895" fill-rule="nonzero">
            <path d="M28.125,1.375 L56.417,1.417 L57.083,3.333 L56.167,9 L53.167,12.583 L53.25,19.333 L49.25,19.417 L42.167,20.5 L54.333,20.667 L58.417,18.583 L59.5,18.667 L61.917,21.167 L61.833,24.833 L59.333,28.167 L59.25,34.917 L77.75,34.917 L78.167,33.417 L78.75,32.583 L80.75,31.833 L81.5,26.417 L85.917,18.417 L100.5,18.417 L100.5,32.333 L98,33.833 L88.833,35.75 L80.583,35.667 L79.583,34.333 L79.25,35.167 L79.167,37.5 L96.75,37.167 L107.333,37.75 L109.083,40.917 L119.083,40.667 L120.833,42.5 L120.917,43.417 L110.083,87.667 L109.583,88.083 L108.06,88.243 L109.167,97.25 L119.834,108.167 L119.834,110.584 L117.417,110.834 L116,111.167 L115.5,113.667 L111.417,113.75 L109.667,115.417 L110.167,116.25 L112.084,115.75 L116.751,116.75 L119.418,116.75 L125.918,116.167 L125.418,119.25 L98.5,119.25 L90.333,110.167 L83.75,101.5 L78.5,95.917 L77.917,91.584 L79.334,91.584 L79.084,89.917 L76.793,88.117 L76.614,88.096 L75.834,88.167 L75,95.417 L78.5,99.167 L75.5,99.834 C75.5,99.834 72.583,100.001 72.25,99.834 C71.917,99.667 69.583,98.667 69.583,98.667 L63,92.583 L58.917,88.75 L62.334,88.167 L66.5,88.5 L68.417,88.5 L68.334,87.583 L63.5,85.25 L57.75,85.75 L55.583,85.333 L47,74.083 L68.083,73.083 L76.11,82.859 L76.083,82.5 L83.833,55.083 L81.083,53.25 L76.75,54.5 L75.917,54.583 L71.417,68.833 L69.75,71.417 L59,73.333 L47.833,71.583 L47.667,67.833 L50.583,54.833 L46.583,53 L42.917,54.417 L36.417,66.167 L31.5,69.167 L22.333,68.667 L21.417,61.75 L21.167,69.917 L36.667,71.583 L36.5,76.833 L23.25,77.083 L20.083,75.917 L17.667,71.75 L18,78.333 L33.917,79.583 L33.583,85.917 L30.833,88.25 L17.457,89.375 L29.29,89.375 L41.957,105.083 L37.624,105.166 L35.332,104.833 L34.415,107.708 L32.915,107.791 L30.457,108.833 C30.457,108.833 30.665,109.208 30.79,109.25 C30.9071875,109.289375 32.2697852,109.364785 32.4396521,109.374058 L32.457,109.375 L35.624,110.458 L39.812,107.687 L41.812,108.125 L43.75,108 L53.25,119.5 L25.25,119.75 L0.5,91 L0.5,89.375 L11.3,89.375 L0.083,88.167 L0.417,83.417 L11.083,52.25 L14.25,49 L22.083,48.917 L22.583,59.083 L24.25,48.5 L22.583,46.417 L16.333,45.25 L14.083,43.5 L19.417,24.167 L22.333,21.417 L30.667,21.417 L36.583,19.333 L44,18 L38.625,16.625 L33.625,16.75 L29.25,18.625 L24,17.75 L22.25,15.875 L22.25,14.75 L24.25,11.75 L28.125,1.375 Z M428.5,0.625 L428.125,5.75 L425.75,7.25 L425.25,16.375 L423.125,18.25 L421.125,17.5 L391.125,18 L389,18.25 L386.625,20.25 L386.375,31.375 L384.125,32.375 L380.875,29.5 L379.375,29.375 L377.125,29 L366.875,30.625 L361.75,30.375 L368.75,32.25 L380.625,32 L386.875,37.75 L386.25,51.125 L383.5,68.5 L386.125,71.25 L426.25,71 L429,73.875 L429,88.125 L410.25,88.375 L408.25,87 L408.625,81.375 L407.125,79.5 L407.125,81.5 L405.125,87 L405.875,88 L404,89 L382.125,88.25 L380.625,87.25 L379,86.25 L377.125,83.75 L375.875,85.75 L371.896,85.989 L373.583,91.25 L371.917,98.083 L369.583,99.833 L369.75,103 L371.833,105.917 L371.583,102.333 L373.75,99.833 L374.917,97.417 L376.167,95.917 L379.083,94.917 L380.417,92.333 L382.417,90.25 L383.583,90 L404.667,90.667 L406.167,93.5 L407.25,98.75 L409.417,94.75 L411,93.917 L412.083,91.167 L418.417,89.917 L425.25,90.75 L428.75,91.333 L425.417,119.25 L404.083,118.833 L403.25,114.583 L405.833,110.417 L405.833,107.667 L406.667,98.083 L405.417,96.167 L405,96.167 L404.333,99.333 L402.833,102.25 L402.667,109.167 L401.167,111.417 L400.583,114.667 L399.833,119.417 L355.667,119.083 L355.167,115.5 L357,113.583 L361.833,113 L365.75,113.833 L368.25,114.083 L366.5,111.167 L357.75,111 L355.583,107.833 L352.917,107.083 L353.5,88.5 L354.57,88.277 L353.125,88 L352.875,52 L356.125,47.75 L360.5,47.25 L358.625,46.625 L352.625,46.75 L353,4.125 L355.375,0.625 L428.5,0.625 Z M133.75,89.167 L142.667,99.333 L142.5,93.917 L143.583,89.5 L153.417,89.5 L161.75,107.917 L165.75,116 L167.75,119.167 L140.167,118.917 L136.75,114.667 L133.833,111 L132.25,107.417 L131,104.25 L127.333,99.917 L120.167,91.25 L133.75,89.167 Z M177.667,89.667 L181.417,96.167 L187.167,99.333 L184.083,95.25 L184.917,90.667 L186.167,90.583 L199.083,90.917 L209.583,119.167 L179.75,119.167 L174,110.25 L169.583,101.083 L167.333,96.25 L162.75,90.917 L177.667,89.667 Z M273.333,89.833 L279.917,91.333 L284.833,97.167 L284.917,103.25 L285.75,105 L287.667,106 L286.917,102.667 L288.5,95.25 L285.833,93.833 L286.333,91.083 L289.917,90.667 L319.083,90.75 L319.333,94.25 L320.917,96.583 L320.75,94.417 L321.917,91.333 L324.333,90.583 L340.167,90 L341.667,91.083 L341.583,100.333 L340.25,102.333 L337.5,102.5 L335.25,104.75 L327.833,105.583 L326,106.917 L325.833,108.083 L326.75,108.25 L333.167,107.083 L337.167,106.917 L341.167,108.333 L341.167,118.5 L272.5,118.917 L269,108.75 L264.25,90.833 L273.333,89.833 Z M240.417,90.167 L240.583,94.583 L243.417,96 L243.917,100.833 L248.583,104.333 L245.083,99.5 L246.417,95.667 L244,93.5 L243.667,91.167 L244.583,90.5 L251.5,90.667 L260.75,111 L259.833,118.917 L232.167,118.417 L229.083,111.917 L229.333,111 L230.5,110.833 L235.083,112.083 L238.083,111.167 L240.75,111 L241,110.333 L235.333,110 L233.833,108.25 L232.333,107.75 L227.833,107.75 L225.25,105.083 L222,98.917 L218.917,90.583 L240.417,90.167 Z M648.833,87.833 L649.75,90.167 L649.667,91.083 L629.75,118 L605.583,117.583 L605,116.167 L607.917,110.333 L609.083,108.417 L611,107.5 L613.667,106.5 L617.083,106.917 L624.083,106 L626.417,105.917 L628.583,107 L629.667,107.167 L629.667,106.417 L627.665,104.333 L619.665,104.083 L619.332,102.167 L618.332,100.833 L614.332,100.667 L613.415,98.917 L617.415,90.667 L618.915,89.167 L648.833,87.833 Z M486,88 L497.583,89.25 L498.833,94.333 L500.583,95.25 L501.833,97.583 L503.083,91.75 L503.333,89.5 L515.5,89.25 L517.75,89.583 L514.583,97.667 L511.25,102.333 L508,104.667 L506.417,105.667 L503.917,105.75 L505.75,107.333 L506.75,107.583 L509.667,106.75 L509.833,111.333 L506,117.917 L478.417,117.5 L483.583,89.833 L486,88 Z M437.167,109 L441.417,109.416 L442.333,111.916 L444,112.749 C444,112.749 445.667,112.999 446,112.999 C446.326062,112.999 455.28199,112.200347 455.655012,112.16707 L455.667,112.166 L456.917,112.833 L467.917,111.916 L463.917,117.583 L437.083,117.75 L437.167,109 Z M528.5,88.167 L545.083,89.25 L547.583,92.667 L549.833,95 L549.667,93.333 L550.833,89.167 L560.167,89.083 L563.083,90 L558.667,100.417 L546.667,101.25 L543.583,102.583 L541.583,102.083 L541.5,102.917 L543.167,103.667 L547.167,103.833 L552.083,106.417 L551.417,114.417 L547.083,117.667 L521.25,117.5 L521,114.333 L523.917,99.25 L528.5,88.167 Z M573.083,88 L601.333,88.333 L604.083,88.833 L604,92.417 L589.917,117.583 L560.083,117.583 L560,113.917 L573.083,88 Z M756.083,0.417 L756.833,3.667 L759.25,5.333 L759,14.167 L756.833,16.167 L755.333,16 L742.083,16.5 L740.167,15.167 L738.583,11.583 L736.417,8.583 L736.167,1.667 L734.917,1.167 L735.583,2.25 L734.083,11 L737,13 L737,18.083 L738.833,20.083 L761.667,86.417 L758.672,87.218 L759.416,88.833 L761.583,90.167 L733.833,117.583 L707.999,117.5 L707.916,116.25 L709.166,115 L710.166,113.167 L711.583,111.167 L713.166,109.833 L714.833,108 L714.499,106.5 L713.166,102.833 L712.083,101.917 L710.833,101.167 L709.583,95.333 L708.499,94.667 L707.499,93.417 L710.249,93.833 L710.916,94.75 L711.499,99.5 L713.499,100.917 L714.416,103.083 L715.333,106.25 L716.333,107.083 L723.499,107.167 L727.499,105 L729.249,105.833 L730.249,105.917 L730.416,105 L728.583,103.25 L727.166,102.917 L723.583,103.583 L722.083,103.25 L720.499,101.083 L719.666,99.167 L720.083,98 L727.249,86.75 L728.333,86.25 L728.346,86.164 L727.417,85.583 L723.417,68.083 L726.75,65.084 L729.491,64.34 L727.999,64.166 L724.666,64.333 L717.749,67.083 L716.583,73.5 L713.249,76.25 L712.749,81 L709.833,81 L712.166,80.416 L711.666,74.75 L714.249,72.333 L714.916,65 L715.999,64.916 L716.499,63.833 L717.416,59.25 L720.01,59.179 L719.834,58.917 L707.417,17.75 L707.584,11 L708,9 L705.5,11.25 L705.334,11.833 L706,13 L706,14.583 L705,15.417 L687.75,15.917 L683.667,8.333 L683.584,0.5 L756.083,0.417 Z M123.312,104.313 C123.312,104.313 125.624,106.75 125.874,107.125 C126.115935,107.487903 125.889609,111.948101 125.874755,112.235478 L125.874,112.25 L123.062,113.312 L124.25,108.813 L123.312,104.313 Z M453.375,0 L505.875,0.125 L509.375,7.625 L509.5,17.25 L509.875,19.5 L511,22.625 L512.375,25.125 L512.5,33.375 L505.125,33.75 L503.625,34.5 L502,35.75 L501.125,39 L493.5,39.25 L491,41.25 L495.125,41 L498,42 L512.5,42 L512.75,47.875 L514.875,52.125 L515.375,76.375 L518.5,81.5 L518.125,86.5 L507.25,88.375 L501.25,86.625 L501,84.75 L499.75,83.375 L499.375,86.375 L490.375,87.375 L485.125,86.5 L484.375,81.25 L481.5,75.75 L481.75,62.5 L482.875,61.25 L504.125,58.75 L499.25,58.625 L493.625,58.125 L487.75,58.75 L481.75,59 L481.75,56.375 L479.375,53.625 L474.25,52.75 L471.75,53.5 L470.5,53.5 L470.625,62.375 L471.75,66.875 L469.875,67 L466.375,66 L455.5,67.625 L452.375,69.875 L463.875,69 L473.25,70.375 L473.25,86.5 L464.048,87.899 L469.833,89.167 L472.917,89.833 L470,94.75 L469.833,101.833 L467.083,108 L454.667,109.75 L450.25,109.417 L445.583,108.417 L444.917,107.417 L444.75,106 L437,106.917 L437.083,94.167 L438.833,91.75 L440,88.833 L441.393,86.918 L440.875,87.125 L439.375,86.375 L439.625,56.75 L436.75,50.125 L436.75,33.625 L438.5,29.875 L442.25,27.75 L448.25,27.625 L452.375,25.5 L450.375,25.625 L446.5,25.125 L442.375,25.5 L436.625,25.25 L436.625,0.125 L449.875,0.25 L451.625,2.75 L453.875,4.5 L454.75,18.75 L454.5,23.625 L453.5,30.375 L454.125,35.625 L456,37.75 L458.25,39.5 L464.25,37.5 L469.125,40.125 L465.125,35.5 L457.75,36.625 L455,35.5 L455.75,31.625 L456.125,24.75 L455.375,4.25 L453.375,2.625 L453.375,0 Z M46.625,95.875 L46.375,97.875 L46.75,102.375 L44.75,104.25 L45.844,101.969 L44.75,97.625 L46.625,95.875 Z M606,95.25 L607.75,98.417 L610.75,99.583 L608.333,103.333 L608.25,101.5 L605.083,100.417 L606,95.25 Z M344.25,1.5 L344.125,15.375 L341.625,18.5 L340.875,18.5 L321.25,17.25 L302.5,18.5 L302,25.5 L299.5,34.375 L318,35 L319.25,37.125 L319.25,43.875 L321.125,46.25 L320.625,44.875 L320.75,42.125 L322.375,37 L324.875,35.5 L341.75,35.5 L341.625,51.875 L338.75,54.5 L335.75,54.5 L321.25,52.125 L320.25,50.375 L319.875,52 L311.25,53 L302.25,54.5 L299.875,54.75 L299.375,61.125 L297.25,71.25 L334.375,71.125 L335.125,71.875 L334.75,74.25 L324.5,74.625 L323.25,76.375 L327.625,75.875 L335.875,76.25 L338.25,71.875 L341.625,71.75 L341.5,88.125 L323,88.625 L321.5,86.5 L321.625,78 L319.875,84.875 L319.375,88 L310.125,89.5 L286,88 L281.5,79.75 L282.5,66.875 L279.875,65.375 L270.125,66.375 L265.625,65.375 L269.125,26.875 L279.5,25.875 L290.625,24.25 L283.125,23.125 L281.75,23.125 L277.125,24.875 L271.625,23.375 L271,20.875 L271.5,3.75 L274.25,1.75 L344.25,1.5 Z M260.375,1.5 L260.5,23.75 L257.5,52.75 L252.625,88 L247.375,89.125 L243.75,88 L243.75,85.25 L241.875,80.125 L242.25,86 L241.25,88.25 L229.75,89 L218.75,88.125 L218.625,84.125 L220.625,81.875 L221.125,69.125 L223.5,66.5 L226.75,66.5 L231,69 L237.375,67.125 L242.875,69.25 L243.75,70.5 L244.5,81 L246.125,70.625 L243.875,67.375 L243,67.125 L237.25,64.5 L231.75,66.25 L229.5,66.25 L221.25,62.75 L214.125,63.25 L212.875,62.25 L212.5,49.375 L217.75,48.25 L210.625,46.375 L204.75,46.625 L204.375,51.5 L201.625,62.625 L199.5,64.875 L187.75,62.625 L183.5,60.125 L181.625,61.375 L179.25,63 L184.375,63.125 L186.375,65.5 L193.875,66 L197.125,68 L199.75,74.5 L199,86.375 L197.875,88.125 L190.375,88.875 L180,88.125 L174.5,89 L162.375,88.125 L164.625,84 L168,64.375 L169.625,62.5 L171.875,63 L177.75,61.375 L181.875,60.125 L177,60.375 L170.625,60.75 L168.125,59.375 L179.75,4.125 L182.5,1.625 L209.125,1.5 L209.875,2.5 L209.5,15 L208,16.125 L202.375,16.375 L209.75,18.125 L216.875,18.25 L218,19.5 L217.875,30 L215.875,32.625 L215.625,35 L224,34.375 L226.5,31.75 L230,19 L231.25,18.875 L232.5,21.125 L239.25,21.25 L241.5,22.25 L257.75,23 L250.125,19.625 L246,20.75 L243.75,20.875 L242.375,18.125 L235.375,18.25 L229.625,11.75 L229.5,4.625 L232.25,1.625 L260.375,1.5 Z M280.75,68 L280.375,88 L267.25,88.75 L263.5,88 L263.625,70.125 L265.5,68.625 L280.75,68 Z M141.5,1.375 L169.625,2 L170.375,4.25 L168.25,18.75 L165.625,21.125 L159.5,21.25 L154.625,23.625 L160,22.875 L166.125,24.25 L153.25,88 L146,88.5 L141.625,88.125 L139.125,85.625 L138.125,82.375 L137.125,85.375 L136.75,88.125 L121.125,88 L120.125,84.375 L140.25,2.875 L141.5,1.375 Z M518.125,0.625 L591.125,1 L603.375,68.25 L602.375,69.875 L597.875,70.375 L595.5,68.125 L584.5,67.25 L576.875,66.875 L575.875,67.75 L572.75,69.75 L577.875,68.375 L583.375,68.875 L593.125,69.75 L594.5,72.125 L600.125,72.625 L604.5,75.875 L604.875,86.25 L571.25,86.25 L571,67.125 L568.375,62.125 L562.625,60.375 L558.75,61.75 L557.75,64.125 L562.625,86.375 L554.375,87.75 L547.125,86.625 L534.375,87.5 L527.25,86.375 L526.25,64 L518.125,0.625 Z M671.251,0.167 L673.167,1.417 L673.751,4.167 L675.584,7.25 L678.001,10.583 L678.084,16.833 L677.584,16.833 L655.584,14.167 L654.917,13.75 L654.751,9.5 L654.084,8.75 L650.001,8.5 L648.001,6 L647.001,4.667 L645.167,3.833 L644.917,2.083 L644.001,5.167 L646.501,5.667 L649.001,8.667 L649.584,10.417 L651.917,10.5 L652.667,11.167 L652.333,14.333 L642.5,15.333 L637,16.833 L635.833,16.833 L638.833,30.833 L641.5,33.167 L657.833,33.667 L658.667,34.333 L659.667,33.667 L680.333,33.667 L682.833,36.833 L683.167,43.667 L686.333,48 L686,53.333 L661,51.167 L660.833,49.333 L660,46.667 L661,39.667 L659.833,37.333 L660,39.5 L657.333,49.333 L655.167,51.167 L647,53.5 L644.833,54 L650,86.333 L630,87.5 L616.167,86.5 L602.333,19.667 L602.333,0.333 L671.251,0.167 Z M450.25,70.625 L448.625,73.75 L448.375,81.375 L445.323,82.792 L447.73,84.168 L448.25,83.625 L450.875,80.75 L450.25,70.625 Z M747.25,61.584 L745.623,61.685 L746.965,62.767 L747.084,62.75 L750.167,63.834 L747.25,61.584 Z M562.625,25.625 L552.25,26.125 L552.25,31.625 L546.75,32 L546.625,39.625 L548.75,42.125 L549.375,47.125 L554.125,47 L554.875,41 L556.75,41 L568.25,42.75 L569.125,47.875 L574.25,47.625 L574.5,36.5 L571.25,32.875 L571.125,31.25 L565.625,31.125 L562.625,25.625 Z M128.667,1.5 L128.583,8.833 L120.917,33.833 L116.917,37.917 L109.583,37.75 L108.5,35.833 L105.5,35.833 L103.167,34.917 L103.083,18.583 L101,15.417 L95.5,15.25 L95.333,12.167 L97.5,9.167 L98.417,1.667 L128.667,1.5 Z M476.25,17.375 L467.625,17.625 L467.875,22.5 L470.625,25 L470.75,33.375 L478.625,33.625 L478.375,19.125 L476.25,17.375 Z M544.875,15.875 L539.125,16.625 L538.625,20.25 L540.125,25.25 L551.625,25.125 L551.625,19.5 L550.75,17.125 L549,16.875 L544.875,15.875 Z M570.875,15.75 L565,17.25 L564.375,17.25 L563.25,19.875 L563.5,25 L576.25,24.875 L575.375,17.125 L570.875,15.75 Z" id="Combined-Shape"></path>
        </g>
    </g>
</svg>