<?xml version="1.0" encoding="UTF-8"?>
<svg width="800px" height="243px" viewBox="0 0 800 243" version="1.1" xmlns="http://www.w3.org/2000/svg" xmlns:xlink="http://www.w3.org/1999/xlink">
    <!-- Generator: Sketch 53.2 (72643) - https://sketchapp.com -->
    <title>Combined Shape</title>
    <desc>Created with Sketch.</desc>
    <g id="Page-1" stroke="none" stroke-width="1" fill="none" fill-rule="evenodd">
        <g id="nsoft" fill="#FFFFFF" fill-rule="nonzero">
            <path d="M175.963,66.837 C187.04,77.914 192.73,96.304 192.876,121.5 C192.73,146.695 187.04,165.085 175.963,176.162 C164.886,187.238 146.497,192.929 121.301,193.075 C96.105,192.929 77.716,187.238 66.639,176.162 C55.562,165.086 49.871,146.696 49.725,121.5 C49.871,96.304 55.562,77.914 66.639,66.837 C77.715,55.76 96.105,50.07 121.301,49.924 C146.497,50.07 164.886,55.76 175.963,66.837 Z M193.729,190.639 C200.58,193.348 206.297,196.925 210.783,201.41 C212.793,203.419 214.616,205.682 216.267,208.175 C214.991,209.641 213.669,211.079 212.275,212.473 C188.472,236.276 153.725,242.634 121.301,242.8 C88.877,242.634 54.13,236.276 30.327,212.473 C28.933,211.079 27.611,209.641 26.335,208.175 C27.985,205.682 29.808,203.42 31.818,201.41 C36.303,196.925 42.02,193.347 48.871,190.639 C49.4,191.207 49.902,191.791 50.455,192.344 C68.992,210.881 96.05,215.832 121.3,215.961 C146.55,215.831 173.608,210.881 192.145,192.344 C192.698,191.791 193.2,191.207 193.729,190.639 Z M212.274,30.526 C236.078,54.329 242.435,89.076 242.601,121.5 C242.485,144.013 239.368,167.639 229.515,187.952 C228.691,187.029 227.851,186.115 226.965,185.229 C220.937,179.201 213.99,174.647 206.514,171.194 C213.432,155.848 215.677,138.281 215.763,121.501 C215.633,96.251 210.682,69.193 192.146,50.656 C173.61,32.12 146.55,27.169 121.301,27.039 C96.052,27.169 68.992,32.12 50.456,50.656 C31.919,69.193 26.969,96.252 26.839,121.501 C26.926,138.281 29.17,155.848 36.088,171.194 C28.612,174.647 21.665,179.201 15.637,185.229 C14.751,186.114 13.91,187.028 13.086,187.952 C3.233,167.639 0.116,144.013 0,121.5 C0.167,89.076 6.524,54.33 30.327,30.526 C54.129,6.724 88.878,0.366 121.3,0.199 C153.723,0.366 188.472,6.724 212.274,30.526 Z M314.177,78.188 C319.34,76.715 326.05,75.312 334.313,73.984 C342.571,72.656 351.717,71.993 361.748,71.993 C371.187,71.993 379.08,73.286 385.424,75.865 C391.763,78.448 396.818,82.06 400.58,86.706 C404.341,91.353 406.996,96.96 408.545,103.522 C410.094,110.087 410.868,117.278 410.868,125.095 L410.868,193.075 L384.097,193.075 L384.097,129.298 C384.097,123.103 383.688,117.83 382.88,113.479 C382.067,109.13 380.74,105.59 378.897,102.858 C377.05,100.131 374.544,98.14 371.374,96.884 C368.2,95.632 364.328,95.003 359.756,95.003 C356.363,95.003 352.823,95.224 349.136,95.667 C345.447,96.109 342.72,96.48 340.95,96.773 L340.95,193.075 C326.163,193.075 314.176,181.088 314.176,166.301 L314.176,78.188 L314.177,78.188 Z M519.484,141.428 C521.239,145.273 522.127,149.962 522.128,155.364 C522.128,161.935 520.692,167.674 517.86,172.423 C515.067,177.102 511.402,180.975 506.965,183.935 C502.582,186.855 497.537,188.99 491.97,190.28 C486.501,191.547 480.922,192.189 475.387,192.189 C466.038,192.189 457.697,190.732 450.595,187.858 C443.349,184.927 436.822,179.526 431.195,171.805 L429.828,169.929 L431.62,168.453 L447.302,155.538 L449.029,154.116 L450.61,155.699 C453.838,158.932 457.495,161.842 461.48,164.35 C465.208,166.701 469.887,167.892 475.388,167.892 C477.837,167.892 480.35,167.637 482.861,167.132 C485.288,166.648 487.452,165.883 489.298,164.858 C491.075,163.871 492.479,162.662 493.586,161.166 C494.581,159.817 495.066,158.296 495.066,156.517 C495.066,154.084 494.347,152.153 492.87,150.616 C491.18,148.863 489.123,147.459 486.754,146.443 C484.212,145.353 481.481,144.468 478.637,143.812 C475.663,143.125 473.011,142.548 470.66,142.076 C466.166,140.995 461.821,139.731 457.746,138.32 C453.523,136.859 449.727,134.876 446.467,132.428 C443.108,129.91 440.387,126.682 438.379,122.833 C436.358,118.958 435.332,114.152 435.332,108.549 C435.332,102.46 436.641,97.049 439.224,92.464 C441.78,87.934 445.206,84.134 449.405,81.17 C453.543,78.25 458.3,76.033 463.545,74.581 C468.725,73.145 474.029,72.417 479.307,72.417 C486.972,72.417 494.425,73.875 501.457,76.751 C508.679,79.707 514.501,84.693 518.76,91.571 L519.941,93.477 L518.153,94.831 L502.01,107.053 L500.099,108.5 L498.601,106.629 C496.345,103.81 493.513,101.411 490.187,99.5 C486.968,97.651 482.919,96.713 478.154,96.713 C473.691,96.713 469.798,97.65 466.58,99.5 C463.726,101.138 462.397,103.354 462.397,106.473 C462.397,109.029 463.168,111.013 464.756,112.54 C466.612,114.328 468.849,115.794 471.407,116.898 C474.071,118.052 476.96,118.929 480.001,119.506 C483.234,120.125 486.01,120.663 488.417,121.146 C492.952,122.241 497.288,123.594 501.307,125.168 C505.464,126.799 509.117,128.96 512.168,131.594 C515.267,134.277 517.728,137.585 519.484,141.428 Z M602.63,71.531 C627.71,71.531 648.039,91.861 648.039,116.94 L648.039,147.667 C648.039,172.746 627.709,193.076 602.63,193.076 L587.758,193.076 C562.679,193.076 542.349,172.746 542.349,147.667 L542.349,116.94 C542.349,91.861 562.679,71.531 587.758,71.531 L602.63,71.531 Z M620.301,146.694 L620.301,117.912 C620.301,106.387 610.959,97.045 599.434,97.045 L590.954,97.045 C579.429,97.045 570.087,106.387 570.087,117.912 L570.087,146.694 C570.087,158.219 579.428,167.561 590.954,167.561 L599.434,167.561 C610.959,167.561 620.301,158.219 620.301,146.694 Z M723.659,82.601 L723.659,106.526 L698.032,106.526 L698.032,193.076 L671.039,193.076 L671.039,104.063 L671.039,82.602 L671.039,67.557 C671.039,45.21 683.538,27.075 724.069,27.075 L724.069,54.255 C709.191,54.563 698.032,59.899 698.032,69.105 L698.032,82.601 L723.659,82.601 Z M799.59,106.25 L773.963,106.25 L773.963,151.045 C773.963,160.251 785.122,165.587 800,165.895 L800,193.076 C759.469,193.076 746.97,174.941 746.97,152.594 L746.97,134.824 L746.97,110.9 L746.97,27.075 C761.878,27.075 773.962,39.16 773.962,54.068 L773.962,82.327 L799.589,82.327 L799.589,106.25 L799.59,106.25 Z" id="Combined-Shape"></path>
        </g>
    </g>
</svg>