<?xml version="1.0" encoding="UTF-8"?>
<svg width="1031px" height="136px" viewBox="0 0 1031 136" version="1.1" xmlns="http://www.w3.org/2000/svg" xmlns:xlink="http://www.w3.org/1999/xlink">
    <!-- Generator: Sketch 61.2 (89653) - https://sketch.com -->
    <title>NewYorkTimes</title>
    <desc>Created with Sketch.</desc>
    <g id="Page-1" stroke="none" stroke-width="1" fill="none" fill-rule="evenodd">
        <g id="NewYorkTimes" fill="#0FD895" fill-rule="nonzero">
            <path d="M77.2799987,14.24 C77.2799987,3.03999991 66.6399989,0.239999962 58.239999,0.239999962 L58.239999,1.91999993 C63.2799989,1.91999993 67.1999989,3.5999999 67.1999989,7.51999984 C67.1999989,9.7599998 65.5199989,13.1199997 60.479999,13.1199997 C56.559999,13.1199997 48.1599992,10.8799998 42,8.63999982 C34.7199994,5.83999987 28,3.5999999 22.3999996,3.5999999 C11.1999998,3.5999999 3.35999994,11.9999998 3.35999994,21.5199996 C3.35999994,29.9199995 9.51999984,32.7199994 11.7599998,33.8399994 L12.3199998,32.7199994 C11.1999998,31.5999994 9.51999984,30.4799994 9.51999984,27.1199995 C9.51999984,24.8799995 11.7599998,20.9599996 17.3599997,20.9599996 C22.3999996,20.9599996 29.1199995,23.1999996 38.0799994,25.9999995 C45.9199992,28.24 54.3199991,29.9199995 58.799999,30.4799994 L58.799999,47.8399992 L50.3999991,55.119999 L50.3999991,55.679999 L58.799999,62.9599989 L58.799999,87.0399985 C54.3199991,89.8399984 49.2799992,90.3999984 44.7999992,90.3999984 C36.3999994,90.3999984 29.1199995,88.1599985 22.9599996,81.4399986 L45.9199992,70.24 L45.9199992,31.5999994 L17.9199997,43.9199992 C20.1599997,36.6399993 26.3199996,31.5999994 32.4799994,28.24 L31.9199995,26.5599995 C15.1199997,31.0399994 0,46.7199992 0,65.7599988 C0,88.1599985 18.4799997,104.959998 39.1999993,104.959998 C61.599999,104.959998 76.1599987,87.0399985 76.1599987,68.5599988 L75.0399987,68.5599988 C71.6799988,75.8399987 66.6399989,82.5599986 60.479999,85.9199985 L60.479999,62.9599989 L69.4399988,55.679999 L69.4399988,55.119999 L60.479999,47.8399992 L60.479999,30.4799994 C68.8799988,30.4799994 77.2799987,24.8799995 77.2799987,14.24 Z M28.5599995,75.8399987 L21.8399996,79.1999986 C17.9199997,74.1599987 15.6799997,67.4399988 15.6799997,57.919999 C15.6799997,53.999999 15.6799997,49.5199991 16.7999997,46.1599992 L28.5599995,41.1199993 L28.5599995,75.8399987 L28.5599995,75.8399987 Z M87.9199985,88.7199985 L80.6399986,94.3199984 L81.7599986,95.4399983 L85.1199986,92.6399984 L97.4399983,103.839998 L114.239998,92.6399984 L113.679998,91.5199984 L109.199998,94.3199984 L103.599998,88.7199985 L103.599998,50.6399991 L108.079998,47.2799992 L117.599998,55.119999 L117.599998,89.2799984 C117.599998,110.559998 113.119998,113.919998 103.599998,117.279998 L103.599998,118.959998 C119.279998,119.519998 133.839998,114.48 133.839998,87.0399985 L133.839998,50.0799991 L138.879998,46.1599992 L137.759998,45.0399992 L133.279998,48.3999991 L119.279998,36.6399993 L103.599998,48.3999991 L103.599998,2.47999992 L102.479998,2.47999992 L82.8799986,15.9199997 L82.8799986,17.0399997 C85.1199986,18.1599997 88.4799985,19.2799996 88.4799985,25.4399995 L87.9199985,88.7199985 L87.9199985,88.7199985 Z M190.399997,82.5599986 L176.399997,93.1999984 L162.399997,81.9999986 L162.399997,75.2799987 L188.719997,57.359999 L188.719997,56.799999 L175.279997,36.6399993 L146.159998,52.3199991 L146.159998,89.2799984 L140.559998,93.7599984 L141.679998,94.8799984 L146.719998,90.9599984 L165.759997,104.959998 L190.959997,84.7999985 L190.399997,82.5599986 L190.399997,82.5599986 Z M162.399997,73.0399992 L162.399997,45.5999992 L163.519997,45.0399992 L175.839997,64.6399989 L162.399997,73.0399992 Z M297.359995,9.19999981 C297.359995,7.51999984 296.799995,5.83999987 296.239995,4.1599999 L295.119995,4.1599999 C293.439996,8.63999982 291.199995,10.8799998 285.599995,10.8799998 C280.559995,10.8799998 277.199995,8.07999983 274.959995,5.83999987 L258.719996,24.3199996 L259.839996,25.4399995 L265.439996,20.3999996 C268.799995,23.1999996 271.599995,25.4399995 279.439996,25.9999995 L279.439996,72.4799987 L246.399996,15.9199997 C243.599996,11.4399998 239.679996,5.27999988 231.839996,5.27999988 C222.879996,5.27999988 215.039996,13.1199997 216.159996,25.4399995 L217.839996,25.4399995 C218.399996,22.0799996 220.079996,18.1599999 223.999996,18.1599999 C226.799996,18.1599999 229.599996,20.9599996 231.279996,23.7599996 L231.279996,42.2399992 C221.199996,42.2399992 214.479996,46.7199992 214.479996,55.119999 C214.479996,59.599999 216.719996,66.3199988 223.439996,67.9999988 L223.439996,66.8799988 C222.319996,65.7599988 221.759996,64.6399989 221.759996,62.9599989 C221.759996,60.1599999 223.999996,57.919999 227.919996,57.919999 L230.719996,57.919999 L230.719996,81.4399986 C218.959996,81.4399986 209.439996,88.1599999 209.439996,99.3599983 C209.439996,109.999998 218.399996,115.039998 228.479996,114.479998 L228.479996,113.359998 C222.319996,112.799998 219.519996,109.999998 219.519996,106.079998 C219.519996,101.039998 222.879996,98.7999983 227.359996,98.7999983 C231.839996,98.7999983 235.759996,101.599998 238.559996,104.959998 L254.799996,87.0399985 L253.679996,85.9199985 L249.759996,90.3999984 C243.599996,84.7999985 240.239996,83.1199986 232.959996,81.9999986 L232.959996,25.9999995 L277.759995,104.399998 L281.119995,104.399998 L281.119995,25.9999995 C289.519995,25.4399995 297.359995,18.7199996 297.359995,9.19999981 L297.359995,9.19999981 Z M338.239994,82.5599986 L324.239994,93.1999984 L310.239995,81.9999986 L310.239995,75.2799987 L336.559994,57.359999 L336.559994,56.799999 L323.119994,36.6399993 L293.999995,52.3199991 L293.999995,89.2799984 L288.399995,93.7599984 L289.519995,94.8799984 L294.559995,90.9599984 L313.599995,104.959998 L338.799994,84.7999985 L338.239994,82.5599986 L338.239994,82.5599986 Z M310.239995,73.0399992 L310.239995,45.5999992 L311.359995,45.0399992 L323.679994,64.6399989 L310.239995,73.0399992 L310.239995,73.0399992 Z M429.519993,42.7999992 L425.599993,45.5999992 L414.959993,36.6399993 L402.639993,47.8399992 L407.679993,52.8799991 L407.679993,94.8799984 L394.239993,86.4799985 L394.239993,51.7599996 L398.719993,48.9599991 L385.839993,36.6399993 L373.519994,47.8399992 L378.559994,52.8799991 L378.559994,93.1999984 L376.879994,94.3199984 L365.119994,85.9199985 L365.119994,52.3199991 C365.119994,44.4799992 361.199994,42.2399992 356.719994,39.4399993 C352.799994,36.6399993 350.559994,34.9599994 350.559994,31.0399994 C350.559994,27.6799995 353.919994,25.9999995 355.599994,24.8799995 L355.599994,23.7599996 C351.119994,23.7599996 339.359994,28.2399995 339.359994,38.8799993 C339.359994,44.4799992 342.159994,46.7199992 344.959994,49.5199991 C347.759994,52.3199991 350.559994,54.559999 350.559994,59.599999 L350.559994,92.0799984 L344.399994,96.5599983 L345.519994,97.6799983 L351.119994,93.1999984 L363.999994,104.399998 L377.999994,94.8799984 L393.679993,104.399998 L423.359994,87.0399985 L423.359994,49.5199991 L430.639993,43.9199992 L429.519993,42.7999992 L429.519993,42.7999992 Z M533.679991,11.9999998 L528.079991,17.0399997 L515.759991,5.83999987 L497.279992,19.2799996 L497.279992,6.95999985 L495.599992,6.95999985 L496.159992,97.6799983 C494.479992,97.6799983 489.439992,96.5599983 485.519992,95.4399983 L484.399992,19.8399999 C484.399992,14.2399997 480.479992,6.39999986 470.399992,6.39999986 C460.319992,6.39999986 453.599992,14.2399997 453.599992,22.0799996 L455.279992,22.0799996 C455.839992,18.7199996 457.519992,15.9199997 460.879992,15.9199997 C464.239992,15.9199997 467.039992,18.1599997 467.039992,25.4399995 L467.039992,47.2799992 C456.959992,47.8399999 450.799992,53.4399991 450.799992,60.7199989 C450.799992,65.1999989 453.039992,71.9199987 459.759992,71.9199987 L459.759992,70.7999988 C457.519992,69.6799988 456.959992,67.9999988 456.959992,66.8799988 C456.959992,63.5199989 459.759992,62.3999989 464.239992,62.3999989 L466.479992,62.3999989 L466.479992,97.1199983 C458.079992,99.9199983 454.719992,106.079998 454.719992,112.799998 C454.719992,122.319998 461.999992,129.039998 473.199992,129.039998 C481.039992,129.039998 487.759992,127.919998 494.479992,126.239998 C500.079991,125.119998 507.359991,123.439998 510.719991,123.439998 C515.199991,123.439998 516.879991,125.679998 516.879991,128.479998 C516.879991,132.399998 515.199991,134.079998 512.959991,134.639998 L512.959991,135.759998 C521.919991,134.079998 527.519991,128.479998 527.519991,120.079998 C527.519991,111.679998 519.119991,106.639998 510.159991,106.639998 C505.679991,106.639998 496.159992,108.319998 489.439992,109.439998 C481.599992,111.119998 473.759992,112.239998 471.519992,112.239998 C467.599992,112.239998 463.119992,110.559998 463.119992,104.959998 C463.119992,100.479998 467.039992,96.5599983 476.559992,96.5599983 C481.599992,96.5599983 487.759992,97.1199983 493.919992,98.7999983 C500.639991,100.479998 506.799992,102.159998 512.399991,102.159998 C520.799992,102.159998 528.079991,99.3599983 528.079991,87.5999985 L528.079991,18.7199996 L534.799992,13.1199997 L533.679991,11.9999998 L533.679991,11.9999998 Z M510.719991,46.1599992 C509.039991,47.8399992 506.799991,49.5199991 503.999991,49.5199991 C501.199991,49.5199991 498.399992,47.8399992 497.279992,46.1599992 L497.279992,21.5199996 L502.879991,17.5999997 L510.719991,24.8799995 L510.719991,46.1599992 Z M510.719991,62.9599989 C509.599991,61.8399989 506.799991,60.1599989 503.999991,60.1599989 C501.199991,60.1599989 498.399992,61.8399989 497.279992,62.9599989 L497.279992,48.3999991 C498.399992,49.5199991 501.199991,51.1999991 503.999991,51.1999991 C506.799991,51.1999991 509.599991,49.5199991 510.719991,48.3999991 L510.719991,62.9599989 Z M510.719991,89.2799984 C510.719991,93.7599984 507.919991,98.2399983 501.759991,98.2399983 L497.279992,98.2399983 L497.279992,65.1999989 C498.399992,64.0799989 501.199991,62.3999989 503.999991,62.3999989 C506.799991,62.3999989 509.039991,64.0799989 510.719991,65.1999989 L510.719991,89.2799984 L510.719991,89.2799984 Z M587.43999,49.5199991 L569.51999,36.6399993 L542.079991,52.3199991 L542.079991,88.7199985 L536.479991,93.1999984 L537.039991,94.3199984 L541.519991,90.9599984 L559.43999,104.399998 L587.43999,87.5999985 L587.43999,49.5199991 L587.43999,49.5199991 Z M557.199991,84.7999985 L557.199991,44.4799992 L571.199991,54.559999 L571.199991,94.3199984 L557.199991,84.7999985 L557.199991,84.7999985 Z M640.639989,37.7599993 L639.519989,37.7599993 C637.839989,38.8799993 636.159989,39.9999993 634.479989,39.9999993 C632.239989,39.9999993 629.439989,38.8799993 628.319989,37.1999993 L627.199989,37.1999993 L617.679989,47.8399992 L608.15999,37.1999993 L591.35999,48.3999991 L591.91999,49.5199991 L596.39999,46.7199992 L601.99999,52.8799991 L601.99999,88.1599985 L594.71999,93.7599984 L595.83999,94.8799984 L599.19999,92.0799984 L612.63999,103.279998 L629.999989,91.5199984 L629.439989,90.3999984 L624.399989,93.1999993 L617.679989,87.5999985 L617.679989,48.3999991 C620.479989,51.1999993 623.839989,53.999999 627.759989,53.999999 C635.599989,54.559999 640.079989,46.7199992 640.639989,37.7599993 L640.639989,37.7599993 Z M707.839988,91.5199984 L688.799988,104.399998 L663.039989,65.1999989 L681.519988,36.6399993 L682.639988,36.6399993 C684.879988,38.8799993 688.239988,41.1199993 692.159988,41.1199993 C696.079988,41.1199993 698.879988,38.8799993 700.559988,36.6399993 L701.679988,36.6399993 C701.119988,47.8399992 693.279988,54.559999 687.679988,54.559999 C682.079988,54.559999 679.279988,51.7599991 675.919988,50.0799991 L674.239989,52.8799991 L702.239988,94.3199984 L707.839988,90.9599984 L707.839988,91.5199984 L707.839988,91.5199984 Z M646.239989,88.7199985 L638.959989,94.3199984 L640.079989,95.4399983 L643.439989,92.6399984 L655.759989,103.839998 L672.559989,92.6399984 L671.439989,91.5199984 L666.959989,94.3199984 L661.359989,88.7199985 L661.359989,2.47999992 L660.799989,2.47999992 L640.639989,15.9199997 L640.639989,17.0399997 C642.879989,18.1599997 646.239989,18.7199996 646.239989,25.4399995 L646.239989,88.7199985 L646.239989,88.7199985 Z M800.799986,14.24 C800.799986,3.03999991 790.159987,0.239999962 781.759987,0.239999962 L781.759987,1.91999993 C786.799987,1.91999993 790.719987,3.5999999 790.719987,7.51999984 C790.719987,9.7599998 789.039987,13.1199997 783.999987,13.1199997 C780.079987,13.1199997 771.679987,10.8799998 765.519987,8.63999982 C758.239987,6.39999986 751.519987,4.1599999 745.919987,4.1599999 C734.719987,4.1599999 726.879988,12.5599998 726.879988,22.0799996 C726.879988,30.4799994 733.039988,33.2799994 735.279987,34.3999994 L735.839987,33.2799994 C734.159987,32.1599994 732.479988,31.0399994 732.479988,27.6799995 C732.479988,25.4399995 734.719987,21.5199996 740.319987,21.5199996 C745.359987,21.5199996 752.079987,23.7599996 761.039987,26.5599995 C768.879987,28.7999995 777.279987,30.4799994 781.759987,31.0399994 L781.759987,48.3999991 L773.359987,55.679999 L773.359987,56.24 L781.759987,63.5199989 L781.759987,87.5999985 C777.279987,90.3999984 772.239987,90.9599984 767.759987,90.9599984 C759.359987,90.9599984 752.079987,88.7199985 745.919987,81.9999986 L768.879987,70.7999988 L768.879987,31.5999994 L740.879987,43.9199992 C743.679987,36.6399993 749.839987,31.5999994 755.439987,27.6799995 L754.879987,26.5599995 C738.079987,31.0399994 722.959988,46.1599992 722.959988,65.1999989 C722.959988,87.5999985 741.439987,104.399998 762.159987,104.399998 C784.559987,104.399998 799.119986,86.4799985 799.119986,67.9999988 L797.999986,67.9999988 C794.639986,75.2799987 789.599987,81.9999986 783.439987,85.3599985 L783.439987,62.3999989 L792.399987,55.119999 L792.399987,54.559999 L783.999987,47.2799992 L783.999987,30.4799994 C792.399987,30.4799994 800.799986,24.8799995 800.799986,14.24 Z M752.079987,75.8399987 L745.359987,79.1999986 C741.439987,74.1599987 739.199987,67.4399988 739.199987,57.919999 C739.199987,53.999999 739.759987,49.5199991 740.879987,46.1599992 L752.639987,41.1199993 L752.079987,75.8399987 L752.079987,75.8399987 Z M820.399986,8.63999982 L819.839986,8.63999982 L808.639986,18.1599997 L808.639986,18.7199996 L818.159986,29.3599995 L819.279986,29.3599995 L830.479986,19.8399996 L830.479986,19.2799996 L820.399986,8.63999982 L820.399986,8.63999982 Z M837.199986,91.5199984 L832.719986,94.3199984 L827.119986,88.7199985 L827.119986,50.0799991 L832.719986,46.1599992 L831.599986,45.0399992 L827.679986,48.3999991 L817.599986,36.6399993 L801.359986,47.8399992 L802.479986,49.5199991 L806.399986,46.7199992 L811.439986,52.8799991 L811.439986,89.2799984 L804.159986,94.8799984 L804.719986,95.9999983 L808.639986,93.1999984 L820.959986,104.399998 L837.759986,93.1999984 L837.199986,91.5199984 L837.199986,91.5199984 Z M930.719984,90.9599984 L926.799984,93.7599984 L920.639984,88.1599985 L920.639984,50.0799991 L926.239984,45.5999992 L925.119984,44.4799992 L920.639984,48.3999991 L907.759985,36.6399993 L890.959985,48.3999991 L878.079986,36.6399993 L862.399985,48.3999991 L852.319985,36.6399993 L836.079986,47.8399992 L836.639986,49.5199991 L840.559986,46.7199992 L846.159986,52.8799991 L846.159986,89.2799984 L841.679986,93.7599984 L854.559985,104.399998 L866.879985,93.1999984 L861.839985,88.1599985 L861.839985,50.0799991 L866.879985,46.7199992 L875.279985,54.559999 L875.279985,88.1599985 L870.799985,92.6399993 L883.679985,103.279998 L895.999985,92.0799984 L890.959985,87.0399985 L890.959985,50.0799991 L895.439985,47.2799992 L904.399985,55.119999 L904.399985,88.7199985 L900.479985,92.6399993 L913.359984,104.399998 L930.719984,92.6399993 L930.719984,90.9599984 L930.719984,90.9599984 Z M979.439983,82.5599986 L965.439984,93.1999984 L951.439984,81.9999986 L951.439984,75.2799987 L977.759983,57.359999 L977.759983,56.799999 L964.319984,36.6399993 L935.199984,52.3199991 L935.199984,90.3999984 L954.799984,104.399998 L979.999983,84.2399985 L979.439983,82.5599986 L979.439983,82.5599986 Z M951.439984,73.0399992 L951.439984,45.5999992 L952.559984,45.0399992 L964.879984,64.6399989 L951.439984,73.0399992 L951.439984,73.0399992 Z M1030.39998,67.9999988 L1019.75998,59.599999 C1027.03998,53.4399991 1029.83998,45.0399992 1029.83998,39.4399993 L1029.83998,36.0799994 L1028.71998,36.0799994 C1027.59998,38.8799993 1025.35998,41.6799993 1020.87998,41.6799993 C1016.39998,41.6799993 1013.59998,39.4399993 1010.79998,36.0799994 L985.599983,50.0799994 L985.599983,70.2399988 L995.119983,77.5199986 C985.599983,85.9199985 983.919983,91.5199984 983.919983,95.9999983 C983.919983,101.599998 986.719983,105.519998 991.199983,107.199998 L991.759983,106.079999 C990.639983,104.959998 989.519983,104.399998 989.519983,101.599998 C989.519983,99.9199983 991.759983,97.1199983 996.239983,97.1199983 C1001.83998,97.1199983 1005.19998,101.039998 1006.87998,102.719998 L1030.95998,88.1599985 L1030.95998,67.9999988 L1030.39998,67.9999988 L1030.39998,67.9999988 Z M1024.23998,51.1999991 C1020.31998,57.919999 1011.91998,64.6399989 1006.87998,67.9999988 L1000.71998,62.9599989 L1000.71998,43.3599992 C1002.95998,48.9599991 1009.11998,53.4399991 1015.27998,53.4399991 C1019.19998,53.4399991 1021.43998,52.8799991 1024.23998,51.1999991 L1024.23998,51.1999991 Z M1014.71998,95.9999983 C1011.91998,89.8399984 1005.19998,85.3599985 998.479983,85.3599985 C996.799983,85.3599985 992.319983,85.3599985 987.839983,88.1599985 C990.639983,83.6799985 997.919983,75.8399987 1007.43998,70.2399988 L1014.15998,75.8399987 L1014.71998,95.9999983 L1014.71998,95.9999983 Z" id="Shape"></path>
        </g>
    </g>
</svg>