<?xml version="1.0" encoding="UTF-8"?>
<svg width="855px" height="827px" viewBox="0 0 855 827" version="1.1" xmlns="http://www.w3.org/2000/svg" xmlns:xlink="http://www.w3.org/1999/xlink">
    <title>Combined Shape</title>
    <g id="Page-1" stroke="none" stroke-width="1" fill="none" fill-rule="evenodd">
        <path d="M493.142766,78 C516.247216,84.4126414 536.406987,91.2710215 553.62208,98.5751402 C570.837173,105.879259 587.932304,114.827603 604.907472,125.420173 L576.305201,190.514955 C595.410207,201.399167 610.346831,211.906367 621.115073,222.036556 C631.883315,232.166746 640.62094,243.931019 647.327946,257.329375 L711.972656,230.030001 C722.926693,248.233432 732.517589,266.762542 740.745345,285.617329 C748.973101,304.472117 754.960794,323.259468 758.708422,341.979383 L693.897406,370.563441 L695.456654,392.77538 L776,419.426535 L776,521.897189 L651.031601,521.004429 C602.104392,636.224993 525.540701,694.610721 421.340527,696.161613 L405.000151,723.026778 L464.418964,723.026778 L413.238806,788.512628 L432.104081,788.512628 L387.154966,826.629348 L375.688544,788.512628 L394.340962,788.512628 L425,745.508314 L375.688544,745.508314 L407.51378,696.032892 C306.610589,692.614321 232.884642,634.569087 186.335938,521.897189 L74,521.897189 L74,415.401095 L141.207031,394.155001 L141.207031,375.162814 L79.3945313,351.596407 C82.2085645,332.47234 87.4221061,313.129892 95.0351563,293.569064 C102.648206,274.008235 112.335706,255.064224 124.097656,236.737032 L190.562302,262.048245 C200.793046,243.998826 211.017071,230.069568 221.234375,220.26047 C231.451679,210.451372 243.259817,201.185593 256.658787,192.463134 L230.164063,127.565157 C245.386427,115.974408 262.523807,106.311069 281.576203,98.5751402 C300.6286,90.8392113 320.863615,85.3280712 342.28125,82.0417198 L367.569256,144.550629 C385.230554,141.476794 401.914037,140.044448 417.619705,140.253591 C433.325372,140.462733 448.99599,142.325919 464.631559,145.843148 L493.142766,78 Z M320.44571,714.934691 C320.661594,714.920768 321.367094,715.258806 321.432979,715.504691 C320.843678,717.179935 322.232031,718.107468 324.285144,719.29908 L324.492623,719.419159 L345.964125,731.815498 C348.770047,733.435498 349.297701,733.601575 350.857124,732.700575 C351.176931,732.746652 351.718508,733.128613 351.702431,733.39646 C349.900855,735.196882 347.107124,739.195766 346.363009,740.844611 C345.915162,741.140303 345.031817,740.630303 344.952009,740.168534 C345.546124,738.779496 346.292394,736.64692 345.842971,735.625343 C345.186402,734.117553 343.566041,732.625977 340.916824,731.052072 L340.565434,730.846305 L336.734576,728.634827 C335.506011,727.930914 335.335694,727.934223 334.686878,729.03049 L334.603173,729.173244 L320.999282,752.735875 C317.906555,758.092635 317.516717,758.999207 320.213949,760.923101 L320.366973,761.031065 L321.939742,762.14695 C322.131511,762.534796 321.487588,763.410103 321.085819,763.385988 C318.184012,761.572065 316.447321,760.500103 314.36886,759.300103 C312.290399,758.100103 310.441745,757.102065 307.056208,755.285988 C306.847484,754.969861 307.194914,754.115637 307.708132,753.999721 L307.806208,753.98695 L309.766823,754.911065 C312.822051,756.33489 313.561832,755.754035 316.56901,750.568702 L316.738437,750.275875 L330.317014,726.756124 C331.047595,725.477221 331.011757,725.337317 329.705928,724.576899 L329.549591,724.486305 L326.440716,722.692032 C324.242496,721.434512 321.46581,720.016714 319.55044,720.445343 C317.643363,720.868497 316.463748,721.71165 315.142171,722.680688 C314.546479,722.752458 313.969018,722.07265 314.001172,721.536958 C316.182556,719.678689 318.881979,716.803152 320.44571,714.934691 Z M513.500484,720.993237 C513.920986,721.952998 515.234142,724.458879 516.860654,727.292315 L517.042638,727.608428 L528.682637,747.769499 C530.940137,751.679603 531.577779,752.554816 533.678041,751.590046 L533.826983,751.519767 L536.099367,750.415651 C536.591136,750.54742 537.019174,751.408805 536.745444,751.774689 C534.658944,752.840766 532.290676,754.138805 530.472022,755.188805 C528.601408,756.268805 526.293139,757.670766 524.32664,758.944689 C523.901267,758.995422 523.407137,758.294251 523.455607,757.801202 L523.472717,757.705651 L525.513139,756.319766 C527.469896,754.995659 527.196148,754.111052 525.263149,750.729592 L525.122264,750.483773 L514.500257,732.085508 C512.610622,728.830435 511.770382,727.815241 509.509785,728.794438 L509.323332,728.878198 L506.709179,730.110351 C506.173486,730.142505 505.701525,729.445044 505.997217,728.997198 C509.911985,725.697775 511.989869,722.696775 512.830868,721.03343 C513.038715,720.91343 513.306561,720.897353 513.500484,720.993237 Z M554.931358,714.393618 C558.201358,720.057424 559.76309,728.162422 557.193014,735.950921 C555.327861,741.600382 551.397594,746.432958 548.276172,749.066497 C547.770479,749.150612 547.164595,748.461189 547.274402,748.051381 C549.852094,745.316074 551.73017,742.568997 552.864708,739.974075 C555.605168,733.680691 555.736783,726.468654 550.066783,716.647926 C547.336783,711.919428 542.205783,706.152276 537.165515,709.062276 C533.839978,710.982276 532.815825,714.96839 535.485825,719.592966 C537.825825,723.645965 542.552324,727.152502 546.5014,724.872502 C547.800438,724.122502 548.134169,723.86054 548.667707,723.344656 C548.935553,723.328579 549.167515,723.610348 549.183591,723.878194 C548.654361,725.36154 547.403554,726.915078 545.377054,728.085078 C541.168171,730.515078 535.528903,729.267579 532.408903,723.863581 C528.808903,717.628198 531.017402,710.53343 536.941015,707.11343 C543.436206,703.36343 550.521358,706.755274 554.931358,714.393618 Z M301.990753,706.219614 C304.528829,707.823537 306.265521,708.895498 308.447905,710.155498 C310.526366,711.355498 312.323058,712.323536 314.981134,713.719613 C315.189043,714.034505 314.818766,714.928968 314.415903,715.06249 L314.335057,715.078652 L312.976019,714.432575 C309.818757,712.94984 309.169551,713.71656 306.137307,718.957849 L305.966366,719.25365 L295.286366,737.751952 C292.164185,743.159729 291.80273,744.017139 294.493396,746.065979 L294.646019,746.181065 L295.855057,747.08695 C296.046827,747.474796 295.402904,748.350103 295.001134,748.325988 C292.463058,746.722065 290.726366,745.650103 288.647906,744.450103 C287.192983,743.610103 285.909479,742.899864 284.42789,742.106052 L283.51221,741.61803 C283.039529,741.367297 282.542369,741.105203 282.010754,740.825988 C281.803769,740.512496 282.117575,739.715102 282.560162,739.503042 L282.656831,739.46695 L284.045869,740.061065 C287.148967,741.393224 287.782657,740.864465 290.544101,736.12283 L290.705809,735.844584 L302.024569,716.239916 C304.855143,711.314105 305.179507,710.309575 302.531915,708.42246 L302.375868,708.312575 L301.13683,707.458652 C300.945061,707.070806 301.588984,706.195498 301.990753,706.219614 Z M273.048185,689.509614 C275.89803,691.293537 277.634722,692.365498 279.713183,693.565498 C281.739682,694.735498 283.536374,695.703537 286.19445,697.099614 C286.402359,697.414505 286.032082,698.308968 285.629219,698.44249 L285.548373,698.458652 L284.241297,697.842575 C281.084035,696.359841 280.463747,697.076471 277.460948,702.26676 L277.291644,702.559727 L266.851644,720.642337 C265.024644,723.806794 264.380543,725.25881 264.669614,726.731671 L264.702836,726.884181 L264.740305,727.01506 C265.012039,727.902096 265.767156,729.092154 269.676642,731.349296 C274.093372,733.899296 275.304564,734.32145 276.405948,734.333797 C277.805178,734.310258 280.236178,733.219643 282.805408,731.169606 C283.267178,731.089798 284.134446,731.867644 283.924446,732.231375 C283.594446,732.802952 279.079524,737.263027 277.542063,738.245988 C275.030511,736.661578 270.340907,733.884816 265.178912,730.900465 L264.693643,730.620104 L259.913183,727.860104 C257.730799,726.600104 256.03803,725.692065 253.068185,724.115988 C252.861201,723.802496 253.175006,723.005102 253.617594,722.793043 L253.714262,722.75695 L255.363108,723.501066 C258.38555,724.852681 259.016906,724.327415 261.745719,719.642986 L261.908691,719.362617 L273.346736,699.551361 C276.149688,694.672843 276.439138,693.713074 273.597496,691.716717 L273.4333,691.602575 L272.194262,690.748652 C272.002493,690.360806 272.646416,689.485498 273.048185,689.509614 Z M580.91212,699.393619 C584.18212,705.057425 585.743851,713.162423 583.173776,720.950921 C581.308623,726.600382 577.378355,731.432958 574.256934,734.066497 C573.751241,734.150612 573.145357,733.461189 573.255164,733.051381 C575.832856,730.316074 577.710932,727.568997 578.84547,724.974075 C581.58593,718.680691 581.717544,711.468654 576.047544,701.647926 C573.317544,696.919428 568.186545,691.152276 563.146277,694.062276 C559.82074,695.982276 558.796587,699.96839 561.466586,704.592966 C563.806586,708.645965 568.533086,712.152502 572.482162,709.872502 C573.7812,709.122502 574.11493,708.86054 574.648469,708.344656 C574.916315,708.328579 575.148276,708.610348 575.164353,708.878194 C574.635123,710.36154 573.384315,711.915078 571.357816,713.085078 C567.148933,715.515078 561.509665,714.267579 558.389665,708.863581 C554.789665,702.628198 556.998163,695.53343 562.921777,692.11343 C569.416967,688.36343 576.50212,691.755275 580.91212,699.393619 Z M602.522075,680.543159 C604.338819,683.689852 604.889677,687.963987 603.653533,694.69939 L603.562191,695.184694 L602.492538,700.652 C601.051693,707.996384 601.06404,709.097768 601.24404,709.409537 C601.444494,709.756735 601.745001,709.730533 602.946925,709.049036 L603.124847,708.947191 L609.568076,705.227191 C611.958306,703.847191 613.337152,702.635422 613.792459,701.264037 C614.269728,699.810692 614.243459,698.925192 614.225228,698.173615 C614.498959,697.80773 615.160535,697.633615 615.548381,697.825384 C616.372882,700.81346 616.997574,704.055459 616.818151,705.54469 C614.901532,706.530007 612.968098,707.578076 610.913419,708.74919 L610.025115,709.258805 L602.490694,713.608805 C599.580849,715.288805 597.896118,716.330767 596.812965,717.09469 C596.679042,717.102728 596.299234,717.044882 596.059234,716.62919 C595.969234,716.473305 596.109042,716.115459 596.300811,715.727613 C597.791041,712.788768 598.485771,710.032076 599.930924,703.655154 C601.230385,697.985886 602.321422,690.635618 599.111422,685.075735 C596.381422,680.347236 592.445115,678.809353 588.236232,681.239353 C585.11854,683.039353 584.114195,686.459775 584.481234,690.335505 C584.16358,690.865312 583.234157,691.055505 582.844157,690.380005 C581.866926,684.847391 584.381886,679.72343 589.058423,677.02343 C594.254576,674.02343 599.642075,675.554852 602.522075,680.543159 Z M244.645039,673.665306 C247.609,674.891576 250.860614,676.699614 255.173421,679.189614 C259.486227,681.679614 262.377842,684.111191 263.950033,687.028075 C265.470263,689.914959 265.676955,693.636958 263.606955,697.222303 C260.846955,702.002763 256.505148,702.682994 253.640803,702.484186 C250.724496,702.255378 247.700535,701.133031 245.570113,699.903031 C245.296382,699.537147 245.746382,698.757724 246.118151,698.833801 C252.329996,701.03457 256.186495,699.034917 258.796495,694.514265 C261.706495,689.473997 260.634688,684.490421 255.23069,681.370421 C252.553228,679.824588 252.316313,679.949751 251.423015,681.485915 L251.344767,681.621036 L237.964768,704.795875 C234.871018,710.154408 234.539821,710.959562 237.480575,713.150169 L237.644228,713.271066 L238.957189,714.23695 C239.118959,714.676758 238.505035,715.500104 238.103266,715.475989 C235.926911,714.115546 234.435162,713.189332 232.948458,712.305003 L232.352435,711.952575 C232.052948,711.776548 231.750037,711.600104 231.438268,711.420104 C229.255884,710.160104 227.355269,709.132066 225.008962,707.915989 C224.801978,707.602496 225.115784,706.805102 225.558371,706.593043 L225.655039,706.556951 L226.836231,707.031066 C229.915455,708.284333 230.496121,707.846864 233.219333,703.172137 L233.382028,702.892247 L245.069603,682.648473 C247.301532,678.757247 247.628587,677.780498 245.678242,676.294348 L245.541731,676.19219 L243.791116,674.904344 C243.607385,674.382575 244.109347,673.633152 244.645039,673.665306 Z M232.024851,664.924114 C233.635658,665.854114 235.326273,667.245884 236.467272,668.389614 C237.022772,668.98746 237.690233,669.511383 238.105926,669.751383 C237.853579,671.26846 236.641233,674.448305 235.381233,676.630689 C234.993387,676.822458 234.072003,676.498343 233.992195,676.036574 C234.756695,673.152421 235.303734,668.964922 230.315428,666.084922 C225.223198,663.144922 222.182007,665.892421 220.802007,668.282651 C219.111721,671.210312 220.228065,674.712307 221.423152,677.023156 L221.528736,677.223918 L224.185658,682.221994 C226.289234,686.138494 227.770848,691.012262 224.920849,695.948607 C221.620849,701.664374 215.058042,703.071489 208.303044,699.171489 C203.938276,696.651489 201.964315,693.710489 201.307046,692.568912 C201.343508,691.065759 202.798008,686.986491 204.104085,684.484299 C204.573893,684.270568 205.413316,684.616645 205.441162,685.048414 C204.690585,688.148452 203.881007,694.470681 209.908544,697.950681 C214.273312,700.470681 218.053734,698.842798 219.853734,695.725106 C221.143037,693.491969 222.129288,690.75338 219.953704,686.310739 L219.792889,685.990493 L216.716545,679.918879 C215.108468,676.704148 213.8047,672.002341 216.2647,667.741497 C219.1147,662.805152 225.269853,661.024114 232.024851,664.924114 Z M450.789067,647.733171 L438.582877,647.733171 L407.51378,696.032892 C410.852664,696.146013 414.221305,696.19932 417.619705,696.192814 L419.483034,696.183215 L421.340527,696.161613 L421.340527,696.161613 L450.789067,647.733171 Z M421.282323,191.656299 C360.210999,191.656299 346.053876,194.754767 287.984864,220.807458 C274.895787,226.679879 270.283179,238.966931 274.147041,257.668615 C276.829873,265.591649 280.6558,270.566502 285.624821,272.593174 C291.951024,275.173389 300.07575,275.173389 309.999,272.593174 C325.324687,265.393896 335.778582,260.787009 341.360683,258.772514 C347.853594,280.297935 343.802773,301.232479 329.208221,321.576145 C312.607026,341.617547 296.178359,351.638248 279.922221,351.638248 C257.782133,351.638248 242.804401,341.816959 234.989025,322.174381 L234.754388,321.576145 L210.540288,325.071102 C192.148272,384.649724 193.104564,442.008073 213.409165,497.146149 C233.51072,551.732844 267.227934,589.621748 314.560808,610.812861 L315.999305,611.449905 L394.584481,641.220422 C401.942758,642.310124 406.2808,640.450201 407.598609,635.640653 C408.888379,630.933435 407.168086,626.654208 402.43773,622.80297 L402.124961,622.552409 L380.874625,608.074462 C392.55334,603.024314 404.235786,600.499239 415.921963,600.499239 C427.323111,600.499239 438.902919,602.902641 450.661388,607.709446 L451.543608,608.074462 L428.590332,622.552409 C423.949802,626.468357 422.378764,630.831105 423.877217,635.640653 C425.37567,640.450201 429.333025,642.310124 435.749281,641.220422 C495.797986,623.261847 536.378278,605.493897 557.49016,587.916571 C578.82909,570.150209 616.297211,509.609849 622.586063,491.892322 C638.755804,446.337463 638.300868,392.953258 621.221255,331.739705 L620.698603,329.882352 L601.810503,326.89819 C581.502201,353.908211 557.028268,357.638964 528.388704,338.090449 C499.74914,318.541934 488.269961,292.966711 493.951167,261.364778 C503.563183,265.824477 512.498106,269.567276 520.755934,272.593174 C547.281003,282.3127 560.948768,264.133163 560.948768,251.44716 C560.948768,242.989826 555.028761,232.776591 543.188746,220.807458 C502.632012,201.373352 461.996538,191.656299 421.282323,191.656299 Z M25.7899996,13.6800007 C40.3499994,13.6800007 50.3599993,23.4800005 50.3599993,37.6900003 C50.3599993,52.9500001 40.1399994,62.12 25.0899996,62.12 C11.0199998,62.12 0.79999996,52.8800001 0.79999996,38.2500003 C0.79999996,24.3900005 11.1599998,13.6800007 25.7899996,13.6800007 Z M658.776657,13.6800007 C661.086657,13.6800007 663.956657,13.9600007 666.756656,14.8000007 C667.666656,15.0800007 668.296656,15.2200007 669.136656,15.3600007 C669.696656,16.9000006 670.396656,20.6800007 670.396656,25.3700005 C670.046656,26.2100005 668.296656,26.2800005 667.666656,25.5800005 C666.476656,22.0100006 663.466657,16.9000006 658.426657,16.9000006 C653.806657,16.9000006 651.286657,19.9100006 651.286657,23.4100005 C651.286657,26.6300005 654.156657,29.5700004 657.656657,31.3900004 L657.656657,31.3900004 L662.276657,33.8400004 C666.616656,36.1500004 672.146656,40.2100003 672.146656,47.9100002 C672.146656,56.5200001 665.076657,62.12 654.506657,62.12 C648.066657,62.12 644.076657,60.3 642.606657,59.46 C641.276657,57.92 640.366657,52.8800001 640.366657,48.1200002 C640.856657,47.2100002 642.466657,47.1400002 643.026657,47.9100002 C644.426657,52.4600001 649.116657,58.9 655.066657,58.9 C660.246657,58.9 662.626657,55.3300001 662.626657,51.8300001 C662.626657,46.1600002 657.306657,42.8000003 653.106657,40.7000003 C648.066657,38.1800007 642.536657,33.9800004 642.536657,27.0500005 C642.466657,19.1400006 648.626657,13.6800007 658.776657,13.6800007 Z M519.989992,13.6800007 C527.129992,13.6800007 532.309992,15.3600007 534.409992,15.5000007 C534.409992,16.7600006 534.619992,22.3600006 535.249992,26.4200005 C534.969992,27.2600005 533.079992,27.5400005 532.589992,26.9100005 C530.699992,20.4000006 526.219992,16.9000006 519.429992,16.9000006 C511.659992,16.9000006 503.329992,23.5500005 503.329992,37.4800003 C503.329992,51.4100001 511.379992,58.9 519.779992,58.9 C528.249992,58.9 532.169992,52.8100001 534.059992,48.0500002 C534.619992,47.4900002 536.299992,47.7000002 536.719992,48.5400002 C536.229992,53.7200001 535.039992,57.92 534.059992,59.53 C530.279992,60.58 525.309992,62.12 519.849992,62.12 C512.989992,62.12 505.989992,60.51 501.019992,56.8000001 C495.979992,52.9500001 492.129992,47.1400002 492.129992,38.4600003 C492.129992,29.9200004 495.769992,23.9000005 500.599992,19.9100006 C505.569992,15.7800006 512.709992,13.6800007 519.989992,13.6800007 Z M744.409989,13.6800007 C758.969988,13.6800007 768.979988,23.4800005 768.979988,37.6900003 C768.979988,52.9500001 758.759988,62.12 743.709989,62.12 C729.639989,62.12 719.419989,52.8800001 719.419989,38.2500003 C719.419989,24.3900005 729.779989,13.6800007 744.409989,13.6800007 Z M177.409997,13.0500007 C177.829997,13.0500007 178.319997,13.3300007 178.459997,13.5400007 C178.392255,13.7703233 178.32648,14.0314575 178.263052,14.318899 L178.202,14.6050009 L178.633053,14.6235423 C181.399025,14.7304868 184.262219,14.7888201 186.736525,14.7985423 L187.466664,14.8000007 C189.846664,14.8000007 191.876664,14.7300007 193.346664,14.5900007 C194.046664,17.7400006 198.596664,23.0600005 204.896664,30.5500004 L204.896664,30.5500004 L210.776663,37.4800003 C213.856663,41.1200003 215.886663,43.5700002 217.496663,45.1800002 C217.776663,44.4800002 217.776663,43.2900003 217.776663,42.0300003 L217.776108,31.9347245 C217.761982,26.4329788 217.47692,21.401539 216.726663,19.5600006 C216.096663,18.0900007 214.556663,17.6000006 212.666663,17.3200006 L212.666663,17.3200006 L210.776663,17.0400006 C210.216663,16.4800006 210.356663,15.0100007 210.776663,14.5900007 C214.556663,14.7300007 217.286663,14.8000007 220.156663,14.8000007 C222.746663,14.8000007 225.266663,14.7300007 227.996663,14.5900007 C228.416663,15.0100007 228.556663,16.4800006 227.996663,17.0400006 L227.996663,17.0400006 L226.736663,17.2500006 C224.916663,17.5300006 223.586663,18.0900007 222.956663,19.5600006 C222.186663,21.4500006 221.906663,26.7000005 221.906663,32.3700004 L221.906663,32.3700004 L221.906836,50.555268 C221.906891,50.7097151 221.906964,50.8637495 221.90706,51.0172917 L221.907963,51.9320047 C221.912847,55.4108985 221.936086,58.5454808 222.046663,60.37 C221.556663,61.21 219.596663,61.98 217.916663,61.98 C217.846663,61.98 215.536663,58.41 212.246663,54.3500001 L212.246663,54.3500001 L196.076664,34.3300004 C192.016664,29.3600005 189.706664,26.4200005 188.446664,25.3700005 C188.12583,26.0116672 188.099094,27.0650699 188.096866,29.2311405 L188.096866,29.2311405 L188.096664,43.4300003 C188.096664,49.1000002 188.376664,54.3500001 189.146664,56.2400001 C189.776664,57.71 191.386664,58.2 193.206664,58.48 L193.206664,58.48 L195.166664,58.76 C195.726664,59.32 195.586664,60.79 195.166664,61.21 C191.386664,61.07 188.586664,61 185.786664,61 C183.196664,61 180.606664,61.07 177.946664,61.21 C177.526664,60.79 177.386664,59.32 177.946664,58.76 L177.946664,58.76 L179.136664,58.55 C181.026664,58.2 182.426664,57.71 182.986664,56.2400001 C183.756664,54.3500001 183.966664,49.1000002 183.966664,43.4300003 L183.966463,25.3074491 C183.9621,21.7322503 183.883937,20.6503036 183.476664,19.7000006 C182.916664,18.5100006 181.936664,17.6700006 179.486664,17.3200006 L179.486664,17.3200006 L177.814,17.0800009 L177.812924,17.0942365 C177.507646,19.6004366 177.337239,22.6800489 177.398402,25.1887938 L177.409997,25.5800005 C177.059997,26.2100005 175.169997,26.3500005 174.819997,25.7900005 C173.629997,21.3100006 172.649997,18.0200006 167.399997,18.0200006 L167.399997,18.0200006 L163.031397,18.0208071 C161.505764,18.0363978 161.309998,18.2927592 161.309998,20.0500007 L161.309998,20.0500007 L161.309998,50.9200001 C161.309998,57.4300001 161.729998,57.99 164.879997,58.41 L164.879997,58.41 L167.679997,58.76 C168.169997,59.18 168.169997,60.79 167.679997,61.21 C163.129998,61.07 159.629998,61 156.479998,61 C153.119998,61 149.479998,61.07 144.579998,61.21 C144.019998,60.79 144.019998,59.18 144.579998,58.76 L144.579998,58.76 L147.729998,58.41 C150.879998,58.06 151.299998,57.4300001 151.299998,50.9200001 L151.299447,19.7210703 C151.292007,18.3233894 151.184136,18.0200006 149.619998,18.0200006 L149.619998,18.0200006 L145.279998,18.0200006 C140.169998,18.0200006 138.699998,20.8200006 136.599998,25.9300005 C135.759998,26.3500005 134.429998,26.2100005 134.009998,25.3000005 C135.479998,20.4700006 135.829998,16.1300006 136.319998,13.4000007 C136.599998,13.1900007 136.949998,13.0500007 137.299998,13.0500007 C137.649998,13.0500007 137.999998,13.1200007 138.279998,13.3300007 C138.629998,14.5200007 138.839998,14.8000007 144.159998,14.8000007 L170.821796,14.7994125 C174.916763,14.7904604 175.8993,14.6616286 176.499997,13.2600007 C176.779997,13.1200007 176.989997,13.0500007 177.409997,13.0500007 Z M467.39666,14.5900007 C467.520189,14.7135301 467.619497,14.9278899 467.683898,15.1832125 L467.707,15.2900009 L467.689658,15.3747757 C467.641215,15.6581667 467.641215,15.9718346 467.689658,16.2552256 L467.715,16.3770009 L467.681162,16.5190969 C467.636366,16.6743422 467.572849,16.8156102 467.488302,16.9321297 L467.39666,17.0400006 L466.13666,17.2500006 C464.31666,17.5300006 462.98666,18.0900007 462.35666,19.5600006 C461.58666,21.4500006 461.30666,26.7000005 461.30666,32.3700004 L461.30666,32.3700004 L461.306832,50.555268 C461.306887,50.7097151 461.30696,50.8637495 461.307056,51.0172917 L461.307959,51.9320047 C461.312843,55.4108985 461.336083,58.5454808 461.44666,60.37 C460.95666,61.21 458.99666,61.98 457.31666,61.98 C457.24666,61.98 454.93666,58.41 451.64666,54.3500001 L451.64666,54.3500001 L435.47666,34.3300004 C431.41666,29.3600005 429.10666,26.4200005 427.84666,25.3700005 C427.525827,26.0116672 427.499091,27.0650699 427.496863,29.2311405 L427.496863,29.2311405 L427.49666,43.4300003 C427.49666,49.1000002 427.77666,54.3500001 428.54666,56.2400001 C429.17666,57.71 430.78666,58.2 432.60666,58.48 L432.60666,58.48 L434.56666,58.76 C435.12666,59.32 434.98666,60.79 434.56666,61.21 C430.78666,61.07 427.98666,61 425.18666,61 C422.59666,61 420.00666,61.07 417.34666,61.21 C416.92666,60.79 416.78666,59.32 417.34666,58.76 L417.34666,58.76 L418.53666,58.55 C420.42666,58.2 421.82666,57.71 422.38666,56.2400001 C423.15666,54.3500001 423.36666,49.1000002 423.36666,43.4300003 L423.36646,25.3074491 C423.362096,21.7322503 423.283933,20.6503036 422.87666,19.7000006 C422.31666,18.5100006 421.33666,17.6700006 418.88666,17.3200006 L418.88666,17.3200006 L416.92666,17.0400006 C416.43666,16.4800006 416.50666,14.8000007 417.20666,14.5900007 C420.49666,14.7300007 423.99666,14.8000007 426.86666,14.8000007 C429.24666,14.8000007 431.27666,14.7300007 432.74666,14.5900007 C433.44666,17.7400006 437.99666,23.0600005 444.29666,30.5500004 L444.29666,30.5500004 L450.17666,37.4800003 C453.25666,41.1200003 455.28666,43.5700002 456.89666,45.1800002 C457.17666,44.4800002 457.17666,43.2900003 457.17666,42.0300003 L457.176104,31.9347245 C457.161979,26.4329788 456.876916,21.401539 456.12666,19.5600006 C455.49666,18.0900007 453.95666,17.6000006 452.06666,17.3200006 L452.06666,17.3200006 L450.17666,17.0400006 C449.61666,16.4800006 449.75666,15.0100007 450.17666,14.5900007 C453.95666,14.7300007 456.68666,14.8000007 459.55666,14.8000007 C462.14666,14.8000007 464.66666,14.7300007 467.39666,14.5900007 Z M113.453332,14.5900007 C119.403332,14.5900007 124.513331,15.5000007 127.173331,17.1100006 C131.233331,19.4900006 133.333331,22.9900005 133.333331,27.4700005 C133.333331,33.7000004 129.133331,36.3600004 125.913331,37.9700003 C125.213331,38.3200003 125.213331,38.7400003 125.563331,39.5100003 C130.183331,48.8900002 133.053331,54.1400001 136.413331,57.0100001 C138.233331,58.48 140.053331,58.9 141.103331,58.97 C141.733331,59.32 141.733331,60.37 141.383331,60.79 C140.263331,61.28 138.023331,61.42 135.853331,61.42 C129.413331,61.42 125.353331,59.11 122.273331,54.0700001 C120.033332,50.3600002 118.423332,46.9300002 116.813332,43.2200003 C115.973332,41.3300003 114.853332,40.7700003 113.103332,40.7700003 C110.653332,40.7700003 110.513332,40.9100003 110.513332,42.3100003 L110.513732,51.253486 C110.528909,57.3772146 110.988595,57.8598246 114.083332,58.41 L114.083332,58.41 L115.973332,58.76 C116.463332,59.11 116.463332,60.79 115.973332,61.21 C112.263332,61.07 109.043332,61 105.683332,61 C102.183332,61 99.1033318,61.07 95.4633319,61.21 C94.9033319,60.79 94.9033319,59.11 95.4633319,58.76 L95.4633319,58.76 L97.3533318,58.41 C100.503332,57.85 100.923332,57.3600001 100.923332,50.9200001 L100.923332,50.9200001 L100.923198,25.7894088 C100.917782,19.1139994 100.733501,18.362882 97.8433318,17.9500006 L97.8433318,17.9500006 L95.9533319,17.6700006 C95.2533319,17.3200006 95.2533319,15.5700006 96.0933319,15.2200007 C101.343332,14.8700007 106.803332,14.5900007 113.453332,14.5900007 Z M71.5466656,14.5900007 C78.2666655,14.5900007 82.7466654,15.3600007 85.8266654,17.1800006 C88.8366653,19.0000006 90.6566653,21.9400006 90.6566653,26.0700005 C90.6566653,31.9500004 85.6866654,34.2600004 83.5166654,34.8200004 C82.8166654,34.9600004 82.1166654,35.2400004 82.1166654,35.5900007 C82.1166654,35.8000004 82.4666654,36.0100004 83.0966654,36.1500004 C88.6266653,37.3400003 93.3166653,40.9800003 93.3866653,47.7700002 C93.4566653,54.2100001 89.6066653,57.99 85.1966654,59.53 C80.7866658,61.07 75.5366655,61.28 71.2666656,61.28 C68.7466656,61.28 66.0866657,61 64.0566657,61 C60.6266657,61 57.1966658,61.07 53.2066658,61.21 C52.6466658,60.79 52.6466658,58.97 53.2066658,58.76 L53.2066658,58.76 L55.2366658,58.34 C58.3866658,57.71 58.8066658,57.2200001 58.8066658,50.9200001 L58.8061006,25.5240083 C58.7942213,19.093645 58.5686658,18.4260006 55.7266658,18.0200006 L55.7266658,18.0200006 L53.8366658,17.7400006 C53.2066658,17.3900006 53.0666658,15.2900007 54.1166658,15.2200007 C54.3212812,15.2065391 54.5255859,15.1931811 54.7296995,15.1799386 L54.7296995,15.1799386 L55.9530427,15.1019653 C60.6410592,14.8091131 65.354358,14.5900007 71.5466656,14.5900007 Z M415.059994,14.5900007 C415.619994,15.0100007 415.619994,16.6200006 415.059994,17.0400006 L415.059994,17.0400006 L413.659994,17.2500006 C410.439994,17.7400006 410.019994,18.3700006 410.019994,24.8800005 L410.019994,24.8800005 L410.019994,50.9200001 C410.019994,57.4300001 410.439994,57.92 413.659994,58.48 L413.659994,58.48 L415.339994,58.76 C415.899994,59.18 415.899994,60.79 415.339994,61.21 C411.839994,61.07 408.409994,61 405.189994,61 C401.689994,61 398.259994,61.07 394.899994,61.21 C394.339994,60.79 394.339994,59.18 394.899994,58.76 L394.899994,58.76 L396.439994,58.55 C399.659994,58.13 400.009994,57.4300001 400.009994,50.9200001 L400.009565,40.5459676 C400.002278,38.9657781 399.871117,38.821951 397.510201,38.8108474 L397.510201,38.8108474 L382.068701,38.8109013 C379.632631,38.8230902 379.569994,38.9859463 379.569994,40.8400003 L379.569994,40.8400003 L379.569994,50.9200001 C379.569994,57.4300001 379.989994,58.06 383.139994,58.48 L383.139994,58.48 L385.379994,58.76 C385.939994,59.18 385.939994,60.79 385.379994,61.21 C381.389994,61.07 377.889994,61 374.739994,61 C371.379994,61 367.879994,61.07 364.309994,61.21 C363.749994,60.79 363.749994,59.18 364.309994,58.76 L364.309994,58.76 L365.989994,58.55 C369.209994,58.13 369.559994,57.4300001 369.559994,50.9200001 L369.559669,24.5484294 C369.547072,18.3459459 369.154477,17.6627592 365.989994,17.2500006 L365.989994,17.2500006 L364.309994,17.0400006 C363.749994,16.6200006 363.749994,15.0100007 364.309994,14.5900007 C367.739994,14.7300007 371.379994,14.8000007 374.739994,14.8000007 C377.889994,14.8000007 381.389994,14.7300007 384.469994,14.5900007 C385.029994,15.0100007 385.029994,16.6200006 384.469994,17.0400006 L384.469994,17.0400006 L382.999994,17.2500006 C379.989994,17.6700006 379.569994,18.3700006 379.569994,24.8800005 L379.569994,24.8800005 L379.569994,33.0000004 C379.569994,34.9202706 379.632631,35.086706 382.068701,35.0990883 L397.522086,35.0990851 C399.871557,35.0873678 400.002291,34.9381657 400.009565,33.3045142 L400.009565,33.3045142 L400.009669,24.5485524 C399.997072,18.3507111 399.604477,17.8015523 396.439994,17.3200006 L396.439994,17.3200006 L394.549994,17.0400006 C393.989994,16.6200006 393.989994,15.0100007 394.549994,14.5900007 C398.399994,14.7300007 401.829994,14.8000007 405.189994,14.8000007 C408.619994,14.8000007 411.839994,14.7300007 415.059994,14.5900007 Z M359.503328,14.5900007 C359.562828,15.5420006 359.925778,19.3262006 360.248268,23.3202868 L360.248268,23.3202868 L360.304688,24.0267705 C360.323308,24.2626355 360.341718,24.498693 360.359848,24.7344093 L360.359848,24.7344093 L360.413328,25.4400005 C360.133328,26.2100005 358.523328,26.3500005 357.823328,25.7200005 C357.053328,23.2700005 356.073328,21.1700006 355.163328,20.1900006 C353.833328,18.8600006 351.733328,18.0200006 348.303328,18.0200006 L348.303328,18.0200006 L342.521047,18.020353 C340.511535,18.0288575 340.399895,18.2082984 340.393693,20.3511113 L340.393693,20.3511113 L340.393605,33.1840526 C340.399738,34.9688869 340.524296,35.1000004 342.353328,35.1000004 L347.427202,35.0992131 C350.861437,35.0762452 351.679237,34.5336367 352.363328,31.2500004 L352.363328,31.2500004 L352.713328,29.5000005 C353.203328,28.9400005 354.953328,28.9400005 355.303328,29.5700004 C355.163328,31.8100004 355.093328,34.3300004 355.093328,36.9900003 C355.093328,39.6500003 355.163328,42.1700003 355.303328,44.4100002 C354.953328,45.0400002 353.203328,45.1100002 352.713328,44.4800002 L352.713328,44.4800002 L352.363328,42.7300003 C351.663328,39.3700003 350.823328,38.8100003 347.183328,38.8100003 L347.183328,38.8100003 L342.181419,38.8102652 C340.459021,38.8163577 340.393328,38.9456253 340.393328,40.9800003 L340.393328,49.3100002 C340.393328,52.5300001 340.673328,54.7700001 341.513328,55.9600001 C342.423328,57.2200001 343.753328,57.78 348.863328,57.78 L349.415095,57.7791854 C355.101181,57.759787 357.451789,57.3266154 361.183328,49.6600002 C361.743328,48.8900002 363.493328,49.1700002 363.773328,50.0100002 C363.493328,53.6500001 361.813328,59.32 360.833328,61.21 C358.320102,61.1151613 354.425596,61.0524454 350.390165,61.0218522 L350.390165,61.0218522 L349.234421,61.0139854 C347.691174,61.0046618 346.144618,61 344.663328,61 L344.663328,61 L335.563328,61 C332.203328,61 328.773328,61.07 323.523328,61.21 C322.963328,60.79 322.963328,59.11 323.523328,58.76 L323.523328,58.76 L326.813328,58.27 C329.963328,57.78 330.383328,57.3600001 330.383328,50.9200001 L330.383328,50.9200001 L330.383328,24.8100005 C330.383328,18.4400006 329.963328,18.0200006 326.813328,17.3900006 L326.813328,17.3900006 L325.063328,17.0400006 C324.433328,16.6200006 324.503328,15.0100007 325.203328,14.5900007 C328.493328,14.7300007 331.923328,14.8000007 335.283328,14.8000007 L335.283328,14.8000007 L350.865014,14.7993525 C355.037155,14.7920068 358.643883,14.7222229 359.503328,14.5900007 Z M581.259,61.0460009 L581.601658,61.0525 C582.441658,61.07 583.290408,61.091875 584.147908,61.118125 L584.701,61.1360009 L584.495694,61.1454906 C583.751463,61.1763522 582.934119,61.2017029 581.968713,61.2083161 L581.473324,61.21 C581.432798,61.1878947 581.394599,61.1628809 581.358665,61.1352442 L581.259,61.0460009 Z M250.23333,13.6800007 C251.14333,13.6800007 251.56333,14.0300007 251.84333,15.0800007 C252.40333,17.1100006 253.243329,19.7000006 254.993329,24.6700005 L254.993329,24.6700005 L264.513329,52.1100001 C265.983329,56.3100001 266.613329,57.92 269.203329,58.34 L269.203329,58.34 L271.863329,58.76 C272.283329,59.11 272.423329,60.79 271.793329,61.21 C268.433329,61.07 264.653329,61 261.013329,61 C257.513329,61 254.783329,61.07 251.56333,61.21 C250.79333,60.79 250.65333,59.32 251.42333,58.76 L251.42333,58.76 L253.663329,58.41 C255.273329,58.13 255.553329,57.64 255.553329,57.2200001 C255.553329,56.7300001 255.063329,55.0500001 254.223329,52.4600001 L254.223329,52.4600001 L252.33333,46.4400002 C251.98333,45.3200002 251.42333,45.1800007 248.97333,45.1800007 L248.97333,45.1800007 L240.455912,45.1803786 C238.946865,45.1872487 238.737176,45.3011541 238.33333,46.5800002 L238.33333,46.5800002 L235.60333,54.7000001 C235.18333,56.1000001 235.11333,56.6600001 235.11333,57.2200001 C235.11333,57.64 236.02333,58.06 237.98333,58.41 L237.98333,58.41 L240.08333,58.76 C240.50333,59.25 240.64333,60.86 239.94333,61.21 C237.49333,61.07 234.97333,61.07 232.03333,61 C229.65333,61 228.04333,61.21 224.82333,61.21 C224.05333,60.79 224.12333,59.32 224.61333,58.76 L224.61333,58.76 L226.50333,58.55 C228.18333,58.34 229.58333,57.78 230.77333,55.0500001 C231.96333,52.2500001 233.29333,48.8900002 235.18333,43.8500002 L235.18333,43.8500002 L241.55333,26.7700005 C243.16333,22.3600006 244.35333,19.9100006 244.14333,17.8800006 C247.50333,17.1100006 250.09333,13.6800007 250.23333,13.6800007 Z M489.283326,14.5900007 C489.843326,15.0100007 489.843326,16.6200006 489.283326,17.0400006 L489.283326,17.0400006 L487.323326,17.3900006 C484.103326,17.9500006 483.683326,18.4400006 483.683326,25.0200005 L483.683713,51.1149455 C483.698641,57.3769174 484.158843,57.8596552 487.323326,58.41 L487.323326,58.41 L489.283326,58.76 C489.843326,59.18 489.773326,60.79 489.213326,61.21 C485.433326,61.07 482.003326,61 478.713326,61 C475.353326,61 471.853326,61.07 468.073326,61.21 C467.513326,60.79 467.513326,59.18 468.073326,58.76 L468.073326,58.76 L470.033326,58.41 C473.253326,57.85 473.673326,57.3600001 473.673326,50.7800001 L473.673326,50.7800001 L473.673326,25.0200005 C473.673326,18.4400006 473.253326,17.9500006 470.033326,17.3900006 L470.033326,17.3900006 L468.073326,17.0400006 C467.90862,16.9164712 467.792357,16.6900006 467.724537,16.4211425 L467.715,16.3770009 L467.719802,16.3595915 C467.784944,16.0328584 467.778276,15.6645783 467.718263,15.3409227 L467.707,15.2900009 L467.724537,15.2088588 C467.778793,14.9937723 467.864053,14.8058138 467.980316,14.6759868 L468.073326,14.5900007 C471.853326,14.7300007 475.353326,14.8000007 478.713326,14.8000007 C482.003326,14.8000007 485.503326,14.7300007 489.283326,14.5900007 Z M721.403322,14.5900007 C722.243322,14.8700007 722.313322,16.4800006 721.753322,17.0400006 C719.303322,17.3200006 717.203322,17.6700006 715.733322,18.3000006 C712.933322,19.4200006 709.923323,22.0800006 705.373323,27.2600005 L705.373323,27.2600005 L702.153323,30.9000004 C701.453323,31.6700004 701.243323,32.2300004 701.243323,32.5100004 C701.243323,32.8600004 701.663323,33.7000004 703.763323,36.8500003 C707.263323,42.1000003 711.393322,48.8200002 716.153322,55.1200001 C718.043322,57.64 719.373322,58.13 721.333322,58.41 L721.333322,58.41 L723.573322,58.76 C723.993322,59.39 723.993322,60.86 723.363322,61.21 C719.863322,61.07 716.503322,61 713.283322,61 C709.713323,61 706.213323,61.07 702.293323,61.21 C701.383323,60.93 701.383323,59.18 702.153323,58.76 L702.153323,58.76 L703.903323,58.34 C704.673323,58.13 705.093323,57.92 705.093323,57.64 C705.093323,57.3600001 704.953323,56.8700001 704.533323,56.2400001 C704.113323,55.6100001 701.173323,51.0600001 700.473323,50.0100002 L700.473323,50.0100002 L696.763323,44.3400002 C694.243323,40.4900003 693.053323,38.8100003 691.513323,38.8100003 C689.903323,38.8100003 689.833323,39.7900003 689.833323,43.5700002 L689.833709,51.2515096 C689.848617,57.4516618 690.307633,58.0672414 693.403323,58.48 L693.403323,58.48 L695.363323,58.76 C695.923323,59.25 695.923323,60.79 695.363323,61.21 C691.653323,61.07 688.153323,61 684.793323,61 C681.643323,61 678.003323,61.07 674.293323,61.21 C673.733323,60.79 673.733323,59.18 674.293323,58.76 L674.293323,58.76 L676.253323,58.48 C679.403323,58.06 679.823323,57.4300001 679.823323,50.9200001 L679.823323,50.9200001 L679.823323,24.8800005 C679.823323,18.3700006 679.403323,17.7400006 676.253323,17.3200006 L676.253323,17.3200006 L674.293323,17.0400006 C673.523323,16.6200006 673.523323,15.0100007 674.293323,14.5900007 C677.793323,14.7300007 681.293323,14.8000007 684.793323,14.8000007 C688.153323,14.8000007 691.653323,14.7300007 695.363323,14.5900007 C695.993323,15.0100007 695.993323,16.6200006 695.363323,17.0400006 L695.363323,17.0400006 L693.403323,17.3200006 C690.253323,17.7400006 689.833323,18.3700006 689.833323,24.8800005 L689.833323,33.4200004 C689.833323,35.7300004 690.253323,36.0100004 691.093323,36.0100004 C692.563323,36.0100004 695.503323,33.2800004 696.693323,31.9500004 C696.978707,31.6323081 697.266163,31.3133732 697.554702,30.9937692 L697.554702,30.9937692 L698.422581,30.0335234 C701.609476,26.5094679 704.807938,22.9738467 706.703323,20.1900006 C707.333323,19.2800006 707.613323,18.6500006 707.613323,18.3700006 C707.613323,18.0900007 707.333323,17.6000006 706.423323,17.4600006 L706.423323,17.4600006 L703.973323,17.0400006 C703.203323,16.5500006 703.343323,14.8700007 704.253323,14.5900007 C707.823323,14.7300007 710.413322,14.8000007 712.933322,14.8000007 C715.523322,14.8000007 718.603322,14.7300007 721.403322,14.5900007 Z M832.843321,13.6800007 C833.753321,13.6800007 834.173321,14.0300007 834.453321,15.0800007 C835.013321,17.1100006 835.853321,19.7000006 837.603321,24.6700005 L837.603321,24.6700005 L847.12332,52.1100001 C848.59332,56.3100001 849.22332,57.92 851.81332,58.34 L851.81332,58.34 L854.47332,58.76 C854.89332,59.11 855.03332,60.79 854.40332,61.21 C851.04332,61.07 847.26332,61 843.62332,61 C840.123321,61 837.393321,61.07 834.173321,61.21 C833.403321,60.79 833.263321,59.32 834.033321,58.76 L834.033321,58.76 L836.273321,58.41 C837.883321,58.13 838.163321,57.64 838.163321,57.2200001 C838.163321,56.7300001 837.673321,55.0500001 836.833321,52.4600001 L836.833321,52.4600001 L834.943321,46.4400002 C834.593321,45.3200002 834.033321,45.1800007 831.583321,45.1800007 L831.583321,45.1800007 L823.065903,45.1803786 C821.556856,45.1872487 821.347167,45.3011541 820.943321,46.5800002 L820.943321,46.5800002 L818.213321,54.7000001 C817.793321,56.1000001 817.723321,56.6600001 817.723321,57.2200001 C817.723321,57.64 818.633321,58.06 820.593321,58.41 L820.593321,58.41 L822.693321,58.76 C823.113321,59.25 823.253321,60.86 822.553321,61.21 C820.103321,61.07 817.583321,61.07 814.643321,61 C812.513847,61 811.0008,61.1681163 808.399421,61.2035093 L808.017,61.2070009 L808.107617,61.0275524 C808.385952,60.4488296 808.711777,59.5922631 809.043913,58.5813916 L809.051,58.5560009 L809.113321,58.55 C810.737321,58.347 812.099676,57.8169445 813.263618,55.3158342 L813.383321,55.0500001 C814.573321,52.2500001 815.903321,48.8900002 817.793321,43.8500002 L817.793321,43.8500002 L824.163321,26.7700005 C825.773321,22.3600006 826.963321,19.9100006 826.753321,17.8800006 C830.113321,17.1100006 832.703321,13.6800007 832.843321,13.6800007 Z M606.883324,13.6800007 C607.793324,13.6800007 608.213324,14.0300007 608.493324,15.0800007 C609.053324,17.1100006 609.893324,19.7000006 611.643324,24.6700005 L611.643324,24.6700005 L621.163324,52.1100001 C622.633324,56.3100001 623.263324,57.92 625.853324,58.34 L625.853324,58.34 L628.513324,58.76 C628.933324,59.11 629.073324,60.79 628.443324,61.21 C625.083324,61.07 621.303324,61 617.663324,61 C614.163324,61 611.433324,61.07 608.213324,61.21 C607.443324,60.79 607.303324,59.32 608.073324,58.76 L608.073324,58.76 L610.313324,58.41 C611.923324,58.13 612.203324,57.64 612.203324,57.2200001 C612.203324,56.7300001 611.713324,55.0500001 610.873324,52.4600001 L610.873324,52.4600001 L608.983324,46.4400002 C608.633324,45.3200002 608.073324,45.1800007 605.623324,45.1800007 L605.623324,45.1800007 L597.105906,45.1803786 C595.59686,45.1872487 595.38717,45.3011541 594.983324,46.5800002 L594.983324,46.5800002 L592.253324,54.7000001 C591.833324,56.1000001 591.763324,56.6600001 591.763324,57.2200001 C591.763324,57.64 592.673324,58.06 594.633324,58.41 L594.633324,58.41 L596.733324,58.76 C597.153324,59.25 597.293324,60.86 596.593324,61.21 C594.143324,61.07 591.623324,61.07 588.683324,61 C588.182272,61 587.715347,61.0093075 587.260341,61.0240035 L586.948,61.0340009 L587.01013,60.9507407 C587.364991,60.3933333 587.306658,59.285 586.956658,58.76 L584.716658,58.41 C584.576658,58.39 584.439872,58.3689286 584.305867,58.3461225 L584.241,58.3340009 L584.28448,58.3227126 C585.423453,57.9762697 586.420631,57.2132282 587.303622,55.3158342 L587.423324,55.0500001 C588.613324,52.2500001 589.943324,48.8900002 591.833324,43.8500002 L591.833324,43.8500002 L598.203324,26.7700005 C599.813324,22.3600006 601.003324,19.9100006 600.793324,17.8800006 C604.153324,17.1100006 606.743324,13.6800007 606.883324,13.6800007 Z M792.826655,14.5900007 C793.386655,15.0100007 793.386655,16.6200006 792.826655,17.0400006 L792.826655,17.0400006 L791.006655,17.3200006 C787.856655,17.8100006 787.436655,18.3700006 787.436655,24.8800005 L787.436655,24.8800005 L787.436655,49.3800002 C787.436655,52.6700001 787.716655,54.9100001 788.626655,56.0300001 C789.536655,57.2200001 790.796655,57.78 795.906655,57.78 L796.465488,57.7792339 C802.395603,57.7604144 804.359938,57.327612 808.366654,49.4500002 C808.926654,48.7500002 810.536654,49.0300002 811.026654,49.8700002 C810.793321,52.2966668 809.968877,55.6877779 809.154802,58.2388889 L809.051,58.5560009 L807.223321,58.76 C806.75911,59.2905263 806.671853,60.6377839 807.318661,61.1352442 L807.4,61.1880009 L807.262075,61.1837773 C803.575307,61.0654839 797.642937,61.0042976 792.405064,61.0002185 L791.846655,61 L782.466655,61 C779.246655,61 775.746655,61.07 771.406655,61.21 C770.776655,60.79 770.636655,59.18 771.196655,58.76 L771.196655,58.76 L773.856655,58.41 C777.006655,57.99 777.426655,57.4300001 777.426655,50.9200001 L777.426268,24.5484911 C777.411361,18.3483389 776.952344,17.7327592 773.856655,17.3200006 L773.856655,17.3200006 L771.826655,17.0400006 C771.126655,16.6200006 771.126655,15.0100007 771.966655,14.5900007 C775.606655,14.7300007 779.106655,14.8000007 782.466655,14.8000007 C785.826655,14.8000007 789.326655,14.7300007 792.826655,14.5900007 Z M323.546662,13.0500007 C323.966662,13.0500007 324.456662,13.3300007 324.596662,13.5400007 C323.896662,15.9200006 323.406662,21.5900006 323.546662,25.5800005 C323.196662,26.2100005 321.306662,26.3500005 320.956662,25.7900005 C319.766662,21.3100006 318.786662,18.0200006 313.536662,18.0200006 L313.536662,18.0200006 L309.168061,18.0208071 C307.642429,18.0363978 307.446662,18.2927592 307.446662,20.0500007 L307.446662,20.0500007 L307.446662,50.9200001 C307.446662,57.4300001 307.866662,57.99 311.016662,58.41 L311.016662,58.41 L313.816662,58.76 C314.306662,59.18 314.306662,60.79 313.816662,61.21 C309.266662,61.07 305.766662,61 302.616662,61 C299.256662,61 295.616662,61.07 290.716662,61.21 C290.156662,60.79 290.156662,59.18 290.716662,58.76 L290.716662,58.76 L293.866662,58.41 C297.016662,58.06 297.436662,57.4300001 297.436662,50.9200001 L297.436111,19.7210703 C297.428672,18.3233894 297.3208,18.0200006 295.756662,18.0200006 L295.756662,18.0200006 L291.416662,18.0200006 C286.306662,18.0200006 284.836662,20.8200006 282.736662,25.9300005 C281.896662,26.3500005 280.566662,26.2100005 280.146662,25.3000005 C281.616662,20.4700006 281.966662,16.1300006 282.456662,13.4000007 C282.736662,13.1900007 283.086662,13.0500007 283.436662,13.0500007 C283.786662,13.0500007 284.136662,13.1200007 284.416662,13.3300007 C284.766662,14.5200007 284.976662,14.8000007 290.296662,14.8000007 L316.958461,14.7994125 C321.053428,14.7904604 322.035964,14.6616286 322.636662,13.2600007 C322.916662,13.1200007 323.126662,13.0500007 323.546662,13.0500007 Z M584.786658,14.5900007 C585.626658,14.8700007 585.696658,16.4800006 585.136658,17.0400006 C582.686658,17.3200006 580.586658,17.6700006 579.116658,18.3000006 C576.316658,19.4200006 573.306658,22.0800006 568.756658,27.2600005 L568.756658,27.2600005 L565.536658,30.9000004 C564.836658,31.6700004 564.626658,32.2300004 564.626658,32.5100004 C564.626658,32.8600004 565.046658,33.7000004 567.146658,36.8500003 C570.646658,42.1000003 574.776658,48.8200002 579.536658,55.1200001 C581.224158,57.3700001 582.465229,58.0016965 584.106891,58.3105294 L584.241,58.3340009 L584.128284,58.36744 C583.814124,58.452 583.489324,58.508 583.153324,58.55 L581.263324,58.76 C580.824903,59.2610527 580.722715,60.4906094 581.257599,61.0447514 L581.259,61.0460009 L580.34822,61.0295312 C579.51697,61.0164062 578.69447,61.0076562 577.88072,61.0032812 L576.666658,61 C573.096658,61 569.596658,61.07 565.676658,61.21 C564.766658,60.93 564.766658,59.18 565.536658,58.76 L565.536658,58.76 L567.286658,58.34 C568.056658,58.13 568.476658,57.92 568.476658,57.64 C568.476658,57.3600001 568.336658,56.8700001 567.916658,56.2400001 C567.496658,55.6100001 564.556658,51.0600001 563.856658,50.0100002 L563.856658,50.0100002 L560.146658,44.3400002 C557.626658,40.4900003 556.436658,38.8100003 554.896658,38.8100003 C553.286658,38.8100003 553.216658,39.7900003 553.216658,43.5700002 L553.216658,50.9200001 C553.216658,57.4300001 553.636658,58.06 556.786658,58.48 L556.786658,58.48 L558.746658,58.76 C559.306658,59.25 559.306658,60.79 558.746658,61.21 C555.036658,61.07 551.536658,61 548.176658,61 C545.026658,61 541.386658,61.07 537.676658,61.21 C537.116658,60.79 537.116658,59.18 537.676658,58.76 L537.676658,58.76 L539.636658,58.48 C542.786658,58.06 543.206658,57.4300001 543.206658,50.9200001 L543.206272,24.5484911 C543.191364,18.3483389 542.732348,17.7327592 539.636658,17.3200006 L539.636658,17.3200006 L537.676658,17.0400006 C536.906658,16.6200006 536.906658,15.0100007 537.676658,14.5900007 C541.176658,14.7300007 544.676658,14.8000007 548.176658,14.8000007 C551.536658,14.8000007 555.036658,14.7300007 558.746658,14.5900007 C559.376658,15.0100007 559.376658,16.6200006 558.746658,17.0400006 L558.746658,17.0400006 L556.786658,17.3200006 C553.636658,17.7400006 553.216658,18.3700006 553.216658,24.8800005 L553.216658,24.8800005 L553.216658,33.4200004 C553.216658,35.7300004 553.636658,36.0100004 554.476658,36.0100004 C555.946658,36.0100004 558.886658,33.2800004 560.076658,31.9500004 C563.786658,27.8200005 567.846658,23.4800005 570.086658,20.1900006 C570.716658,19.2800006 570.996658,18.6500006 570.996658,18.3700006 C570.996658,18.0900007 570.716658,17.6000006 569.806658,17.4600006 L569.806658,17.4600006 L567.356658,17.0400006 C566.586658,16.5500006 566.726658,14.8700007 567.636658,14.5900007 C571.206658,14.7300007 573.796658,14.8000007 576.316658,14.8000007 C578.906658,14.8000007 581.986658,14.7300007 584.786658,14.5900007 Z M586.948,61.0340009 L586.933612,61.0545405 C586.87888,61.1183951 586.816658,61.1711111 586.746658,61.21 C586.309158,61.1925 585.873845,61.1760937 585.44072,61.1607812 L584.701,61.1360009 L584.862063,61.1296618 C585.584005,61.0973305 586.245326,61.0616927 586.920976,61.0359746 L586.948,61.0340009 Z M25.2299996,16.9000006 C16.6199997,16.9000006 11.9999998,24.9500005 11.9999998,36.6400003 C11.9999998,45.1800002 15.0099998,58.9000006 26.4199996,58.9000006 C35.5899995,58.9000006 39.1599994,49.9400002 39.1599994,38.6000003 C39.1599994,26.6300005 33.9099995,16.9000006 25.2299996,16.9000006 Z M743.849989,16.9000006 C735.239989,16.9000006 730.619989,24.9500005 730.619989,36.6400003 C730.619989,45.1800002 733.629989,58.9000006 745.039989,58.9000006 C754.209988,58.9000006 757.779988,49.9400002 757.779988,38.6000003 C757.779988,26.6300005 752.529989,16.9000006 743.849989,16.9000006 Z M72.3166656,38.0400003 L71.845794,38.0405856 C68.6168491,38.0504427 68.4733404,38.2136367 68.4669623,40.5671788 L68.4669623,40.5671788 L68.4666656,49.1700002 C68.4666656,54.6300001 69.1666656,58.06 74.6266655,58.06 C79.8066655,58.06 82.5366654,54.0700001 82.5366654,48.4000002 C82.5366654,42.3100003 79.0366655,38.0400003 72.3166656,38.0400003 L72.3166656,38.0400003 Z M827.943321,25.5100005 C827.528506,26.7025931 826.652786,29.0858578 825.799826,31.5502077 L825.799826,31.5502077 L825.545105,32.2908356 C825.334212,32.9082034 825.127765,33.5237041 824.933321,34.1200004 L824.933321,34.1200004 L823.183321,39.3700003 C822.553321,41.2600003 822.903321,41.4700003 824.653321,41.4700003 L831.390134,41.4692484 C832.865643,41.4542114 833.174654,41.1993336 832.633321,39.4400003 L832.633321,39.4400003 L830.813321,33.7700004 C830.595543,33.1011115 830.363938,32.3941979 830.128492,31.6830594 L830.128492,31.6830594 L829.892136,30.9717644 C829.141963,28.7227988 828.386654,26.5444449 827.943321,25.5100005 Z M245.33333,25.5100005 C244.918515,26.7025931 244.042795,29.0858578 243.189835,31.5502077 L243.189835,31.5502077 L242.935114,32.2908356 C242.724221,32.9082034 242.517774,33.5237041 242.32333,34.1200004 L242.32333,34.1200004 L240.57333,39.3700003 C239.94333,41.2600003 240.29333,41.4700003 242.04333,41.4700003 L248.780143,41.4692484 C250.255652,41.4542114 250.564663,41.1993336 250.02333,39.4400003 L250.02333,39.4400003 L248.20333,33.7700004 C247.985552,33.1011115 247.753947,32.3941979 247.518501,31.6830594 L247.518501,31.6830594 L247.282145,30.9717644 C246.531972,28.7227988 245.776663,26.5444449 245.33333,25.5100005 Z M601.983324,25.5100005 C601.568509,26.7025931 600.692789,29.0858578 599.83983,31.5502077 L599.83983,31.5502077 L599.585108,32.2908356 C599.374216,32.9082034 599.167769,33.5237041 598.973324,34.1200004 L598.973324,34.1200004 L597.223324,39.3700003 C596.593324,41.2600003 596.943324,41.4700003 598.693324,41.4700003 L605.430137,41.4692484 C606.905646,41.4542114 607.214657,41.1993336 606.673324,39.4400003 L606.673324,39.4400003 L604.853324,33.7700004 C604.635546,33.1011115 604.403941,32.3941979 604.168496,31.6830594 L604.168496,31.6830594 L603.932139,30.9717644 C603.181966,28.7227988 602.426657,26.5444449 601.983324,25.5100005 Z M113.523332,17.8100006 C110.653332,17.8100006 110.513332,18.0200006 110.513332,21.3800006 L110.513653,35.1833608 C110.524042,37.4888414 110.811204,37.6900003 114.853332,37.6900003 C117.373332,37.6900003 118.843332,37.0600003 120.173332,35.7300004 C121.363331,34.5400004 122.693331,32.3000004 122.693331,28.1700005 C122.693331,21.8700006 118.983332,17.8100006 113.523332,17.8100006 Z M71.8266656,17.8100006 C68.5366656,17.8100006 68.4666656,18.3700006 68.4666656,21.4500006 L68.4668232,33.1242707 C68.4718522,34.8264363 68.6213168,34.9600004 72.1766656,34.9600004 C78.1966655,34.9600004 80.4366655,31.1100004 80.4366655,26.9100005 C80.4366655,20.8200006 76.6566655,17.8100006 71.8266656,17.8100006 Z M177.806664,14.5900007 C177.106664,14.8000007 177.036664,16.4800006 177.526664,17.0400006 L177.814,17.0800009 L177.862233,16.7034527 C177.963035,15.9320828 178.07678,15.2239012 178.200421,14.6149428 L178.202,14.6050009 L177.806664,14.5900007 L177.806664,14.5900007 Z M666.476656,0.730000861 C667.106656,0.730000861 667.526656,1.71000085 667.386656,2.55000083 L667.386656,2.55000083 L658.356657,10.7400007 C657.306657,11.6500007 656.256657,11.6500007 655.276657,10.7400007 L655.276657,10.7400007 L646.316657,2.55000083 C646.176657,1.71000085 646.666657,0.80000086 647.156657,0.730000861 L647.156657,0.730000861 L655.626657,4.23000086 C656.536657,4.58000081 657.096657,4.7200008 658.076657,4.30000081 L658.076657,4.30000081 Z M527.129992,0.730000861 C527.759992,0.730000861 528.179992,1.71000085 528.039992,2.55000083 L528.039992,2.55000083 L519.009992,10.7400007 C517.959992,11.6500007 516.909992,11.6500007 515.929992,10.7400007 L515.929992,10.7400007 L506.969992,2.55000083 C506.829992,1.71000085 507.319992,0.80000086 507.809992,0.730000861 L507.809992,0.730000861 L516.279992,4.7900008 C517.189992,5.2100008 517.749992,5.2800008 518.729992,4.7900008 L518.729992,4.7900008 Z" id="Combined-Shape" fill="#FFFFFF" fill-rule="nonzero"></path>
    </g>
</svg>