<?xml version="1.0" encoding="UTF-8"?>
<svg width="639px" height="81px" viewBox="0 0 639 81" version="1.1" xmlns="http://www.w3.org/2000/svg" xmlns:xlink="http://www.w3.org/1999/xlink">
    <!-- Generator: Sketch 53.2 (72643) - https://sketchapp.com -->
    <title>Combined Shape</title>
    <desc>Created with Sketch.</desc>
    <g id="Page-1" stroke="none" stroke-width="1" fill="none" fill-rule="evenodd">
        <g id="oracle" fill="#FFFFFF" fill-rule="nonzero">
            <path d="M265.99719,52.11669 L306.6491,52.11669 L285.15382,17.534 L245.70257,80.06102 L227.74762,80.06102 L275.73349,4.95274 C277.81988,1.91805 281.29702,0.08464 285.15382,0.08464 C288.8837,0.08464 292.3609,1.85486 294.3841,4.8263 L342.5596,80.06102 L324.6046,80.06102 L316.1327,66.08886 L274.97467,66.08886 L265.99719,52.11669 Z M452.5035,66.08886 L523.5023,66.08886 L514.5248,80.06102 L445.0432,80.06102 C442.8936,80.06102 440.9336,79.23915 439.4797,77.785 C438.0257,76.3309 437.2669,74.43425 437.2669,72.47435 L437.2669,0.84331 L452.5035,0.84331 L452.5035,66.08886 Z M200.43553,54.39271 L193.48125,54.39271 L224.0809,80.06102 L201.95267,80.06102 L156.47077,40.42054 L199.42393,40.48379 C206.50511,40.48379 212.19502,34.73053 212.19502,27.64961 C212.19502,20.56868 206.50511,14.81548 199.42393,14.81548 L149.01043,14.81548 L149.01043,80.06102 L133.77987,80.06102 L133.77987,0.84331 L200.43553,0.84331 C215.22981,0.84331 227.24208,12.85558 227.24208,27.64961 C227.24208,42.44369 215.22981,54.39271 200.43553,54.39271 Z M40.02141,80.06102 C18.15252,80.06102 0.40586,62.35874 0.40586,40.48379 C0.40586,18.60879 18.15252,0.84331 40.02141,0.84331 L86.06598,0.84331 C107.94093,0.84331 125.67496,18.60879 125.67496,40.48379 C125.67496,62.35874 107.94093,80.06102 86.06598,80.06102 L40.02141,80.06102 Z M85.04175,66.08886 C99.21016,66.08886 110.68503,54.64558 110.68503,40.48379 C110.68503,26.32194 99.21016,14.81548 85.04175,14.81548 L41.03907,14.81548 C26.87723,14.81548 15.39578,26.32194 15.39578,40.48379 C15.39578,54.64558 26.87723,66.08886 41.03907,66.08886 L85.04175,66.08886 Z M374.3604,80.06102 C352.4854,80.06102 334.7201,62.35874 334.7201,40.48379 C334.7201,18.60879 352.4854,0.84331 374.3604,0.84331 L429.0478,0.84331 L420.1335,14.81548 L375.372,14.81548 C361.2101,14.81548 349.7039,26.32194 349.7039,40.48379 C349.7039,54.64558 361.2101,66.08886 375.372,66.08886 L430.3121,66.08886 L421.3347,80.06102 L374.3604,80.06102 Z M560.6771,66.08886 L615.6172,66.08886 L606.6398,80.06102 L559.6655,80.06102 C537.7905,80.06102 520.0252,62.35874 520.0252,40.48379 C520.0252,18.60879 537.7905,0.84331 559.6655,0.84331 L614.4161,0.84331 L605.3754,14.81548 L560.6771,14.81548 C548.9808,14.81548 539.0549,22.71826 536.0201,33.46606 L610.1169,33.46606 L601.1394,47.43822 L536.0201,47.43822 C539.0549,58.24926 548.9808,66.08886 560.6771,66.08886 Z M622.572,9.2519 C622.572,13.17164 625.6695,16.26958 629.5263,16.26958 C633.4463,16.26958 636.5438,13.17164 636.5438,9.2519 C636.5438,5.39529 633.4463,2.29741 629.5263,2.29741 C625.6695,2.29741 622.572,5.39529 622.572,9.2519 Z M629.5263,18.22947 C624.6579,18.22947 620.6752,14.24643 620.6752,9.31509 C620.6752,4.38375 624.6579,0.40076 629.5263,0.40076 C634.4574,0.40076 638.4406,4.38375 638.4406,9.31509 C638.4406,14.24643 634.4574,18.22947 629.5263,18.22947 Z M628.7043,4.00444 C630.0951,4.00444 630.6643,4.06763 631.2967,4.3205 C633.0667,4.88955 633.2562,6.47008 633.2562,7.10232 C633.2562,7.22876 633.2562,7.54487 633.1298,7.92418 C633.0667,8.30355 632.8139,9.06222 631.9287,9.63121 C631.8023,9.69445 631.7391,9.75765 631.4863,9.88408 L633.7623,13.99356 L631.5495,13.99356 L629.5263,10.2002 L628.1356,10.2002 L628.1356,13.99356 L626.1756,13.99356 L626.1756,4.00444 L628.7043,4.00444 Z M629.3999,8.55642 C630.0319,8.49323 630.6643,8.49323 631.0435,7.92418 C631.233,7.67131 631.2967,7.41844 631.2967,7.03907 C631.2967,6.53333 630.9803,6.09077 630.5379,5.83785 C630.0951,5.64822 629.6527,5.64822 628.7043,5.64822 L628.1356,5.64822 L628.1356,8.55642 L629.3999,8.55642 Z" id="Combined-Shape"></path>
        </g>
    </g>
</svg>