<?xml version="1.0" encoding="UTF-8"?>
<svg width="500px" height="94px" viewBox="0 0 500 94" version="1.1" xmlns="http://www.w3.org/2000/svg" xmlns:xlink="http://www.w3.org/1999/xlink">
    <title>own.solutions</title>
    <g id="Page-1" stroke="none" stroke-width="1" fill="none" fill-rule="evenodd">
        <g id="own.solutions" fill="#FFFFFF" fill-rule="nonzero">
            <path d="M83.6704385,75.9618105 C84.3069307,75.9618105 84.8797737,76.0749646 85.4031117,76.3083451 C85.9193777,76.5417256 86.3578501,76.874116 86.718529,77.3055163 C87.0862801,77.7369165 87.3620934,78.2602546 87.553041,78.8684583 C87.7439887,79.476662 87.8429986,80.1697313 87.8429986,80.9405941 C87.8429986,81.3932107 87.8076379,81.874116 87.7298444,82.3762376 C87.5884017,83.3734088 87.3408769,84.2786421 86.9943423,85.0777935 C86.6407355,85.8769448 86.2093352,86.5558699 85.6930693,87.1145686 C85.1768034,87.6732673 84.5898161,88.0975955 83.9321075,88.3946252 C83.2673267,88.6916549 82.5671853,88.8401697 81.8104668,88.8401697 C81.4002829,88.8401697 81.0325318,88.8048091 80.7072136,88.748232 C80.3889675,88.6845827 80.0990099,88.592645 79.8302687,88.4794908 C79.5685997,88.3663366 79.3352192,88.2178218 79.1230552,88.0480905 C78.9108911,87.8783593 78.7057992,87.6803395 78.5148515,87.4681754 L77.6308345,93.5502122 L75.3041018,93.5502122 L77.8217822,76.2093352 L79.8797737,76.2093352 L79.8797737,77.4257426 C80.1485149,77.1923621 80.4031117,76.9872702 80.6647808,76.8033946 C80.9193777,76.6195191 81.1951909,76.4710042 81.4922207,76.3437058 C81.7892504,76.2234795 82.1145686,76.1244696 82.4611033,76.0608204 C82.8076379,75.9971711 83.2178218,75.9618105 83.6704385,75.9618105 Z M318.613861,75.9547383 C319.356436,75.9547383 320.028289,76.0749646 320.636492,76.3083451 C321.244696,76.5417256 321.760962,76.8811881 322.199434,77.3267327 C322.630835,77.7652051 322.970297,78.3097595 323.21075,78.9462518 C323.451202,79.5898161 323.571429,80.311174 323.571429,81.1244696 C323.571429,81.3295615 323.564356,81.5417256 323.54314,81.7468175 C323.528996,81.9589816 323.500707,82.1711457 323.472419,82.397454 C323.323904,83.4299859 323.048091,84.3493635 322.659123,85.1485149 C322.263083,85.9476662 321.768034,86.6265912 321.181047,87.1711457 C320.594059,87.7157001 319.922207,88.1329562 319.165488,88.4158416 C318.415842,88.698727 317.609618,88.8472419 316.75389,88.8472419 C316.011315,88.8472419 315.33239,88.7340877 314.731259,88.5007072 C314.130127,88.2673267 313.613861,87.9278642 313.182461,87.4893918 C312.751061,87.0438472 312.41867,86.5063649 312.18529,85.8698727 C311.951909,85.2333805 311.831683,84.5120226 311.831683,83.698727 C311.831683,83.4936351 311.838755,83.281471 311.859972,83.0693069 C311.8529,82.8571429 311.881188,82.6308345 311.916549,82.397454 C312.065064,81.3719943 312.333805,80.4596888 312.729844,79.6605375 C313.118812,78.8613861 313.606789,78.1824611 314.193777,77.6379066 C314.773692,77.0862801 315.445545,76.669024 316.195191,76.3861386 C316.944837,76.1032532 317.751061,75.9547383 318.613861,75.9547383 Z M243.628006,75.9547383 C244.37058,75.9547383 245.042433,76.0749646 245.650636,76.3083451 C246.25884,76.5417256 246.775106,76.8811881 247.213579,77.3267327 C247.644979,77.7652051 247.984441,78.3097595 248.224894,78.9462518 C248.465347,79.5898161 248.585573,80.311174 248.585573,81.1244696 C248.585573,81.3295615 248.578501,81.5417256 248.557284,81.7468175 C248.54314,81.9589816 248.514851,82.1711457 248.486563,82.397454 C248.338048,83.4299859 248.062235,84.3493635 247.673267,85.1485149 C247.277228,85.9476662 246.782178,86.6265912 246.195191,87.1711457 C245.608204,87.7157001 244.936351,88.1329562 244.179632,88.4158416 C243.429986,88.698727 242.623762,88.8472419 241.768034,88.8472419 C241.02546,88.8472419 240.346535,88.7340877 239.745403,88.5007072 C239.144272,88.2673267 238.628006,87.9278642 238.196605,87.4893918 C237.765205,87.0438472 237.432815,86.5063649 237.199434,85.8698727 C236.966054,85.2333805 236.845827,84.5120226 236.845827,83.698727 C236.845827,83.4936351 236.8529,83.281471 236.874116,83.0693069 C236.874116,82.8571429 236.902405,82.6308345 236.930693,82.397454 C237.079208,81.3719943 237.347949,80.4596888 237.743989,79.6605375 C238.132956,78.8613861 238.620934,78.1824611 239.207921,77.6379066 C239.787836,77.0862801 240.459689,76.669024 241.209335,76.3861386 C241.958982,76.1032532 242.765205,75.9547383 243.628006,75.9547383 Z M221.916549,75.9618105 C222.786421,75.9618105 223.54314,76.039604 224.186704,76.2093352 C224.830269,76.3719943 225.339463,76.5558699 225.714286,76.7538897 L225.091938,78.4512023 C224.823197,78.3592645 224.561528,78.2743989 224.321075,78.1895332 C224.080622,78.1117397 223.833098,78.0339463 223.578501,77.9773692 C223.323904,77.9137199 223.048091,77.864215 222.758133,77.8288543 C222.468175,77.7934936 222.142857,77.7722772 221.768034,77.7722772 C220.975955,77.7722772 220.374823,77.9207921 219.957567,78.2107496 C219.540311,78.5077793 219.306931,78.9108911 219.250354,79.4342291 C219.229137,79.6817539 219.243281,79.9080622 219.299859,80.106082 C219.356436,80.3041018 219.46959,80.4809052 219.639321,80.6506365 C219.809052,80.8132956 220.035361,80.9688826 220.33239,81.1032532 C220.622348,81.2376238 220.983027,81.3719943 221.421499,81.4922207 C222.057992,81.6619519 222.609618,81.8599717 223.083451,82.0792079 C223.557284,82.291372 223.946252,82.5318246 224.250354,82.7934936 C224.561528,83.0622348 224.794908,83.3521924 224.943423,83.6704385 C225.09901,83.9957567 225.176803,84.3564356 225.176803,84.7595474 C225.176803,84.8231966 225.176803,84.893918 225.169731,84.9575672 C225.183876,85.0212164 225.176803,85.0848656 225.169731,85.1485149 C225.106082,85.7142857 224.936351,86.2164074 224.674682,86.6760962 C224.405941,87.1287129 224.066478,87.5176803 223.628006,87.8429986 C223.196605,88.1612447 222.687412,88.4158416 222.107496,88.5855728 C221.527581,88.7553041 220.898161,88.8472419 220.212164,88.8472419 C219.787836,88.8472419 219.37058,88.8260255 218.953324,88.7765205 C218.536068,88.7270156 218.140028,88.6633663 217.765205,88.5855728 C217.390382,88.5007072 217.043847,88.4016973 216.718529,88.281471 C216.393211,88.1612447 216.117397,88.0268741 215.876945,87.8783593 L216.506365,86.145686 C216.810467,86.2659123 217.100424,86.3861386 217.38331,86.4922207 C217.666195,86.5983027 217.956153,86.6973126 218.260255,86.7751061 C218.564356,86.8528996 218.889675,86.9236209 219.236209,86.9660537 C219.582744,87.0084866 219.957567,87.029703 220.381895,87.029703 C221.166902,87.029703 221.75389,86.874116 222.135785,86.5700141 C222.524752,86.2659123 222.751061,85.8132956 222.821782,85.2192362 C222.850071,84.9646393 222.807638,84.738331 222.701556,84.533239 C222.595474,84.3281471 222.439887,84.1513437 222.220651,83.9816124 C222.008487,83.8189533 221.739745,83.6704385 221.421499,83.5360679 C221.103253,83.4016973 220.742574,83.281471 220.346535,83.1612447 C219.844413,83.019802 219.377652,82.8500707 218.960396,82.6591231 C218.54314,82.4681754 218.175389,82.2347949 217.871287,81.9660537 C217.567185,81.6973126 217.326733,81.3932107 217.149929,81.0608204 C216.980198,80.7213579 216.88826,80.3394625 216.88826,79.9222065 C216.88826,79.8585573 216.88826,79.7949081 216.895332,79.738331 C216.902405,79.6817539 216.909477,79.6181047 216.916549,79.5544554 C216.973126,78.9957567 217.135785,78.4865629 217.404526,78.0410184 C217.673267,77.5954738 218.026874,77.2206506 218.465347,76.9094767 C218.903819,76.5983027 219.413013,76.3649222 220,76.2022631 C220.586987,76.039604 221.223479,75.9618105 221.916549,75.9618105 Z M63.592645,75.9688826 C64.2008487,75.9688826 64.7736917,76.0608204 65.3041018,76.2446959 C65.8415842,76.4285714 66.301273,76.6973126 66.6902405,77.0509194 C67.0792079,77.4045262 67.3903819,77.8288543 67.6166902,78.3380481 C67.8429986,78.8472419 67.9561528,79.4200849 67.9561528,80.0707214 C67.9561528,80.2050919 67.9490806,80.3394625 67.9349364,80.4809052 C67.9207921,80.6223479 67.9066478,80.7567185 67.8925035,80.9052334 L67.6308345,82.7157001 L59.3493635,82.7157001 L59.3493635,82.6944837 C59.3281471,82.8571429 59.3140028,83.0268741 59.3069307,83.1895332 C59.2927864,83.3521924 59.2857143,83.5077793 59.2857143,83.6633663 C59.2857143,84.7454031 59.5544554,85.5799151 60.0848656,86.1598303 C60.6152758,86.7468175 61.4144272,87.0367751 62.4823197,87.0367751 C63.2743989,87.0367751 63.960396,86.9589816 64.533239,86.8033946 C65.106082,86.6478076 65.5869873,86.4922207 65.9759547,86.3437058 L66.3083451,87.9278642 C65.7708628,88.2178218 65.1485149,88.4441301 64.4413013,88.6067893 C63.7411598,88.7694484 62.9985856,88.8472419 62.2206506,88.8472419 C61.3861386,88.8472419 60.6435644,88.7340877 59.9929279,88.5148515 C59.3422914,88.2885431 58.7906648,87.9632249 58.3380481,87.5318246 C57.8854314,87.1004243 57.5388967,86.5770863 57.3055163,85.9547383 C57.0650636,85.3323904 56.9448373,84.6181047 56.9448373,83.8189533 C56.9448373,83.6138614 56.9519095,83.4016973 56.9660537,83.1824611 C56.9872702,82.9632249 57.0084866,82.7369165 57.0367751,82.5035361 C57.1923621,81.4356436 57.4611033,80.5021216 57.8429986,79.688826 C58.2178218,78.8755304 58.698727,78.1895332 59.2644979,77.6379066 C59.8302687,77.0862801 60.4879774,76.669024 61.2164074,76.3861386 C61.9448373,76.1103253 62.7369165,75.9688826 63.592645,75.9688826 Z M97.2206506,75.9547383 C97.9632249,75.9547383 98.6350778,76.0749646 99.2432815,76.3083451 C99.8514851,76.5417256 100.367751,76.8811881 100.806223,77.3267327 C101.237624,77.7652051 101.577086,78.3097595 101.817539,78.9462518 C102.057992,79.5898161 102.178218,80.311174 102.178218,81.1244696 C102.178218,81.3295615 102.171146,81.5417256 102.149929,81.7468175 C102.135785,81.9589816 102.107496,82.1711457 102.079208,82.397454 C101.930693,83.4299859 101.65488,84.3493635 101.265912,85.1485149 C100.869873,85.9476662 100.374823,86.6265912 99.7878359,87.1711457 C99.2008487,87.7157001 98.5289958,88.1329562 97.7722772,88.4158416 C97.0226308,88.698727 96.2164074,88.8472419 95.3606789,88.8472419 C94.6181047,88.8472419 93.9391796,88.7340877 93.3380481,88.5007072 C92.7369165,88.2673267 92.2206506,87.9278642 91.7892504,87.4893918 C91.3578501,87.0438472 91.0254597,86.5063649 90.7920792,85.8698727 C90.5586987,85.2333805 90.4384724,84.5120226 90.4384724,83.698727 C90.4384724,83.4936351 90.4455446,83.281471 90.466761,83.0693069 C90.4879774,82.8571429 90.4879774,82.6308345 90.523338,82.397454 C90.6718529,81.3719943 90.9405941,80.4596888 91.3366337,79.6605375 C91.7256011,78.8613861 92.2135785,78.1824611 92.8005658,77.6379066 C93.3804809,77.0862801 94.0523338,76.669024 94.8019802,76.3861386 C95.5516266,76.1032532 96.3578501,75.9547383 97.2206506,75.9547383 Z M147.871287,75.9547383 C148.613861,75.9547383 149.285714,76.0749646 149.893918,76.3083451 C150.502122,76.5417256 151.018388,76.8811881 151.45686,77.3267327 C151.88826,77.7652051 152.227723,78.3097595 152.468175,78.9462518 C152.708628,79.5898161 152.828854,80.311174 152.828854,81.1244696 C152.828854,81.3295615 152.821782,81.5417256 152.800566,81.7468175 C152.786421,81.9589816 152.758133,82.1711457 152.729844,82.397454 C152.58133,83.4299859 152.305516,84.3493635 151.916549,85.1485149 C151.520509,85.9476662 151.02546,86.6265912 150.438472,87.1711457 C149.851485,87.7157001 149.179632,88.1329562 148.422914,88.4158416 C147.673267,88.698727 146.867044,88.8472419 146.011315,88.8472419 C145.268741,88.8472419 144.589816,88.7340877 143.988685,88.5007072 C143.387553,88.2673267 142.871287,87.9278642 142.439887,87.4893918 C142.008487,87.0438472 141.676096,86.5063649 141.442716,85.8698727 C141.209335,85.2333805 141.089109,84.5120226 141.089109,83.698727 C141.089109,83.4936351 141.096181,83.281471 141.117397,83.0693069 C141.138614,82.8571429 141.138614,82.6308345 141.173975,82.397454 C141.322489,81.3719943 141.591231,80.4596888 141.98727,79.6605375 C142.376238,78.8613861 142.864215,78.1824611 143.451202,77.6379066 C144.031117,77.0862801 144.70297,76.669024 145.452617,76.3861386 C146.202263,76.1032532 147.008487,75.9547383 147.871287,75.9547383 Z M195.113154,75.9618105 C195.700141,75.9618105 196.209335,76.0608204 196.633663,76.2588402 C197.065064,76.45686 197.41867,76.6760962 197.701556,76.9306931 L198.097595,76.2093352 L199.830269,76.2093352 L198.033946,88.592645 L195.990099,88.592645 L195.975955,86.9448373 C195.438472,87.5459689 194.858557,88.0127298 194.243281,88.3451202 C193.620934,88.6775106 192.885431,88.8401697 192.036775,88.8401697 C190.855728,88.8401697 189.964639,88.5077793 189.356436,87.8359264 C188.748232,87.1640736 188.44413,86.1881188 188.44413,84.9151344 C188.44413,84.476662 188.479491,84.009901 188.557284,83.5148515 C188.719943,82.3903819 189.009901,81.3649222 189.427157,80.4384724 C189.837341,79.5120226 190.339463,78.7128713 190.919378,78.0551627 C191.499293,77.397454 192.149929,76.8811881 192.871287,76.5134371 C193.592645,76.145686 194.335219,75.9618105 195.113154,75.9618105 Z M288.521924,75.9618105 C289.108911,75.9618105 289.618105,76.0608204 290.042433,76.2588402 C290.473833,76.45686 290.82744,76.6760962 291.110325,76.9306931 L291.506365,76.2093352 L293.239038,76.2093352 L291.442716,88.592645 L289.398868,88.592645 L289.384724,86.9448373 C288.847242,87.5459689 288.267327,88.0127298 287.652051,88.3451202 C287.029703,88.6775106 286.294201,88.8401697 285.445545,88.8401697 C284.264498,88.8401697 283.373409,88.5077793 282.765205,87.8359264 C282.157001,87.1640736 281.8529,86.1881188 281.8529,84.9151344 C281.8529,84.476662 281.88826,84.009901 281.966054,83.5148515 C282.128713,82.3903819 282.41867,81.3649222 282.835926,80.4384724 C283.24611,79.5120226 283.748232,78.7128713 284.328147,78.0551627 C284.908062,77.397454 285.558699,76.8811881 286.280057,76.5134371 C287.001414,76.145686 287.743989,75.9618105 288.521924,75.9618105 Z M300.693069,72.7439887 L300.183876,76.2093352 L303.691655,76.2093352 L303.429986,78.019802 L299.922207,78.019802 L298.967468,84.6322489 C298.93918,84.7878359 298.925035,84.9363508 298.917963,85.0707214 C298.910891,85.2050919 298.903819,85.3323904 298.903819,85.4455446 C298.903819,85.9830269 299.024045,86.3507779 299.250354,86.562942 C299.483734,86.7751061 299.844413,86.8811881 300.339463,86.8811881 C300.523338,86.8811881 300.714286,86.874116 300.92645,86.8528996 C301.131542,86.8387553 301.336634,86.8175389 301.534653,86.7892504 C301.732673,86.7680339 301.923621,86.7397454 302.100424,86.7114569 C302.277228,86.6831683 302.425743,86.6548798 302.553041,86.6265912 L302.38331,88.3097595 C302.227723,88.3592645 302.043847,88.4087694 301.845827,88.4512023 C301.647808,88.5007072 301.435644,88.5360679 301.209335,88.5714286 C300.983027,88.6067893 300.756719,88.6280057 300.53041,88.6492221 C300.29703,88.6704385 300.077793,88.6845827 299.858557,88.6845827 C299.363508,88.6845827 298.910891,88.6421499 298.500707,88.5502122 C298.090523,88.4653465 297.743989,88.3168317 297.454031,88.0975955 C297.164074,87.8783593 296.937765,87.5884017 296.782178,87.2065064 C296.626591,86.8316832 296.548798,86.3578501 296.548798,85.7779349 C296.548798,85.6082037 296.55587,85.417256 296.562942,85.2263083 C296.577086,85.0353607 296.598303,84.8302687 296.633663,84.6110325 L297.602546,77.9985856 L295.622348,77.9985856 L296.152758,76.2093352 L297.850071,76.2093352 L298.323904,72.9915134 L300.693069,72.7439887 Z M38.2178218,72.7439887 L37.708628,76.2093352 L41.2164074,76.2093352 L40.9547383,78.019802 L37.446959,78.019802 L36.4922207,84.6322489 C36.4639321,84.7878359 36.4497878,84.9363508 36.4427157,85.0707214 C36.4356436,85.2050919 36.4285714,85.3323904 36.4285714,85.4455446 C36.4285714,85.9830269 36.5487977,86.3507779 36.7751061,86.562942 C37.0084866,86.7751061 37.3691655,86.8811881 37.864215,86.8811881 C38.0480905,86.8811881 38.2390382,86.874116 38.4512023,86.8528996 C38.6633663,86.8316832 38.8613861,86.8175389 39.0594059,86.7892504 C39.2574257,86.7680339 39.4483734,86.7397454 39.6251768,86.7114569 C39.8019802,86.6831683 39.950495,86.6548798 40.0777935,86.6265912 L39.9080622,88.3097595 C39.7524752,88.3592645 39.5685997,88.4087694 39.3705799,88.4512023 C39.1725601,88.5007072 38.960396,88.5360679 38.7340877,88.5714286 C38.5077793,88.6067893 38.281471,88.6280057 38.0551627,88.6492221 C37.8217822,88.6704385 37.602546,88.6845827 37.3833098,88.6845827 C36.8882603,88.6845827 36.4356436,88.6421499 36.0254597,88.5502122 C35.6152758,88.4653465 35.2687412,88.3168317 34.9787836,88.0975955 C34.688826,87.8783593 34.4625177,87.5884017 34.3069307,87.2065064 C34.1513437,86.8316832 34.0735502,86.3578501 34.0735502,85.7779349 C34.0735502,85.6082037 34.0806223,85.417256 34.0876945,85.2263083 C34.1018388,85.0353607 34.1230552,84.8302687 34.1584158,84.6110325 L35.1272984,77.9985856 L33.1471004,77.9985856 L33.6775106,76.2093352 L35.3748232,76.2093352 L35.8486563,72.9915134 L38.2178218,72.7439887 Z M175.339463,72.7439887 L174.830269,76.2093352 L178.338048,76.2093352 L178.076379,78.019802 L174.5686,78.019802 L173.613861,84.6322489 C173.585573,84.7878359 173.571429,84.9363508 173.564356,85.0707214 C173.557284,85.2050919 173.550212,85.3323904 173.550212,85.4455446 C173.550212,85.9830269 173.670438,86.3507779 173.896747,86.562942 C174.130127,86.7751061 174.490806,86.8811881 174.985856,86.8811881 C175.169731,86.8811881 175.360679,86.874116 175.572843,86.8528996 C175.785007,86.8316832 175.983027,86.8175389 176.181047,86.7892504 C176.379066,86.7680339 176.570014,86.7397454 176.746818,86.7114569 C176.923621,86.6831683 177.072136,86.6548798 177.199434,86.6265912 L177.029703,88.3097595 C176.874116,88.3592645 176.69024,88.4087694 176.492221,88.4512023 C176.294201,88.5007072 176.082037,88.5360679 175.855728,88.5714286 C175.62942,88.6067893 175.403112,88.6280057 175.176803,88.6492221 C174.943423,88.6704385 174.724187,88.6845827 174.50495,88.6845827 C174.009901,88.6845827 173.557284,88.6421499 173.1471,88.5502122 C172.736917,88.4653465 172.390382,88.3168317 172.100424,88.0975955 C171.810467,87.8783593 171.584158,87.5884017 171.428571,87.2065064 C171.272984,86.8316832 171.195191,86.3578501 171.195191,85.7779349 C171.195191,85.6082037 171.202263,85.417256 171.209335,85.2263083 C171.223479,85.0353607 171.244696,84.8302687 171.280057,84.6110325 L172.248939,77.9985856 L170.268741,77.9985856 L170.799151,76.2093352 L172.496464,76.2093352 L172.970297,72.9915134 L175.339463,72.7439887 Z M22.6379066,72.7439887 L22.1287129,76.2093352 L25.6364922,76.2093352 L25.3748232,78.019802 L21.8670438,78.019802 L20.9123055,84.6322489 C20.884017,84.7878359 20.8698727,84.9363508 20.8628006,85.0707214 C20.8557284,85.2050919 20.8486563,85.3323904 20.8486563,85.4455446 C20.8486563,85.9830269 20.9688826,86.3507779 21.1951909,86.562942 C21.4285714,86.7751061 21.7892504,86.8811881 22.2842999,86.8811881 C22.4681754,86.8811881 22.6591231,86.874116 22.8712871,86.8528996 C23.0763791,86.8387553 23.281471,86.8175389 23.4794908,86.7892504 C23.6775106,86.7680339 23.8684583,86.7397454 24.0452617,86.7114569 C24.2220651,86.6831683 24.3705799,86.6548798 24.4978784,86.6265912 L24.3281471,88.3097595 C24.1725601,88.3592645 23.9886846,88.4087694 23.7906648,88.4512023 C23.592645,88.5007072 23.3804809,88.5360679 23.1541726,88.5714286 C22.9278642,88.6067893 22.7015559,88.6280057 22.4752475,88.6492221 C22.241867,88.6704385 22.0226308,88.6845827 21.8033946,88.6845827 C21.3083451,88.6845827 20.8557284,88.6421499 20.4455446,88.5502122 C20.0353607,88.4653465 19.688826,88.3168317 19.3988685,88.0975955 C19.1089109,87.8783593 18.8826025,87.5884017 18.7270156,87.2065064 C18.5714286,86.8316832 18.4936351,86.3578501 18.4936351,85.7779349 C18.4936351,85.6082037 18.5007072,85.417256 18.5077793,85.2263083 C18.5219236,85.0353607 18.54314,84.8302687 18.5785007,84.6110325 L19.5473833,77.9985856 L17.5671853,77.9985856 L18.0975955,76.2093352 L19.7949081,76.2093352 L20.2687412,72.9915134 L22.6379066,72.7439887 Z M130.650636,72.7439887 L130.141443,76.2093352 L133.649222,76.2093352 L133.387553,78.019802 L129.879774,78.019802 L128.925035,84.6322489 C128.896747,84.7878359 128.882603,84.9363508 128.87553,85.0707214 C128.868458,85.2050919 128.861386,85.3323904 128.861386,85.4455446 C128.861386,85.9830269 128.981612,86.3507779 129.207921,86.562942 C129.441301,86.7751061 129.80198,86.8811881 130.29703,86.8811881 C130.480905,86.8811881 130.671853,86.874116 130.884017,86.8528996 C131.089109,86.8387553 131.294201,86.8175389 131.492221,86.7892504 C131.69024,86.7680339 131.881188,86.7397454 132.057992,86.7114569 C132.234795,86.6831683 132.38331,86.6548798 132.510608,86.6265912 L132.340877,88.3097595 C132.18529,88.3592645 132.001414,88.4087694 131.803395,88.4512023 C131.605375,88.5007072 131.393211,88.5360679 131.166902,88.5714286 C130.940594,88.6067893 130.714286,88.6280057 130.487977,88.6492221 C130.254597,88.6704385 130.035361,88.6845827 129.816124,88.6845827 C129.321075,88.6845827 128.868458,88.6421499 128.458274,88.5502122 C128.048091,88.4653465 127.701556,88.3168317 127.411598,88.0975955 C127.121641,87.8783593 126.895332,87.5884017 126.739745,87.2065064 C126.584158,86.8316832 126.506365,86.3578501 126.506365,85.7779349 C126.506365,85.6082037 126.513437,85.417256 126.520509,85.2263083 C126.534653,85.0353607 126.55587,84.8302687 126.591231,84.6110325 L127.560113,77.9985856 L125.579915,77.9985856 L126.110325,76.2093352 L127.807638,76.2093352 L128.281471,72.9915134 L130.650636,72.7439887 Z M162.362093,71.0042433 C162.560113,71.0042433 162.765205,71.0183876 162.970297,71.039604 C163.182461,71.0608204 163.387553,71.0891089 163.599717,71.1173975 C163.804809,71.1527581 163.995757,71.1881188 164.179632,71.2376238 C164.356436,71.2800566 164.512023,71.3295615 164.653465,71.3790665 L164.335219,73.0622348 C164.214993,73.0339463 164.080622,73.0056577 163.925035,72.9844413 C163.769448,72.9561528 163.599717,72.9278642 163.422914,72.9066478 C163.24611,72.8783593 163.062235,72.8571429 162.878359,72.8429986 C162.694484,72.8288543 162.510608,72.81471 162.340877,72.81471 C161.973126,72.81471 161.65488,72.864215 161.379066,72.9490806 C161.103253,73.0410184 160.862801,73.1895332 160.657709,73.4016973 C160.452617,73.6138614 160.289958,73.8826025 160.155587,74.2220651 C160.021216,74.5544554 159.915134,74.9646393 159.844413,75.4455446 L159.731259,76.2164074 L163.239038,76.2164074 L162.977369,78.0268741 L159.46959,78.0268741 L157.934936,88.6067893 L155.608204,88.6067893 L157.142857,78.0268741 L155.445545,78.0268741 L155.933522,76.2093352 L157.404526,76.2093352 L157.51768,75.4384724 C157.652051,74.5403112 157.857143,73.7977369 158.132956,73.2248939 C158.408769,72.6520509 158.755304,72.1994342 159.165488,71.8670438 C159.575672,71.5346535 160.056577,71.3083451 160.594059,71.1881188 C161.131542,71.0608204 161.718529,71.0042433 162.362093,71.0042433 Z M47.446959,71.251768 L46.562942,77.3338048 C47.1923621,76.8953324 47.8500707,76.5558699 48.5289958,76.3224894 C49.2149929,76.0820368 49.9434229,75.9618105 50.7072136,75.9618105 C51.2093352,75.9618105 51.669024,76.0183876 52.0792079,76.1244696 C52.4893918,76.2305516 52.8429986,76.4144272 53.1400283,76.669024 C53.4299859,76.9236209 53.6562942,77.2630835 53.8260255,77.6803395 C53.9886846,78.0975955 54.0664781,78.6138614 54.0664781,79.2362093 C54.0664781,79.427157 54.0594059,79.6251768 54.0452617,79.844413 C54.0311174,80.0565771 54.0028289,80.2899576 53.9674682,80.5304102 L52.8005658,88.6067893 L50.4738331,88.6067893 L51.6407355,80.5304102 C51.6902405,80.1768034 51.7114569,79.8585573 51.7114569,79.5756719 C51.7114569,78.9250354 51.562942,78.4582744 51.2729844,78.1895332 C50.9830269,77.9207921 50.523338,77.7793494 49.9080622,77.7793494 C49.2644979,77.7793494 48.6350778,77.9066478 48.0339463,78.1612447 C47.4257426,78.4158416 46.8528996,78.748232 46.3083451,79.165488 L44.9292786,88.6067893 L42.602546,88.6067893 L45.1202263,71.251768 L47.446959,71.251768 Z M119.405941,75.9618105 C119.908062,75.9618105 120.367751,76.0113154 120.777935,76.1103253 C121.195191,76.2093352 121.548798,76.3790665 121.845827,76.6265912 C122.142857,76.874116 122.376238,77.1923621 122.538897,77.602546 C122.701556,78.0056577 122.786421,78.5148515 122.786421,79.1371994 C122.786421,79.3281471 122.779349,79.5261669 122.758133,79.7312588 C122.736917,79.9363508 122.7157,80.1626591 122.687412,80.4031117 L121.499293,88.6067893 L119.17256,88.6067893 L120.360679,80.4031117 C120.410184,80.0565771 120.4314,79.7524752 120.4314,79.4978784 C120.4314,78.8472419 120.282885,78.3946252 119.978784,78.1471004 C119.674682,77.8995757 119.214993,77.7722772 118.599717,77.7722772 C117.956153,77.7722772 117.326733,77.9066478 116.725601,78.1683168 C116.117397,78.4299859 115.537482,78.7623762 114.992928,79.1584158 L113.620934,88.5997171 L111.294201,88.5997171 L113.090523,76.2093352 L115.148515,76.2093352 L115.169731,77.3833098 C115.813296,76.9377652 116.485149,76.5912306 117.18529,76.3366337 C117.885431,76.0820368 118.620934,75.9618105 119.405941,75.9618105 Z M235.091938,71.0042433 C235.289958,71.0042433 235.49505,71.0183876 235.700141,71.039604 C235.912306,71.0608204 236.117397,71.0891089 236.329562,71.1173975 C236.534653,71.1527581 236.725601,71.1881188 236.909477,71.2376238 C237.08628,71.2800566 237.241867,71.3295615 237.38331,71.3790665 L237.065064,73.0622348 C236.944837,73.0339463 236.810467,73.0056577 236.65488,72.9844413 C236.499293,72.9561528 236.329562,72.9278642 236.152758,72.9066478 C235.975955,72.8783593 235.792079,72.8571429 235.608204,72.8429986 C235.424328,72.8288543 235.240453,72.81471 235.070721,72.81471 C234.70297,72.81471 234.384724,72.864215 234.108911,72.9490806 C233.833098,73.0410184 233.592645,73.1895332 233.387553,73.4016973 C233.182461,73.6138614 233.019802,73.8826025 232.885431,74.2220651 C232.751061,74.5544554 232.644979,74.9646393 232.574257,75.4455446 L232.461103,76.2164074 L235.968883,76.2164074 L235.707214,78.0268741 L232.199434,78.0268741 L230.664781,88.6067893 L228.338048,88.6067893 L229.872702,78.0268741 L228.175389,78.0268741 L228.663366,76.2093352 L230.134371,76.2093352 L230.247525,75.4384724 C230.381895,74.5403112 230.586987,73.7977369 230.862801,73.2248939 C231.138614,72.6520509 231.485149,72.1994342 231.895332,71.8670438 C232.305516,71.5346535 232.786421,71.3083451 233.323904,71.1881188 C233.861386,71.0608204 234.448373,71.0042433 235.091938,71.0042433 Z M210.205092,75.9618105 C210.707214,75.9618105 211.166902,76.0113154 211.577086,76.1103253 C211.994342,76.2093352 212.347949,76.3790665 212.644979,76.6265912 C212.942008,76.874116 213.175389,77.1923621 213.338048,77.602546 C213.500707,78.0056577 213.585573,78.5148515 213.585573,79.1371994 C213.585573,79.3281471 213.578501,79.5261669 213.557284,79.7312588 C213.536068,79.9363508 213.514851,80.1626591 213.486563,80.4031117 L212.298444,88.6067893 L209.971711,88.6067893 L211.15983,80.4031117 C211.209335,80.0565771 211.230552,79.7524752 211.230552,79.4978784 C211.230552,78.8472419 211.082037,78.3946252 210.777935,78.1471004 C210.473833,77.8995757 210.014144,77.7722772 209.398868,77.7722772 C208.755304,77.7722772 208.125884,77.9066478 207.524752,78.1683168 C206.916549,78.4299859 206.336634,78.7623762 205.792079,79.1584158 L204.420085,88.5997171 L202.093352,88.5997171 L203.889675,76.2093352 L205.947666,76.2093352 L205.968883,77.3833098 C206.612447,76.9377652 207.2843,76.5912306 207.984441,76.3366337 C208.684583,76.0820368 209.420085,75.9618105 210.205092,75.9618105 Z M334.009901,75.9618105 C334.512023,75.9618105 334.971711,76.0113154 335.381895,76.1103253 C335.799151,76.2093352 336.152758,76.3790665 336.449788,76.6265912 C336.746818,76.874116 336.980198,77.1923621 337.142857,77.602546 C337.305516,78.0056577 337.390382,78.5148515 337.390382,79.1371994 C337.390382,79.3281471 337.38331,79.5261669 337.362093,79.7312588 C337.340877,79.9363508 337.319661,80.1626591 337.291372,80.4031117 L336.103253,88.6067893 L333.776521,88.6067893 L334.964639,80.4031117 C335.014144,80.0565771 335.035361,79.7524752 335.035361,79.4978784 C335.035361,78.8472419 334.886846,78.3946252 334.582744,78.1471004 C334.278642,77.8995757 333.818953,77.7722772 333.203678,77.7722772 C332.560113,77.7722772 331.930693,77.9066478 331.329562,78.1683168 C330.721358,78.4299859 330.141443,78.7623762 329.596888,79.1584158 L328.224894,88.5997171 L325.898161,88.5997171 L327.694484,76.2093352 L329.752475,76.2093352 L329.773692,77.3833098 C330.417256,76.9377652 331.089109,76.5912306 331.78925,76.3366337 C332.489392,76.0820368 333.224894,75.9618105 334.009901,75.9618105 Z M275.650636,75.9618105 C276.152758,75.9618105 276.612447,76.0113154 277.036775,76.1173975 C277.454031,76.2164074 277.807638,76.3932107 278.104668,76.6407355 C278.401697,76.8882603 278.635078,77.2135785 278.797737,77.6166902 C278.960396,78.019802 279.045262,78.5219236 279.045262,79.1301273 C279.045262,79.2998586 279.03819,79.4837341 279.024045,79.6746818 C279.009901,79.8656294 278.988685,80.0636492 278.953324,80.2687412 L277.736917,88.592645 L275.410184,88.592645 L276.626591,80.2687412 C276.640736,80.1272984 276.65488,79.9929279 276.669024,79.8585573 C276.683168,79.7241867 276.69024,79.6039604 276.69024,79.4837341 C276.69024,78.854314 276.534653,78.4158416 276.237624,78.1541726 C275.933522,77.8925035 275.466761,77.7652051 274.844413,77.7652051 C274.264498,77.7652051 273.705799,77.864215 273.161245,78.0693069 C272.61669,78.2673267 272.100424,78.54314 271.626591,78.8755304 C271.626591,79.115983 271.598303,79.3705799 271.55587,79.6463932 L270.268741,88.592645 L267.942008,88.592645 L269.229137,79.6463932 C269.257426,79.4695898 269.264498,79.2927864 269.264498,79.1301273 C269.264498,78.6138614 269.108911,78.2602546 268.804809,78.0622348 C268.500707,77.864215 268.019802,77.7652051 267.369165,77.7652051 C266.725601,77.7652051 266.096181,77.8925035 265.49505,78.1471004 C264.886846,78.4016973 264.306931,78.7340877 263.762376,79.1513437 L262.390382,88.592645 L260.063649,88.592645 L261.838755,76.2093352 L263.896747,76.2093352 L263.882603,77.2347949 C264.526167,76.8316832 265.205092,76.5134371 265.905233,76.2942008 C266.605375,76.0678925 267.355021,75.9618105 268.161245,75.9618105 C268.903819,75.9618105 269.554455,76.0608204 270.113154,76.251768 C270.671853,76.4427157 271.074965,76.7963225 271.336634,77.2984441 C271.980198,76.874116 272.659123,76.5487977 273.359264,76.3154173 C274.059406,76.0749646 274.823197,75.9618105 275.650636,75.9618105 Z M11.5205092,71.7468175 L15.0141443,88.592645 L12.6874116,88.592645 L11.874116,84.3069307 L5.1980198,84.3069307 L3.14002829,88.592645 L0.813295615,88.592645 L9.15134371,71.7468175 L11.5205092,71.7468175 Z M258.253182,75.9618105 C258.401697,75.9618105 258.571429,75.9688826 258.755304,75.9759547 C258.93918,75.9830269 259.108911,75.9971711 259.257426,76.0113154 L258.734088,78.1188119 C258.536068,78.0763791 258.338048,78.0551627 258.132956,78.0410184 C257.927864,78.0268741 257.701556,78.019802 257.446959,78.019802 C256.923621,78.019802 256.421499,78.1824611 255.92645,78.5148515 C255.4314,78.8472419 254.964639,79.27157 254.519095,79.7878359 L253.24611,88.592645 L250.919378,88.592645 L252.7157,76.2093352 L254.773692,76.2093352 L254.710042,77.9420085 C255.289958,77.2135785 255.869873,76.7043847 256.449788,76.407355 C257.029703,76.1103253 257.630835,75.9618105 258.253182,75.9618105 Z M309.335219,76.2093352 L307.538897,88.592645 L305.212164,88.592645 L307.008487,76.2093352 L309.335219,76.2093352 Z M108.769448,76.2093352 L106.973126,88.592645 L104.646393,88.592645 L106.442716,76.2093352 L108.769448,76.2093352 Z M187.050919,75.9618105 C187.199434,75.9618105 187.369165,75.9688826 187.553041,75.9759547 C187.736917,75.9830269 187.906648,75.9971711 188.055163,76.0113154 L187.531825,78.1188119 C187.333805,78.0763791 187.135785,78.0551627 186.930693,78.0410184 C186.725601,78.0268741 186.499293,78.019802 186.244696,78.019802 C185.721358,78.019802 185.219236,78.1824611 184.724187,78.5148515 C184.229137,78.8472419 183.762376,79.27157 183.316832,79.7878359 L182.043847,88.592645 L179.717115,88.592645 L181.513437,76.2093352 L183.571429,76.2093352 L183.507779,77.9420085 C184.087694,77.2135785 184.66761,76.7043847 185.247525,76.407355 C185.82744,76.1103253 186.428571,75.9618105 187.050919,75.9618105 Z M82.6661952,77.7652051 C82.1428571,77.7652051 81.6407355,77.8571429 81.1527581,78.0339463 C80.6647808,78.2178218 80.2121641,78.4441301 79.7878359,78.7270156 L78.7199434,86.0749646 C79.0664781,86.3437058 79.4483734,86.5770863 79.8727016,86.7538897 C80.2970297,86.9377652 80.7779349,87.029703 81.3083451,87.029703 C82.4611033,87.029703 83.3804809,86.6336634 84.0594059,85.834512 C84.738331,85.0424328 85.1838755,83.8826025 85.4031117,82.3762376 C85.4738331,81.8458274 85.5162659,81.3578501 85.5162659,80.9052334 C85.5162659,79.844413 85.2899576,79.0594059 84.8373409,78.54314 C84.3847242,78.0268741 83.6633663,77.7652051 82.6661952,77.7652051 Z M147.602546,77.758133 C147.107496,77.758133 146.633663,77.8500707 146.188119,78.0268741 C145.742574,78.2036775 145.339463,78.4865629 144.978784,78.8613861 C144.618105,79.2362093 144.314003,79.7171146 144.059406,80.3041018 C143.804809,80.8910891 143.613861,81.5912306 143.500707,82.397454 C143.429986,82.8925035 143.387553,83.3451202 143.387553,83.7623762 C143.387553,84.3493635 143.451202,84.8514851 143.592645,85.261669 C143.727016,85.6718529 143.917963,86.0113154 144.165488,86.2729844 C144.413013,86.5417256 144.710042,86.7326733 145.063649,86.8528996 C145.417256,86.9731259 145.806223,87.029703 146.244696,87.029703 C146.739745,87.029703 147.213579,86.9377652 147.666195,86.7609618 C148.118812,86.5841584 148.521924,86.301273 148.889675,85.9264498 C149.257426,85.5516266 149.5686,85.0707214 149.823197,84.4837341 C150.084866,83.8967468 150.268741,83.1966054 150.388967,82.3903819 C150.4314,82.1499293 150.459689,81.9165488 150.466761,81.6973126 C150.480905,81.4780764 150.487977,81.2588402 150.487977,81.0537482 C150.487977,80.466761 150.424328,79.9646393 150.282885,79.5473833 C150.141443,79.1301273 149.950495,78.7906648 149.695898,78.5219236 C149.441301,78.2531825 149.130127,78.0622348 148.776521,77.9420085 C148.422914,77.81471 148.026874,77.758133 147.602546,77.758133 Z M96.9519095,77.758133 C96.45686,77.758133 95.9830269,77.8500707 95.5374823,78.0268741 C95.0919378,78.2036775 94.688826,78.4865629 94.3281471,78.8613861 C93.9674682,79.2362093 93.6633663,79.7171146 93.4087694,80.3041018 C93.1541726,80.8910891 92.9632249,81.5912306 92.8500707,82.397454 C92.7793494,82.8925035 92.7369165,83.3451202 92.7369165,83.7623762 C92.7369165,84.3493635 92.8005658,84.8514851 92.9420085,85.261669 C93.0763791,85.6718529 93.2673267,86.0113154 93.5148515,86.2729844 C93.7623762,86.5417256 94.0594059,86.7326733 94.4130127,86.8528996 C94.7666195,86.9731259 95.155587,87.029703 95.5940594,87.029703 C96.0891089,87.029703 96.562942,86.9377652 97.0155587,86.7609618 C97.4681754,86.5841584 97.8712871,86.301273 98.2390382,85.9264498 C98.6067893,85.5516266 98.9179632,85.0707214 99.1725601,84.4837341 C99.4342291,83.8967468 99.6181047,83.1966054 99.738331,82.3903819 C99.7807638,82.1499293 99.8090523,81.9165488 99.8161245,81.6973126 C99.8302687,81.4780764 99.8373409,81.2588402 99.8373409,81.0537482 C99.8373409,80.466761 99.7736917,79.9646393 99.6322489,79.5473833 C99.4908062,79.1301273 99.2998586,78.7906648 99.0452617,78.5219236 C98.7906648,78.2531825 98.4794908,78.0622348 98.125884,77.9420085 C97.7722772,77.81471 97.3762376,77.758133 96.9519095,77.758133 Z M318.34512,77.758133 C317.850071,77.758133 317.376238,77.8500707 316.930693,78.0268741 C316.485149,78.2036775 316.082037,78.4865629 315.721358,78.8613861 C315.360679,79.2362093 315.056577,79.7171146 314.80198,80.3041018 C314.547383,80.8910891 314.356436,81.5912306 314.243281,82.397454 C314.17256,82.8925035 314.130127,83.3451202 314.130127,83.7623762 C314.130127,84.3493635 314.193777,84.8514851 314.335219,85.261669 C314.46959,85.6718529 314.660537,86.0113154 314.908062,86.2729844 C315.155587,86.5346535 315.452617,86.7326733 315.806223,86.8528996 C316.15983,86.9731259 316.548798,87.029703 316.98727,87.029703 C317.48232,87.029703 317.956153,86.9377652 318.408769,86.7609618 C318.861386,86.5841584 319.264498,86.301273 319.632249,85.9264498 C320,85.5516266 320.311174,85.0707214 320.565771,84.4837341 C320.82744,83.8967468 321.011315,83.1966054 321.131542,82.3903819 C321.173975,82.1499293 321.202263,81.9165488 321.209335,81.6973126 C321.223479,81.4780764 321.230552,81.2588402 321.230552,81.0537482 C321.230552,80.466761 321.166902,79.9646393 321.02546,79.5473833 C320.884017,79.1301273 320.693069,78.7906648 320.438472,78.5219236 C320.183876,78.2531825 319.872702,78.0622348 319.519095,77.9420085 C319.165488,77.81471 318.769448,77.758133 318.34512,77.758133 Z M243.366337,77.758133 C242.871287,77.758133 242.397454,77.8500707 241.951909,78.0268741 C241.506365,78.2036775 241.103253,78.4865629 240.742574,78.8613861 C240.381895,79.2362093 240.077793,79.7171146 239.823197,80.3041018 C239.5686,80.8910891 239.377652,81.5912306 239.264498,82.397454 C239.193777,82.8925035 239.151344,83.3451202 239.151344,83.7623762 C239.151344,84.3493635 239.214993,84.8514851 239.356436,85.261669 C239.490806,85.6718529 239.681754,86.0113154 239.929279,86.2729844 C240.176803,86.5417256 240.473833,86.7326733 240.82744,86.8528996 C241.181047,86.9731259 241.570014,87.029703 242.008487,87.029703 C242.503536,87.029703 242.977369,86.9377652 243.429986,86.7609618 C243.882603,86.5841584 244.285714,86.301273 244.653465,85.9264498 C245.021216,85.5516266 245.33239,85.0707214 245.586987,84.4837341 C245.848656,83.8967468 246.032532,83.1966054 246.152758,82.3903819 C246.195191,82.1499293 246.223479,81.9165488 246.230552,81.6973126 C246.244696,81.4780764 246.251768,81.2588402 246.251768,81.0537482 C246.251768,80.466761 246.188119,79.9646393 246.046676,79.5473833 C245.905233,79.1301273 245.714286,78.7906648 245.459689,78.5219236 C245.205092,78.2531825 244.893918,78.0622348 244.540311,77.9420085 C244.186704,77.81471 243.790665,77.758133 243.366337,77.758133 Z M195.268741,77.758133 C194.773692,77.758133 194.285714,77.8925035 193.811881,78.1683168 C193.338048,78.437058 192.906648,78.8260255 192.510608,79.3281471 C192.121641,79.8231966 191.775106,80.4314003 191.492221,81.1386139 C191.216407,81.8458274 191.011315,82.6379066 190.884017,83.5148515 C190.855728,83.6704385 190.841584,83.8189533 190.834512,83.960396 C190.82744,84.1018388 190.820368,84.2362093 190.820368,84.3705799 C190.820368,84.8231966 190.876945,85.2192362 190.990099,85.5516266 C191.110325,85.884017 191.25884,86.1598303 191.45686,86.3790665 C191.647808,86.5983027 191.881188,86.7609618 192.135785,86.8670438 C192.397454,86.9731259 192.673267,87.029703 192.956153,87.029703 C193.231966,87.029703 193.507779,86.9872702 193.783593,86.9165488 C194.066478,86.8387553 194.342291,86.7326733 194.60396,86.5912306 C194.872702,86.4497878 195.134371,86.2942008 195.388967,86.1103253 C195.643564,85.9264498 195.891089,85.7355021 196.117397,85.523338 L197.18529,78.1895332 C196.923621,78.0834512 196.626591,77.9844413 196.294201,77.8925035 C195.96181,77.8005658 195.622348,77.758133 195.268741,77.758133 Z M288.677511,77.758133 C288.182461,77.758133 287.694484,77.8925035 287.220651,78.1683168 C286.746818,78.437058 286.315417,78.8260255 285.919378,79.3281471 C285.53041,79.8231966 285.183876,80.4314003 284.90099,81.1386139 C284.625177,81.8458274 284.413013,82.6379066 284.292786,83.5148515 C284.264498,83.6704385 284.250354,83.8189533 284.243281,83.960396 C284.236209,84.1018388 284.229137,84.2362093 284.229137,84.3705799 C284.229137,84.8231966 284.285714,85.2192362 284.398868,85.5516266 C284.519095,85.884017 284.66761,86.1598303 284.865629,86.3790665 C285.056577,86.5983027 285.289958,86.7609618 285.544554,86.8670438 C285.806223,86.9731259 286.082037,87.029703 286.364922,87.029703 C286.640736,87.029703 286.916549,86.9872702 287.192362,86.9165488 C287.475248,86.8387553 287.751061,86.7326733 288.01273,86.5912306 C288.281471,86.4497878 288.54314,86.2942008 288.797737,86.1103253 C289.052334,85.9264498 289.299859,85.7355021 289.526167,85.523338 L290.594059,78.1895332 C290.33239,78.0834512 290.035361,77.9844413 289.70297,77.8925035 C289.37058,77.8005658 289.031117,77.758133 288.677511,77.758133 Z M9.97878359,74.3493635 L6.0678925,82.4964639 L11.5275813,82.4964639 L9.97878359,74.3493635 Z M63.3380481,77.7652051 C62.9278642,77.7652051 62.5388967,77.81471 62.1640736,77.9137199 C61.7963225,78.0127298 61.4639321,78.1824611 61.1527581,78.4299859 C60.8415842,78.6775106 60.5657709,78.9957567 60.3253182,79.3988685 C60.0777935,79.8019802 59.8797737,80.2970297 59.7100424,80.8910891 L65.5799151,80.8910891 C65.5940594,80.7637907 65.6082037,80.6435644 65.6152758,80.5304102 C65.6223479,80.4101839 65.6294201,80.2970297 65.6294201,80.1838755 C65.6294201,79.7454031 65.5657709,79.3776521 65.4455446,79.0664781 C65.3182461,78.7623762 65.155587,78.5077793 64.950495,78.3168317 C64.7454031,78.125884 64.4978784,77.9844413 64.2220651,77.8995757 C63.9391796,77.8076379 63.6421499,77.7652051 63.3380481,77.7652051 Z M310.162659,71.2234795 L309.851485,73.4016973 L307.2843,73.4016973 L307.609618,71.2234795 L310.162659,71.2234795 Z M109.60396,71.2234795 L109.292786,73.4016973 L106.725601,73.4016973 L107.050919,71.2234795 L109.60396,71.2234795 Z M24.8161245,0.40311174 C29.2079208,0.40311174 33.3380481,1.50636492 37.2065064,3.69872702 C41.0749646,5.89108911 44.0876945,8.87553041 46.2588402,12.6449788 C48.4299859,16.407355 49.5120226,20.4738331 49.5120226,24.8373409 C49.5120226,29.2291372 48.4158416,33.3380481 46.2376238,37.1570014 C44.0594059,40.9830269 41.0820368,43.9674682 37.3125884,46.1244696 C33.5502122,48.281471 29.3988685,49.3564356 24.8585573,49.3564356 C18.1824611,49.3564356 12.4823197,46.980198 7.76520509,42.2277228 C3.04101839,37.4823197 0.685997171,31.718529 0.685997171,24.9292786 C0.685997171,17.6520509 3.35219236,11.5912306 8.68458274,6.7397454 C13.3592645,2.51768034 18.7411598,0.40311174 24.8161245,0.40311174 Z M178.705799,35.9688826 C180.558699,35.9688826 182.142857,36.6195191 183.458274,37.9137199 C184.76662,39.2149929 185.424328,40.7920792 185.424328,42.6449788 C185.424328,44.4978784 184.76662,46.0820368 183.458274,47.3903819 C182.142857,48.698727 180.558699,49.3564356 178.705799,49.3564356 C176.8529,49.3564356 175.268741,48.698727 173.953324,47.3903819 C172.644979,46.0749646 171.98727,44.4978784 171.98727,42.6449788 C171.98727,40.7920792 172.644979,39.2149929 173.953324,37.9137199 C175.268741,36.6195191 176.8529,35.9688826 178.705799,35.9688826 Z M487.227723,14.1867044 C495.311174,14.1867044 498.960396,17.3408769 498.960396,17.3408769 L496.859972,20.5516266 C496.859972,20.5516266 493.486563,17.8429986 487.227723,17.8429986 C482.468175,17.8429986 478.868458,19.6676096 478.868458,23.1046676 C478.868458,25.8132956 481.032532,27.1994342 488.224894,29.1937765 C497.08628,31.6265912 499.738331,34.5615276 499.738331,39.4908062 C499.738331,44.8585573 495.919378,48.903819 487.065064,48.903819 C480.390431,48.903819 476.642888,46.4304719 475.377897,45.407018 L475.22694,45.2820689 C475.089989,45.1659871 474.994945,45.0774748 474.940822,45.025238 L474.886846,44.9717115 L474.886846,44.9717115 L476.98727,42.0226308 C476.98727,42.0226308 480.417256,45.2333805 487.008487,45.2333805 C493.154173,45.2333805 495.806223,42.9066478 495.806223,39.533239 C495.806223,36.4356436 493.755304,34.8868458 486.506365,32.8359264 C478.422914,30.5091938 474.936351,28.1329562 474.936351,23.0975955 C474.936351,17.4540311 479.639321,14.1867044 487.227723,14.1867044 Z M209.879774,14.1867044 C217.963225,14.1867044 221.619519,17.3408769 221.619519,17.3408769 L219.519095,20.5516266 C219.519095,20.5516266 216.145686,17.8429986 209.886846,17.8429986 C205.127298,17.8429986 201.527581,19.6676096 201.527581,23.1046676 C201.527581,25.8132956 203.684583,27.1994342 210.884017,29.1937765 C219.738331,31.6265912 222.397454,34.5615276 222.397454,39.4908062 C222.397454,44.8585573 218.578501,48.903819 209.717115,48.903819 C201.743281,48.903819 197.941252,45.3679613 197.569271,45.0021829 L197.538897,44.9717115 L199.646393,42.0226308 C199.646393,42.0226308 203.076379,45.2333805 209.66761,45.2333805 C215.813296,45.2333805 218.465347,42.9066478 218.465347,39.533239 C218.465347,36.4356436 216.414427,34.8868458 209.165488,32.8359264 C201.082037,30.5091938 197.595474,28.1329562 197.595474,23.0975955 C197.595474,17.4540311 202.298444,14.1867044 209.879774,14.1867044 Z M408.514851,14.1867044 C419.031117,14.1867044 425.72843,21.7680339 425.72843,31.562942 C425.72843,41.251768 419.031117,48.8896747 408.514851,48.8896747 C398.055163,48.8896747 391.35785,41.2446959 391.35785,31.562942 C391.35785,21.7680339 398.055163,14.1867044 408.514851,14.1867044 Z M308.64215,14.9009901 L308.64215,34.2220651 C308.64215,40.5869873 312.015559,45.2333805 318.712871,45.2333805 C325.466761,45.2333805 328.790665,40.5869873 328.790665,34.2220651 L328.790665,14.9009901 L332.666195,14.9009901 L332.666195,34.2220651 C332.666195,42.9137199 327.630835,48.8896747 318.712871,48.8896747 C309.915134,48.8826025 304.76662,42.9066478 304.76662,34.2149929 L304.76662,14.9009901 L308.64215,14.9009901 Z M247.206506,14.1867044 C257.722772,14.1867044 264.420085,21.7680339 264.420085,31.562942 C264.420085,41.251768 257.722772,48.8896747 247.206506,48.8896747 C236.746818,48.8896747 230.049505,41.2446959 230.049505,31.562942 C230.049505,21.7680339 236.746818,14.1867044 247.206506,14.1867044 Z M60.7142857,1.90240453 L68.2673267,23.281471 C68.8826025,25.0282885 71.3437058,25.0565771 72.0014144,23.330976 L80.1485149,1.90947666 L87.1428571,1.90947666 L95.1272984,23.0410184 C95.7779349,24.7736917 98.2319661,24.7454031 98.8613861,23.0056577 L106.414427,1.90947666 L117.927864,1.90947666 L102.199434,45 C101.442716,47.0792079 99.4625177,48.4582744 97.2489392,48.4582744 L97.18529,48.4582744 C94.9858557,48.4582744 93.019802,47.0933522 92.2489392,45.0353607 L85.4384724,26.824611 C84.7949081,25.1131542 82.3833098,25.0990099 81.7256011,26.8033946 L74.6817539,45.0777935 C73.8967468,47.1074965 71.9448373,48.4512023 69.7666195,48.4512023 C67.5459689,48.4512023 65.5657709,47.0579915 64.8090523,44.9717115 L49.2786421,1.90240453 L60.7142857,1.90240453 Z M148.981612,0.396039604 C153.592645,0.396039604 157.510608,2.00848656 160.742574,5.24045262 C163.355407,7.90129013 164.711387,11.7724305 164.791168,16.9054617 L164.794908,17.3903819 L164.794908,45.6577086 C164.794908,46.9816124 163.752079,48.0578444 162.467314,48.1418247 L162.305516,48.1471004 L155.735502,48.1471004 C154.411598,48.1471004 153.335366,47.1303423 153.251386,45.8226349 L153.24611,45.6577086 L153.24611,27.758133 C153.24611,22.1994342 152.991513,18.5148515 152.48232,16.6902405 C152.001414,14.8727016 151.12447,13.4865629 149.879774,12.5176803 C148.656294,11.5700141 147.114569,11.0891089 145.289958,11.0891089 C142.934936,11.0891089 140.905233,11.8953324 139.222065,13.4653465 C137.51768,15.0565771 136.336634,17.241867 135.693069,20.0353607 C135.357713,21.4452252 135.194561,24.4247947 135.184384,29.0061172 L135.183876,29.4695898 L135.183876,45.6577086 C135.183876,46.9816124 134.141047,48.0578444 132.856282,48.1418247 L132.694484,48.1471004 L125.983027,48.1471004 C124.679491,48.1471004 123.584521,47.1303423 123.499009,45.8226349 L123.493635,45.6577086 L123.493635,1.88826025 L135.183876,1.88826025 L135.183876,4.10183876 L134.879882,4.53988952 C133.17106,7.03824125 131.718865,9.75512843 131.637277,9.90833966 L131.633663,9.91513437 L136.548798,5.28288543 C138.670438,3.62800566 140.608204,2.42574257 142.38331,1.71145686 C144.533239,0.834512023 146.746818,0.396039604 148.981612,0.396039604 Z M277.828854,14.9009901 L277.828854,44.5120226 L297.199434,44.5120226 L297.199434,48.1117397 L273.953324,48.1117397 L273.953324,14.9009901 L277.828854,14.9009901 Z M368.189533,14.9009901 L368.189533,18.5007072 L356.513437,18.5007072 L356.513437,48.1117397 L352.637907,48.1117397 L352.637907,18.5007072 L341.011315,18.5007072 L341.011315,14.9009901 L368.189533,14.9009901 Z M381.711457,14.9009901 L381.711457,48.1117397 L377.835926,48.1117397 L377.835926,14.9009901 L381.711457,14.9009901 Z M436.096181,14.9009901 L460.056577,39.8656294 L460.056577,14.9009901 L463.932107,14.9009901 L463.932107,48.1117397 L462.772277,48.1117397 L438.804809,23.0339463 L438.804809,48.1117397 L434.929279,48.1117397 L434.929279,14.9009901 L436.096181,14.9009901 Z M247.206506,17.8359264 C239.07355,17.8359264 233.97454,24.0381895 233.97454,31.562942 C233.97454,39.0381895 239.066478,45.1768034 247.206506,45.1768034 C255.403112,45.1768034 260.49505,39.0311174 260.49505,31.562942 C260.49505,24.0381895 255.403112,17.8359264 247.206506,17.8359264 Z M408.514851,17.8359264 C400.381895,17.8359264 395.282885,24.0381895 395.282885,31.562942 C395.282885,39.0381895 400.374823,45.1768034 408.514851,45.1768034 C416.711457,45.1768034 421.803395,39.0311174 421.803395,31.562942 C421.803395,24.0381895 416.711457,17.8359264 408.514851,17.8359264 Z M25.0070721,11.407355 C21.3790665,11.407355 18.3592645,12.6661952 15.9405941,15.1909477 C13.5289958,17.7157001 12.3196605,20.9476662 12.3196605,24.8797737 C12.3196605,28.9321075 13.5148515,32.2135785 15.8981612,34.7171146 C18.2885431,37.2277228 21.3083451,38.4865629 24.9646393,38.4865629 C28.6209335,38.4865629 31.669024,37.2135785 34.0947666,34.6746818 C36.5205092,32.135785 37.7369165,28.8684583 37.7369165,24.8727016 C37.7369165,20.8769448 36.5417256,17.6379066 34.1584158,15.1414427 C31.7751061,12.6520509 28.7199434,11.407355 25.0070721,11.407355 Z" id="Combined-Shape"></path>
        </g>
    </g>
</svg>