<?xml version="1.0" encoding="UTF-8"?>
<svg width="497px" height="135px" viewBox="0 0 497 135" version="1.1" xmlns="http://www.w3.org/2000/svg" xmlns:xlink="http://www.w3.org/1999/xlink">
    <title>pan</title>
    <g id="Page-1" stroke="none" stroke-width="1" fill="none" fill-rule="evenodd">
        <g id="pan" fill="#FFFFFF" fill-rule="nonzero">
            <path d="M273.988723,16.9042553 L311.686596,70.387234 L311.686596,19.5702128 L305.575957,19.5702128 L305.575957,16.9042553 L346.414255,16.9042553 L346.414255,19.5702128 L340.63766,19.5702128 L340.63766,123.542553 L312.601489,123.542553 L272.078085,67.6297872 L272.078085,120.023404 L278.335532,120.023404 L278.335532,123.542553 L236.758936,123.542553 L236.758936,120.023404 L243.192979,120.023404 L243.192979,19.5702128 L236.758936,19.5702128 L236.758936,16.9042553 L273.988723,16.9042553 Z M188.483404,16.9040426 C188.549362,17.3508511 188.608936,18.2657447 188.670638,19.182766 L188.670638,19.182766 L185.921702,19.182766 L230.119574,123.538085 L189.108936,123.538085 C189.053617,122.367872 188.99617,121.195532 188.936596,120.018936 L188.936596,120.018936 L196.434468,120.018936 L187.838723,100.182766 L141.566383,100.182766 L132.970638,120.018936 L140.462128,120.018936 C140.406809,121.195532 140.351489,122.367872 140.29617,123.538085 L140.29617,123.538085 L99.4387234,123.538085 L142.091915,19.5274468 L139.628085,19.5274468 L139.62383,16.9040426 Z M69.1889362,16.8980851 C73.6953191,16.4342553 78.9719149,17.136383 84.0697872,19.1831915 C95.0208511,23.5810638 110.716596,35.117234 110.716596,58.4214894 C110.716596,76.7193617 96.2953191,89.4491489 83.4995745,94.5682979 C77.5719149,96.9385106 70.8868085,97.1534043 64.0889362,97.2065957 C59.6198216,97.2479822 55.4738676,97.2653377 51.8401219,97.2691276 L48.7499458,97.2691956 C41.9999828,97.2624114 37.6078693,97.2122023 37.1715714,97.2070264 L37.1357447,97.2065957 L37.1357447,120.017234 L43.4953191,120.017234 L43.4953191,123.536383 L0.0676595745,123.536383 L0.0676595745,120.017234 L4.87617021,120.017234 L4.87617021,19.5640426 L0.0676595745,19.5640426 L0.0676595745,16.8980851 Z M164.700426,47.5657447 L151.736596,78.5848936 L177.668511,78.5848936 L164.700426,47.5657447 Z M61.3038298,45.0555319 L37.1357447,45.0555319 L37.1357447,68.63 L62.9655319,68.63 C69.3591489,68.63 75.84,63.2704255 75.84,56.9980851 C75.84,50.7023404 70.1229787,45.0555319 61.3038298,45.0555319 L61.3038298,45.0555319 Z" id="Combined-Shape"></path>
            <path d="M414.641915,46.5765957 L414.641709,47.0999489 C414.64169,47.1478699 414.64167,47.1988019 414.641649,47.2526272 L414.640718,49.6177069 C414.640678,49.7176307 414.640638,49.819271 414.640598,49.9225101 L414.639668,52.2851915 C414.639621,52.4050475 414.639574,52.5256785 414.639526,52.6469668 L414.638797,54.5008815 C414.638748,54.6258011 414.638699,54.7507896 414.63865,54.8757293 L414.637779,57.0939574 C414.637732,57.2140753 414.637685,57.3334382 414.637638,57.4519286 L414.636729,59.7715944 C414.63669,59.8721023 414.636651,59.970914 414.636613,60.0679115 L414.635685,62.4536964 C414.635669,62.4965452 414.635653,62.5362855 414.635639,62.5727995 L414.635012,63.2497435 C414.626181,65.5306935 414.46721,69.3620567 411.605745,72.2255319 L411.605745,72.2255319 L405.499362,78.3468085 L402.724894,75.5787234 C402.865426,75.437234 403.006431,75.2952766 403.147547,75.1532157 L403.570866,74.7270872 C405.33306,72.9532973 407.055942,71.2203153 408.031505,70.2403045 L408.250929,70.0199236 C408.319046,69.9515254 408.382017,69.8883108 408.439481,69.8306445 L408.824894,69.4446809 C410.516383,67.7489362 410.701489,65.4255319 410.701489,62.8638298 L410.701489,62.8638298 L410.701489,50.512766 L399.790851,50.512766 C397.229149,50.512766 394.905745,50.7021277 393.212128,52.3957447 L393.212128,52.3957447 L393.016576,52.5918256 C392.194979,53.4163735 389.179171,56.4470419 386.004935,59.6372993 L385.443546,60.2015259 C385.256144,60.389876 385.068608,60.5783617 384.881353,60.7665666 L384.320844,61.3299218 C381.806069,63.8574793 379.417941,66.2579263 378.175957,67.506383 L378.175957,67.506383 L404.714255,94.0914894 C404.718511,94.0829787 404.724894,94.0765957 404.731277,94.0723404 L404.731277,94.0723404 L405.767447,95.112766 L406.597234,95.9404255 L406.597234,95.9702128 C406.599362,96.5340426 406.620638,97.087234 406.654681,97.6276596 C406.756809,99.2553191 406.995106,100.776596 407.365319,102.208511 C407.752553,103.702128 408.288723,105.095745 408.980213,106.395745 L408.980213,106.395745 L409.012128,106.451064 L409.039787,106.508511 L409.156809,106.706383 C411.939787,111.651064 416.088723,116.304255 419.74617,119.878723 C420.717702,120.830723 422.053005,122.121899 423.417912,123.435643 L424.141438,124.131523 C426.55017,126.446553 428.867447,128.657872 429.256809,129.025532 C429.659149,128.645617 432.120074,126.297083 434.613796,123.899739 L435.096317,123.435643 C436.461539,122.121899 437.797319,120.830723 438.769574,119.878723 C442.424894,116.304255 446.57383,111.651064 449.354681,106.706383 L449.354681,106.706383 L449.467447,106.508511 L449.503617,106.451064 L449.529149,106.395745 C450.224894,105.095745 450.761064,103.702128 451.150426,102.208511 C451.520638,100.776596 451.756809,99.2553191 451.856809,97.6276596 C451.886596,97.2 451.905745,94.9595745 451.912128,93.7468085 L451.912128,93.7468085 L455.671702,97.5212766 C455.671702,101.748936 454.663191,105.129787 453.003617,108.244681 L453.003617,108.244681 L452.978085,108.293617 L452.944043,108.355319 L452.914255,108.414894 L452.880213,108.468085 L452.778085,108.651064 C450.139787,113.331915 446.399362,117.73617 442.905745,121.302128 C441.515957,122.721702 439.24617,124.954894 436.949898,127.193668 L436.375772,127.75301 C433.124863,130.917976 429.963546,133.959007 429.318511,134.578723 L429.318511,134.578723 L429.256809,134.640426 C429.23766,134.621277 429.218511,134.606383 429.197234,134.578723 C428.550993,133.959007 425.389837,130.917976 422.138906,127.75301 L421.564774,127.193668 C419.842545,125.514587 418.135136,123.838647 416.802396,122.506736 L416.372519,122.075975 C416.095844,121.79792 415.839645,121.538723 415.607872,121.302128 C412.112128,117.73617 408.375957,113.331915 405.735532,108.651064 L405.735532,108.651064 L405.633404,108.468085 L405.599362,108.414894 L405.565319,108.355319 L405.535532,108.293617 L405.507872,108.244681 C403.839787,105.104255 402.920638,101.587234 402.705745,97.5531915 L402.705745,97.5531915 L372.639787,67.5212766 C372.639787,67.5212766 376.266052,63.8697263 380.245963,59.8625402 L380.830534,59.2739666 L380.830534,59.2739666 L382.005706,58.0907686 L382.005706,58.0907686 L382.591748,57.5007351 L382.591748,57.5007351 L383.173723,56.9148059 C385.9731,54.0964315 388.550068,51.5023133 389.746551,50.2987731 L389.974021,50.0699891 C390.11203,49.9312044 390.222255,49.8204057 390.301658,49.7406536 L390.397267,49.6446929 L390.397267,49.6446929 L390.427021,49.6148936 C393.461064,46.5829787 397.575957,46.5765957 399.790851,46.5765957 L414.641915,46.5765957 L414.641915,46.5765957 Z M429.358936,71.2212766 L447.829149,89.6425532 L447.829149,95.6170213 C447.865319,98.8595745 447.399362,101.931915 445.899362,104.748936 L445.899362,104.748936 L445.778085,104.968085 C441.380213,112.780851 433.369574,120.314894 429.318511,123.776596 C429.299362,123.793617 429.275957,123.812766 429.256809,123.829787 C429.23766,123.812766 429.216383,123.793617 429.197234,123.776596 C425.144043,120.314894 417.131277,112.780851 412.73766,104.968085 L412.73766,104.968085 L412.614255,104.748936 C411.114255,101.931915 410.650426,98.8595745 410.68234,95.6170213 L410.68234,95.6170213 L410.68234,89.9 L414.616383,85.9468085 L414.615739,96.1174999 C414.636298,98.8695586 415.09757,101.018589 416.061064,102.846809 L416.061064,102.846809 L416.152553,103.008511 L416.169574,103.03617 C419.44617,108.865957 425.054681,114.7 429.256809,118.525532 C433.461064,114.7 439.069574,108.865957 442.344043,103.03617 L442.344043,103.03617 L442.363191,103.008511 L442.452553,102.846809 C443.465319,100.917021 443.927021,98.6297872 443.895106,95.6531915 L443.895106,95.6531915 L443.895106,91.1297872 L426.675957,73.9021277 L429.358936,71.2212766 Z M432.350851,103.569362 L432.350851,109.669362 L426.250851,109.669362 L426.250851,103.569362 L432.350851,103.569362 Z M429.23766,0.0808510638 L429.243746,0.0869411103 L429.609082,0.45258462 C429.699355,0.542942378 429.8051,0.648793424 429.925229,0.769051163 L430.809883,1.65478516 C430.983185,1.8283233 431.168692,2.01409494 431.365312,2.21101349 L431.773048,2.61939118 C431.843366,2.6898239 431.914838,2.76141468 431.987424,2.83412327 L432.669681,3.51759496 C432.906397,3.75475478 433.152048,4.00088831 433.405543,4.25490898 L433.92267,4.77314453 C435.503492,6.35746796 437.34056,8.19964974 439.198481,10.0649855 L440.128089,10.9984963 C444.980402,15.8722245 449.7074,20.6371158 450.118511,21.1148936 C450.354681,21.393617 450.597234,21.6829787 450.844043,21.9957447 L422.514255,50.4255319 L422.514255,56.0914894 L453.17383,25.506383 C453.78234,26.6255319 454.331277,27.8531915 454.758936,29.2021277 L422.514255,61.5723404 L422.514255,63.6106383 C422.514255,64.5489362 422.480213,65.8723404 422.248298,67.4085106 L422.530792,67.1248751 C422.784535,66.8701884 423.08342,66.5703753 423.422328,66.2305587 L423.847899,65.8039049 C423.921921,65.7297049 423.997461,65.6539868 424.074479,65.5767915 L424.553995,65.0962211 C424.88506,64.7644605 425.238461,64.4103763 425.611577,64.0365914 L426.185709,63.4614663 C426.381797,63.2650514 426.582485,63.0640391 426.787447,62.8587574 L427.414824,62.2304319 C427.521414,62.1236855 427.62899,62.0159537 427.737512,61.9072776 L428.399661,61.2442154 C428.511801,61.1319255 428.624804,61.0187732 428.738629,60.9047994 L429.78416,59.8579622 C430.020944,59.6208947 430.260526,59.3810331 430.502578,59.1387054 L431.23582,58.4046515 C431.359153,58.2811853 431.483022,58.1571846 431.607385,58.0326903 L432.738908,56.9000208 C433.119798,56.5187596 433.504034,56.1341626 433.890511,55.7473362 L434.666123,54.9710388 C435.055096,54.5817318 435.445571,54.1909332 435.836443,53.7997495 L437.009143,52.6261496 C437.13933,52.4958671 437.269438,52.3656648 437.399426,52.2355837 L438.95091,50.6830478 C439.592781,50.0407665 440.227562,49.4056121 440.850129,48.7827075 L441.591021,48.0414298 C441.835813,47.7965157 442.078323,47.5538895 442.318223,47.313879 L443.029768,46.6020224 C443.146945,46.4847968 443.263387,46.368307 443.379055,46.2525941 L445.050798,44.5802894 C445.58525,44.0456915 446.095199,43.5356383 446.575525,43.0552527 L447.407012,42.223706 C447.761359,41.8693537 448.094781,41.5359559 448.404654,41.2261354 L448.851477,40.7794154 C448.922894,40.7080186 448.992759,40.6381772 449.061028,40.5699324 L450.37235,39.259575 C450.412483,39.2194976 450.450694,39.1813446 450.486942,39.145157 L450.759055,38.8736405 C450.783154,38.849614 450.805167,38.8276759 450.825052,38.807867 L450.918511,38.7148936 L450.918511,38.7148936 L458.989502,38.7157596 C462.060179,38.7307698 468.126596,39.0059574 473.171702,44.0510638 L473.304257,44.1837286 C473.371209,44.2507525 473.460445,44.3400957 473.57052,44.4503089 L474.078151,44.9586058 C474.118128,44.9986367 474.159295,45.0398588 474.201628,45.0822494 L474.764187,45.6455754 C474.918104,45.7997043 475.081709,45.9635346 475.254391,46.1364548 L475.611676,46.4942341 C476.10371,46.9869499 476.657399,47.5414067 477.261169,48.1460106 L477.960929,48.8467343 C478.200818,49.0869532 478.447139,49.3336126 478.699283,49.5861011 L479.211152,50.0986691 C479.297697,50.1853321 479.384844,50.2725974 479.47257,50.3604426 L480.005694,50.894289 C480.72531,51.614877 481.479096,52.3696702 482.255479,53.1470745 L483.137833,54.0305819 C483.929536,54.823314 484.739498,55.6343094 485.556145,56.4519741 L486.169703,57.0662919 C486.681745,57.5789635 487.195268,58.0931081 487.707447,58.6058949 L488.627308,59.5268337 C489.136858,60.0369724 489.643368,60.544055 490.144014,61.0452511 L490.741794,61.6436797 C491.237297,62.1397136 491.725806,62.6287287 492.204494,63.1078944 L493.333048,64.2375319 C493.425281,64.3298509 493.517032,64.4216853 493.608277,64.5130126 L494.415214,65.320652 C494.503221,65.4087323 494.590654,65.4962374 494.677491,65.5831447 L495.442315,66.3485593 C495.525371,66.4316762 495.607763,66.5141273 495.689469,66.5958901 L496.171282,67.0780254 C496.32902,67.235863 496.48383,67.390766 496.635532,67.5425532 L493.992979,70.1829787 L493.726715,69.9162816 L493.726715,69.9162816 L493.185159,69.3739372 C492.911485,69.0998947 492.63358,68.8216596 492.351955,68.5397405 L491.496431,67.6834396 C490.823137,67.0096227 490.132369,66.318517 489.430614,65.6165825 L488.826569,65.0124231 C487.91692,64.1026581 486.992172,63.1780435 486.066109,62.2523094 L484.523819,60.7107369 C484.421233,60.6082102 484.318726,60.5057638 484.216317,60.4034166 L483.297765,59.4854785 C482.484517,58.672818 481.681123,57.8701213 480.897265,57.0870314 L480.024178,56.2148355 C479.736237,55.9271998 479.451553,55.6428298 479.170638,55.362234 L478.33971,54.5322781 C478.066842,54.2597394 477.798254,53.9914834 477.534456,53.7280188 L476.75794,52.9525073 C476.67337,52.8680494 476.58939,52.7841804 476.506017,52.7009191 L476.013226,52.2087946 C475.770628,51.9665292 475.533842,51.7300721 475.303377,51.4999319 L474.851026,51.0482246 C474.77709,50.9743941 474.703893,50.901303 474.631456,50.8289703 L474.206094,50.4042255 C473.928793,50.1273302 473.664244,49.8631716 473.413656,49.612955 L472.541757,48.7423505 C472.488309,48.688981 472.435827,48.636577 472.384332,48.5851574 L471.814928,48.0165783 C471.771624,47.9733351 471.729381,47.9311517 471.688219,47.8900468 L471.06809,47.2707106 C471.040576,47.2432264 471.014256,47.2169337 470.989148,47.1918514 L470.747295,46.9501682 C470.686892,46.889777 470.647106,46.8499574 470.629149,46.8319149 C466.622132,42.8269353 461.524822,42.6565106 458.833063,42.6492585 L452.163191,42.6489362 L405.601489,89.512766 L383.703617,67.5574468 C383.703617,67.5574468 383.739787,67.5340426 383.795106,67.4957447 L383.748298,67.4851064 C384.95908,66.2669672 386.36682,64.850988 387.769709,63.4400956 L388.264316,62.9426752 C390.815351,60.3771756 393.27131,57.907977 394.408494,56.7655674 L394.611797,56.5613539 C394.642827,56.5301898 394.672403,56.5004888 394.700483,56.4722925 L394.911714,56.260263 C394.930451,56.2414656 394.947569,56.2242967 394.963027,56.2087975 L395.035532,56.1361702 L395.035532,56.1361702 C396.540894,54.6308085 397.479569,54.4627472 399.528793,54.4517109 L406.771702,54.4510638 L406.769574,62.8638298 C406.769574,65.8905971 405.835043,66.8689663 405.296525,67.4071625 L405.070166,67.6335236 C405.049526,67.6542336 405.027397,67.6764481 405.003816,67.7001303 L404.845183,67.8595404 C404.026255,68.6828936 402.125319,70.5991489 399.939787,72.8 L397.156809,70.0191489 C397.58234,69.5914894 401.195106,65.9574468 402.13766,65.0042553 C402.388723,64.7553191 402.833404,64.2234043 402.833404,62.8638298 L402.833404,58.3829787 L399.790851,58.3829787 C398.386596,58.3829787 397.916383,58.8234043 397.627021,59.1170213 C397.605429,59.1384555 397.541319,59.2026297 397.441109,59.3030944 L397.157422,59.5876593 C396.479039,60.2683864 395.167081,61.5860454 393.80634,62.9529295 L393.351755,63.4095745 C392.290585,64.4755713 391.239211,65.5318434 390.472782,66.3018702 L390.16256,66.6135503 C389.628745,67.1498781 389.295106,67.4851064 389.295106,67.4851064 C389.27383,67.5787234 389.265319,67.6361702 389.265319,67.6361702 L405.469574,83.8085106 C405.533404,83.7373916 405.663869,83.6028113 405.848343,83.4167481 L406.235996,83.0288202 C407.068104,82.2008167 408.436967,80.8607533 409.846293,79.4794299 L410.59346,78.7468737 C411.670282,77.6906435 412.719551,76.6588699 413.519335,75.8620857 L413.869943,75.5117914 C414.477283,74.9029865 414.881552,74.4856186 414.948298,74.387234 C418.148298,71.1914894 418.571702,65.7297872 418.571702,63.6106383 L418.572654,60.437707 C418.572684,60.3383453 418.572715,60.2372391 418.572746,60.1344761 L418.573579,57.3949461 C418.573617,57.2712854 418.573655,57.1466694 418.573693,57.0211857 L418.574648,53.8878692 C418.574689,53.7541137 418.57473,53.620192 418.574771,53.4861916 L418.575624,50.6907064 C418.575664,50.5599021 418.575704,50.429633 418.575744,50.2999868 L418.576644,47.3529562 C418.576679,47.238887 418.576713,47.1261421 418.576747,47.0148092 L418.577612,44.1860914 C418.577635,44.1117658 418.577657,44.0397289 418.577678,43.9700685 L418.578085,42.6404255 L418.578085,42.6404255 L399.445991,42.6407928 C396.750493,42.6487089 391.653096,42.8269353 387.644043,46.8319149 L387.465536,47.0113235 C387.443127,47.0338596 387.418889,47.0582365 387.392866,47.0844123 L387.215614,47.2627218 C385.994434,48.4913077 382.440719,52.0685246 378.653139,55.8813891 L378.037218,56.5014233 L378.037218,56.5014233 L377.11,57.4348404 C372.576261,61.998909 368.112862,66.4924237 367.249171,67.3619449 L367.154039,67.4577195 C367.11796,67.4940417 367.099362,67.512766 367.099362,67.512766 L398.858936,99.1319149 C399.01,101.357447 399.327021,103.753191 400.231277,106.046809 L361.53766,67.5297872 C361.53766,67.5297872 361.546711,67.5206749 361.564459,67.5028091 L361.701812,67.3645388 C362.583956,66.4765094 366.895607,62.1360993 371.565384,57.4353687 L372.250965,56.7452436 C372.480107,56.5145838 372.709745,56.2834255 372.939521,56.0521277 L373.628912,55.3581742 C378.797126,50.1557667 383.8553,45.0643982 384.742556,44.1722851 L384.863191,44.0510638 L384.863191,44.0510638 C389.917523,39.0007599 396.204908,38.7302079 399.29725,38.715714 L399.790851,38.7148936 C399.793256,38.7148936 399.817815,38.7148614 399.860656,38.7148027 L400.464276,38.7139511 C400.519306,38.7138727 400.576487,38.7137912 400.635336,38.7137073 L401.196928,38.7129046 C401.261426,38.7128123 401.32614,38.7127196 401.390586,38.7126273 L401.770173,38.7120831 C401.831611,38.7119949 401.891814,38.7119086 401.950296,38.7118246 L402.538575,38.7109796 C402.575558,38.7109265 402.608886,38.7108786 402.638075,38.7108366 L402.775957,38.7106383 L402.775957,38.7106383 L402.775803,38.6524424 C402.775753,38.6335709 402.775691,38.6103767 402.775619,38.5832553 L402.774722,38.2437989 C402.773356,37.7253972 402.771133,36.8752888 402.769504,36.2196206 L402.768682,35.8844292 C402.768558,35.832832 402.768441,35.7836323 402.768332,35.7372255 L402.767785,35.4954613 C402.767713,35.4618071 402.767652,35.4317364 402.767601,35.4056444 L402.767447,35.3 L402.767447,35.3 C402.767447,26.5553191 408.271702,21.0531915 410.618511,18.7021277 L410.686354,18.6344862 C410.700131,18.6207302 410.715941,18.6049415 410.733736,18.5871676 L410.946207,18.3748805 C411.034043,18.2871042 411.138463,18.1827408 411.258189,18.0630705 L413.804168,15.5177384 C414.508248,14.8137726 415.296306,14.0258127 416.133781,13.1884239 L416.699039,12.6232212 C416.889645,12.4326323 417.082313,12.2399817 417.276662,12.0456489 L421.773294,7.5492971 C422.566252,6.7563745 423.340601,5.9820533 424.072067,5.25060986 L427.921291,1.40146603 C427.97624,1.34651726 428.029713,1.2930445 428.081663,1.24109518 L428.740725,0.58203941 C428.918374,0.404391129 429.05201,0.270755435 429.135707,0.187059171 L429.211792,0.110973898 C429.228911,0.0938553272 429.23766,0.085106383 429.23766,0.085106383 L429.23766,0.0808510638 Z M426.250851,97.4651064 L426.250851,103.565106 L420.150851,103.565106 L420.150851,97.4651064 L426.250851,97.4651064 Z M438.457234,97.4651064 L438.457234,103.565106 L432.350851,103.565106 L432.350851,97.4651064 L438.457234,97.4651064 Z M458.677455,46.5766752 C460.929146,46.5792849 464.898593,46.6671986 467.850426,49.6148936 C467.860908,49.6254281 467.880293,49.6449201 467.908153,49.6729413 L468.016738,49.7821644 C468.81571,50.5858919 472.223087,54.0143669 475.757021,57.57044 L476.346756,58.1638721 C480.280463,62.1222537 484.200192,66.0668915 484.701489,66.5723404 L484.701489,66.5723404 L435.501489,66.5723404 L466.667447,97.512766 L463.897234,100.285106 L432.152553,68.4425532 L438.071702,62.5255319 L475.14617,62.5255319 C474.506049,61.8820669 473.850729,61.2233174 473.196533,60.5656969 L472.706351,60.0729497 C469.443276,56.7927988 466.310272,53.6434555 465.34738,52.6765917 L465.219478,52.5481871 C465.145399,52.4738385 465.094043,52.4223404 465.067447,52.3957447 C463.369574,50.7021277 461.048298,50.512766 458.488723,50.512766 L458.488723,50.512766 L450.107872,50.4914894 L454.027021,46.5765957 Z M432.350851,91.3629787 L432.350851,97.4629787 L426.250851,97.4629787 L426.250851,91.3629787 L432.350851,91.3629787 Z M493.633404,70.5446809 L489.548298,74.6297872 L454.612128,74.6297872 L472.131277,92.0510638 L469.367447,94.8170213 L445.071702,70.5446809 L493.633404,70.5446809 Z M432.350851,85.2629787 L438.459362,91.3629787 L432.350851,91.3629787 L432.350851,85.2629787 Z M426.250851,85.2629787 L426.250851,91.3629787 L420.150851,91.3629787 L420.150851,85.2629787 L426.250851,85.2629787 Z M426.250851,79.1629787 L432.350851,85.2629787 L426.250851,85.2629787 L426.250851,79.1629787 Z M485.33766,78.8404255 L481.48234,82.7 L468.527021,82.7 L464.507872,78.8404255 L485.33766,78.8404255 Z M461.552553,54.4382979 C462.603617,55.4978723 463.980213,56.8744681 465.458936,58.3617021 L465.458936,58.3617021 L442.239787,58.3617021 L446.163191,54.4382979 Z M429.23766,27.906383 L423.584468,33.6765957 C422.599628,34.6577128 422.518876,35.4628989 422.514077,37.1312458 L422.514255,44.9361702 L422.860847,44.5889412 C423.042955,44.4065153 423.2381,44.2110555 423.44546,44.0033868 L423.876222,43.5720152 C423.950649,43.4974883 424.026372,43.421666 424.103362,43.3445787 L424.580246,42.867121 C424.662178,42.7850964 424.745314,42.701868 424.829625,42.6174664 L425.8958,41.5502867 C425.989023,41.456988 426.083298,41.3626383 426.178596,41.2672681 L427.063066,40.3822081 C427.265385,40.1797719 427.47143,39.9736204 427.680957,39.763998 L428.319741,39.1249625 C428.427864,39.0168027 428.536798,38.9078362 428.646511,38.7980936 L432.509414,34.9355427 C433.125293,34.3199468 433.752287,33.6933511 434.386596,33.0595745 L429.23766,27.906383 Z M429.235532,16.7765957 L429.040816,16.9713175 L429.040816,16.9713175 L428.223296,17.78896 C428.082455,17.9298338 427.939547,18.0727808 427.794912,18.2174606 L426.683065,19.3297296 C426.456341,19.5565538 426.227642,19.7853622 425.998115,20.0150059 L425.078304,20.9353126 C424.772039,21.2417511 424.46702,21.5469517 424.165964,21.8481911 L423.277407,22.7373034 C422.986997,23.0278978 422.70327,23.3118081 422.428942,23.5863114 L422.024842,23.9906705 C421.562409,24.4533975 421.132928,24.8831456 420.750967,25.2653213 L420.010523,26.0061356 C419.922911,26.093784 419.840028,26.1766979 419.762213,26.254537 L419.447406,26.5694095 C419.416484,26.600334 419.386956,26.6298621 419.358865,26.6579513 L419.207904,26.8088797 C419.185731,26.8310432 419.16508,26.8516827 419.145994,26.8707557 L418.98234,27.0340426 C417.222766,28.7957447 414.57383,31.4468085 414.57383,35.3042553 L414.57383,38.7106383 L418.614255,38.7106383 L418.614255,35.387234 C418.614255,33.1617021 420.312128,31.2680851 421.771702,29.8106383 L421.803238,29.7788627 C421.828119,29.7538708 421.866461,29.7154329 421.917314,29.6644947 L422.364977,29.2164295 C422.429712,29.151659 422.499165,29.0821736 422.573054,29.0082534 L422.807747,28.7734692 C423.178907,28.4021776 423.634206,27.9467584 424.148028,27.4327489 L425.638949,25.9411115 C425.705352,25.8746679 425.772196,25.8077811 425.839446,25.7404863 L426.6637,24.9156035 C426.733638,24.8456047 426.803841,24.7753379 426.874276,24.7048382 L427.94369,23.6342529 C428.015551,23.5622998 428.087468,23.490289 428.159404,23.4182554 L428.590976,22.9860614 C428.806599,22.7701082 429.021767,22.554581 429.235532,22.3404255 L437.167447,30.2765957 C438.097234,29.3489362 439.029149,28.4191489 439.952553,27.4978723 L429.235532,16.7765957 Z M429.235532,5.64680851 L429.04209,5.84025382 L429.04209,5.84025382 L427.109547,7.77314298 C426.955402,7.92733159 426.79917,8.08361112 426.641087,8.2417442 L426.161527,8.72146665 C425.838435,9.04467217 425.508891,9.37434226 425.17479,9.70857777 L424.416175,10.4675106 C424.161274,10.7225221 423.90461,10.9793004 423.646984,11.2370444 L421.580611,13.3044028 C421.49492,13.3901349 421.40936,13.475737 421.32396,13.5611793 L420.560471,14.3250445 C420.392121,14.4934776 420.224766,14.6609154 420.058642,14.8271207 L419.564203,15.3218013 C419.237357,15.6488066 418.916385,15.9699319 418.603186,16.2832781 L417.912402,16.9743785 C417.687045,17.1998353 417.466861,17.4201152 417.252648,17.6344169 L416.832422,18.054812 C416.626527,18.2607867 416.427137,18.460249 416.235053,18.6523978 L414.456223,20.4315583 C414.2433,20.6444655 414.058819,20.8288968 413.906485,20.981143 L413.667802,21.2196249 C413.645317,21.2420826 413.624207,21.2631639 413.604501,21.2828391 L413.503356,21.3837795 C413.475416,21.4116437 413.453332,21.433646 413.437339,21.4495491 L413.129578,21.7577616 C410.86513,24.0356102 406.701489,28.4795918 406.701489,35.3 L406.701489,38.7106383 L410.635532,38.7106383 L410.635532,35.3 C410.635532,29.8191489 414.248298,26.2042553 416.195106,24.2574468 L416.279194,24.1730748 C416.295922,24.1563134 416.315038,24.1371647 416.336465,24.1157037 L416.492172,23.9597908 C416.674423,23.7773307 416.934504,23.5170287 417.25622,23.1950839 L417.782996,22.6679595 C417.846213,22.6047032 417.910917,22.5399596 417.977033,22.4738036 L419.065321,21.3849149 C419.143685,21.3065106 419.223086,21.227069 419.30345,21.1466651 L419.796578,20.6532932 C419.964404,20.4853865 420.135479,20.3142304 420.309204,20.1404248 L421.106827,19.3424406 C421.196989,19.2522386 421.287588,19.1615992 421.37855,19.0705974 L422.204973,18.2438217 C422.389897,18.0588194 422.575372,17.8732675 422.760798,17.687766 L423.867959,16.580161 C423.959373,16.4887109 424.050475,16.3975734 424.141189,16.3068234 L425.716033,14.7313807 C426.049506,14.3977835 426.369586,14.077587 426.671473,13.7755908 L427.317994,13.1288375 C427.453944,12.9928396 427.584446,12.8622917 427.7089,12.7377939 L429.113775,11.3324352 C429.193347,11.2528372 429.235532,11.2106383 429.235532,11.2106383 L442.739787,24.7191489 C443.692979,23.7680851 444.627021,22.8382979 445.524894,21.9425532 L443.77034,20.1873362 C443.275001,19.6918048 442.695039,19.111616 442.05722,18.4735478 L441.568426,17.9845627 C441.235889,17.6518956 440.890561,17.3064322 440.535788,16.9515199 L438.320574,14.7354359 C438.225782,14.6406061 438.130817,14.5456041 438.035733,14.4504822 L435.199539,11.6131709 C434.369266,10.7825709 433.571636,9.98462608 432.844761,9.25746371 L430.566221,6.978024 C430.511,6.92278142 430.457228,6.868988 430.404957,6.81669605 L430.109758,6.52138031 C429.879465,6.29099586 429.689307,6.10076307 429.54582,5.95721952 L429.235532,5.64680851 L429.235532,5.64680851 Z M388.322766,24.4808511 C390.750426,24.4808511 392.250426,24.7680851 392.824894,25.3382979 C393.399362,25.9106383 393.686596,27.406383 393.686596,29.8297872 C393.686596,32.4361702 393.412128,34.0319149 392.863191,34.6170213 C392.314255,35.2021277 390.822766,35.4914894 388.380213,35.4914894 C386.495106,35.4914894 385.205745,35.2957447 384.518511,34.906383 C383.827021,34.512766 383.484468,33.7851064 383.484468,32.7170213 L383.484468,32.3425532 L385.907872,32.3425532 C385.907872,33.0319149 386.044043,33.4531915 386.312128,33.6085106 C386.580213,33.7638298 387.299362,33.8425532 388.463191,33.8425532 C389.727021,33.8425532 390.495106,33.7340426 390.767447,33.5170213 C391.039787,33.3021277 391.175957,32.6851064 391.175957,31.6787234 L391.175957,30.0978723 L391.129149,30.0978723 C390.714255,30.8085106 389.705745,31.1595745 388.107872,31.1595745 C386.316383,31.1595745 385.112128,30.9553191 384.499362,30.5382979 C383.886596,30.1212766 383.580213,29.306383 383.580213,28.0893617 C383.580213,26.6702128 383.903617,25.712766 384.54617,25.2191489 C385.192979,24.7276596 386.448298,24.4808511 388.322766,24.4808511 Z M472.124894,24.5680851 L472.124894,26.5446809 L466.83766,35.3978723 L464.061064,35.3978723 L469.635532,26.2978723 L462.378085,26.2978723 L462.378085,24.5680851 L472.124894,24.5680851 Z M378.890851,24.5680851 L378.890851,35.3978723 L376.397234,35.3978723 L376.397234,26.3617021 L372.986596,29.1531915 L371.507872,27.8297872 L375.748298,24.5680851 L378.890851,24.5680851 Z M482.507872,24.5680851 L482.507872,35.3978723 L480.018511,35.3978723 L480.018511,26.3617021 L476.605745,29.1531915 L475.124894,27.8297872 L479.365319,24.5680851 L482.507872,24.5680851 Z M388.418511,26.1340426 C387.386596,26.1340426 386.729149,26.2319149 386.454681,26.4276596 C386.180213,26.6276596 386.044043,27.0957447 386.044043,27.8382979 C386.044043,28.5808511 386.18234,29.0468085 386.461064,29.2340426 C386.739787,29.4212766 387.441915,29.5106383 388.563191,29.5106383 C389.74617,29.5106383 390.486596,29.4234043 390.780213,29.2446809 C391.078085,29.0702128 391.227021,28.6276596 391.227021,27.9255319 C391.227021,27.1212766 391.069574,26.6191489 390.763191,26.4255319 C390.454681,26.2297872 389.669574,26.1340426 388.418511,26.1340426 Z" id="Combined-Shape"></path>
        </g>
    </g>
</svg>