<?xml version="1.0" encoding="UTF-8"?>
<svg width="971px" height="348px" viewBox="0 0 971 348" version="1.1" xmlns="http://www.w3.org/2000/svg" xmlns:xlink="http://www.w3.org/1999/xlink">
    <title>pluggi</title>
    <g id="Page-1" stroke="none" stroke-width="1" fill="none" fill-rule="evenodd">
        <g id="pluggi" transform="translate(19.000000, 1.000000)">
            <path d="M931.63,246.98 C932,227.1 932.22,209.21 932.34,193.67 C932.54,166.78 932.47,145.56 932.42,134.42 C932.34,119.42 932.2,106.42 932.06,96.17" id="Path" stroke="#FFFFFF" stroke-width="38" stroke-linecap="round"></path>
            <path d="M0,327.67 L0.06,163.92 C0.58,158.57 3.55,133.99 24.89,115.83 C44.45,99.15 66.56,98.94 73.56,98.9584196 C83.05,98.9584196 109.26,100.84 129.06,122.33 C146.78,141.57 148.06,164.33 148.17,171.67 C148.17,175.67 147.98,209.67 119.81,231.54 C100.94,246.15 80.42,246.97 73.56,246.93" id="Path" stroke="#FFFFFF" stroke-width="38" stroke-linecap="round"></path>
            <path d="M223.64,246.67 C223.64,229.87 223.613333,213.07 223.56,196.27 L223.56,18" id="Path" stroke="#FFFFFF" stroke-width="38" stroke-linecap="round"></path>
            <path d="M299.38,98.42 L300.3,193 C300.56,197.94 302.06,214.55 315.2,228.52 C330.89,245.23 351.56,245.79 357.2,245.840898 C360.57,245.840898 383,246.18 400.83,228.17 C414.1,214.76 415.66,197.17 415.91,192.17 L415.91,98.42" id="Path" stroke="#FFFFFF" stroke-width="38" stroke-linecap="round"></path>
            <path d="M566.48,247.5 C551.41,247.79 525.65,241.5 509.37,222.04 C489.69,198.5 492.37,173.16 492.47,168.34 C492.58,161.99 495.9,139.72 512.53,122 C534.27,98.86 558.39,98.42 567.45,98.42 C579.56,98.42 599.34,102.14 614.89,116.17 C636.89,136 640.56,161.17 640.53036,168 C640.45,193.71 640.53036,219.42 640.53036,245.13 C640.53036,275.13 631.89,292 619.29,305.34 C594.65,331.42 561.29,326.69 557.89,326.5" id="Path" stroke="#FFFFFF" stroke-width="38" stroke-linecap="round"></path>
            <path d="M785.56,245.37 C770.49,245.66 744.73,239.37 728.45,219.91 C708.77,196.37 711.45,171.03 711.55,166.21 C711.66,159.86 714.98,137.58 731.62,119.87 C753.35,96.73 777.47,96.29 786.53,96.29 C798.64,96.29 818.42,100.01 833.97,114.04 C855.97,133.87 859.64,159.04 859.620161,165.87 C859.53,191.58 859.620161,217.29 859.620161,242.99 C859.620161,273.04 850.97,289.87 838.37,303.21 C813.73,329.29 780.42,324.56 776.97,324.37" id="Path" stroke="#FFFFFF" stroke-width="38" stroke-linecap="round"></path>
            <circle id="Oval" fill="#FFFFFF" fill-rule="nonzero" cx="932.48" cy="19.74" r="19.03"></circle>
        </g>
    </g>
</svg>