<?xml version="1.0" encoding="UTF-8"?>
<svg width="432px" height="99px" viewBox="0 0 432 99" version="1.1" xmlns="http://www.w3.org/2000/svg" xmlns:xlink="http://www.w3.org/1999/xlink">
    <!-- Generator: Sketch 53.2 (72643) - https://sketchapp.com -->
    <title>profico</title>
    <desc>Created with Sketch.</desc>
    <g id="Page-1" stroke="none" stroke-width="1" fill="none" fill-rule="evenodd">
        <g id="profico" fill="#FFFFFF" fill-rule="nonzero">
            <path d="M172.6108,48.3002 C175.2738,34.4722 169.6398,30.5792 161.8558,30.5792 C158.3728,30.5792 154.7878,31.2962 152.6358,32.0132 L145.0568,67.8642 C146.6948,68.6842 150.5878,69.5032 154.0698,69.5032 C163.9038,69.5032 170.1528,61.4112 172.4058,49.4272 L172.6108,48.3002 Z M143.2128,76.4692 L139.3198,94.5992 C138.8078,97.2632 137.4768,98.3892 134.9158,98.3892 L131.4328,98.3892 C128.7698,98.3892 127.8478,97.2632 128.3598,94.5992 L142.2908,29.1452 C143.1108,25.4572 145.2608,24.8432 147.0028,24.2292 C150.4858,22.8972 157.8608,21.8722 163.6988,21.8722 C178.1418,21.8722 188.5898,29.0422 184.2878,48.1972 L183.9808,49.5292 C179.8828,67.6592 170.7668,78.2102 155.5048,78.2102 C150.8948,78.2102 146.7978,77.3912 143.2128,76.4692 Z" id="Fill-30"></path>
            <path d="M227.5146,27.8138 C226.5926,29.7598 226.8996,31.3988 223.9296,31.2958 C222.1876,30.9888 220.1396,30.8858 218.1936,30.8858 C215.5296,30.8858 211.0226,31.5018 207.9506,32.6278 L199.2436,73.3958 C198.7306,76.0588 197.3996,77.1858 194.8386,77.1858 L191.3556,77.1858 C188.6926,77.1858 187.7706,76.0588 188.2836,73.3958 L197.8086,28.7358 C198.3216,26.4818 199.5506,25.1508 202.4186,24.3308 C207.6426,22.3848 213.4816,21.8728 218.8076,21.8728 C222.5976,21.8728 224.7486,22.1798 226.7976,22.5888 C229.1536,22.9998 228.8466,24.2288 227.9246,26.9948 L227.5146,27.8138 Z" id="Fill-32"></path>
            <path d="M263.1621,49.1195 C265.8241,37.5445 262.8531,30.5795 254.3531,30.5795 C245.5431,30.5795 240.5231,37.1355 237.7581,49.1195 L237.3491,50.8605 C234.6851,62.6405 237.8611,69.5035 246.0551,69.5035 C254.3531,69.5035 259.8851,63.3575 262.7521,50.8605 L263.1621,49.1195 Z M226.2861,49.1195 C230.4861,30.7845 240.5231,21.8725 256.1971,21.8725 C271.3551,21.8725 278.7321,31.1935 274.6351,49.1195 L274.2251,50.8605 C270.0251,69.1965 259.8851,78.2105 244.2111,78.2105 C229.0521,78.2105 221.7791,68.7865 225.8761,50.8605 L226.2861,49.1195 Z" id="Fill-34"></path>
            <path d="M284.2637,26.6869 C284.8767,24.0239 286.2087,22.8969 288.7697,22.8969 L292.2517,22.8969 L293.2777,17.9799 C295.7347,6.4059 305.3637,0.8739 319.9097,0.8739 C325.3377,0.8739 330.6637,1.8979 333.2247,2.8199 C335.6837,3.4349 336.6057,4.3569 335.2737,7.0199 L334.8657,7.8389 C333.6347,10.2969 332.5077,11.0149 329.7427,10.8099 C327.3867,10.2969 324.4157,9.5809 319.9097,9.5809 C309.2557,9.5809 305.2617,12.6539 304.1347,17.9799 L303.1117,22.8969 L328.7187,22.8969 C331.3807,22.8969 332.3027,24.0239 331.6897,26.6869 L324.0057,63.1529 C323.1877,66.9429 323.6997,68.4789 326.0547,68.4789 C326.9767,68.4789 327.7967,68.2749 328.6157,68.0699 C329.8457,67.8649 330.0507,68.3759 330.0507,70.1189 L329.9477,71.5519 C329.8457,73.8059 329.7427,75.3419 326.3637,76.2639 C324.6207,76.8779 322.9827,77.1859 321.0347,77.1859 C314.2757,77.1859 310.5877,74.4199 312.9437,63.2549 L319.8067,31.3989 L301.3687,31.3989 L292.3557,73.3959 C291.8437,76.0589 290.5117,77.1859 287.9517,77.1859 L284.4667,77.1859 C281.9067,77.1859 280.9847,76.0589 281.4977,73.3959 L290.5117,31.3989 L287.0297,31.3989 C284.7757,31.3989 283.4437,30.3749 284.0587,27.6089 L284.2637,26.6869 Z" id="Fill-36"></path>
            <path d="M380.6523,28.1205 C379.7303,30.5795 379.1173,31.1935 377.2733,31.0915 C375.0193,30.8865 372.9703,30.5795 368.7713,30.5795 C358.0153,30.5795 352.6893,37.0325 349.9233,49.2225 L349.5133,50.9635 C346.6463,63.4605 350.7423,69.5035 360.8843,69.5035 C364.1623,69.5035 367.2343,69.1965 369.6933,68.8895 C371.1273,68.7865 371.6383,69.5035 371.4333,71.9625 L371.3323,73.6005 C371.1273,76.5715 368.8733,76.9805 367.8493,77.0835 C362.4203,77.9025 359.5523,78.2105 356.3773,78.2105 C340.3963,78.2105 333.7403,69.0945 338.1443,50.4515 L338.4513,49.2225 C342.5483,31.9105 350.6403,21.8725 368.0543,21.8725 C372.5603,21.8725 375.6343,22.1805 379.2183,22.8965 C381.0623,23.3075 382.1893,23.9215 381.2673,26.4815 L380.6523,28.1205 Z" id="Fill-38"></path>
            <path d="M418.5547,49.1195 C421.2167,37.5445 418.2457,30.5795 409.7457,30.5795 C400.9357,30.5795 395.9157,37.1355 393.1507,49.1195 L392.7417,50.8605 C390.0777,62.6405 393.2537,69.5035 401.4477,69.5035 C409.7457,69.5035 415.2777,63.3575 418.1447,50.8605 L418.5547,49.1195 Z M381.6797,49.1195 C385.8787,30.7845 395.9157,21.8725 411.5897,21.8725 C426.7477,21.8725 434.1247,31.1935 430.0277,49.1195 L429.6177,50.8605 C425.4177,69.1965 415.2777,78.2105 399.6037,78.2105 C384.4457,78.2105 377.1717,68.7865 381.2697,50.8605 L381.6797,49.1195 Z" id="Fill-40"></path>
            <path d="M63.1528,34.1839 C62.6778,36.4439 60.4618,38.2759 58.2028,38.2759 L51.6168,38.2759 C49.3588,38.2759 47.9088,36.4439 48.3848,34.1839 L49.7678,27.5929 C50.2408,25.3349 52.4598,23.5019 54.7178,23.5019 L61.3028,23.5019 C63.5608,23.5019 65.0078,25.3349 64.5358,27.5929 L63.1528,34.1839 Z" id="Fill-42"></path>
            <path d="M83.0464,34.1839 C82.5704,36.4439 80.3554,38.2759 78.0954,38.2759 L71.4994,38.2759 C69.2414,38.2759 67.7914,36.4439 68.2684,34.1839 L69.6504,27.5929 C70.1234,25.3349 72.3424,23.5019 74.6014,23.5019 L81.1954,23.5019 C83.4554,23.5019 84.9014,25.3349 84.4294,27.5929 L83.0464,34.1839 Z" id="Fill-44"></path>
            <path d="M102.9292,34.1839 C102.4532,36.4439 100.2382,38.2759 97.9782,38.2759 L91.3882,38.2759 C89.1282,38.2759 87.6802,36.4439 88.1552,34.1839 L89.5362,27.5929 C90.0102,25.3349 92.2302,23.5019 94.4872,23.5019 L101.0782,23.5019 C103.3362,23.5019 104.7842,25.3349 104.3122,27.5929 L102.9292,34.1839 Z" id="Fill-46"></path>
            <path d="M58.978,54.0716 C58.504,56.3306 56.288,58.1636 54.029,58.1636 L47.445,58.1636 C45.185,58.1636 43.737,56.3306 44.21,54.0716 L45.594,47.4796 C46.067,45.2206 48.285,43.3876 50.543,43.3876 L57.128,43.3876 C59.388,43.3876 60.836,45.2206 60.362,47.4796 L58.978,54.0716 Z" id="Fill-48"></path>
            <path d="M78.8706,54.0716 C78.3986,56.3306 76.1816,58.1636 73.9216,58.1636 L67.3276,58.1636 C65.0676,58.1636 63.6196,56.3306 64.0936,54.0716 L65.4756,47.4796 C65.9496,45.2206 68.1676,43.3876 70.4266,43.3876 L77.0226,43.3876 C79.2806,43.3876 80.7276,45.2206 80.2556,47.4796 L78.8706,54.0716 Z" id="Fill-50"></path>
            <path d="M98.7534,54.0716 C98.2814,56.3306 96.0644,58.1636 93.8044,58.1636 L87.2144,58.1636 C84.9544,58.1636 83.5064,56.3306 83.9814,54.0716 L85.3644,47.4796 C85.8374,45.2206 88.0554,43.3876 90.3144,43.3876 L96.9044,43.3876 C99.1614,43.3876 100.6104,45.2206 100.1384,47.4796 L98.7534,54.0716 Z" id="Fill-52"></path>
            <path d="M54.8062,73.9574 C54.3302,76.2164 52.1152,78.0484 49.8562,78.0484 L43.2712,78.0484 C41.0112,78.0484 39.5632,76.2164 40.0382,73.9574 L41.4182,67.3674 C41.8952,65.1074 44.1132,63.2754 46.3692,63.2754 L52.9542,63.2754 C55.2142,63.2754 56.6622,65.1074 56.1882,67.3674 L54.8062,73.9574 Z" id="Fill-54"></path>
            <path d="M74.6987,73.9574 C74.2247,76.2164 72.0087,78.0484 69.7497,78.0484 L63.1537,78.0484 C60.8937,78.0484 59.4457,76.2164 59.9207,73.9574 L61.3017,67.3674 C61.7777,65.1074 63.9957,63.2754 66.2527,63.2754 L72.8487,63.2754 C75.1067,63.2754 76.5557,65.1074 76.0807,67.3674 L74.6987,73.9574 Z" id="Fill-56"></path>
            <path d="M23.5845,34.1839 C23.1075,36.4439 20.8925,38.2759 18.6335,38.2759 L12.0365,38.2759 C9.7805,38.2759 8.3295,36.4439 8.8055,34.1839 L10.1885,27.5929 C10.6605,25.3349 12.8795,23.5019 15.1395,23.5019 L21.7325,23.5019 C23.9945,23.5019 25.4395,25.3349 24.9665,27.5929 L23.5845,34.1839 Z" id="Fill-58"></path>
            <path d="M66.979,15.4105 C66.503,17.6705 64.288,19.5025 62.029,19.5025 L55.438,19.5025 C53.179,19.5025 51.73,17.6705 52.204,15.4105 L53.587,8.8195 C54.06,6.5615 56.28,4.7285 58.537,4.7285 L65.127,4.7285 C67.387,4.7285 68.834,6.5615 68.362,8.8195 L66.979,15.4105 Z" id="Fill-60"></path>
            <path d="M39.2915,54.0716 C38.8185,56.3306 36.6015,58.1636 34.3425,58.1636 L27.7515,58.1636 C25.4925,58.1636 24.0435,56.3306 24.5195,54.0716 L25.9025,47.4796 C26.3755,45.2206 28.5935,43.3876 30.8525,43.3876 L37.4425,43.3876 C39.7005,43.3876 41.1485,45.2206 40.6755,47.4796 L39.2915,54.0716 Z" id="Fill-62"></path>
            <path d="M15.2368,73.9574 C14.7618,76.2164 12.5468,78.0484 10.2868,78.0484 L3.6908,78.0484 C1.4318,78.0484 -0.0162,76.2164 0.4588,73.9574 L1.8398,67.3674 C2.3148,65.1074 4.5328,63.2754 6.7908,63.2754 L13.3858,63.2754 C15.6458,63.2754 17.0938,65.1074 16.6178,67.3674 L15.2368,73.9574 Z" id="Fill-64"></path>
            <path d="M35.1196,73.9574 C34.6446,76.2164 32.4276,78.0484 30.1696,78.0484 L23.5796,78.0484 C21.3196,78.0484 19.8716,76.2164 20.3456,73.9574 L21.7266,67.3674 C22.2016,65.1074 24.4196,63.2754 26.6786,63.2754 L33.2686,63.2754 C35.5276,63.2754 36.9766,65.1074 36.5006,67.3674 L35.1196,73.9574 Z" id="Fill-66"></path>
            <path d="M29.2251,94.3539 C28.7511,96.6119 26.5331,98.4439 24.2761,98.4439 L17.6851,98.4439 C15.4251,98.4439 13.9781,96.6119 14.4511,94.3539 L15.8341,87.7639 C16.3081,85.5039 18.5251,83.6719 20.7851,83.6719 L27.3741,83.6719 C29.6341,83.6719 31.0831,85.5039 30.6081,87.7639 L29.2251,94.3539 Z" id="Fill-68"></path>
        </g>
    </g>
</svg>