<?xml version="1.0" encoding="UTF-8"?>
<svg width="248px" height="63px" viewBox="0 0 248 63" version="1.1" xmlns="http://www.w3.org/2000/svg" xmlns:xlink="http://www.w3.org/1999/xlink">
    <!-- Generator: Sketch 54.1 (76490) - https://sketchapp.com -->
    <title>Combined Shape</title>
    <desc>Created with Sketch.</desc>
    <g id="Page-1" stroke="none" stroke-width="1" fill="none" fill-rule="evenodd">
        <path d="M84.5,46 C85.9,45.3 86.6,44.1 86.6,42.6 C86.6,41.7 85.9,40.8 84.4,40 C82.9,39.2 81.2,38.3 79.2,37.4 C77.2,36.5 75.1,35.4 73,34.2 C70.9,33 69.2,31.3 67.8,29.1 C66.4,26.9 65.6,24.4 65.6,21.7 C65.6,16 67.9,11.1 72.4,7 C76.9,2.9 83.3,0.9 91.4,0.9 C94.2,0.9 96.8,1.2 99.4,1.8 C101.9,2.4 104,3.1 105.6,3.9 C107.2,4.7 108.6,5.5 109.9,6.3 C111.1,7.1 112,7.8 112.5,8.4 L113.4,9.2 L100.8,19.9 C100.6,19.6 100.2,19.3 99.8,18.9 C99.3,18.5 98.4,17.9 96.9,17.3 C95.4,16.6 94,16.3 92.5,16.3 C90.8,16.3 89.4,16.6 88.4,17.3 C87.4,18 86.9,18.9 86.9,20 C86.9,20.9 87.6,21.7 89.1,22.6 C90.5,23.4 92.3,24.3 94.3,25.2 C96.4,26.1 98.4,27.2 100.5,28.4 C102.6,29.6 104.3,31.3 105.8,33.4 C107.3,35.6 108,38 108,40.8 C108,47 105.7,52.2 101,56.4 C96.4,60.6 89.8,62.7 81.4,62.7 C78.4,62.7 75.6,62.4 72.8,61.7 C70,61 67.7,60.2 65.8,59.2 C63.9,58.2 62.3,57.2 60.8,56.3 C59.3,55.3 58.3,54.5 57.6,53.8 L56.6,52.8 L69.1,42.5 C69.4,42.9 69.9,43.3 70.5,43.9 C71.1,44.4 72.4,45.2 74.4,46.1 C76.3,47 78.2,47.5 80.1,47.5 C81.6,47.1 83.1,46.8 84.5,46 Z M140.9,21.6 L160.1,2.5 L182,2.5 L157,27.2 L171.4,60.8 L151,60.8 L142.4,40.5 L135.6,47.3 L132.7,60.9 L113.9,60.9 L126.3,2.6 L145,2.6 L140.9,21.6 Z M53,7.9 C56.7,11.5 58.6,15.7 58.6,20.6 C58.6,27.8 56.2,33.6 51.3,38.2 C46.5,42.7 40.3,45 32.8,45 L38.6,16.4 L29.4,16.4 L28.7,17.3 C28.2,18 27.4,18.7 26.2,19.4 C25,20.1 23.7,20.6 22.3,20.8 L21,27 L26.1,27 L22.3,45.1 L19,60.9 L0.3,60.9 L12.7,2.6 L38.7,2.6 C44.5,2.6 49.2,4.3 53,7.9 Z M197.172512,53.01633 C197.101041,52.4775534 197.110204,51.9387767 197.2,51.4 C201.7,53.6 207.3,52.8 207.3,52.8 C207.3,52.8 211,56.7 217.2,58.1 C217.2,59 217.3,60.6 217.3,60.6 C209.587327,60.6 202.543289,57.7372346 197.172512,53.01633 Z M187.596064,37.0529092 C187.075343,34.8195605 186.8,32.4919352 186.8,30.1 C186.8,25.020691 188.04161,20.2313755 190.237882,16.0190019 C190.868329,16.336174 192.5,17.2 192.5,17.2 C191.3,21.2 191.9,28.4 192.5,29.2 C190.1,31.9 189.2,35.7 189.1,38 C188.576554,37.7382771 188.053109,37.4004444 187.596062,37.0529008 Z M191.264301,14.2047443 C194.983312,8.12617652 200.771274,3.45094627 207.648679,1.15856165 C208.063333,1.27195399 208.466437,1.4664367 208.8,1.8 C207.6,2.7 205.1,5 203.2,9.6 C202,9.8 198.5,10.5 193.5,15.9 L191.2,14.7 C191.2,14.5476107 191.225803,14.3694185 191.264301,14.2047443 Z M225.747241,0.784901163 C232.805896,2.81519604 238.814426,7.32593548 242.768558,13.3128474 C242.251361,13.5283345 241.089806,14.2040775 240.6,14.4 C236.6,10 230.5,8.8 230.5,8.8 C229.4,5.7 226.4,3.1 224.3,1.5 C224.729712,1.15623037 225.233285,0.960182693 225.747241,0.784901163 Z M243.624978,14.6875111 C246.278585,19.2101807 247.8,24.4774176 247.8,30.1 C247.8,31.681889 247.679572,33.2356504 247.447384,34.7526164 L247.4,34.8 C246.9,35.5 246.3,36 245.6,36.3 C245.3,34.4 244.9,30.7 241.9,27.5 C243,24.2 242.3,16.4 241.8,15.6 L243.624978,14.6875111 Z M240.114312,50.3429638 C234.836463,56.2868774 227.2711,60.1539272 218.798504,60.5638316 L218.7,58.2 C224.6,57.1 228.3,52.8 228.7,52.4 C228.9,52.3 234.4,52.6 238.3,50.7 C238.3,51.2 238.3,51.7 238.3,52.2 C238.931878,51.6068085 239.537149,50.9870102 240.114312,50.3429638 Z M204.7,10.1 C205.6,7.8 207,5.6 208.8,3.9 C209.2,3.5 209.7,3 210.2,2.7 C211.1,2.2 216.9,0.5 222.6,2.2 C224.2,3.3 227.8,6.2 229,9.3 C227.6,10.9 223.6,16.4 223.2,17.2 C222.7,17.2 218.6,16.6 210.7,17.5 C210.2,16.8 205.3,11 204.7,10.1 Z M210.5,42.3 C209.3,44.7 207.6,49.1 207.1,51 C201.7,51.7 197.9,49.8 197.4,49.4 C193.6,45.8 191.2,40.7 191,38.9 C191.1,37.4 191.5,32.9 194.3,30 C197.8,30.6 203.3,30.8 203.7,31 C204.8,34 208.9,40.3 210.5,42.3 Z M224.1,40.8 C223.5,40.9 216.3,42.1 211.7,41.5 C211.3,41 207,35.1 204.9,30.3 C204.8,29.9 208.6,21.8 210.8,19.1 C216.8,18.3 222.2,18.6 223.3,18.8 C225.8,21.3 229.7,28.9 230,29.4 C228.4,34.8 224.7,40.2 224.1,40.8 Z M242.6,42.3 C241.6,44.5 239.9,46.9 238.2,48.7 C235.2,50.6 229.4,50.6 229.1,50.6 C228.9,49.3 226.6,43.9 225.4,41.6 C226.9,39.6 230.1,34.4 231.4,30 C236.4,29.5 240.1,28.7 240.4,28.6 C243.2,31.5 243.7,35.6 243.8,36.8 C244,38.7 243.3,40.7 242.6,42.3 Z" id="Combined-Shape" fill="#FFFFFF" fill-rule="nonzero"></path>
    </g>
</svg>