<?xml version="1.0" encoding="UTF-8"?>
<svg width="221px" height="60px" viewBox="0 0 221 60" version="1.1" xmlns="http://www.w3.org/2000/svg" xmlns:xlink="http://www.w3.org/1999/xlink">
    <!-- Generator: Sketch 53.2 (72643) - https://sketchapp.com -->
    <title>Combined Shape</title>
    <desc>Created with Sketch.</desc>
    <g id="Page-1" stroke="none" stroke-width="1" fill="none" fill-rule="evenodd">
        <g id="rba" transform="translate(0.000000, -1.000000)" fill="#FFFFFF" fill-rule="nonzero">
            <path d="M0,3.63 L56.6,3.63 L56.6,60.28 L0,60.25 L0,3.63 Z M28.21,38.76 L45.21,55.76 L51.88,49.09 L34.83,32.09 L38.15,28.8 L38.15,22.13 L40.52,19.76 L40.52,25.26 L42.83,27.53 L51.15,19.21 L53.4,21.43 C53.3103207,17.5864586 51.7414063,13.9256584 49.02,11.21 C44.64,6.89 40.2,9.42 38.67,11 L30.67,19 L32.67,21 L28.24,25.41 L23.79,21 L25.79,19 L17.79,11 C16.26,9.47 11.79,6.94 7.39,11.26 C4.6832321,13.9590201 3.13683244,17.6079492 3.08,21.43 L5.23,19.21 L13.55,27.53 L15.87,25.23 L15.87,19.76 L18.24,22.13 L18.24,28.75 L21.58,32.06 L4.68,48.92 L11.34,55.58 L28.21,38.76 Z M72.16,8.26 L72.16,14 L72.74,14 C74.7,14 76.92,13.65 76.92,11.14 C76.92,8.63 74.74,8.26 72.74,8.26 L72.16,8.26 Z M78.16,17.32 L85.47,26.82 L77.97,26.82 L72.29,17.91 L72.23,17.91 L72.23,26.82 L66.23,26.82 L66.23,3.64 L75.23,3.64 C79.76,3.64 83.23,5.83 83.23,10.78 C83.23,13.97 81.45,16.73 78.16,17.32 Z M95.15,15.38 C94.1772669,15.3301584 93.2292139,15.6962241 92.5423959,16.3868578 C91.8555779,17.0774914 91.4947701,18.027558 91.55,19 C91.6508689,20.9118587 93.2304822,22.4103292 95.145,22.4103292 C97.0595178,22.4103292 98.6391311,20.9118587 98.74,19 C98.7949843,18.0293833 98.4355011,17.0810261 97.7509373,16.3907418 C97.0663735,15.7004574 96.1210406,15.3330947 95.15,15.38 Z M104.15,11.05 L104.19,26.82 L98.6,26.82 L98.6,25.07 L98.54,25.07 C97.4315568,26.5790385 95.6401502,27.4315528 93.77,27.34 C89.06,27.34 85.77,23.43 85.77,18.92 C85.77,14.41 89,10.53 93.67,10.53 C95.5202939,10.4820454 97.3017691,11.2325237 98.56,12.59 L98.56,11.05 L104.15,11.05 Z M113.45,26.82 L107.87,26.82 L107.87,11.05 L113.45,11.05 L113.45,26.82 Z M113.8,5 C113.8,6.73417411 112.394174,8.14 110.66,8.14 C108.925826,8.14 107.52,6.73417411 107.52,5 C107.52,3.26582589 108.925826,1.86 110.66,1.86 C112.391895,1.86548941 113.794511,3.26810477 113.8,5 Z M123.29,26.82 L117.7,26.82 L117.7,15.66 L115.7,15.66 L115.7,11.05 L117.7,11.05 L117.7,9.05 C117.7,6.87 117.76,5.28 119.3,3.52 C120.670136,1.90755285 122.684101,0.984790668 124.8,1 C125.632829,0.985379609 126.456649,1.17417177 127.2,1.55 L127.2,6.37 C126.576998,6.06021521 125.895271,5.88637485 125.2,5.86 C123.75,5.86 123.26,6.72 123.26,8.5 L123.26,11.05 L127.17,11.05 L127.17,15.66 L123.26,15.66 L123.29,26.82 Z M135.22,26.82 L129.63,26.82 L129.63,15.66 L127.63,15.66 L127.63,11.05 L129.63,11.05 L129.63,9.05 C129.63,6.87 129.68,5.28 131.22,3.52 C132.590136,1.90755285 134.604101,0.984790668 136.72,1 C137.552913,0.984568639 138.376926,1.173405 139.12,1.55 L139.12,6.37 C138.497429,6.05905678 137.815448,5.88515161 137.12,5.86 C135.67,5.86 135.19,6.72 135.19,8.5 L135.19,11.05 L139.09,11.05 L139.09,15.66 L135.19,15.66 L135.22,26.82 Z M145.52,16.64 L152,16.64 C151.613118,15.16774 150.282244,14.1414106 148.76,14.1414106 C147.237756,14.1414106 145.906882,15.16774 145.52,16.64 Z M157.19,19.29 L157.19,19.87 L145.42,19.87 C145.42,22.15 146.61,23.37 148.93,23.37 C150.025996,23.4580521 151.071502,22.8941839 151.6,21.93 L156.95,21.93 C156.08,25.65 152.55,27.34 148.95,27.34 C143.73,27.34 139.83,24.39 139.83,18.95 C139.83,13.69 143.42,10.53 148.55,10.53 C154.03,10.53 157.19,13.91 157.19,19.29 Z M165.33,26.82 L159.74,26.82 L159.74,11.05 L165.33,11.05 L165.33,26.82 Z M165.67,5 C165.669994,6.27092007 164.903871,7.41650558 163.729305,7.90192616 C162.554739,8.38734674 161.203388,8.11686373 160.306146,7.21675538 C159.408905,6.31664703 159.142733,4.96444013 159.631898,3.79142875 C160.121063,2.61841737 161.269086,1.85595248 162.54,1.86 C164.270268,1.86551043 165.670009,3.26972363 165.67,5 Z M179.44,15.11 C178.51004,14.6325464 177.48495,14.3694401 176.44,14.34 C175.79,14.34 174.69,14.61 174.69,15.42 C174.69,16.49 176.44,16.64 177.21,16.8 C179.82,17.32 181.78,18.55 181.78,21.47 C181.78,25.62 178,27.34 174.35,27.34 C172.107564,27.3292487 169.911101,26.7031703 168,25.53 L170,21.62 C171.308452,22.5371296 172.837483,23.0893753 174.43,23.22 C175.13,23.22 176.18,22.88 176.18,22.02 C176.18,20.79 174.43,20.73 172.68,20.27 C170.93,19.81 169.18,18.95 169.18,16.12 C169.18,12.25 172.68,10.53 176.12,10.53 C177.90192,10.4845763 179.672529,10.8257342 181.31,11.53 L179.44,15.11 Z M189.31,16.64 L195.79,16.64 C195.403118,15.16774 194.072244,14.1414106 192.55,14.1414106 C191.027756,14.1414106 189.696882,15.16774 189.31,16.64 Z M201,19.29 L201,19.87 L189.2,19.87 C189.2,22.15 190.39,23.37 192.7,23.37 C193.799479,23.4621413 194.849983,22.8976915 195.38,21.93 L200.76,21.93 C199.9,25.65 196.36,27.34 192.76,27.34 C187.54,27.34 183.64,24.39 183.64,18.95 C183.64,13.69 187.23,10.53 192.37,10.53 C197.84,10.53 201,13.91 201,19.29 Z M209.13,13.08 L209.19,13.08 C210.254084,11.3677448 212.179194,10.3859388 214.19,10.53 C218.43,10.53 220.12,13.2 220.12,17.07 L220.12,26.82 L214.52,26.82 L214.52,19.13 C214.52,17.63 214.77,14.99 212,14.99 C209.73,14.99 209.09,16.68 209.09,18.64 L209.09,26.82 L203.49,26.82 L203.49,11.05 L209.09,11.05 L209.13,13.08 Z M73.86,50.71 L73.07,55.69 L73.84,55.69 C75.63,55.69 78.63,55.78 79.03,53.23 C79.48,50.42 76.48,50.71 74.48,50.71 L73.86,50.71 Z M75.6,60.31 L66.31,60.31 L70,37.13 L78.6,37.13 C82.72,37.13 85.24,38.7 84.54,43.13 C84.3529382,45.1843191 83.0942073,46.9868521 81.23,47.87 L81.23,47.93 C84.48,48.37 85.54,50.61 85.03,53.84 C84.26,58.71 79.84,60.31 75.6,60.31 Z M75.28,41.71 L74.57,46.21 L75.25,46.21 C76.87,46.21 78.54,46.08 78.87,43.96 C79.2,41.84 77.34,41.71 75.71,41.71 L75.28,41.71 Z M101.1,51.66 L99.83,44.27 L99.77,44.27 L96.1,51.66 L101.1,51.66 Z M102,56.27 L93.69,56.31 L91.45,60.31 L85.05,60.31 L97.65,37.1 L104.23,37.1 L109.3,60.27 L102.87,60.27 L102,56.27 Z M114.85,37.1 L120.85,37.1 L129.65,51.29 L129.71,51.29 L132,37.1 L138,37.1 L134.33,60.31 L128.33,60.31 L119.53,46.08 L119.47,46.08 L117.2,60.31 L111.2,60.31 L114.85,37.1 Z M155.35,37.1 L162.83,37.1 L151.83,48.1 L160,60.31 L152.18,60.31 L146,50.24 L145.94,50.24 L144.35,60.31 L138.35,60.31 L142,37.1 L148,37.1 L146.48,46.67 L146.54,46.67 L155.35,37.1 Z" id="Combined-Shape"></path>
        </g>
    </g>
</svg>