<?xml version="1.0" encoding="UTF-8"?>
<svg width="863px" height="358px" viewBox="0 0 863 358" version="1.1" xmlns="http://www.w3.org/2000/svg" xmlns:xlink="http://www.w3.org/1999/xlink">
    <!-- Generator: Sketch 53.2 (72643) - https://sketchapp.com -->
    <title>Combined Shape</title>
    <desc>Created with Sketch.</desc>
    <g id="Page-1" stroke="none" stroke-width="1" fill="none" fill-rule="evenodd">
        <path d="M51.2012493,132.600239 L51.417078,132.603263 L53.2150543,169.809247 L50.782922,170.713196 C50.782922,170.713196 51.7701876,193.844939 49.7127838,205.776352 C48.0553307,215.384866 43.1478282,241.412128 32.9905232,255.028992 C25.0419546,265.685512 23.146693,270.039595 29.4666338,274.987908 C33.4481244,278.106714 49.0353899,273.288051 54.9589832,266.272539 C72.5342603,245.469575 72.9862269,233.144092 77.4258892,219.767605 C82.2493459,211.809846 106.52992,175.242043 145.311797,175.434622 C190.106269,175.654307 207.592399,207.483411 217.526308,222.151882 C217.768903,222.510011 217.999004,222.83456 218.217078,223.126954 C218.716574,224.450359 219.160223,225.703159 219.551283,226.869706 C220.178233,228.738829 231.18228,251.560851 234.396298,256.54878 C236.561797,259.908879 250.851925,273.457316 261.549704,272.546164 C266.385143,272.135605 274.694028,267.691487 266.799506,258.453916 C254.754146,244.358067 250.985242,232.833612 246.726308,214.830252 C241.296347,191.889383 242.28001,169.423898 242.28001,169.423898 L239.476752,168.487536 L240.784699,131.548055 L242.186328,131.713719 L245.472409,108.880893 L240.651382,107.072994 L242.881737,95.5845522 L253.197581,97.64815 L256.235044,80.2678309 L246.441658,78.1214011 L248.300888,67.6773635 L229.917572,64.403698 L227.950247,74.5344144 L216.611106,72.4131944 L213.728578,89.1164517 L224.599309,91.313301 L222.264462,102.07066 C204.562142,97.280808 156.467177,94.3276663 156.467177,94.3276663 L156.467177,86.1272961 L169.164709,86.0948836 L169.254788,67.011106 L156.960809,66.9894976 L156.827493,56.2357403 L135.893139,56.2357403 L135.875123,67.3460355 L122.417325,67.3316299 L122.417325,86.3253727 L135.525617,86.2605477 L135.576061,95.0047281 C100.740721,96.8522423 68.7590819,104.263908 68.7590819,104.263908 L66.0386969,93.6037865 L75.5258144,91.0828119 L71.8253702,74.2787156 L61.9779368,76.6340261 L59.3872655,66.5537292 L41.4759625,70.3964147 L43.2883514,80.2426212 L33.3508391,82.5619178 L37.5953603,100.089894 L46.6284798,98.0947227 L48.9705331,108.960123 L45.4502468,110.213408 L49.874926,132.581655 L51.2004743,132.600228 C52.00623,132.365318 99.5189462,118.572239 146.88998,118.572239 C183.898026,118.572239 196.945064,119.029616 240.554097,131.548055 C215.324778,122.811907 184.042008,118.547858 146.705788,118.75591 C116.507359,118.924187 84.6725134,123.538963 51.2012493,132.600239 Z M292,0.194475183 L291.72616,285.536386 C289.964215,315.053397 295.549112,341.847756 243.941066,341.847756 C194.502122,341.847756 184.092596,342.45279 179.563425,343.356739 C175.787315,344.113031 161.450346,344.228276 147.416041,358 C133.385341,344.228276 116.778381,344.113031 113.00227,343.356739 C108.4731,342.45279 98.0671767,341.847756 48.6246298,341.847756 C-2.9834156,341.847756 0.735044423,315.327103 0.0576505429,285.716456 L0,0 L292,0.194475183 Z M87.5351431,131.173511 C92.2300592,130.3704 92.8534057,130.690924 93.9235439,133.993401 C94.5685094,137.558779 94.9612537,141.070137 95.7971866,147.102469 C96.2259625,150.188862 95.3720138,150.725469 91.3725074,151.366517 C87.2685094,151.636622 70.8308983,153.703821 70.8308983,153.703821 C66.5107108,153.383297 67.1520731,150.08082 66.5107108,145.229745 C66.0278875,138.36189 63.9596742,136.114621 71.4722606,134.580428 C79.7090819,132.898578 80.8765054,132.311551 87.5351431,131.173511 Z M205.01614,130.327183 C211.674778,131.465223 212.842201,132.05225 221.079023,133.734101 C228.591609,135.268294 226.519793,137.515562 226.040573,144.383417 C225.395607,149.234493 226.040573,152.53697 221.720385,152.853892 C221.720385,152.853892 205.282774,150.786693 201.178776,150.516589 C197.179269,149.875541 196.325321,149.342535 196.754097,146.256141 C197.59003,140.220208 197.982774,136.712452 198.627739,133.143472 C199.697878,129.844597 200.321224,129.524073 205.01614,130.327183 Z M146.88998,121.917933 C167.654985,122.220449 176.529566,135.005392 179.012142,137.486751 C179.469743,137.944128 164.073445,151.118021 146.281046,150.988371 C125.595311,150.833511 114.389487,137.108605 114.389487,137.108605 C114.389487,137.108605 126.124975,121.615416 146.88998,121.917933 Z M65.1198914,182.965133 C70.0562192,173.216164 78.1561204,171.970082 79.9036525,171.36865 C80.2243337,171.257007 82.9086871,181.578597 78.7398322,189.962638 C73.8935834,199.711607 64.8100197,201.843631 64.8100197,201.843631 C64.8100197,201.843631 60.1835637,192.717703 65.1198914,182.965133 Z M68.0564659,184.751423 C65.0586377,190.672112 67.0908193,196.441543 67.0908193,196.441543 C67.0908193,196.441543 72.6324778,195.350321 75.9293682,188.680542 C79.4712734,181.520975 76.8589832,177.001227 76.6536032,177.022836 C75.698766,177.13808 71.050691,178.834336 68.0564659,184.751423 Z M67.2133268,196.189445 L76.4590326,177.238919 L67.2133268,196.189445 Z M229.604097,181.484961 C234.540424,191.23393 229.913968,200.359858 229.913968,200.359858 C229.913968,200.359858 220.826802,198.227833 215.984156,188.478864 C211.815301,180.094823 214.499654,169.776834 214.820336,169.884876 C216.567868,170.486309 224.667769,171.73239 229.604097,181.484961 Z M226.671125,183.271251 C223.673297,177.350562 219.025222,175.654307 218.070385,175.542663 C217.865005,175.517454 215.252715,180.037201 218.79462,187.196769 C222.09151,193.866547 227.633169,194.957769 227.633169,194.957769 C227.633169,194.957769 229.66535,189.188339 226.671125,183.271251 Z M227.507058,194.705672 L218.264956,175.758747 L227.507058,194.705672 Z M166.584847,108.772851 C166.584847,106.143834 168.72152,104.008209 171.355429,104.008209 C173.989339,104.008209 176.122409,106.143834 176.122409,108.772851 C176.122409,111.40907 173.989339,113.541094 171.355429,113.541094 C168.72152,113.541094 166.584847,111.40907 166.584847,108.772851 Z M118.666436,109.089773 C118.666436,106.457156 120.80311,104.32153 123.437019,104.32153 C126.070928,104.32153 128.203998,106.457156 128.203998,109.089773 C128.203998,111.722391 126.070928,113.854415 123.437019,113.854415 C120.80311,113.854415 118.666436,111.722391 118.666436,109.089773 Z M94.7666831,112.204978 C94.7666831,109.741625 96.7628332,107.746454 99.2237907,107.746454 C101.688351,107.746454 103.684501,109.741625 103.684501,112.204978 C103.684501,114.664728 101.688351,116.6599 99.2237907,116.6599 C96.7628332,116.6599 94.7666831,114.664728 94.7666831,112.204978 Z M189.093781,110.775225 C189.093781,108.315474 191.089931,106.320303 193.554492,106.320303 C196.015449,106.320303 198.011599,108.315474 198.011599,110.775225 C198.011599,113.234976 196.015449,115.233748 193.554492,115.233748 C191.089931,115.233748 189.093781,113.234976 189.093781,110.775225 Z M208.507601,112.737984 C208.507601,110.782428 210.096594,109.194214 212.05311,109.194214 C214.009625,109.194214 215.598618,110.782428 215.598618,112.737984 C215.598618,114.697141 214.009625,116.281754 212.05311,116.281754 C210.096594,116.281754 208.507601,114.697141 208.507601,112.737984 Z M76.8229516,114.416232 C76.8229516,112.457075 78.4083416,110.872462 80.36846,110.872462 C82.3249753,110.872462 83.9103653,112.457075 83.9103653,114.416232 C83.9103653,116.371788 82.3249753,117.956401 80.36846,117.956401 C78.4083416,117.956401 76.8229516,116.371788 76.8229516,114.416232 Z M62.9507897,117.9528 C62.9507897,116.371788 64.2299112,115.093294 65.8080948,115.093294 C67.3898815,115.093294 68.669003,116.371788 68.669003,117.9528 C68.669003,119.530209 67.3898815,120.812305 65.8080948,120.812305 C64.2299112,120.812305 62.9507897,119.530209 62.9507897,117.9528 Z M224.574087,115.900006 C224.574087,114.318995 225.856811,113.040501 227.434995,113.040501 C229.013179,113.040501 230.295903,114.318995 230.295903,115.900006 C230.295903,117.477416 229.013179,118.75591 227.434995,118.75591 C225.856811,118.75591 224.574087,117.477416 224.574087,115.900006 Z M235.841165,118.547029 C235.841165,117.218116 236.918509,116.144901 238.244472,116.144901 C239.574038,116.144901 240.647779,117.218116 240.647779,118.547029 C240.647779,119.872342 239.574038,120.949158 238.244472,120.949158 C236.918509,120.949158 235.841165,119.872342 235.841165,118.547029 Z M51.3918559,121.507374 C51.3918559,120.182061 52.4692004,119.105245 53.7951629,119.105245 C55.1247285,119.105245 56.1984699,120.182061 56.1984699,121.507374 C56.1984699,122.832686 55.1247285,123.909502 53.7951629,123.909502 C52.4692004,123.909502 51.3918559,122.832686 51.3918559,121.507374 Z M56.5984205,147.437398 C56.5984205,146.108484 57.6721619,145.03527 58.9981244,145.03527 C60.32769,145.03527 61.4014314,146.108484 61.4014314,147.437398 C61.4014314,148.762711 60.32769,149.839527 58.9981244,149.839527 C57.6721619,149.839527 56.5984205,148.762711 56.5984205,147.437398 Z M102.509872,138.974126 C102.509872,137.648814 103.583613,136.571998 104.913179,136.571998 C106.239141,136.571998 107.312883,137.648814 107.312883,138.974126 C107.312883,140.30304 106.239141,141.376255 104.913179,141.376255 C103.583613,141.376255 102.509872,140.30304 102.509872,138.974126 Z M186.376999,137.832485 C186.376999,136.507173 187.45074,135.433958 188.780306,135.433958 C190.106269,135.433958 191.183613,136.507173 191.183613,137.832485 C191.183613,139.161399 190.106269,140.234614 188.780306,140.234614 C187.45074,140.234614 186.376999,139.161399 186.376999,137.832485 Z M231.866881,144.541879 C231.866881,143.216566 232.944225,142.13975 234.270188,142.13975 C235.59615,142.13975 236.673495,143.216566 236.673495,144.541879 C236.673495,145.867191 235.59615,146.944007 234.270188,146.944007 C232.944225,146.944007 231.866881,145.867191 231.866881,144.541879 Z M140.941165,107.083798 C140.941165,103.482405 143.863327,100.561676 147.466486,100.561676 C151.069645,100.561676 153.991807,103.482405 153.991807,107.083798 C153.991807,110.68519 151.069645,113.605919 147.466486,113.605919 C143.863327,113.605919 140.941165,110.68519 140.941165,107.083798 Z M142.865252,162.185099 C142.865252,159.725349 144.861402,157.726576 147.325962,157.726576 C149.78692,157.726576 151.78307,159.725349 151.78307,162.185099 C151.78307,164.64485 149.78692,166.640022 147.325962,166.640022 C144.861402,166.640022 142.865252,164.64485 142.865252,162.185099 Z M126.672655,163.50681 C126.672655,162.181498 127.75,161.104682 129.075962,161.104682 C130.401925,161.104682 131.479269,162.181498 131.479269,163.50681 C131.479269,164.835724 130.401925,165.908939 129.075962,165.908939 C127.75,165.908939 126.672655,164.835724 126.672655,163.50681 Z M163.878875,162.660483 C163.878875,161.335171 164.956219,160.258355 166.282182,160.258355 C167.611747,160.258355 168.685489,161.335171 168.685489,162.660483 C168.685489,163.985796 167.611747,165.062612 166.282182,165.062612 C164.956219,165.062612 163.878875,163.985796 163.878875,162.660483 Z M107.5615,167.216244 C107.5615,165.257087 109.14689,163.672474 111.107009,163.672474 C113.063524,163.672474 114.648914,165.257087 114.648914,167.216244 C114.648914,169.1718 113.063524,170.756413 111.107009,170.756413 C109.14689,170.756413 107.5615,169.1718 107.5615,167.216244 Z M180.075074,166.956944 C180.075074,164.997787 181.660464,163.413174 183.620582,163.413174 C185.577098,163.413174 187.162488,164.997787 187.162488,166.956944 C187.162488,168.9125 185.577098,170.500714 183.620582,170.500714 C181.660464,170.500714 180.075074,168.9125 180.075074,166.956944 Z M86.5154492,181.924331 C86.5154492,180.599018 87.5927937,179.522202 88.9187562,179.522202 C90.2447187,179.522202 91.3220632,180.599018 91.3220632,181.924331 C91.3220632,183.249643 90.2447187,184.326459 88.9187562,184.326459 C87.5927937,184.326459 86.5154492,183.249643 86.5154492,181.924331 Z M202.710118,180.890731 C202.710118,179.565419 203.787463,178.488602 205.113425,178.488602 C206.439388,178.488602 207.516732,179.565419 207.516732,180.890731 C207.516732,182.216043 206.439388,183.29286 205.113425,183.29286 C203.787463,183.29286 202.710118,182.216043 202.710118,180.890731 Z M229.395114,210.108826 C229.395114,208.322536 230.843583,206.874776 232.63075,206.874776 C234.417917,206.874776 235.86999,208.322536 235.86999,210.108826 C235.86999,211.895117 234.417917,213.342877 232.63075,213.342877 C230.843583,213.342877 229.395114,211.895117 229.395114,210.108826 Z M59.3224087,211.135223 C59.3224087,209.456974 60.6807996,208.09925 62.3562685,208.09925 C64.0353406,208.09925 65.3937315,209.456974 65.3937315,211.135223 C65.3937315,212.809871 64.0353406,214.167596 62.3562685,214.167596 C60.6807996,214.167596 59.3224087,212.809871 59.3224087,211.135223 Z M57.6757651,174.534274 C57.6757651,173.208961 58.7531096,172.132145 60.0790721,172.132145 C61.4050346,172.132145 62.4823791,173.208961 62.4823791,174.534274 C62.4823791,175.863187 61.4050346,176.936402 60.0790721,176.936402 C58.7531096,176.936402 57.6757651,175.863187 57.6757651,174.534274 Z M53.8600197,228.681206 C53.8600197,227.355894 54.9373643,226.279078 56.2633268,226.279078 C57.5892892,226.279078 58.6666338,227.355894 58.6666338,228.681206 C58.6666338,230.006519 57.5892892,231.083335 56.2633268,231.083335 C54.9373643,231.083335 53.8600197,230.006519 53.8600197,228.681206 Z M235.999704,226.477154 C235.999704,225.151842 237.077048,224.075026 238.403011,224.075026 C239.732577,224.075026 240.806318,225.151842 240.806318,226.477154 C240.806318,227.802467 239.732577,228.879283 238.403011,228.879283 C237.077048,228.879283 235.999704,227.802467 235.999704,226.477154 Z M243.079911,241.127618 C243.079911,239.975173 244.013129,239.042412 245.16614,239.042412 C246.315548,239.042412 247.248766,239.975173 247.248766,241.127618 C247.248766,242.276462 246.315548,243.209223 245.16614,243.209223 C244.013129,243.209223 243.079911,242.276462 243.079911,241.127618 Z M48.559773,243.245237 C48.559773,242.096393 49.4929911,241.160031 50.646002,241.160031 C51.7990128,241.160031 52.732231,242.096393 52.732231,243.245237 C52.732231,244.397682 51.7990128,245.330443 50.646002,245.330443 C49.4929911,245.330443 48.559773,244.397682 48.559773,243.245237 Z M231.430898,172.996479 C231.430898,171.667565 232.508243,170.59435 233.834205,170.59435 C235.160168,170.59435 236.237512,171.667565 236.237512,172.996479 C236.237512,174.321791 235.160168,175.395006 233.834205,175.395006 C232.508243,175.395006 231.430898,174.321791 231.430898,172.996479 Z M373.229492,52.206543 L373.632324,68.7592773 L372.130859,68.7592773 C371.422848,64.608866 369.683363,61.2702763 366.912354,58.7434082 C364.141344,56.2165401 361.144547,54.953125 357.921875,54.953125 C355.431628,54.953125 353.460212,55.6184016 352.007568,56.9489746 C350.554924,58.2795477 349.828613,59.8115148 349.828613,61.5449219 C349.828613,62.6435602 350.084958,63.6201129 350.597656,64.4746094 C351.305668,65.622076 352.44091,66.7573186 354.003418,67.8803711 C355.150885,68.6860392 357.799784,70.1142476 361.950195,72.1650391 C367.760771,75.0214987 371.679189,77.7192256 373.705566,80.2583008 C375.70753,82.797376 376.708496,85.7026204 376.708496,88.9741211 C376.708496,93.1245325 375.091081,96.6950534 371.856201,99.685791 C368.621322,102.676529 364.513697,104.171875 359.533203,104.171875 C357.970695,104.171875 356.493659,104.013185 355.102051,103.695801 C353.710442,103.378416 351.964854,102.780278 349.865234,101.901367 C348.693354,101.413083 347.729008,101.168945 346.972168,101.168945 C346.337399,101.168945 345.666019,101.413083 344.958008,101.901367 C344.249996,102.389651 343.676272,103.134272 343.236816,104.135254 L341.881836,104.135254 L341.881836,85.3852539 L343.236816,85.3852539 C344.311041,90.6587178 346.380112,94.6808943 349.444092,97.4519043 C352.508072,100.222914 355.810041,101.608398 359.350098,101.608398 C362.084486,101.608398 364.26342,100.863777 365.886963,99.3745117 C367.510506,97.8852465 368.322266,96.1518654 368.322266,94.1743164 C368.322266,93.0024355 368.010989,91.867193 367.388428,90.7685547 C366.765866,89.6699164 365.819831,88.6262256 364.550293,87.6374512 C363.280755,86.6486767 361.034684,85.3608478 357.812012,83.7739258 C353.295388,81.552235 350.04835,79.6601641 348.070801,78.0976562 C346.093252,76.5351484 344.573492,74.7895604 343.511475,72.8608398 C342.449458,70.9321193 341.918457,68.8081171 341.918457,66.4887695 C341.918457,62.5336716 343.371079,59.1645647 346.276367,56.3813477 C349.181655,53.5981306 352.843728,52.206543 357.262695,52.206543 C358.874031,52.206543 360.436516,52.4018535 361.950195,52.7924805 C363.097662,53.0854507 364.495353,53.6286581 366.143311,54.4221191 C367.791268,55.2155801 368.944821,55.6123047 369.604004,55.6123047 C370.238773,55.6123047 370.739256,55.4169941 371.105469,55.0263672 C371.471682,54.6357402 371.813475,53.6958082 372.130859,52.206543 L373.229492,52.206543 Z M395.962891,80.5146484 L395.962891,94.2841797 C395.962891,96.96974 396.127684,98.6603969 396.457275,99.3562012 C396.786867,100.052005 397.372799,100.60742 398.215088,101.022461 C399.057377,101.437502 400.601551,101.64502 402.847656,101.64502 L402.847656,103 L377.615723,103 L377.615723,101.64502 C379.910656,101.64502 381.467037,101.431399 382.284912,101.00415 C383.102787,100.576902 383.676512,100.021488 384.006104,99.3378906 C384.335695,98.6542935 384.500488,96.96974 384.500488,94.2841797 L384.500488,62.0576172 C384.500488,59.3720569 384.335695,57.6814 384.006104,56.9855957 C383.676512,56.2897914 383.096684,55.7343771 382.266602,55.3193359 C381.436519,54.9042948 379.886242,54.6967773 377.615723,54.6967773 L377.615723,53.3417969 L399.258789,53.3417969 C406.387731,53.3417969 411.502426,54.6113154 414.603027,57.1503906 C417.703629,59.6894658 419.253906,62.8632622 419.253906,66.671875 C419.253906,69.8945474 418.25294,72.6533088 416.250977,74.9482422 C414.249013,77.2431755 411.490252,78.8056599 407.974609,79.6357422 C405.606433,80.2216826 401.602567,80.5146484 395.962891,80.5146484 Z M395.962891,56.1982422 L395.962891,77.6582031 C396.768559,77.7070315 397.378904,77.7314453 397.793945,77.7314453 C400.772476,77.7314453 403.067375,76.8464444 404.678711,75.076416 C406.290047,73.3063876 407.095703,70.5659365 407.095703,66.8549805 C407.095703,63.1684386 406.290047,60.4707117 404.678711,58.7617188 C403.067375,57.0527258 400.662614,56.1982422 397.464355,56.1982422 L395.962891,56.1982422 Z M464.875488,85.5683594 L463.007812,103 L418.916016,103 L418.916016,101.64502 L420.563965,101.64502 C422.004402,101.64502 423.164058,101.388674 424.042969,100.875977 C424.677738,100.534178 425.166014,99.9482463 425.507812,99.1181641 C425.776369,98.5322236 425.910645,96.9941531 425.910645,94.5039062 L425.910645,61.8378906 C425.910645,59.2988154 425.776369,57.7119172 425.507812,57.0771484 C425.239256,56.4423796 424.696049,55.8869653 423.878174,55.4108887 C423.060299,54.9348121 421.955573,54.6967773 420.563965,54.6967773 L418.916016,54.6967773 L418.916016,53.3417969 L445.393066,53.3417969 L445.393066,54.6967773 L443.232422,54.6967773 C441.791985,54.6967773 440.632329,54.9531224 439.753418,55.4658203 C439.118649,55.8076189 438.618166,56.3935505 438.251953,57.2236328 C437.983397,57.8095732 437.849121,59.3476438 437.849121,61.8378906 L437.849121,93.4785156 C437.849121,96.0175908 437.995604,97.6350063 438.288574,98.3308105 C438.581544,99.0266148 439.155269,99.5454084 440.009766,99.887207 C440.62012,100.106935 442.097156,100.216797 444.440918,100.216797 L448.579102,100.216797 C451.215833,100.216797 453.413077,99.7529343 455.170898,98.8251953 C456.92872,97.8974563 458.44848,96.4326272 459.730225,94.4306641 C461.011969,92.4287009 462.226557,89.4746289 463.374023,85.5683594 L464.875488,85.5683594 Z M491.014648,101.64502 L491.014648,103 L465.050293,103 L465.050293,101.64502 L466.698242,101.64502 C468.138679,101.64502 469.298335,101.388674 470.177246,100.875977 C470.812015,100.534178 471.300291,99.9482463 471.64209,99.1181641 C471.910646,98.5322236 472.044922,96.9941531 472.044922,94.5039062 L472.044922,61.8378906 C472.044922,59.2988154 471.910646,57.7119172 471.64209,57.0771484 C471.373534,56.4423796 470.830326,55.8869653 470.012451,55.4108887 C469.194576,54.9348121 468.089851,54.6967773 466.698242,54.6967773 L465.050293,54.6967773 L465.050293,53.3417969 L491.014648,53.3417969 L491.014648,54.6967773 L489.366699,54.6967773 C487.926262,54.6967773 486.766606,54.9531224 485.887695,55.4658203 C485.252927,55.8076189 484.752443,56.3935505 484.38623,57.2236328 C484.117674,57.8095732 483.983398,59.3476438 483.983398,61.8378906 L483.983398,94.5039062 C483.983398,97.0429814 484.123778,98.6298796 484.404541,99.2646484 C484.685304,99.8994172 485.234615,100.454832 486.05249,100.930908 C486.870365,101.406985 487.975091,101.64502 489.366699,101.64502 L491.014648,101.64502 Z M536.050293,53.3417969 L536.050293,66.7817383 L534.731934,66.7817383 C533.95068,63.6811368 533.083989,61.4533759 532.131836,60.0983887 C531.179683,58.7434014 529.873543,57.66309 528.213379,56.8574219 C527.28564,56.4179666 525.662121,56.1982422 523.342773,56.1982422 L519.644043,56.1982422 L519.644043,94.5039062 C519.644043,97.0429814 519.784422,98.6298796 520.065186,99.2646484 C520.345949,99.8994172 520.89526,100.454832 521.713135,100.930908 C522.53101,101.406985 523.647942,101.64502 525.063965,101.64502 L526.711914,101.64502 L526.711914,103 L500.710938,103 L500.710938,101.64502 L502.358887,101.64502 C503.799324,101.64502 504.95898,101.388674 505.837891,100.875977 C506.472659,100.534178 506.973143,99.9482463 507.339355,99.1181641 C507.607911,98.5322236 507.742188,96.9941531 507.742188,94.5039062 L507.742188,56.1982422 L504.15332,56.1982422 C500.808577,56.1982422 498.379402,56.9062429 496.865723,58.3222656 C494.741689,60.2998146 493.398929,63.1196106 492.837402,66.7817383 L491.445801,66.7817383 L491.445801,53.3417969 L536.050293,53.3417969 Z M569.989746,52.206543 L570.392578,68.7592773 L568.891113,68.7592773 C568.183102,64.608866 566.443617,61.2702763 563.672607,58.7434082 C560.901597,56.2165401 557.904801,54.953125 554.682129,54.953125 C552.191882,54.953125 550.220466,55.6184016 548.767822,56.9489746 C547.315178,58.2795477 546.588867,59.8115148 546.588867,61.5449219 C546.588867,62.6435602 546.845212,63.6201129 547.35791,64.4746094 C548.065922,65.622076 549.201164,66.7573186 550.763672,67.8803711 C551.911139,68.6860392 554.560038,70.1142476 558.710449,72.1650391 C564.521025,75.0214987 568.439443,77.7192256 570.46582,80.2583008 C572.467783,82.797376 573.46875,85.7026204 573.46875,88.9741211 C573.46875,93.1245325 571.851335,96.6950534 568.616455,99.685791 C565.381576,102.676529 561.273951,104.171875 556.293457,104.171875 C554.730949,104.171875 553.253913,104.013185 551.862305,103.695801 C550.470696,103.378416 548.725108,102.780278 546.625488,101.901367 C545.453607,101.413083 544.489262,101.168945 543.732422,101.168945 C543.097653,101.168945 542.426273,101.413083 541.718262,101.901367 C541.01025,102.389651 540.436526,103.134272 539.99707,104.135254 L538.64209,104.135254 L538.64209,85.3852539 L539.99707,85.3852539 C541.071294,90.6587178 543.140366,94.6808943 546.204346,97.4519043 C549.268326,100.222914 552.570295,101.608398 556.110352,101.608398 C558.84474,101.608398 561.023674,100.863777 562.647217,99.3745117 C564.27076,97.8852465 565.08252,96.1518654 565.08252,94.1743164 C565.08252,93.0024355 564.771243,91.867193 564.148682,90.7685547 C563.52612,89.6699164 562.580084,88.6262256 561.310547,87.6374512 C560.041009,86.6486767 557.794938,85.3608478 554.572266,83.7739258 C550.055641,81.552235 546.808604,79.6601641 544.831055,78.0976562 C542.853506,76.5351484 541.333746,74.7895604 540.271729,72.8608398 C539.209711,70.9321193 538.678711,68.8081171 538.678711,66.4887695 C538.678711,62.5336716 540.131333,59.1645647 543.036621,56.3813477 C545.941909,53.5981306 549.603982,52.206543 554.022949,52.206543 C555.634285,52.206543 557.19677,52.4018535 558.710449,52.7924805 C559.857916,53.0854507 561.255607,53.6286581 562.903564,54.4221191 C564.551522,55.2155801 565.705075,55.6123047 566.364258,55.6123047 C566.999027,55.6123047 567.49951,55.4169941 567.865723,55.0263672 C568.231935,54.6357402 568.573729,53.6958082 568.891113,52.206543 L569.989746,52.206543 Z M603.709473,72.3481445 L621.177734,94.2109375 C623.643567,97.2871248 625.767569,99.3745062 627.549805,100.473145 C628.843756,101.254398 630.21093,101.64502 631.651367,101.64502 L631.651367,103 L605.796875,103 L605.796875,101.64502 C607.432625,101.498534 608.488523,101.242189 608.9646,100.875977 C609.440676,100.509764 609.678711,100.058108 609.678711,99.5209961 C609.678711,98.4956003 608.555675,96.5669087 606.30957,93.7348633 L594.92041,79.4160156 L593.089355,80.9541016 L593.089355,94.5039062 C593.089355,97.0918098 593.235838,98.7031218 593.528809,99.3378906 C593.821779,99.9726594 594.383297,100.515867 595.213379,100.967529 C596.043461,101.419192 597.374014,101.64502 599.205078,101.64502 L599.205078,103 L574.15625,103 L574.15625,101.64502 L575.804199,101.64502 C577.244636,101.64502 578.404292,101.388674 579.283203,100.875977 C579.917972,100.534178 580.406248,99.9482463 580.748047,99.1181641 C581.016603,98.5322236 581.150879,96.9941531 581.150879,94.5039062 L581.150879,61.8378906 C581.150879,59.2988154 581.016603,57.7119172 580.748047,57.0771484 C580.479491,56.4423796 579.936283,55.8869653 579.118408,55.4108887 C578.300533,54.9348121 577.195808,54.6967773 575.804199,54.6967773 L574.15625,54.6967773 L574.15625,53.3417969 L598.875488,53.3417969 L598.875488,54.6967773 C597.19091,54.6967773 595.909184,54.9409155 595.030273,55.4291992 C594.395505,55.7709978 593.895021,56.3447225 593.528809,57.1503906 C593.235838,57.7607452 593.089355,59.3232296 593.089355,61.8378906 L593.089355,77.2919922 L611.509766,62.387207 C614.073255,60.3120013 615.35498,58.6518617 615.35498,57.4067383 C615.35498,56.4789993 614.830083,55.7465847 613.780273,55.2094727 C613.243161,54.9409166 611.912608,54.7700199 609.788574,54.6967773 L609.788574,53.3417969 L629.161133,53.3417969 L629.161133,54.6967773 C627.427726,54.8188483 626.066655,55.1301245 625.077881,55.6306152 C624.089106,56.131106 621.812518,57.8217629 618.248047,60.7026367 L603.709473,72.3481445 Z M655.776367,52.6459961 C663.686563,52.3530259 670.113501,54.6601317 675.057373,59.5673828 C680.001245,64.4746339 682.473145,70.6147092 682.473145,77.987793 C682.473145,84.2866526 680.629901,89.8285894 676.943359,94.6137695 C672.060522,100.961458 665.163619,104.135254 656.252441,104.135254 C647.31685,104.135254 640.407739,101.10794 635.524902,95.0532227 C631.667461,90.2680425 629.73877,84.5918297 629.73877,78.0244141 C629.73877,70.6513303 632.247289,64.5051516 637.264404,59.5856934 C642.281519,54.6662352 648.452112,52.3530259 655.776367,52.6459961 Z M656.21582,54.9897461 C651.674782,54.9897461 648.220227,57.3090588 645.852051,61.9477539 C643.92333,65.7563667 642.958984,71.225062 642.958984,78.3540039 C642.958984,86.825726 644.448227,93.0878704 647.426758,97.140625 C649.501964,99.9726704 652.407208,101.388672 656.142578,101.388672 C658.657239,101.388672 660.756828,100.778326 662.441406,99.5576172 C664.589854,97.9951094 666.262201,95.4987964 667.458496,92.0686035 C668.654791,88.6384106 669.25293,84.1645784 669.25293,78.6469727 C669.25293,72.079557 668.642584,67.1662761 667.421875,63.9069824 C666.201166,60.6476888 664.644785,58.3466864 662.752686,57.0039062 C660.860586,55.6611261 658.681653,54.9897461 656.21582,54.9897461 Z M338.98877,189 L338.98877,187.64502 L340.636719,187.64502 C342.077156,187.64502 343.181881,187.419192 343.950928,186.967529 C344.719975,186.515867 345.287596,185.899418 345.653809,185.118164 C345.873536,184.605466 345.983398,183.067396 345.983398,180.503906 L345.983398,147.837891 C345.983398,145.298815 345.849122,143.711917 345.580566,143.077148 C345.31201,142.44238 344.768803,141.886965 343.950928,141.410889 C343.133053,140.934812 342.028327,140.696777 340.636719,140.696777 L338.98877,140.696777 L338.98877,139.341797 L361.217773,139.341797 C367.15042,139.341797 371.923322,140.147453 375.536621,141.758789 C379.955589,143.736338 383.306385,146.727031 385.589111,150.730957 C387.871838,154.734883 389.013184,159.263647 389.013184,164.317383 C389.013184,167.808611 388.451666,171.025132 387.328613,173.967041 C386.205561,176.90895 384.752939,179.338125 382.970703,181.254639 C381.188468,183.171152 379.131603,184.709223 376.800049,185.868896 C374.468494,187.02857 371.618181,187.925778 368.249023,188.560547 C366.759758,188.853517 364.416032,189 361.217773,189 L338.98877,189 Z M357.921875,142.161621 L357.921875,180.906738 C357.921875,182.95753 358.01953,184.214841 358.214844,184.678711 C358.410157,185.14258 358.739744,185.496581 359.203613,185.740723 C359.862796,186.106935 360.814935,186.290039 362.060059,186.290039 C366.137227,186.290039 369.249989,184.898451 371.398438,182.115234 C374.32814,178.35545 375.792969,172.520547 375.792969,164.610352 C375.792969,158.238249 374.792002,153.147968 372.790039,149.339355 C371.203117,146.360825 369.164563,144.334478 366.674316,143.260254 C364.916495,142.503414 361.999044,142.137207 357.921875,142.161621 Z M419.36377,174.864258 L401.822266,174.864258 L399.734863,179.698242 C399.051266,181.309578 398.709473,182.640131 398.709473,183.689941 C398.709473,185.08155 399.27099,186.10693 400.394043,186.766113 C401.053226,187.15674 402.676745,187.449706 405.264648,187.64502 L405.264648,189 L388.748535,189 L388.748535,187.64502 C390.530771,187.376464 391.9956,186.637945 393.143066,185.429443 C394.290533,184.220941 395.706535,181.724628 397.391113,177.94043 L415.152344,138.316406 L415.848145,138.316406 L433.755859,179.039062 C435.464852,182.896504 436.868647,185.325679 437.967285,186.32666 C438.797367,187.0835 439.969231,187.522949 441.48291,187.64502 L441.48291,189 L417.459473,189 L417.459473,187.64502 L418.448242,187.64502 C420.376963,187.64502 421.73193,187.376468 422.513184,186.839355 C423.050296,186.448729 423.318848,185.887211 423.318848,185.154785 C423.318848,184.71533 423.245606,184.263674 423.099121,183.799805 C423.050293,183.580077 422.684085,182.664559 422.000488,181.053223 L419.36377,174.864258 Z M418.118652,172.154297 L410.721191,155.052246 L403.104004,172.154297 L418.118652,172.154297 Z M485.67627,171.568359 L483.808594,189 L439.716797,189 L439.716797,187.64502 L441.364746,187.64502 C442.805183,187.64502 443.964839,187.388674 444.84375,186.875977 C445.478519,186.534178 445.966795,185.948246 446.308594,185.118164 C446.57715,184.532224 446.711426,182.994153 446.711426,180.503906 L446.711426,147.837891 C446.711426,145.298815 446.57715,143.711917 446.308594,143.077148 C446.040038,142.44238 445.49683,141.886965 444.678955,141.410889 C443.86108,140.934812 442.756355,140.696777 441.364746,140.696777 L439.716797,140.696777 L439.716797,139.341797 L466.193848,139.341797 L466.193848,140.696777 L464.033203,140.696777 C462.592766,140.696777 461.43311,140.953122 460.554199,141.46582 C459.91943,141.807619 459.418947,142.393551 459.052734,143.223633 C458.784178,143.809573 458.649902,145.347644 458.649902,147.837891 L458.649902,179.478516 C458.649902,182.017591 458.796385,183.635006 459.089355,184.330811 C459.382326,185.026615 459.95605,185.545408 460.810547,185.887207 C461.420901,186.106935 462.897938,186.216797 465.241699,186.216797 L469.379883,186.216797 C472.016615,186.216797 474.213858,185.752934 475.97168,184.825195 C477.729501,183.897456 479.249261,182.432627 480.531006,180.430664 C481.812751,178.428701 483.027338,175.474629 484.174805,171.568359 L485.67627,171.568359 Z M520.091797,172.081055 L533.568359,139.341797 L553.783203,139.341797 L553.783203,140.696777 L552.171875,140.696777 C550.707024,140.696777 549.535161,140.953122 548.65625,141.46582 C548.045895,141.807619 547.557619,142.381344 547.191406,143.187012 C546.92285,143.772952 546.788574,145.298816 546.788574,147.764648 L546.788574,180.503906 C546.788574,183.042981 546.92285,184.62988 547.191406,185.264648 C547.459962,185.899417 548.009273,186.454832 548.839355,186.930908 C549.669438,187.406985 550.780266,187.64502 552.171875,187.64502 L553.783203,187.64502 L553.783203,189 L527.855469,189 L527.855469,187.64502 L529.466797,187.64502 C530.931648,187.64502 532.103511,187.388674 532.982422,186.875977 C533.592776,186.534178 534.081053,185.948246 534.447266,185.118164 C534.715822,184.532224 534.850098,182.994153 534.850098,180.503906 L534.850098,143.699707 L515.807129,189 L514.928223,189 L495.592285,144.029297 L495.592285,179.002441 C495.592285,181.44386 495.65332,182.94531 495.775391,183.506836 C496.092775,184.727545 496.782465,185.722408 497.844482,186.491455 C498.906499,187.260502 500.572743,187.64502 502.843262,187.64502 L502.843262,189 L485.851074,189 L485.851074,187.64502 L486.36377,187.64502 C487.462408,187.669434 488.487788,187.492434 489.439941,187.114014 C490.392095,186.735594 491.112302,186.229007 491.600586,185.594238 C492.08887,184.959469 492.467284,184.068365 492.73584,182.920898 C492.784668,182.652342 492.809082,181.407238 492.809082,179.185547 L492.809082,147.764648 C492.809082,145.249987 492.674806,143.6814 492.40625,143.058838 C492.137694,142.436276 491.588383,141.886965 490.758301,141.410889 C489.928219,140.934812 488.81739,140.696777 487.425781,140.696777 L485.851074,140.696777 L485.851074,139.341797 L506.13916,139.341797 L520.091797,172.081055 Z M582.339355,174.864258 L564.797852,174.864258 L562.710449,179.698242 C562.026852,181.309578 561.685059,182.640131 561.685059,183.689941 C561.685059,185.08155 562.246576,186.10693 563.369629,186.766113 C564.028812,187.15674 565.652331,187.449706 568.240234,187.64502 L568.240234,189 L551.724121,189 L551.724121,187.64502 C553.506357,187.376464 554.971186,186.637945 556.118652,185.429443 C557.266119,184.220941 558.68212,181.724628 560.366699,177.94043 L578.12793,138.316406 L578.82373,138.316406 L596.731445,179.039062 C598.440438,182.896504 599.844233,185.325679 600.942871,186.32666 C601.772953,187.0835 602.944817,187.522949 604.458496,187.64502 L604.458496,189 L580.435059,189 L580.435059,187.64502 L581.423828,187.64502 C583.352549,187.64502 584.707516,187.376468 585.48877,186.839355 C586.025882,186.448729 586.294434,185.887211 586.294434,185.154785 C586.294434,184.71533 586.221192,184.263674 586.074707,183.799805 C586.025879,183.580077 585.659671,182.664559 584.976074,181.053223 L582.339355,174.864258 Z M581.094238,172.154297 L573.696777,155.052246 L566.07959,172.154297 L581.094238,172.154297 Z M643.048828,139.341797 L643.048828,152.781738 L641.730469,152.781738 C640.949215,149.681137 640.082524,147.453376 639.130371,146.098389 C638.178218,144.743401 636.872079,143.66309 635.211914,142.857422 C634.284175,142.417967 632.660656,142.198242 630.341309,142.198242 L626.642578,142.198242 L626.642578,180.503906 C626.642578,183.042981 626.782958,184.62988 627.063721,185.264648 C627.344484,185.899417 627.893795,186.454832 628.71167,186.930908 C629.529545,187.406985 630.646477,187.64502 632.0625,187.64502 L633.710449,187.64502 L633.710449,189 L607.709473,189 L607.709473,187.64502 L609.357422,187.64502 C610.797859,187.64502 611.957515,187.388674 612.836426,186.875977 C613.471195,186.534178 613.971678,185.948246 614.337891,185.118164 C614.606447,184.532224 614.740723,182.994153 614.740723,180.503906 L614.740723,142.198242 L611.151855,142.198242 C607.807112,142.198242 605.377937,142.906243 603.864258,144.322266 C601.740224,146.299815 600.397464,149.119611 599.835938,152.781738 L598.444336,152.781738 L598.444336,139.341797 L643.048828,139.341797 Z M669.224609,187.64502 L669.224609,189 L643.260254,189 L643.260254,187.64502 L644.908203,187.64502 C646.34864,187.64502 647.508296,187.388674 648.387207,186.875977 C649.021976,186.534178 649.510252,185.948246 649.852051,185.118164 C650.120607,184.532224 650.254883,182.994153 650.254883,180.503906 L650.254883,147.837891 C650.254883,145.298815 650.120607,143.711917 649.852051,143.077148 C649.583495,142.44238 649.040287,141.886965 648.222412,141.410889 C647.404537,140.934812 646.299812,140.696777 644.908203,140.696777 L643.260254,140.696777 L643.260254,139.341797 L669.224609,139.341797 L669.224609,140.696777 L667.57666,140.696777 C666.136223,140.696777 664.976567,140.953122 664.097656,141.46582 C663.462887,141.807619 662.962404,142.393551 662.596191,143.223633 C662.327635,143.809573 662.193359,145.347644 662.193359,147.837891 L662.193359,180.503906 C662.193359,183.042981 662.333739,184.62988 662.614502,185.264648 C662.895265,185.899417 663.444576,186.454832 664.262451,186.930908 C665.080326,187.406985 666.185052,187.64502 667.57666,187.64502 L669.224609,187.64502 Z M685.622559,139.341797 L710.12207,170.140137 L710.12207,148.790039 C710.12207,145.811509 709.694828,143.797369 708.840332,142.747559 C707.668451,141.331536 705.703139,140.647949 702.944336,140.696777 L702.944336,139.341797 L719.350586,139.341797 L719.350586,140.696777 C717.250966,140.965333 715.841068,141.31323 715.12085,141.740479 C714.400631,142.167727 713.839113,142.863521 713.436279,143.827881 C713.033445,144.792241 712.832031,146.446277 712.832031,148.790039 L712.832031,190.135254 L711.586914,190.135254 L678.005371,148.790039 L678.005371,180.357422 C678.005371,183.213881 678.658441,185.142573 679.9646,186.143555 C681.270758,187.144536 682.766105,187.64502 684.450684,187.64502 L685.622559,187.64502 L685.622559,189 L668.007812,189 L668.007812,187.64502 C670.742201,187.620605 672.646479,187.059088 673.720703,185.960449 C674.794927,184.861811 675.332031,182.994154 675.332031,180.357422 L675.332031,145.311035 L674.27002,143.992676 C673.22021,142.67431 672.292484,141.807619 671.486816,141.392578 C670.681148,140.977537 669.521492,140.745606 668.007812,140.696777 L668.007812,139.341797 L685.622559,139.341797 Z M752.337891,138.206543 L752.740723,154.759277 L751.239258,154.759277 C750.531246,150.608866 748.791762,147.270276 746.020752,144.743408 C743.249742,142.21654 740.252946,140.953125 737.030273,140.953125 C734.540027,140.953125 732.568611,141.618402 731.115967,142.948975 C729.663323,144.279548 728.937012,145.811515 728.937012,147.544922 C728.937012,148.64356 729.193357,149.620113 729.706055,150.474609 C730.414066,151.622076 731.549309,152.757319 733.111816,153.880371 C734.259283,154.686039 736.908182,156.114248 741.058594,158.165039 C746.86917,161.021499 750.787588,163.719226 752.813965,166.258301 C754.815928,168.797376 755.816895,171.70262 755.816895,174.974121 C755.816895,179.124532 754.199479,182.695053 750.9646,185.685791 C747.72972,188.676529 743.622095,190.171875 738.641602,190.171875 C737.079094,190.171875 735.602058,190.013185 734.210449,189.695801 C732.818841,189.378416 731.073253,188.780278 728.973633,187.901367 C727.801752,187.413083 726.837406,187.168945 726.080566,187.168945 C725.445798,187.168945 724.774418,187.413083 724.066406,187.901367 C723.358395,188.389651 722.78467,189.134272 722.345215,190.135254 L720.990234,190.135254 L720.990234,171.385254 L722.345215,171.385254 C723.419439,176.658718 725.48851,180.680894 728.55249,183.451904 C731.61647,186.222914 734.918439,187.608398 738.458496,187.608398 C741.192885,187.608398 743.371818,186.863777 744.995361,185.374512 C746.618905,183.885246 747.430664,182.151865 747.430664,180.174316 C747.430664,179.002436 747.119388,177.867193 746.496826,176.768555 C745.874264,175.669916 744.928229,174.626226 743.658691,173.637451 C742.389154,172.648677 740.143083,171.360848 736.92041,169.773926 C732.403786,167.552235 729.156748,165.660164 727.179199,164.097656 C725.20165,162.535148 723.68189,160.78956 722.619873,158.86084 C721.557856,156.932119 721.026855,154.808117 721.026855,152.48877 C721.026855,148.533672 722.479478,145.164565 725.384766,142.381348 C728.290054,139.598131 731.952126,138.206543 736.371094,138.206543 C737.98243,138.206543 739.544914,138.401854 741.058594,138.79248 C742.20606,139.085451 743.603752,139.628658 745.251709,140.422119 C746.899666,141.21558 748.053219,141.612305 748.712402,141.612305 C749.347171,141.612305 749.847654,141.416994 750.213867,141.026367 C750.58008,140.63574 750.921873,139.695808 751.239258,138.206543 L752.337891,138.206543 Z M786.057617,158.348145 L803.525879,180.210938 C805.991712,183.287125 808.115714,185.374506 809.897949,186.473145 C811.191901,187.254398 812.559075,187.64502 813.999512,187.64502 L813.999512,189 L788.14502,189 L788.14502,187.64502 C789.78077,187.498534 790.836668,187.242189 791.312744,186.875977 C791.788821,186.509764 792.026855,186.058108 792.026855,185.520996 C792.026855,184.4956 790.90382,182.566909 788.657715,179.734863 L777.268555,165.416016 L775.4375,166.954102 L775.4375,180.503906 C775.4375,183.09181 775.583983,184.703122 775.876953,185.337891 C776.169923,185.972659 776.731441,186.515867 777.561523,186.967529 C778.391606,187.419192 779.722159,187.64502 781.553223,187.64502 L781.553223,189 L756.504395,189 L756.504395,187.64502 L758.152344,187.64502 C759.592781,187.64502 760.752437,187.388674 761.631348,186.875977 C762.266116,186.534178 762.754393,185.948246 763.096191,185.118164 C763.364747,184.532224 763.499023,182.994153 763.499023,180.503906 L763.499023,147.837891 C763.499023,145.298815 763.364747,143.711917 763.096191,143.077148 C762.827635,142.44238 762.284428,141.886965 761.466553,141.410889 C760.648678,140.934812 759.543952,140.696777 758.152344,140.696777 L756.504395,140.696777 L756.504395,139.341797 L781.223633,139.341797 L781.223633,140.696777 C779.539054,140.696777 778.257329,140.940916 777.378418,141.429199 C776.743649,141.770998 776.243166,142.344723 775.876953,143.150391 C775.583983,143.760745 775.4375,145.32323 775.4375,147.837891 L775.4375,163.291992 L793.85791,148.387207 C796.4214,146.312001 797.703125,144.651862 797.703125,143.406738 C797.703125,142.478999 797.178228,141.746585 796.128418,141.209473 C795.591306,140.940917 794.260753,140.77002 792.136719,140.696777 L792.136719,139.341797 L811.509277,139.341797 L811.509277,140.696777 C809.77587,140.818848 808.4148,141.130124 807.426025,141.630615 C806.437251,142.131106 804.160662,143.821763 800.596191,146.702637 L786.057617,158.348145 Z M840.358398,174.864258 L822.816895,174.864258 L820.729492,179.698242 C820.045895,181.309578 819.704102,182.640131 819.704102,183.689941 C819.704102,185.08155 820.265619,186.10693 821.388672,186.766113 C822.047855,187.15674 823.671374,187.449706 826.259277,187.64502 L826.259277,189 L809.743164,189 L809.743164,187.64502 C811.5254,187.376464 812.990229,186.637945 814.137695,185.429443 C815.285162,184.220941 816.701163,181.724628 818.385742,177.94043 L836.146973,138.316406 L836.842773,138.316406 L854.750488,179.039062 C856.459481,182.896504 857.863276,185.325679 858.961914,186.32666 C859.791996,187.0835 860.96386,187.522949 862.477539,187.64502 L862.477539,189 L838.454102,189 L838.454102,187.64502 L839.442871,187.64502 C841.371592,187.64502 842.726559,187.376468 843.507812,186.839355 C844.044925,186.448729 844.313477,185.887211 844.313477,185.154785 C844.313477,184.71533 844.240235,184.263674 844.09375,183.799805 C844.044922,183.580077 843.678714,182.664559 842.995117,181.053223 L840.358398,174.864258 Z M839.113281,172.154297 L831.71582,155.052246 L824.098633,172.154297 L839.113281,172.154297 Z M383.776367,225.341797 L354.589355,272.216797 L364.037598,272.216797 C368.505393,272.216797 371.630362,271.936038 373.412598,271.374512 C376.317886,270.495601 378.820302,268.878186 380.919922,266.522217 C383.019542,264.166248 384.472164,261.010762 385.277832,257.055664 L386.706055,257.055664 L384.691895,275 L339.208496,275 L368.432129,228.051758 L361.071289,228.051758 C358.214829,228.051758 356.334965,228.137206 355.431641,228.308105 C353.722648,228.62549 352.117439,229.254146 350.615967,230.194092 C349.114494,231.134038 347.86939,232.385246 346.880615,233.947754 C345.891841,235.510262 345.116702,237.487781 344.555176,239.880371 L343.200195,239.880371 L344.555176,225.341797 L383.776367,225.341797 Z M358.617676,222.155762 L351.220215,208.166504 L354.003418,208.166504 L362.755859,215.710449 L371.728027,208.38623 L374.730957,208.38623 L366.894043,222.155762 L358.617676,222.155762 Z M385.782227,225.341797 L411.416992,225.341797 L411.416992,226.696777 L410.135254,226.696777 C408.206533,226.696777 406.882084,226.898191 406.161865,227.301025 C405.441647,227.703859 404.928957,228.259274 404.623779,228.967285 C404.318602,229.675297 404.166016,231.445298 404.166016,234.277344 L404.166016,258.59375 C404.166016,263.037132 404.501706,265.978997 405.173096,267.419434 C405.844486,268.85987 406.949211,270.056148 408.487305,271.008301 C410.025398,271.960454 411.966297,272.436523 414.310059,272.436523 C416.995619,272.436523 419.284414,271.832281 421.176514,270.623779 C423.068613,269.415277 424.484614,267.749034 425.424561,265.625 C426.364507,263.500966 426.834473,259.802272 426.834473,254.528809 L426.834473,234.277344 C426.834473,232.055653 426.602541,230.468755 426.138672,229.516602 C425.674802,228.564448 425.088871,227.905275 424.380859,227.539062 C423.282221,226.977536 421.731944,226.696777 419.72998,226.696777 L419.72998,225.341797 L436.905273,225.341797 L436.905273,226.696777 L435.879883,226.696777 C434.488274,226.696777 433.328618,226.977536 432.400879,227.539062 C431.47314,228.100589 430.80176,228.942865 430.386719,230.065918 C430.069334,230.847172 429.910645,232.250966 429.910645,234.277344 L429.910645,253.137207 C429.910645,258.972197 429.526127,263.183581 428.75708,265.771484 C427.988033,268.359388 426.114273,270.739735 423.135742,272.912598 C420.157212,275.08546 416.092311,276.171875 410.940918,276.171875 C406.644021,276.171875 403.323742,275.59815 400.97998,274.450684 C397.781722,272.888176 395.523444,270.886243 394.205078,268.444824 C392.886712,266.003406 392.227539,262.719747 392.227539,258.59375 L392.227539,234.277344 C392.227539,231.420884 392.068849,229.644779 391.751465,228.948975 C391.43408,228.25317 390.88477,227.697756 390.103516,227.282715 C389.322262,226.867674 387.881846,226.672363 385.782227,226.696777 L385.782227,225.341797 Z M454.438477,252.514648 L454.438477,266.28418 C454.438477,268.96974 454.60327,270.660397 454.932861,271.356201 C455.262453,272.052005 455.848384,272.60742 456.690674,273.022461 C457.532963,273.437502 459.077137,273.64502 461.323242,273.64502 L461.323242,275 L436.091309,275 L436.091309,273.64502 C438.386242,273.64502 439.942623,273.431399 440.760498,273.00415 C441.578373,272.576902 442.152098,272.021488 442.481689,271.337891 C442.811281,270.654293 442.976074,268.96974 442.976074,266.28418 L442.976074,234.057617 C442.976074,231.372057 442.811281,229.6814 442.481689,228.985596 C442.152098,228.289791 441.57227,227.734377 440.742188,227.319336 C439.912105,226.904295 438.361828,226.696777 436.091309,226.696777 L436.091309,225.341797 L457.734375,225.341797 C464.863317,225.341797 469.978012,226.611315 473.078613,229.150391 C476.179215,231.689466 477.729492,234.863262 477.729492,238.671875 C477.729492,241.894547 476.728526,244.653309 474.726562,246.948242 C472.724599,249.243176 469.965838,250.80566 466.450195,251.635742 C464.082019,252.221683 460.078153,252.514648 454.438477,252.514648 Z M454.438477,228.198242 L454.438477,249.658203 C455.244145,249.707031 455.85449,249.731445 456.269531,249.731445 C459.248062,249.731445 461.542961,248.846444 463.154297,247.076416 C464.765633,245.306388 465.571289,242.565937 465.571289,238.85498 C465.571289,235.168439 464.765633,232.470712 463.154297,230.761719 C461.542961,229.052726 459.1382,228.198242 455.939941,228.198242 L454.438477,228.198242 Z M501.634766,260.864258 L484.093262,260.864258 L482.005859,265.698242 C481.322262,267.309578 480.980469,268.640131 480.980469,269.689941 C480.980469,271.08155 481.541987,272.10693 482.665039,272.766113 C483.324222,273.15674 484.947741,273.449706 487.535645,273.64502 L487.535645,275 L471.019531,275 L471.019531,273.64502 C472.801767,273.376464 474.266596,272.637945 475.414062,271.429443 C476.561529,270.220941 477.977531,267.724628 479.662109,263.94043 L497.42334,224.316406 L498.119141,224.316406 L516.026855,265.039062 C517.735848,268.896504 519.139643,271.325679 520.238281,272.32666 C521.068364,273.0835 522.240227,273.522949 523.753906,273.64502 L523.753906,275 L499.730469,275 L499.730469,273.64502 L500.719238,273.64502 C502.647959,273.64502 504.002926,273.376468 504.78418,272.839355 C505.321292,272.448729 505.589844,271.887211 505.589844,271.154785 C505.589844,270.71533 505.516602,270.263674 505.370117,269.799805 C505.321289,269.580077 504.955082,268.664559 504.271484,267.053223 L501.634766,260.864258 Z M500.389648,258.154297 L492.992188,241.052246 L485.375,258.154297 L500.389648,258.154297 Z M539.272949,225.341797 L563.772461,256.140137 L563.772461,234.790039 C563.772461,231.811509 563.345219,229.797369 562.490723,228.747559 C561.318842,227.331536 559.353529,226.647949 556.594727,226.696777 L556.594727,225.341797 L573.000977,225.341797 L573.000977,226.696777 C570.901357,226.965333 569.491459,227.31323 568.77124,227.740479 C568.051022,228.167727 567.489504,228.863521 567.08667,229.827881 C566.683836,230.792241 566.482422,232.446277 566.482422,234.790039 L566.482422,276.135254 L565.237305,276.135254 L531.655762,234.790039 L531.655762,266.357422 C531.655762,269.213881 532.308831,271.142573 533.61499,272.143555 C534.921149,273.144536 536.416495,273.64502 538.101074,273.64502 L539.272949,273.64502 L539.272949,275 L521.658203,275 L521.658203,273.64502 C524.392592,273.620605 526.29687,273.059088 527.371094,271.960449 C528.445318,270.861811 528.982422,268.994154 528.982422,266.357422 L528.982422,231.311035 L527.92041,229.992676 C526.8706,228.67431 525.942875,227.807619 525.137207,227.392578 C524.331539,226.977537 523.171883,226.745606 521.658203,226.696777 L521.658203,225.341797 L539.272949,225.341797 Z M598.224609,273.64502 L598.224609,275 L572.260254,275 L572.260254,273.64502 L573.908203,273.64502 C575.34864,273.64502 576.508296,273.388674 577.387207,272.875977 C578.021976,272.534178 578.510252,271.948246 578.852051,271.118164 C579.120607,270.532224 579.254883,268.994153 579.254883,266.503906 L579.254883,233.837891 C579.254883,231.298815 579.120607,229.711917 578.852051,229.077148 C578.583495,228.44238 578.040287,227.886965 577.222412,227.410889 C576.404537,226.934812 575.299812,226.696777 573.908203,226.696777 L572.260254,226.696777 L572.260254,225.341797 L598.224609,225.341797 L598.224609,226.696777 L596.57666,226.696777 C595.136223,226.696777 593.976567,226.953122 593.097656,227.46582 C592.462887,227.807619 591.962404,228.393551 591.596191,229.223633 C591.327635,229.809573 591.193359,231.347644 591.193359,233.837891 L591.193359,266.503906 C591.193359,269.042981 591.333739,270.62988 591.614502,271.264648 C591.895265,271.899417 592.444576,272.454832 593.262451,272.930908 C594.080326,273.406985 595.185052,273.64502 596.57666,273.64502 L598.224609,273.64502 Z M606.602539,226.696777 L606.602539,225.341797 L633.006348,225.341797 L633.006348,226.696777 L631.39502,226.696777 C629.930168,226.696777 628.758305,226.953122 627.879395,227.46582 C627.26904,227.807619 626.780764,228.393551 626.414551,229.223633 C626.145995,229.809573 626.011719,231.347644 626.011719,233.837891 L626.011719,258.154297 C626.011719,262.915063 625.535649,266.375722 624.583496,268.536377 C623.631343,270.697032 621.940686,272.503655 619.511475,273.956299 C617.082263,275.408943 614.158708,276.135254 610.740723,276.135254 C606.565897,276.135254 603.190687,275.036632 600.61499,272.839355 C598.039294,270.642079 596.751465,268.212904 596.751465,265.551758 C596.751465,263.842765 597.276362,262.457281 598.326172,261.395264 C599.375982,260.333247 600.657707,259.802246 602.171387,259.802246 C603.660652,259.802246 604.91186,260.278316 605.925049,261.230469 C606.938237,262.182622 607.444824,263.354485 607.444824,264.746094 C607.444824,265.429691 607.359376,266.027829 607.188477,266.540527 C607.09082,266.784669 606.706302,267.401118 606.034912,268.389893 C605.363522,269.378667 605.027832,270.080564 605.027832,270.495605 C605.027832,271.130374 605.345212,271.679685 605.97998,272.143555 C606.907719,272.827152 608.116203,273.168945 609.605469,273.168945 C610.655279,273.168945 611.521969,272.900393 612.205566,272.363281 C612.889164,271.826169 613.371336,270.989996 613.6521,269.854736 C613.932863,268.719477 614.073242,265.563991 614.073242,260.388184 L614.073242,233.837891 C614.073242,231.298815 613.932863,229.711917 613.6521,229.077148 C613.371336,228.44238 612.822026,227.886965 612.00415,227.410889 C611.186275,226.934812 610.08155,226.696777 608.689941,226.696777 L606.602539,226.696777 Z M660.646973,260.864258 L643.105469,260.864258 L641.018066,265.698242 C640.334469,267.309578 639.992676,268.640131 639.992676,269.689941 C639.992676,271.08155 640.554194,272.10693 641.677246,272.766113 C642.336429,273.15674 643.959948,273.449706 646.547852,273.64502 L646.547852,275 L630.031738,275 L630.031738,273.64502 C631.813974,273.376464 633.278803,272.637945 634.42627,271.429443 C635.573736,270.220941 636.989738,267.724628 638.674316,263.94043 L656.435547,224.316406 L657.131348,224.316406 L675.039062,265.039062 C676.748055,268.896504 678.15185,271.325679 679.250488,272.32666 C680.080571,273.0835 681.252434,273.522949 682.766113,273.64502 L682.766113,275 L658.742676,275 L658.742676,273.64502 L659.731445,273.64502 C661.660166,273.64502 663.015133,273.376468 663.796387,272.839355 C664.333499,272.448729 664.602051,271.887211 664.602051,271.154785 C664.602051,270.71533 664.528809,270.263674 664.382324,269.799805 C664.333496,269.580077 663.967289,268.664559 663.283691,267.053223 L660.646973,260.864258 Z M659.401855,258.154297 L652.004395,241.052246 L644.387207,258.154297 L659.401855,258.154297 Z" id="Combined-Shape" fill="#FFFFFF" fill-rule="nonzero"></path>
    </g>
</svg>