<?xml version="1.0" encoding="UTF-8"?>
<svg width="355px" height="82px" viewBox="0 0 355 82" version="1.1" xmlns="http://www.w3.org/2000/svg" xmlns:xlink="http://www.w3.org/1999/xlink">
    <!-- Generator: Sketch 53.2 (72643) - https://sketchapp.com -->
    <title>Combined Shape</title>
    <desc>Created with Sketch.</desc>
    <g id="Page-1" stroke="none" stroke-width="1" fill="none" fill-rule="evenodd">
        <g id="saunalogo-horizontal" fill="#FFFFFF" fill-rule="nonzero">
            <path d="M327.94,63.71 C318.14,54.29 318.13,44.71 319.84,38.3 C321.012779,34.0726161 323.098444,30.1538885 325.95,26.82 L329.69,22.75 L331.51,27.97 C332.410077,30.6390253 333.66463,33.1750387 335.24,35.51 C336.31,33.51 338.04,27.26 336.58,13.51 L335.15,0 L342.63,11.34 C342.94,11.81 350.31,23.03 353.76,31.77 C357.67,41.7 350.58,53.69 350.27,54.19 L344.6,50.79 C346.2,48.11 349.85,39.9 347.6,34.19 C346.455665,31.3966311 345.150135,28.672048 343.69,26.03 C343.34,34.56 341.36,40.18 337.89,42.03 C335.800812,43.1236396 333.249331,42.783175 331.52,41.18 C329.957196,39.6845581 328.676727,37.9196784 327.74,35.97 C327.055965,37.333324 326.516364,38.7644391 326.13,40.24 C324.41,46.95 326.54,53.24 332.48,58.95 L327.94,63.71 Z M62.57,39.02 L65.94,39.02 L65.94,31.34 L72.04,31.34 L72.04,39.02 L76.84,39.02 L76.84,44.64 L72.04,44.64 L72.04,59.71 L65.94,59.71 L65.94,44.64 L62.57,44.64 L56.38,44.64 L56.38,59.71 L50.62,59.71 L50.62,44.64 L46.68,44.64 L46.68,39.02 L50.62,39.02 L50.62,35.13 C50.4868663,32.165894 51.3843954,29.2471574 53.16,26.87 C54.8229674,24.8123221 57.3344473,23.6265501 59.98,23.65 C62.5355879,23.6769398 64.9525986,24.8160748 66.6,26.77 L62.24,30.57 C61.6936636,29.8714799 60.8662763,29.4504643 59.98,29.42 C56.62,29.42 56.38,33.79 56.38,35.13 L56.38,39.02 L62.57,39.02 Z M351.66,63.9 L311.04,81.37 L311.04,74.65 L351.66,57.19 L351.66,63.9 Z M3.84,52.65 C6.84,56.11 11.47,56.25 11.47,53.65 C11.47,52.11 9.98,51.65 8.47,51.15 C4.47,49.9 1.65,48.65 1.65,44.67 C1.65,40.88 5.06,38.38 8.99,38.38 C11.9337841,38.2977333 14.8271608,39.1559382 17.25,40.83 L14.47,45.2 C10.47,42.32 7.7,42.56 7.41,44.77 C7.17,46.31 9.41,46.59 11.83,47.41 C14.76,48.27 17.49,50.24 17.49,53.79 C17.49,57.1 14.08,60.27 9.86,60.27 C6.21281708,60.3835058 2.67104655,59.037345 0.02,56.53 L3.84,52.65 Z M42.81,49.34 C43.0223714,54.0157055 40.3699806,58.3506597 36.1101281,60.2899843 C31.8502756,62.229309 26.8391763,61.3832068 23.4522184,58.1527518 C20.0652605,54.9222968 18.9832103,49.9567986 20.718987,45.6100294 C22.4547637,41.2632601 26.6594825,38.4089047 31.34,38.4 C34.3161255,38.3140459 37.2030118,39.4219543 39.3575164,41.4769047 C41.512021,43.531855 42.755165,46.3631386 42.81,49.34 Z M36.81,49.34 C36.8283493,47.8764129 36.2759822,46.4632139 35.27,45.4 C34.2845848,44.3229845 32.8897784,43.7127567 31.43,43.72 C30.0004963,43.7196178 28.6391904,44.3311135 27.69,45.4 C26.6169185,46.4505701 26.0268327,47.8986335 26.06,49.4 C26.0397682,50.8989514 26.6278578,52.342116 27.69,53.4 C28.6548619,54.441039 30.0105927,55.0319056 31.43,55.03 C32.8790019,55.0344349 34.2666367,54.4454129 35.27,53.4 C36.2658617,52.2661312 36.7978755,50.79863 36.76,49.29 L36.81,49.34 Z M113.04,39.02 L102.24,59.71 L101.42,59.71 L96.52,50.4 L91.67,59.71 L90.9,59.71 L80.05,39.02 L86.05,39.02 L91.33,49.02 L93.59,44.7 L90.59,38.99 L96.59,38.99 L101.87,48.99 L107.1,38.99 L113.1,38.99 L113.04,39.02 Z M136.24,39.02 L136.24,59.71 L131.15,59.71 L131.15,57.71 C126.716573,61.4575358 120.128,61.0897568 116.139197,56.8720857 C112.150393,52.6544147 112.150393,46.0555853 116.139197,41.8379143 C120.128,37.6202432 126.716573,37.2524642 131.15,41 L131.63,39 L136.24,39 L136.24,39.02 Z M130.24,49.34 C130.267841,47.8493138 129.699025,46.4092738 128.66,45.34 C127.675472,44.29731 126.304047,43.7074887 124.87,43.71 C123.422872,43.7147704 122.038684,44.3023293 121.03,45.34 C120.009308,46.4210262 119.443575,47.8532628 119.45,49.34 C119.452663,50.8250132 120.017122,52.2540216 121.03,53.34 C122.038684,54.3776707 123.422872,54.9652296 124.87,54.97 C126.304292,54.9737063 127.676171,54.3836896 128.66,53.34 C129.666939,52.2553648 130.208988,50.8194725 130.17,49.34 L130.24,49.34 Z M146.54,41.37 C148.08,39.37 150.81,38.49 153.54,38.49 C154.730752,38.4879724 155.913553,38.6839793 157.04,39.07 L154.69,44.4 C153.168671,43.676275 151.397873,43.6982406 149.894964,44.4594795 C148.392056,45.2207184 147.326643,46.635323 147.01,48.29 L147.01,59.71 L141.01,59.71 L141.01,39.02 L145.67,39.02 L146.54,41.37 Z M177.31,56.44 C175.24512,58.8815319 172.207618,60.2868342 169.01,60.28 C162.934868,60.28 158.01,55.3551322 158.01,49.28 C158.01,43.2048678 162.934868,38.28 169.01,38.28 C175.085132,38.28 180.01,43.2048678 180.01,49.28 C180.020268,49.9516197 179.956551,50.6223281 179.82,51.28 L164.35,51.28 C164.61741,52.0177528 165.024882,52.696872 165.55,53.28 C166.485249,54.3448159 167.83278,54.9566677 169.25,54.96 C170.589459,54.9318897 171.864302,54.3788592 172.8,53.42 L177.31,56.44 Z M174.19,47.61 C173.95111,46.7338641 173.505271,45.9279249 172.89,45.26 C171.952899,44.232792 170.630383,43.6421891 169.24,43.63 C167.834005,43.6367871 166.493964,44.2271294 165.54,45.26 C164.959054,45.9520861 164.517597,46.7501036 164.24,47.61 L174.18,47.61 L174.19,47.61 Z M185.56,52.65 C188.56,56.11 193.19,56.25 193.19,53.65 C193.19,52.11 191.7,51.65 190.19,51.15 C186.19,49.9 183.37,48.65 183.37,44.67 C183.37,40.88 186.78,38.38 190.72,38.38 C193.663784,38.2977333 196.557161,39.1559382 198.98,40.83 L196.2,45.2 C192.2,42.32 189.43,42.56 189.14,44.77 C188.9,46.31 191.14,46.59 193.56,47.41 C196.49,48.27 199.22,50.24 199.22,53.79 C199.22,57.1 195.81,60.27 191.59,60.27 C187.942817,60.3835058 184.401047,59.037345 181.75,56.53 L185.56,52.65 Z M224.83,39.02 L224.83,59.71 L219.74,59.71 L219.74,57.71 C215.306573,61.4575358 208.718,61.0897568 204.729197,56.8720857 C200.740393,52.6544147 200.740393,46.0555853 204.729197,41.8379143 C208.718,37.6202432 215.306573,37.2524642 219.74,41 L220.22,39 L224.83,39 L224.83,39.02 Z M218.83,49.34 C218.858959,47.8491121 218.289979,46.4086572 217.25,45.34 C216.266171,44.2963104 214.894292,43.7062937 213.46,43.71 C212.012872,43.7147704 210.628684,44.3023293 209.62,45.34 C208.600189,46.4215863 208.034601,47.853456 208.04,49.34 C208.042663,50.8250132 208.607122,52.2540216 209.62,53.34 C210.628684,54.3776707 212.012872,54.9652296 213.46,54.97 C214.894292,54.9737063 216.266171,54.3836896 217.25,53.34 C218.264217,52.2585229 218.813587,50.8222621 218.78,49.34 L218.83,49.34 Z M249.98,49.29 C249.98,55.2822895 245.12229,60.14 239.13,60.14 C233.13771,60.14 228.28,55.2822895 228.28,49.29 L228.28,39.02 L234.42,39.02 L234.42,49.15 C234.424655,50.5066669 234.882182,51.8229353 235.72,52.89 C236.59606,53.8563678 237.826371,54.4264242 239.13,54.47 C240.42109,54.433934 241.63872,53.8613577 242.49,52.89 C243.36001,51.8382378 243.834127,50.5149554 243.83,49.15 L243.83,39.02 L249.97,39.02 L249.97,49.29 L249.98,49.29 Z M259.24,40.84 C260.861706,39.3623178 262.957198,38.5113566 265.15,38.44 C270.72,38.44 275.28,43.34 275.28,49.44 L275.28,59.71 L269.42,59.71 L269.42,49.44 C269.42,46.44 267.31,43.82 264.42,43.82 C261.53,43.82 259.42,46.46 259.42,49.44 L259.42,59.71 L253.42,59.71 L253.42,39.02 L258.32,39.02 L259.24,40.84 Z M301.87,39.02 L301.87,59.71 L296.78,59.71 L296.78,57.71 C292.346573,61.4575358 285.758,61.0897568 281.769197,56.8720857 C277.780393,52.6544147 277.780393,46.0555853 281.769197,41.8379143 C285.758,37.6202432 292.346573,37.2524642 296.78,41 L297.26,39 L301.87,39 L301.87,39.02 Z M295.87,49.34 C295.898959,47.8491121 295.329979,46.4086572 294.29,45.34 C293.306171,44.2963104 291.934292,43.7062937 290.5,43.71 C289.052872,43.7147704 287.668684,44.3023293 286.66,45.34 C285.640189,46.4215863 285.074601,47.853456 285.08,49.34 C285.082663,50.8250132 285.647122,52.2540216 286.66,53.34 C287.668684,54.3776707 289.052872,54.9652296 290.5,54.97 C291.934292,54.9737063 293.306171,54.3836896 294.29,53.34 C295.304217,52.2585229 295.853587,50.8222621 295.82,49.34 L295.87,49.34 Z" id="Combined-Shape"></path>
        </g>
    </g>
</svg>