<?xml version="1.0" encoding="UTF-8"?>
<svg width="82px" height="81px" viewBox="0 0 82 81" version="1.1" xmlns="http://www.w3.org/2000/svg" xmlns:xlink="http://www.w3.org/1999/xlink">
    <!-- Generator: Sketch 54.1 (76490) - https://sketchapp.com -->
    <title>Combined Shape</title>
    <desc>Created with Sketch.</desc>
    <g id="Page-1" stroke="none" stroke-width="1" fill="none" fill-rule="evenodd">
        <g id="soss" fill="#FFFFFF" fill-rule="nonzero">
            <path d="M41.248,0.0754 C63.547,0.0754 81.648,18.1759 81.648,40.4756 C81.648,62.7753 63.547,80.876 41.248,80.876 C18.948,80.876 0.848,62.7753 0.848,40.4756 C0.848,18.1759 18.948,0.0754 41.248,0.0754 Z M69.2251801,50.1983 C65.246932,61.8229816 54.2120548,70.2034 41.256,70.2034 C24.961,70.2034 11.705,56.9469 11.705,40.6523 C11.705,24.3574 24.961,11.1009 41.256,11.1009 C53.7527587,11.1009 64.4621381,18.8976735 68.7757138,29.8823 L56.758,29.8823 C54.947,29.8823 54.076,30.739 53.233,31.5672 C52.318,32.4668 51.371,33.3971 49.17,33.3971 L44.1689029,33.3971 L44.135,32.5218 L45.506,32.5214 L45.455,31.1866 L44.11,31.2099 L43.941,26.5725 L45.319,26.5164 L45.248,24.8352 L43.494,24.906 L43.549,26.2517 C42.996,26.2584 42.425,26.2668 41.854,26.2753 C41.278,26.2841 40.703,26.2925 40.146,26.2993 L40.151,25.0132 L38.768,25.0132 L38.756,26.3308 C38.12,26.3379 37.427,26.3372 36.755,26.3365 C36.108,26.3354 35.44,26.3348 34.822,26.3412 L35.101,26.0527 L35.107,25.3845 L34.529,24.9205 L33.795,24.9408 L33.267,25.3919 L33.287,26.0612 L33.625,26.3555 C33.281,26.3588 32.89,26.3595 32.499,26.3606 C32.102,26.3612 31.705,26.3622 31.356,26.3656 L31.665,26.0463 L31.665,25.44 L31.1,24.9519 L30.304,24.9648 L29.813,25.442 L29.826,26.161 L30.13,26.3866 C29.503,26.3936 28.839,26.3971 28.196,26.4001 C27.52,26.4035 26.821,26.4072 26.166,26.4146 L26.184,25.1708 L24.775,25.1772 L24.764,26.4518 C24.204,26.4589 23.615,26.4647 23.028,26.4704 C22.473,26.4758 21.919,26.4813 21.39,26.4877 L21.451,25.2127 L19.726,25.2319 L19.668,26.8468 L21.011,26.8343 L20.891,31.5511 L19.567,31.5508 L19.567,32.8555 L20.86,32.8674 L20.831,38.1466 L20.576,37.779 L19.832,37.779 L19.3,38.3052 L19.306,39.076 L19.902,39.5883 L20.615,39.569 L20.866,39.2995 L20.853,41.2885 L20.586,41.0689 L19.846,41.0689 L19.246,41.5915 L19.239,42.2709 L19.745,42.8414 L20.501,42.8472 L20.767,42.6338 L20.715,47.722 L19.343,47.722 L19.33,49.1177 L20.684,49.1298 L20.624,54.6356 L19.229,54.6237 L19.177,56.4694 L20.962,56.4694 L21.01,55.103 L44.34,55.1155 L44.333,56.4694 L46.051,56.4694 L46.051,54.66 L44.739,54.666 L44.608,49.0869 L45.956,49.069 L45.923,47.7642 L44.594,47.7703 L44.5652586,46.6833 L49.17,46.6833 C51.371,46.6833 52.318,47.6137 53.233,48.5133 C54.076,49.3419 54.947,50.1983 56.758,50.1983 L69.2251801,50.1983 Z M69.3077861,49.9534 L56.758,49.9534 C55.048,49.9534 54.25,49.1691 53.405,48.3389 C52.454,47.4047 51.471,46.4385 49.17,46.4385 L44.5587858,46.4385 L44.4802216,43.4672 L49.17,43.4672 C51.393,43.4672 52.345,43.9231 53.266,44.3644 C54.142,44.7841 54.97,45.1804 56.758,45.1804 L70.4607007,45.1804 C70.2076224,46.8193508 69.8193905,48.4142784 69.3077861,49.9534 Z M70.481,45.0469091 L70.481,44.9356 L56.758,44.9356 C55.025,44.9356 54.222,44.5508 53.372,44.1436 C52.426,43.6907 51.449,43.2224 49.17,43.2224 L44.4737488,43.2224 L44.454,42.4755 L44.817,42.7552 L45.422,42.7271 L46.004,42.1769 L46.027,41.3815 L45.431,40.9171 L44.719,40.9171 L44.388,41.142 L44.3789239,40.1625 L70.8030029,40.1625 C70.8056642,40.3254536 70.807,40.4887237 70.807,40.6523 C70.807,42.1452951 70.6957137,43.6127848 70.481,45.0469091 Z M70.7980031,39.9177 L44.3766556,39.9177 L44.369,39.0915 L44.687,39.3323 L45.323,39.3499 L45.945,38.7705 L45.905,38.0245 L45.361,37.4868 L44.575,37.5125 L44.337,37.737 L44.3029654,36.8583 L49.17,36.8583 C51.449,36.8583 52.426,36.3899 53.372,35.937 C54.222,35.5299 55.025,35.145 56.758,35.145 L70.237,35.145 L70.237,34.9001 L56.758,34.9001 C54.97,34.9001 54.142,35.2965 53.266,35.7162 C52.345,36.1575 51.393,36.6135 49.17,36.6135 L44.2934835,36.6135 L44.1783886,33.642 L49.17,33.642 C51.471,33.642 52.454,32.6761 53.405,31.7416 C54.25,30.9114 55.048,30.1272 56.758,30.1272 L68.8706213,30.1272 C70.0385946,33.181553 70.7136589,36.4776602 70.7980031,39.9177 Z M7.402,31.237 L6.742,30.8788 C6.531,31.099 6.273,31.5782 6.157,32.0757 C5.877,33.2709 6.387,33.9879 7.141,34.1641 C7.804,34.3193 8.302,34.0278 8.802,33.2919 C9.182,32.7247 9.412,32.4941 9.77,32.578 C10.047,32.6429 10.277,32.9368 10.151,33.4759 C10.049,33.9111 9.842,34.205 9.711,34.3571 L10.356,34.719 C10.53,34.5046 10.726,34.1641 10.844,33.6598 C11.082,32.6435 10.657,31.8741 9.89,31.6946 C9.226,31.54 8.697,31.9334 8.246,32.6446 C7.895,33.1816 7.633,33.3679 7.281,33.2858 C6.9,33.1968 6.715,32.8329 6.842,32.2938 C6.943,31.8586 7.18,31.4693 7.402,31.237 Z M5.508,35.9734 L5.396,36.9677 L9.963,39.1477 L10.068,38.2237 L7.974,37.2873 C7.417,37.0387 6.858,36.7972 6.309,36.6068 L6.31,36.5927 C6.895,36.5371 7.47,36.4377 8.091,36.3221 L10.328,35.9182 L10.435,34.9727 L5.508,35.9734 Z M7.341,42.0594 L8.05,42.0584 L8.046,40.2558 L9.28,40.2524 L9.285,42.1619 L10.002,42.1602 L9.995,39.3782 L5.212,39.3891 L5.219,42.2775 L5.936,42.2759 L5.931,40.2606 L7.336,40.2575 L7.341,42.0594 Z M10.123,43.5821 L10.013,42.7155 L7.294,43.0595 C5.802,43.2483 5.278,44.0372 5.417,45.1361 C5.562,46.2772 6.305,46.9488 7.77,46.7634 L10.482,46.4202 L10.372,45.554 L7.604,45.904 C6.674,46.0218 6.198,45.7028 6.118,45.0761 C6.044,44.4915 6.425,44.0498 7.355,43.9321 L10.123,43.5821 Z M11.321,48.6491 L11.49,49.2869 L12.49,49.7641 L12.325,49.1401 L11.772,48.8821 L11.768,48.8685 L12.118,48.3575 L11.951,47.7265 L11.321,48.6491 Z M7.014,51.5714 L7.643,51.2583 C7.487,51.057 7.324,50.7181 7.236,50.382 C6.965,49.3599 7.454,48.5993 8.47,48.3308 C9.581,48.037 10.351,48.5605 10.599,49.5003 C10.699,49.8781 10.699,50.2085 10.66,50.4534 L11.38,50.454 C11.424,50.2589 11.43,49.8389 11.283,49.2828 C10.91,47.8692 9.716,47.0471 8.193,47.4495 C6.786,47.8212 6.103,48.9565 6.49,50.4249 C6.639,50.9873 6.865,51.3976 7.014,51.5714 Z M12.014,51.6753 L11.716,50.8545 L7.218,52.4869 L7.515,53.3077 L12.014,51.6753 Z M12.286,52.4277 L7.932,54.4136 L9.111,56.9974 L9.776,56.6941 L8.96,54.9046 L12.649,53.2222 L12.286,52.4277 Z M14.132,56.1605 L13.708,55.3971 L9.528,57.7205 L9.952,58.4831 L14.132,56.1605 Z M15.349,57.6162 L15.716,58.165 L16.817,58.2912 L16.458,57.7544 L15.852,57.6902 L15.843,57.6784 L16.008,57.0818 L15.645,56.539 L15.349,57.6162 Z M11.323,58.9763 L10.611,59.2138 C10.627,59.5185 10.801,60.0342 11.085,60.459 C11.767,61.48 12.64,61.597 13.283,61.1665 C13.849,60.7881 13.977,60.2246 13.78,59.3568 C13.626,58.6916 13.614,58.3666 13.92,58.1613 C14.156,58.0037 14.528,58.0366 14.837,58.4971 C15.085,58.8685 15.159,59.2209 15.181,59.4197 L15.885,59.1966 C15.847,58.9226 15.732,58.5473 15.444,58.1163 C14.864,57.2488 14.012,57.0331 13.357,57.4711 C12.79,57.8502 12.716,58.5059 12.928,59.3207 C13.081,59.9443 13.038,60.2635 12.736,60.4648 C12.412,60.6815 12.02,60.5679 11.712,60.108 C11.464,59.736 11.341,59.297 11.323,58.9763 Z M12.775,62.7796 L13.305,63.3913 L14.598,62.2712 C15.194,61.7551 15.662,61.3307 16.106,60.8995 L16.13,60.9164 C15.875,61.447 15.64,62.0642 15.443,62.6388 L14.667,64.9639 L15.262,65.6507 L18.879,62.5181 L18.349,61.9063 L17.088,62.9983 C16.535,63.4772 16.078,63.8925 15.642,64.3542 L15.627,64.3484 C15.875,63.8428 16.107,63.2655 16.306,62.6807 L17.048,60.4033 L16.392,59.6468 L12.775,62.7796 Z M20.086,63.6169 L19.452,63.0159 L16.159,66.4868 L16.793,67.0878 L20.086,63.6169 Z M20.872,69.5881 L20.866,69.5838 C20.182,69.1004 20.251,68.1667 20.799,67.3898 C21.348,66.6131 22.198,66.1963 22.911,66.7003 C23.624,67.2039 23.498,68.1575 22.978,68.8941 C22.401,69.7115 21.562,70.0751 20.872,69.5881 Z M20.432,70.1374 L20.438,70.1417 C21.505,70.8949 22.827,70.7079 23.753,69.3974 C24.539,68.284 24.476,66.9451 23.34,66.1425 C22.238,65.3644 20.877,65.6806 20.033,66.8752 C19.227,68.0175 19.324,69.3554 20.432,70.1374 Z M24.361,71.7375 L25.911,68.6805 C26.038,68.713 26.219,68.7803 26.466,68.9058 C27.44,69.4002 27.709,70.2207 27.227,71.1541 C26.678,72.2367 25.791,72.495 24.782,71.9748 C24.623,71.8944 24.459,71.8112 24.361,71.7375 Z M25.416,67.7285 L23.29,71.9184 C23.534,72.0817 23.863,72.2807 24.312,72.5085 C25.141,72.9289 25.918,73.0763 26.537,72.9052 C27.129,72.744 27.674,72.3124 28.063,71.5464 C28.429,70.825 28.435,70.1838 28.188,69.6363 C27.963,69.108 27.502,68.6676 26.705,68.2629 C26.243,68.0285 25.793,67.8482 25.416,67.7285 Z M30.446,69.9663 L29.375,72.8477 C29.085,73.6259 28.72,73.7324 28.254,73.5596 C28.061,73.4875 27.894,73.3874 27.779,73.2918 L27.434,73.9134 C27.589,74.0469 27.853,74.1903 28.086,74.2769 C28.971,74.6059 29.723,74.4159 30.183,73.1781 L31.264,70.2706 L30.446,69.9663 Z M33.846,73.7645 L34.028,73.0783 L32.285,72.6156 L32.603,71.4215 L34.448,71.9119 L34.632,71.2188 L31.943,70.5046 L30.714,75.1287 L33.507,75.8708 L33.691,75.1778 L31.742,74.6601 L32.103,73.3018 L33.846,73.7645 Z M35.224,71.3328 L34.489,76.0601 L37.295,76.496 L37.407,75.7736 L35.464,75.4717 L36.086,71.4668 L35.224,71.3328 Z M39.439,76.1964 L39.438,76.679 L43.051,76.6861 L43.053,75.9617 L40.604,75.9573 L40.604,75.936 L43.024,72.4127 L43.025,71.9017 L39.66,71.8949 L39.659,72.619 L41.895,72.6234 L41.895,72.6447 L39.439,76.1964 Z M46.154,74.3305 L44.935,74.4834 L45.155,73.2686 C45.204,72.9761 45.233,72.6361 45.269,72.3528 L45.283,72.3507 C45.387,72.6169 45.506,72.9311 45.633,73.2084 L46.154,74.3305 Z M44.876,75.1561 L46.384,74.9673 L46.982,76.2582 L47.911,76.1416 L45.774,71.5884 L44.668,71.7271 L43.742,76.6647 L44.636,76.5525 L44.876,75.1561 Z M50.067,74.6566 L50.084,75.4073 C50.38,75.4817 50.924,75.4673 51.414,75.3208 C52.591,74.969 52.959,74.1696 52.738,73.4283 C52.543,72.7749 52.042,72.4874 51.154,72.4191 C50.473,72.3711 50.159,72.2872 50.053,71.9334 C49.972,71.6616 50.113,71.3152 50.643,71.1566 C51.072,71.0285 51.43,71.0622 51.627,71.1001 L51.621,70.3605 C51.348,70.3159 50.955,70.3152 50.458,70.4636 C49.458,70.7626 49.002,71.5144 49.227,72.2696 C49.422,72.9223 50.028,73.1861 50.869,73.2236 C51.51,73.2616 51.802,73.3964 51.906,73.7435 C52.018,74.1175 51.794,74.4587 51.263,74.6177 C50.835,74.7459 50.379,74.7337 50.067,74.6566 Z M53.359,70.2856 L54.938,74.0179 L55.742,73.6773 L54.162,69.9454 L55.431,69.4087 L55.146,68.7356 L51.819,70.1436 L52.104,70.8169 L53.359,70.2856 Z M57.206,70.0705 L56.461,68.7553 C56.524,68.6947 56.668,68.5889 56.909,68.4525 C57.403,68.1729 57.84,68.2104 58.096,68.6612 C58.33,69.0748 58.169,69.5253 57.656,69.8155 L57.206,70.0705 Z M55.414,68.663 L57.735,72.7635 L58.489,72.337 L57.52,70.6265 L57.903,70.4093 C58.342,70.1774 58.632,70.2413 59.063,70.7151 C59.468,71.171 59.765,71.4513 59.897,71.5399 L60.675,71.0989 C60.504,70.984 60.12,70.5652 59.69,70.1232 C59.364,69.778 59.021,69.5892 58.655,69.6494 L58.645,69.6308 C58.963,69.2709 59.121,68.7004 58.817,68.1634 C58.614,67.805 58.32,67.5881 57.983,67.5263 C57.566,67.4522 57.109,67.5803 56.51,67.9199 C56.071,68.1681 55.672,68.443 55.414,68.663 Z M59.268,66.2484 L58.569,66.7722 L60.212,68.9641 C61.115,70.1681 62.059,70.2319 62.945,69.5677 C63.865,68.8782 64.081,67.9004 63.195,66.7191 L61.556,64.5327 L60.858,65.0566 L62.531,67.2883 C63.093,68.0377 63.052,68.6096 62.546,68.9884 C62.075,69.3418 61.503,69.2299 60.941,68.48 L59.268,66.2484 Z M67.752,65.0018 L67.169,64.6085 C67.071,64.8436 66.856,65.1522 66.608,65.3955 C65.851,66.1348 64.948,66.0844 64.213,65.3332 C63.409,64.5107 63.485,63.5824 64.181,62.9026 C64.46,62.6297 64.748,62.4673 64.98,62.3794 L64.626,61.7527 C64.434,61.8109 64.065,62.0128 63.654,62.4146 C62.608,63.437 62.481,64.8814 63.583,66.0086 C64.601,67.0495 65.926,67.0847 67.012,66.0228 C67.429,65.6157 67.674,65.2169 67.752,65.0018 Z M63.083,62.6943 L63.556,62.2326 L63.478,61.1274 L63.016,61.5789 L63.064,62.1873 L63.054,62.1968 L62.437,62.1447 L61.97,62.6012 L63.083,62.6943 Z M68.542,64.3375 L69.042,63.7014 L67.696,62.6449 C67.076,62.1588 66.57,61.7798 66.062,61.4263 L66.074,61.3997 C66.643,61.5484 67.294,61.662 67.896,61.7462 L70.326,62.0645 L70.886,61.3499 L67.123,58.3965 L66.623,59.0333 L67.935,60.0627 C68.511,60.5139 69.005,60.8839 69.542,61.2237 L69.538,61.2393 C68.995,61.0929 68.384,60.9742 67.772,60.8917 L65.396,60.5968 L64.778,61.3844 L68.542,64.3375 Z M71.145,56.8771 L70.536,56.5121 L69.609,58.0587 L68.55,57.4232 L69.532,55.7857 L68.917,55.4167 L67.486,57.8037 L71.589,60.2637 L73.075,57.7858 L72.46,57.4172 L71.424,59.1463 L70.218,58.4236 L71.145,56.8771 Z M73.325,55.1291 L73.921,55.5866 C74.164,55.4027 74.494,54.9701 74.687,54.4966 C75.151,53.3599 74.76,52.5719 74.044,52.2794 C73.413,52.022 72.875,52.2317 72.266,52.8796 C71.8,53.3802 71.538,53.572 71.197,53.4326 C70.934,53.3254 70.753,52.9984 70.962,52.486 C71.131,52.0721 71.382,51.814 71.535,51.6845 L70.955,51.226 C70.749,51.4102 70.502,51.7156 70.306,52.1955 C69.912,53.1614 70.211,53.9882 70.94,54.2862 C71.571,54.5436 72.156,54.2379 72.713,53.6065 C73.144,53.1313 73.433,52.9883 73.768,53.1249 C74.129,53.2723 74.254,53.661 74.045,54.1737 C73.876,54.5872 73.581,54.9345 73.325,55.1291 Z M71.984,49.8225 L75.883,50.9324 L76.122,50.0927 L72.223,48.9824 L72.6,47.658 L71.897,47.4578 L70.907,50.9335 L71.61,51.1336 L71.984,49.8225 Z M72.081,46.3651 L71.949,47.2281 L74.658,47.6432 C76.146,47.8714 76.865,47.2562 77.032,46.1611 C77.207,45.0245 76.676,44.1746 75.216,43.9508 L72.514,43.5368 L72.383,44.4002 L75.141,44.8226 C76.067,44.9647 76.438,45.4019 76.342,46.0266 C76.253,46.6093 75.766,46.9295 74.84,46.7878 L72.081,46.3651 Z M76.706,42.0931 L73.278,42.0468 C73.251,41.9186 73.232,41.7269 73.236,41.4495 C73.251,40.3565 73.87,39.7548 74.919,39.7758 C76.134,39.7924 76.756,40.4751 76.734,41.6109 C76.732,41.788 76.729,41.9724 76.706,42.0931 Z M72.641,42.9112 L77.34,42.9748 C77.38,42.6839 77.413,42.3014 77.42,41.7975 C77.432,40.8675 77.222,40.1052 76.796,39.6233 C76.391,39.1637 75.763,38.8644 74.904,38.8529 C74.095,38.8417 73.516,39.118 73.133,39.5813 C72.758,40.0162 72.566,40.624 72.554,41.5188 C72.546,42.037 72.582,42.5202 72.641,42.9112 Z M72.448,37.4542 L72.522,38.3244 L77.289,37.9166 L77.215,37.0464 L72.448,37.4542 Z M72.22,35.6923 L75.256,35.2198 C76.077,35.0924 76.348,35.3591 76.424,35.8499 C76.456,36.0531 76.45,36.2479 76.423,36.396 L77.134,36.3933 C77.175,36.1928 77.171,35.8919 77.133,35.6463 C76.987,34.7136 76.454,34.1501 75.15,34.353 L72.085,34.8299 L72.22,35.6923 Z M73.876,30.8708 L73.188,31.0463 L73.634,32.7931 L72.438,33.0988 L71.965,31.2489 L71.271,31.4264 L71.959,34.1222 L76.594,32.9381 L75.88,30.1389 L75.185,30.3165 L75.684,32.2699 L74.322,32.6176 L73.876,30.8708 Z M11.052,27.8241 L11.055,27.8177 C11.257,27.3949 11.086,26.8964 10.657,26.6918 C10.228,26.4869 9.732,26.6671 9.531,27.0899 C9.329,27.5126 9.503,28.0206 9.929,28.2157 C10.364,28.424 10.853,28.2405 11.052,27.8241 Z M13.492,24.0398 L13.988,24.6035 C14.262,24.4696 14.67,24.1088 14.951,23.6817 C15.625,22.6552 15.393,21.8064 14.747,21.3809 C14.177,21.0065 13.609,21.109 12.885,21.6275 C12.333,22.0289 12.038,22.1665 11.73,21.964 C11.492,21.8081 11.378,21.4523 11.682,20.9897 C11.928,20.6156 12.224,20.4109 12.398,20.3132 L11.918,19.7512 C11.681,19.8925 11.379,20.1445 11.095,20.5777 C10.521,21.4499 10.655,22.3194 11.314,22.7523 C11.883,23.1263 12.516,22.9393 13.184,22.427 C13.7,22.0438 14.01,21.9589 14.312,22.1577 C14.639,22.3722 14.687,22.7777 14.382,23.2403 C14.137,23.614 13.78,23.8981 13.492,24.0398 Z M16.981,20.7715 L17.628,20.0082 L15.049,15.6539 L14.448,16.3628 L15.665,18.3068 C15.99,18.8241 16.319,19.3355 16.669,19.8002 L16.66,19.811 C16.143,19.5313 15.611,19.2932 15.031,19.0437 L12.947,18.1329 L12.332,18.858 L16.981,20.7715 Z M19.514,15.1339 L19.031,14.6131 L17.708,15.8377 L16.869,14.9317 L18.271,13.6343 L17.783,13.1085 L15.742,14.9986 L18.991,18.5087 L21.112,16.5466 L20.624,16.0203 L19.145,17.3897 L18.191,16.3586 L19.514,15.1339 Z M19.51,11.7404 L18.799,12.247 L20.39,14.4781 C21.263,15.7033 22.205,15.7899 23.107,15.147 C24.043,14.4798 24.282,13.5071 23.426,12.3049 L21.839,10.0798 L21.128,10.5865 L22.747,12.8577 C23.291,13.6207 23.236,14.1916 22.722,14.5586 C22.243,14.9004 21.673,14.7747 21.129,14.0117 L19.51,11.7404 Z M28.315,11.8291 L27.869,11.2852 C27.708,11.482 27.414,11.7167 27.106,11.8785 C26.17,12.3699 25.319,12.0631 24.831,11.1331 C24.296,10.1151 24.634,9.2476 25.496,8.7958 C25.841,8.6142 26.164,8.5412 26.411,8.5235 L26.251,7.8218 C26.051,7.8224 25.64,7.9101 25.131,8.1772 C23.836,8.857 23.301,10.2047 24.034,11.5998 C24.71,12.8883 25.969,13.3012 27.314,12.5951 C27.83,12.3241 28.179,12.0127 28.315,11.8291 Z M24.504,8.282 L25.089,7.975 L25.331,6.8941 L24.759,7.194 L24.631,7.7903 L24.618,7.7971 L24.042,7.5705 L23.464,7.8738 L24.504,8.282 Z M27.974,6.9886 L27.167,7.3208 L28.987,11.7439 L29.795,11.4116 L27.974,6.9886 Z M29.189,6.5108 L30.637,11.0696 L33.342,10.2103 L33.121,9.5136 L31.247,10.1089 L30.021,6.2463 L29.189,6.5108 Z M33.687,5.2506 L32.835,5.4448 L33.899,10.1088 L34.751,9.9143 L33.687,5.2506 Z M36.014,4.5594 L36.668,4.4684 L37.261,3.5333 L36.622,3.6222 L36.299,4.1396 L36.285,4.1417 L35.82,3.7335 L35.173,3.8238 L36.014,4.5594 Z M35.483,8.7746 L35.385,9.5193 C35.667,9.6377 36.207,9.7056 36.713,9.6353 C37.929,9.4662 38.414,8.7323 38.307,7.966 C38.214,7.2913 37.763,6.9315 36.896,6.7296 C36.23,6.5784 35.933,6.4478 35.882,6.0823 C35.843,5.8012 36.034,5.4806 36.583,5.4045 C37.026,5.343 37.375,5.4306 37.563,5.4971 L37.669,4.7659 C37.406,4.6807 37.019,4.6202 36.505,4.6919 C35.472,4.8354 34.906,5.5086 35.015,6.2889 C35.108,6.9639 35.666,7.316 36.492,7.4807 C37.12,7.6156 37.388,7.7932 37.438,8.1517 C37.491,8.5382 37.218,8.8412 36.67,8.9176 C36.227,8.9792 35.779,8.8984 35.483,8.7746 Z M39.966,5.1985 L40.065,9.2508 L40.938,9.2298 L40.839,5.1768 L42.215,5.1434 L42.197,4.4122 L38.585,4.5005 L38.603,5.2317 L39.966,5.1985 Z M45.595,7.3569 L45.658,6.6494 L43.861,6.4915 L43.969,5.2608 L45.872,5.4283 L45.935,4.714 L43.162,4.4701 L42.743,9.2373 L45.622,9.4903 L45.685,8.776 L43.676,8.5992 L43.799,7.199 L45.595,7.3569 Z M49.707,5.4203 L48.864,5.1945 L48.155,7.8411 C47.766,9.2948 48.298,10.0769 49.368,10.3634 C50.479,10.661 51.381,10.2268 51.763,8.8006 L52.471,6.1607 L51.627,5.9348 L50.905,8.6294 C50.663,9.5345 50.188,9.8558 49.577,9.6917 C49.008,9.5396 48.743,9.0205 48.985,8.1151 L49.707,5.4203 Z M53.741,10.7354 L53.254,11.3074 C53.426,11.56 53.842,11.911 54.305,12.1275 C55.417,12.6476 56.224,12.2962 56.552,11.5955 C56.841,10.978 56.658,10.4304 56.041,9.7892 C55.564,9.3001 55.386,9.0283 55.542,8.6942 C55.662,8.4368 55.998,8.2724 56.499,8.5071 C56.904,8.6962 57.15,8.9596 57.271,9.1186 L57.758,8.5629 C57.585,8.3482 57.292,8.0857 56.822,7.8663 C55.877,7.4245 55.036,7.6815 54.702,8.3955 C54.414,9.0123 54.69,9.612 55.293,10.1994 C55.746,10.6543 55.875,10.9495 55.721,11.2773 C55.556,11.631 55.161,11.7369 54.66,11.5022 C54.255,11.3128 53.923,11.001 53.741,10.7354 Z M58.599,11.4784 L59.445,10.1155 C59.534,10.146 59.691,10.2177 59.895,10.3448 C60.408,10.6627 60.572,11.0983 60.295,11.5447 C60.003,12.0152 59.494,12.0831 58.939,11.7388 C58.788,11.6455 58.677,11.5683 58.599,11.4784 Z M59.034,9.1341 L56.547,13.145 L57.282,13.6013 L58.236,12.0635 C58.324,12.1511 58.441,12.2322 58.58,12.3178 C59.104,12.6435 59.652,12.7829 60.137,12.6746 C60.495,12.5958 60.81,12.3567 61.05,11.9712 C61.285,11.591 61.327,11.174 61.209,10.8254 C61.084,10.4476 60.763,10.0898 60.22,9.7529 C59.726,9.4465 59.336,9.2541 59.034,9.1341 Z M62.739,11.4691 L59.771,15.2197 L61.997,16.9809 L62.451,16.4077 L60.909,15.1882 L63.424,12.0108 L62.739,11.4691 Z M66.299,14.4874 L65.661,13.8914 L62.394,17.3861 L63.032,17.9823 L66.299,14.4874 Z M67.313,16.5611 L64.304,19.2762 L64.89,19.9242 L67.898,17.2092 L68.82,18.2312 L69.363,17.7414 L66.942,15.06 L66.4,15.5499 L67.313,16.5611 Z M70.499,19.2608 L70.002,18.5432 L67.75,20.1022 C66.513,20.9585 66.414,21.8994 67.043,22.8095 C67.698,23.7547 68.667,24.0073 69.88,23.1673 L72.127,21.6123 L71.63,20.8947 L69.337,22.4817 C68.567,23.0151 67.997,22.9522 67.637,22.433 C67.302,21.9488 67.436,21.3813 68.206,20.8483 L70.499,19.2608 Z M71.501,27.2995 L71.504,27.3059 C71.71,27.7269 72.206,27.9031 72.634,27.6942 C73.061,27.4855 73.228,26.9853 73.022,26.5646 C72.817,26.1432 72.311,25.964 71.892,26.176 C71.459,26.3877 71.298,26.8848 71.501,27.2995 Z M41.256,2.3055 C20.112,2.3055 2.91,19.5078 2.91,40.6524 C2.91,61.7966 20.112,78.999 41.256,78.999 C62.4,78.999 79.603,61.7966 79.603,40.6524 C79.603,19.5078 62.4,2.3055 41.256,2.3055 Z M41.256,3.0398 C61.996,3.0398 78.868,19.9126 78.868,40.6524 C78.868,61.3915 61.996,78.264 41.256,78.264 C20.517,78.264 3.644,61.3915 3.644,40.6524 C3.644,19.9126 20.517,3.0398 41.256,3.0398 Z M41.256,70.4483 C57.686,70.4483 71.052,57.0817 71.052,40.6523 C71.052,24.2225 57.686,10.856 41.256,10.856 C24.827,10.856 11.46,24.2225 11.46,40.6523 C11.46,57.0817 24.827,70.4483 41.256,70.4483 Z" id="Combined-Shape"></path>
        </g>
    </g>
</svg>