<?xml version="1.0" encoding="UTF-8"?>
<svg width="500px" height="214px" viewBox="0 0 500 214" version="1.1" xmlns="http://www.w3.org/2000/svg" xmlns:xlink="http://www.w3.org/1999/xlink">
    <title>Combined Shape</title>
    <g id="Page-4" stroke="none" stroke-width="1" fill="none" fill-rule="evenodd">
        <g id="TerminalIdentitet-(2)" transform="translate(-166.000000, -181.000000)" fill="#FFFFFE">
            <path d="M666,181 L666,395 L166,395 L166,181 L666,181 Z M582.787484,193.018641 L178.012313,193.018641 L178.012313,382.981359 L582.787484,382.981359 L582.787484,193.018641 Z M234.267587,205.038093 L234.267587,216.910594 L218.153344,216.910594 L218.153344,370.962178 L206.139679,370.962178 L206.139679,216.910594 L190.025437,216.910594 L190.025437,205.038093 L234.267587,205.038093 Z M348.537111,205.037958 L365.090894,341.060228 L382.671175,205.037958 L396.295588,205.037958 L396.295588,370.962042 L384.13586,370.962042 L385.474769,244.677009 L371.244466,370.962042 L359.230801,370.962042 L345.40217,244.28595 L346.632885,370.962042 L334.61922,370.962042 L334.61922,205.037958 L348.537111,205.037958 Z M439.95227,205.037958 L463.444036,327.087645 L462.366147,205.037958 L474.379812,205.037958 L474.379812,370.962042 L463.538707,370.962042 L439.908992,249.860911 L440.977414,370.962042 L428.817687,370.962042 L428.817687,205.037958 L439.95227,205.037958 Z M302.682589,205.038093 C322.596891,205.038093 323.580658,219.607244 323.629256,235.148342 L323.631227,236.110767 L323.631227,236.110767 L323.631781,276.56673 C323.631781,290.659691 319.91502,297.505037 314.291685,300.831744 L314.068725,300.961242 L325.683422,370.962178 L313.230217,370.962178 L302.924675,303.796082 C301.234133,303.912227 299.496632,303.953197 297.735651,303.968326 L296.676433,303.974697 L296.676433,370.962178 L284.66412,370.962178 L284.66412,205.038093 L302.682589,205.038093 Z M276.313251,205.037687 L276.313251,216.910188 L253.166355,216.910188 L253.166355,292.250637 L272.944339,292.250637 L272.944339,304.123138 L253.166355,304.123138 L253.166355,359.089271 L278.657018,359.089271 L278.657018,370.961772 L241.154042,370.961772 L241.154042,205.037687 L276.313251,205.037687 Z M512.469067,205.037552 L529.022851,370.961636 L517.450079,370.961636 L513.908056,330.506638 L496.692933,330.506638 L493.278039,370.961636 L481.264374,370.961636 L497.965572,205.037552 L512.469067,205.037552 Z M418.710276,205.037281 L418.710276,370.961366 L406.550549,370.961366 L406.550549,205.037281 L418.710276,205.037281 Z M547.921618,205.037552 L547.921618,359.089136 L570.775036,359.089136 L570.775036,370.961636 L535.761891,370.961636 L535.761891,205.037552 L547.921618,205.037552 Z M641.974022,205.037281 L606.813462,205.037281 L606.813462,370.961366 L618.827127,370.961366 L618.827127,304.122732 L638.603759,304.122732 L638.603759,292.250231 L618.827127,292.250231 L618.827127,216.911135 L641.974022,216.911135 L641.974022,205.037281 Z M505.144288,230.395503 L497.695086,318.634137 L512.869387,318.634137 L505.144288,230.395503 Z M301.217904,216.910594 L296.676433,216.910594 L296.676433,292.10355 L304.29469,292.10355 C311.419592,292.10355 311.752057,279.924694 311.765237,278.347299 L311.765825,250.707799 C311.768289,247.323334 311.785476,244.252571 311.788346,241.470505 L311.788548,240.206882 C311.774014,222.59339 310.956391,217.157686 301.217904,216.910594 Z" id="Combined-Shape"></path>
        </g>
    </g>
</svg>