<?xml version="1.0" encoding="UTF-8"?>
<svg width="500px" height="109px" viewBox="0 0 500 109" version="1.1" xmlns="http://www.w3.org/2000/svg" xmlns:xlink="http://www.w3.org/1999/xlink">
    <title>Combined Shape</title>
    <g id="Page-1" stroke="none" stroke-width="1" fill="none" fill-rule="evenodd">
        <g id="tigergraph" fill="#FFFFFF" fill-rule="nonzero">
            <path d="M65.8939394,0 L62.7272727,10.7878788 C75.8333333,21.030303 83.9090909,33.6363636 79.1515152,53.9090909 C79.1515152,53.9090909 79.0151515,54.5757576 79.3484848,54.6212121 C79.6818182,54.6666667 80,54.1969697 80,54.1969697 C83.4848485,49.1212121 90.2727273,37.0757576 85,22.969697 C85,22.969697 84.8484848,22.4242424 85.3333333,22.2878788 C85.8030303,22.1515152 86.3484848,22.6515152 86.3484848,22.6515152 C108.666667,39.969697 88.3939394,67.6363636 79.3787879,77.530303 C79.3787879,77.530303 79.0151515,78.030303 79.3484848,78.1969697 C79.6818182,78.3787879 80.0606061,78.0909091 80.0606061,78.0909091 C100.742424,64.5909091 105.924242,50.1818182 105.257576,41.1060606 C105.257576,41.1060606 105.166667,40.5454545 105.5,40.5151515 C105.757576,40.3939394 106.075758,40.8787879 106.075758,40.8787879 C122.090909,69.6818182 98.469697,85.2878788 73.6212121,95.7121212 C59.8181818,101.5 47.2727273,106 40.8939394,108.166667 C40.8939394,108.166667 40.0454545,108.5 39.5909091,107.712121 C39.1515152,106.924242 39.7272727,106.348485 39.7272727,106.348485 C49.5,94.9545455 73.7727273,56.9848485 51.8636364,32.1363636 C51.8636364,32.1363636 51.4545455,31.5757576 51.1515152,31.7727273 C50.8484848,31.9545455 51.030303,32.2878788 51.030303,32.2878788 C53.0151515,36.4393939 58.7878788,48.0151515 54.1969697,58.1060606 C49.3636364,52.030303 43.4090909,50.6363636 39.3484848,50.5 C30.6666667,50.1969697 22.2121212,57.3333333 19.6212121,63.2272727 C18.4393939,62.7424242 8.1969697,58.6818182 8.77272727,46.8030303 L8.77272727,46.8030303 L0,34.8181818 L0,34.8181818 L0.0249670227,34.7902733 C0.371913398,34.4024583 4.28015055,30.0340557 8.32053958,25.5268335 L9.18711028,24.5602754 C13.4213479,19.838182 17.5318015,15.2649018 17.5757576,15.2575758 C23.4848485,9.34848485 29.4545455,6.95454545 31.8181818,6.3030303 C35.0757576,5.39393939 38.5,4.95454545 41.9242424,4.93939394 C48.811655,0.475058275 55.7844684,0.124192218 56.2070439,0.106827051 L56.2272727,0.106060606 L65.8939394,0 Z M222.530303,35.5 C232.660173,35.5 240.9375,43.3547826 241.088961,53.0987519 L241.090991,53.4242424 L241.090991,69.2878788 C241.090991,72.7575758 240.30303,75.7878788 238.727273,78.3787879 C237.151515,80.9545455 234.909091,82.9545455 232,84.3484848 C229.090909,85.7424242 225.727273,86.4393939 221.878788,86.4393939 C216.468231,86.4393939 211.454987,84.9068994 206.825325,81.8693743 L206.363636,81.5606061 L209.939394,75.1060606 C213.424242,77.6666667 217.242424,78.9545455 221.409091,78.9545455 C224.712121,78.9545455 227.333333,78.1060606 229.272727,76.4090909 C231.149091,74.78 232.117818,72.5784 232.192314,69.817696 L232.19697,69.469697 L232.19697,68.7272727 C229.378788,70.3939394 226.075758,71.3484848 222.530303,71.3484848 C212.287879,71.3484848 203.939394,63.3030303 203.939394,53.4242424 C203.939394,43.5454545 212.272727,35.5 222.530303,35.5 Z M440.121212,36.1666667 C443.924242,36.1666667 447.272727,36.9393939 450.181818,38.5 C453.090909,40.0606061 455.348485,42.2424242 456.969697,45.0454545 C458.590909,47.8636364 459.409091,51.0909091 459.409091,54.7575758 C459.409091,58.469697 458.590909,61.7424242 456.969697,64.5757576 C455.333333,67.4090909 453.075758,69.6060606 450.166667,71.1666667 C447.257576,72.7272727 443.909091,73.5 440.106061,73.5 C436.272727,73.5 432.878788,72.7272727 429.954545,71.1666667 L429.818182,71.0909091 L429.818182,71.0909091 L429.681818,71.0151515 L429.681818,85.6969697 L420.69697,85.6969697 L420.69697,54.7727273 C420.69697,51.1060606 421.515152,47.8787879 423.136364,45.0606061 C424.757576,42.2424242 427.045455,40.0606061 429.969697,38.5 C432.893939,36.9393939 436.272727,36.1666667 440.121212,36.1666667 Z M338.954545,24.0757576 C342.378788,24.0757576 345.772727,24.6818182 349.106061,25.9242424 C352.257576,27.0793226 354.993027,28.6504666 357.325047,30.6250424 L357.757576,31 L352.545455,37.8030303 C350.712121,36.0757576 348.606061,34.7121212 346.19697,33.7575758 C343.787879,32.8030303 341.378788,32.3181818 338.954545,32.3181818 C335.939394,32.3181818 333.166667,33.0454545 330.621212,34.4848485 C328.075758,35.9242424 326.075758,37.9090909 324.606061,40.4090909 C323.136364,42.9393939 322.409091,45.6818182 322.409091,48.6515152 C322.409091,51.6666667 323.151515,54.4393939 324.636364,56.9545455 C326.121212,59.469697 328.121212,61.4545455 330.636364,62.9242424 C333.151515,64.3939394 335.954545,65.1212121 339.015152,65.1212121 C340.666667,65.1212121 342.393939,64.8636364 344.19697,64.3333333 C345.799663,63.8754209 347.342499,63.2259633 348.825477,62.4168849 L349.378788,62.1060606 L349.378788,48.8636364 L357.409091,48.8636364 L357.409091,67.0909091 C354.893939,68.969697 351.924242,70.4848485 348.484848,71.6515152 C345.045455,72.8181818 341.681818,73.4090909 338.393939,73.4090909 C333.681818,73.4090909 329.393939,72.3181818 325.530303,70.1212121 C321.666667,67.9242424 318.606061,64.9393939 316.363636,61.1666667 C314.121212,57.3939394 313,53.2121212 313,48.6363636 C313,44.0606061 314.151515,39.9090909 316.439394,36.1818182 C318.727273,32.4545455 321.848485,29.5 325.80303,27.3333333 C329.772727,25.1666667 334.151515,24.0757576 338.954545,24.0757576 Z M400.818182,35.6818182 C405.575758,35.6818182 409.272727,36.8333333 411.909091,39.1212121 C414.442929,41.3328283 415.787475,44.3939394 415.901668,48.3045455 L415.909091,48.7121212 L415.909091,61.7575758 C415.909091,63.9090909 415.393939,65.8484848 414.333333,67.5909091 C413.272727,69.3333333 411.772727,70.6969697 409.833333,71.6818182 C408.015152,72.6051136 405.917318,73.088956 403.552316,73.1458296 L403.075758,73.1515152 L395.318182,73.1515152 C393.166667,73.1515152 391.227273,72.8030303 389.515152,72.1060606 C389.19697,71.9848485 388.878788,71.8333333 388.560606,71.6818182 C388.318182,71.5454545 388.075758,71.4242424 387.848485,71.2878788 C387.621212,71.1515152 387.393939,71.0151515 387.181818,70.8636364 C385.893939,69.9848485 384.848485,68.8939394 384.060606,67.5909091 C383.651515,66.9393939 383.333333,66.2575758 383.090909,65.5454545 C382.924242,65.0757576 382.80303,64.5909091 382.69697,64.0909091 C382.651515,63.8484848 382.606061,63.5909091 382.575758,63.3333333 C382.515152,62.8181818 382.484848,62.3030303 382.484848,61.7575758 C382.484848,60.469697 382.651515,59.2878788 383,58.2121212 C383.560606,56.4242424 384.606061,54.9090909 386.121212,53.6969697 C388.473485,51.8268398 391.741516,50.8302025 395.952476,50.7206432 L396.424242,50.7121212 L407.136364,50.7121212 L407.136364,49.7575758 C407.136364,47.6060606 406.439394,45.9393939 405.015152,44.7424242 C403.65873,43.6024531 401.725108,43.0121968 399.214286,42.9585669 L398.833333,42.9545455 L391.106061,42.9545455 L391.106061,35.6818182 L400.818182,35.6818182 Z M264.80303,35.7575758 C270.666667,35.7575758 275.075758,37.4242424 278.030303,40.7575758 C280.984848,44.1060606 282.454545,48.7878788 282.454545,54.8333333 C282.454545,55.9214876 282.429502,56.7592036 282.390798,57.3464813 L282.378788,57.5151515 L255.272727,57.5151515 C255.863636,60.1212121 257.090909,62.1666667 258.939394,63.6515152 C260.80303,65.1363636 263.075758,65.8787879 265.772727,65.8787879 C267.651515,65.8787879 269.454545,65.530303 271.166667,64.8181818 C272.761072,64.1608392 274.148915,63.2452932 275.365947,62.0596268 L275.666667,61.7575758 L280.469697,66.7727273 C278.636364,68.7878788 276.409091,70.3333333 273.772727,71.4393939 C271.136364,72.5454545 268.212121,73.0909091 265.015152,73.0909091 C261.257576,73.0909091 257.954545,72.3181818 255.090909,70.7575758 C252.227273,69.1969697 250.030303,67.0151515 248.469697,64.1969697 C246.909091,61.3787879 246.136364,58.1515152 246.136364,54.4848485 C246.136364,50.8333333 246.924242,47.5757576 248.5,44.7424242 C250.075758,41.9090909 252.287879,39.6969697 255.121212,38.1212121 C257.954545,36.5454545 261.181818,35.7575758 264.80303,35.7575758 Z M184.272727,25.0151515 L184.272727,33.1818182 L169.30303,33.1818182 L169.30303,73.0757576 L160.045455,73.0757576 L160.045455,33.1818182 L145.075758,33.1818182 L145.075758,25.0151515 L184.272727,25.0151515 Z M473.166667,21.8333333 L473.166667,43.0454545 C475.681818,38.2424242 480.090909,35.7878788 486.409091,35.6969697 C490.621212,35.6969697 493.939394,36.9545455 496.363636,39.5 C498.704284,41.9430512 499.914964,45.247703 499.995676,49.3730426 L500,49.8181818 L500,72.7575758 L491.015152,72.7575758 L491.015152,52.4393939 C491.015152,49.8787879 490.287879,47.8484848 488.818182,46.3636364 C487.348485,44.8787879 485.363636,44.1363636 482.848485,44.1363636 C479.863636,44.1818182 477.515152,45.1818182 475.772727,47.1515152 C474.106061,49.0355731 473.243427,51.4186859 473.171566,54.3008535 L473.166667,54.6969697 L473.166667,72.7575758 L464.242424,72.7575758 L464.242424,21.8333333 L473.166667,21.8333333 Z M198.378788,39.5757576 L198.378788,72.7575758 L189.454545,72.7575758 L189.454545,39.5757576 L198.378788,39.5757576 Z M384.575758,35.6818182 L384.575758,44.2272727 C378.010101,44.2720386 372.664201,49.5485294 372.503711,56.0910905 L372.5,56.3939394 L372.5,72.7424242 L363.606061,72.7424242 L363.606061,56.3939394 C363.606061,44.8181818 373,35.7272727 384.575758,35.6818182 Z M308.742424,35.6818182 L308.742424,44.2272727 C302.176768,44.2720386 296.830867,49.5485294 296.670377,56.0910905 L296.666667,56.3939394 L296.666667,72.7424242 L287.772727,72.7424242 L287.772727,56.3939394 C287.772727,44.8181818 297.166667,35.7272727 308.742424,35.6818182 Z M407.121212,56.6818182 L397.848485,56.6818182 C396.363636,56.6818182 395.121212,56.8181818 394.121212,57.0909091 C393.924242,57.1515152 393.742424,57.2121212 393.560606,57.2727273 C393.212121,57.4090909 392.878788,57.5606061 392.606061,57.7424242 C392.469697,57.8333333 392.333333,57.9242424 392.212121,58.030303 C392.075758,58.1363636 391.969697,58.2424242 391.863636,58.3636364 C391.454545,58.8181818 391.166667,59.4090909 391.030303,60.0909091 C390.954545,60.4393939 390.924242,60.8181818 390.924242,61.2121212 C390.924242,62.1818182 391.151515,63.030303 391.606061,63.7575758 C391.69697,63.9090909 391.80303,64.0454545 391.909091,64.1818182 C392.136364,64.4393939 392.393939,64.6969697 392.681818,64.9242424 C393.409091,65.5 394.30303,65.8939394 395.363636,66.1060606 C395.893939,66.219697 396.46633,66.2807239 397.080808,66.2979097 L397.454545,66.3030303 L400.606061,66.3030303 C402.621212,66.3030303 404.212121,65.8333333 405.378788,64.9242424 C406.476827,64.0543672 407.064853,62.9160638 407.130233,61.4840682 L407.136364,61.2121212 L407.136364,59.4848485 L407.121212,59.4848485 L407.121212,56.6818182 Z M440.136364,43.7878788 C437.030303,43.7878788 434.515152,44.8181818 432.590909,46.8787879 C430.743636,48.8569697 429.790036,51.4076606 429.716704,54.5174555 L429.712121,54.9090909 L429.716704,55.3024019 C429.790036,58.4244848 430.743636,60.9612121 432.590909,62.9393939 C434.515152,65 437.030303,66.030303 440.136364,66.030303 C443.151515,66.030303 445.621212,65 447.545455,62.9393939 C449.469697,60.8787879 450.424242,58.1969697 450.424242,54.9090909 C450.424242,51.6212121 449.469697,48.9393939 447.545455,46.8787879 C445.621212,44.8181818 443.151515,43.7878788 440.136364,43.7878788 Z M222.530303,42.6515152 C217.136364,42.6515152 212.121212,47.4393939 212.121212,53.3333333 C212.121212,59.2272727 217.136364,64.0151515 222.530303,64.0151515 C227.924242,64.0151515 232.939394,59.2272727 232.939394,53.3333333 C232.939394,47.4393939 227.924242,42.6515152 222.530303,42.6515152 Z M264.878788,42.6969697 C262.257576,42.6969697 260.075758,43.4848485 258.318182,45.0606061 C256.863636,46.3582888 255.865419,48.0720352 255.336161,50.1765816 L255.242424,50.5757576 L255.242424,50.5909091 L274.212121,50.5909091 C273.954545,48.3333333 273.090909,46.5151515 271.606061,45.1060606 C269.909091,43.5 267.666667,42.6969697 264.878788,42.6969697 Z M193.909091,25.030303 C196.712354,25.030303 198.984848,27.3027971 198.984848,30.1060606 C198.984848,32.9093241 196.712354,35.1818182 193.909091,35.1818182 C191.105827,35.1818182 188.833333,32.9093241 188.833333,30.1060606 C188.833333,27.3027971 191.105827,25.030303 193.909091,25.030303 Z M37.8939394,17.1515152 L31.6818182,17.8484848 C28.6363636,18.0757576 27.7727273,19.8181818 26.9393939,22.1212121 C26.9393939,22.1212121 24.1363636,28.9545455 24.0606061,29.1363636 C23.9848485,29.3181818 24.0909091,29.7424242 24.469697,29.3787879 C24.7086078,29.1921388 27.9715587,26.2205769 31.2203272,23.2539735 L31.7928737,22.7310746 C34.9342671,19.8616601 37.8939394,17.1515152 37.8939394,17.1515152 L37.8939394,17.1515152 Z" id="Combined-Shape"></path>
        </g>
    </g>
</svg>