<?xml version="1.0" encoding="UTF-8"?>
<svg width="383px" height="86px" viewBox="0 0 383 86" version="1.1" xmlns="http://www.w3.org/2000/svg" xmlns:xlink="http://www.w3.org/1999/xlink">
    <!-- Generator: Sketch 53.2 (72643) - https://sketchapp.com -->
    <title>Combined Shape</title>
    <desc>Created with Sketch.</desc>
    <g id="Page-1" stroke="none" stroke-width="1" fill="none" fill-rule="evenodd">
        <g id="Asset-2" fill="#FFFFFF" fill-rule="nonzero">
            <path d="M32.71,43.1 C35.52,42.87 38.81,42.72 41.21,42.68 C41.21,45.55 41.21,48.48 41.21,51.33 C39.06,51.37 36.13,51.5 33.71,51.73 C33.0991109,48.8923182 32.7642172,46.0021861 32.71,43.1 Z M22.73,44.19 C22.9018235,47.2065717 23.5393655,50.1783946 24.62,53 C22.67,53.29 20.88,53.65 19.37,54 C18.0728875,51.1957757 17.3325243,48.1663995 17.19,45.08 C18.73,44.78 20.64,44.47 22.73,44.19 Z M24,44 C26.34,43.7 28.9,43.43 31.5,43.18 C31.563788,46.0909116 31.915502,48.9883653 32.55,51.83 C30.29,52.08 28.02,52.38 25.89,52.71 C24.7943202,49.9276157 24.1560722,46.9862716 24,44 Z M59.43,32.73 C58.3343268,29.8253487 56.6333573,27.1869712 54.44,24.99 C55.88,25.19 57.21,25.42 58.21,25.65 C60.7359465,27.8350484 62.7793031,30.5220622 64.21,33.54 C62.82,33.26 61.2,32.99 59.43,32.73 Z M83,42.12 C84.27,44 83.53,46.31 82.94,47.93 C82.47,49.05 81.84,50.2 81.34,51.12 C80.7900687,52.0186458 80.3470628,52.9784918 80.02,53.98 C79.8883479,54.8718342 79.8883479,55.7781658 80.02,56.67 L80.02,56.91 C80.0311,57.0071291 80.002221,57.1045957 79.94,57.18 L79.77,57.36 C79.69,57.44 79.08,58.12 78.77,58.59 C75.87,62.82 76.79,64.38 77.08,64.88 C77.3275091,65.2480448 77.619743,65.5839459 77.95,65.88 C78.5310265,66.3049022 78.8760939,66.9801956 78.88,67.7 C78.78,68.44 78.24,69 77,69.7 C74.5342777,71.0851766 72.1952532,72.6846812 70.01,74.48 L69.64,74.78 L68.38,75.78 C66.276217,77.5579064 64.0056819,79.1285273 61.6,80.47 C49.4318517,87.1714157 34.7247912,87.3701597 22.38,81 L22.32,81 C20.75,81 19.23,80 17.68,78 C16.93,77 16.23,75.9 15.68,75 C15.1662693,74.0921405 14.5451358,73.2494135 13.83,72.49 C13.1137711,71.9375454 12.3267745,71.4835089 11.49,71.14 L11.28,71.06 C11.1850326,71.0294033 11.1105967,70.9549674 11.08,70.86 L11,70.63 C10.8535852,70.1263508 10.67659,69.6321 10.47,69.15 C9.46,67.05 7.87,64.55 6,64.55 L5.83,64.55 C5.37891624,64.5718719 4.93223237,64.6491179 4.5,64.78 C4.14394362,64.8956237 3.77396832,64.9628919 3.4,64.98 C3.06168834,64.9896615 2.73016744,64.883857 2.46,64.68 C1.91,64.25 1.71,63.5 1.71,62.09 C1.70201598,59.2396187 1.4443646,56.3954151 0.94,53.59 L0.94,53.53 C0.87,53.16 0.82,52.78 0.76,52.38 L0.67,51.81 C0.47,50.68 0.3,49.47 0.17,48.21 L0.17,48.13 C0.170969812,48.1133474 0.170969812,48.0966526 0.17,48.08 L0.17,47.92 C0.159959344,47.8942785 0.159959344,47.8657215 0.17,47.84 L0.1,47 L0.1,46.88 C7.10542736e-15,45.56 7.10542736e-15,44.39 7.10542736e-15,43.29 C0.26485351,29.4651124 7.40119042,16.6812067 19.03,9.2 C20.03,7.26 22.37,6.76 24.03,6.55 C25.2,6.4 26.44,6.33 27.54,6.33 L27.62,6.33 C28.6740574,6.36119587 29.7280931,6.26720543 30.76,6.05 C31.5993013,5.70954423 32.3895695,5.2589232 33.11,4.71 L33.29,4.55 C33.3694859,4.48863709 33.4709887,4.4632614 33.57,4.48 L33.81,4.54 C34.3253644,4.64767194 34.8461037,4.72778568 35.37,4.78 C35.86,4.84 36.4,4.84 36.86,4.84 C40.65,4.84 41.41,3.52 41.65,3.1 C41.8564716,2.69784404 42.0110412,2.27109762 42.11,1.83 C42.3,1.12 42.61,0.39 43.23,0.12 C43.85,-0.15 44.6,0.02 45.85,0.77 C48.3372555,2.19659448 50.9437162,3.40446654 53.64,4.38 C54.01,4.52 54.4,4.66 54.79,4.82 L55.26,5 C57.9607133,5.93804786 60.5550424,7.15811996 63,8.64 C74.8217414,15.77739 82.3188446,28.3275407 83,42.12 Z M78.22,56.55 C78.1117488,55.5854769 78.1251875,54.6111705 78.26,53.65 C78.5866809,52.4685696 79.0817599,51.3403283 79.73,50.3 C80.27,49.35 80.83,48.25 81.27,47.25 C82.13,45.19 82.2,43.81 81.48,42.92 C81.3435223,42.7502423 81.1855284,42.5989715 81.01,42.47 C78.8626792,40.8666341 76.2498055,40.0097239 73.57,40.03 C72.5664977,40.0116731 71.563172,40.075217 70.57,40.22 C70.3979913,40.21066 70.2501648,40.094796 70.2,39.93 C70.15,39.68 70.4,39.56 70.5,39.56 C71.8206692,39.3264645 73.1588551,39.2060277 74.5,39.2 C76.8131448,39.0554245 79.1228836,39.5318728 81.19,40.58 C80.0204687,27.9544193 72.9340912,16.631056 62.09,10.06 C59.7399352,8.63236036 57.2462142,7.45588713 54.65,6.55 L53,5.91 C50.2302734,4.90892624 47.5534076,3.66752973 45,2.2 C44.657943,1.96994292 44.2839522,1.79137075 43.89,1.67 C43.8243101,1.84364431 43.7675689,2.02054331 43.72,2.2 L43.72,2.27 C43.5904229,2.83815202 43.3852623,3.38636822 43.11,3.9 C42.12,5.65 40.1,6.5 36.92,6.5 C36.4,6.5 35.67,6.46 35.25,6.43 C34.83,6.4 34.24,6.3 33.83,6.23 C33.0601935,6.79109375 32.2238199,7.2546261 31.34,7.61 C30.1300102,7.90690682 28.8853019,8.0381058 27.64,8 C26.5009886,8.00111084 25.3627986,8.06119126 24.23,8.18 C22.02,8.5 20.8,9.18 20.38,10.18 C20.3100456,10.3915727 20.2598313,10.6091681 20.23,10.83 C19.75,13.83 20.64,16.24 23.43,20.94 C23.46,21.02 23.7,21.44 23.53,21.56 C23.36,21.68 23.03,21.34 23.03,21.34 C20.1,17.77 18.47,14.67 18.52,11.58 C8.1921447,18.9100705 1.94575421,30.6980924 1.68,43.36 C1.66,44.41 1.68,45.51 1.75,46.61 L1.87,48 C2,49.26 2.15,50.42 2.42,51.54 C2.49,51.94 2.54,52.32 2.6,52.69 L2.69,53.28 C3.21324611,56.1944272 3.48093001,59.1489883 3.49,62.11 C3.46258945,62.5127544 3.49630472,62.9173377 3.59,63.31 L4.17,63.17 C4.73823491,62.9961251 5.32629758,62.8953144 5.92,62.87 C8.26,62.87 10.19,64.64 12,68.42 C12.200474,68.8275202 12.3806936,69.2446953 12.54,69.67 C13.4103976,70.0624535 14.2297623,70.5594452 14.98,71.15 C15.8374627,72.0434754 16.5646243,73.053422 17.14,74.15 C17.721894,75.134266 18.352683,76.0887932 19.03,77.01 C20.37,78.79 21.5,79.52 22.65,79.36 C22.8673496,79.319192 23.0789113,79.2520296 23.28,79.16 C26.34,77.91 28.14,76.07 30.41,71.16 C30.4399399,71.0667726 30.5097347,70.9916553 30.6005146,70.9549571 C30.6912944,70.9182589 30.7936836,70.9237698 30.88,70.97 C31.07,71.03 30.98,71.3 30.98,71.38 C29.55,75.64 27.57,78.68 24.72,80.38 C36.2588481,85.7359296 49.6594886,85.2716613 60.8,79.13 C63.1192694,77.8366966 65.3063655,76.3194615 67.33,74.6 L68.9,73.28 C71.1458205,71.3780731 73.5551744,69.6781401 76.1,68.2 C76.4653044,68.0201775 76.8022302,67.7876987 77.1,67.51 C77.01,67.4 76.83,67.21 76.73,67.11 C76.3009133,66.7093304 75.9245571,66.2556868 75.61,65.76 C74.4,63.73 74.96,61.15 77.34,57.67 C77.61,57.28 77.98,56.83 78.22,56.55 Z M7.63,51.43 L7.63,51.41 C8.44883628,51.3946489 9.17247511,51.9400017 9.38334824,52.7313683 C9.59422136,53.5227348 9.23790178,54.355861 8.52,54.75 C8.25150289,54.9125216 7.94385166,54.9989405 7.63,55 C6.9876055,54.9963406 6.39472174,54.6542922 6.07,54.1 C5.83234303,53.6920195 5.76753991,53.2059961 5.89,52.75 C6.01557472,52.2902455 6.31741475,51.8985721 6.73,51.66 C7.0065014,51.5104378 7.3156438,51.4314347 7.63,51.43 Z M70,55.83 C70.4214406,56.0679305 70.7255321,56.4697658 70.84,56.94 C71.0119267,57.6369306 70.7533342,58.3693882 70.1819556,58.8038966 C69.6105771,59.2384051 68.8356553,59.2918897 68.21,58.94 C67.3585912,58.4400414 67.0649436,57.349986 67.55,56.49 C67.8717451,55.9327208 68.4665096,55.5895874 69.11,55.59 C69.4227838,55.5890256 69.7301125,55.6719007 70,55.83 Z M50.14,12.18 C49.6635248,12.1800074 49.2067092,11.9900466 48.8707302,11.6521906 C48.5347511,11.3143345 48.3473381,10.8564678 48.35,10.38 C48.3500112,9.65106037 48.789657,8.99409126 49.4634995,8.71608156 C50.1373419,8.43807187 50.9123322,8.59391397 51.4263326,9.11078588 C51.940333,9.62765779 52.0918553,10.4035043 51.8100959,11.0757875 C51.5283366,11.7480707 50.8689284,12.1840497 50.14,12.18 Z M32.69,41.85 C32.6680499,38.8578114 32.9359674,35.8705309 33.49,32.93 C36.09,32.71 39,32.53 41.26,32.53 C41.2,35.3 41.2,38.32 41.2,41.44 C38.69,41.48 35.48,41.62 32.69,41.85 Z M33.34,63 C34.42,62.86 35.53,62.75 36.63,62.66 C37.6955701,64.506503 38.8919613,66.2743548 40.21,67.95 C37.7634636,66.5288977 35.4624181,64.8709392 33.34,63 Z M36.1,23 C35.19,23 34.24,23.12 33.34,23.22 C35.1156906,21.9847248 37.0120557,20.9326777 39,20.08 C37.958467,20.9341962 37.0068663,21.8924983 36.16,22.94 L36.1,23 Z M22.66,42.3 C22.67,42.52 22.68,42.72 22.68,42.93 C20.61,43.22 18.72,43.53 17.15,43.82 C17.1559746,40.7703634 17.7431163,37.7498082 18.88,34.92 C20.25,34.64 21.94,34.33 23.81,34.05 C23.0076863,36.7251529 22.619856,39.5074136 22.66,42.3 Z M37.74,22.85 C38.6900882,21.601132 39.8886079,20.5626419 41.26,19.8 C41.26,20.43 41.26,21.42 41.26,22.72 C40.19,22.73 38.93,22.77 37.74,22.85 Z M29.25,25 C27.0465506,27.1927175 25.338244,29.8318976 24.24,32.74 C22.46,33 20.85,33.27 19.46,33.55 C20.8934446,30.5337342 22.9363989,27.8472494 25.46,25.66 C26.51,25.43 27.81,25.2 29.25,25 Z M31.79,22.78 C31.48,23 31.18,23.25 30.87,23.53 C29.71,23.67 28.6,23.84 27.6,24 C28.8929924,23.1031776 30.2693451,22.3329559 31.71,21.7 C33.1776541,21.1258876 34.689221,20.6710798 36.23,20.34 C34.7011972,21.061187 33.2183767,21.8760704 31.79,22.78 Z M41.26,24 C41.2,26 41.32,28.45 41.3,31.31 C39.08,31.34 36.28,31.49 33.8,31.69 C34.3657207,29.0374371 35.3803061,26.5009736 36.8,24.19 C38.33,24.08 39.93,24 41.26,24 Z M32.11,61.89 C29.9528882,59.8529912 28.1603413,57.4618013 26.81,54.82 C26.65,54.52 26.51,54.22 26.38,53.92 C28.44,53.6 30.63,53.31 32.81,53.07 C33.5416756,55.9774773 34.601829,58.7922516 35.97,61.46 C34.67,61.57 33.36,61.72 32.11,61.89 Z M41.26,68 C41.26,68 39.2,64.58 38.01,62.55 C39.02,62.48 41.26,62.41 41.26,62.41 L41.26,68 Z M25.17,33.86 C27.39,33.55 29.8,33.27 32.21,33 C31.6799608,35.9536177 31.4188915,38.9492209 31.43,41.95 C28.85,42.18 26.27,42.46 23.9,42.77 C23.9,42.61 23.9,42.44 23.9,42.29 C23.8529363,39.4290166 24.2821276,36.5801329 25.17,33.86 Z M41.2,52.55 C41.21,55.59 41.17,58.49 41.26,61.14 C40.14,61.16 38.55,61.26 37.33,61.35 C35.9092888,58.6902523 34.811506,55.8702597 34.06,52.95 C36.39,52.73 39.2,52.55 41.2,52.55 Z M25.12,54.12 C26.4460684,57.0843563 28.2879948,59.7896857 30.56,62.11 C28.94,62.34 27.47,62.6 26.3,62.85 C23.6546937,60.7493458 21.4809467,58.1156366 19.92,55.12 C21.43,54.79 23.2,54.43 25.12,54.12 Z M31.38,24.7 C32.65,24.54 34,24.4 35.27,24.32 C33.9590181,26.6551845 33.0146642,29.1779585 32.47,31.8 C30.15,32.02 27.82,32.27 25.66,32.57 C25.93,31.93 26.22,31.31 26.55,30.7 C27.7686463,28.4142468 29.4072571,26.3787055 31.38,24.7 Z M31.7,63.2 L32.27,63.72 C34.2409439,65.3181118 36.3529512,66.7339264 38.58,67.95 C36.8955572,67.7550988 35.2363754,67.3830398 33.63,66.84 C32.89,66.59 32.18,66.32 31.47,66 C30.1358437,65.3972117 28.8575424,64.6777489 27.65,63.85 C28.83,63.63 30.22,63.4 31.7,63.2 Z M49.93,51.73 C47.52,51.5 44.59,51.37 42.38,51.33 C42.38,48.48 42.38,45.55 42.38,42.68 C44.83,42.72 48.12,42.87 50.93,43.1 C50.8808087,46.0025213 50.5458585,48.8931412 49.93,51.73 Z M42.5,41.44 C42.46,38.32 42.5,35.3 42.43,32.53 C44.69,32.57 47.61,32.71 50.21,32.93 C50.7560907,35.8714871 51.0206198,38.8583222 51,41.85 C48.21,41.62 44.99,41.44 42.5,41.44 Z M47.07,62.65 C48.16,62.75 49.27,62.86 50.35,63 C48.2303739,64.8670283 45.9327041,66.5216185 43.49,67.94 C44.8046763,66.2619019 46.0009029,64.4942934 47.07,62.65 Z M47.53,22.9 C46.6900085,21.8650461 45.7449539,20.9199915 44.71,20.08 C46.7014001,20.9320721 48.601142,21.9841338 50.38,23.22 C49.45,23.12 48.51,23.04 47.59,22.96 L47.53,22.9 Z M59.88,34.05 C61.75,34.33 63.45,34.64 64.79,34.92 C65.9268837,37.7498082 66.5140254,40.7703634 66.52,43.82 C64.95,43.53 63.06,43.22 61,42.93 C61,42.72 61,42.52 61,42.3 C61.055455,39.5086335 60.6776308,36.7255537 59.88,34.05 Z M42.43,22.72 C42.4,21.42 42.46,20.43 42.43,19.8 C43.8034143,20.5597497 45.0024866,21.5987187 45.95,22.85 C44.76,22.77 43.51,22.72 42.43,22.72 Z M59.07,52.94 C60.1486237,50.1247303 60.7861327,47.1598078 60.96,44.15 C63.05,44.43 64.96,44.74 66.51,45.04 C66.3552782,48.118211 65.6154169,51.1387458 64.33,53.94 C62.82,53.63 61.07,53.27 59.07,52.94 Z M52.82,23.51 C52.51,23.25 52.21,23 51.92,22.78 C50.4928552,21.8739856 49.0099023,21.0590295 47.48,20.34 C49.0214982,20.6682806 50.5332907,21.1231562 52,21.7 C53.4329734,22.3277292 54.8025554,23.0912125 56.09,23.98 C55.09,23.82 53.99,23.65 52.82,23.51 Z M49.94,31.65 C47.44,31.45 44.66,31.3 42.43,31.31 C42.37,28.49 42.5,26 42.43,24 C43.75,24 45.37,24 46.94,24.15 C48.3551758,26.4632416 49.3694434,28.9989107 49.94,31.65 Z M56.88,54.82 C55.5330368,57.4639078 53.7400811,59.8556431 51.58,61.89 C50.33,61.72 49.02,61.57 47.72,61.46 C49.088171,58.7922516 50.1483244,55.9774773 50.88,53.07 C53.06,53.31 55.25,53.6 57.32,53.92 C57.18,54.22 57.04,54.52 56.88,54.82 Z M42.43,62.41 C42.43,62.41 44.67,62.48 45.69,62.52 C44.49,64.55 42.43,68 42.43,68 L42.43,62.41 Z M59.73,44 C59.5831705,46.9845632 58.9550769,49.9257973 57.87,52.71 C55.76,52.38 53.49,52.08 51.22,51.83 C51.8327938,48.985875 52.1677016,46.0889222 52.22,43.18 C54.79,43.41 57.36,43.68 59.73,44 Z M59.79,42.29 C59.79,42.44 59.78,42.61 59.78,42.82 C57.39,42.51 54.81,42.23 52.24,42 C52.2852813,38.9976625 52.047564,35.9977371 51.53,33.04 C53.9,33.27 56.3,33.55 58.53,33.86 C59.4144807,36.5807067 59.8402904,39.4295766 59.79,42.29 Z M46.37,61.35 C45.14,61.26 43.55,61.16 42.43,61.19 C42.5,58.54 42.5,55.6 42.5,52.6 C44.53,52.63 47.29,52.78 49.63,53 C48.8777342,55.9025786 47.7834035,58.7055423 46.37,61.35 Z M53.13,62.11 C55.4052461,59.7902234 57.2505499,57.0849065 58.58,54.12 C60.49,54.43 62.26,54.79 63.77,55.12 C62.2081501,58.1179257 60.0306123,60.752099 57.38,62.85 C56.23,62.6 54.75,62.34 53.13,62.11 Z M58,32.53 C55.87,32.23 53.54,32 51.19,31.72 C50.6453358,29.0979585 49.7009819,26.5751845 48.39,24.24 C49.7,24.36 51.02,24.5 52.28,24.66 C54.2555176,26.3360034 55.894586,28.3721132 57.11,30.66 C57.44,31.27 57.73,31.89 58,32.53 Z M51.42,63.71 C51.62,63.55 51.8,63.37 52.1,63.2 C53.53,63.4 54.92,63.63 56.1,63.85 C54.8885135,64.6741941 53.606913,65.3902842 52.27,65.99 C51.57,66.31 50.85,66.58 50.12,66.83 C48.4968888,67.3743822 46.8209918,67.7464313 45.12,67.94 C47.3436485,66.7235021 49.4522979,65.3076946 51.42,63.71 Z M109.54,70.09 L106.78,62.16 C106.85,63.33 106.89,64.44 106.89,65.47 L106.89,70.09 L105.48,70.09 L105.48,60.59 L107.67,60.59 L110.31,68.15 L113,60.59 L115.19,60.59 L115.19,70.09 L113.7,70.09 L113.7,65.39 C113.7,64.92 113.7,64.31 113.7,63.55 C113.7,62.79 113.7,62.33 113.77,62.17 L113.71,62.17 L110.86,70.09 L109.54,70.09 Z M124.43,70.09 L119.05,70.09 L119.05,60.59 L124.43,60.59 L124.43,61.9 L120.6,61.9 L120.6,64.49 L124.18,64.49 L124.18,65.79 L120.6,65.79 L120.6,68.79 L124.43,68.79 L124.43,70.09 Z M133.19,70.09 L127.81,70.09 L127.81,60.59 L133.19,60.59 L133.19,61.9 L129.37,61.9 L129.37,64.49 L133,64.49 L133,65.79 L129.42,65.79 L129.42,68.79 L133.24,68.79 L133.19,70.09 Z M139.86,70.09 L138.3,70.09 L138.3,61.92 L135.51,61.92 L135.51,60.59 L142.65,60.59 L142.65,61.92 L139.86,61.92 L139.86,70.09 Z M145.44,70.09 L145.44,60.59 L147,60.59 L147,70.09 L145.44,70.09 Z M158.75,70.09 L156.85,70.09 L152.17,62.52 L152.17,62.94 C152.23,63.75 152.27,64.49 152.27,65.15 L152.27,70.09 L150.85,70.09 L150.85,60.59 L152.74,60.59 L157.4,68.12 C157.4,68.03 157.4,67.66 157.4,67.04 C157.4,66.42 157.4,65.92 157.4,65.57 L157.4,60.57 L158.82,60.57 L158.75,70.09 Z M166.48,64.94 L170,64.94 L170,69.71 C169.46251,69.8904779 168.910468,70.0243062 168.35,70.11 C167.786656,70.1879887 167.218713,70.2280788 166.65,70.23 C165.407884,70.3246046 164.185784,69.8758934 163.3,69 C162.463805,67.9899573 162.04525,66.6985208 162.13,65.39 C162.05239,64.0619532 162.53057,62.7614471 163.45,61.8 C164.433952,60.8928478 165.74386,60.4237347 167.08,60.5 C168.050034,60.4958507 169.010341,60.6933608 169.9,61.08 L169.36,62.37 C168.63526,62.0242752 167.842971,61.8432783 167.04,61.84 C166.129403,61.8066422 165.249476,62.1717572 164.63,62.84 C164.013794,63.569442 163.699063,64.5064795 163.75,65.46 C163.684277,66.408286 163.96895,67.3477059 164.55,68.1 C165.136814,68.7334865 165.978431,69.0679283 166.84,69.01 C167.382077,69.0069726 167.92211,68.943242 168.45,68.82 L168.45,66.27 L166.45,66.27 L166.48,64.94 Z M190.28,65.33 C190.359502,66.6361955 189.945497,67.9246073 189.12,68.94 C187.256866,70.651911 184.393134,70.651911 182.53,68.94 C181.701741,67.9148969 181.291024,66.614889 181.38,65.3 C181.292716,63.9944995 181.703671,62.7044604 182.53,61.69 C183.403465,60.8113165 184.613491,60.3520899 185.85,60.43 C187.074839,60.3572941 188.269995,60.825123 189.12,61.71 C189.949666,62.7270284 190.364046,64.0201801 190.28,65.33 Z M183.03,65.33 C182.962792,66.269676 183.208963,67.2051253 183.73,67.99 C184.274128,68.5668373 185.032021,68.8937978 185.825,68.8937978 C186.617979,68.8937978 187.375872,68.5668373 187.92,67.99 C188.446008,67.2032714 188.695753,66.2640885 188.63,65.32 C188.69725,64.3834579 188.450983,63.4511597 187.93,62.67 C187.42437,62.048482 186.649624,61.7095308 185.85,61.76 C185.041249,61.7063537 184.25606,62.0449898 183.74,62.67 C183.198436,63.4469123 182.937457,64.385028 183,65.33 L183.03,65.33 Z M195.19,70.09 L193.65,70.09 L193.65,60.59 L199,60.59 L199,61.9 L195.17,61.9 L195.17,64.9 L198.76,64.9 L198.76,66.22 L195.17,66.22 L195.19,70.09 Z M214.43,70.09 L211.67,62.16 C211.74,63.33 211.78,64.44 211.78,65.47 L211.78,70.09 L210.37,70.09 L210.37,60.59 L212.56,60.59 L215.2,68.15 L217.92,60.59 L220.12,60.59 L220.12,70.09 L218.62,70.09 L218.62,65.39 C218.62,64.92 218.62,64.31 218.62,63.55 C218.62,62.79 218.62,62.33 218.68,62.17 L218.62,62.17 L215.77,70.09 L214.43,70.09 Z M223.94,70.09 L223.94,60.59 L225.49,60.59 L225.49,70.09 L223.94,70.09 Z M237.25,70.09 L235.35,70.09 L230.67,62.52 L230.67,62.94 C230.73,63.75 230.77,64.49 230.77,65.15 L230.77,70.09 L229.35,70.09 L229.35,60.59 L231.24,60.59 L235.9,68.12 C235.9,68.03 235.9,67.66 235.84,67.04 C235.78,66.42 235.84,65.92 235.84,65.57 L235.84,60.57 L237.26,60.57 L237.25,70.09 Z M248.82,65.25 C248.909314,66.580868 248.433746,67.8877731 247.51,68.85 C246.468125,69.741043 245.117537,70.1864498 243.75,70.09 L241.09,70.09 L241.09,60.59 L244,60.59 C245.292502,60.5080048 246.563949,60.9474287 247.53,61.81 C248.423338,62.7250532 248.891384,63.9731759 248.82,65.25 Z M247.18,65.25 C247.18,62.9833333 246.116667,61.8466667 243.99,61.84 L242.64,61.84 L242.64,68.74 L243.75,68.74 C246.043333,68.7733333 247.186667,67.6266667 247.18,65.3 L247.18,65.25 Z M257.68,67.51 C257.716903,68.2866253 257.373726,69.032664 256.76,69.51 C256.023226,70.0318993 255.131552,70.2891804 254.23,70.24 C253.32275,70.2719075 252.420086,70.0975294 251.59,69.73 L251.59,68.25 C252.03111,68.4623178 252.493769,68.6265952 252.97,68.74 C253.415716,68.846432 253.8718,68.9034424 254.33,68.91 C254.812543,68.9450376 255.293392,68.822193 255.7,68.56 C255.985316,68.3333881 256.145121,67.9840458 256.13,67.62 C256.137168,67.2725651 255.990826,66.9396353 255.73,66.71 C255.223683,66.33547 254.664148,66.0388494 254.07,65.83 C253.370103,65.5925699 252.740916,65.1834263 252.24,64.64 C251.875517,64.1723605 251.684654,63.5927052 251.7,63 C251.664933,62.2782199 251.977138,61.5831914 252.54,61.13 C253.19364,60.6434892 253.996181,60.399545 254.81,60.44 C255.748822,60.446049 256.675758,60.6505201 257.53,61.04 L257,62.32 C256.286373,61.9933581 255.514489,61.8131385 254.73,61.79 C254.324104,61.7583855 253.920152,61.8717754 253.59,62.11 C253.332103,62.3238174 253.188031,62.6452085 253.2,62.98 C253.191066,63.2010772 253.24666,63.4199765 253.36,63.61 C253.485315,63.8168495 253.66071,63.9888051 253.87,64.11 C254.282473,64.351311 254.713897,64.5586617 255.16,64.73 C255.702071,64.9345025 256.216139,65.2066565 256.69,65.54 C256.996725,65.7634648 257.24395,66.0587606 257.41,66.4 C257.583448,66.7445767 257.675802,67.1242543 257.68,67.51 Z M182.79,32.58 C183.813492,34.0328178 184.349234,35.7731036 184.32,37.55 C184.300958,39.4034276 183.790231,41.2185798 182.84,42.81 C182.701841,43.0497623 182.548181,43.2802521 182.38,43.5 C181.445483,44.8812353 180.175898,46.0028736 178.69,46.76 C177.039426,47.5886523 175.226301,48.0427872 173.38,48.09 L173.09,48.09 C172.97,48.09 172.87,48.09 172.74,48.09 C170.571463,48.0012008 168.4251,47.6176813 166.36,46.95 L165.45,46.66 C164.951434,46.4684495 164.430629,46.3407684 163.9,46.28 C163.07,46.28 162.35,46.75 162,48 L161,48 L160.46,36.55 L161.46,36.55 C161.55,36.84 161.65,37.11 161.74,37.38 C163.38,41.93 165.42,44.4 167.31,45.6 C168.795189,46.5129745 170.506674,46.9910817 172.25,46.98 C172.25,46.98 176.47,47.51 177,43.51 C177.35,40.84 175.45,38.72 173.77,37.39 L172.01,36.2 C171.22,35.67 170.37,35.1 169.37,34.48 C165.74,32.15 163.28,30.3 162.09,28.73 C162.091822,28.7100415 162.091822,28.6899585 162.09,28.67 C161.078667,27.1959153 160.522331,25.4573653 160.49,23.67 C160.508862,21.8178966 161.015918,20.0035343 161.96,18.41 C162.1,18.17 162.26,17.95 162.42,17.72 C163.357135,16.341068 164.626065,15.2200083 166.11,14.46 C167.748968,13.6004947 169.569391,13.144532 171.42,13.13 C173.404629,13.1048226 175.374998,13.4683219 177.22,14.2 C177.53,14.31 177.83,14.38 178.14,14.49 C178.636592,14.6859413 179.158448,14.8105133 179.69,14.86 C180.52,14.86 181.24,14.39 181.58,13.14 L182.58,13.14 L183.19,24.7 L182.19,24.7 C182.1,24.42 182,24.15 181.9,23.87 C180.26,19.33 178.18,16.91 176.33,15.64 C175.266146,14.8148839 173.965942,14.3522778 172.62,14.32 C172.62,14.32 168.33,14.06 167.87,17.78 C167.55,20.46 169.43,22.57 171.11,23.9 L172.86,25.1 L175.5,26.82 C179.13,29.14 181.6,30.99 182.79,32.58 Z M101.7,13.31 L129.81,13.31 L130.68,21.52 L129.79,21.52 C129.649252,20.5443375 129.30883,19.6081782 128.79,18.77 C127.572937,16.5528015 125.412351,15.0105775 122.92,14.58 C121.92287,14.4870118 120.920669,14.4602864 119.92,14.5 L119.92,42.76 C119.93,45.88 122.3,46.44 122.3,46.44 L122.6,46.51 C123.009993,46.5825914 123.424142,46.6293502 123.84,46.65 L123.84,47.55 L107.68,47.55 L107.68,46.65 C108.095858,46.6293502 108.510007,46.5825914 108.92,46.51 L109.22,46.44 C109.22,46.44 111.6,45.88 111.6,42.76 L111.6,14.5 C110.599331,14.4602864 109.59713,14.4870118 108.6,14.58 C106.105102,15.0105273 103.941413,16.5523397 102.72,18.77 C102.20572,19.6103777 101.865649,20.5455746 101.72,21.52 L100.83,21.52 L101.7,13.31 Z M149,19.56 L148.95,19.56 L148.95,43.23 C148.99,44.88 149.19,45.3 149.57,45.81 C150.20095,46.4737095 151.084653,46.8373733 152,46.81 L152,47.63 L137.75,47.63 L137.75,46.81 C138.664882,46.8348349 139.547593,46.4715795 140.18,45.81 C140.55,45.3 140.8,44.88 140.8,43.23 L140.8,17.75 C140.76,16.1 140.55,15.68 140.18,15.16 C139.547593,14.4984205 138.664882,14.1351651 137.75,14.16 L137.75,13.34 L152.05,13.34 L152.05,14.16 C151.134653,14.1326267 150.25095,14.4962905 149.62,15.16 C149.24,15.68 149,16.1 149,17.75 L149,19.56 Z M378.08,41.44 C378.08,41.44 378,45.45 382.94,43.67 L382.94,44.48 C381.322126,46.3069913 378.968344,47.3094599 376.53,47.21 C369.95,47.21 370.04,42.63 370.04,42.63 C366.16,48.46 350.77,50.04 350.77,39.8 C350.77,29.56 370.04,29.66 370.04,29.66 L370.04,24.83 C370.04,24.83 370.38,18.33 365.12,18.45 C360.51,18.55 359.88,20.69 359.88,20.69 L359.81,20.8 C361.531379,21.5592425 362.655242,23.2489404 362.69,25.13 C362.581537,27.9244393 360.234906,30.1056892 357.44,30.01 C356.139436,30.0843624 354.865777,29.6190501 353.91944,28.7238157 C352.973104,27.8285812 352.437876,26.5826869 352.44,25.28 C352.458686,23.6144125 353.249232,22.0517921 354.58,21.05 L354.65,21 C357.606722,18.7278471 361.211923,17.4595449 364.94,17.38 C372.88,17.15 378.08,20.3 378.08,24.59 L378.08,41.44 Z M370,41.21 L370.02,30.41 C359.8,30.97 358.67,37.57 358.67,39.7 C358.67,40.93 358.52,45.21 363,45.21 C367.48,45.21 370,41.21 370,41.21 Z M218.9,12 C223.170261,12.0823095 227.320878,13.4252585 230.83,15.86 L231.51,24.01 L230.15,24.01 C228.38,17.67 224.13,12.87 218.92,12.87 C212.16,12.87 207.3,20.75 207.3,30.15 C207.3,39.55 212.15,46.93 218.91,46.93 C221.08,46.93 222.82,46.34 223.7,45.34 L223.7,36.87 C223.7,36.87 224.07,32.54 219.18,32.54 L219.18,31.19 C223.45767,30.8063939 227.699929,30.0976793 231.87,29.07 L231.87,43.58 C230.238647,44.6337698 228.518851,45.5438564 226.73,46.3 C224.235938,47.251092 221.589255,47.7390848 218.92,47.74 C207.13,47.74 199,40.25 199,29.87 C199,20 207.9,12 218.9,12 Z M262.13,17.65 C264.35739,17.9287862 266.000126,19.8670406 265.91,22.11 C265.955147,23.3388764 265.487468,24.5312268 264.618884,25.4017076 C263.7503,26.2721883 262.558972,26.7424669 261.33,26.7 C260.025987,26.6816642 258.783323,26.1431981 257.878211,25.204285 C256.973098,24.2653719 256.480535,23.003809 256.51,21.7 C256.503366,20.6280455 256.828187,19.5802359 257.44,18.7 C257.126667,18.8333333 256.793333,18.9833333 256.44,19.15 C256.011233,19.381337 255.603074,19.6489823 255.22,19.95 L254.92,20.18 L254.64,20.44 C254.46,20.6 254.29,20.8 254.12,20.97 C253.788525,21.3429706 253.490697,21.7445361 253.23,22.17 C252.974541,22.584399 252.753788,23.0192141 252.57,23.47 C252.237295,24.2730183 251.99903,25.1119781 251.86,25.97 C251.81,26.26 251.71,26.58 251.71,26.84 L251.71,42.37 C251.674304,43.1370558 251.76898,43.9046096 251.99,44.64 C252.176044,45.1427336 252.529057,45.5663491 252.99,45.84 C253.733043,46.1565351 254.532344,46.3197967 255.34,46.32 L255.34,47.14 L240.47,47.14 L240.47,46.32 C241.385347,46.3473733 242.26905,45.9837095 242.9,45.32 C243.31,44.75 243.52,43.26 243.52,40.86 L243.52,29.63 L243.52,26.7 C243.529182,25.9356298 243.499142,25.1712919 243.43,24.41 C243.391613,24.1167253 243.334835,23.8261526 243.26,23.54 C243.028207,22.4896272 242.488563,21.5321937 241.71,20.79 C240.972777,20.1041342 240.038899,19.6669252 239.04,19.54 L239.04,18.68 L241.04,18.68 C242.58,18.68 244.98,18.59 246.65,18.4 C248.161944,18.2276318 249.661565,17.9604388 251.14,17.6 C251.26822,17.5476894 251.414374,17.5654189 251.526368,17.6468689 C251.638362,17.7283188 251.70026,17.8619008 251.69,18 L251.69,22.29 C251.73,22.23 251.81,22.11 251.81,22.11 C252.149884,21.6210703 252.527717,21.1596459 252.94,20.73 C253.16,20.53 253.36,20.31 253.6,20.13 L253.95,19.85 L254.3,19.58 C254.340601,19.5682548 254.378144,19.5477769 254.41,19.52 C256.664569,17.965735 259.414098,17.2997221 262.13,17.65 Z M332,17.41 C338.67,17.41 344.92,21.41 344.97,31.89 C344.97,41.07 338.69,47.19 331.97,47.19 C328.876729,47.0689391 325.975463,45.6581985 323.97,43.3 L323.97,48.85 C323.931291,50.390256 324.008173,51.9312459 324.2,53.46 C324.312413,53.7321366 324.471467,53.9825618 324.67,54.2 C324.831738,54.3880958 325.024532,54.5470658 325.24,54.67 C325.975152,54.975746 326.763806,55.1321169 327.56,55.13 L327.56,55.98 L315.92,55.98 C315.875409,55.9384961 315.841161,55.8871237 315.82,55.83 L315.82,50.72 L315.82,50.57 C315.82,50.11 315.82,48.59 315.82,46.66 L315.82,46.54 L315.82,29.6 L315.82,25.76 C315.82,19.86 311.34,19.54 311.34,19.54 L311.34,18.67 L313.34,18.67 C314.5,18.67 316.12,18.62 317.57,18.52 L318.46,18.44 C319.53,18.32 320.68,18.15 321.53,18 C322.38,17.85 323.08,17.69 323.43,17.6 C323.560369,17.544485 323.710161,17.5602204 323.826148,17.6416145 C323.942134,17.7230085 324.007872,17.8585225 324,18 L324,21.23 C326.001081,18.8756263 328.911051,17.486116 332,17.41 Z M329.89,45.05 L329.84,45.05 C334.46,45.05 336.89,39.07 336.89,31.67 C336.89,24.27 334.51,19.2 329.89,19.2 C327.58,19.2 325.48,20.7 323.97,23.12 L323.97,39.32 L323.97,41.13 L324.03,41.21 C325.54,43.58 327.61,45.05 329.89,45.05 Z M303.56,45.17 C304.33,46.24 305.5,46.22 306.63,46.28 L306.63,47.12 L295.09,47.12 C294.994725,47.0572146 294.921336,46.9663517 294.88,46.86 L294.88,42.16 C292.308613,45.4196121 288.371534,47.3032051 284.22,47.26 C281.516509,47.2312892 278.901931,46.290464 276.8,44.59 C275.441583,43.3674457 274.636949,41.6463223 274.57,39.82 L274.57,29.89 L274.57,25.75 C274.57,25.5 274.57,25.27 274.57,25.03 C274.22,19.84 270.11,19.54 270.11,19.54 L270.11,18.68 L272.11,18.68 C273.27,18.68 274.91,18.63 276.36,18.52 C276.84,18.49 277.31,18.4 277.72,18.4 C279.232071,18.2285004 280.731746,17.9612976 282.21,17.6 C282.33925,17.5429806 282.488991,17.5583659 282.603945,17.6404763 C282.7189,17.7225867 282.782018,17.8592441 282.77,18 L282.77,28.36 C282.77,33.17 282.77,39.27 282.77,39.27 L282.77,39.72 C282.996575,41.9275709 284.709802,43.6904572 286.91,43.98 C291.34,44.83 294.47,41.06 294.91,40.49 L294.91,29.89 L294.91,25.75 C294.914443,25.2780815 294.881003,24.8065677 294.81,24.34 C294.17,19.81 290.43,19.54 290.43,19.54 L290.43,18.68 L292.43,18.68 C293.58,18.68 295.22,18.63 296.68,18.52 C297.15,18.49 297.62,18.4 298.03,18.4 C299.538958,18.229779 301.035388,17.9625594 302.51,17.6 C302.640369,17.544485 302.790161,17.5602204 302.906148,17.6416145 C303.022134,17.7230085 303.087872,17.8585225 303.08,18 L303.08,42.39 C303.1,44.17 303.24,44.73 303.56,45.17 Z" id="Combined-Shape"></path>
        </g>
    </g>
</svg>