<?xml version="1.0" encoding="UTF-8"?>
<svg width="3001px" height="316px" viewBox="0 0 3001 316" version="1.1" xmlns="http://www.w3.org/2000/svg" xmlns:xlink="http://www.w3.org/1999/xlink">
    <!-- Generator: Sketch 53.2 (72643) - https://sketchapp.com -->
    <title>Shape</title>
    <desc>Created with Sketch.</desc>
    <g id="Page-1" stroke="none" stroke-width="1" fill="none" fill-rule="evenodd">
        <g id="typeqast" fill="#FFFFFF" fill-rule="nonzero">
            <path d="M276.495142,70.4951283 L166.439097,70.4951283 L166.439097,305.991396 L107.269181,305.991396 L107.269181,70.4951283 L0.76333072,70.4951283 L0.76333072,11.3252117 L276.495142,11.3252117 L276.495142,70.4951283 Z M645.715421,11.3252117 L523.825393,187.651563 L523.825393,305.991396 L465.838875,305.991396 L465.838875,187.651563 L342.765448,11.3252117 L416.136145,11.3252117 L494.240435,127.298248 L574.711521,11.3252117 L645.715421,11.3252117 Z M814.941383,70.4951283 L814.941383,158.066605 C840.976146,143.865825 872.927901,141.499028 907.246453,141.499028 L933.281216,141.499028 C961.682776,141.499028 979.433751,136.765435 979.433751,104.81368 C979.433751,76.4121199 956.949182,70.4951283 933.281216,70.4951283 L814.941383,70.4951283 Z M814.941383,305.991396 L756.954864,305.991396 L756.954864,11.3252117 L943.931801,11.3252117 C1000.73492,11.3252117 1039.78707,48.01056 1039.78707,104.81368 C1039.78707,162.800198 999.551522,199.485546 933.281216,199.485546 L907.246453,199.485546 C852.810129,199.485546 839.792748,203.035741 814.941383,216.053123 L814.941383,305.991396 Z M1222.03041,200.668945 L1222.03041,246.82148 L1406.64055,246.82148 L1406.64055,305.991396 L1165.22729,305.991396 L1165.22729,11.3252117 L1397.17336,11.3252117 L1397.17336,69.3117299 L1222.03041,69.3117299 L1222.03041,140.31563 C1248.06517,126.11485 1280.01693,123.748053 1314.33548,123.748053 L1356.93782,123.748053 L1356.93782,181.734571 L1314.33548,181.734571 C1261.08255,182.91797 1248.06517,186.468165 1222.03041,200.668945 Z M1688.28935,236.170895 L1717.87431,184.101368 C1740.35888,186.468165 1756.92645,198.302148 1779.41102,216.053123 C1793.6118,200.668945 1801.89559,180.551173 1801.89559,156.883206 C1801.89559,90.6128999 1741.54228,62.21134 1685.92255,62.21134 C1629.11943,62.21134 1573.49971,91.7962982 1573.49971,159.250003 C1573.49971,226.703708 1630.30283,256.288666 1687.10595,256.288666 C1700.12333,256.288666 1713.14072,255.105268 1724.9747,250.371675 L1723.7913,250.371675 C1711.95732,243.271285 1701.30673,237.354293 1688.28935,236.170895 L1688.28935,236.170895 Z M1859.88211,155.699808 C1859.88211,193.568555 1848.04813,225.52031 1829.11375,250.371675 C1838.58094,255.105268 1849.23152,259.838861 1859.88211,259.838861 L1830.29715,310.72499 C1811.36278,309.541591 1797.162,301.257803 1781.77782,290.607218 C1753.37626,305.991396 1720.24111,315.458583 1685.92255,315.458583 C1597.16768,315.458583 1513.1464,257.472065 1513.1464,158.066605 C1513.1464,58.661145 1598.35108,1.85802506 1687.10595,1.85802506 C1774.67743,1.85802506 1859.88211,53.9275516 1859.88211,155.699808 L1859.88211,155.699808 Z M2160.46529,207.769335 L2168.74907,207.769335 L2111.94595,98.8966882 L2042.12545,233.804098 C2059.87643,224.336911 2098.92857,207.769335 2160.46529,207.769335 Z M2079.9942,42.0935683 L2061.05983,5.40822006 L2123.77994,5.40822006 L2282.35531,305.991396 L2218.4518,305.991396 L2194.78384,262.205658 L2159.28189,262.205658 C2087.09459,262.205658 2011.3571,290.607218 2001.88991,303.6246 L2000.70651,307.174795 L1939.1698,307.174795 L2079.9942,42.0935683 Z M2621.99063,38.5433733 L2582.93849,83.5125099 C2560.45392,64.5781366 2529.68556,57.4777466 2495.36701,57.4777466 C2466.96545,57.4777466 2436.1971,71.6785266 2436.1971,89.4295016 C2436.1971,107.180477 2443.29749,119.01446 2500.10061,119.01446 C2625.54083,119.01446 2644.4752,161.6168 2644.4752,208.952733 C2644.4752,279.956633 2579.38829,313.091786 2495.36701,313.091786 C2444.48088,313.091786 2394.77815,288.240421 2361.643,250.371675 L2404.24534,207.769335 C2421.99632,226.703708 2443.29749,256.288666 2495.36701,256.288666 C2548.61994,256.288666 2586.48868,239.72109 2586.48868,208.952733 C2586.48868,181.734571 2556.90373,177.000978 2495.36701,177.000978 C2424.36311,177.000978 2373.47699,153.333011 2373.47699,89.4295016 C2373.47699,36.1765767 2430.2801,0.67462673 2495.36701,0.67462673 C2539.15275,1.85802506 2579.38829,8.95841505 2621.99063,38.5433733 Z M3000.6781,70.4951283 L2889.43866,70.4951283 L2889.43866,305.991396 L2831.45214,305.991396 L2831.45214,70.4951283 L2724.94629,70.4951283 L2724.94629,11.3252117 L3000.6781,11.3252117 L3000.6781,70.4951283 Z" id="Shape"></path>
        </g>
    </g>
</svg>