<?xml version="1.0" encoding="UTF-8"?>
<svg width="435px" height="231px" viewBox="0 0 435 231" version="1.1" xmlns="http://www.w3.org/2000/svg" xmlns:xlink="http://www.w3.org/1999/xlink">
    <!-- Generator: Sketch 53.2 (72643) - https://sketchapp.com -->
    <title>Combined Shape</title>
    <desc>Created with Sketch.</desc>
    <g id="Page-1" stroke="none" stroke-width="1" fill="none" fill-rule="evenodd">
        <g id="tzsplit-horizontal" transform="translate(-1.000000, 0.000000)" fill="#FFFFFF" fill-rule="nonzero">
            <path d="M148.1265,126.8209 C148.1265,127.9039 149.8765,128.0709 149.3765,129.3199 C148.9595,129.6539 148.6265,129.4869 148.2095,129.7369 C145.0445,128.6539 141.7125,127.9039 138.4635,127.0709 C136.7965,126.2379 134.5475,126.4039 132.7985,125.5709 C129.2165,124.9049 125.8835,124.1549 122.2185,123.4889 C122.0515,123.5719 121.8015,123.4889 121.6355,123.4049 C115.9705,122.4889 110.3885,122.3219 104.6405,121.9889 C100.5585,121.4889 95.3105,121.8229 90.7285,121.6559 C89.2295,121.3229 87.4795,121.4059 85.9795,121.4059 C84.0645,121.0729 81.9815,121.3229 79.8985,121.1559 C78.8985,120.8229 77.8155,121.6559 76.8165,121.0729 C76.0665,121.3229 75.0665,121.0729 74.3175,121.1559 L74.7335,121.3229 C73.9005,121.4059 73.2345,121.4889 72.4845,121.2389 C69.9015,121.5729 66.9865,121.4059 64.3205,121.5729 L63.9035,121.8229 C60.7385,121.9889 57.8225,122.4059 54.6565,122.5719 C50.3245,123.2389 45.9095,123.9049 41.4945,124.4879 C38.8285,125.7379 35.1635,125.6549 32.4975,126.9879 C31.9145,126.6539 31.7475,127.4879 31.2475,127.1539 C28.9155,128.1539 26.5825,128.4869 24.2505,129.4039 C23.9165,129.4039 23.3335,129.4869 23.2505,129.7369 C20.2515,130.4029 17.4185,131.5699 14.5035,132.8189 C11.0045,133.8189 8.1715,136.1519 4.6725,137.1509 C4.7565,137.4009 4.5065,137.4009 4.4235,137.5679 C4.0895,137.3179 3.8395,137.7339 3.5895,137.7339 C2.8405,137.5679 1.5075,137.7339 1.2575,136.8179 C1.4245,136.2349 0.9245,135.5679 1.0075,134.9019 C1.6745,133.4019 3.0905,132.4029 4.4235,131.6529 C5.0065,131.4859 5.4225,131.1529 5.7565,130.8199 C5.8395,130.7359 5.9225,131.0699 6.0895,130.9029 C7.0895,130.5699 7.9215,129.6539 9.0045,129.7369 C9.4215,129.4869 9.7545,129.1539 10.1715,129.0699 L10.2545,129.0699 L10.1715,129.4039 C10.9215,129.2369 11.1715,128.4039 11.9205,128.7369 C12.1705,128.4039 12.9205,128.1539 13.4205,128.1539 C13.5865,127.8209 14.0865,127.6539 14.2535,127.9039 C14.8365,127.3209 15.7525,127.5709 16.2525,127.0709 C16.9195,126.9039 17.9185,126.6539 18.6685,126.3209 C20.1685,126.2379 21.0845,125.0719 22.5005,124.9879 C23.2505,125.1549 23.6665,124.4879 24.4165,124.6549 C25.0835,124.0719 26.1665,124.3219 26.9995,123.7389 L26.9995,123.8219 C27.4985,123.6549 27.8325,123.4889 28.4985,123.4889 C28.6655,123.0719 29.1655,123.4049 29.4985,123.1559 C30.3315,122.6559 31.2475,123.0719 32.1645,122.5719 L32.2475,122.6559 C32.4975,122.3219 32.9975,122.3219 33.4135,122.3219 C33.8305,122.5719 34.2465,121.9059 34.7465,122.0719 C35.4135,121.8229 36.0795,121.5729 36.7465,121.6559 C37.6625,121.4889 38.4955,121.0729 39.4955,121.0729 C40.4115,120.9899 41.1615,120.7399 42.0775,120.4059 C42.9105,120.5729 43.7435,119.9059 44.6605,119.8229 C45.6595,119.7399 46.6595,119.5729 47.6595,119.4069 C47.9095,119.2399 48.4085,119.1569 48.6585,119.3229 C49.4915,119.3229 50.2415,118.7399 51.0745,119.0729 C51.9075,118.9899 52.9075,118.9899 53.7405,118.6569 C54.2405,118.6569 55.0735,118.9069 55.2405,118.6569 C55.9895,118.8239 56.8225,118.5739 57.4055,118.4069 C58.1555,118.5739 58.9055,118.0739 59.5725,118.2399 C60.7385,117.8239 62.6545,118.3239 63.8205,117.7399 C64.6535,117.7399 65.4035,117.8239 66.0695,117.8239 C76.8165,116.9069 87.8965,117.5739 98.2265,117.8239 C100.8915,118.0739 103.3075,118.2399 105.7235,118.4069 C107.3065,118.5739 108.9725,118.4069 110.5555,118.9069 C111.0555,118.9899 111.7215,118.8239 111.9715,119.0729 C112.4715,118.8239 112.8875,119.4899 113.4715,119.0729 C113.3045,118.6569 113.7215,117.9069 113.1375,117.9069 C113.2215,117.9069 113.2215,117.8239 113.3045,117.8239 C112.2215,112.6589 111.3885,107.3269 110.2225,102.3289 C110.3885,101.4959 110.5555,100.4959 111.5555,100.1629 C112.5545,100.1629 113.5545,100.8289 114.1375,101.6619 C114.9705,106.0779 115.6375,110.5759 116.7205,114.8249 C117.2195,115.9909 117.2195,117.4069 117.8865,118.5739 C117.7195,118.8239 117.8865,119.2399 117.9695,119.6569 C118.4695,119.8229 119.0525,120.0729 119.5525,119.9059 L121.5515,120.4059 L121.6355,120.3229 C122.5515,120.7399 123.8845,120.5729 124.6345,121.2389 C125.4675,121.2389 126.2165,121.4889 126.9665,121.4059 C127.8835,121.6559 128.4665,122.0719 129.4665,122.0719 C129.9655,122.4059 130.5485,122.2389 131.1325,122.4059 C132.2155,122.8219 133.9645,122.7389 135.2145,123.4049 L135.6305,123.3219 L138.5465,123.9879 L138.5465,124.1549 C139.2125,124.3219 139.7125,124.2379 140.3795,124.5719 C140.8785,124.6549 141.3785,124.9049 142.0455,124.9049 C143.2945,125.2379 144.9605,125.6549 146.2105,126.3209 C146.8775,126.3209 147.3765,126.8209 148.1265,126.8209 Z M132.1315,118.6569 C129.6325,118.4899 127.2995,117.9069 125.0505,117.4909 C123.9675,117.4909 122.6345,116.9069 121.4685,116.8239 C121.2185,116.5739 120.8855,116.5739 120.6355,116.5739 C119.8855,115.9079 119.4695,114.9909 118.8025,114.0749 C118.9695,113.4079 119.8025,113.9919 120.3855,113.8249 C123.5515,113.9079 126.6335,114.5749 129.6325,115.3249 C129.9655,115.8239 130.7985,115.5739 130.8825,116.1579 C131.4655,116.4909 132.1315,116.9909 132.5485,117.4909 C132.5485,117.9899 132.3815,118.3239 132.1315,118.6569 Z M115.8035,87.6669 C115.5535,87.6669 115.9705,88.5829 115.2205,88.3329 C113.5545,87.9169 111.7215,87.0829 109.9725,86.4999 L109.9725,88.5829 C109.5555,88.6659 109.7225,89.8329 108.9725,89.3329 C108.8055,89.8329 108.3065,89.8329 107.8895,89.5829 C106.9735,88.3329 107.2235,86.4999 106.7235,85.2509 C104.3075,84.6679 101.8085,84.2509 99.3925,83.6679 C96.2265,83.4179 92.8115,82.8349 89.5625,83.1679 C85.3135,83.0849 81.4815,83.5849 77.4825,84.1679 C77.2325,84.6679 76.3995,84.0009 75.8165,84.4179 C71.4845,85.1679 67.7365,85.9169 63.6545,87.0829 C63.2375,87.6669 63.4045,88.4159 63.0705,89.0829 C62.6545,91.4149 62.4045,93.2479 61.4875,95.4139 C61.2385,95.3309 61.0715,94.9979 60.9885,94.6639 C60.8215,94.8309 60.8215,95.1639 60.6545,95.1639 C60.2385,94.7479 60.3215,93.9979 59.9885,93.4149 C60.0715,91.9149 60.1555,89.9159 60.3215,88.1669 C57.3225,88.7499 54.8235,90.0829 51.9075,91.1659 C51.8245,91.4149 51.6575,91.6649 51.4075,91.6649 C51.2415,91.6649 51.0745,91.4149 50.9915,91.6649 C50.2415,91.2489 48.9925,91.1659 49.2415,89.9159 C49.5755,89.2489 49.4085,88.1669 50.4915,88.0829 C51.0745,87.4169 51.9075,86.7499 52.9075,86.5839 C54.4065,85.7509 56.4065,85.0009 57.9895,84.1679 C58.6555,84.2509 59.0725,83.6679 59.6555,83.6679 C59.7385,83.5009 59.9055,83.4179 60.0715,83.5849 C60.7385,83.5009 61.2385,83.1679 61.3215,82.4179 C62.4045,78.0029 63.7375,73.8379 64.8205,69.5889 C65.1535,69.0059 65.4865,68.0899 66.1535,67.9229 C67.0695,68.1729 68.3195,68.6729 68.4855,69.7559 C68.8195,70.5889 68.1525,71.1719 67.9855,72.0049 C66.8195,74.5039 66.1535,77.3369 65.3205,80.0859 C65.0705,80.6689 64.8205,81.3349 64.7375,82.0019 L65.5705,81.9179 C71.4015,80.3359 76.6495,80.5019 82.7315,79.5029 C83.8975,79.4189 85.3965,79.3359 86.4795,79.5029 C86.0635,78.7529 85.3965,78.0859 85.7305,76.9199 L85.5635,76.4199 C85.6465,74.8369 85.6465,72.8379 85.7305,71.3389 L85.4805,70.8389 C84.9805,71.0049 84.9805,71.5879 84.4805,71.5049 C84.7305,70.5049 83.2305,70.8389 83.6475,69.8389 C83.3145,69.1729 83.3145,68.3389 83.4805,67.5899 C83.3975,66.5069 83.8145,65.0899 84.0645,63.8409 C84.8975,62.5079 84.6475,60.0919 86.7295,59.9249 C88.1465,60.0919 88.8125,61.3419 89.3125,62.2579 C89.4785,62.7579 89.3955,63.3409 89.7285,63.8409 C89.4785,67.7559 89.1455,71.5049 88.6455,75.4209 L87.8125,79.0859 C87.7295,79.3359 87.4795,79.3359 87.3965,79.5859 C92.8945,80.0859 98.5595,81.2519 103.8905,82.0849 C104.7235,82.3349 105.6405,82.5019 106.4735,82.6679 C106.0565,77.8359 105.7235,72.6709 105.3905,67.8399 C105.7235,67.1729 105.9735,66.0069 106.9735,66.0899 C108.0565,66.1729 108.8895,66.8399 109.4725,67.5899 C110.1385,71.0049 109.3895,74.2539 109.7225,77.6699 L109.8885,83.8349 C110.6385,84.1679 111.3055,84.5839 111.9715,85.0009 C111.8885,85.0839 111.8055,85.1679 111.9715,85.3339 C112.2215,85.1679 112.2215,85.0009 112.5545,85.1679 C112.6385,85.3339 112.7215,85.6669 113.1375,85.5839 L113.4715,85.5839 L113.3875,85.8339 C113.8875,86.1669 114.5545,86.6669 115.2205,86.7499 C115.4705,86.9999 115.3035,87.5829 115.8035,87.6669 Z M91.3115,65.7569 C91.2285,64.2569 91.4785,62.3409 92.6445,61.3419 C92.8945,60.5919 93.3945,59.6759 94.2275,59.4259 C95.1435,59.1759 95.7265,59.9249 96.3935,60.3419 C97.8095,62.4249 96.5595,65.5069 96.6435,67.5059 C96.5595,67.5059 96.4765,67.7559 96.5595,67.8399 C96.2265,68.4229 96.8095,69.5059 96.2265,70.1719 L96.3935,70.4219 C96.0605,71.7549 96.1435,73.3379 95.7265,74.6709 C95.5605,75.5039 95.4765,76.4199 94.7275,76.9199 C94.1445,77.0869 93.5605,77.3369 93.3945,76.5869 C93.4775,76.3369 93.3115,76.2539 93.1445,76.1699 C92.7275,72.9209 92.8945,69.5889 92.9775,66.1729 C92.3945,66.0069 91.9785,65.8399 91.3115,65.7569 Z M78.3155,60.9249 C78.7325,60.6749 79.3155,60.5919 79.7325,60.7589 C80.4815,61.0919 81.0645,61.6749 81.6485,62.1749 C82.5645,66.9229 81.1485,71.9219 80.8985,76.5869 C80.5655,77.0029 80.8985,77.8359 80.3985,78.1699 L80.3155,78.5859 C79.3985,78.5029 79.1485,77.7529 78.7325,77.0869 C78.3995,75.1709 78.2325,73.5879 78.2325,71.6719 L77.9825,71.7549 L76.8995,75.5869 C76.6495,76.8369 76.8995,78.4199 75.4005,78.8359 C74.4005,78.5859 74.1505,77.3369 73.5675,76.9199 C72.5675,73.0049 74.7335,69.6719 75.7335,65.9229 C76.3165,64.3409 77.0665,62.2579 78.3155,60.9249 Z M111.8885,58.8419 C111.2215,59.0089 112.1385,59.5919 111.6385,59.8419 C110.2225,59.2589 108.7225,59.3419 107.3895,59.3419 C107.3065,59.1759 106.9735,59.1759 106.8895,59.3419 C106.3905,59.2589 105.8065,59.2589 105.4735,58.9259 C105.0575,59.2589 104.9735,58.8419 104.4745,58.9259 C98.9755,58.1759 93.1445,58.4259 87.2295,58.6759 C85.8135,59.0089 84.5635,58.9259 83.1475,59.3419 C82.5645,59.3419 81.7315,59.4259 81.0645,59.5919 C78.3155,60.1749 75.7335,60.5919 73.1505,61.5919 C72.7345,64.0909 72.0675,66.3399 71.6515,68.7559 C71.4015,69.1729 71.2345,69.2559 70.8185,69.4219 L70.6515,68.8389 C70.4015,69.0059 70.0685,68.8389 70.1515,68.6729 C69.4025,66.8399 69.9015,64.9239 70.0685,63.0079 C69.3185,63.0909 68.5695,64.1739 67.5695,63.5909 C67.0695,64.0909 67.1525,63.2579 66.7365,63.1749 C66.6525,62.6749 66.6525,62.1749 66.9865,61.9249 C66.9865,60.5919 68.1525,60.2589 68.7355,59.0919 L70.8185,58.0089 C72.7345,50.8449 75.4835,43.8469 78.8985,37.3489 C79.2325,36.6829 80.0655,36.5159 80.7315,36.3499 C81.4815,36.2659 81.5645,37.3489 82.3145,37.2659 C82.5645,37.7659 82.9805,38.1819 82.6475,38.8489 C80.6485,40.7649 79.8155,43.1809 78.7325,45.6799 C77.9825,46.1799 78.0655,47.3459 77.4825,47.8459 C76.8165,50.0119 75.8995,52.1779 75.2335,54.2599 C75.0665,54.9269 74.6505,55.5939 74.6505,56.3429 C79.5655,55.0939 84.3135,54.9269 89.4785,54.6769 C89.6455,54.4269 90.0625,54.5939 90.3115,54.6769 C91.7285,54.7599 93.2275,54.3439 94.4775,54.8439 C96.3935,54.8439 98.0595,54.9269 99.8925,55.1769 C100.3085,55.2599 100.8085,55.3439 101.3085,55.2599 L101.3915,55.1769 C101.8085,55.4269 102.4745,55.4269 103.0575,55.5939 C103.2245,55.1769 103.8075,55.3439 104.1405,55.4269 C104.3075,55.4269 104.5575,55.6769 104.7235,55.4269 C105.1405,54.3439 104.7235,53.3439 104.8905,52.2609 C105.3905,50.5949 104.7235,48.0959 104.9735,46.1799 C105.3075,46.0959 105.3905,45.7629 105.8065,46.0959 L105.9735,45.9299 L105.6405,45.7629 C106.0565,45.4299 106.3065,46.0129 106.6405,46.1799 C107.1395,46.7629 106.9735,47.4289 106.8895,48.0959 C107.4735,50.3449 107.8895,52.7609 108.1395,55.0939 L108.3065,55.1769 C108.0565,55.4269 108.4725,55.6769 108.3895,55.9269 C108.2225,56.4269 108.7225,56.5099 108.6395,56.9259 C108.5565,56.9259 108.4725,57.0099 108.3895,56.9259 L108.3065,57.0099 C108.9725,57.2599 109.4725,57.0929 109.8055,57.5929 L109.8055,57.4259 C110.3885,57.9259 111.3885,58.1759 111.8885,58.8419 Z M93.1445,41.3479 C92.9775,40.1819 91.8115,39.1819 92.1445,37.9319 C91.9785,36.3499 92.6445,35.0169 93.1445,33.5169 C93.6445,32.8509 94.4775,32.6839 95.2265,32.8509 L96.7265,34.3499 C98.0595,36.8489 96.7265,39.4319 96.7265,42.0979 C96.0605,44.8469 95.9765,48.2619 94.8935,50.9279 C94.3105,51.6779 94.0605,50.5949 93.4775,50.8449 C92.9775,50.2619 92.9775,49.4289 92.8945,48.6789 C92.8945,46.0959 93.3115,43.8469 93.1445,41.3479 Z M85.6465,46.6799 C84.3975,49.1789 84.1475,52.0109 82.9805,54.4269 C82.4815,54.3439 82.2315,55.1769 81.8145,54.6769 C81.8145,53.8439 80.8985,53.6769 80.8155,52.9279 C80.3985,50.2619 81.3985,47.5959 81.9815,45.2629 C83.0645,43.2639 83.7305,41.0979 84.8975,39.0989 C85.3965,37.6819 85.9795,36.5159 86.4795,35.2669 C87.2295,34.8499 87.8125,33.6839 88.7295,34.5999 C89.8125,35.0169 90.4785,35.9329 90.6455,37.1829 C90.3115,40.9309 89.0625,44.5969 88.2295,48.3459 C87.7295,48.8459 88.0625,49.8449 87.7295,50.4279 C87.3125,51.0119 87.7295,52.3449 86.7295,52.3449 C85.1465,50.9279 86.1465,48.4289 85.6465,46.6799 Z M109.3055,30.2679 C108.9725,30.3509 109.1395,30.9349 108.9725,31.1009 C107.7225,31.0179 106.9735,29.6019 105.8905,29.1849 C102.6415,27.3519 99.1425,27.7689 95.4765,27.8519 C90.6455,28.1849 85.9795,30.4349 82.4815,33.4339 C81.7315,33.2669 80.4815,33.9339 80.1485,32.8509 C80.0655,31.6839 79.7325,30.4349 80.6485,29.6849 C83.2305,27.8519 86.0635,26.4359 89.1455,25.3529 C89.8125,25.2699 90.3115,25.1029 90.9785,24.9359 C91.8115,23.3539 92.8945,21.6039 93.5605,19.9379 L93.5605,19.6049 C94.0605,19.6879 94.0605,19.1049 94.4775,18.9379 C94.9775,19.1049 95.1435,19.5209 95.6435,19.6049 C95.4765,20.8539 94.8935,22.6039 95.1435,24.1869 C96.5595,24.1029 97.8925,23.9369 99.3085,24.1029 C101.3915,24.7699 103.7245,24.6029 105.6405,25.6859 C106.8895,27.1029 109.8055,27.6019 109.3055,30.2679 Z M106.1405,25.9359 L105.9735,25.8529 L106.2235,25.9359 L106.1405,25.9359 Z M101.7245,14.2729 C101.3085,14.1069 101.1415,14.6899 100.8085,14.2729 C100.8085,13.7729 100.3925,13.6899 100.3925,13.1899 C99.8085,11.1909 99.8085,9.1919 100.2255,7.1919 C100.0585,6.9419 100.1425,6.8589 99.8925,6.6919 C96.8095,9.4409 93.7275,12.9399 91.6445,16.6889 C91.5615,17.4389 90.8115,18.1889 91.3945,18.8549 C90.8955,19.0219 90.9785,20.0209 90.1455,19.7709 C89.5625,19.6879 89.2295,19.4379 88.8125,19.0219 C88.8125,18.3549 88.5625,17.7719 88.2295,17.1889 C88.3955,15.6059 88.9795,13.9399 90.1455,12.7739 C91.6445,10.6079 92.8115,8.3579 94.7275,6.2759 C95.6435,5.5259 96.3935,4.6099 97.1435,3.8599 C97.0595,3.6929 97.3095,3.6099 97.4765,3.6099 C98.0595,2.7769 98.5595,2.2769 99.3925,1.6109 L99.2255,1.4439 C99.5585,1.4439 99.8925,1.1109 99.8925,0.8609 L99.9755,0.9439 L100.3925,0.3609 L101.8915,0.6109 C102.6415,2.6939 103.7245,4.5259 103.6405,6.8589 C103.0575,9.3579 102.8075,12.0239 101.7245,14.2729 Z M96.6435,95.8309 C96.2265,96.2469 96.4765,97.1639 96.0605,97.8299 L95.5605,98.5799 C95.1435,98.6629 94.8105,97.9969 94.3935,98.4129 C93.7275,98.4129 93.0615,98.2469 92.7275,97.6629 C91.9785,94.1649 93.7275,91.3319 95.2265,88.3329 C95.8935,87.9169 96.3105,87.0829 97.2265,87.0829 C97.9765,87.5829 99.0595,87.3329 99.4755,88.3329 C101.2255,91.7489 100.1425,95.2479 100.3925,99.0799 C99.9755,101.4119 100.1425,104.1609 99.3085,106.5769 C98.8925,106.8269 98.1425,107.6599 97.6425,107.0769 C97.5595,106.9109 97.3935,106.8269 97.3095,106.8269 L97.2265,106.9109 L96.9765,106.4939 C96.1435,102.9949 96.9765,99.0799 96.6435,95.8309 Z M50.3245,112.0759 C50.3245,110.9089 50.7415,109.9929 50.9085,108.9099 C50.6585,108.7429 50.9915,108.3269 50.9085,108.1599 C51.6575,103.3279 52.4075,97.7469 53.5745,92.8319 C53.9905,91.8319 54.3235,90.4989 55.4065,90.1659 C55.9065,90.2489 56.1565,90.8319 56.8225,90.6659 C57.3225,90.9159 57.3225,91.4149 57.4065,91.8319 C55.0735,97.9969 54.4075,104.9109 54.1575,111.4929 C55.4065,111.8259 56.1565,110.9929 57.4065,111.3259 C58.3225,110.9929 59.5725,110.9089 60.6545,110.9089 C61.1545,110.4099 61.6545,111.1589 62.1545,110.6599 C62.6545,111.0759 63.2375,110.2429 63.9035,110.6599 C64.0705,110.4099 64.4035,110.4099 64.6535,110.5759 L66.1535,110.3259 C66.1535,108.5769 65.9865,106.9939 66.4865,105.4109 C67.3195,101.5789 68.3195,97.6629 69.9855,94.1649 C70.7345,92.0819 71.6515,90.4989 72.1515,88.3329 C72.9015,88.1669 72.8175,87.3329 73.6505,87.5829 C74.3175,87.4169 74.1505,88.2499 74.6505,88.1669 C75.8165,88.5829 75.8995,90.0829 76.0665,91.1659 C75.3165,95.9969 74.7335,100.6629 73.9005,105.4109 C73.9005,106.9939 73.5675,108.0769 73.6505,109.6599 C73.5675,109.7429 73.4845,109.7429 73.4015,109.8259 C75.3165,109.9099 77.2325,109.9929 79.3155,109.8259 C79.5655,109.3259 79.4815,108.5769 79.5655,107.9939 C79.2325,106.9109 79.8155,105.6609 79.3985,104.5779 C79.7315,103.6619 79.3985,102.1619 79.7315,101.1619 C79.3985,100.9129 79.8155,100.4959 79.5655,100.1629 C79.0655,100.3289 78.9825,101.3289 78.2325,101.3289 C77.9825,100.8289 78.0655,100.2459 77.3995,100.1629 C77.6495,99.8299 77.0665,99.4129 77.1495,98.9129 C77.6495,96.5809 77.8155,93.8319 78.4825,91.4989 C79.2325,89.8329 79.3155,87.4999 81.2315,86.8339 C82.2305,86.8339 82.7305,87.7499 83.4805,88.1669 C84.5635,90.8319 83.7305,93.9149 83.4805,96.6639 C83.3975,97.3299 83.3975,98.0799 83.0645,98.6629 C82.8145,102.0789 82.3145,105.0779 82.1475,108.4099 C82.2305,108.9929 81.4815,109.7429 82.1475,109.9099 C84.0635,109.8259 86.0635,109.9099 87.8125,109.9099 C87.7295,109.6599 87.7295,109.3259 87.4795,109.0769 C87.2295,105.4939 87.5625,102.1619 87.8125,98.6629 C87.1465,99.5799 86.5635,100.9129 86.1465,101.9959 L85.4805,102.3289 C85.7305,101.6619 84.7305,101.9959 84.7305,101.4119 C83.8135,100.5789 84.4805,98.9129 84.6475,97.8299 C84.8975,96.7469 85.4805,95.6639 85.3135,94.5809 L85.6465,94.4149 C85.9795,92.2489 87.1465,90.1659 88.2295,88.3329 C88.8125,87.7499 89.4785,87.3329 90.2285,87.4999 C90.8955,88.1669 92.2285,88.4999 92.1445,89.8329 C92.3945,91.6649 91.9785,93.9979 91.9785,95.8309 C91.6445,96.5809 91.8115,97.4139 91.6445,98.1629 C90.9785,101.4959 90.9785,105.1609 89.8955,108.2439 C90.1455,108.9929 89.3125,109.3259 89.3125,110.0759 C89.7285,110.1599 90.1455,110.6599 90.5615,110.2429 C93.1445,110.2429 95.3935,110.8259 98.1425,110.9089 C100.0585,110.9929 101.6415,111.7419 103.4745,112.0759 C103.9745,112.0759 104.7235,112.6589 105.1405,112.3259 C105.6965,112.8819 106.5495,112.5519 107.2065,113.0229 C107.1555,113.2889 106.6525,113.0919 106.8895,113.4089 C106.9735,113.5749 107.2235,113.4089 107.3895,113.5749 C105.0575,113.5749 102.6415,113.4089 100.4755,113.2419 C99.6425,113.3259 98.8095,112.9919 97.8925,112.9089 L97.8925,113.0759 C97.3935,112.5759 96.8095,113.3259 96.3935,112.8259 C95.6435,113.0759 94.4775,112.4919 93.8945,112.7419 C91.8115,112.4089 89.0625,112.4919 86.8135,112.3259 C84.3975,112.3259 82.3145,111.9919 79.8985,112.2419 C79.3985,111.9919 78.8985,112.4089 78.3155,112.3259 C77.0665,112.4919 75.8995,111.9919 74.9005,112.4089 C73.7345,112.1589 71.9015,112.8259 70.4855,112.5759 C67.9855,113.1589 65.1535,112.9089 62.7375,113.2419 C58.5725,113.9089 54.4075,114.4919 50.3245,115.4079 C49.7415,115.9909 48.8255,115.5749 48.0755,115.9909 C47.5365,116.0809 46.9975,116.1469 46.4835,116.2269 L46.4755,116.2269 C46.0405,116.2979 45.6245,116.3769 45.2435,116.4909 C44.9105,116.4909 44.3265,116.4079 43.9105,116.6579 L43.9105,116.8239 C42.4945,116.7409 41.3275,117.7409 39.9115,117.6569 C36.4125,118.4069 33.5805,119.2399 30.4145,120.2399 C29.0815,120.4899 27.6655,120.9899 26.6655,121.4059 C23.7505,122.7389 20.5845,123.0719 17.5855,124.4049 C15.5865,125.0719 13.5035,125.5709 11.2545,125.6549 C10.1715,125.4049 10.3375,124.4049 10.0045,123.4889 C13.6705,120.7399 18.5015,119.4069 23.0005,117.8239 C24.9585,117.2799 26.8625,116.7359 28.7665,116.2209 L28.7825,116.2209 C32.7055,115.1559 36.6235,114.2189 40.9945,113.6589 C44.0765,112.9089 47.2425,112.7419 50.3245,112.0759 Z M69.4855,108.8269 C69.5685,109.1599 69.3185,109.8259 69.4855,110.0759 L70.7345,109.9929 C71.3185,109.6599 71.9845,110.1599 72.7345,109.9099 C72.0675,109.4099 71.8185,108.3269 71.7345,107.4099 C71.0685,106.8269 71.5685,105.3279 71.7345,104.5779 C71.2345,103.0789 71.8185,101.4119 71.6515,99.7459 C70.6515,102.3289 70.1515,104.9109 69.7355,107.5769 C69.9855,108.0769 69.4025,108.2439 69.4855,108.8269 Z M107.7225,113.0759 L107.7225,113.2419 C107.5875,113.2419 107.4175,113.2079 107.3065,113.0759 L107.7225,113.0759 Z M8.4215,150.8129 L8.2555,150.6469 L8.3385,150.6469 L8.3385,150.3969 L8.2555,150.3969 C8.6715,150.3139 8.3385,149.8969 8.4215,149.5639 C8.1715,149.3969 8.6715,149.2309 8.6715,148.8969 C9.5885,144.1489 12.2535,139.9829 14.7535,136.1519 C16.9195,134.3189 20.0845,132.5689 23.0005,133.9019 C23.9165,134.1519 24.5005,134.8179 25.2495,135.4019 L25.1665,135.4019 L24.9995,135.4849 C25.0835,135.5679 25.2495,135.5679 25.2495,135.5679 C25.5825,136.2349 26.3325,137.4009 26.4995,138.3169 C26.9995,138.4009 26.5825,138.8999 26.9155,139.1499 C27.1655,139.5669 26.9995,139.9829 27.2495,140.3169 C27.5825,142.3159 27.6655,144.8149 26.9995,146.8149 C26.6655,147.3139 25.9995,146.9809 25.5825,146.7309 C25.3335,146.2309 24.8335,145.9819 24.6665,145.3979 C24.8335,142.7329 25.6665,139.4839 24.0835,137.4009 C23.9165,136.3179 22.8335,135.9019 22.0005,135.5679 C21.3345,135.6519 20.5845,135.9019 20.0845,136.3179 C18.9185,136.6509 18.3355,137.9009 17.4185,138.8169 C15.8365,141.0659 14.5865,143.5659 13.5035,146.0649 L13.5035,146.5649 C13.1705,146.7309 13.0865,147.4809 13.0865,147.8979 C12.5035,148.3969 12.8365,149.1469 12.4205,149.5639 C12.4205,150.1469 12.0875,150.7299 11.7545,150.9799 L11.2545,152.6459 L9.8385,152.8129 C9.4215,151.8959 7.5055,152.0629 8.4215,150.8129 Z M20.4175,152.7289 C21.2505,150.9799 23.1675,150.1469 24.7495,149.2309 C28.0825,148.1479 31.9975,146.4809 35.6635,147.8979 C36.1625,148.2309 36.5795,148.8139 36.4965,149.3969 C36.1625,151.3129 33.9135,150.3969 32.5805,150.8129 C29.8315,151.0629 27.3325,152.4799 24.7495,153.1459 C23.6665,153.6459 22.3345,154.8119 21.1675,153.8129 C20.6675,153.4789 20.9175,152.8959 20.4175,152.7289 Z M31.6645,204.9629 C32.8305,204.7959 33.2475,205.7959 34.1635,206.2959 C34.3305,206.7959 33.4135,207.1289 32.9135,207.2959 C30.4975,208.4619 27.1655,208.7949 24.5005,207.5449 L23.6665,206.5459 C23.8335,205.5459 23.0835,204.3799 23.9165,203.7129 C24.2505,203.3799 24.6665,203.5469 24.9165,203.1299 C26.4995,205.1299 29.3315,204.7959 31.6645,204.9629 Z M27.7485,180.3869 C28.1655,180.8039 27.5825,181.2199 27.2495,181.3869 C26.6655,181.3039 25.8325,181.2199 25.7495,180.5539 C25.6665,179.8039 25.8325,179.2209 25.4165,178.6379 C24.8335,170.8069 24.9995,163.0599 25.7495,155.3119 C26.2495,154.3959 27.2495,154.9789 27.9985,155.0619 L28.3325,155.4789 C28.6655,159.8109 27.9155,164.3929 27.9985,168.5579 C27.9155,172.3069 28.1655,176.8049 27.9985,180.3039 L27.7485,180.3869 Z M34.9135,195.4659 C35.0795,196.7159 34.6635,197.8819 34.4135,199.0479 C34.0805,199.4649 33.4975,199.6309 32.9135,199.5479 L32.6645,199.2979 C32.6645,197.3819 31.9975,195.8819 31.7475,194.1329 C31.2475,182.2199 30.9975,169.5569 31.6645,157.1449 C31.6645,156.2279 31.9145,154.9789 31.9145,153.9789 C32.5805,153.4789 31.3315,153.2289 31.9975,152.7289 C32.5805,152.2299 34.1635,152.4799 34.1635,153.4789 C34.1635,156.7279 34.2465,159.6439 34.2465,162.8929 L34.4135,163.0599 C33.9135,164.1429 34.3305,165.2259 34.1635,166.5579 C34.2465,171.3899 34.1635,176.4719 34.4135,181.2199 C34.3305,183.6359 34.6635,186.8849 34.4965,189.2179 C34.9135,191.0509 34.8295,193.4659 34.9135,195.4659 Z M23.5005,224.5399 C24.2505,223.7069 25.0835,224.8729 25.8325,224.8729 C28.8315,225.2899 31.4975,225.7899 34.6635,226.0399 C35.5795,226.1229 36.3295,226.1229 37.3295,226.2899 L39.4115,226.5389 C41.6615,226.4559 43.5775,226.6229 45.8265,226.6229 C48.4085,227.0389 51.4915,227.0389 54.1575,227.1229 L55.9895,227.0389 C56.9895,227.1229 57.9895,226.9559 58.9885,227.2059 C60.4055,227.0389 61.7375,227.1229 63.0705,227.0389 C66.5695,226.9559 70.4015,227.1229 73.9835,226.6229 C75.4005,226.7059 76.8165,226.2899 78.2325,226.2899 C81.9815,226.2059 86.0635,225.6229 89.3955,225.2059 C96.6435,224.1239 104.4745,222.4569 111.8055,221.0409 C115.9705,219.9579 120.4685,218.7079 124.6345,217.5419 C126.0505,216.8759 127.6335,216.8759 128.9665,216.1259 C130.9655,215.5429 133.1315,214.4599 135.2145,213.7099 C136.4635,213.4599 137.6305,213.0439 138.7125,212.5439 C139.6295,212.7939 138.7965,213.2939 138.7125,213.7939 C135.7135,215.2099 132.3815,216.5419 129.3825,217.7089 L128.8825,218.0419 L128.7165,217.8759 C128.2165,218.3749 127.7995,218.4589 127.1335,218.6249 C126.0505,219.1249 124.8005,219.5419 123.6345,220.0419 C123.2175,219.7079 122.9675,220.2079 122.6345,220.1249 C122.3015,220.7079 121.4685,220.2079 121.1355,220.8739 C120.6355,221.2909 119.7185,221.0409 119.2195,221.5409 C118.8025,221.5409 117.9695,221.9579 117.4695,222.1239 C116.7205,222.2079 115.9705,222.4569 115.2205,222.7909 C114.2205,222.7909 113.3045,223.2069 112.3045,223.3739 C109.9725,224.4569 107.0565,224.7069 104.6405,225.4559 C104.1405,225.2899 103.7245,226.0399 103.1415,225.7059 C102.7245,226.3729 101.6415,225.7899 101.2255,226.4559 C100.3925,226.7889 99.6425,226.2899 98.8925,226.9559 C98.2265,226.7059 97.4765,227.2059 96.8095,227.3729 C94.9775,227.6219 93.3945,227.9559 91.5615,227.9559 C91.4785,228.2889 90.8955,228.1219 90.6455,228.2889 C89.8955,228.2889 89.2295,228.4549 88.3955,228.5389 C87.6465,228.2059 86.8135,228.9549 86.1465,228.7049 C84.1475,229.3719 81.8145,229.2889 79.7325,229.7049 C79.8155,229.6219 79.7325,229.5379 79.6485,229.5379 C79.5655,230.0379 79.0655,229.4549 78.7325,229.7879 C78.3155,229.8719 77.7325,230.0379 77.2325,229.8719 C76.6495,229.8719 75.8995,230.3709 75.2335,230.0379 C73.4005,230.3709 71.6515,230.1219 69.8185,230.2049 L69.7355,230.3709 L67.9025,230.3709 C67.3195,230.4549 66.7365,230.4549 66.1535,230.2879 C65.5705,230.2879 65.1535,230.7879 64.6535,230.2879 C60.9045,230.6209 57.4055,230.4549 53.9075,230.5379 C53.5735,230.2049 53.1575,230.4549 52.9075,230.2879 C52.6575,230.4549 52.4905,230.2049 52.2405,230.3709 C51.4075,230.2879 50.3245,230.3709 49.6585,230.3709 C49.6585,230.2879 49.5755,230.2879 49.4915,230.2049 L49.4085,230.3709 C47.0765,230.2879 44.4935,230.0379 42.1605,229.6219 C41.9945,229.8719 41.7445,229.4549 41.4945,229.5379 L41.4945,229.4549 C40.3285,229.3719 38.8285,229.4549 37.4955,229.0389 C37.2455,229.1219 36.8295,229.1219 36.6625,228.8719 C32.6645,228.8719 29.2485,227.8719 25.4995,227.1229 C24.9165,226.2059 23.0005,226.0399 23.5005,224.5399 Z M139.9625,187.6349 C139.3795,187.5519 138.6295,187.3849 138.6295,186.6349 C139.7125,180.8039 139.7955,174.4729 140.4625,168.6409 C140.2125,166.8079 140.5455,165.4749 140.7125,163.6429 C140.7125,161.1429 141.0455,158.8939 140.9625,156.3119 C141.8785,155.1449 143.2945,156.3949 143.6275,157.3109 C144.7945,160.7269 143.8775,165.2259 143.7945,169.0579 C143.4615,175.3059 142.2115,180.9709 141.1285,187.1349 C140.8785,187.5519 140.2955,187.5519 139.9625,187.6349 Z M128.6325,147.3979 L129.6325,148.6469 C129.9655,149.1469 129.4665,149.6469 129.3825,150.1469 C128.7995,150.6469 128.0495,150.5629 127.4665,150.3969 C127.5495,150.1469 127.2165,149.8969 126.9665,149.8969 C123.6345,149.6469 120.0525,150.3139 116.8865,149.1469 C116.2205,148.6469 116.3865,147.8139 115.8875,147.1479 C115.6375,146.4809 116.3035,146.2309 116.7205,146.0649 C120.8025,145.0649 125.2175,145.4819 128.6325,147.3979 Z M101.0585,138.5669 C102.1415,134.5689 103.9745,129.9869 107.8895,128.1539 C109.8885,127.4039 112.0545,126.5709 114.1375,127.3209 L115.3035,127.5709 C119.3855,129.7369 120.8025,134.3189 121.2185,138.6509 C121.3015,139.5669 121.3855,140.4829 121.4685,141.4829 C121.0525,142.3989 119.9685,142.2329 119.1355,142.6489 C118.6365,142.7329 118.0525,142.3159 117.6365,142.6489 L117.7195,142.5659 C115.3875,141.1499 116.3035,137.8179 115.7205,135.3179 C115.4705,133.2359 114.9705,130.8199 113.1375,129.5699 C111.2215,129.3199 109.8055,129.8199 108.3895,130.4029 C108.2225,130.5699 107.9725,130.6529 108.0565,130.9029 C106.9735,131.3199 106.1405,132.4859 105.4735,133.4019 C103.9745,135.7349 103.1415,138.5669 102.3085,141.1499 C101.8915,141.4829 101.3085,141.2329 100.9755,141.3159 C99.4755,140.7329 101.2255,139.5669 101.0585,138.5669 Z M90.0625,144.0639 C93.0615,143.7319 95.8105,143.1499 98.9755,143.5649 C100.9755,143.9809 102.8075,144.5629 103.8075,146.3919 C104.5575,147.4729 105.2235,149.1359 104.6405,150.3829 C103.9745,150.9649 103.1415,151.2139 102.2245,151.1309 C102.0585,150.6319 101.2255,150.7149 101.1415,150.0499 L100.8085,149.9669 C101.0585,149.7179 100.5585,149.3849 100.6415,149.1359 C100.3085,149.0529 99.9755,148.8859 99.8085,148.5539 C96.4765,146.6419 92.4775,146.3919 88.6455,147.0569 C87.7295,146.9739 87.9795,146.1429 87.6465,145.6439 C87.8965,144.6459 89.1455,144.4799 90.0625,144.0639 Z M100.4755,202.7969 C100.7255,203.2139 100.8085,203.7969 100.3925,204.2129 C98.6425,206.6289 95.3935,207.7119 92.6445,208.2949 C90.3955,208.7949 87.7295,209.3779 85.2305,209.2949 C83.2305,209.2119 80.6485,209.2949 78.7325,209.3779 C76.2335,209.0449 73.4005,209.2119 70.9015,208.5449 C69.6525,207.9619 67.5695,208.2119 67.2365,206.5459 C67.0695,205.7959 67.9025,206.0459 68.2355,205.8789 C68.4025,205.6289 68.4855,205.9629 68.6525,206.0459 C71.1515,205.5459 73.5675,206.2129 76.1495,205.9629 C82.5645,205.7959 89.0625,205.2129 94.8935,203.3799 L99.2255,202.2139 C99.7255,202.2139 100.1425,202.5469 100.4755,202.7969 Z M78.4825,200.0479 C79.8155,199.8809 80.0655,200.0479 81.3145,199.8809 L83.6475,199.4649 C83.8975,199.5479 84.1475,199.6309 84.3975,199.4649 C84.3975,199.1319 85.2305,199.2979 85.6465,199.1319 C86.5635,198.9649 87.2295,198.6319 88.2295,198.5479 L88.3955,198.7979 C88.1465,199.7979 87.1465,200.1309 86.5635,200.7979 C84.3135,202.4639 81.8145,202.2969 78.9825,202.8799 C77.7325,202.8799 76.5665,202.4639 75.4835,202.6299 C74.1505,202.0469 71.8185,202.3799 71.4845,200.6309 C71.6515,200.1309 71.7345,199.5479 72.4015,199.7979 C72.6515,200.1309 73.3175,199.7979 73.7345,200.1309 C74.9835,200.5479 76.1495,199.8809 77.3165,200.2979 C77.5665,199.4649 78.1495,200.4639 78.5655,200.1309 L78.4825,200.0479 Z M72.6515,199.8809 C72.5675,199.8809 72.4845,199.7979 72.4015,199.7979 L72.6515,199.8809 Z M60.8215,150.8129 C63.4875,149.3139 67.5695,148.0639 70.2355,150.2299 C70.6515,150.4799 70.9845,150.8129 71.0685,151.2299 C70.9015,151.8959 70.4015,152.4799 69.8185,152.9789 C69.0685,153.0629 68.0695,153.4789 67.4865,153.2289 C65.4035,153.2289 63.1545,153.8129 61.1545,153.0629 C60.4055,152.3959 60.8215,151.5629 60.8215,150.8129 Z M56.6565,166.8079 C56.8225,163.1429 57.0725,158.7279 57.3225,155.3119 C58.1555,154.8949 58.9055,154.7289 59.9055,154.9789 L60.6545,155.8949 C60.9045,156.7279 60.9885,157.6449 60.9045,158.3939 C60.9045,167.3909 60.5715,177.0549 60.5715,186.1349 C60.8215,187.8849 60.3215,190.0509 60.8215,191.7999 C60.4885,192.6339 61.0715,193.5499 60.9045,194.2999 C60.9045,195.6319 61.1545,196.7989 61.0715,198.0479 L61.2385,198.1319 C60.9045,198.7149 61.0715,199.9639 60.2385,200.0479 C60.4055,200.3809 59.9885,200.2139 59.9055,200.4639 C59.7385,200.8809 59.3225,201.0469 58.9885,201.2969 C58.5725,201.5469 58.0725,201.2139 57.7395,201.1309 C57.1565,199.7149 57.0725,198.1319 56.9895,196.6319 C55.8235,186.6349 56.4065,177.2219 56.6565,166.8079 Z M67.6525,184.3859 C67.7365,185.3859 67.4865,186.5519 67.5695,187.4679 C67.6525,188.4679 66.6525,188.5509 66.8195,189.4679 C66.2365,189.7179 65.1535,190.1339 64.5705,189.5509 C63.4045,185.9689 64.0705,181.8869 63.9875,178.3049 C64.2375,171.7229 64.1535,163.7259 64.9865,156.8949 C65.1535,156.2279 65.5705,155.6449 66.2365,155.4789 C66.9025,155.4789 67.4025,155.5619 67.9025,155.8949 C69.4025,159.9769 68.1525,164.2259 68.4025,168.5579 C68.0695,168.7239 68.4855,168.8909 68.4025,169.1409 C68.4025,171.4729 67.9855,173.7229 67.9855,176.1389 C67.9025,178.8879 67.6525,181.8029 67.6525,184.3859 Z M53.8245,202.2969 C55.8235,202.2139 57.7395,202.2969 59.7385,202.2969 C59.9055,202.4639 60.0715,202.0469 60.2385,202.2139 C62.2375,202.1299 64.2375,201.6309 65.9865,201.2969 C66.7365,201.4639 67.4865,201.9639 67.6525,202.5469 C66.6525,204.8799 64.4035,206.2129 61.8215,206.3789 C59.2385,206.5459 57.1565,205.8789 54.9065,205.1299 C54.3235,204.8799 53.6575,204.4629 53.4075,203.8799 C52.9905,203.1299 54.1575,203.1299 53.8245,202.2969 Z M90.5615,151.6469 C89.8955,151.3969 89.3955,151.3129 88.9795,150.6469 L89.1455,149.0639 C91.8115,148.3969 95.5605,147.8139 97.3935,150.3139 C97.4765,150.8129 97.1435,150.9799 96.8935,151.1469 C95.8935,151.0629 95.1435,151.6469 94.1445,151.6469 L93.8945,151.8959 L93.6445,155.6449 C93.3945,155.8119 93.6445,156.1449 93.6445,156.3949 C93.3115,161.7269 93.1445,167.3079 92.8945,172.8059 C92.3945,173.8059 92.8945,175.1389 92.6445,176.3049 C92.4775,182.7199 92.0615,189.2179 91.8115,195.6319 C91.2285,196.2989 92.0615,197.7149 90.8115,197.7149 C90.3115,197.6319 90.0625,197.2989 89.7285,197.0489 L89.6455,196.7989 L89.7285,196.9649 C90.2285,196.8819 89.4785,196.3819 89.6455,196.2159 L89.7285,196.2159 C89.8125,195.8819 89.3125,195.6319 89.3955,195.4659 C89.4785,195.4659 89.5625,195.3829 89.6455,195.3829 C89.5625,195.2159 89.1455,194.6329 89.3125,194.1329 C88.9795,194.0499 89.1455,193.7999 88.7295,193.7999 C86.3135,194.1329 84.0645,194.7989 81.6485,195.0489 C80.0655,194.8829 78.2325,195.4659 76.6495,195.2989 C76.2335,195.4659 75.5665,195.2159 75.2335,195.6319 C73.3175,195.0489 70.8185,195.7159 69.7355,193.5499 C69.8185,192.4669 71.0685,192.9669 71.6515,192.6339 C77.0665,192.6339 82.3145,192.1339 87.4795,191.3009 L89.3955,191.2169 C89.3955,188.8849 89.2295,186.3849 89.3955,183.9689 C88.3955,183.4699 87.2295,184.2189 86.0635,184.1359 C84.5635,184.5529 82.9805,184.1359 81.4815,184.3859 C79.1485,184.0529 76.8165,184.6359 74.5675,184.5529 C73.7345,184.3029 73.0675,183.7199 73.0675,182.7199 L73.2345,182.1369 C76.0665,181.8029 79.1485,182.2199 81.8975,181.8029 C84.3135,181.8869 86.8965,181.1369 89.3125,180.8869 C89.7285,179.6379 89.3955,178.5549 89.5625,177.1379 C89.7285,168.8909 90.3955,159.3939 90.5615,151.6469 Z M100.5585,160.8099 L100.4755,160.8099 C100.4755,161.4769 100.2255,162.1429 100.4755,162.8099 C100.3085,163.2259 99.9755,164.1429 100.2255,164.8089 L100.3085,164.8089 C99.7255,165.4749 100.4755,166.4749 99.8925,167.3079 C100.2255,168.1409 99.5585,169.0579 99.8925,169.8069 C99.3925,172.5569 99.3085,175.2219 99.3085,177.9709 C99.3085,178.8879 98.7255,180.1369 99.0595,181.0539 C98.7255,181.3869 99.0595,181.7199 98.9755,182.0529 C98.6425,183.3859 99.2255,184.5529 98.7255,185.8859 L98.8925,186.4689 C98.5595,188.6349 98.8095,191.0509 98.4755,193.0499 C98.4755,194.3829 98.5595,195.8819 98.3095,197.1319 C98.6425,197.7149 98.2265,198.3819 98.4755,199.0479 C98.4755,199.5479 97.8925,199.8809 97.5595,200.2979 C97.0595,200.3809 96.6435,200.5479 96.1435,200.2979 C95.3105,197.7149 95.7265,194.4659 95.5605,191.7999 C95.5605,186.9689 95.5605,182.3869 95.7265,177.4719 C96.1435,169.6409 96.3935,161.7269 96.9765,153.9789 C97.2265,153.4789 97.3935,152.8129 98.0595,152.7289 C98.5595,152.8129 98.8925,153.1459 99.1425,153.3959 L99.2255,153.8129 L100.3925,155.1449 C100.4755,155.8949 100.0585,156.8109 100.4755,157.4779 C100.2255,158.4779 100.8085,159.2269 100.3925,160.3939 C100.4755,160.4769 100.5585,160.6439 100.5585,160.8099 Z M108.3895,200.8809 C108.8055,201.7969 107.6395,201.7139 107.4735,202.2969 C106.8065,202.7139 106.1405,203.3799 105.2235,203.5469 C103.9745,203.7969 102.5585,203.5469 101.4755,203.0469 C100.6415,202.5469 101.1415,201.2969 100.7255,200.6309 L100.8915,200.1309 C102.8915,199.5479 105.1405,199.3809 107.1395,199.7149 C107.5565,200.0479 108.2225,200.3809 108.3895,200.8809 Z M127.7165,160.6439 C128.6325,164.9759 127.7995,168.6409 128.0495,172.9729 C127.7995,177.7209 127.7165,182.5529 127.2165,187.0519 C126.8835,189.8839 126.7165,193.1329 126.2165,195.7989 C125.8835,196.2989 124.9675,196.5489 124.3845,196.8819 C122.4685,196.8819 123.9675,194.8829 123.4675,193.8829 C123.8005,190.3009 123.8845,186.6349 124.2175,183.1369 C124.7175,175.4719 124.4675,167.5579 125.2175,159.8109 C126.1335,159.3109 127.4665,159.4769 127.7165,160.6439 Z M122.6345,154.8949 C120.8855,154.0629 117.3865,156.1449 117.1365,153.1459 C117.3865,152.1459 118.6365,152.2299 119.4695,151.8959 C121.3855,151.8959 123.5515,151.7299 125.1345,152.8129 C125.8835,153.5629 126.8005,153.9789 127.4665,154.8119 C127.4665,155.1449 127.7165,155.4789 127.4665,155.8119 C125.8005,156.3119 124.2175,155.3119 122.6345,154.8949 Z M122.1345,170.8069 L121.9685,170.9739 C121.9685,175.7219 121.4685,180.4709 120.6355,185.1359 L120.3855,186.2189 C119.6355,186.3019 118.4695,186.8019 117.9695,185.8019 C118.2195,183.8859 118.2195,182.3869 118.1365,180.4709 C118.6365,174.9719 119.1355,169.4739 118.8855,163.5589 L118.8025,163.4759 C118.8855,163.5589 119.0525,163.4759 119.0525,163.3929 L118.8855,163.0599 C119.0525,161.7269 119.2195,160.2269 119.1355,158.8109 C118.8025,158.7279 119.1355,158.2279 119.0525,157.9779 C119.3855,157.2279 120.2185,157.5609 120.7185,157.1449 C122.4685,158.3939 121.8015,160.8099 122.1345,162.3929 C121.9685,164.8919 122.1345,168.1409 122.1345,170.8069 Z M131.9655,193.7159 C131.5485,194.9659 130.2155,195.2159 129.2995,195.9659 C128.8825,195.9659 128.6325,195.6319 128.2995,195.3829 C128.1335,194.9659 128.2165,194.2999 128.3835,193.8829 C129.3825,193.5499 130.2155,193.0499 130.7155,192.0499 C131.1325,192.5499 131.9655,192.8829 131.9655,193.7159 Z M131.4655,206.4619 C132.2985,206.6289 132.9645,205.7129 133.7145,206.0459 C134.1315,205.5459 135.1305,206.1289 134.7975,206.6289 C133.5485,207.4619 133.0485,209.1279 131.3815,209.2949 C130.4655,210.2939 129.1325,210.6279 127.9665,211.3779 C125.8005,212.0439 123.8005,213.2099 121.7185,214.0429 C116.3035,215.4599 111.3885,217.7919 105.6405,218.5419 C99.4755,219.7919 93.0615,220.8739 86.6465,221.0409 C83.4805,221.2909 80.7315,221.6239 77.6495,221.9579 C76.9825,221.8739 76.3165,221.7079 75.7335,222.0409 C74.5675,221.7909 73.4005,222.3739 72.4015,221.8739 C71.5685,222.4569 70.4015,221.7079 69.8185,222.2909 C68.6525,222.1239 67.4025,222.2909 66.3195,222.2909 L66.2365,222.1239 C64.9035,221.9579 63.5705,222.7069 62.2375,222.0409 C60.7385,222.0409 59.0725,221.8739 57.6555,222.1239 C57.5725,221.7909 56.9065,222.1239 56.6565,221.8739 C55.5735,221.2079 54.0735,221.6239 52.9075,220.8739 C52.8245,220.6249 52.9075,220.2079 52.9905,219.8749 C54.4065,218.7919 56.4065,219.7919 58.0725,219.4579 C60.9045,219.9579 63.5705,219.6249 66.6525,219.7919 L66.9025,219.5419 C67.1525,220.0419 67.7365,219.4579 68.1525,219.7079 C73.9835,219.3749 80.6485,219.3749 86.4795,217.8759 C93.7275,216.7919 100.8085,215.2929 107.8895,213.7099 C111.1385,212.7099 114.4705,211.7109 117.8865,211.1279 C121.0525,210.1279 124.2175,209.2119 127.2995,208.0449 C128.2165,208.0449 128.1335,207.5449 129.0495,207.5449 C128.9665,207.4619 128.8825,207.4619 128.7995,207.4619 C129.6325,206.9619 130.7155,207.0459 131.4655,206.4619 Z M60.4885,144.1489 C61.5715,144.2319 62.8205,143.7319 63.9035,144.0649 C66.6525,143.3989 68.9855,144.3149 70.7345,145.8149 C71.1515,146.4809 70.4015,147.1479 70.1515,147.6479 C69.6525,148.1479 68.9855,147.6479 68.4855,147.6479 L67.6525,147.3979 L67.6525,147.4809 C66.0695,147.5639 64.3205,147.8979 62.9875,148.1479 C60.2385,148.4809 56.9065,149.1469 56.1565,152.0629 C55.5735,152.1459 55.8235,152.8959 55.1565,152.8129 C54.2405,152.6459 53.3235,152.3129 52.8245,151.4799 C52.8245,150.9799 52.4905,150.5629 52.8245,150.1469 C52.7405,147.3979 55.6565,146.3149 57.4055,145.0649 C58.5725,144.8989 59.4055,144.3149 60.4885,144.1489 Z M56.7395,132.1529 C56.0735,131.1529 55.1565,130.4029 53.9905,129.9029 C53.3235,129.9029 52.3245,129.9029 51.5745,130.0699 C46.9095,134.0689 44.9105,139.3169 42.4945,144.9819 C41.6615,145.4819 40.4945,145.7319 39.5785,145.1489 C38.9115,144.8149 38.5785,144.4819 38.1625,143.8989 C38.9955,137.6509 42.5775,131.7359 47.6595,128.0709 L49.4915,127.0709 C53.1575,125.9879 57.3225,127.7369 59.4055,130.8199 C61.4875,133.9019 61.9045,138.4839 61.4875,142.3159 C61.2385,143.0659 60.2385,142.9829 59.5725,142.8159 C59.0725,142.3989 58.4885,142.8159 58.0725,142.3159 C58.1555,141.8159 58.1555,140.9829 58.4055,140.3999 C58.7385,137.6509 58.1555,134.7349 56.7395,132.1529 Z M69.7355,139.3169 C70.0685,139.1499 69.9855,138.7339 70.1515,138.4839 C70.2355,136.6509 71.5685,135.1519 71.8185,133.4019 C72.8175,132.5689 73.0675,131.4029 74.2335,130.6529 C76.1495,128.1539 78.8155,126.0709 82.2315,125.7379 C84.8135,125.8209 87.3125,127.1539 88.4795,129.4039 C90.7285,132.6519 91.2285,137.1509 91.4785,141.0659 C91.4785,141.3999 91.1445,141.5659 90.8955,141.6499 C89.8955,141.8999 89.5625,140.8999 88.6455,141.0659 C87.8125,140.3999 88.4795,138.9839 88.0625,138.1509 C87.8965,136.9839 87.8965,135.5679 86.9795,134.6519 C86.5635,133.0689 86.0635,131.4859 84.7305,130.5699 C84.7305,129.9869 83.8975,129.6539 83.3975,129.3199 C82.5645,128.5699 81.3145,128.8199 80.3985,128.9869 C79.6485,129.3199 78.7325,129.9029 78.1495,130.6529 L77.9825,130.6529 C77.8995,131.1529 77.3165,131.4859 76.8995,131.9029 C76.8165,132.1529 76.7325,132.7359 76.2335,132.8189 L76.4835,132.9019 C76.0665,132.9859 76.0665,133.9019 75.6505,134.3189 C75.7335,134.6519 75.2335,134.9019 75.2335,135.2349 C75.3165,135.4019 75.4005,135.4019 75.3165,135.5679 C75.1505,135.6519 74.9005,135.6519 74.9835,135.9019 C75.0665,135.9849 75.1505,135.9849 75.2335,135.9849 C74.9005,135.8179 74.8175,136.3179 74.6505,136.4009 C74.6505,136.5679 74.6505,136.7349 74.7335,136.9009 L74.8175,136.9009 L74.5675,137.1509 C74.5675,137.2339 74.6505,137.2339 74.6505,137.2339 C74.8175,137.3179 74.4005,137.6509 74.6505,137.9839 C74.1505,138.4009 73.8175,139.1499 73.9835,139.8999 C73.5675,141.0659 73.7345,142.8989 72.4015,143.3989 C71.3185,143.1489 70.2355,142.1489 69.6525,141.4829 C69.8185,141.3999 69.9015,141.8159 70.0685,141.5659 C70.0685,141.1499 69.5685,140.9829 69.5685,140.8169 C69.9855,141.0659 69.4855,140.4829 69.8185,140.4829 L69.6525,140.3169 C69.9855,140.0669 69.7355,139.6499 69.7355,139.3169 Z M144.7115,140.8999 C144.7945,142.2329 145.1275,143.9819 144.4615,145.0649 C144.0445,145.3979 143.3785,145.3149 143.0445,145.7319 C142.5455,146.0649 141.6285,145.9819 141.2955,145.4819 C140.7955,145.0649 140.7955,144.3989 140.7125,143.8159 C140.3795,140.2329 141.5455,135.7349 137.8795,133.9019 C136.8805,133.8189 135.3805,133.9849 134.5475,134.9849 C132.1315,137.3179 131.7985,140.7329 131.3815,143.6489 C131.1325,144.1489 130.3825,143.8159 130.2155,144.3989 C129.7155,144.3149 129.3825,143.9819 129.2995,143.4819 C128.9665,142.1489 129.6325,140.6499 129.8825,139.3999 C130.6325,135.9849 133.2985,132.3189 136.9635,131.8189 C139.3795,131.4859 140.6295,133.3189 142.3785,134.4019 C142.7115,134.7349 143.0445,135.3179 143.3785,135.6519 C143.9615,137.3179 144.8775,139.0669 144.7115,140.8999 Z M141.9615,153.3959 C140.2125,153.1459 138.1295,153.1459 137.6305,151.2299 C137.7135,150.8129 137.6305,150.1469 138.1295,149.8969 C138.7125,150.0639 138.1295,149.3139 138.7125,149.3139 C140.4625,148.7309 142.2115,149.0639 143.8775,149.6469 C145.0445,150.8969 147.3765,151.7299 146.6275,153.8959 C145.9605,153.9789 146.1275,154.8949 145.2105,154.6459 C144.1275,154.5619 143.2945,153.3129 141.9615,153.3959 Z M180.39369,157.641707 L177.781181,157.641707 L177.781181,120.699542 L180.39369,120.699542 C181.438693,129.689943 182.483697,133.940964 185.226831,139.007197 C189.408766,146.85361 196.203209,151.756416 203.126357,151.756416 C211.618931,151.756416 218.282749,144.075353 218.282749,134.104391 C218.282749,128.872808 216.713323,124.787136 212.663935,119.882407 C210.312677,116.940724 207.308292,113.99904 204.693862,112.035995 L194.372532,104.681785 C182.222446,96.0182379 177.25868,87.5181176 177.25868,75.7494597 C177.25868,58.912646 186.665632,47.4708419 200.383223,47.4708419 C205.34699,47.4708419 206.130742,47.6342688 216.452072,51.8833676 C217.498997,52.3736482 218.413375,52.5370751 219.197127,52.5370751 C220.895258,52.5370751 221.940261,51.393087 222.854639,48.61483 L225.597774,48.61483 L225.597774,83.2670961 L223.246516,83.2670961 C220.242131,70.8447307 218.021498,65.2882169 214.623316,60.8737685 C211.488306,56.7880966 207.177667,54.6616245 202.081354,54.6616245 C194.111281,54.6616245 188.363762,60.8737685 188.363762,69.5373157 C188.363762,76.0763135 192.805027,82.9402423 201.166976,88.8255326 L211.35768,96.1816648 C225.075272,105.9892 231.085963,115.960162 231.085963,128.709381 C231.085963,146.199903 220.372756,158.785695 205.216364,158.785695 C200.121972,158.785695 200.121972,158.785695 189.27814,154.536596 C187.318759,153.719462 185.488082,153.229181 184.312453,153.229181 C182.222446,153.229181 181.177443,154.373169 180.39369,157.641707 Z M262.048032,153.556035 L262.048032,164.180705 C262.048032,178.073912 263.615537,181.505876 269.887479,181.505876 L271.454984,181.505876 L271.454984,184.286056 L241.666623,184.286056 L241.666623,181.505876 L244.019802,181.505876 C248.06919,181.505876 250.028571,179.871607 250.942949,176.112789 C251.2042,174.968801 251.2042,174.968801 251.726702,164.180705 L251.726702,104.354931 C251.726702,95.854811 250.420448,92.9112045 246.762936,92.9112045 C245.979183,92.9112045 244.803554,93.0746314 244.150427,93.4014852 L242.842252,94.0551927 L242.058499,91.7672164 C251.596077,86.7009832 253.163582,85.8838488 262.048032,80.3254123 L262.048032,96.0182379 C269.364977,84.9032875 273.936868,81.3059736 280.47006,81.3059736 C292.22827,81.3059736 302.027098,98.1427873 302.027098,118.574992 C302.027098,140.314612 289.354511,158.785695 274.46129,158.785695 C270.279355,158.785695 267.144345,157.47828 262.048032,153.556035 Z M262.048032,103.864651 L262.048032,131.324211 C262.048032,139.987759 262.570534,143.258219 264.270586,146.526756 C266.491218,150.449001 270.409981,152.902327 274.46129,152.902327 C283.866321,152.902327 290.268889,140.804893 290.268889,123.314372 C290.268889,105.335493 284.127572,93.4014852 274.722541,93.4014852 C269.887479,93.4014852 267.797472,95.2011035 262.048032,103.864651 Z M331.423584,46 L331.423584,137.536355 C331.423584,152.246697 332.599213,154.86345 338.999859,154.86345 L341.089866,154.86345 L341.089866,157.641707 L311.434051,157.641707 L311.434051,154.86345 L313.524058,154.86345 C319.924704,154.86345 321.102254,152.246697 321.102254,137.536355 L321.102254,70.1910232 C321.102254,60.7103417 320.185955,58.5857922 316.267192,58.5857922 C315.483439,58.5857922 314.438436,58.7492191 313.654683,59.2394998 L312.217803,59.7297804 L311.434051,57.4418041 C321.102254,52.3736482 322.539133,51.5565138 331.423584,46 Z M367.481966,80.3254123 L367.481966,137.536355 C367.481966,152.246697 368.657595,154.86345 375.058241,154.86345 L377.017623,154.86345 L377.017623,157.641707 L347.361807,157.641707 L347.361807,154.86345 L349.713065,154.86345 C353.762454,154.86345 355.721835,153.229181 356.505588,149.46844 C356.897464,147.997598 356.897464,147.670745 357.160636,137.536355 L357.160636,104.354931 C357.160636,98.9599217 357.03001,97.3256529 356.636213,96.0182379 C355.983086,94.0551927 354.415581,92.9112045 352.456199,92.9112045 C351.541821,92.9112045 350.627443,93.0746314 349.843691,93.4014852 L348.276185,94.0551927 L347.492433,91.7672164 C357.03001,86.7009832 358.597516,85.8838488 367.481966,80.3254123 Z M361.471275,48.61483 C365.128787,48.61483 368.135093,52.3736482 368.135093,56.9515235 C368.135093,61.6909029 365.128787,65.4516438 361.471275,65.4516438 C357.683138,65.4516438 354.676832,61.6909029 354.676832,56.9515235 C354.676832,52.3736482 357.683138,48.61483 361.471275,48.61483 Z M402.232173,61.3640492 L402.232173,82.4499617 L414.645431,82.4499617 L414.645431,88.4986789 L402.232173,88.4986789 L402.232173,134.758099 C402.232173,145.055915 404.06285,149.141586 408.765366,149.141586 C411.900376,149.141586 414.253555,147.180464 417.25794,142.112308 L419.086696,144.075353 C415.037307,154.046315 410.202245,158.785695 403.799678,158.785695 C398.705286,158.785695 394.655898,155.680584 392.955846,150.449001 C391.649592,146.36333 391.257716,142.929442 391.257716,134.104391 L391.257716,88.4986789 L381.850764,88.4986789 L381.850764,85.3935682 C392.433345,79.5082779 395.962152,74.6054716 399.227788,61.3640492 L402.232173,61.3640492 Z M158.455533,202.611592 L156.361684,202.611592 C155.022773,202.611592 154.315859,202.965363 153.870196,203.847869 C153.633918,204.28816 153.564763,204.670771 153.470636,205.99549 L153,205.935887 L153.234357,201.16959 L166.145145,201.16959 L166.381423,205.935887 L165.910787,205.99549 C165.81666,204.465045 165.699481,204.053594 165.322973,203.5537 C164.829286,202.846158 164.241471,202.611592 163.017818,202.611592 L160.923969,202.611592 L160.923969,217.735308 C160.923969,219.588761 161.300478,220.205938 162.547182,220.2367 L163.065842,220.26554 L163.065842,220.794274 L156.315581,220.794274 L156.315581,220.26554 L156.83232,220.2367 C158.079024,220.205938 158.455533,219.617601 158.455533,217.735308 L158.455533,202.611592 Z M181.808671,204.23048 L181.808671,213.057454 C181.808671,215.468481 181.549341,216.852803 180.890451,218.117919 C179.855052,220.088655 178.185736,221 175.623172,221 C173.08366,221 171.249141,219.882929 170.30787,217.704545 C169.885258,216.733597 169.64898,215.381961 169.625928,213.763073 L169.625928,210.938672 L169.625928,204.23048 C169.625928,202.346264 169.24942,201.757927 168.002715,201.729087 L167.485976,201.700247 L167.485976,201.16959 L174.236238,201.16959 L174.236238,201.700247 L173.717578,201.729087 C172.470873,201.757927 172.094365,202.346264 172.094365,204.23048 L172.094365,213.734233 C172.094365,215.793412 172.282619,216.7932 172.82433,217.735308 C173.460169,218.852379 174.729925,219.559921 176.11686,219.559921 C178.045506,219.559921 179.69177,218.381325 180.302636,216.499032 C180.585018,215.676129 180.702197,214.616738 180.702197,213.057454 L180.702197,204.23048 C180.702197,202.346264 180.325688,201.757927 179.078983,201.729087 L178.562245,201.700247 L178.562245,201.16959 L183.948623,201.16959 L183.948623,201.700247 L183.429963,201.729087 C182.183258,201.757927 181.808671,202.346264 181.808671,204.23048 Z M189.73264,211.584689 L189.73264,217.735308 C189.73264,219.617601 190.109149,220.177098 191.355853,220.2367 L191.803437,220.26554 L191.803437,220.794274 L185.124252,220.794274 L185.124252,220.26554 L185.64099,220.2367 C186.887695,220.205938 187.264204,219.617601 187.264204,217.735308 L187.264204,204.23048 C187.264204,202.346264 186.887695,201.757927 185.64099,201.729087 L185.124252,201.700247 L185.124252,201.16959 L191.638235,201.16959 C193.612984,201.16959 194.48318,201.375316 195.376427,201.994415 C196.529004,202.846158 197.25897,204.465045 197.25897,206.172376 C197.25897,207.583615 196.765283,208.937174 195.918138,209.908122 C195.330324,210.556061 194.788613,210.87907 193.612984,211.321284 L197.235919,217.264254 C198.71698,219.706044 199.256771,220.2367 200.315221,220.2367 L200.645627,220.2367 L200.645627,220.794274 L196.529004,220.794274 L190.956293,211.584689 L189.73264,211.584689 Z M189.73264,202.700035 L189.73264,210.556061 L190.157173,210.556061 C192.859967,210.556061 194.506231,208.996777 194.506231,206.378101 C194.506231,203.993991 193.142348,202.377027 191.167599,202.377027 C190.673912,202.377027 190.368479,202.434707 189.73264,202.700035 Z M205.724651,204.23048 L205.724651,217.735308 C205.724651,219.617601 206.101159,220.205938 207.347864,220.2367 L207.864603,220.26554 L207.864603,220.794274 L201.114341,220.794274 L201.114341,220.26554 L201.633001,220.2367 C202.879706,220.205938 203.256214,219.617601 203.256214,217.735308 L203.256214,204.23048 C203.256214,202.346264 202.879706,201.757927 201.633001,201.729087 L201.114341,201.700247 L201.114341,201.16959 L207.864603,201.16959 L207.864603,201.700247 L207.347864,201.729087 C206.101159,201.757927 205.724651,202.346264 205.724651,204.23048 Z M211.039953,220.794274 L210.569318,220.794274 L210.569318,214.145684 L211.039953,214.145684 C211.228208,215.762649 211.416462,216.527872 211.910149,217.441139 C212.661245,218.852379 213.884898,219.734884 215.131603,219.734884 C216.660689,219.734884 217.859369,218.352485 217.859369,216.558634 C217.859369,215.616526 217.576988,214.880144 216.847022,213.997639 C216.42441,213.468905 215.88462,212.938248 215.413984,212.5864 L213.556414,211.261681 C211.368438,209.702396 210.47519,208.171951 210.47519,206.05317 C210.47519,203.023043 212.167558,200.963865 214.637916,200.963865 C215.531163,200.963865 215.671393,200.992705 217.530885,201.757927 C217.717218,201.84637 217.882421,201.87521 218.024572,201.87521 C218.330005,201.87521 218.518259,201.669484 218.681541,201.16959 L219.175228,201.16959 L219.175228,207.406729 L218.752617,207.406729 C218.212826,205.170665 217.811345,204.170877 217.200479,203.376815 C216.635716,202.640432 215.859648,202.257821 214.943349,202.257821 C213.50839,202.257821 212.472991,203.376815 212.472991,204.936099 C212.472991,206.112773 213.274032,207.349049 214.778146,208.40844 L216.612665,209.731236 C219.083022,211.498169 220.164524,213.292019 220.164524,215.587686 C220.164524,218.735096 218.235878,221 215.508111,221 C214.589892,221 214.589892,221 212.638194,220.2367 C212.284737,220.088655 211.956252,220.000212 211.744946,220.000212 C211.368438,220.000212 211.180184,220.205938 211.039953,220.794274 Z M227.239428,202.611592 L225.1475,202.611592 C223.806668,202.611592 223.101675,202.965363 222.654091,203.847869 C222.419734,204.28816 222.348658,204.670771 222.254531,205.99549 L221.783895,205.935887 L222.020173,201.16959 L234.930961,201.16959 L235.165318,205.935887 L234.694682,205.99549 C234.600555,204.465045 234.483377,204.053594 234.106868,203.5537 C233.613181,202.846158 233.025366,202.611592 231.801713,202.611592 L229.709785,202.611592 L229.709785,217.735308 C229.709785,219.588761 230.086294,220.205938 231.332998,220.2367 L231.849737,220.26554 L231.849737,220.794274 L225.099476,220.794274 L225.099476,220.26554 L225.618136,220.2367 C226.86484,220.205938 227.239428,219.617601 227.239428,217.735308 L227.239428,202.611592 Z M241.020411,204.23048 L241.020411,217.735308 C241.020411,219.617601 241.39692,220.205938 242.643624,220.2367 L243.160363,220.26554 L243.160363,220.794274 L236.412023,220.794274 L236.412023,220.26554 L236.928761,220.2367 C238.175466,220.205938 238.551975,219.617601 238.551975,217.735308 L238.551975,204.23048 C238.551975,202.346264 238.175466,201.757927 236.928761,201.729087 L236.412023,201.700247 L236.412023,201.16959 L243.160363,201.16959 L243.160363,201.700247 L242.643624,201.729087 C241.39692,201.757927 241.020411,202.346264 241.020411,204.23048 Z M258.987171,216.204863 L259.388652,216.527872 C257.905669,219.323433 255.554411,221 253.061002,221 C248.711944,221 245.183136,216.499032 245.183136,210.967512 C245.183136,205.376391 248.781099,200.963865 253.366435,200.963865 C254.567037,200.963865 255.719614,201.258033 256.683937,201.78869 C257.64826,202.346264 257.64826,202.346264 257.859566,202.346264 C258.282178,202.346264 258.493484,201.963653 258.587611,201.16959 L259.081298,201.16959 L259.223449,207.7605 L258.798917,207.820103 C258.612583,206.112773 258.188051,204.964939 257.294803,203.905549 C256.284377,202.700035 254.989649,202.052096 253.625765,202.052096 C250.239109,202.052096 248.028081,205.612879 248.028081,211.055955 C248.028081,216.352909 250.216057,219.706044 253.673789,219.706044 C255.836793,219.706044 257.554133,218.55821 258.987171,216.204863 Z M256.941346,196.343691 L257.1296,196.785905 L253.55469,199.521863 L250.098879,196.785905 L250.310184,196.343691 L253.55469,197.403082 L256.941346,196.343691 Z M266.019814,211.290521 L266.019814,217.735308 C266.019814,219.617601 266.396322,220.205938 267.643027,220.2367 L268.205869,220.26554 L268.205869,220.794274 L261.409504,220.794274 L261.409504,220.26554 L261.928164,220.2367 C263.172948,220.205938 263.549456,219.617601 263.549456,217.735308 L263.549456,204.23048 C263.549456,202.346264 263.172948,201.757927 261.928164,201.729087 L261.409504,201.700247 L261.409504,201.16959 L268.205869,201.16959 L268.205869,201.700247 L267.735233,201.729087 C266.325247,201.84637 266.019814,202.288584 266.019814,204.23048 L266.019814,210.556061 C268.017614,208.348837 269.264319,206.760712 270.251694,205.259108 C271.240989,203.699823 271.592525,202.994203 271.592525,202.523149 C271.592525,201.934813 271.381219,201.78869 270.228642,201.757927 L270.228642,201.16959 L275.943505,201.16959 L275.943505,201.757927 L275.61502,201.757927 C275.167436,201.757927 274.345264,202.140538 273.849656,202.582752 C273.450096,202.934601 273.192687,203.259532 272.157288,204.670771 C270.439948,207.024118 270.182539,207.349049 268.724529,209.260182 L268.230841,209.879282 L273.63835,216.881643 C275.661123,219.440715 276.67347,220.2367 278.106508,220.26554 L278.106508,220.794274 L270.605151,220.794274 L270.605151,220.2367 L270.981659,220.2367 C271.546422,220.2367 271.945982,219.911769 271.945982,219.471478 C271.945982,219.058104 271.404271,218.175599 270.345821,216.82204 L266.019814,211.290521 Z M286.197601,200.992705 L291.60511,216.76436 C292.594405,219.588761 293.06312,220.26554 294.12157,220.26554 L294.427003,220.26554 L294.427003,220.794274 L287.866917,220.794274 L287.866917,220.2367 L288.243426,220.2367 C289.088649,220.2367 289.559285,219.854089 289.559285,219.117707 C289.559285,218.675493 289.465158,218.264042 289.136673,217.235414 L288.243426,214.35141 L282.528563,214.35141 L281.516216,217.469979 C281.116656,218.911981 281.116656,218.911981 281.116656,219.088867 C281.116656,219.823326 281.635316,220.2367 282.528563,220.2367 L282.810945,220.2367 L282.810945,220.794274 L277.566718,220.794274 L277.566718,220.26554 C279.118855,220.177098 279.376264,219.882929 280.340587,217.116208 L285.938271,200.992705 L286.197601,200.992705 Z M282.974227,213.115134 L287.866917,213.115134 L285.350457,206.083933 L282.974227,213.115134 Z M311.195083,202.494309 L306.774949,202.494309 C304.727203,202.494309 304.210464,202.700035 303.716777,203.730586 C303.457447,204.318922 303.317217,204.936099 303.176986,206.349261 L302.706351,206.289658 L303.176986,201.16959 L314.887172,201.16959 L305.034557,219.471478 L310.49009,219.471478 C312.464839,219.471478 313.217856,219.117707 313.945901,217.823751 C314.299358,217.204651 314.510664,216.527872 314.72197,215.322358 L315.169554,215.381961 L314.322409,220.794274 L301.294443,220.794274 L311.195083,202.494309 Z M324.670633,200.992705 L330.080063,216.76436 C331.067437,219.588761 331.538073,220.26554 332.596523,220.26554 L332.901956,220.26554 L332.901956,220.794274 L326.339949,220.794274 L326.339949,220.2367 L326.716458,220.2367 C327.563602,220.2367 328.034238,219.854089 328.034238,219.117707 C328.034238,218.675493 327.940111,218.264042 327.609705,217.235414 L326.716458,214.35141 L321.001595,214.35141 L319.991169,217.469979 C319.591609,218.911981 319.591609,218.911981 319.591609,219.088867 C319.591609,219.823326 320.108348,220.2367 321.001595,220.2367 L321.283977,220.2367 L321.283977,220.794274 L316.03975,220.794274 L316.03975,220.26554 C317.591887,220.177098 317.851217,219.882929 318.81554,217.116208 L324.411303,200.992705 L324.670633,200.992705 Z M321.449179,213.115134 L326.339949,213.115134 L323.823489,206.083933 L321.449179,213.115134 Z M340.545465,204.23048 L340.545465,215.08587 C340.545465,218.675493 338.970276,221 336.52297,221 C335.041908,221 334.031482,220.117495 334.031482,218.794698 C334.031482,217.998713 334.525169,217.441139 335.207111,217.441139 C335.912104,217.441139 336.217537,217.764148 336.736197,219.088867 C336.924451,219.529158 337.158809,219.794486 337.418138,219.794486 C337.934877,219.794486 338.10008,219.029264 338.10008,216.527872 L338.10008,204.23048 C338.10008,202.55199 337.558369,201.757927 336.359688,201.729087 L335.841028,201.700247 L335.841028,201.16959 L342.637393,201.16959 L342.637393,201.700247 L342.143706,201.729087 C340.921974,201.78869 340.545465,202.346264 340.545465,204.23048 Z M348.917019,211.055955 L348.917019,217.352697 C348.94007,218.735096 348.965043,218.883141 349.176348,219.146547 C349.364603,219.411875 349.552857,219.471478 350.209826,219.471478 L353.033641,219.471478 C355.431001,219.471478 356.443349,218.588973 357.430723,215.645366 L357.807232,215.851092 L356.4664,220.794274 L344.30863,220.794274 L344.30863,220.26554 L344.825369,220.2367 C346.072073,220.205938 346.448582,219.617601 346.448582,217.735308 L346.448582,204.23048 C346.448582,202.346264 346.072073,201.757927 344.825369,201.729087 L344.30863,201.700247 L344.30863,201.16959 L356.230122,201.16959 L356.4664,205.612879 L356.06684,205.672482 C355.761407,202.905761 355.14862,202.317424 352.563005,202.317424 L348.917019,202.317424 L348.917019,209.731236 L352.891489,209.731236 C353.878864,209.731236 354.3495,209.379388 354.585778,208.40844 C354.654933,208.054669 354.702957,207.672057 354.702957,206.789552 L355.125568,206.789552 L355.125568,213.939959 L354.702957,213.939959 C354.702957,212.763285 354.654933,212.409514 354.466678,211.9673 C354.184297,211.350124 353.69061,211.055955 352.891489,211.055955 L348.917019,211.055955 Z M361.499321,217.735308 L361.499321,204.23048 C361.499321,202.346264 361.122813,201.757927 359.876108,201.729087 L359.359369,201.700247 L359.359369,201.16959 L365.662046,201.16959 C368.62417,201.16959 369.94195,201.463759 371.494088,202.523149 C374.079703,204.28816 375.420535,207.231766 375.420535,211.144398 C375.420535,214.291807 374.410108,217.087368 372.646665,218.735096 C371.682342,219.646441 370.270435,220.32322 368.789373,220.617389 C368.130483,220.736594 367.237235,220.794274 365.590971,220.794274 L359.359369,220.794274 L359.359369,220.26554 L359.876108,220.2367 C361.122813,220.205938 361.499321,219.617601 361.499321,217.735308 Z M363.967758,202.759638 L363.967758,219.17731 C364.932081,219.529158 365.425768,219.646441 366.224888,219.646441 C370.082181,219.646441 372.669717,216.176023 372.669717,210.996352 C372.669717,208.585325 372.081902,206.524224 370.929325,204.876497 C369.68262,203.111486 368.272634,202.377027 366.084658,202.377027 C365.285538,202.377027 364.791851,202.463547 363.967758,202.759638 Z M391.554697,220.794274 L381.018219,205.524436 L381.018219,217.735308 C381.018219,219.617601 381.394727,220.205938 382.641432,220.2367 L383.158171,220.26554 L383.158171,220.794274 L377.725689,220.794274 L377.725689,220.26554 L378.242428,220.2367 C379.489133,220.205938 379.865641,219.617601 379.865641,217.735308 L379.865641,203.788266 C378.455655,201.963653 378.173274,201.757927 376.855493,201.700247 L376.855493,201.16959 L381.488854,201.16959 L390.778628,214.734021 L390.778628,204.23048 C390.778628,202.346264 390.402119,201.757927 389.155415,201.729087 L388.636755,201.700247 L388.636755,201.16959 L394.069236,201.16959 L394.069236,201.700247 L393.552497,201.729087 C392.305793,201.757927 391.929284,202.346264 391.929284,204.23048 L391.929284,220.794274 L391.554697,220.794274 Z M400.277786,204.23048 L400.277786,217.735308 C400.277786,219.617601 400.654295,220.205938 401.900999,220.2367 L402.419659,220.26554 L402.419659,220.794274 L395.669398,220.794274 L395.669398,220.26554 L396.186136,220.2367 C397.432841,220.205938 397.80935,219.617601 397.80935,217.735308 L397.80935,204.23048 C397.80935,202.346264 397.432841,201.757927 396.186136,201.729087 L395.669398,201.700247 L395.669398,201.16959 L402.419659,201.16959 L402.419659,201.700247 L401.900999,201.729087 C400.654295,201.757927 400.277786,202.346264 400.277786,204.23048 Z M418.246467,216.204863 L418.646027,216.527872 C417.163044,219.323433 414.811786,221 412.318377,221 C407.969319,221 404.440511,216.499032 404.440511,210.967512 C404.440511,205.376391 408.038474,200.963865 412.625731,200.963865 C413.824412,200.963865 414.976989,201.258033 415.941312,201.78869 C416.905635,202.346264 416.905635,202.346264 417.116941,202.346264 C417.539553,202.346264 417.750859,201.963653 417.844986,201.16959 L418.338673,201.16959 L418.480824,207.7605 L418.058213,207.820103 C417.869958,206.112773 417.445426,204.964939 416.552178,203.905549 C415.541752,202.700035 414.247024,202.052096 412.88314,202.052096 C409.496484,202.052096 407.287377,205.612879 407.287377,211.055955 C407.287377,216.352909 409.473432,219.706044 412.931164,219.706044 C415.094168,219.706044 416.811508,218.55821 418.246467,216.204863 Z M427.768677,200.992705 L433.178106,216.76436 C434.165481,219.588761 434.636117,220.26554 435.694567,220.26554 L436,220.26554 L436,220.794274 L429.437993,220.794274 L429.437993,220.2367 L429.814502,220.2367 C430.661646,220.2367 431.132282,219.854089 431.132282,219.117707 C431.132282,218.675493 431.038155,218.264042 430.707749,217.235414 L429.814502,214.35141 L424.099639,214.35141 L423.089213,217.469979 C422.689653,218.911981 422.689653,218.911981 422.689653,219.088867 C422.689653,219.823326 423.206391,220.2367 424.099639,220.2367 L424.38202,220.2367 L424.38202,220.794274 L419.137793,220.794274 L419.137793,220.26554 C420.689931,220.177098 420.949261,219.882929 421.913584,217.116208 L427.509347,200.992705 L427.768677,200.992705 Z M424.547223,213.115134 L429.437993,213.115134 L426.921532,206.083933 L424.547223,213.115134 Z M420.826896,170.830256 L422.525026,170.830256 L422.290669,171.793513 L420.592538,171.793513 L418.293146,181.389555 C418.031895,182.600836 418.031895,182.600836 418.031895,182.787335 C418.031895,183.03536 418.214387,183.252621 418.448744,183.252621 C418.867514,183.252621 419.624373,182.414337 420.408126,181.14153 L420.69627,181.576054 C419.441882,183.750592 418.396878,184.74269 417.403741,184.74269 C416.646882,184.74269 416.12438,184.121668 416.12438,183.221858 C416.12438,182.756573 416.255005,181.949051 416.437497,181.14153 L418.709995,171.793513 L416.908133,171.793513 L417.115596,170.830256 C418.685023,170.426495 419.624373,169.618974 421.061253,167.413673 L421.662514,167.413673 L420.826896,170.830256 Z M414.843098,166.761888 C414.843098,167.630934 414.241837,168.346167 413.50995,168.346167 C412.779985,168.346167 412.178723,167.630934 412.178723,166.761888 C412.178723,165.860156 412.779985,165.177608 413.536844,165.177608 C414.241837,165.177608 414.843098,165.892841 414.843098,166.761888 Z M413.849961,170.426495 L411.001174,182.289364 C410.949308,182.475863 410.924335,182.631599 410.924335,182.72581 C410.924335,182.943071 411.106827,183.12957 411.316211,183.12957 C411.681194,183.12957 412.49184,182.258601 413.144967,181.110768 L413.327459,181.762553 C411.969339,183.750592 410.818682,184.775375 410.009957,184.775375 C409.433668,184.775375 408.911167,184.215878 408.911167,183.594856 C408.911167,183.346832 408.964954,182.973834 409.068686,182.539311 L411.210559,173.718105 C411.368077,173.004795 411.419943,172.724085 411.419943,172.383772 C411.419943,171.885801 411.210559,171.66854 410.739923,171.66854 C410.480593,171.66854 410.29618,171.699302 409.879332,171.793513 L410.009957,171.203254 C411.185586,171.109043 412.543706,170.830256 413.849961,170.426495 Z M403.895534,182.475863 C403.868641,182.600836 403.843668,182.72581 403.843668,182.818098 C403.843668,183.03536 403.974294,183.221858 404.181758,183.221858 C404.548661,183.221858 404.861778,182.943071 405.72429,181.793315 C405.80305,181.668342 405.881809,181.545291 405.958648,181.45108 L406.273686,181.854841 C404.652393,184.090905 403.920507,184.74269 402.92929,184.74269 C402.301136,184.74269 401.8305,184.185116 401.8305,183.469883 C401.8305,183.191096 401.8305,183.160333 402.012991,182.475863 L405.958648,166.077418 C406.064301,165.673657 406.116167,165.364107 406.116167,165.208371 C406.116167,164.868059 405.828022,164.587349 405.514905,164.587349 C405.38428,164.587349 405.228682,164.618112 405.071163,164.648874 L404.809912,164.68156 L404.940538,164.0913 C406.613696,163.904802 406.848053,163.841353 408.467424,163.470278 L403.895534,182.475863 Z M399.898012,174.712125 C399.898012,179.526488 396.369204,184.711927 393.076675,184.711927 C392.450441,184.711927 391.979805,184.558113 391.353572,184.121668 L390.542926,187.538251 C390.437273,187.911248 390.385407,188.190036 390.385407,188.345772 C390.385407,188.657244 390.725417,188.966794 391.065427,188.966794 L392.319816,188.966794 L392.18919,189.526291 L386.649135,189.526291 L386.779761,188.966794 L387.459781,188.966794 C388.2954,188.966794 388.426025,188.749532 389.079152,186.078945 L392.083537,173.625817 C392.18919,173.127845 392.241056,172.849058 392.241056,172.568349 C392.241056,171.980012 392.031671,171.66854 391.614823,171.66854 C391.43041,171.66854 391.299785,171.699302 390.907909,171.824276 L391.038534,171.264779 C392.292922,171.047517 392.477335,171.016755 394.64418,170.582231 L393.887321,173.625817 C395.220469,171.451278 396.16174,170.643757 397.414208,170.643757 C398.929847,170.643757 399.898012,172.228036 399.898012,174.712125 Z M397.832977,174.650599 C397.832977,173.158608 397.310476,172.133825 396.553617,172.133825 C395.898568,172.133825 395.089843,172.724085 394.461689,173.625817 C393.862348,174.525626 393.391713,175.706145 392.972943,177.413475 L391.614823,183.066122 C392.031671,183.717907 392.477335,183.998617 393.130462,183.998617 C395.324201,183.998617 397.832977,179.028517 397.832977,174.650599 Z M387.642273,170.457258 L387.19853,170.457258 C387.302262,169.77471 387.329156,169.494001 387.329156,169.059477 C387.329156,166.667677 385.682891,164.835373 383.514125,164.835373 C381.789101,164.835373 380.482846,166.171628 380.482846,167.942407 C380.482846,169.245976 381.032242,170.270759 382.755345,172.010775 C384.66286,173.966129 385.212255,174.619837 385.813517,175.675382 C386.466644,176.823216 386.779761,177.942209 386.779761,179.028517 C386.779761,180.73777 385.996008,182.475863 384.768513,183.564094 C383.802269,184.43314 382.651613,184.836901 381.266599,184.836901 C380.16973,184.836901 379.334111,184.619639 377.843444,183.904406 C377.163424,183.564094 376.95596,183.500645 376.719681,183.500645 C376.224073,183.500645 375.884063,183.873643 375.440321,184.867663 L374.994657,184.867663 L376.327805,177.196213 L376.798441,177.196213 C376.694709,178.097945 376.667815,178.470943 376.667815,178.842018 C376.667815,181.514528 378.471599,183.656382 380.770991,183.656382 C382.730372,183.656382 384.219118,181.885603 384.219118,179.588014 C384.219118,177.942209 383.64475,176.823216 381.919726,175.085123 C380.194702,173.408555 379.595362,172.724085 379.019073,171.885801 C378.417812,171.016755 378.079723,169.897761 378.079723,168.903741 C378.079723,166.077418 380.43098,163.593329 383.122249,163.593329 C384.115386,163.593329 384.924111,163.810591 386.047874,164.370087 C386.701001,164.68156 386.93728,164.773848 387.223503,164.773848 C387.772898,164.773848 388.270427,164.339325 388.583544,163.626014 L389.079152,163.626014 L387.642273,170.457258 Z M371.467771,165.052635 C371.467771,165.767868 371.024028,166.358127 370.474633,166.358127 C370.030891,166.358127 369.639015,165.954367 369.639015,165.456396 C369.639015,165.177608 369.639015,165.146846 369.952131,164.587349 C370.005918,164.525824 370.030891,164.431613 370.030891,164.40085 C370.030891,164.183589 369.796533,164.027852 369.456523,164.027852 C368.123375,164.027852 366.89588,165.860156 366.163994,168.936427 L365.693358,170.830256 L367.366516,170.830256 L367.130238,171.793513 L365.483973,171.793513 L363.603351,180.239799 C362.322069,185.986657 359.997705,189.557053 357.540794,189.557053 C356.57455,189.557053 355.89453,188.905268 355.89453,188.005459 C355.89453,187.320989 356.390138,186.761492 356.966427,186.761492 C357.410169,186.761492 357.750179,187.103727 357.750179,187.569013 C357.750179,188.066985 357.540794,188.376534 357.148918,188.532271 C357.175811,188.81298 357.331409,188.966794 357.644526,188.966794 C358.558904,188.966794 359.44831,188.12851 360.074544,186.699967 C360.623939,185.42716 360.781458,184.775375 361.722729,180.239799 L363.628324,171.793513 L361.434585,171.793513 L361.668942,170.830256 L362.400829,170.830256 C363.211475,170.830256 363.707083,170.36497 364.177719,169.09024 C365.614599,165.302582 367.418382,163.345305 369.535283,163.345305 C370.659045,163.345305 371.467771,164.060538 371.467771,165.052635 Z M355.790798,182.662362 C354.45765,183.998617 353.124502,184.681164 351.897007,184.681164 C349.807,184.681164 348.421987,182.662362 348.421987,179.682225 C348.421987,175.085123 351.791354,170.488021 355.189537,170.488021 C357.227677,170.488021 358.664557,172.568349 358.664557,175.488883 C358.664557,178.159471 357.59266,180.830058 355.790798,182.662362 Z M356.678282,174.246839 C356.678282,172.506823 355.946396,171.264779 354.928286,171.264779 C353.935148,171.264779 352.942011,172.0723 352.131365,173.595054 C351.061389,175.581171 350.302609,178.624757 350.302609,180.924269 C350.302609,182.756573 351.007602,183.904406 352.131365,183.904406 C353.230155,183.904406 354.196399,183.004597 355.032018,181.233819 C356.000183,179.153491 356.678282,176.265641 356.678282,174.246839 Z M336.60999,181.701027 C336.506258,182.13555 336.454392,182.508548 336.454392,182.756573 C336.454392,183.004597 336.636883,183.160333 336.898134,183.160333 C337.499395,183.160333 338.021897,182.662362 338.963168,181.203056 L339.355045,181.545291 C337.918165,183.842881 336.819375,184.836901 335.670639,184.836901 C335.121244,184.836901 334.729368,184.277404 334.729368,183.500645 C334.729368,183.004597 334.729368,183.004597 335.121244,181.328029 C335.17311,181.016557 335.251869,180.707007 335.303735,180.364772 C334.337491,181.949051 333.73623,182.756573 333.004344,183.469883 C332.195618,184.246641 331.202481,184.74269 330.470594,184.74269 C329.110553,184.74269 328.171203,183.191096 328.171203,180.893506 C328.171203,176.171431 332.247484,170.518783 335.670639,170.518783 C336.427498,170.518783 336.871241,170.76873 337.472502,171.482041 L338.778756,165.954367 C338.857516,165.673657 338.909381,165.425633 338.909381,165.271819 C338.909381,164.898821 338.571292,164.587349 338.179416,164.587349 C338.04879,164.587349 337.891272,164.618112 337.681887,164.648874 L337.36877,164.68156 L337.499395,164.0913 C339.301258,163.935564 339.589402,163.874039 341.156907,163.501041 L336.60999,181.701027 Z M336.846268,173.035557 C336.846268,171.980012 336.323766,171.35899 335.434361,171.35899 C334.389357,171.35899 333.213728,172.476061 332.141831,174.525626 C331.071856,176.605954 330.418728,178.874703 330.418728,180.612796 C330.418728,182.04134 330.887443,182.910386 331.646223,182.910386 C332.456869,182.910386 333.972509,181.328029 334.911859,179.46304 C335.956863,177.44616 336.846268,174.4641 336.846268,173.035557 Z M328.509292,171.980012 C328.509292,173.097083 327.856165,174.121865 327.176144,174.121865 C326.732402,174.121865 326.419285,173.781553 326.367419,173.283582 C326.313632,172.941347 326.261766,172.818296 326.158034,172.818296 C326.027409,172.818296 325.478013,173.595054 325.059244,174.36989 C323.831749,176.575191 322.185484,181.264581 321.532357,184.340852 L319.52111,184.340852 L322.185484,173.314344 C322.343003,172.662559 322.446735,172.164588 322.446735,172.010775 C322.446735,171.699302 322.160512,171.420515 321.872367,171.420515 C321.741742,171.420515 321.611116,171.420515 321.453598,171.451278 L320.852336,171.576251 L320.982962,170.922544 C322.813639,170.705282 323.099862,170.67452 324.721154,170.36497 L323.099862,177.0424 C324.590529,172.974032 326.313632,170.301522 327.464288,170.301522 C328.06555,170.301522 328.509292,171.016755 328.509292,171.980012 Z M314.922326,182.010577 L314.843566,182.289364 C314.7917,182.570074 314.764807,182.662362 314.764807,182.787335 C314.764807,183.03536 314.87046,183.160333 315.104817,183.160333 C315.54856,183.160333 316.22858,182.4451 316.960467,181.172293 L317.300477,181.576054 C315.967329,183.812118 314.922326,184.806138 313.902295,184.806138 C313.224195,184.806138 312.805426,184.277404 312.805426,183.408357 C312.805426,183.004597 312.805426,183.004597 313.170408,181.358792 C313.224195,181.110768 313.276061,180.893506 313.327927,180.674322 C312.33479,182.258601 311.839182,182.910386 311.080401,183.533331 C310.244783,184.246641 309.251645,184.711927 308.494786,184.711927 C307.161638,184.711927 306.24726,183.346832 306.24726,181.358792 C306.24726,176.669402 310.271676,170.612994 313.379793,170.612994 C314.372931,170.612994 315.026058,171.35899 315.262336,172.724085 L315.654213,171.047517 L317.640488,170.736045 L314.922326,182.010577 Z M314.7917,173.439318 C314.7917,172.228036 314.269199,171.512803 313.431659,171.512803 C312.440443,171.512803 311.447305,172.383772 310.454168,174.091103 C309.069154,176.513666 308.258508,178.966992 308.258508,180.830058 C308.258508,182.197076 308.756037,182.910386 309.670415,182.910386 C310.402302,182.910386 311.31668,182.258601 312.152298,181.14153 C313.641044,179.184253 314.7917,175.798433 314.7917,173.439318 Z M301.621583,182.662362 C300.288436,183.998617 298.957209,184.681164 297.727793,184.681164 C295.637786,184.681164 294.252772,182.662362 294.252772,179.682225 C294.252772,175.085123 297.624061,170.488021 301.020322,170.488021 C303.058463,170.488021 304.495343,172.568349 304.495343,175.488883 C304.495343,178.159471 303.425367,180.830058 301.621583,182.662362 Z M302.510989,174.246839 C302.510989,172.506823 301.779102,171.264779 300.759071,171.264779 C299.765934,171.264779 298.772796,172.0723 297.964071,173.595054 C296.892174,175.581171 296.135315,178.624757 296.135315,180.924269 C296.135315,182.756573 296.840308,183.904406 297.964071,183.904406 C299.060941,183.904406 300.027185,183.004597 300.864724,181.233819 C301.830968,179.153491 302.510989,176.265641 302.510989,174.246839 Z M291.056291,172.062687 C290.433899,172.685632 289.861452,172.997104 288.566724,173.402787 C290.383954,174.242994 291.231099,175.613857 291.231099,177.701875 C291.231099,179.912945 290.259092,181.999041 288.691586,183.152642 C287.346913,184.117822 286.152074,184.365847 282.565638,184.365847 L277.811256,184.365847 L277.936119,183.80635 C279.578542,183.775587 280.053019,183.275693 280.550548,181.095386 L283.835394,166.70613 C283.960256,166.238922 284.010201,165.771713 284.010201,165.429478 C284.010201,164.464298 283.537645,164.152826 282.143026,164.152826 L282.267889,163.591406 L287.894387,163.591406 C289.511837,163.591406 290.656731,163.964404 291.45393,164.743085 C292.201184,165.460241 292.698714,166.800341 292.698714,168.046231 C292.698714,169.478619 292.051349,171.097507 291.056291,172.062687 Z M284.507731,173.931521 L282.442696,182.902695 C283.115033,183.119957 283.437755,183.183405 283.960256,183.183405 C286.724521,183.183405 288.666614,180.816599 288.666614,177.421166 C288.666614,175.021675 287.52172,173.900758 285.080177,173.900758 C284.982208,173.900758 284.757456,173.900758 284.507731,173.931521 Z M290.334009,167.796284 C290.334009,165.865924 289.289006,164.743085 287.446803,164.743085 C287.097188,164.743085 286.947353,164.775771 286.574686,164.868059 L284.757456,172.841368 C285.20504,172.874053 285.677597,172.904816 285.952294,172.904816 C288.566724,172.904816 290.334009,170.849482 290.334009,167.796284 Z M238.412321,170.830256 L238.177963,171.793513 L236.479833,171.793513 L234.180441,181.389555 C233.91919,182.600836 233.91919,182.600836 233.91919,182.787335 C233.91919,183.03536 234.101681,183.252621 234.33796,183.252621 C234.754809,183.252621 235.513589,182.414337 236.297341,181.14153 L236.583565,181.576054 C235.329176,183.750592 234.284173,184.74269 233.291035,184.74269 C232.534176,184.74269 232.011674,184.121668 232.011674,183.221858 C232.011674,182.756573 232.1423,181.949051 232.324791,181.14153 L234.599211,171.793513 L232.795427,171.793513 L233.004812,170.830256 C234.572317,170.426495 235.513589,169.618974 236.950468,167.413673 L237.55173,167.413673 L236.71419,170.830256 L238.412321,170.830256 Z M229.714204,175.05436 L229.295434,175.05436 C229.322327,174.77365 229.322327,174.587151 229.322327,174.433338 C229.322327,172.662559 228.407949,171.326304 227.153561,171.326304 C226.291049,171.326304 225.637922,172.133825 225.637922,173.191293 C225.637922,174.06034 225.926066,174.712125 227.126667,176.388692 C228.563547,178.407495 228.982317,179.370752 228.982317,180.707007 C228.982317,182.943071 227.414812,184.74269 225.45543,184.74269 C224.802303,184.74269 224.566025,184.681164 223.33853,184.185116 C223.156038,184.121668 222.973547,184.090905 222.816028,184.090905 C222.502911,184.090905 222.293526,184.246641 222.084142,184.711927 L221.588533,184.711927 L222.32042,179.991774 L222.737269,179.991774 C222.764162,182.383575 223.730406,183.998617 225.11542,183.998617 C226.239183,183.998617 227.205427,182.818098 227.205427,181.45108 C227.205427,180.551271 226.788578,179.588014 225.741654,178.097945 C224.331667,176.140668 224.018551,175.36391 224.018551,173.966129 C224.018551,172.0723 225.324805,170.488021 226.919204,170.488021 C227.518544,170.488021 228.067939,170.67452 228.74796,171.109043 C228.957344,171.234016 229.139836,171.295542 229.243568,171.295542 C229.479846,171.295542 229.741097,171.07828 230.002348,170.612994 L230.367331,170.612994 L229.714204,175.05436 Z M221.48288,166.761888 C221.48288,167.630934 220.881619,168.346167 220.151654,168.346167 C219.419767,168.346167 218.818506,167.630934 218.818506,166.761888 C218.818506,165.860156 219.419767,165.177608 220.176626,165.177608 C220.881619,165.177608 221.48288,165.892841 221.48288,166.761888 Z M220.489743,170.426495 L217.642877,182.289364 C217.591011,182.475863 217.564117,182.631599 217.564117,182.72581 C217.564117,182.943071 217.746609,183.12957 217.955994,183.12957 C218.320977,183.12957 219.131623,182.258601 219.78475,181.110768 L219.967241,181.762553 C218.609121,183.750592 217.460385,184.775375 216.649739,184.775375 C216.073451,184.775375 215.550949,184.215878 215.550949,183.594856 C215.550949,183.346832 215.604736,182.973834 215.708468,182.539311 L217.852262,173.718105 C218.00786,173.004795 218.059726,172.724085 218.059726,172.383772 C218.059726,171.885801 217.852262,171.66854 217.381626,171.66854 C217.120375,171.66854 216.935963,171.699302 216.519114,171.793513 L216.649739,171.203254 C217.825368,171.109043 219.183489,170.830256 220.489743,170.426495 Z M214.872849,171.980012 C214.872849,173.097083 214.219722,174.121865 213.539701,174.121865 C213.095959,174.121865 212.782842,173.781553 212.730976,173.283582 C212.677189,172.941347 212.625323,172.818296 212.521591,172.818296 C212.390966,172.818296 211.841571,173.595054 211.422801,174.36989 C210.195306,176.575191 208.549042,181.264581 207.895914,184.340852 L205.884667,184.340852 L208.549042,173.314344 C208.70656,172.662559 208.810292,172.164588 208.810292,172.010775 C208.810292,171.699302 208.522148,171.420515 208.235925,171.420515 C208.105299,171.420515 207.974674,171.420515 207.817155,171.451278 L207.215894,171.576251 L207.346519,170.922544 C209.177196,170.705282 209.46342,170.67452 211.084712,170.36497 L209.46342,177.0424 C210.954086,172.974032 212.677189,170.301522 213.827846,170.301522 C214.429107,170.301522 214.872849,171.016755 214.872849,171.980012 Z M201.495268,181.078082 C201.441481,181.297267 201.389615,181.545291 201.337749,181.793315 L201.207124,182.508548 C201.18023,182.631599 201.155258,182.72581 201.155258,182.787335 C201.155258,183.004597 201.310856,183.191096 201.495268,183.191096 C201.833358,183.191096 202.434619,182.600836 203.139612,181.606816 L203.37589,182.010577 C202.279021,183.717907 201.024632,184.74269 200.056467,184.74269 C199.508993,184.74269 199.090223,184.246641 199.090223,183.625619 C199.090223,183.283384 199.168983,182.787335 199.299608,182.197076 L200.292746,178.128708 C198.828973,180.768533 198.072113,181.918289 197.052083,183.066122 C196.033973,184.185116 195.17146,184.74269 194.41268,184.74269 C193.577062,184.74269 193.05456,183.937091 193.05456,182.631599 C193.05456,182.227838 193.079533,181.918289 193.158292,181.606816 L195.17146,173.314344 C195.223326,173.035557 195.275192,172.787533 195.275192,172.662559 C195.275192,172.383772 195.092701,172.164588 194.856423,172.164588 C194.464546,172.164588 194.230189,172.383772 193.419543,173.531606 C193.315811,173.718105 193.185186,173.873841 193.05456,174.06034 L192.766416,173.718105 C194.439574,171.264779 195.196433,170.582231 196.18957,170.582231 C196.817725,170.582231 197.234574,171.07828 197.234574,171.793513 C197.234574,172.0723 197.155814,172.631797 197.078976,172.974032 L195.17146,180.893506 C195.040835,181.45108 194.987048,181.762553 194.987048,182.072102 C194.987048,182.631599 195.275192,182.943071 195.797694,182.943071 C196.529581,182.943071 197.601478,181.793315 198.907732,179.682225 C200.396478,177.196213 200.684622,176.482903 201.416509,173.500843 L202.042742,170.891781 L203.977151,170.891781 L201.495268,181.078082 Z M187.618237,182.662362 C186.28701,183.998617 184.953862,184.681164 183.726367,184.681164 C181.63636,184.681164 180.249426,182.662362 180.249426,179.682225 C180.249426,175.085123 183.620714,170.488021 187.018897,170.488021 C189.057038,170.488021 190.493917,172.568349 190.493917,175.488883 C190.493917,178.159471 189.42202,180.830058 187.618237,182.662362 Z M188.507642,174.246839 C188.507642,172.506823 187.775756,171.264779 186.757646,171.264779 C185.764508,171.264779 184.771371,172.0723 183.960725,173.595054 C182.888828,175.581171 182.131969,178.624757 182.131969,180.924269 C182.131969,182.756573 182.836962,183.904406 183.960725,183.904406 C185.057594,183.904406 186.025759,183.004597 186.861378,181.233819 C187.827622,179.153491 188.507642,176.265641 188.507642,174.246839 Z M182.938773,169.09024 L182.495031,169.09024 C182.65255,168.221194 182.704415,167.600172 182.704415,166.948387 C182.704415,165.581369 182.024395,164.898821 180.666275,164.898821 L178.132525,164.898821 L174.211841,181.233819 C174.081216,181.701027 174.02935,182.166313 174.02935,182.508548 C174.02935,183.03536 174.263707,183.43912 174.682477,183.625619 C174.943728,183.750592 175.335604,183.781355 176.092463,183.781355 L176.353714,183.781355 L176.198116,184.340852 L168.671786,184.340852 L168.802412,183.781355 C170.736821,183.781355 171.232429,183.346832 171.754931,181.078082 L175.648721,164.898821 L174.002457,164.898821 C172.304326,164.898821 171.286216,165.333345 170.39681,166.481178 C169.874309,167.104123 169.613058,167.755908 169.324913,169.09024 L168.829305,169.09024 L170.13556,163.626014 L184.245027,163.626014 L182.938773,169.09024 Z" id="Combined-Shape"></path>
        </g>
    </g>
</svg>