<?xml version="1.0" encoding="UTF-8"?>
<svg width="169px" height="176px" viewBox="0 0 169 176" version="1.1" xmlns="http://www.w3.org/2000/svg" xmlns:xlink="http://www.w3.org/1999/xlink">
    <!-- Generator: Sketch 54 (76480) - https://sketchapp.com -->
    <title>Group</title>
    <desc>Created with Sketch.</desc>
    <g id="Page-1" stroke="none" stroke-width="1" fill="none" fill-rule="evenodd">
        <g id="Ucinkoviti-ljudski-potencijali-logo" transform="translate(-265.000000, -92.000000)">
            <g id="Group" transform="translate(265.815400, 92.164414)">
                <path d="M43.1296,60.8205858 L69.8086,60.8205858 L69.8086,34.1475858 L43.1296,34.1475858 L43.1296,60.8205858 Z M45.7046,36.6825858 L67.3016,36.6825858 L67.3016,58.1595858 L64.6016,39.5425858 L45.7046,36.6825858 Z" id="Fill-1" fill="#FFFFFF"></path>
                <path d="M75.1524,30.4913858 C69.9894,28.4643858 62.1724,25.8873858 51.6374,24.6323858 C58.9964,5.50638578 63.6874,-10.1176142 94.6134,8.07038578 C87.6514,14.3033858 80.4864,20.3673858 75.1524,30.4913858 Z M73.5854,27.0243858 C77.7954,19.0353858 83.4464,14.2473858 88.9404,9.33238578 C64.5374,-5.01961422 61.9764,7.56038578 56.1714,22.6513858 C64.4854,23.6433858 69.5094,25.4223858 73.5854,27.0243858 Z M76.3311,34.3282858 C90.5331,34.1132858 106.0981,27.5502858 112.7021,20.9402858 C111.9431,51.8112858 101.9101,54.1132858 82.4061,60.4052858 C81.7341,49.8192858 78.0711,39.5952858 76.3311,34.3282858 Z M74.8516,59.0363858 C79.3436,62.2893858 90.1246,67.9963858 97.1006,73.2383858 C95.5686,89.1543858 88.0526,98.2723858 58.4056,89.6363858 C66.2016,83.5733858 77.6816,70.2243858 74.8516,59.0363858 Z M77.1206,63.7163858 C79.4666,72.9883858 70.2066,83.2893858 63.7456,88.3093858 C86.7936,95.2153858 92.0076,86.9023858 93.5286,74.4713858 C87.7506,70.1283858 80.8436,66.4143858 77.1206,63.7163858 Z M53.126,76.1398858 C42.158,80.2588858 23.114,93.1398858 0,72.6638858 C5.7,70.8378858 10.947,70.9638858 14.713,67.9728858 C28.473,57.0388858 32.837,46.7298858 53.126,76.1398858 Z M47.699,74.9708858 C31.555,51.5728858 29.097,60.7868858 18.147,69.4878858 C15.15,71.8668858 10.977,71.7648858 6.44,73.2218858 C25.086,87.9928858 38.97,78.2478858 47.699,74.9708858 Z M47.0098,30.1446858 C35.7808,33.0746858 28.5548,39.3566858 19.0368,57.4606858 C-4.8702,35.0646858 16.9708,15.6556858 38.4968,11.5956858 C41.9718,20.6776858 44.5048,23.4726858 47.0098,30.1446858 Z M42.7968,28.7116858 C40.9058,23.6816858 38.9978,21.5766858 36.3808,14.7276858 C20.1558,17.7896858 1.1618,35.2026858 19.1838,52.0806858 C26.3558,38.4376858 34.3318,30.9176858 42.7968,28.7116858 Z M92.6787,34.0948858 C92.6787,34.0948858 93.1857,40.4958858 93.2047,40.7488858 C92.9747,40.8578858 86.6537,43.7818858 86.6537,43.7818858 C86.6537,43.7818858 93.4257,45.4078858 93.6727,45.4668858 C93.7017,45.7188858 94.5327,52.6338858 94.5327,52.6338858 C94.5327,52.6338858 98.1707,46.6968858 98.3047,46.4798858 C98.5537,46.5278858 105.3867,47.8758858 105.3867,47.8758858 C105.3867,47.8758858 100.8657,42.5798858 100.6997,42.3858858 C100.8237,42.1638858 104.2167,36.0818858 104.2167,36.0818858 C104.2167,36.0818858 97.7807,38.7498858 97.5457,38.8468858 C97.3717,38.6598858 92.6367,33.5498858 92.6367,33.5498858 L92.6787,34.0948858 Z" id="Combined-Shape" fill="#FFFFFF"></path>
                <path d="M56.8194,67.4474858 L56.8194,172.650486" id="Stroke-70" stroke="#FFFFFF" stroke-width="3.606"></path>
                <path d="M90.3164,125.760986 C90.3164,125.979986 90.1524,126.088986 89.9524,126.125986 C89.1854,126.273986 88.4724,126.364986 86.9204,126.364986 C84.6734,126.364986 82.0974,125.157986 82.0974,120.720986 L82.0974,118.182986 C82.0974,113.706986 84.6734,112.537986 86.9204,112.537986 C88.0704,112.537986 89.1854,112.701986 89.9884,112.829986 C90.1524,112.848986 90.2804,112.903986 90.2804,113.067986 L90.2804,113.998986 C90.2804,114.109986 90.2444,114.198986 90.0614,114.198986 L90.0054,114.198986 C89.3494,114.145986 87.9984,114.034986 86.9384,114.034986 C85.1484,114.034986 83.7604,115.076986 83.7604,118.182986 L83.7604,120.720986 C83.7604,123.788986 85.1484,124.865986 86.9384,124.865986 C87.9794,124.865986 89.2954,124.775986 89.9524,124.718986 L90.0244,124.718986 C90.2254,124.718986 90.3164,124.811986 90.3164,125.012986 L90.3164,125.760986 Z M90.2254,109.012986 C90.2254,109.067986 90.2074,109.141986 90.1524,109.196986 L88.3804,111.459986 C88.2164,111.660986 88.1434,111.735986 87.9244,111.735986 L86.3724,111.735986 C86.1534,111.735986 86.0984,111.660986 85.9344,111.459986 L84.1444,109.196986 C84.0894,109.141986 84.0704,109.067986 84.0704,109.012986 C84.0704,108.940986 84.1254,108.885986 84.2364,108.885986 L85.2204,108.885986 C85.4214,108.885986 85.4764,108.994986 85.6404,109.177986 L87.1574,110.930986 L88.6544,109.177986 C88.8194,108.994986 88.8754,108.885986 89.0744,108.885986 L90.0614,108.885986 C90.1704,108.885986 90.2254,108.940986 90.2254,109.012986 Z M94.2246,125.870286 C94.2246,126.053286 94.0976,126.235286 93.8966,126.235286 L92.8926,126.235286 C92.7096,126.235286 92.5626,126.071286 92.5626,125.870286 L92.5626,113.013286 C92.5626,112.830286 92.6916,112.666286 92.8926,112.666286 L93.8966,112.666286 C94.0796,112.666286 94.2246,112.811286 94.2246,113.013286 L94.2246,125.870286 Z M106.8272,125.706286 C106.8272,125.998286 106.5902,126.235286 106.2982,126.235286 L105.1652,126.235286 C104.8732,126.235286 104.6732,126.126286 104.5812,125.943286 L98.9372,115.224286 C98.9202,115.186286 98.9002,115.169286 98.8832,115.169286 C98.8652,115.169286 98.8652,115.186286 98.8652,115.224286 L98.8652,125.889286 C98.8652,126.071286 98.7182,126.235286 98.5352,126.235286 L97.5862,126.235286 C97.4042,126.235286 97.2582,126.199286 97.2582,126.017286 L97.2582,113.177286 C97.2582,112.885286 97.4942,112.666286 97.7872,112.666286 L98.7912,112.666286 C99.3032,112.666286 99.3942,112.757286 99.5412,113.030286 L105.1472,123.697286 L105.1832,123.752286 C105.2022,123.752286 105.2022,123.716286 105.2022,123.697286 L105.2022,113.013286 C105.2022,112.830286 105.3482,112.666286 105.5312,112.666286 L106.4992,112.666286 C106.6992,112.666286 106.8272,112.830286 106.8272,113.013286 L106.8272,125.706286 Z M118.5528,126.052986 C118.5528,126.143986 118.4808,126.235986 118.3158,126.235986 L116.8908,126.235986 C116.7268,126.235986 116.5988,126.180986 116.4888,126.052986 L111.3388,119.787986 L111.3388,125.869986 C111.3388,126.052986 111.2108,126.235986 111.0098,126.235986 L110.0048,126.235986 C109.8228,126.235986 109.6768,126.071986 109.6768,125.869986 L109.6768,113.012986 C109.6768,112.829986 109.8228,112.665986 110.0238,112.665986 L110.9908,112.665986 C111.1738,112.665986 111.3388,112.811986 111.3388,113.012986 L111.3388,118.911986 L116.5988,112.829986 C116.7078,112.720986 116.7808,112.665986 116.9628,112.665986 L118.2788,112.665986 C118.4608,112.665986 118.5348,112.756986 118.5348,112.865986 C118.5348,112.920986 118.5158,112.993986 118.4608,113.050986 L112.9638,119.258986 L118.4608,125.833986 C118.5158,125.888986 118.5528,125.979986 118.5528,126.052986 Z M129.4561,120.629086 C129.4561,124.683086 127.3931,126.364086 124.5251,126.364086 C121.6571,126.364086 119.5751,124.683086 119.5751,120.629086 L119.5751,118.274086 C119.5751,114.219086 121.6571,112.538086 124.5251,112.538086 C127.3931,112.538086 129.4561,114.219086 129.4561,118.274086 L129.4561,120.629086 Z M127.7761,120.629086 L127.7761,118.274086 C127.7761,115.205086 126.5331,114.035086 124.5251,114.035086 C122.5341,114.035086 121.2561,115.205086 121.2561,118.274086 L121.2561,120.629086 C121.2561,123.697086 122.5171,124.866086 124.5251,124.866086 C126.5161,124.866086 127.7761,123.697086 127.7761,120.629086 Z M141.2539,112.975786 C141.2539,113.012786 141.2539,113.050786 141.2359,113.086786 L137.8759,124.975786 C137.5469,126.125786 136.7069,126.364786 136.0129,126.364786 C135.3379,126.364786 134.4789,126.125786 134.1499,124.975786 L130.7719,113.086786 C130.7529,113.050786 130.7529,113.012786 130.7529,112.975786 C130.7529,112.793786 130.8999,112.665786 131.0809,112.665786 L132.1419,112.665786 C132.2869,112.665786 132.4339,112.793786 132.4699,112.939786 L135.6479,124.573786 C135.7209,124.829786 135.8129,124.957786 136.0129,124.957786 C136.1949,124.957786 136.2859,124.829786 136.3589,124.573786 L139.5559,112.939786 C139.5929,112.793786 139.7209,112.665786 139.8659,112.665786 L140.9439,112.665786 C141.1269,112.665786 141.2539,112.793786 141.2539,112.975786 Z M145.1446,125.870286 C145.1446,126.053286 145.0176,126.235286 144.8156,126.235286 L143.8116,126.235286 C143.6286,126.235286 143.4826,126.071286 143.4826,125.870286 L143.4826,113.013286 C143.4826,112.830286 143.6116,112.666286 143.8116,112.666286 L144.8156,112.666286 C144.9986,112.666286 145.1446,112.811286 145.1446,113.013286 L145.1446,125.870286 Z M156.8887,113.798986 C156.8887,113.980986 156.7427,114.089986 156.5407,114.089986 L152.9797,114.089986 L152.9797,125.869986 C152.9797,126.052986 152.8517,126.235986 152.6517,126.235986 L151.6467,126.235986 C151.4647,126.235986 151.3177,126.070986 151.3177,125.869986 L151.3177,114.089986 L147.7567,114.089986 C147.5557,114.089986 147.3917,113.998986 147.3917,113.798986 L147.3917,112.993986 C147.3917,112.811986 147.5557,112.665986 147.7567,112.665986 L156.5407,112.665986 C156.7427,112.665986 156.8887,112.793986 156.8887,112.993986 L156.8887,113.798986 Z M160.7969,125.870286 C160.7969,126.053286 160.6689,126.235286 160.4679,126.235286 L159.4629,126.235286 C159.2799,126.235286 159.1349,126.071286 159.1349,125.870286 L159.1349,113.013286 C159.1349,112.830286 159.2629,112.666286 159.4629,112.666286 L160.4679,112.666286 C160.6509,112.666286 160.7969,112.811286 160.7969,113.013286 L160.7969,125.870286 Z M79.7783,121.140786 C79.7783,125.304786 77.4043,126.399786 74.5013,126.399786 C71.5963,126.399786 69.2403,125.304786 69.2403,121.140786 L69.2403,113.012786 C69.2403,112.811786 69.4043,112.665786 69.6063,112.665786 L71.9983,112.665786 C72.1993,112.665786 72.3633,112.811786 72.3633,113.012786 L72.3633,121.140786 C72.3633,123.002786 72.8573,123.788786 74.5013,123.788786 C76.1443,123.788786 76.6553,123.002786 76.6553,121.140786 L76.6553,113.012786 C76.6553,112.811786 76.8203,112.665786 77.0203,112.665786 L79.3943,112.665786 C79.5963,112.665786 79.7783,112.811786 79.7783,113.012786 L79.7783,121.140786 Z M77.0938,148.843986 C77.0938,149.080986 76.9848,149.172986 76.7288,149.227986 C76.1248,149.355986 74.7198,149.464986 73.7518,149.464986 C71.3968,149.464986 69.2948,148.862986 69.2948,145.538986 L69.2948,136.095986 C69.2948,135.895986 69.4588,135.730986 69.6608,135.730986 L72.0528,135.730986 C72.2538,135.730986 72.4178,135.895986 72.4178,136.095986 L72.4178,145.538986 C72.4178,146.489986 72.7288,146.780986 73.5868,146.780986 L76.7288,146.780986 C76.9298,146.780986 77.0938,146.945986 77.0938,147.145986 L77.0938,148.843986 Z M81.8975,149.410386 C81.8975,151.894386 80.4725,152.569386 78.6285,152.569386 C78.2095,152.569386 77.9535,152.552386 77.4595,152.497386 C77.2935,152.478386 77.1845,152.350386 77.1845,152.186386 L77.1845,150.323386 C77.1845,150.196386 77.2595,150.068386 77.3855,150.068386 L78.2995,150.068386 C78.7195,150.068386 78.7745,149.867386 78.7745,149.410386 L78.7745,136.078386 C78.7745,135.877386 78.9385,135.730386 79.1385,135.730386 L81.5325,135.730386 C81.7325,135.730386 81.8975,135.877386 81.8975,136.078386 L81.8975,149.410386 Z M93.8965,144.369386 C93.8965,147.857386 92.1795,149.429386 89.2205,149.429386 C86.2625,149.429386 84.5455,147.857386 84.5455,144.369386 L84.5455,136.078386 C84.5455,135.895386 84.6925,135.730386 84.8925,135.730386 L85.8785,135.730386 C86.0605,135.730386 86.2255,135.877386 86.2255,136.078386 L86.2255,144.369386 C86.2255,146.725386 86.9565,148.004386 89.2205,148.004386 C91.4865,148.004386 92.2165,146.744386 92.2165,144.369386 L92.2165,136.078386 C92.2165,135.895386 92.3635,135.730386 92.5625,135.730386 L93.5495,135.730386 C93.7325,135.730386 93.8965,135.877386 93.8965,136.078386 L93.8965,144.369386 Z M105.9326,143.749186 C105.9326,147.657186 103.7776,149.429186 100.3986,149.429186 C99.0096,149.429186 97.6046,149.337186 97.0746,149.246186 C96.8366,149.209186 96.6906,149.063186 96.6906,148.789186 L96.6906,136.242186 C96.6906,135.986186 96.8366,135.822186 97.0746,135.786186 C97.6046,135.694186 99.0096,135.603186 100.3986,135.603186 C103.7776,135.603186 105.9326,137.338186 105.9326,141.283186 L105.9326,143.749186 Z M104.2706,143.749186 L104.2706,141.283186 C104.2706,137.977186 102.5906,137.028186 100.3986,137.028186 C99.5396,137.028186 98.9746,137.046186 98.3706,137.082186 L98.3706,147.967186 C98.9546,148.004186 99.5396,148.004186 100.3986,148.004186 C102.5906,148.004186 104.2706,147.036186 104.2706,143.749186 Z M116.1055,145.775586 C116.1055,147.529586 115.1935,149.428586 111.5935,149.428586 C110.3165,149.428586 109.3665,149.300586 108.5625,149.172586 C108.2515,149.118586 108.2155,149.045586 108.2155,148.843586 L108.2155,148.114586 C108.2155,147.912586 108.3615,147.821586 108.5255,147.821586 L108.5805,147.821586 C109.4205,147.893586 110.7545,147.930586 111.5935,147.930586 C113.7855,147.930586 114.3705,147.054586 114.3705,145.775586 C114.3705,144.863586 113.8395,144.351586 112.1795,143.329586 L110.4065,142.251586 C108.7265,141.227586 107.8865,140.296586 107.8865,138.836586 C107.8865,136.626586 109.4755,135.602586 112.2515,135.602586 C113.3295,135.602586 114.7355,135.712586 115.4295,135.822586 C115.6115,135.858586 115.7405,135.950586 115.7405,136.132586 L115.7405,136.918586 C115.7405,137.100586 115.6115,137.210586 115.4295,137.210586 L115.3925,137.210586 C114.5895,137.155586 113.3105,137.100586 112.2515,137.100586 C110.3715,137.100586 109.5675,137.503586 109.5675,138.836586 C109.5675,139.693586 110.1695,140.206586 111.5575,141.045586 L113.2385,142.050586 C115.3575,143.310586 116.1055,144.314586 116.1055,145.775586 Z M127.3194,149.118386 C127.3194,149.209386 127.2474,149.301386 127.0834,149.301386 L125.6574,149.301386 C125.4924,149.301386 125.3654,149.246386 125.2564,149.118386 L120.1044,142.853386 L120.1044,148.935386 C120.1044,149.118386 119.9764,149.301386 119.7764,149.301386 L118.7714,149.301386 C118.5904,149.301386 118.4424,149.136386 118.4424,148.935386 L118.4424,136.078386 C118.4424,135.895386 118.5904,135.730386 118.7914,135.730386 L119.7574,135.730386 C119.9404,135.730386 120.1044,135.877386 120.1044,136.078386 L120.1044,141.977386 L125.3654,135.895386 C125.4744,135.786386 125.5484,135.730386 125.7304,135.730386 L127.0454,135.730386 C127.2284,135.730386 127.3014,135.822386 127.3014,135.931386 C127.3014,135.986386 127.2834,136.059386 127.2284,136.114386 L121.7304,142.324386 L127.2284,148.899386 C127.2834,148.953386 127.3194,149.045386 127.3194,149.118386 Z M131.3741,148.935786 C131.3741,149.118786 131.2461,149.300786 131.0451,149.300786 L130.0401,149.300786 C129.8571,149.300786 129.7121,149.135786 129.7121,148.935786 L129.7121,136.078786 C129.7121,135.895786 129.8401,135.730786 130.0401,135.730786 L131.0451,135.730786 C131.2281,135.730786 131.3741,135.876786 131.3741,136.078786 L131.3741,148.935786 Z M79.3028,163.197486 C79.3028,166.613486 76.5828,167.617486 73.8618,167.617486 C73.4228,167.617486 72.8378,167.580486 72.3818,167.562486 L72.3818,172.001486 C72.3818,172.201486 72.2168,172.365486 72.0168,172.365486 L69.6608,172.365486 C69.4588,172.365486 69.2948,172.219486 69.2948,172.018486 L69.2948,159.745486 C69.2948,159.124486 69.5518,158.960486 70.1178,158.869486 C71.0488,158.722486 72.5098,158.632486 73.8248,158.632486 C76.5828,158.632486 79.3028,159.598486 79.3028,163.032486 L79.3028,163.197486 Z M76.1998,163.197486 L76.1998,163.032486 C76.1998,161.735486 75.3958,161.224486 73.8618,161.224486 C73.6068,161.224486 72.6018,161.260486 72.3818,161.279486 L72.3818,165.006486 C72.5818,165.024486 73.6598,165.041486 73.8618,165.041486 C75.4868,165.041486 76.1998,164.438486 76.1998,163.197486 Z M90.8828,166.758986 C90.8828,170.813986 88.8198,172.492986 85.9508,172.492986 C83.0848,172.492986 81.0018,170.813986 81.0018,166.758986 L81.0018,164.402986 C81.0018,160.348986 83.0848,158.667986 85.9508,158.667986 C88.8198,158.667986 90.8828,160.348986 90.8828,164.402986 L90.8828,166.758986 Z M89.2028,166.758986 L89.2028,164.402986 C89.2028,161.333986 87.9608,160.165986 85.9508,160.165986 C83.9608,160.165986 82.6818,161.333986 82.6818,164.402986 L82.6818,166.758986 C82.6818,169.825986 83.9428,170.995986 85.9508,170.995986 C87.9438,170.995986 89.2028,169.825986 89.2028,166.758986 Z M101.294,159.927986 C101.294,160.111986 101.148,160.220986 100.946,160.220986 L97.385,160.220986 L97.385,172.000986 C97.385,172.183986 97.258,172.365986 97.056,172.365986 L96.052,172.365986 C95.87,172.365986 95.723,172.200986 95.723,172.000986 L95.723,160.220986 L92.161,160.220986 C91.961,160.220986 91.796,160.129986 91.796,159.927986 L91.796,159.123986 C91.796,158.942986 91.961,158.795986 92.161,158.795986 L100.946,158.795986 C101.148,158.795986 101.294,158.923986 101.294,159.123986 L101.294,159.927986 Z M110.4981,172.146686 C110.4981,172.255686 110.4261,172.383686 110.3161,172.402686 C109.6221,172.475686 107.8321,172.493686 106.7541,172.493686 C104.1971,172.493686 102.8641,171.526686 102.8641,169.096686 L102.8641,162.065686 C102.8641,159.635686 104.1971,158.667686 106.7541,158.667686 C107.8321,158.667686 109.5491,158.705686 110.3161,158.778686 C110.4261,158.795686 110.4981,158.923686 110.4981,159.033686 L110.4981,159.946686 C110.4981,160.073686 110.4261,160.166686 110.2971,160.166686 L106.7721,160.166686 C104.8361,160.166686 104.5261,160.676686 104.5261,162.065686 L104.5261,164.603686 L110.1331,164.603686 C110.3331,164.603686 110.4981,164.767686 110.4981,164.969686 L110.4981,165.663686 C110.4981,165.863686 110.3331,166.028686 110.1331,166.028686 L104.5261,166.028686 L104.5261,169.096686 C104.5261,170.484686 104.8361,170.996686 106.7721,170.996686 L110.2971,170.996686 C110.4261,170.996686 110.4981,171.086686 110.4981,171.214686 L110.4981,172.146686 Z M122.4981,171.836186 C122.4981,172.128186 122.2611,172.365186 121.9691,172.365186 L120.8361,172.365186 C120.5441,172.365186 120.3421,172.256186 120.2521,172.073186 L114.6071,161.353186 C114.5901,161.315186 114.5711,161.298186 114.5531,161.298186 C114.5341,161.298186 114.5341,161.315186 114.5341,161.353186 L114.5341,172.019186 C114.5341,172.201186 114.3891,172.365186 114.2061,172.365186 L113.2561,172.365186 C113.0731,172.365186 112.9281,172.329186 112.9281,172.147186 L112.9281,159.307186 C112.9281,159.015186 113.1651,158.796186 113.4571,158.796186 L114.4621,158.796186 C114.9731,158.796186 115.0641,158.888186 115.2101,159.161186 L120.8171,169.826186 L120.8541,169.883186 C120.8721,169.883186 120.8721,169.845186 120.8721,169.826186 L120.8721,159.143186 C120.8721,158.960186 121.0191,158.796186 121.2011,158.796186 L122.1681,158.796186 C122.3701,158.796186 122.4981,158.960186 122.4981,159.143186 L122.4981,171.836186 Z M133.2364,171.890786 C133.2364,172.110786 133.0724,172.219786 132.8714,172.255786 C132.1034,172.402786 131.3914,172.493786 129.8404,172.493786 C127.5934,172.493786 125.0174,171.287786 125.0174,166.850786 L125.0174,164.311786 C125.0174,159.836786 127.5934,158.667786 129.8404,158.667786 C130.9904,158.667786 132.1034,158.831786 132.9084,158.959786 C133.0724,158.978786 133.2004,159.033786 133.2004,159.197786 L133.2004,160.129786 C133.2004,160.239786 133.1634,160.329786 132.9804,160.329786 L132.9254,160.329786 C132.2684,160.275786 130.9174,160.165786 129.8574,160.165786 C128.0674,160.165786 126.6794,161.205786 126.6794,164.311786 L126.6794,166.850786 C126.6794,169.918786 128.0674,170.995786 129.8574,170.995786 C130.8994,170.995786 132.2144,170.904786 132.8714,170.849786 L132.9444,170.849786 C133.1454,170.849786 133.2364,170.941786 133.2364,171.141786 L133.2364,171.890786 Z M137.1455,172.001186 C137.1455,172.184186 137.0175,172.365186 136.8165,172.365186 L135.8125,172.365186 C135.6295,172.365186 135.4835,172.201186 135.4835,172.001186 L135.4835,159.143186 C135.4835,158.960186 135.6115,158.796186 135.8125,158.796186 L136.8165,158.796186 C136.9995,158.796186 137.1455,158.942186 137.1455,159.143186 L137.1455,172.001186 Z M142.0215,173.041186 C142.0215,174.794186 141.1995,175.653186 139.1905,175.653186 C138.7895,175.653186 138.3325,175.562186 138.2225,175.507186 C138.1495,175.471186 138.1125,175.397186 138.1125,175.307186 L138.1125,174.630186 C138.1125,174.430186 138.2775,174.319186 138.4785,174.319186 L139.1905,174.319186 C140.1585,174.319186 140.3605,173.937186 140.3605,173.041186 L140.3605,159.143186 C140.3605,158.960186 140.5245,158.796186 140.7075,158.796186 L141.6735,158.796186 C141.8575,158.796186 142.0215,158.960186 142.0215,159.143186 L142.0215,173.041186 Z M154.4776,172.073486 C154.4776,172.237486 154.3676,172.365486 154.1666,172.365486 L153.0886,172.365486 C152.9246,172.365486 152.8156,172.237486 152.7796,172.092486 L151.5916,167.890486 L146.8626,167.890486 L145.6926,172.092486 C145.6566,172.237486 145.5106,172.365486 145.3646,172.365486 L144.2866,172.365486 C144.1036,172.365486 143.9766,172.237486 143.9766,172.073486 C143.9766,172.037486 143.9766,171.982486 143.9946,171.945486 L147.3736,160.056486 C147.6836,158.942486 148.5406,158.668486 149.2356,158.668486 C149.9126,158.668486 150.7696,158.924486 151.0806,160.037486 L154.4586,171.945486 C154.4776,171.982486 154.4776,172.037486 154.4776,172.073486 Z M151.2446,166.447486 L149.5826,160.439486 C149.5276,160.239486 149.4176,160.111486 149.2356,160.111486 C149.0356,160.111486 148.9256,160.239486 148.8716,160.439486 L147.2086,166.447486 L151.2446,166.447486 Z M163.7373,172.073486 C163.7373,172.183486 163.6643,172.310486 163.5543,172.329486 C163.0803,172.402486 161.7093,172.493486 159.9923,172.493486 C158.0383,172.493486 156.1023,172.110486 156.1023,169.096486 L156.1023,159.161486 C156.1023,158.960486 156.2673,158.796486 156.4683,158.796486 L157.3993,158.796486 C157.6003,158.796486 157.7643,158.960486 157.7643,159.161486 L157.7643,169.096486 C157.7643,170.484486 158.0763,170.996486 160.0113,170.996486 L163.5363,170.996486 C163.6643,170.996486 163.7373,171.087486 163.7373,171.215486 L163.7373,172.073486 Z M167.335,172.001186 C167.335,172.184186 167.207,172.365186 167.007,172.365186 L166.002,172.365186 C165.819,172.365186 165.673,172.201186 165.673,172.001186 L165.673,159.143186 C165.673,158.960186 165.801,158.796186 166.002,158.796186 L167.007,158.796186 C167.189,158.796186 167.335,158.942186 167.335,159.143186 L167.335,172.001186 Z" id="Combined-Shape" fill="#FFFFFF"></path>
                <path d="M44.6367,114.262886 C44.6367,114.555886 44.5007,114.692886 44.1837,114.737886 C43.3907,114.851886 42.2357,115.033886 39.7877,115.033886 C36.8657,115.033886 34.2817,114.283886 34.2817,110.159886 L34.2817,102.637886 C34.2817,98.5138858 36.8867,97.7878858 39.8107,97.7878858 C42.2577,97.7878858 43.3907,97.9698858 44.1837,98.0828858 C44.5007,98.1278858 44.6367,98.2418858 44.6367,98.5358858 L44.6367,100.643886 C44.6367,100.893886 44.4337,101.096886 44.1837,101.096886 L39.5837,101.096886 C38.5197,101.096886 38.1337,101.458886 38.1337,102.637886 L38.1337,104.699886 L44.0017,104.699886 C44.2517,104.699886 44.4557,104.903886 44.4557,105.153886 L44.4557,107.305886 C44.4557,107.554886 44.2517,107.758886 44.0017,107.758886 L38.1337,107.758886 L38.1337,110.159886 C38.1337,111.338886 38.5197,111.701886 39.5837,111.701886 L44.1837,111.701886 C44.4337,111.701886 44.6367,111.905886 44.6367,112.155886 L44.6367,114.262886 Z M45.1348,138.686686 C45.1348,141.088686 43.5488,143.649686 38.9498,143.649686 C37.1598,143.649686 35.8228,143.446686 34.6678,143.151686 C34.4398,143.082686 34.2128,142.947686 34.2128,142.697686 L34.2128,140.477686 C34.2128,140.160686 34.3948,140.046686 34.6208,140.046686 L34.6898,140.046686 C35.6178,140.136686 38.1118,140.318686 38.9938,140.318686 C40.5588,140.318686 41.0118,139.819686 41.0118,138.731686 C41.0118,138.075686 40.6948,137.711686 39.5158,137.010686 L36.3888,135.151686 C34.2808,133.905686 33.7148,132.478686 33.7148,130.824686 C33.7148,128.331686 35.1198,126.405686 39.5158,126.405686 C41.1698,126.405686 43.4588,126.676686 44.3198,126.904686 C44.5008,126.949686 44.6598,127.061686 44.6598,127.311686 L44.6598,129.600686 C44.6598,129.803686 44.5698,129.985686 44.2748,129.985686 L44.2288,129.985686 C43.5938,129.939686 40.9658,129.736686 39.4248,129.736686 C38.1338,129.736686 37.6558,130.121686 37.6558,130.937686 C37.6558,131.571686 37.9518,131.866686 39.1758,132.523686 L42.0758,134.086686 C44.4338,135.356686 45.1348,136.850686 45.1348,138.686686 Z M44.6367,157.899586 C44.6367,158.149586 44.4337,158.352586 44.1837,158.352586 L39.5837,158.352586 C38.5197,158.352586 38.1337,158.715586 38.1337,159.894586 L38.1337,161.933586 L44.0017,161.933586 C44.2517,161.933586 44.4557,162.137586 44.4557,162.386586 L44.4557,164.539586 C44.4557,164.789586 44.2517,164.992586 44.0017,164.992586 L38.1337,164.992586 L38.1337,171.609586 C38.1337,171.858586 37.9297,172.062586 37.6807,172.062586 L34.7357,172.062586 C34.4867,172.062586 34.2817,171.858586 34.2817,171.609586 L34.2817,159.894586 C34.2817,155.770586 36.8867,155.045586 39.8107,155.045586 C42.2577,155.045586 43.3907,155.226586 44.1837,155.338586 C44.5007,155.384586 44.6367,155.498586 44.6367,155.793586 L44.6367,157.899586 Z" id="Combined-Shape" fill="#FFFFFF"></path>
            </g>
        </g>
    </g>
</svg>