<?xml version="1.0" encoding="UTF-8"?>
<svg width="476px" height="260px" viewBox="0 0 476 260" version="1.1" xmlns="http://www.w3.org/2000/svg" xmlns:xlink="http://www.w3.org/1999/xlink">
    <!-- Generator: Sketch 54.1 (76490) - https://sketchapp.com -->
    <title>Combined Shape</title>
    <desc>Created with Sketch.</desc>
    <g id="Page-1" stroke="none" stroke-width="1" fill="none" fill-rule="evenodd">
        <g id="logo_zicer" transform="translate(-262.000000, -370.000000)" fill="#FFFFFF">
            <g id="Group" transform="translate(262.639553, 370.112400)">
                <path d="M1.86044705,258.6571 C0.151447046,258.6571 -0.526552954,257.0011 0.449447046,255.8351 L10.109447,243.0011 L2.10544705,243.0011 C-0.255552954,243.0011 -0.0655529539,239.6631 2.10544705,239.6631 L13.039447,239.6631 C15.102447,239.6631 15.699447,241.6171 14.234447,243.1891 L4.98144705,255.2101 L13.799447,255.2101 C15.970447,255.2101 16.241447,258.6571 13.582447,258.6571 L1.86044705,258.6571 Z M29.326247,251.7646 L26.260247,245.0616 L22.922247,251.7646 L29.326247,251.7646 Z M17.658247,258.6576 C16.789247,258.1666 16.247247,257.1916 16.789247,256.0516 L24.578247,240.8286 C25.310247,239.3926 27.263247,239.3376 27.942247,240.8286 L35.594247,256.0516 C36.706247,258.1666 33.424247,259.8506 32.446247,257.7336 L31.253247,255.3456 L21.240247,255.3456 L20.074247,257.7336 C19.639247,258.6576 18.635247,258.8466 17.658247,258.6576 Z M54.080147,256.5663 C52.154147,258.1673 49.793147,258.8463 47.405147,258.8463 C41.707147,258.8463 37.664147,255.5893 37.664147,249.1333 C37.664147,243.6533 41.924147,239.3923 47.650147,239.3923 C49.793147,239.3923 52.154147,240.1233 53.836147,241.7803 C55.492147,243.4083 53.103147,245.8223 51.475147,244.3833 C50.471147,243.4083 49.060147,242.6733 47.650147,242.6733 C44.366147,242.6733 41.191147,245.3063 41.191147,249.1333 C41.191147,253.1493 43.851147,255.5893 47.405147,255.5893 C49.060147,255.5893 50.471147,255.1023 51.475147,254.3703 L51.475147,251.0323 L47.405147,251.0323 C44.990147,251.0323 45.234147,247.7213 47.405147,247.7213 L52.832147,247.7213 C53.836147,247.7213 54.759147,248.4823 54.759147,249.3223 L54.759147,255.1023 C54.759147,255.5893 54.541147,256.0513 54.080147,256.5663 Z M62.310147,248.8622 L67.547147,248.8622 C71.074147,248.8622 71.291147,243.1632 67.547147,243.1632 L62.310147,243.1632 L62.310147,248.8622 Z M62.310147,256.8932 C62.310147,259.2542 58.701147,259.3352 58.701147,256.9462 L58.701147,241.5362 C58.701147,240.5872 59.434147,239.8802 60.330147,239.8802 L67.547147,239.8802 C74.438147,239.8802 75.849147,249.1052 70.097147,251.4132 L73.706147,255.8082 C75.117147,257.8952 72.295147,259.9032 70.667147,257.8422 L66.570147,251.9812 L62.310147,251.9812 L62.310147,256.8932 Z M78.705647,258.6571 C77.756647,258.6571 77.023647,257.9241 77.023647,256.9741 L77.023647,241.5621 C77.023647,240.5871 77.756647,239.8801 78.705647,239.8801 L88.446647,239.8801 C90.943647,239.8801 90.888647,243.4081 88.446647,243.4081 L80.632647,243.4081 L80.632647,247.4761 L87.470647,247.4761 C89.885647,247.4761 89.885647,251.0321 87.470647,251.0321 L80.632647,251.0321 L80.632647,255.1021 L88.908647,255.1021 C91.377647,255.1021 91.567647,258.6571 88.908647,258.6571 L78.705647,258.6571 Z M97.273047,255.3456 L103.894047,255.3456 C107.041047,255.3456 107.041047,250.5426 103.894047,250.5426 L97.273047,250.5426 L97.273047,255.3456 Z M102.998047,243.1896 L97.273047,243.1896 L97.273047,247.2336 L102.998047,247.2336 C104.165047,247.2336 104.898047,246.5006 104.898047,245.0616 C104.898047,244.1666 104.165047,243.1896 102.998047,243.1896 Z M95.374047,258.6576 C94.396047,258.6576 93.718047,257.9236 93.718047,256.9746 L93.718047,241.5626 C93.718047,240.5866 94.396047,239.8796 95.374047,239.8796 L102.998047,239.8796 C106.552047,239.8796 108.479047,242.2946 108.479047,245.0616 C108.479047,246.2836 108.126047,247.4766 106.986047,248.4826 C109.130047,249.3226 110.080047,250.9776 110.080047,252.9856 C110.080047,256.1066 107.964047,258.6576 103.894047,258.6576 L95.374047,258.6576 Z M124.577247,251.7646 L121.511247,245.0616 L118.173247,251.7646 L124.577247,251.7646 Z M112.910247,258.6576 C112.041247,258.1666 111.498247,257.1916 112.041247,256.0516 L119.828247,240.8286 C120.561247,239.3926 122.514247,239.3376 123.193247,240.8286 L130.845247,256.0516 C131.957247,258.1666 128.674247,259.8506 127.697247,257.7336 L126.504247,255.3456 L116.491247,255.3456 L115.325247,257.7336 C114.890247,258.6576 113.886247,258.8466 112.910247,258.6576 Z M132.644147,249.1337 C132.644147,243.8957 135.927147,239.3927 142.168147,239.3927 C144.528147,239.3927 146.400147,240.0967 148.381147,241.8067 C149.114147,242.4857 149.195147,243.6797 148.462147,244.4387 C147.730147,245.0897 146.618147,245.0087 145.967147,244.3577 C144.853147,243.1897 143.714147,242.8647 142.168147,242.8647 C137.989147,242.8647 135.980147,245.8217 135.980147,249.1337 C135.980147,252.4977 137.962147,255.5897 142.168147,255.5897 C143.714147,255.5897 145.152147,254.9667 146.400147,253.8537 C147.242147,253.2017 148.409147,253.5287 148.896147,254.1797 C149.331147,254.7767 149.548147,255.7797 148.598147,256.7297 C146.699147,258.4947 144.419147,258.8467 142.168147,258.8467 C135.601147,258.8467 132.644147,254.3697 132.644147,249.1337 Z M138.181247,234.2128 C136.824247,233.0708 138.588247,231.0638 139.836247,232.0688 L141.735247,233.4788 L143.635247,232.0688 C144.883247,231.0638 146.701247,233.0708 145.344247,234.2128 L142.523247,236.3278 C142.007247,236.7078 141.437247,236.7628 140.948247,236.3278 L138.181247,234.2128 Z M159.188047,250.3544 L156.609047,253.2024 L156.609047,257.0004 C156.609047,259.2534 153.029047,259.2824 153.029047,257.0004 L153.029047,241.5074 C153.029047,239.2004 156.609047,239.1214 156.609047,241.5074 L156.609047,248.3994 L164.452047,240.3154 C165.401047,239.4184 166.351047,239.6354 167.029047,240.3154 C167.790047,241.0454 167.790047,241.9954 167.029047,242.7304 C165.428047,244.6284 163.556047,246.3104 161.819047,248.2104 L168.170047,255.8874 C169.798047,258.1404 166.325047,259.7674 165.240047,258.0314 L159.188047,250.3544 Z M171.325247,241.5077 C171.325247,239.2827 174.906247,239.1997 174.906247,241.5077 L174.906247,257.0007 C174.906247,259.2537 171.325247,259.3087 171.325247,257.0007 L171.325247,241.5077 Z M187.041147,241.5077 C187.041147,239.2827 190.622147,239.1997 190.622147,241.5077 L190.622147,257.0007 C190.622147,259.2537 187.041147,259.3087 187.041147,257.0007 L187.041147,241.5077 Z M194.667047,241.7802 C194.667047,240.8012 194.886047,239.8512 196.294047,239.8512 C197.274047,239.8512 197.489047,240.0962 198.223047,240.8012 L207.204047,252.0362 L207.204047,241.5082 C207.204047,240.6132 207.991047,239.6352 208.914047,239.6352 C209.890047,239.6352 210.839047,240.6132 210.839047,241.5082 L210.839047,256.7842 C210.839047,257.9782 210.108047,258.4402 209.402047,258.6572 C208.451047,258.6572 207.991047,258.4402 207.204047,257.7072 L198.223047,246.3102 L198.223047,256.7842 C198.223047,257.9782 197.489047,258.6572 196.513047,258.6572 C195.538047,258.6572 194.667047,257.9782 194.667047,256.7842 L194.667047,241.7802 Z M223.872647,242.7304 C220.832647,242.7304 217.521647,244.8734 217.521647,249.1604 C217.521647,253.4204 220.832647,255.5894 223.872647,255.5894 C226.991647,255.5894 230.329647,253.4204 230.329647,249.1604 C230.329647,244.8734 226.991647,242.7304 223.872647,242.7304 Z M224.170647,258.9274 C219.150647,259.1464 213.940647,255.8084 213.940647,249.1604 C213.940647,242.4854 219.150647,239.2004 224.170647,239.2004 C228.918647,239.4454 233.885647,242.7304 233.885647,249.1604 C233.885647,255.5894 228.918647,258.9274 224.170647,258.9274 Z M243.337047,257.4364 L236.172047,242.4304 C235.113047,240.2874 238.316047,238.5224 239.509047,240.7744 L241.924047,246.2294 L245.045047,253.3924 L248.109047,246.2294 L250.526047,240.7744 C251.611047,238.7134 254.758047,240.0154 253.835047,242.2664 L246.917047,257.4364 C246.294047,259.1464 244.365047,259.5524 243.337047,257.4364 Z M265.946347,251.7646 L262.880347,245.0616 L259.542347,251.7646 L265.946347,251.7646 Z M254.279347,258.6576 C253.409347,258.1666 252.867347,257.1916 253.409347,256.0516 L261.198347,240.8286 C261.930347,239.3926 263.883347,239.3376 264.561347,240.8286 L272.214347,256.0516 C273.325347,258.1666 270.045347,259.8506 269.065347,257.7336 L267.873347,255.3456 L257.860347,255.3456 L256.694347,257.7336 C256.258347,258.6576 255.255347,258.8466 254.279347,258.6576 Z M274.012747,249.1337 C274.012747,243.8957 277.295747,239.3927 283.537747,239.3927 C285.895747,239.3927 287.767747,240.0967 289.749747,241.8067 C290.484747,242.4857 290.563747,243.6797 289.831747,244.4387 C289.097747,245.0897 287.986747,245.0087 287.334747,244.3577 C286.223747,243.1897 285.081747,242.8647 283.537747,242.8647 C279.358747,242.8647 277.348747,245.8217 277.348747,249.1337 C277.348747,252.4977 279.329747,255.5897 283.537747,255.5897 C285.081747,255.5897 286.521747,254.9667 287.767747,253.8537 C288.612747,253.2017 289.777747,253.5287 290.265747,254.1797 C290.699747,254.7767 290.916747,255.7797 289.967747,256.7297 C288.067747,258.4947 285.788747,258.8467 283.537747,258.8467 C276.969747,258.8467 274.012747,254.3697 274.012747,249.1337 Z M293.991347,241.5077 C293.991347,239.2827 297.573347,239.1997 297.573347,241.5077 L297.573347,257.0007 C297.573347,259.2537 293.991347,259.3087 293.991347,257.0007 L293.991347,241.5077 Z M310.166147,241.5077 C310.166147,239.2287 313.747147,239.2287 313.747147,241.5077 L313.747147,252.2267 C313.747147,256.4867 311.711147,259.0637 307.018147,259.0637 C304.712147,259.0637 302.785147,258.4407 301.103147,256.2687 C299.719147,254.6147 302.323147,252.2267 303.734147,253.9627 C304.874147,255.3737 306.095147,255.6987 307.288147,255.6457 C308.809147,255.5897 310.139147,254.9117 310.166147,252.2267 L310.166147,241.5077 Z M317.387747,243.9501 C318.013747,238.6861 325.962747,237.7361 329.707747,240.6131 C331.551747,242.1041 329.600747,244.4671 327.971747,243.2721 C325.962747,241.9951 321.403747,241.4001 320.834747,244.2211 C320.101747,248.6711 331.905747,246.1201 331.715747,253.3381 C331.525747,260.2311 321.538747,260.3931 317.794747,257.3011 C316.902747,256.5661 316.928747,255.3741 317.415747,254.6411 C318.121747,253.9361 318.908747,253.6921 319.830747,254.4511 C322.054747,255.9711 327.781747,257.1101 328.187747,253.2571 C327.834747,249.2411 316.547747,251.6561 317.387747,243.9501 Z M341.003047,250.3544 L338.425047,253.2024 L338.425047,257.0004 C338.425047,259.2534 334.844047,259.2824 334.844047,257.0004 L334.844047,241.5074 C334.844047,239.2004 338.425047,239.1214 338.425047,241.5074 L338.425047,248.3994 L346.266047,240.3154 C347.215047,239.4184 348.166047,239.6354 348.844047,240.3154 C349.604047,241.0454 349.604047,241.9954 348.844047,242.7304 C347.243047,244.6284 345.371047,246.3104 343.635047,248.2104 L349.983047,255.8874 C351.610047,258.1404 348.138047,259.7674 347.053047,258.0314 L341.003047,250.3544 Z M353.140747,241.5077 C353.140747,239.2827 356.720747,239.1997 356.720747,241.5077 L356.720747,257.0007 C356.720747,259.2537 353.140747,259.3087 353.140747,257.0007 L353.140747,241.5077 Z M367.985447,249.1337 C367.985447,243.8957 371.270447,239.3927 377.510447,239.3927 C379.870447,239.3927 381.743447,240.0967 383.724447,241.8067 C384.457447,242.4857 384.538447,243.6797 383.805447,244.4387 C383.072447,245.0897 381.961447,245.0087 381.309447,244.3577 C380.196447,243.1897 379.056447,242.8647 377.510447,242.8647 C373.331447,242.8647 371.323447,245.8217 371.323447,249.1337 C371.323447,252.4977 373.304447,255.5897 377.510447,255.5897 C379.056447,255.5897 380.496447,254.9667 381.743447,253.8537 C382.585447,253.2017 383.751447,253.5287 384.240447,254.1797 C384.673447,254.7767 384.892447,255.7797 383.940447,256.7297 C382.040447,258.4947 379.761447,258.8467 377.510447,258.8467 C370.942447,258.8467 367.985447,254.3697 367.985447,249.1337 Z M389.429747,258.6571 C388.480747,258.6571 387.746747,257.9241 387.746747,256.9741 L387.746747,241.5621 C387.746747,240.5871 388.480747,239.8801 389.429747,239.8801 L399.170747,239.8801 C401.665747,239.8801 401.613747,243.4081 399.170747,243.4081 L391.356747,243.4081 L391.356747,247.4761 L398.193747,247.4761 C400.607747,247.4761 400.607747,251.0321 398.193747,251.0321 L391.356747,251.0321 L391.356747,255.1021 L399.631747,255.1021 C402.101747,255.1021 402.291747,258.6571 399.631747,258.6571 L389.429747,258.6571 Z M404.495247,241.7802 C404.495247,240.8012 404.714247,239.8512 406.123247,239.8512 C407.102247,239.8512 407.316247,240.0962 408.052247,240.8012 L417.032247,252.0362 L417.032247,241.5082 C417.032247,240.6132 417.819247,239.6352 418.742247,239.6352 C419.718247,239.6352 420.667247,240.6132 420.667247,241.5082 L420.667247,256.7842 C420.667247,257.9782 419.936247,258.4402 419.229247,258.6572 C418.278247,258.6572 417.819247,258.4402 417.032247,257.7072 L408.052247,246.3102 L408.052247,256.7842 C408.052247,257.9782 407.316247,258.6572 406.341247,258.6572 C405.365247,258.6572 404.495247,257.9782 404.495247,256.7842 L404.495247,241.7802 Z M429.549947,243.2724 L424.799947,243.2724 C422.439947,243.2724 422.439947,239.7984 424.799947,239.7984 L437.633947,239.7984 C440.047947,239.7984 440.047947,243.2724 437.633947,243.2724 L433.129947,243.2724 L433.129947,256.9744 C433.129947,259.3344 429.549947,259.3894 429.549947,256.9744 L429.549947,243.2724 Z M450.991347,251.7646 L447.925347,245.0616 L444.587347,251.7646 L450.991347,251.7646 Z M439.321347,258.6576 C438.454347,258.1666 437.912347,257.1916 438.454347,256.0516 L446.241347,240.8286 C446.975347,239.3926 448.927347,239.3376 449.604347,240.8286 L457.260347,256.0516 C458.371347,258.1666 455.088347,259.8506 454.110347,257.7336 L452.916347,255.3456 L442.903347,255.3456 L441.737347,257.7336 C441.303347,258.6576 440.301347,258.8466 439.321347,258.6576 Z M463.342847,248.8622 L468.580847,248.8622 C472.109847,248.8622 472.324847,243.1632 468.580847,243.1632 L463.342847,243.1632 L463.342847,248.8622 Z M463.342847,256.8932 C463.342847,259.2542 459.734847,259.3352 459.734847,256.9462 L459.734847,241.5362 C459.734847,240.5872 460.468847,239.8802 461.363847,239.8802 L468.580847,239.8802 C475.472847,239.8802 476.883847,249.1052 471.130847,251.4132 L474.739847,255.8082 C476.150847,257.8952 473.328847,259.9032 471.701847,257.8422 L467.603847,251.9812 L463.342847,251.9812 L463.342847,256.8932 Z M158.326247,156.6034 C158.326247,125.7414 177.674247,99.1974 214.453247,99.1974 C228.365247,99.1974 239.398247,103.3544 251.071247,113.4284 C255.389247,117.4264 255.869247,124.4624 251.551247,128.9394 C247.233247,132.7784 240.678247,132.2974 236.840247,128.4594 C230.284247,121.5844 223.568247,119.6654 214.453247,119.6654 C189.827247,119.6654 177.994247,137.0954 177.994247,156.6034 C177.994247,176.4324 189.667247,194.6614 214.453247,194.6614 C223.568247,194.6614 232.042247,190.9824 239.398247,184.4284 C244.355247,180.5904 251.231247,182.5094 254.110247,186.3464 C256.668247,189.8634 257.947247,195.7804 252.350247,201.3784 C241.157247,211.7704 227.725247,213.8494 214.453247,213.8494 C175.755247,213.8494 158.326247,187.4654 158.326247,156.6034 Z M290.251047,212.7304 C284.654047,212.7304 280.337047,208.4144 280.337047,202.8174 L280.337047,111.9904 C280.337047,106.2334 284.654047,102.0754 290.251047,102.0754 L347.658047,102.0754 C362.369047,102.0754 362.049047,122.8634 347.658047,122.8634 L301.605047,122.8634 L301.605047,146.8494 L341.900047,146.8494 C356.132047,146.8494 356.132047,167.7974 341.900047,167.7974 L301.605047,167.7974 L301.605047,191.7824 L350.376047,191.7824 C364.928047,191.7824 366.047047,212.7304 350.376047,212.7304 L290.251047,212.7304 Z M405.704147,155.0048 L436.567147,155.0048 C457.355147,155.0048 458.634147,121.4238 436.567147,121.4238 L405.704147,121.4238 L405.704147,155.0048 Z M405.704147,202.3378 C405.704147,216.2488 384.436147,216.7288 384.436147,202.6578 L384.436147,111.8298 C384.436147,106.2338 388.755147,102.0758 394.032147,102.0758 L436.567147,102.0758 C477.183147,102.0758 485.497147,156.4438 451.598147,170.0348 L472.866147,195.9408 C481.181147,208.2538 464.550147,220.0868 454.957147,207.9348 L430.810147,173.3938 L405.704147,173.3938 L405.704147,202.3378 Z M10.965947,212.7304 C0.891947046,212.7304 -3.10505295,202.9774 2.65194705,196.1004 L59.577947,120.4644 L12.404947,120.4644 C-1.50605295,120.4644 -0.387052954,100.7964 12.404947,100.7964 L76.847947,100.7964 C89.000947,100.7964 92.518947,112.3104 83.883947,121.5844 L29.355947,192.4214 L81.325947,192.4214 C94.117947,192.4214 95.716947,212.7304 80.046947,212.7304 L10.965947,212.7304 Z M142.804247,200.2538 C142.804247,207.2208 137.157247,212.8678 130.190247,212.8678 C123.223247,212.8678 117.576247,207.2208 117.576247,200.2538 C117.576247,193.2868 123.223247,187.6398 130.190247,187.6398 C137.157247,187.6398 142.804247,193.2868 142.804247,200.2538 Z M133.394147,153.8817 C133.394147,160.8487 127.747147,166.4957 120.780147,166.4957 C113.813147,166.4957 108.166147,160.8487 108.166147,153.8817 C108.166147,146.9147 113.813147,141.2677 120.780147,141.2677 C127.747147,141.2677 133.394147,146.9147 133.394147,153.8817 Z M139.096747,107.5092 C139.096747,114.4762 133.449747,120.1232 126.482747,120.1232 C119.515747,120.1232 113.868747,114.4762 113.868747,107.5092 C113.868747,100.5432 119.515747,94.8952 126.482747,94.8952 C133.449747,94.8952 139.096747,100.5432 139.096747,107.5092 Z M157.506447,62.39 C157.506447,69.356 151.859447,75.004 144.892447,75.004 C137.926447,75.004 132.278447,69.356 132.278447,62.39 C132.278447,55.424 137.926447,49.776 144.892447,49.776 C151.859447,49.776 157.506447,55.424 157.506447,62.39 Z M195.484947,74.308 C188.969947,74.308 183.687947,69.026 183.687947,62.511 L183.687947,23.595 L144.771947,23.595 C138.255947,23.595 132.974947,18.313 132.974947,11.797 C132.974947,5.282 138.255947,0 144.771947,0 L195.484947,0 C202.000947,0 207.281947,5.282 207.281947,11.797 L207.281947,62.511 C207.281947,69.026 202.000947,74.308 195.484947,74.308 Z" id="Combined-Shape"></path>
            </g>
        </g>
    </g>
</svg>