<?xml version="1.0" encoding="UTF-8"?>
<svg width="500px" height="98px" viewBox="0 0 500 98" version="1.1" xmlns="http://www.w3.org/2000/svg" xmlns:xlink="http://www.w3.org/1999/xlink">
    <title>9elements</title>
    <g id="Page-1" stroke="none" stroke-width="1" fill="none" fill-rule="evenodd">
        <g id="9elements" fill="#FFFFFF" fill-rule="nonzero">
            <path d="M0,97.6190476 L96.7461988,97.6190476 L96.7461988,0 L0,0 L0,97.6190476 Z M72.218629,68.983431 C71.8305719,69.1329331 69.1576805,69.238534 71.0497536,69.4544817 C72.237444,69.588559 70.3253802,69.6858543 70.3312598,70.1189362 C70.7228448,70.107071 71.315514,70.8664476 71.468385,70.8427169 C71.4895519,70.9566236 70.29363,71.2769855 70.5464552,71.3149543 C71.5636355,71.4597105 69.6868495,71.5273424 69.8103224,71.7729533 C70.1631017,72.4730036 69.6374605,72.2356986 70.2983338,72.5560605 C70.6511131,72.7281067 70.5464552,73.355779 70.3147967,73.4079862 C70.0125824,73.4768045 69.9208598,73.6417317 69.644516,73.6654621 C69.6057102,73.9205652 69.3764038,74.0380314 69.0730136,74.0819329 C68.416844,74.3287302 67.6807112,74.6099369 66.9704488,74.6835014 C66.5130117,74.7285895 66.5330026,74.7736774 66.0790931,74.6846879 C65.5910817,74.7499469 64.8467174,74.7914752 64.3598819,74.7428279 C63.9565376,74.842496 57.9334188,75.1984538 57.4301202,75.1296352 C57.0291279,75.2162517 54.619645,75.300495 54.1245781,75.2281169 C53.6259833,75.3254119 49.4443726,75.4381319 49.01163,75.3871114 C48.5036279,75.4761007 47.7204576,75.5140695 47.2112795,75.4440645 C46.7032774,75.5449193 45.9177555,75.5639036 45.4050495,75.503391 C44.9076307,75.5971264 33.8574067,75.3313445 33.3188302,75.2482879 C32.7978926,75.3135467 30.2143721,75.2245574 29.7004905,75.1367543 C29.2712755,75.2020133 28.6245136,75.1569252 28.1952986,75.0904798 C27.6943519,75.1616714 26.9147098,75.122516 26.4278743,74.984879 C26.1480026,74.9065683 25.9633814,74.9480967 25.8446124,74.6680767 C25.7446583,74.4355176 25.7705288,74.2931345 25.5870836,74.1946529 C25.3695364,74.0795598 25.3566012,73.5800324 25.4988888,73.3937479 C25.2601748,72.882355 25.5929633,71.9248286 25.4012864,71.2188457 C25.2872212,70.795256 25.511824,70.8189864 25.71526,70.4333655 C25.4753702,70.4499769 25.423629,70.0204545 25.4518514,69.9385843 C25.6070743,69.4924505 25.3789438,69.2753162 25.7105564,68.8956279 C25.9092886,68.6701881 25.8187419,68.4839036 26.175049,68.4839036 C26.4325781,68.4839036 26.7430238,68.48509 26.995849,68.5254319 C27.5461848,68.4827169 28.2599748,68.5100071 28.8067829,68.5954369 C29.9250931,68.5183126 34.9569021,68.7034107 36.0434624,68.87783 C37.0818095,68.803079 38.3247686,68.87783 39.3607638,69.0024152 C40.4720188,68.9466486 59.1281648,68.8018924 60.1418174,68.7520583 C61.2542481,68.6998512 62.5077905,68.5301781 63.6155176,68.640525 C64.409271,68.507634 65.4299793,68.5871312 66.2131493,68.7413795 C66.9363469,68.715276 67.275015,68.4506807 67.9817495,68.4886495 C68.026435,68.415085 69.1106433,68.6559498 69.2247086,68.6618824 C69.3234869,68.492209 70.29363,68.640525 70.5205848,68.6535767 C70.7710581,68.6713745 72.4479357,68.8944414 72.218629,68.983431 L72.218629,68.983431 Z M72.7819,60.5697755 C72.8265855,60.7204643 72.9041969,60.8521688 73.0182621,60.9648886 C71.8399793,60.266025 70.8075119,59.3785036 69.6844976,58.6072617 C69.7715167,59.007121 72.1668881,60.3217917 72.0210726,60.593506 C71.9881467,60.6646976 68.9189667,58.3723295 68.8742812,58.4102983 C68.6826045,58.5503083 69.390515,59.2835814 69.2411717,59.2491721 C69.269394,59.2717162 69.815026,59.6798812 69.7527017,59.7463264 C69.6268771,59.7937876 73.039429,62.373295 72.7395667,62.7363719 C72.6172698,62.8811281 71.6882843,62.0232698 71.5636355,61.9627569 C71.6518302,62.1086998 71.7553124,62.240404 71.8764331,62.3626162 C71.1508838,61.9283476 70.564094,61.326779 69.8773505,60.8426764 C69.9690731,61.0147229 70.0960736,61.1606655 70.2571762,61.2781314 C69.6833217,61.2828776 68.468585,59.8246371 67.974694,59.5303788 C67.8147674,59.442576 67.055116,58.6974376 66.9422264,58.7437121 C66.9292912,58.7899867 66.9422264,58.8303286 66.9775045,58.8647379 C66.6905774,58.7282874 66.44128,58.5479355 66.2284364,58.3213088 C66.2425476,58.4435212 65.4346829,57.2783526 65.1113019,57.4242952 C65.3088583,57.6165126 65.5064148,57.8111029 65.6992674,58.0068795 C65.0489776,58.1492626 64.5245124,56.5023648 63.6460919,56.8737474 C63.7178236,56.8428976 67.273839,60.2446674 67.3690895,60.4819726 C67.3585062,60.453496 67.1585979,60.410781 67.1515421,60.385864 C67.3679136,61.1132045 68.3709826,61.7930838 68.8660498,62.3246474 C67.7136374,61.5213693 66.6000305,60.4250193 65.4582014,59.7997202 C65.0101719,59.5541093 64.867884,59.0818721 64.4374933,59.3274829 C64.3469467,59.3773169 63.3803314,58.7069298 63.2674419,58.5930233 C63.2462752,58.7710021 63.2768495,58.9418619 63.354461,59.104416 C62.4525217,58.3841948 61.596444,57.3258136 60.5392819,56.8120479 C60.7826998,57.1620731 61.0131821,57.4515855 61.0790343,57.6022743 C61.1542938,57.7719474 61.2730629,57.8882269 61.3095169,58.0816307 C59.7890379,56.8523898 58.2791426,55.58518 56.8315714,54.2681364 C56.5187738,53.98337 54.9124519,52.4930936 54.6596267,52.9487195 C54.144569,52.4776688 50.697915,49.5030481 49.9900045,49.3582921 C50.5603312,49.834089 51.0612779,50.3787043 51.619845,50.86518 C51.4846129,50.9695943 50.0217548,49.6857731 49.8159669,49.5101674 C49.454956,49.2087898 48.3084231,48.1931236 47.7968931,47.7220729 C47.3829655,47.3411979 46.9855007,46.9662557 46.5856843,46.5936867 C45.8413198,47.1845767 44.5807219,48.2548229 44.4031562,48.3983926 C44.1879607,48.575185 43.9398393,48.6819724 43.726996,48.9085988 C43.1543174,49.5196595 42.4910924,50.0500367 41.8208117,50.5578698 C40.9706136,51.1985938 40.2168417,51.9579705 39.3572362,52.6164921 C39.3666436,52.5013993 39.5018757,52.4776688 39.4407271,52.3234202 C39.2184762,52.5013993 38.9962252,52.6639533 38.7916133,52.8466783 C37.639201,53.8516657 36.4879643,54.8578398 35.3437833,55.8675733 C34.4841779,56.6281364 33.6539705,57.4207357 32.7779019,58.1611279 C31.8148143,58.9679655 30.8952362,59.8281969 29.9380283,60.6433402 C28.9678852,61.4739083 31.2879974,59.9539686 30.3919379,60.86878 C30.2425945,61.0194688 30.065029,61.1488002 29.8792319,61.2520279 C29.6475736,61.3837324 29.484119,61.5866283 29.2795071,61.7456226 C29.043145,61.9259748 28.7620974,62.0541195 28.4857536,62.2166736 C28.5128,61.902244 28.5104481,61.9117364 28.2035302,61.8191874 C27.9636402,61.7468093 27.7778431,61.549846 27.642611,61.3730536 C27.4438788,61.1132045 26.8876633,60.0251602 26.7042181,59.2301879 C26.6912829,59.176794 26.687755,59.1139083 26.6995143,59.0652607 C26.8512095,58.4636919 26.688931,57.8929731 26.4925505,57.3258136 C26.2503086,56.6423748 26.277355,55.9316457 26.2197345,55.2304088 C26.1868083,54.7949538 26.5337081,54.5208664 26.7935888,54.2432193 C27.338045,53.6570755 27.8754455,53.0460145 28.4975129,52.5453007 C28.9020331,52.2178195 29.2900905,51.8428774 29.7851574,51.6150643 C30.1602793,51.4430181 30.3813545,51.0668893 30.6706336,50.7821231 C31.0093017,50.4463364 31.3950069,50.1532645 31.7148602,49.811545 C32.1793531,49.313204 32.8743283,49.0592876 33.337645,48.5562005 C33.7433412,48.117186 37.8191183,44.6999912 38.3776855,44.2241943 C39.3031433,43.4387143 40.1698045,42.6544205 41.0929102,41.8879248 C40.961206,41.7752048 40.8330295,41.662485 40.6989733,41.5462052 C39.6194688,40.6041038 38.4117876,39.5065674 37.2887733,38.5692119 C36.1763426,37.6389755 35.0827267,36.6328014 33.9714719,35.6598502 C32.2216864,34.1256721 30.5542162,33.1088195 28.7562176,31.6114238 C27.8272321,30.8378088 25.8058067,29.4448274 25.6000188,28.207281 C25.4577312,27.3446764 26.6430698,26.4619012 27.0381824,25.8721979 C27.0228955,25.8959283 28.8173662,23.066064 29.3818131,23.3009962 C29.5487952,23.3710012 29.7710462,23.1253903 30.1696869,23.2760791 C30.8282083,23.524063 31.2738862,24.1090202 31.7642493,24.5741386 C33.3435248,26.0786533 34.993356,27.5048576 36.629076,28.9369943 C40.023989,31.9104283 43.264855,34.5219719 46.5786286,37.4218412 C46.7726571,37.2747119 46.966686,37.1275829 47.1595386,36.9792671 C47.8392267,36.4571957 48.5541929,35.9742795 49.2421124,35.4593274 C50.1146533,34.8114843 51.0048331,34.1885581 51.8938369,33.5549533 C52.3148202,33.2535757 52.7569702,32.9759286 53.1673702,32.6603126 C53.9540681,32.0504383 54.7866274,31.5058229 55.6062512,30.9457826 C56.7092745,30.1958983 57.8217052,29.4602521 58.9341362,28.7186736 C59.582074,28.2832186 60.2464752,27.8608152 60.9332188,27.4716348 C61.2295536,27.3055212 61.4729712,27.0338067 61.8151671,26.9246464 C61.9539269,26.8795583 62.072696,26.7917555 62.2396783,26.6849681 C63.182775,26.0810264 64.1482143,25.511494 65.127765,24.9645055 C66.3166312,24.2988645 67.494914,23.6094929 68.7225862,23.0091108 C69.0471431,22.8489298 69.3881631,22.605692 69.8408964,22.5950132 C69.5963029,22.9070695 69.2999683,23.086235 69.0259764,23.3306593 C69.2917367,23.4671098 69.7773962,23.0482661 69.831489,23.1503074 C69.9067486,23.291504 69.7056645,23.5347418 69.7668129,23.5038921 C69.9443786,23.4160892 70.1019533,23.2677734 70.3418431,23.2523486 C70.1842683,23.5181304 69.9455543,23.6439021 69.7362386,23.8230676 C70.0584438,23.7613682 70.3018614,23.4801616 70.7099095,23.4481254 C70.3053893,23.799337 69.8608874,23.934601 69.4810617,24.1813983 C69.1976621,24.3712426 68.880161,24.5159988 68.5767707,24.6797393 C68.5650114,24.6832988 68.5461964,24.6868583 68.5461964,24.6939776 C68.4885757,25.0226452 68.1581393,25.0926502 67.9688143,25.3121576 C68.2827879,25.2967329 68.539141,25.1590957 68.7896143,24.9953552 C68.8895683,25.073666 68.740225,25.1270595 68.7790307,25.2219817 C69.8067945,24.8363607 70.667576,24.0864764 71.7412012,23.7827257 C71.3507919,24.0354557 70.9592069,24.2988645 70.5629181,24.5421024 C70.2512964,24.7319464 69.9690731,24.9656921 69.6421643,25.1424843 C69.3693481,25.2872405 69.0694857,25.3821626 68.8166605,25.5696338 C68.7296417,25.6348926 68.5438445,25.6977786 68.6273357,25.8354155 C68.7155305,25.99441 68.878985,25.9540681 69.0353838,25.861519 C69.5057562,25.5898048 69.9796564,25.3382612 70.4535567,25.080785 C70.4876586,25.0618007 70.5382236,25.0784119 70.5817331,25.0784119 C70.4523807,25.4925095 70.0419807,25.6420119 69.7962112,25.99441 C70.0843143,25.9505086 70.2501205,25.7440531 70.4900105,25.6704883 C70.9086419,25.5470898 71.3014029,25.3679243 71.7611919,25.3596186 C72.0622302,25.3524995 72.3562131,25.1424843 72.6854738,25.0701064 C72.4338245,25.2457121 72.1715919,25.4165719 71.9258224,25.608789 C71.8482107,25.6704883 71.6518302,25.6657424 71.7317936,25.874571 C71.8246921,26.1154357 71.9728595,25.9777986 72.09986,25.9291512 C72.2421476,25.8721979 72.3832595,25.7950736 72.5231952,25.7262552 C72.5690567,25.7013381 72.6078624,25.6977786 72.629029,25.7547317 C72.6454921,25.8021929 72.6454921,25.8472807 72.5843436,25.861519 C72.289185,25.9172857 72.0704619,26.1261143 71.8388033,26.2946012 C71.605969,26.4666474 71.38607,26.660051 71.1579393,26.8498952 C71.1990969,27.00533 71.3743107,26.7181907 71.4037088,26.9115945 C71.4272276,27.0670295 71.2731805,27.0729621 71.2049764,27.1038117 C70.071379,27.6104583 69.151801,28.460011 68.1193336,29.1232788 C67.6771833,29.4056721 66.4636226,30.1484374 66.3107514,30.2409864 C65.861546,30.5138874 65.4193957,30.8033995 64.9807736,31.095285 C64.9243288,31.1308807 64.785569,31.1368133 64.8608286,31.2839426 C64.9302086,31.4203931 65.0019402,31.3741186 65.1042462,31.3242845 C65.7521843,31.0110417 66.3895388,30.6610164 66.9375229,30.1947119 C67.2820705,29.9028264 67.6983502,29.7995986 68.0523055,29.5492417 C68.4944555,29.2383719 70.1007774,28.2333845 70.7640024,27.8358983 C71.1179576,27.6223236 71.1026705,27.5974064 71.4448664,27.7397898 C71.3554957,27.8821729 71.1755783,27.9011571 71.0732724,28.0186233 C70.7487152,28.3650888 70.3912321,28.6652798 70.0302214,28.9583517 C69.6868495,29.2395583 69.3258388,29.4970345 68.9613,29.7426455 C68.808429,29.8435002 68.6731969,29.9467279 68.587354,30.1235202 C69.7068405,29.5848374 70.6910948,28.7993574 71.7941181,28.2262652 C71.4413386,28.6249381 70.9462717,28.8147821 70.5252883,29.1137867 C69.8679429,29.5848374 69.1047638,29.8885881 68.5273817,30.4782914 C68.3792143,30.6289802 68.1499076,30.5815193 67.9817495,30.729835 C67.3326357,31.27801 66.524771,31.5829471 65.8697774,32.1168838 C65.6287114,32.3162202 65.3558955,32.4728417 65.1242371,32.6840431 C65.0325145,32.7647269 64.9466714,32.857276 64.819671,32.8845662 C64.1917238,33.0233895 63.8377686,33.5988548 63.3003681,33.885994 C62.960524,34.068719 62.6677171,34.3534852 62.329049,34.5124798 C61.9233529,34.7094429 61.5646938,34.979971 61.2095626,35.2279548 C60.6310045,35.6337467 60.0771412,36.0858131 59.4974071,36.4999105 C59.1869612,36.7182314 58.7977281,36.8226457 58.5578381,37.1524998 L58.561366,37.1453807 C58.0757064,37.3459036 57.70764,37.7255919 57.2784252,38.0115445 C56.5669869,38.4920876 55.8802431,39.0011071 55.2146662,39.5457226 C55.079434,39.6608157 54.9571374,39.7889605 54.8160255,39.9016805 L54.827785,39.8874421 C54.3550607,39.9147321 54.2139488,40.3964617 53.7953174,40.570881 C53.9799386,40.6717357 53.2990745,40.9742998 53.2508614,41.0098957 C52.9168969,41.2424548 52.5276638,41.1902476 52.2630793,41.4928117 C52.1466621,41.6233295 51.9055962,41.7657126 51.690401,41.895044 C55.6932702,45.3300364 59.7408248,48.6855319 63.5802398,52.1952755 C65.6263598,54.0664269 67.804184,55.8177393 69.9890638,57.5548131 C71.31669,58.6131943 74.8574183,61.93784 75.2736979,62.2439636 C75.1137714,62.3875333 73.0511883,60.791656 72.7819,60.5697755 L72.7819,60.5697755 Z M215.732781,60.270771 L235.760063,60.270771 L235.760063,68.8920683 L205.998424,68.8920683 L205.998424,28.334239 L215.732781,28.334239 L215.732781,60.270771 L215.732781,60.270771 Z M165.842731,68.8920683 L196.14177,68.8920683 L196.14177,60.3917967 L175.577088,60.3917967 L175.577088,52.9534657 L193.519444,52.9534657 L193.519444,44.6335457 L175.577088,44.6335457 L175.577088,36.834511 L196.14177,36.834511 L196.14177,28.334239 L165.842731,28.334239 L165.842731,68.8920683 L165.842731,68.8920683 Z M244.068017,68.8920683 L274.365879,68.8920683 L274.365879,60.3917967 L253.801198,60.3917967 L253.801198,52.9534657 L271.743552,52.9534657 L271.743552,44.6335457 L253.801198,44.6335457 L253.801198,36.834511 L274.365879,36.834511 L274.365879,28.334239 L244.068017,28.334239 L244.068017,68.8920683 L244.068017,68.8920683 Z M152.016134,31.7846564 C154.883054,34.504174 156.463505,38.2168136 156.463505,42.23795 C156.463505,45.2469798 155.405167,48.27974 153.030962,52.0706902 L142.529898,68.8920683 L131.606675,68.8920683 L139.224356,56.7978095 L139.28668,56.6993279 L138.998577,56.6827167 C130.214372,56.153526 124.077188,50.2885283 124.077188,42.4183019 C124.077188,33.7353052 130.89994,27.4324795 140.299157,27.4324795 C144.895871,27.4324795 149.057491,28.9785226 152.016134,31.7846564 L152.016134,31.7846564 Z M147.442938,42.0575981 C147.442938,38.2939379 144.252637,35.2315143 140.329731,35.2315143 C136.406825,35.2315143 133.215348,38.2939379 133.215348,42.0575981 C133.215348,45.8236314 136.406825,48.8860548 140.329731,48.8860548 C144.252637,48.8860548 147.442938,45.8236314 147.442938,42.0575981 L147.442938,42.0575981 Z M305.927869,50.3051398 L291.413352,28.334239 L284.221357,28.334239 L284.221357,68.8920683 L293.895743,68.8920683 L293.895743,47.851404 L303.257329,62.4551652 L308.599583,62.4551652 L317.898845,47.9759893 L317.898845,68.8920683 L327.634379,68.8920683 L327.634379,28.334239 L320.383588,28.334239 L305.927869,50.3051398 L305.927869,50.3051398 Z M424.180669,37.0753757 L437.115912,37.0753757 L437.115912,68.8920683 L446.851445,68.8920683 L446.851445,37.0753757 L459.724362,37.0753757 L459.724362,28.334239 L424.180669,28.334239 L424.180669,37.0753757 L424.180669,37.0753757 Z M487.914957,45.1105293 L482.249321,43.7863662 C479.38005,43.1622536 477.469162,42.2415095 477.469162,39.772349 C477.469162,38.4375074 478.046543,37.3375979 479.138983,36.5936462 C480.174979,35.8852902 481.656652,35.5115345 483.420548,35.5115345 C487.212926,35.5115345 489.468362,37.2521681 490.117476,40.683601 L499.92474,40.683601 C499.582545,37.4728619 497.334164,27.4324795 482.765555,27.4324795 C478.0877,27.4324795 474.104821,28.6676529 471.24731,31.002736 C468.365102,33.3615495 466.839921,36.6850086 466.839921,40.6147824 C466.839921,46.9769345 470.528817,50.7465274 478.449888,52.4764821 L485.126824,53.978624 C488.103105,54.5493431 489.550676,55.7441745 489.550676,57.6343105 C489.550676,60.0370255 487.403426,61.4145819 483.659262,61.4145819 C478.884983,61.4145819 475.731136,59.3108714 474.996179,55.6409469 L465.248886,55.6409469 C465.728667,60.2612788 467.747738,63.8600119 471.24731,66.3362914 C474.387045,68.5586545 478.576888,69.7345019 483.360576,69.7345019 C493.471231,69.7345019 500,64.5826062 500,56.6127117 C500,50.4107405 496.385188,46.9710019 487.914957,45.1105293 L487.914957,45.1105293 Z M338.624631,68.8920683 L368.923671,68.8920683 L368.923671,60.3917967 L348.357812,60.3917967 L348.357812,52.9534657 L366.300169,52.9534657 L366.300169,44.6335457 L348.357812,44.6335457 L348.357812,36.834511 L368.923671,36.834511 L368.923671,28.334239 L338.624631,28.334239 L338.624631,68.8920683 L338.624631,68.8920683 Z M406.020767,51.6601524 L386.222793,28.334239 L378.780324,28.334239 L378.780324,68.8920683 L388.514681,68.8920683 L388.514681,46.1736564 L408.192712,68.8920683 L415.7563,68.8920683 L415.7563,28.334239 L406.020767,28.334239 L406.020767,51.6601524 L406.020767,51.6601524 Z" id="Imported-Layers"></path>
        </g>
    </g>
</svg>