<?xml version="1.0" encoding="UTF-8"?>
<svg width="500px" height="201px" viewBox="0 0 500 201" version="1.1" xmlns="http://www.w3.org/2000/svg" xmlns:xlink="http://www.w3.org/1999/xlink">
    <title>ably</title>
    <g id="Page-1" stroke="none" stroke-width="1" fill="none" fill-rule="evenodd">
        <g id="ably" fill="#FFFFFF" fill-rule="nonzero">
            <path d="M70.9363636,58.6272727 C110.113636,58.6272727 141.872727,90.3909091 141.872727,129.563636 C141.872727,168.740909 110.113636,200.5 70.9363636,200.5 C31.7590909,200.5 0,168.740909 0,129.563636 C0,90.3909091 31.7590909,58.6272727 70.9363636,58.6272727 Z M70.9363636,0.499900609 C126.981818,0.499900609 172.413636,45.9318182 172.413636,101.977273 C172.413636,131.804545 159.540909,158.636364 139.045455,177.204545 L139.036364,177.218182 C138.8,177.409091 138.609091,177.5 138.340909,177.5 C137.797926,177.5 137.357048,177.061159 137.354545,176.518182 C137.354545,176.25 137.418182,176.022727 137.540909,175.809091 C146.997822,162.242261 152.05651,146.096669 152.031818,129.559091 C152.031818,84.7727273 115.722727,48.4636364 70.9363636,48.4636364 C61.5734378,48.4579668 52.2807115,50.0790415 43.4727273,53.2545455 C42.5580383,53.5813403 41.5980716,53.763826 40.6272727,53.7954545 C37.5076697,53.7962736 34.6811352,51.9570658 33.4181818,49.1045455 L20.7954545,22.0363636 L20.9318182,22.3318182 C20.3843731,21.2384268 20.1010268,20.0318699 20.1045131,18.8090909 C20.1045131,15.8181818 21.8363636,13.1272727 24.4636364,11.7545455 C38.8302832,4.33701031 54.7678803,0.477318365 70.9363636,0.499900609 Z M446.140909,64.5090909 C453.227273,64.5090909 454.163636,69.7181818 454.831818,73.7318182 C457.636364,89.9045455 464.186364,109.55 464.186364,109.413636 L465.65,112.759091 C470.727273,102.063636 474.609091,89.5045455 474.609091,75.4681818 L474.609091,73.8636364 C474.609091,67.3181818 477.413636,64.5090909 483.963636,64.5090909 L490.645455,64.5090909 C497.195455,64.5090909 500.004545,67.3181818 500.004545,73.8636364 L500.004545,75.6 C500.004545,111.413636 483.163636,131.463636 458.436364,162.068182 C456.968182,164.068182 455.231818,165.272727 453.090909,165.272727 C450.95,165.272727 449.35,164.340909 447.213636,162.6 L442.536364,158.859091 C439.327273,156.318182 437.990909,154.05 437.990909,152.045455 C437.990909,150.572727 438.654545,149.240909 439.995455,147.9 C443.2,144.563636 447.745455,139.75 451.481818,135.072727 C445.336364,126.790909 431.704545,97.1181818 427.295455,73.3272727 C426.090909,66.9136364 427.168182,64.5090909 435.718182,64.5090909 L446.140909,64.5090909 Z M70.9363636,98.0318182 C53.5545455,98.0318182 39.4090909,112.172727 39.4090909,129.559091 C39.4090909,146.945455 53.5545455,161.090909 70.9363636,161.090909 C88.3181818,161.090909 102.463636,146.945455 102.463636,129.559091 C102.463636,112.172727 88.3181818,98.0318182 70.9363636,98.0318182 Z M265.318182,63.1590909 C290.172727,63.1590909 297.927273,69.1727273 298.190909,90.0227273 L298.190909,122.368182 C298.190909,129.718182 296.85,131.854545 288.968182,133.854545 C288.621694,133.946281 288.138618,134.065233 287.532137,134.202273 L287.10968,134.296212 C283.072222,135.180051 274.535606,136.663636 264.509091,136.663636 C246.604545,136.663636 229.495455,131.85 229.495455,114.345455 L229.495455,110.868182 C229.495455,97.2363636 239.118182,89.8863636 255.422727,89.8863636 C261.177273,89.8772727 265.854545,90.8136364 271.468182,92.4181818 L271.468182,90.95 C271.468182,86.6727273 269.863636,83.4681818 257.304545,83.4681818 C251.022727,83.4681818 245.940909,84.2681818 243.668182,84.6727273 C236.718182,85.7409091 235.25,83.8681818 234.045455,77.1909091 L233.777273,75.7181818 C233.509091,73.9818182 233.240909,72.5090909 233.240909,71.3090909 C233.240909,67.3 235.245455,65.9636364 241.259091,64.7636364 C247.409091,63.5590909 258.9,63.1590909 265.318182,63.1590909 Z M327.036364,35.75 C332.65,35.75 335.059091,38.1545455 335.059091,43.7681818 L335.059091,68.3590909 C342.677273,64.2181818 348.690909,63.15 354.036364,63.15 C371.672727,63.15 382.359091,75.0409091 382.359091,96.1590909 L382.359091,98.3 C382.359091,128.368182 362.181818,136.654545 340.395455,136.654545 C331.172727,136.654545 321.013636,135.186364 316.204545,133.845455 C311.259091,132.381818 308.322727,129.840909 308.322727,123.690909 L308.322727,43.7681818 C308.322727,38.1545455 310.727273,35.75 316.340909,35.75 L327.036364,35.75 Z M408.459091,35.75 C415.004545,35.75 417.813636,38.5590909 417.813636,45.1045455 L417.813636,110.190909 C417.813636,113.931818 418.218182,114.868182 420.222727,114.868182 L421.422727,114.868182 C425.031818,114.868182 425.968182,118.204545 426.1,122.35 L426.227273,125.559091 C426.495455,132.109091 424.895455,133.440909 419.277273,134.518182 C417.140909,134.918182 413.931818,135.318182 410.727273,135.318182 C398.3,135.318182 391.081818,129.709091 391.081818,110.327273 L391.081818,45.1045455 C391.081818,38.5590909 393.886364,35.75 400.440909,35.75 L408.459091,35.75 Z M264.377273,107.654545 C259.704545,107.654545 257.563636,109.527273 257.563636,112.331818 L257.563636,112.863636 L257.568182,112.863636 C257.568182,116.604545 260.372727,118.877273 266.386364,118.877273 C268.390909,118.877273 270.127273,118.604545 271.463636,118.340909 L271.463636,109.659091 C269.322727,108.05 266.518182,107.654545 264.377273,107.654545 Z M343.331818,84.9318182 C340.790909,84.9318182 337.586364,85.4681818 335.05,86.9363636 L335.05,115.536364 C337.322727,116.072727 339.190909,116.2 340.395455,116.2 C348.013636,116.2 354.295455,110.990909 354.295455,99.5 L354.295455,97.6272727 L354.290909,97.6272727 C354.290909,89.4772727 350.813636,84.9318182 343.331818,84.9318182 Z" id="Combined-Shape"></path>
        </g>
    </g>
</svg>