<?xml version="1.0" encoding="UTF-8"?>
<svg width="265px" height="54px" viewBox="0 0 265 54" version="1.1" xmlns="http://www.w3.org/2000/svg" xmlns:xlink="http://www.w3.org/1999/xlink">
    <title>asseco</title>
    <g id="Page-1" stroke="none" stroke-width="1" fill="none" fill-rule="evenodd">
        <g id="asseco" fill="#FFFFFF" fill-rule="nonzero">
            <path d="M4.77272727,38.2272727 C7.5,38.2272727 8.63636364,40.0454545 8.86363636,41.1818182 L7.04545455,42.0909091 C6.81818182,41.4090909 6.13636364,40.5 4.54545455,40.5 C3.40909091,40.5 2.5,41.4090909 2.5,42.3181818 C2.5,45.0454545 9.09090909,44.5909091 9.09090909,49.1363636 C9.09090909,51.6363636 7.27272727,53.2272727 4.54545455,53.2272727 C1.59090909,53.2272727 0.454545455,51.1818182 3.19744231e-14,50.0454545 L2.04545455,48.6818182 C2.5,49.8181818 3.18181818,50.7272727 4.77272727,50.7272727 C6.13636364,50.7272727 7.04545455,50.0454545 7.04545455,48.9090909 C7.04545455,45.9545455 0.454545455,46.6363636 0.454545455,42.0909091 C0.454545455,39.8181818 2.04545455,38.2272727 4.77272727,38.2272727 Z M114.772727,38.2272727 C117.5,38.2272727 118.636364,40.0454545 118.863636,41.1818182 L117.045455,42.0909091 C116.818182,41.4090909 116.136364,40.5 114.545455,40.5 C113.409091,40.5 112.5,41.4090909 112.5,42.3181818 C112.5,45.0454545 119.090909,44.5909091 119.090909,49.1363636 C119.090909,51.6363636 117.272727,53.2272727 114.545455,53.2272727 C111.590909,53.2272727 110.454545,51.1818182 110,50.0454545 L112.045455,48.6818182 C112.5,49.8181818 113.181818,50.7272727 114.772727,50.7272727 C116.136364,50.7272727 117.045455,50.0454545 117.045455,48.9090909 C117.045455,45.9545455 110.454545,46.6363636 110.454545,42.0909091 C110.454545,39.8181818 112.045455,38.2272727 114.772727,38.2272727 Z M199.318182,38.2272727 L199.318182,47.3181818 C199.318182,49.5909091 200.454545,50.7272727 202.5,50.7272727 C204.545455,50.7272727 205.681818,49.3636364 205.681818,47.3181818 L205.681818,38.4545455 L207.954545,38.4545455 L207.954545,47.5454545 C207.954545,50.7272727 205.909091,53 202.5,53 C199.090909,52.7727273 197.045455,50.7272727 197.045455,47.3181818 L197.045455,38.2272727 L199.318182,38.2272727 Z M34.0909091,38.2272727 L34.0909091,47.3181818 C34.0909091,49.5909091 35.2272727,50.7272727 37.2727273,50.7272727 C39.5454545,50.7272727 40.4545455,49.3636364 40.4545455,47.3181818 L40.4545455,38.4545455 L42.7272727,38.4545455 L42.7272727,47.5454545 C42.7272727,50.7272727 40.6818182,53 37.2727273,53 C33.8636364,52.7727273 31.8181818,50.7272727 31.8181818,47.3181818 L31.8181818,38.2272727 L34.0909091,38.2272727 Z M20.4545455,38 C24.7727273,38 27.7272727,41.1818182 27.7272727,45.5 C27.7272727,49.8181818 24.5454545,53 20.2272727,53 C15.9090909,53 12.9545455,49.8181818 12.9545455,45.5 C12.9545455,41.1818182 16.1363636,38 20.4545455,38 Z M233.409091,38 C237.727273,38 240.681818,41.1818182 240.681818,45.5 C240.681818,49.8181818 237.5,53 233.181818,53 C228.863636,53 225.909091,49.8181818 225.909091,45.5 C225.909091,41.1818182 229.090909,38 233.409091,38 Z M163.863636,38.2272727 L170.909091,49.1363636 L170.909091,38.2272727 L173.181818,38.2272727 L173.181818,52.5454545 L170.909091,52.5454545 L163.863636,41.8636364 L163.863636,52.5454545 L161.590909,52.5454545 L161.590909,38.2272727 L163.863636,38.2272727 Z M102.045455,38.2272727 L107.272727,52.5454545 L105,52.5454545 L103.409091,48.4545455 L98.1818182,48.4545455 L96.8181818,52.5454545 L94.5454545,52.5454545 L99.7727273,38.2272727 L102.045455,38.2272727 Z M62.7272727,38.2272727 L62.7272727,44.3636364 L69.5454545,44.3636364 L69.5454545,38.2272727 L71.8181818,38.2272727 L71.8181818,52.5454545 L69.5454545,52.5454545 L69.5454545,46.4090909 L62.7272727,46.4090909 L62.7272727,52.5454545 L60.4545455,52.5454545 L60.4545455,38.2272727 L62.7272727,38.2272727 Z M264.772727,38.2272727 L264.772727,40.2727273 L260,40.2727273 L260,44.3636364 L264.090909,44.3636364 L264.090909,46.4090909 L260,46.4090909 L260,50.5 L265,50.5 L265,52.5454545 L257.727273,52.5454545 L257.727273,38.2272727 L264.772727,38.2272727 Z M249.090909,38.2272727 C251.818182,38.2272727 253.636364,40.0454545 253.636364,42.5454545 C253.636364,45.0454545 251.590909,46.8636364 249.090909,46.8636364 L247.272727,46.8636364 L247.272727,52.5454545 L245,52.5454545 L245,38.2272727 L249.090909,38.2272727 Z M192.5,38.2272727 L192.5,40.2727273 L187.727273,40.2727273 L187.727273,44.3636364 L191.818182,44.3636364 L191.818182,46.4090909 L187.727273,46.4090909 L187.727273,50.5 L192.727273,50.5 L192.727273,52.5454545 L185.454545,52.5454545 L185.454545,38.2272727 L192.5,38.2272727 Z M151.818182,38.2272727 C155,38.2272727 156.590909,40.0454545 156.590909,42.3181818 C156.590909,43.9090909 155.681818,45.5 154.318182,45.9545455 L157.727273,52.5454545 L155.227273,52.5454545 L152.272727,46.6363636 L150.227273,46.6363636 L150.227273,52.5454545 L147.954545,52.5454545 L147.954545,38.2272727 L151.818182,38.2272727 Z M217.045455,38.2272727 C220.227273,38.2272727 221.818182,40.0454545 221.818182,42.3181818 C221.818182,43.9090909 220.909091,45.5 219.545455,45.9545455 L222.954545,52.5454545 L220.454545,52.5454545 L217.5,46.6363636 L215.454545,46.6363636 L215.454545,52.5454545 L213.181818,52.5454545 L213.181818,38.2272727 L217.045455,38.2272727 Z M56.3636364,38.2272727 L56.3636364,40.2727273 L52.7272727,40.2727273 L52.7272727,52.5454545 L50.4545455,52.5454545 L50.4545455,40.2727273 L46.8181818,40.2727273 L46.8181818,38.2272727 L56.3636364,38.2272727 Z M143.181818,38.2272727 L143.181818,40.2727273 L138.409091,40.2727273 L138.409091,44.3636364 L142.5,44.3636364 L142.5,46.4090909 L138.409091,46.4090909 L138.409091,50.5 L143.409091,50.5 L143.409091,52.5454545 L135.909091,52.5454545 L136.136364,38.2272727 L143.181818,38.2272727 Z M90.9090909,38.2272727 L90.9090909,40.2727273 L86.1363636,40.2727273 L86.1363636,44.3636364 L90.2272727,44.3636364 L90.2272727,46.4090909 L86.1363636,46.4090909 L86.1363636,50.5 L91.1363636,50.5 L91.1363636,52.5454545 L83.8636364,52.5454545 L83.8636364,38.2272727 L90.9090909,38.2272727 Z M132.045455,38.2272727 L132.045455,40.2727273 L128.409091,40.2727273 L128.409091,52.5454545 L126.136364,52.5454545 L126.136364,40.2727273 L122.5,40.2727273 L122.5,38.2272727 L132.045455,38.2272727 Z M233.409091,40.2727273 C230.681818,40.2727273 228.409091,42.5454545 228.409091,45.5 C228.409091,48.4545455 230.454545,50.7272727 233.409091,50.7272727 C236.136364,50.7272727 238.409091,48.4545455 238.409091,45.5 C238.409091,42.5454545 236.136364,40.2727273 233.409091,40.2727273 Z M20.4545455,40.2727273 C17.7272727,40.2727273 15.4545455,42.5454545 15.4545455,45.5 C15.2272727,48.4545455 17.5,50.7272727 20.4545455,50.7272727 C23.1818182,50.7272727 25.4545455,48.4545455 25.4545455,45.5 C25.4545455,42.5454545 23.1818182,40.2727273 20.4545455,40.2727273 Z M100.909091,40.7272727 L98.8636364,46.6363636 L102.727273,46.6363636 L100.909091,40.7272727 Z M217.045455,40.2727273 L215.454545,40.2727273 L215.454545,44.8181818 L217.045455,44.8181818 C218.636364,44.8181818 219.545455,43.9090909 219.545455,42.5454545 C219.545455,41.1818182 218.636364,40.2727273 217.045455,40.2727273 Z M248.863636,40.0454545 L247.272727,40.0454545 L247.272727,44.8181818 L248.863636,44.8181818 C250.454545,44.8181818 251.363636,43.9090909 251.363636,42.3181818 C251.363636,40.9545455 250.227273,40.0454545 248.863636,40.0454545 Z M151.818182,40.2727273 L150.454545,40.2727273 L150.454545,44.8181818 L151.818182,44.8181818 C153.409091,44.8181818 154.318182,43.9090909 154.318182,42.5454545 C154.318182,41.1818182 153.409091,40.2727273 151.818182,40.2727273 Z M28.6363636,0.681818182 C32.8681818,0.681818182 35.5720909,3.51936364 35.6785545,7.91101091 L35.6818182,8.18181818 L35.6818182,23.1818182 C35.6818182,24.7727273 34.5454545,25.4545455 33.4090909,25.4545455 C32.1022727,25.4545455 31.2129104,24.4109059 31.1410656,23.3237814 L31.1363636,23.1818182 L31.1363636,8.18181818 C31.1363636,7.08754209 30.0826163,5.57176705 28.5839534,5.46098849 L28.4090909,5.45454545 L7.04545455,5.45454545 C5.95117845,5.45454545 4.43540342,6.5082928 4.32462485,8.0069557 L4.31818182,8.18181818 L4.31818182,18.1818182 C4.31818182,19.2760943 5.37192917,20.7918693 6.87059207,20.9026479 L7.04545455,20.9090909 L22.9545455,20.9090909 L22.9545455,17.5 C22.9545455,16.1363636 23.8636364,15.2272727 25.2272727,15.2272727 C26.3142292,15.2272727 27.1932463,16.2669703 27.2676278,17.3518721 L27.2727273,17.5 L27.2727273,22.5 C27.2727273,23.5942761 26.2189799,25.1100511 24.720317,25.2208297 L24.5454545,25.2272727 L7.27272727,25.2272727 C2.81818182,25.2272727 0.109818182,22.3897273 0.00326545455,18.2119873 L1.0658141e-14,17.9545455 L1.0658141e-14,7.95454545 C1.0658141e-14,3.72272727 2.83754545,0.800545455 7.01528545,0.685350909 L7.27272727,0.681818182 L28.6363636,0.681818182 Z M100.454545,0.681818182 C101.818182,0.681818182 102.727273,1.59090909 102.727273,2.95454545 C102.727273,4.25889328 102.103454,4.93942258 100.656918,5.19503202 L100.454545,5.22727273 L91.1363636,5.22727273 C89.3787879,5.22727273 88.4707071,5.6520202 88.4121212,7.73328283 L88.4090909,7.95454545 L88.4090909,17.9545455 C88.4090909,22.8583916 86.2229357,25.1388515 81.4218026,25.224748 L81.1363636,25.2272727 L68.8636364,25.2272727 C67.5,25.2272727 66.5909091,24.0909091 66.5909091,22.9545455 C66.5909091,21.6477273 67.4258207,20.7583649 68.6955821,20.6865201 L68.8636364,20.6818182 L80.9090909,20.6818182 C82.8840125,20.6818182 83.7995892,20.0462112 83.8603842,18.1613078 L83.8636364,17.9545455 L83.8636364,7.95454545 C83.8636364,3.0506993 86.0497916,0.770239376 90.8509247,0.684342931 L91.1363636,0.681818182 L100.454545,0.681818182 Z M135.681818,0.681818182 C140.681818,0.681818182 142.954545,2.95454545 142.954545,7.95454545 C142.954545,12.8583916 140.76839,15.1388515 135.967257,15.224748 L135.681818,15.2272727 L117.727273,15.2272727 C116.136364,15.2272727 115.454545,14.3181818 115.454545,12.9545455 C115.454545,11.4272727 116.082909,10.7378182 117.540713,10.6851055 L117.727273,10.6818182 L135.681818,10.6818182 C137.5,10.6818182 138.409091,10.2272727 138.409091,7.95454545 C138.409091,6.2012987 137.775104,5.29336735 135.895787,5.23075139 L135.681818,5.22727273 L114.318182,5.22727273 C112.560606,5.22727273 111.652525,5.6520202 111.593939,7.73328283 L111.590909,7.95454545 L111.590909,17.9545455 C111.590909,19.7121212 112.015657,20.620202 114.096919,20.6787879 L114.318182,20.6818182 L140.681818,20.6818182 C142.045455,20.6818182 142.954545,21.8181818 142.954545,22.9545455 C142.954545,24.2613636 142.119634,25.150726 140.849872,25.2225708 L140.681818,25.2272727 L114.318182,25.2272727 C109.414336,25.2272727 107.133876,23.0411175 107.047979,18.2399844 L107.045455,17.9545455 L107.045455,7.95454545 C107.045455,3.04713805 109.015853,0.766928545 114.031044,0.684159265 L114.318182,0.681818182 L135.681818,0.681818182 Z M177.954545,0.681818182 C179.318182,0.681818182 180.227273,1.81818182 180.227273,2.95454545 C180.227273,4.26136364 179.392361,5.15072601 178.1226,5.22257076 L177.954545,5.22727273 L154.090909,5.22727273 C152.113636,5.22727273 151.410606,5.86439394 151.365934,7.7545202 L151.363636,7.95454545 L151.363636,17.9545455 C151.363636,19.7121212 151.788384,20.620202 153.869646,20.6787879 L154.090909,20.6818182 L178.181818,20.6818182 C179.545455,20.6818182 180.454545,21.8181818 180.454545,22.9545455 C180.454545,24.2613636 179.619634,25.150726 178.349872,25.2225708 L178.181818,25.2272727 L154.318182,25.2272727 C149.414336,25.2272727 147.133876,23.0411175 147.047979,18.2399844 L147.045455,17.9545455 L146.818182,7.95454545 C146.818182,3.0506993 149.004337,0.770239376 153.80547,0.684342931 L154.090909,0.681818182 L177.954545,0.681818182 Z M213.636364,0.681818182 C218.54021,0.681818182 220.82067,2.86797337 220.906566,7.6691065 L220.909091,7.95454545 L220.909091,17.9545455 C220.909091,22.8583916 218.722936,25.1388515 213.921803,25.224748 L213.636364,25.2272727 L192.272727,25.2272727 C187.368881,25.2272727 185.088421,23.0411175 185.002525,18.2399844 L185,17.9545455 L185,7.95454545 C185,3.0506993 187.186155,0.770239376 191.987288,0.684342931 L192.272727,0.681818182 L213.636364,0.681818182 Z M73.4090909,0.681818182 C74.7727273,0.681818182 75.6818182,1.59090909 75.6818182,2.95454545 C75.6818182,4.26363636 75.0534545,4.94436364 73.3945745,5.19780364 L73.1818182,5.22727273 L63.8636364,5.22727273 C62.1060606,5.22727273 61.1979798,5.6520202 61.1393939,7.73328283 L61.1363636,7.95454545 L61.1363636,17.9545455 C61.1363636,22.8583916 58.9502084,25.1388515 54.1490753,25.224748 L53.8636364,25.2272727 L41.5909091,25.2272727 C40.4545455,25.2272727 39.5454545,24.0909091 39.5454545,22.9545455 C39.5454545,21.6501976 40.1692731,20.7617288 41.4169101,20.6869363 L41.5909091,20.6818182 L53.8636364,20.6818182 C55.838558,20.6818182 56.7541347,20.0462112 56.8149296,18.1613078 L56.8181818,17.9545455 L56.8181818,7.95454545 C56.8181818,3.0506993 59.004337,0.770239376 63.8054701,0.684342931 L64.0909091,0.681818182 L73.4090909,0.681818182 Z M213.636364,5.22727273 L192.272727,5.22727273 C190.295455,5.22727273 189.592424,5.86439394 189.547753,7.7545202 L189.545455,7.95454545 L189.545455,17.9545455 C189.545455,19.7121212 189.970202,20.620202 192.051465,20.6787879 L192.272727,20.6818182 L213.636364,20.6818182 C215.613636,20.6818182 216.316667,20.044697 216.361338,18.1545707 L216.363636,17.9545455 L216.363636,7.95454545 C216.363636,6.13636364 215.909091,5.22727273 213.636364,5.22727273 Z" id="Combined-Shape"></path>
        </g>
    </g>
</svg>