<?xml version="1.0" encoding="UTF-8"?>
<svg width="497px" height="83px" viewBox="0 0 497 83" version="1.1" xmlns="http://www.w3.org/2000/svg" xmlns:xlink="http://www.w3.org/1999/xlink">
    <title>booking</title>
    <g id="Page-1" stroke="none" stroke-width="1" fill="none" fill-rule="evenodd">
        <g id="booking" fill="#FFFFFF" fill-rule="nonzero">
            <path d="M284.38708,18.3678569 C290.47584,18.3678569 294.225315,20.5143906 296.316702,22.3241069 L296.316702,22.3241069 L296.917017,22.845483 L297.27521,22.1503149 C298.223214,20.3602939 300.115021,19.3801994 302.573529,19.3801994 L302.573529,19.3801994 L308.594538,19.3801994 L308.547269,61.0642855 C308.547269,76.9574578 295.664391,82.6051469 284.630777,82.6051469 C279.271534,82.6051469 273.342437,81.1627624 268.787815,78.7456406 L268.787815,78.7456406 L267.886555,78.265441 L269.341387,74.5492645 L270.369748,72.0049368 C271.484244,69.2473737 273.095063,68.5611343 275.844013,69.3907036 C277.949055,70.1540439 281.097164,70.9961658 284.555672,70.9961658 C291.672269,70.9961658 295.598214,67.6473212 295.598214,61.576733 L295.598214,61.576733 L295.598214,60.3135502 L294.598214,61.0642855 C292.014706,63.0209032 288.755252,63.983088 284.630777,63.983088 C272.555672,63.983088 264.116597,54.5314599 264.116597,41.0070376 C264.116597,27.4665439 272.272584,18.3678569 284.38708,18.3678569 Z M355.564076,18.6171212 C362.254202,18.6171212 372.195378,21.4517326 372.195378,29.2674889 L372.195378,29.2674889 L372.195378,35.192909 L365.417017,35.1855561 C364.849265,35.1855561 361.962185,35.0153355 361.008929,31.8384973 L361.008929,31.8384973 L360.948004,31.6019427 C360.534139,30.2007872 357.889706,29.3675939 355.564076,29.3675939 C348.403887,29.3675939 343.401261,34.6462179 343.401261,42.1985813 C343.401261,50.9460603 349.853466,54.8647053 356.239496,54.8647053 C363.24895,54.8647053 368.573004,49.2508922 368.609769,49.2062494 L368.609769,49.2062494 L368.609769,49.2064595 L369.315651,48.4539385 L374.683824,57.3590855 L374.327206,57.7962704 C374.264706,57.8769427 367.585084,65.9506822 355.302521,65.9506822 C341.145483,65.9506822 330.878151,56.0045162 330.878151,42.2937494 C330.878151,28.5776254 341.258403,18.6171212 355.564076,18.6171212 Z M399.500525,18.5703266 C413.280987,18.5703266 423.309349,28.4716921 423.309349,42.1071963 C423.309349,55.7427005 413.280987,65.6422804 399.500525,65.6422804 C385.748424,65.6422804 375.773634,55.7427005 375.773634,42.1071963 C375.773634,28.4716921 385.748424,18.5703266 399.500525,18.5703266 Z M121.798319,18.5703266 C135.577206,18.5703266 145.607668,28.4716921 145.607668,42.1071963 C145.607668,55.7427005 135.577206,65.6422804 121.798319,65.6422804 C108.043067,65.6422804 98.0682773,55.7427005 98.0682773,42.1071963 C98.0682773,28.4716921 108.043067,18.5703266 121.798319,18.5703266 Z M70.9101891,18.5703266 C84.7032563,18.5703266 94.717437,28.4716921 94.717437,42.1071963 C94.717437,55.7427005 84.7032563,65.6422804 70.9101891,65.6422804 C57.1685924,65.6422804 47.1959034,55.7427005 47.1959034,42.1071963 C47.1959034,28.4716921 57.1685924,18.5703266 70.9101891,18.5703266 Z M321.206408,50.338656 C325.372374,50.338656 328.758929,53.7233724 328.758929,57.9053577 C328.758929,62.0766287 325.372374,65.4649165 321.206408,65.4649165 C317.053046,65.4649165 313.680672,62.0766287 313.680672,57.9053577 C313.680672,53.7233724 317.053046,50.338656 321.206408,50.338656 Z M202.390231,19.502048 C206.985819,19.502048 209.207983,21.754359 209.207983,26.4022581 L209.207983,26.4022581 L209.181723,64.92563 L209.160714,64.92563 L209.160714,64.9434871 L206.121849,64.9434871 L203.068803,64.9524157 C202.986345,64.9524157 202.920168,64.9434871 202.83771,64.9434871 L202.83771,64.9434871 L196.283088,64.9434871 L196.283088,54.6443274 L196.28729,54.6443274 L196.245273,19.502048 Z M156.586224,2.02033391 C160.099217,2.04750223 163.301471,2.84222557 163.301471,8.0776267 L163.301471,8.0776267 L163.301471,34.7376056 L165.378151,34.7376056 C166.936975,34.7376056 167.978466,34.3559355 168.494223,33.5997905 L168.494223,33.5997905 L177.605567,19.4984775 L192.326681,19.4984775 L180.200105,37.5256309 C179.578256,38.4393914 178.933298,39.2277842 178.302521,39.8925426 L178.302521,39.8925426 L177.865546,40.3118178 L178.280987,40.7526267 C178.933298,41.4280993 179.545693,42.2792023 180.079832,43.2844019 L180.079832,43.2844019 L185.016282,52.6339292 L192.461134,64.9488977 L182.464811,64.9488977 C178.696429,64.9488977 176.693277,64.3199586 174.683298,60.6342443 L174.683298,60.6342443 L167.487395,47.0525216 C167.023109,46.2444334 166.010504,46.0724271 164.523634,46.0724271 L164.523634,46.0724271 L163.301471,46.0724271 L163.301471,64.9488977 L150.257353,64.9488977 L150.246849,2.0195909 Z M243.408613,18.4699589 C254.012605,18.4699589 259.613971,24.5405471 259.613971,36.0258938 L259.613971,36.0258938 L259.634979,64.932774 L253.469538,64.932774 C248.758929,64.932774 246.581933,62.7306732 246.581933,58.0236354 L246.581933,58.0236354 L246.581933,38.2279946 C246.581933,32.7128686 245.001576,30.5788349 240.957458,30.5788349 C235.929622,30.5788349 231.907038,33.630253 230.464811,38.5379736 C229.923319,40.1595597 229.657038,41.9369757 229.657038,43.9849799 L229.657038,43.9849799 L229.657038,64.932774 L216.701681,64.932774 L216.664916,19.4823013 L222.511029,19.4823013 C226.046218,19.4823013 228.395483,20.9515765 229.092437,23.621377 L229.092437,23.621377 L229.371849,24.7107677 L230.163866,23.9098223 C232.536239,21.4174379 236.769958,18.4699589 243.404937,18.4699589 L243.404937,18.4699589 Z M481.18142,18.616421 L481.531156,18.6193449 C491.302206,18.7555615 496.266807,24.6118894 496.266807,36.0223219 L496.266807,36.0223219 L496.256303,64.9255782 L490.432773,64.9255782 C485.86187,64.9255782 483.821429,62.8811455 483.821429,58.3067232 L483.821429,58.3067232 L483.821429,38.0864501 C483.821429,32.2918072 482.412815,30.1345068 478.603466,30.1345068 C473.339286,30.1345068 469.951155,34.86124 468.948004,39.4714816 C468.454832,41.1145488 468.250525,42.7522589 468.250525,44.9400215 L468.250525,44.9400215 L468.250525,64.9255782 L455.790441,64.9255782 L455.790441,38.0864501 C455.790441,33.0640761 454.147584,30.4641812 450.782563,30.1416497 C445.326681,29.6220593 442.081408,34.8164396 440.898634,39.6452736 C440.460084,41.4567757 440.243172,43.1894438 440.243172,44.9400215 L440.243172,44.9400215 L440.243172,64.9255782 L427.870798,64.9255782 L427.923319,19.6507358 L433.368697,19.6507358 C436.764181,19.6507358 439.005252,21.0376055 439.690126,23.5550425 L439.690126,23.5550425 L440.162815,25.3038345 L441.390231,23.9743177 C443.266282,21.9764711 447.305147,18.6169123 453.327206,18.6169123 C459.069853,18.6169123 463.200105,20.8387085 465.599265,25.2142337 L465.599265,25.2142337 L466.335609,26.5455362 L467.274685,25.3557778 C470.610819,21.1343492 475.807248,18.6169123 481.182773,18.6169123 L481.18142,18.616421 Z M7.97006303,2.0428568 L7.97006303,2.0464282 L21.5210084,2.0464282 C33.3954832,2.0464282 41.0677521,8.4305668 41.0677521,18.3212706 C41.0677521,24.786029 37.8230042,28.527258 35.887605,30.1918063 L35.887605,30.1918063 L34.2232143,31.6144954 L36.1297269,32.6859765 C40.7552521,35.2912286 43.5089286,40.4139702 43.5089286,46.4056719 C43.5089286,57.5344534 34.9889706,64.7195374 21.7888655,64.7195374 L21.7888655,64.7195374 L6.29569328,64.7231089 C6.29044118,64.7195374 6.28518908,64.7231089 6.26943277,64.7195374 L6.26943277,64.7195374 L0.0504201681,64.7195374 L0.0504201681,8.5775206 C0.0898109244,5.0351362 2.90651261,2.1719009 6.4269958,2.0428568 L6.4269958,2.0428568 L7.97006303,2.0428568 Z M70.9101891,29.5826165 C64.414916,29.5826165 59.9012605,34.737606 59.9012605,42.1071963 C59.9012605,49.4786249 64.414916,54.6371858 70.9101891,54.6371858 C77.5378151,54.6371858 82.0063025,49.595064 82.0063025,42.1071963 C82.0063025,34.737606 77.4427521,29.5826165 70.9101891,29.5826165 Z M399.500525,29.5826165 C393.008403,29.5826165 388.482668,34.737606 388.482668,42.1071963 C388.482668,49.4786249 393.008403,54.6371858 399.500525,54.6371858 C406.129727,54.6371858 410.598739,49.595064 410.598739,42.1071963 C410.598739,34.737606 406.020483,29.5826165 399.500525,29.5826165 Z M121.798319,29.5826165 C115.303571,29.5826165 110.780987,34.737606 110.780987,42.1071963 C110.780987,49.4786249 115.303571,54.6371858 121.798319,54.6371858 C128.426471,54.6371858 132.893382,49.595064 132.893382,42.1071963 C132.893382,34.737606 128.317227,29.5826165 121.798319,29.5826165 Z M22.6607143,37.0779408 L15.4684874,37.0779408 C13.1591387,37.4004198 12.1144958,38.8016278 12.1144958,41.4964807 L12.1144958,41.4964807 L12.1144958,54.1052517 L22.6607143,54.1160185 C27.8765756,54.1124471 31.1108193,50.9284135 31.1144958,45.5530458 C31.1108193,40.3157034 27.7941176,37.0779408 22.6607143,37.0779408 L22.6607143,37.0779408 Z M286.407396,29.8000046 L286.250525,29.7994221 C277.972164,29.7994221 277.327206,38.1151258 277.327206,40.6665964 C277.327206,46.4576679 279.848214,52.6374998 286.931197,52.6374998 C290.995273,52.6374998 295.847164,50.6360817 295.847164,41.0948527 C295.847164,30.9784137 290.364496,29.7994221 286.250525,29.7994221 Z M21.4369748,12.3205353 L16.0404412,12.3205353 C13.3434874,12.4979513 12.1144958,13.8794114 12.1144958,16.7838757 L12.1144958,16.7838757 L12.1144958,27.3805143 L21.6071429,27.3805143 C26.9396008,27.3805143 28.8371849,23.2576152 28.8371849,19.7242118 C28.8371849,15.0906509 26.0651261,12.3205353 21.4369748,12.3205353 L21.4369748,12.3205353 Z M202.213761,0.050421 C206.381303,0.050421 209.768382,3.4315134 209.768382,7.61176553 C209.768382,11.786608 206.381303,15.1712718 202.213761,15.1712718 C198.060399,15.1712718 194.68645,11.786608 194.68645,7.61176553 C194.68645,3.4315134 198.060399,0.050421 202.213761,0.050421 Z" id="Combined-Shape"></path>
        </g>
    </g>
</svg>