<?xml version="1.0" encoding="UTF-8"?>
<svg width="498px" height="115px" viewBox="0 0 498 115" version="1.1" xmlns="http://www.w3.org/2000/svg" xmlns:xlink="http://www.w3.org/1999/xlink">
    <title>cm-logo</title>
    <g id="Page-1" stroke="none" stroke-width="1" fill="none" fill-rule="evenodd">
        <g id="cm-logo" fill="#FFFFFF" fill-rule="nonzero">
            <path d="M80.1100917,-2.12183337e-06 L80.1100917,17.0183486 L97.9541284,17.0183486 L97.9541284,34.8623853 L114.972477,34.8165138 L114.972477,73.8073394 L108.091743,73.8073394 L108.091743,41.6972477 L98.0458716,41.6972477 L98.0458716,57.3394495 L91.1651376,57.3394495 L91.1651376,23.853211 L80.1559633,23.853211 L80.1559633,38.2798165 L73.2752294,38.2798165 L73.2752294,6.88073394 L57.6330275,6.88073394 C34.5394746,6.90667 14.4108356,22.6070841 8.76315646,44.9994172 C3.11547733,67.3917502 13.3903241,90.7603753 33.7092265,101.735578 C54.0281288,112.71078 79.2047015,108.491147 94.8348624,91.4908257 L94.8348624,91.4908257 L87.6100917,84.266055 C75.239081,98.0548096 55.0642066,101.640051 38.6999128,92.957796 C22.3356189,84.2755414 13.9927272,65.5598884 18.4741449,47.5852241 C22.9555625,29.6105599 39.1081417,17.0020827 57.6330275,17.0183486 L57.6330275,17.0183486 L61.0504587,17.0183486 L61.0504587,41.6513761 L57.6330275,41.6513761 C49.3439778,41.6426962 42.4873398,48.101674 42.0013538,56.3764694 C41.5153677,64.6512647 47.5687918,71.8684619 55.801871,72.8301412 C64.0349503,73.7918206 71.5887547,68.1640398 73.0229358,59.9999979 L73.0229358,59.9999979 L78.5275229,65.5045872 C74.5628693,75.6701525 63.8700619,81.5200436 53.1713267,79.376621 C42.4725914,77.2331984 34.8585516,67.7156487 35.1159105,56.8073508 C35.3732694,45.8990529 43.4276818,36.7511681 54.2155963,35.1146789 L54.2155963,35.1146789 L54.2155963,24.0137615 C38.9767532,25.637439 26.7848347,37.3988742 24.6146455,52.569535 C22.4444564,67.7401958 30.8498878,82.4481173 45.0223249,88.2791291 C59.1947619,94.110141 75.5170134,89.5760104 84.6513761,77.2706422 L84.6513761,77.2706422 L86.9449541,74.059633 L104.077982,91.1926606 L102.12844,93.4862385 C85.3027858,114.205238 56.406469,120.574924 32.4291697,108.850218 C8.45187048,97.1255118 -4.26478896,70.407417 1.7559911,44.4049207 C7.77677115,18.4024244 30.9425881,-0.00721812619 57.6330275,-2.12183337e-06 L57.6330275,-2.12183337e-06 L80.1100917,-2.12183337e-06 Z M270.110092,35.8943399 C274.289271,35.8762169 278.314598,37.4699179 281.348624,40.3440367 L277.816514,44.4495413 C275.774151,42.3644287 272.959263,41.218545 270.041284,41.2844037 C266.807339,41.2844037 262.197248,42.5917431 262.197248,46.766055 C262.197248,50.940367 267.380734,51.8807339 270.614679,52.4541284 C276.440367,53.5321101 282.56422,55.9862385 282.655963,63.5321101 C282.747706,71.0779817 276.440367,74.7018349 270.041284,74.7018349 C264.005935,75.0289775 258.269477,72.0509391 255.06422,66.9266055 L259.46789,63.8990826 C261.914747,67.3494611 265.903562,69.373892 270.133028,69.3119266 C273.527523,69.3119266 277.013761,67.2247706 277.013761,63.3944954 C277.013761,59.5642202 273,58.440367 269.674312,57.7752294 C263.550459,56.6972477 256.577982,54.8394495 256.577982,46.8348624 C256.577982,38.8302752 263.986239,35.8943399 270.110092,35.8943399 Z M484.123853,35.733945 C490.821101,35.733945 497.518349,39.4724771 497.518349,47.2018349 L497.518349,56.9954128 L473.412844,56.9954128 L473.412844,63.2568807 C473.412844,69.3119266 478.665138,71.9724771 484.215596,71.9724771 C488.059626,72.2719551 491.778399,70.5301414 494.009174,67.3853211 L496.302752,68.6009174 C494.009174,72.7752294 489.100917,74.7247706 484.123853,74.7247706 C477.426606,74.7247706 470.66055,70.9862385 470.66055,63.2568807 L470.66055,47.2018349 C470.66055,39.5642202 477.426606,35.733945 484.123853,35.733945 Z M415.706422,35.8944954 C422.40367,35.8944954 428.87156,39.4954128 428.87156,46.8348624 L428.87156,72.5458716 C424.172541,74.0379034 419.259252,74.7431232 414.330275,74.6330275 C407.449541,74.6330275 402.013761,70.5275229 402.013761,63.1651376 C402.013761,54.9541284 408.642202,51.6972477 415.775229,51.6972477 C419.382402,51.6698687 422.9571,52.3801254 426.279817,53.7844037 L426.165138,46.8348624 C426.165138,40.7798165 420.706422,38.3256881 415.155963,38.3256881 C411.728048,38.2852686 408.425729,39.614452 405.981651,42.0183486 L404.399083,40.2752294 C407.389979,37.2983599 411.490612,35.7096768 415.706422,35.8944954 Z M235.844037,35.8944954 C243.045872,35.8944954 250.087156,39.9311927 250.087156,48.2798165 L250.087156,58.1422018 L227.151376,58.1422018 L227.197248,62.6834862 C227.197248,67.2706422 231.440367,69.3119266 235.844037,69.3119266 C239.424326,69.466461 242.756085,67.4854151 244.330275,64.266055 L249.376147,66.4220183 C246.840749,71.5528441 241.565845,74.7535482 235.844037,74.6330275 C228.642202,74.6330275 221.348624,70.5275229 221.348624,62.2477064 L221.348624,48.2798165 C221.348624,39.9311927 228.642202,35.8944954 235.844037,35.8944954 Z M323.344037,35.8944954 C330.545872,35.8944954 337.587156,39.9311927 337.587156,48.2798165 L337.587156,58.1422018 L314.651376,58.1422018 L314.697248,62.6834862 C314.697248,67.2706422 318.940367,69.3119266 323.344037,69.3119266 C326.924326,69.466461 330.256085,67.4854151 331.830275,64.266055 L336.876147,66.4220183 C334.340749,71.5528441 329.065845,74.7535482 323.344037,74.6330275 C316.142202,74.6330275 308.848624,70.5275229 308.848624,62.2477064 L308.848624,48.2798165 C308.848624,39.9311927 316.142202,35.8944954 323.344037,35.8944954 Z M210.545872,23.4633028 L210.545872,62.4541284 C210.312376,64.3409837 210.961852,66.2301115 212.306237,67.5744967 C213.650622,68.9188818 215.53975,69.5683577 217.426606,69.3348624 L217.472477,74.6330275 C209.330275,74.6330275 204.788991,70.0458716 204.788991,62.4541284 L204.788991,23.4633028 L210.545872,23.4633028 Z M294.880734,27.1788991 L294.880734,36.6972477 L302.518349,36.6972477 L302.518349,42.0183486 L294.880734,42.0183486 L294.880734,62.3853211 C294.8837,64.7383252 295.997494,66.9517865 297.885304,68.3563536 C299.773114,69.7609207 302.213279,70.1916722 304.46789,69.5183486 L304.536697,74.4954128 C303.756881,74.4954128 303.022936,74.6330275 302.243119,74.6330275 C294.674312,74.6330275 289.192661,70.0458716 289.192661,62.3853211 L289.192661,27.1788991 L294.880734,27.1788991 Z M183.252294,35.8944954 C190.454128,35.8944954 197.541284,39.9311927 197.541284,48.2798165 L197.541284,58.1422018 L174.605505,58.1422018 L174.605505,62.6834862 C174.605505,67.2706422 178.848624,69.3119266 183.229358,69.3119266 C186.836545,69.4768965 190.194058,67.4732194 191.761468,64.2201835 L196.807339,66.3761468 C194.264061,71.5106125 188.98079,74.7109699 183.252294,74.587156 C176.050459,74.587156 168.779817,70.4816514 168.779817,62.2018349 L168.779817,48.2798165 C168.779817,39.9311927 176.050459,35.8944954 183.252294,35.8944954 Z M163.137615,43.3027523 L158.550459,45.8715596 C156.68249,42.8299197 153.219916,41.1478426 149.674312,41.559633 C145.362385,41.559633 141.027523,43.7155963 141.027523,48.2568807 L141.027523,62.2247706 C141.027523,66.6284404 145.06422,69.1055046 149.743119,69.1055046 C153.799676,69.3524711 157.555878,66.9655254 159.055046,63.1880734 L163.642202,65.3440367 C161.426161,71.0840743 155.799019,74.7740032 149.651376,74.5183486 C142.518349,74.5183486 135.247706,70.412844 135.247706,62.0642202 L135.247706,48.3027523 C135.247706,39.9541284 142.518349,35.8486239 149.651376,35.8486239 C155.220115,35.4712953 160.494666,38.3866511 163.137615,43.3027523 Z M380.270642,35.8944954 C387.40367,35.5963303 393.527523,39.7018349 393.527523,47.6376147 L393.527523,73.9220183 L390.866972,73.9220183 L390.866972,47.7752294 C391.577982,35.733945 370.775229,35.733945 370.775229,46.1926606 L370.775229,73.9220183 L368.252294,73.9220183 L368.252294,46.1926606 C368.252294,38.1192661 354.353211,36.9036697 348.59633,40.6422018 L348.59633,73.9220183 L345.93578,73.9220183 L346.027523,38.9908257 C349.512931,36.8199516 353.577563,35.7637875 357.678899,35.9633028 C362.235508,35.6331838 366.667709,37.5412548 369.559633,41.0779817 C371.991391,37.6118448 376.043565,35.6508353 380.270642,35.8944954 Z M462.472477,36.6972477 L463.550459,38.4174312 L439.720183,71.3990826 L463.183486,71.3990826 L463.183486,73.9220183 L437.541284,73.9220183 L436.188073,71.9036697 L459.949541,38.9908257 L437.541284,38.9908257 L437.541284,36.6972477 L462.472477,36.6972477 Z M415.591743,54.0366972 C409.834862,54.0366972 404.490826,56.1926606 404.422018,63.2110092 C404.422018,69.5412844 408.733945,72.2706422 414.444954,72.3853211 C418.401523,72.4834751 422.350887,71.9965672 426.165138,70.940367 L426.165138,56.1926606 C422.795267,54.8565164 419.215722,54.1266308 415.591743,54.0366972 Z M484.215596,38.4862385 C478.802752,38.4862385 473.344037,41.2844037 473.412844,47.2018349 L473.412844,54.7477064 L495.018349,54.7477064 L495.018349,47.2018349 C495.018349,41.2844037 489.62844,38.4862385 484.215596,38.4862385 Z M183.229358,41.1009174 C178.43578,41.146789 174.605505,43.5779817 174.605505,48.1651376 L174.605505,53.3715596 L192.036697,53.3715596 L192.036697,47.9816514 C192.036697,43.6009174 187.449541,41.1009174 183.229358,41.1009174 Z M235.844037,41.1009174 C231.095898,41.1009174 227.275053,43.4633109 227.197546,47.7331986 L227.197248,53.1880734 L244.62844,53.1880734 L244.62844,47.9816514 C244.62844,43.6009174 240.041284,41.1009174 235.844037,41.1009174 Z M323.344037,41.1009174 C318.595898,41.1009174 314.775053,43.4633109 314.697546,47.7331986 L314.697248,53.1880734 L332.12844,53.1880734 L332.12844,47.9816514 C332.12844,43.6009174 327.541284,41.1009174 323.344037,41.1009174 Z" id="Combined-Shape"></path>
        </g>
    </g>
</svg>