<?xml version="1.0" encoding="UTF-8"?>
<svg width="65px" height="64px" viewBox="0 0 65 64" version="1.1" xmlns="http://www.w3.org/2000/svg" xmlns:xlink="http://www.w3.org/1999/xlink">
    <!-- Generator: Sketch 63.1 (92452) - https://sketch.com -->
    <title>css-wizardry</title>
    <desc>Created with Sketch.</desc>
    <g id="Page-1" stroke="none" stroke-width="1" fill="none" fill-rule="evenodd">
        <g id="css-wizardry" fill="#FFFFFF" fill-rule="nonzero">
            <path d="M0.234,44.003 L0.234,3.001 C0.234,1.337 1.578,-3.55271368e-15 3.235,-3.55271368e-15 L61.233,-3.55271368e-15 C62.897,-3.55271368e-15 64.234,1.344 64.234,3.001 L64.234,42.537 C62.431,41.435 60.323,40.884 57.91,40.884 C54.554,40.884 52.01,41.672 50.278,43.247 C48.546,44.823 47.68,46.801 47.68,49.183 C47.68,51.793 48.576,53.711 50.368,54.938 C51.426,55.672 53.339,56.351 56.105,56.977 L58.919,57.608 C60.567,57.969 61.776,58.384 62.545,58.853 C63.315,59.334 63.7,60.014 63.7,60.892 C63.7,62.395 62.924,63.424 61.373,63.977 L61.31,63.999 L61.232,64 L55.379,64 C54.606,63.726 53.994,63.316 53.543,62.768 C53.05,62.167 52.719,61.259 52.551,60.044 L47.247,60.044 C47.247,61.535 47.535,62.853 48.111,64 L43.628,64 C44.152,62.942 44.414,61.768 44.414,60.477 C44.414,58.108 43.62,56.297 42.033,55.047 C41.011,54.241 39.495,53.598 37.487,53.117 L32.904,52.016 C31.136,51.595 29.981,51.228 29.44,50.915 C28.598,50.446 28.177,49.736 28.177,48.786 C28.177,47.752 28.604,46.946 29.458,46.368 C30.312,45.791 31.455,45.502 32.886,45.502 C34.173,45.502 35.249,45.725 36.115,46.17 C37.414,46.844 38.112,47.98 38.208,49.58 L43.548,49.58 C43.452,46.753 42.414,44.598 40.436,43.112 C38.457,41.627 36.067,40.884 33.264,40.884 C29.908,40.884 27.364,41.672 25.632,43.247 C23.9,44.823 23.034,46.801 23.034,49.183 C23.034,51.793 23.93,53.711 25.722,54.938 C26.78,55.672 28.693,56.351 31.459,56.977 L34.273,57.608 C35.921,57.969 37.13,58.384 37.899,58.853 C38.669,59.334 39.054,60.014 39.054,60.892 C39.054,62.395 38.278,63.424 36.727,63.977 L36.661,64 L30.733,64 C29.96,63.726 29.348,63.316 28.897,62.768 C28.404,62.167 28.073,61.259 27.905,60.044 L22.601,60.044 C22.601,61.535 22.889,62.853 23.465,64 L17.861,64 C18.748,62.61 19.342,61.009 19.642,59.196 L14.139,59.196 C13.766,60.567 13.297,61.596 12.732,62.281 C12.035,63.15 11.123,63.723 9.996,64 L6.682,64 C5.481,63.691 4.446,63.013 3.576,61.966 C2.343,60.481 1.727,58.246 1.727,55.264 C1.727,52.281 2.31,49.975 3.477,48.345 C4.644,46.715 6.237,45.9 8.258,45.9 C10.243,45.9 11.74,46.477 12.75,47.632 C13.315,48.281 13.778,49.244 14.139,50.519 L19.696,50.519 C19.612,48.859 18.998,47.205 17.856,45.558 C15.787,42.623 12.516,41.156 8.041,41.156 C4.927,41.156 2.324,42.105 0.232,44.004 L0.234,44.003 Z M64.234,53.745 L64.234,49.58 L62.853,49.58 C62.757,47.98 62.059,46.844 60.76,46.17 C59.894,45.725 58.818,45.502 57.531,45.502 C56.1,45.502 54.957,45.791 54.103,46.368 C53.249,46.945 52.822,47.751 52.822,48.786 C52.822,49.736 53.243,50.446 54.085,50.915 C54.626,51.228 55.781,51.595 57.549,52.016 L62.132,53.117 C62.906,53.302 63.607,53.512 64.235,53.746 L64.234,53.745 Z" id="Shape"></path>
        </g>
    </g>
</svg>