<?xml version="1.0" encoding="UTF-8"?>
<svg width="363px" height="512px" viewBox="0 0 363 512" version="1.1" xmlns="http://www.w3.org/2000/svg" xmlns:xlink="http://www.w3.org/1999/xlink">
    <!-- Generator: Sketch 63.1 (92452) - https://sketch.com -->
    <title>css</title>
    <desc>Created with Sketch.</desc>
    <g id="Page-1" stroke="none" stroke-width="1" fill="none" fill-rule="evenodd">
        <g id="css" fill="#FFFFFF" fill-rule="nonzero">
            <path d="M362.734,100.62 L329.688,470.819 L181.145,512 L33.011,470.877 L-2.84217094e-14,100.62 L362.734,100.62 Z M294.964,176.305 L67.499,176.305 L71.627,221.716 L245.198,221.716 L241.066,268.217 L75.677,268.217 L79.747,313.627 L237.128,313.627 L231.857,372.521 L181.21,386.191 L181.209,386.194 L181.168,386.206 L130.594,372.55 L127.361,336.333 L81.776,336.333 L88.138,407.634 L181.158,433.457 L181.367,433.399 L181.367,433.391 L274.304,407.634 L274.987,399.962 L285.658,280.411 L286.766,268.217 L294.964,176.305 Z M206.367,0 L206.367,20 L174.367,20 L174.367,24 L206.367,24 L206.367,70 L151.367,70 L151.367,49 L183.367,49 L183.367,45 L151.367,45 L151.367,0 L206.367,0 Z M272.367,0 L272.367,20 L240.367,20 L240.367,24 L272.367,24 L272.367,70 L217.367,70 L217.367,49 L249.367,49 L249.367,45 L217.367,45 L217.367,0 L272.367,0 Z M140.367,0 L140.367,23 L108.367,23 L108.367,46 L140.367,46 L140.367,69 L85.367,69 L85.367,0 L140.367,0 Z" id="Combined-Shape"></path>
        </g>
    </g>
</svg>