<?xml version="1.0" encoding="UTF-8"?>
<svg width="492px" height="415px" viewBox="0 0 492 415" version="1.1" xmlns="http://www.w3.org/2000/svg" xmlns:xlink="http://www.w3.org/1999/xlink">
    <title>emondo</title>
    <g id="Page-1" stroke="none" stroke-width="1" fill="none" fill-rule="evenodd">
        <g id="emondo" fill="#FFFFFF" fill-rule="nonzero">
            <path d="M283.155585,379.282076 L287.204776,398.127976 C288.791846,405.525462 284.050599,412.800596 276.607674,414.377976 C269.161419,415.955357 261.844928,411.243056 260.254531,403.845569 L260.254531,403.845569 L256.341754,385.429564 C262.54031,384.222553 268.818719,382.893188 275.183635,381.345569 C277.891968,380.6875 280.517122,379.979828 283.155585,379.282076 L283.155585,379.282076 Z M385.962786,317.909722 C369.503174,339.659061 324.539517,361.944114 267.947328,373.951389 C210.972513,386.028108 158.392915,384.275462 131.682228,371.484458 C171.954546,373.170965 222.284961,368.167658 275.243857,355.710649 C317.499181,345.773479 355.405867,332.512897 385.962786,317.909722 Z M302.833343,186.646126 C404.890652,174.754927 483.697674,187.072502 490.794251,219.847884 C499.511492,260.115741 396.827728,315.86971 261.447661,344.375 C126.054284,372.886906 9.23328726,363.343254 0.519374488,323.075397 C-6.87031633,288.948413 65.3330518,242.662038 170.05971,212.460318 C165.385473,213.808348 157.369475,216.693314 147.567895,220.669337 C146.197134,221.398995 144.913611,222.122214 143.702703,222.840278 C143.476454,222.97586 143.22026,223.111442 143.000665,223.243717 C140.808047,224.576389 138.981419,225.875992 137.444257,227.142526 C137.188063,227.354167 136.938524,227.5625 136.702293,227.770833 C135.304873,229.004299 134.216882,230.201389 133.521499,231.342263 C133.415029,231.517526 133.365121,231.682871 133.275287,231.854828 C132.666411,233.025462 132.343673,234.159722 132.569922,235.204696 C134.832412,245.720569 179.982392,245.045965 233.423731,233.706681 C286.868397,222.364087 328.358467,204.645833 326.095976,194.12996 C325.869728,193.088293 325.111128,192.182208 324.073044,191.358796 C323.923321,191.239749 323.806869,191.107474 323.637182,190.991733 C322.532556,190.231151 321.048628,189.583003 319.268581,189.02414 C318.965807,188.92824 318.653051,188.838956 318.330314,188.749669 C316.407197,188.217262 314.207924,187.77414 311.659296,187.44676 C311.409757,187.416997 311.126944,187.393849 310.874079,187.364087 C308.500531,187.087055 305.928444,186.879088 303.106374,186.767879 C298.869013,187.201814 294.570902,187.687457 290.217879,188.224207 C294.212082,187.690704 298.174834,187.19322 302.10338,186.731544 L301.750921,186.722553 L301.750921,186.722553 Z M438.577319,209.52381 C433.837458,187.629697 379.823653,179.380691 306.999033,186.380123 C350.366717,183.826514 380.721451,189.087272 383.466728,201.868056 C387.72886,221.702711 323.999846,252.036707 241.142814,269.619378 C158.272471,287.211971 87.6461917,285.389881 83.3840601,265.555225 C81.8357453,258.355355 89.2689116,249.776406 103.321643,240.926144 C71.2839818,257.395044 41.1175833,277.593376 43.9026157,292.615741 C49.3325911,321.911376 143.668432,326.746032 252.657222,303.799604 C361.652667,280.863096 444.885672,238.647488 438.577319,209.52381 Z M203.812065,10.8382937 L244.117654,200.42824 C244.546863,202.458664 239.163468,205.722553 231.720542,207.299933 C224.277615,208.877315 217.929336,207.673611 217.490146,205.659722 L176.865146,16.5558863 C175.278076,9.15839947 180.019324,1.88326719 187.462249,0.305886243 C194.905175,-1.27480159 202.224994,3.4375 203.812065,10.8382937 Z" id="Combined-Shape"></path>
        </g>
    </g>
</svg>