<?xml version="1.0" encoding="UTF-8"?>
<svg width="500px" height="209px" viewBox="0 0 500 209" version="1.1" xmlns="http://www.w3.org/2000/svg" xmlns:xlink="http://www.w3.org/1999/xlink">
    <title>five</title>
    <g id="Page-1" stroke="none" stroke-width="1" fill="none" fill-rule="evenodd">
        <g id="five" fill="#FFFFFF" fill-rule="nonzero">
            <path d="M122.174603,13.3272283 L122.174603,36.5573871 C122.174603,45.1825397 117.727106,49.6410256 109.123932,49.6410256 L51.2277167,49.6410256 C50.0433455,49.6410256 49.4615385,50.2246642 49.4615385,51.4120879 L49.4615385,82.3717949 C49.4615385,83.5592186 50.0641026,84.1428571 51.2277167,84.1428571 L100.208791,84.1428571 C108.811966,84.1428571 113.259463,88.6013431 113.259463,97.2264957 L113.259463,120.456654 C113.259463,129.082418 108.811966,133.540904 100.208791,133.540904 L51.2277167,133.540904 C50.0433455,133.540904 49.4615385,134.123932 49.4615385,135.311355 L49.4615385,195.43895 C49.4615385,204.064713 45.0140415,208.523199 36.4108669,208.523199 L2.55860806,208.523199 C1.06227106,208.523199 0.189255189,207.626984 0.189255189,206.147741 L0.189255189,13.2851038 C0.189255189,4.65995116 4.63614164,0.201465201 13.2606838,0.201465201 L109.144689,0.201465201 C117.727106,0.242979243 122.174603,4.7014652 122.174603,13.3272283 Z M177.680708,0.242979243 L143.828449,0.242979243 C142.540293,0.242979243 141.688034,0.93040293 141.501221,2.0970696 C141.480464,2.26434676 141.459707,2.45177045 141.459707,2.63919414 L141.459707,195.501832 C141.459707,204.126984 145.906593,208.58547 154.530525,208.58547 L177.680708,208.58547 C186.30525,208.58547 190.731452,204.126984 190.731452,195.501832 L190.731452,13.3479853 C190.752137,4.7014652 186.30525,0.242979243 177.680708,0.242979243 Z M361.448718,0.242979243 L346.299145,0.242979243 L342.47558,0.242979243 L326.993284,0.242979243 C319.283272,0.242979243 313.340049,3.51404151 311.261905,13.6398046 L285.140415,143.999389 C284.849206,145.186813 283.664835,145.186813 283.352869,143.999389 L257.23138,13.6398046 C255.153236,3.53479853 249.209402,0.242979243 241.5,0.242979243 L220.718559,0.242979243 C208.249695,0.242979243 205.278388,6.78510379 207.356532,16.3272283 L245.053114,190.730769 C248.025031,203.814408 253.656899,208.58547 266.416361,208.58547 L302.035409,208.58547 C314.794872,208.58547 320.738095,203.814408 323.398046,190.730769 L363.81746,3.51404151 C364.129426,1.72222222 363.235653,0.242979243 361.448718,0.242979243 Z M428.840049,49.6410256 L486.739927,49.6410256 C495.34188,49.6410256 499.786325,45.1825397 499.786325,36.5573871 L499.786325,13.3479853 C499.786325,4.7014652 495.34188,0.242979243 486.739927,0.242979243 L390.85409,0.242979243 C382.250305,0.242979243 377.803419,4.7014652 377.803419,13.3479853 L377.803419,195.501832 C377.803419,204.126984 382.250305,208.58547 390.85409,208.58547 L497.442002,208.58547 C498.913309,208.58547 499.810745,207.689866 499.810745,206.210623 L499.810745,191.313797 L499.810745,188.43895 L499.810745,172.271673 C499.810745,163.64591 495.360195,159.187424 486.758242,159.187424 L428.864469,159.187424 C427.680098,159.187424 427.094017,158.583639 427.094017,157.396215 L427.094017,129.415751 C427.094017,128.228327 427.680098,127.623932 428.864469,127.623932 L477.844933,127.623932 C486.465201,127.623932 490.915751,123.165446 490.915751,114.539683 L490.915751,91.3302808 C490.915751,82.7051282 486.465201,78.2466422 477.844933,78.2466422 L428.864469,78.2466422 C427.680098,78.2466422 427.094017,77.6422466 427.094017,76.454823 L427.094017,51.453602 C427.075702,50.2454212 427.655678,49.6410256 428.840049,49.6410256 Z" id="Shape"></path>
        </g>
    </g>
</svg>