<svg height="198" viewBox="0 0 1672 198" width="1672" xmlns="http://www.w3.org/2000/svg"><path d="m1647.4 72h-71.8v-16.6h64.2c3.6 0 7.5-1 7.5-5.3 0-4.4-3.8-5.3-7.5-5.3h-43.3c-12.4 0-22.2-9.9-22.2-22.4s9.7-22.3 22.2-22.3h72.4v16.6h-64.7c-3.3 0-6.1 1.3-6.1 4.9s3.1 4.9 6.1 4.9h43.2c13.2 0 24 9.2 24 22.8s-10.7 22.7-24 22.7zm-146.1 0c-20.9 0-38.6-14.2-38.6-36 0-21.9 17.6-36 38.6-36h59.1v17.3h-52.2c-11.4 0-21.2 6.5-21.2 18.8 0 12.2 9.9 18.7 21.2 18.7h52.2v17.2zm-75.1 0h23.8v-72h-23.8zm-38.4 0v-54.6h-.6l-30.8 54.6h-23l-30.1-54.6h-.6v54.6h-22.7v-72h37.8l27.4 50.6h.5l27.2-50.6h37.5v72zm-180.1-59h-.8l-17.6 28.2h36.2zm36.2 59-8.9-13.7h-56l-8.3 13.7h-27.2l47.2-72h35l47 72zm-134.8 0-46.9-50.3h-.3v50.3h-22.7l-.1-72h33.1l43.4 46.8h.3v-46.8h21.8v72zm-124.1-25.1v25.1h-23.7v-24.9l-46.6-47.1h30.7l29.1 28.6 29-28.6h28.5zm-111.6-29.6h-37.8v37.4h37.8c11.4 0 21.2-6.4 21.2-18.7 0-12.2-9.8-18.7-21.2-18.7zm6.8 54.7h-68.3v-72h68.3c21.1 0 38.6 14.1 38.6 36 0 21.8-17.6 36-38.6 36zm-211.5 0v-72h23.8v54.7h58.6v17.3zm-72.3-59h-.8l-17.6 28.2h36.2zm36.2 59-8.9-13.7h-56l-8.3 13.7h-27.2l47.2-72h35l47 72zm-139.6-55.8h-39.1v17.1h39.1c5.4 0 10.7-2.5 10.7-8.5-.1-6.2-5.2-8.6-10.7-8.6zm15.5 31.1c6.2 8.3 12.5 16.5 18.6 24.7h-27.2l-16.3-22.5h-29.7v22.5h-23.9v-72h67.8c15.9 0 30.6 7.3 30.6 25-.1 12.8-8.3 19.6-19.9 22.3zm-175.9 24.7v-72h82.9v17.3h-59.1v10.1h59.1v15.8h-59.1v11.6h59.1v17.2zm-43.9 0-48.5-56.3h-.2v56.3h-22.8v-72h37.2l40.2 46.8h.3v-46.8h21.8v72zm-169 0v-72h83v17.3h-59.2v10.1h59.2v15.8h-59.2v11.6h59.2v17.2zm-81.1 0c-21 0-38.6-14.2-38.6-36 0-21.9 17.5-36 38.6-36h65.2v17.3h-58.4c-11.4 0-21.2 6.5-21.2 18.8 0 12.2 9.9 18.7 21.2 18.7h34.6v-11.7h-25.7v-15.8h49.5v44.7zm1023.6 52.2 17.8 44.2 17.7-44.2h6.8l-29.2 73h-7l8-20.2-21.9-52.8zm-39.2 4.2c-11.5 0-16.3 11.6-16.3 21.3s4.9 21.4 16.5 21.4c12.1 0 16.7-11.3 16.7-21.6 0-10.2-5.6-21.1-16.9-21.1zm17.2-4.2h6.5c-.2 3.6-.5 7.8-.5 11.9v31.7c0 10.5.5 21.6-11.2 27.1-4.2 2-7 2.4-12 2.4-9.6 0-20.9-3.3-20.9-14.2h6.8c.7 6.3 8.2 8.4 14.9 8.4 8.2 0 15.8-5.8 16-14.6v-9.9h-.2c-3.1 6.2-10.3 9.9-17.2 9.9-15.9 0-22.7-12.1-22.7-26.6 0-14.3 6.4-27.6 22.5-27.6 7.7 0 13.2 3.7 17.4 9.8l.2-.4zm-74.4 4.2c-12.7 0-17.8 12.4-17.8 22.2s5.1 22.2 17.8 22.2c12.8 0 17.8-12.4 17.8-22.2s-5-22.2-17.8-22.2zm24.7 22.2c0 13.9-7.8 28-24.6 28s-24.6-14.1-24.6-28 7.8-28 24.6-28 24.6 14.1 24.6 28zm-68.8 26.4h6.3v-76h-6.3zm-37.8-48.6c-12.7 0-17.8 12.4-17.8 22.2s5.1 22.2 17.8 22.2 17.8-12.4 17.8-22.2-5-22.2-17.8-22.2zm24.7 22.2c0 13.9-7.8 28-24.6 28s-24.6-14.1-24.6-28 7.8-28 24.6-28 24.6 14.1 24.6 28zm-97.7 26.4h-6.3v-40.9c0-4.1-.3-8.3-.5-11.9h6.5l.3 7.8.2.2c3.7-6.5 9.7-9.6 16.5-9.6 17.3 0 18.6 15.3 18.6 21.4v33h-6.3v-34.1c0-9.2-5.3-14.5-13.9-14.5-10.4 0-15.2 8.7-15.2 18.2v30.4zm-58.5-44.8h.2c3.7-6.5 9.7-9.6 16.5-9.6 17.3 0 18.6 15.3 18.6 21.4v33h-6.3v-34.1c0-9.2-5.3-14.5-13.9-14.5-10.4 0-15.2 8.7-15.2 18.2v30.4h-6.3v-76h6.3v31.2zm-25.6 8.2c-.5-8.1-5.7-12-14.4-12-9.7 0-15.7 10.1-15.7 22.1 0 12.1 6 22.3 15.7 22.3 8.2 0 13.9-5.1 14.4-12.3h6.8c-1.7 12.1-8.6 18.1-20.6 18.1-15.8 0-23.2-13.6-23.2-28 0-14.3 7.9-28 23.6-28 10.8 0 19.7 6.5 20.2 17.8zm-54.2 5.9c-.7-10.2-6.2-17.9-17.2-17.9-10.3 0-15.8 8.6-16.6 17.9zm-34 5.8c.2 11.3 5.4 20.7 18.3 20.7 7.5 0 13.7-5.4 15.3-12.6h6.6c-3.3 12.6-11.2 18.4-23.9 18.4-15.8 0-23.2-13.6-23.2-28 0-14.3 7.9-28 23.6-28 17.7 0 24.1 12.9 24.1 29.5zm-44.6-44.8h-24.5v-6.3h55.5v6.3h-24.1l-.1 69.7h-6.7zm-99.1 69.7h-6.3v-40.9c0-4.1-.3-8.3-.5-11.9h6.5l.3 7.8.2.2c3.7-6.5 9.7-9.6 16.5-9.6 17.3 0 18.6 15.3 18.6 21.4v33h-6.2v-34.1c0-9.2-5.3-14.5-13.9-14.5-10.4 0-15.2 8.7-15.2 18.2zm-44-48.6c-12.7 0-17.8 12.4-17.8 22.2s5.1 22.2 17.8 22.2 17.8-12.4 17.8-22.2-5.1-22.2-17.8-22.2zm24.6 22.2c0 13.9-7.8 28-24.6 28s-24.6-14.1-24.6-28 7.8-28 24.6-28c16.9 0 24.6 14.1 24.6 28zm-68.7 26.4h6.3v-52.8h-6.3zm-.5-68.1h7.4v-7.9h-7.4zm-30.1 21h-10.5v-5.8h10.5v-11.3l6.3-2.7v14h12v5.8h-12v35.4c-.1 4.8 2.4 7.5 7.3 7.5 1.9 0 3.8-.1 5.5-.6v5.5c-2 .5-4.3.9-6.4.9-13.4 0-12.6-8.5-12.6-15.7v-33zm-43.1 42.9c13.8 0 16.4-11.4 15.8-22.4-8.9.3-27.7-1.4-27.7 11.9 0 7.1 5.5 10.5 11.9 10.5zm15.8-33.1c-.6-8.6-5.1-11.4-12.5-11.4-6.6 0-12.1 2-12.9 9.2h-6.7c1.6-10.8 9.7-15 19.8-15 11.7 0 18.9 5.4 18.7 17.5v25c-.1 4.1.3 8.3.5 11.9h-6.5l-.2-7.8h-.2l-.3.7c-2.3 4.4-9.4 8.6-16.5 8.6-9.8 0-17.6-6-17.6-16.3 0-7.2 4.3-12.6 10.6-15.3 7-3.1 16.2-2 23.9-2.4v-4.7zm-117.2-7.7.2.2c3.7-6.5 9.7-9.6 16.5-9.6 8.3 0 14.8 4.6 17.2 11.6 3.9-6.2 10-11.6 18.2-11.6 17.3 0 18.6 15.3 18.6 21.4v33h-6.3v-34.1c0-9.2-5.3-14.5-13.9-14.5-10.4 0-15.2 8.7-15.2 18.2v30.4h-6.3v-34.1c0-9.2-5.3-14.5-13.9-14.5-10.4 0-15.2 8.7-15.2 18.2v30.4h-6.3v-40.9c0-4.1-.3-8.3-.5-11.9h6.5zm-35 45h-6.3v-40.9c.1-4.1-.3-8.3-.5-11.9h6.5l.3 7.8h.2c1.9-5.4 6.6-9.2 11.9-9.4 2.1-.1 4.2 0 6.3.1v6.1c-1.3-.1-2.6-.4-3.9-.4-9.4 0-14.3 6.7-14.5 16.8zm-44-48.6c-12.7 0-17.8 12.4-17.8 22.2s5.1 22.2 17.8 22.2 17.8-12.4 17.8-22.2-5-22.2-17.8-22.2zm24.6 22.2c0 13.9-7.8 28-24.6 28s-24.6-14.1-24.6-28 7.8-28 24.6-28 24.6 14.1 24.6 28zm-75.9 26.4v-47.1h-10.7v-5.8h10.6v-11.3c0-9.1 3.7-13.2 12.7-13.2 2 0 4.1.7 6 1.2v5.1c-1.3-.2-2.6-.4-3.9-.4-8.6 0-8.8 4.3-8.5 11.9v6.7h12v5.8h-12v47.1zm-56.8 0h-6.3v-40.9c0-4.1-.3-8.3-.5-11.9h6.5l.3 7.8.2.2c3.7-6.5 9.7-9.6 16.5-9.6 17.3 0 18.6 15.3 18.6 21.4v33h-6.3v-34.1c0-9.2-5.3-14.5-13.9-14.5-10.4 0-15.2 8.7-15.2 18.2v30.4zm-32.7 0h6.8v-76.3h-6.8z" fill="#fff"/></svg>