<?xml version="1.0" encoding="UTF-8"?>
<svg width="750px" height="258px" viewBox="0 0 750 258" version="1.1" xmlns="http://www.w3.org/2000/svg" xmlns:xlink="http://www.w3.org/1999/xlink">
    <!-- Generator: Sketch 63.1 (92452) - https://sketch.com -->
    <title>google</title>
    <desc>Created with Sketch.</desc>
    <g id="Page-1" stroke="none" stroke-width="1" fill="none" fill-rule="evenodd">
        <g id="google" fill="#FFFFFF" fill-rule="nonzero">
            <path d="M525.434,63.711 L525.434,63.713 L577.872,63.713 L567.232,74.353 L553.072,74.353 C564.671,84.213 569.762,94.743 569.762,106.983 C569.762,124.824 559.692,133.763 552.562,139.803 C551.262,140.963 547.782,143.383 545.772,145.503 C544.632,146.802 541.522,150.243 541.522,155.443 C541.522,159.073 542.732,162.162 548.972,167.012 C570.192,182.912 578.572,192.132 578.572,208.952 C578.572,232.811 555.892,257.122 512.102,257.122 C475.113,257.122 457.512,239.032 457.512,220.651 C457.512,199.661 476.972,180.131 525.392,177.181 C520.273,171.381 517.863,167.612 517.863,160.901 C517.873,156.351 519.812,151.641 519.812,151.641 L519.812,151.641 L512.693,151.641 C484.553,151.641 470.913,130.161 470.913,111.121 C470.913,86.111 490.053,63.711 525.434,63.711 L525.434,63.711 Z M529.684,184.891 C493.353,185.4 480.113,199.102 480.113,215.023 C480.113,234.242 499.434,246.012 524.713,246.012 C547.743,246.012 561.963,233.992 561.963,218.662 C561.963,207.511 555.504,201.251 545.144,193.061 C540.694,189.662 534.324,185.112 534.324,185.112 C534.324,185.112 532.383,184.891 529.684,184.891 Z M103.062,0.511 C135.122,0.511 157.552,10.471 173.042,20.951 L173.042,20.951 L148.552,45.441 L148.552,30.681 C135.491,18.841 120.892,10.341 95.802,10.341 C56.152,10.341 27.732,41.1 27.732,84.951 C27.732,129.661 59.152,175.441 112.612,175.441 C125.803,175.441 138.493,173.67 148.543,170.441 L148.543,170.441 L148.543,125.201 L116.333,125.2 L116.333,125.201 L116.333,125.201 L116.333,125.2 L127.113,114.501 L184.563,114.501 L176.103,122.961 C174.533,124.401 173.483,126.041 173.483,128.431 L173.483,128.431 L173.483,175.171 C146.673,182.631 123.463,186.621 97.323,186.621 C43.412,186.621 0.512,151.14 0.512,92.241 C0.512,50.862 32.682,0.511 103.062,0.511 Z M260.623,63.721 L260.623,63.732 C296.163,63.732 319.793,92.652 319.793,122.432 C319.793,154.402 295.613,184.061 256.203,184.061 C215.234,184.061 195.013,151.862 195.013,124.742 C195.013,93.322 220.113,63.721 260.623,63.721 L260.623,63.721 Z M699.923,63.721 C728.692,63.721 741.212,79.662 745.652,95.492 L745.652,95.492 L668.782,126.562 C676.122,155.422 697.102,171.122 718.862,171.122 C730.313,171.122 738.933,167.622 749.502,162.292 C743.903,169.782 736.233,175.742 728.263,179.412 C720.833,182.822 712.903,184.061 703.273,184.061 C664.653,184.061 643.983,152.15 643.983,121.501 C643.983,84.391 672.793,63.721 699.913,63.721 L699.913,63.721 Z M398.083,63.721 L398.083,63.732 C433.623,63.732 457.253,92.652 457.253,122.432 C457.253,154.402 433.073,184.061 393.663,184.061 C352.694,184.061 332.473,151.862 332.473,124.742 C332.473,93.322 357.573,63.721 398.083,63.721 L398.083,63.721 Z M632.673,3.791 L623.912,12.551 C622.933,13.492 621.593,14.972 621.593,17.862 L621.593,17.862 L621.593,164.572 C621.593,167.712 623.822,170.952 627.572,171.412 L627.572,171.412 L641.502,173.152 L634.103,180.551 L585.533,180.551 L594.433,171.681 C595.893,170.171 596.573,168.701 596.573,166.541 L596.573,166.541 L596.573,14.571 L580.473,14.571 L591.253,3.791 L632.673,3.791 Z M253.902,72.351 L253.892,72.351 C249.263,72.351 242.203,73.271 234.663,78.091 C225.442,84.521 219.583,93.261 219.583,111.161 C219.583,129.131 225.683,147.522 231.923,157.421 C239.012,168.162 248.482,176.351 262.032,176.351 C265.572,176.351 295.182,175.571 295.182,136.101 C295.182,109.561 282.463,72.351 253.902,72.351 L253.902,72.351 Z M391.362,72.351 L391.352,72.351 C386.723,72.351 379.663,73.271 372.123,78.091 C362.902,84.521 357.043,93.261 357.043,111.161 C357.043,129.131 363.143,147.522 369.383,157.421 C376.472,168.162 385.942,176.351 399.492,176.351 C403.032,176.351 432.642,175.571 432.642,136.101 C432.642,109.561 419.923,72.351 391.362,72.351 L391.362,72.351 Z M515.674,71.671 C503.303,71.671 492.903,80.961 492.903,98.421 C492.903,117.771 502.254,134.032 511.674,140.141 C515.915,143.041 520.924,144.211 525.104,144.211 C533.644,144.211 549.424,138.651 549.424,118.341 C549.424,99.521 539.392,84.311 533.113,78.651 C527.453,73.941 522.094,71.671 515.674,71.671 Z M694.892,72.21 L694.600495,72.2131755 C684.88495,72.357176 665.773,79.6907 665.773,106.391 C665.773,112.821 667.052,118.771 667.052,118.771 L667.052,118.771 L714.302,99.661 C718.063,98.181 719.962,96.581 719.962,93.551 C719.962,84.181 709.443,72.211 694.892,72.211 L694.892,72.21 Z" id="Combined-Shape"></path>
        </g>
    </g>
</svg>