<?xml version="1.0" encoding="UTF-8"?>
<svg width="646px" height="143px" viewBox="0 0 646 143" version="1.1" xmlns="http://www.w3.org/2000/svg" xmlns:xlink="http://www.w3.org/1999/xlink">
    <!-- Generator: Sketch 64 (93537) - https://sketch.com -->
    <title>Combined Shape</title>
    <desc>Created with Sketch.</desc>
    <g id="Page-1" stroke="none" stroke-width="1" fill="none" fill-rule="evenodd">
        <g id="monzo" transform="translate(-1.000000, 0.000000)" fill="#FFFFFF" fill-rule="nonzero">
            <path d="M130.22,0.475358849 C130.992917,0.475358849 131.734082,0.782848949 132.28,1.33 L132.28,1.33 L158.37,27.37 L158.31,27.4293588 L158.33,103.84 C158.33,105.775918 157.560176,107.632376 156.19,109 L123.56,141.63 C122.726979,142.475479 121.465068,142.732603 120.367648,142.280466 C119.270228,141.828329 118.555679,140.756903 118.559981,139.57 L118.559,67.1803588 L79.68,106.06 L79.644,105.983359 L40.73,67.08 L40.71,67.0593588 L40.7100195,139.57 C40.7140817,140.690964 40.0769475,141.708925 39.0816525,142.199462 L38.9023519,142.280466 C37.804932,142.732603 36.5430209,142.475479 35.71,141.63 L35.71,141.63 L3.08,109 C1.73086983,107.623206 0.98285073,105.767543 0.999711501,103.84 L0.999711501,103.84 L0.999711501,27.37 L1.03,27.3693588 L0.99,27.33 L26.99,1.33 C27.5359183,0.782848949 28.2770827,0.475358849 29.05,0.475358849 C29.8229173,0.475358849 30.5640817,0.782848949 31.11,1.33 L31.11,1.33 L79.679,49.8183588 L128.16,1.33 C128.656289,0.832589953 129.313939,0.533246809 130.010114,0.48293161 Z M382.961402,32.7594774 C397.350984,38.5436964 406.868418,52.3932627 407.11,67.9 C407.11,78.9 403.44,88.01 396.11,95.35 C388.835376,102.808137 378.806956,106.935996 368.39,106.76 C357.25,106.76 348.29,102.95 340.81,95.07 C333.834757,87.863449 329.979706,78.1988749 330.08,68.17 C330.042108,58.2959403 333.911195,48.8154959 340.829613,41.7907217 L341.21,41.41 C352.116777,30.3845983 368.57182,26.9752584 382.961402,32.7594774 Z M622.855283,32.7340569 C637.253522,38.5208773 646.771893,52.384056 647,67.9 C647,78.9 643.34,88.01 636,95.35 C628.725376,102.808137 618.696956,106.935996 608.28,106.76 C597.14,106.76 588.17,102.95 580.7,95.07 C573.735719,87.8586313 569.891676,78.1946355 570,68.17 C569.950866,58.1222292 573.947865,48.4775325 581.09,41.41 C591.992263,30.3674818 608.457045,26.9472366 622.855283,32.7340569 Z M559,31.9 L559,49.15 L532.5,86 L559.5,86 L559.5,104.89 L504.78,104.86 L504.78,89.64 L534.78,50.78 L504.78,50.78 L504.78,31.9 L559,31.9 Z M289.23,30.5 C305.67,30.5 314.91,39.74 314.91,56.72 L314.91,104.82 L294,104.82 L294,65.32 C294,55.13 291.82,50.51 283.81,50.51 C275.65,50.51 271.31,55.51 271.31,65.32 L271.31,104.86 L250.24,104.86 L250.24,65.32 C250.24,55.13 248.06,50.51 240.05,50.51 C231.89,50.51 227.55,55.51 227.55,65.32 L227.55,104.86 L207.17,104.86 L207.17,31.86 L226.6,31.86 L226.6,41.64 C231.08,34.17 237.6,30.5 246.43,30.5 C255.26,30.5 261.92,34.3 266.68,42.18 C274.29,34.18 280.13,30.5 289.23,30.5 Z M463.3,30.5 C478.38,30.5 488.16,40.01 488.16,56.72 L488.16,104.82 L466.7,104.82 L466.7,65.32 C466.7,55.13 464.52,50.51 456.23,50.51 C447.94,50.51 443.33,55.51 443.33,65.32 L443.33,104.86 L422.27,104.86 L422.27,31.86 L442.65,31.86 L442.38,41.64 C446.86,34.3 453.65,30.5 463.3,30.5 Z M368.52,50.4 C359.01,50.4 351.27,58.4 351.27,68.47 C351.27,78.54 359.15,86.38 368.52,86.38 L368.52,86.41 C378.03,86.41 385.78,78.41 385.78,68.47 C385.78,58.53 378.03,50.4 368.52,50.4 Z M608.4,50.4 C598.89,50.4 591.14,58.4 591.14,68.47 C591.14,78.54 599,86.38 608.4,86.38 L608.4,86.41 C617.91,86.41 625.65,78.41 625.65,68.47 C625.65,58.53 617.91,50.4 608.4,50.4 Z" id="Combined-Shape"></path>
        </g>
    </g>
</svg>