<?xml version="1.0" encoding="UTF-8"?>
<svg width="258px" height="39px" viewBox="0 0 258 39" version="1.1" xmlns="http://www.w3.org/2000/svg" xmlns:xlink="http://www.w3.org/1999/xlink">
    <title>netokracija</title>
    <g id="Page-1" stroke="none" stroke-width="1" fill="none" fill-rule="evenodd">
        <g id="netokracija" fill="#FFFFFF" fill-rule="nonzero">
            <path d="M105.2,29.36 L107.19,12.68 L100.41,12.68 L100.84,9.03 L118.05,9.03 L117.61,12.68 L110.83,12.68 L108.84,29.36 L105.2,29.36 Z M173.25,29.36 L173.47,27.55 C173.732272,25.6449431 173.031585,23.733976 171.6,22.45 L164.72,22.45 L163.9,29.35 L160.25,29.35 L162.67,9 L172.61,9 C174.329813,8.97888851 175.973219,9.70929119 177.11,11 C178.245151,12.3087013 178.759233,14.0441808 178.52,15.76 C178.24784,17.8029207 177.167034,19.6510987 175.52,20.89 L175.46,20.94 L175.46,21 C176.806367,22.9010594 177.384981,25.2405157 177.08,27.55 L176.86,29.38 L173.25,29.36 Z M165.16,18.81 L171.45,18.81 C173.165158,18.767807 174.60471,17.5050424 174.87,15.81 C174.981132,15.0202836 174.743966,14.221217 174.22,13.62 C173.69341,13.0407037 172.942749,12.7163893 172.16,12.73 L165.89,12.73 L165.16,18.81 Z M152,29.36 L152.22,27.55 C152.569028,25.1519809 151.366405,22.7948389 149.22,21.67 C147.81835,22.1780462 146.34081,22.445153 144.85,22.46 L144.47,22.46 L144.38,22.53 L143.57,29.37 L139.92,29.37 L142.35,9 L146,9 L144.84,18.76 L145.32,18.76 C149.83286,18.6461531 153.599618,15.2814648 154.22,10.81 L154.44,9 L158.08,9 L157.87,10.81 C157.41984,14.2124517 155.675623,17.3104969 153,19.46 L152.93,19.52 L153,19.58 C155.242209,21.5944644 156.327104,24.5976336 155.89,27.58 L155.67,29.41 L152,29.36 Z M222.02,29.36 L224.44,9.03 L228.09,9.03 L225.67,29.36 L222.02,29.36 Z M232.87,9 L236.52,9 L234.14,29 C233.43825,34.1038581 229.149763,37.9525002 224,38.1 L224.42,34.42 C227.495278,34.3376924 230.061385,32.0463746 230.49,29 L232.87,9 Z M194.76,29.36 L195.36,24.36 L185.78,24.36 L185.17,29.36 L181.53,29.36 L182.94,17.48 C183.586059,12.715379 187.593356,9.12321417 192.4,9 C194.549055,8.96098459 196.609701,9.8545391 198.05,11.45 C199.483363,13.0983324 200.132571,15.286674 199.83,17.45 L198.41,29.35 L194.76,29.36 Z M192,12.68 C189.284284,12.7468421 187.016067,14.7696179 186.64,17.46 L186.26,20.68 L195.85,20.68 L196.23,17.48 C196.404933,16.2553166 196.040123,15.0149611 195.23,14.08 C194.411105,13.1617333 193.229996,12.6497976 192,12.68 Z M251.88,29.36 L252.49,24.36 L242.9,24.36 L242.3,29.36 L238.65,29.36 L240.06,17.48 C240.706059,12.715379 244.713356,9.12321417 249.52,9 C251.669317,8.95966015 253.730488,9.85344261 255.17,11.45 C256.608118,13.0957178 257.257983,15.2862721 256.95,17.45 L255.53,29.35 L251.88,29.36 Z M249.07,12.68 C246.354841,12.7434092 244.0876,14.7690933 243.72,17.46 L243.33,20.68 L252.92,20.68 L253.3,17.48 C253.469597,16.2557076 253.105425,15.0175213 252.3,14.08 C251.479485,13.1639778 250.299466,12.6525145 249.07,12.68 Z M210.62,29.36 C208.477676,29.3878589 206.428155,28.4870909 205,26.89 C203.571427,25.2396264 202.929301,23.0505599 203.24,20.89 L203.65,17.44 C203.944461,15.117397 205.079238,12.9830195 206.84,11.44 C208.548023,9.89797741 210.759078,9.03061822 213.06,9 C215.219141,8.96022632 217.288757,9.86180524 218.73,11.47 L219.86,12.75 L217,15.37 L215.86,14.08 C215.040979,13.1677648 213.865737,12.6567899 212.64,12.68 C209.924284,12.7468421 207.656067,14.7696179 207.28,17.46 L206.87,20.91 C206.700735,22.1311958 207.065039,23.3661866 207.87,24.3 C208.690279,25.2175052 209.869481,25.732265 211.1,25.71 C212.415012,25.6946402 213.678485,25.1963691 214.65,24.31 L216.07,23 L218.34,25.57 L216.89,26.86 C215.179038,28.4368019 212.9465,29.3269683 210.62,29.36 Z M127.15,29.36 C124.993795,29.3995223 122.92735,28.4977345 121.49,26.89 C120.056645,25.2422392 119.413865,23.0509445 119.73,20.89 L120.14,17.44 C120.434461,15.117397 121.569238,12.9830195 123.33,11.44 C125.049892,9.88501446 127.281437,9.01659814 129.6,9 C131.755939,8.96181472 133.821851,9.86337016 135.26,11.47 C136.688573,13.1203736 137.330699,15.3094401 137.02,17.47 L136.61,20.92 C136.320058,23.244035 135.184476,25.3799256 133.42,26.92 C131.701109,28.4766065 129.468921,29.3452732 127.15,29.36 Z M129.15,12.68 C126.434841,12.7434092 124.1676,14.7690933 123.8,17.46 L123.39,20.91 C123.220735,22.1311958 123.585039,23.3661866 124.39,24.3 C125.210279,25.2175052 126.389481,25.732265 127.62,25.71 C130.343357,25.6528228 132.622682,23.6276982 133,20.93 L133.41,17.48 C133.579597,16.2557076 133.215425,15.0175213 132.41,14.08 C131.577106,13.1576947 130.382261,12.6461401 129.14,12.68 L129.15,12.68 Z M80.63,29.36 L83.05,9.03 L96.89,9.03 L96.46,12.68 L86.27,12.68 L85.71,17.37 L94.79,17.37 L94.35,21.02 L85.27,21.02 L84.71,25.71 L94.9,25.71 L94.47,29.36 L80.63,29.36 Z M62.67,15.86 L61.06,29.36 L57.41,29.36 L59.87,9.03 L63.02,9.03 L73,22.52 L74.6,9.03 L78.22,9.03 L75.8,29.36 L72.64,29.36 L62.67,15.86 Z"></path>
            <path d="M45.28,0 L44.89,3.11 L44.89,3.11 C44.4911479,5.46760344 43.0660982,7.5264156 41,8.73 C37.92,10.19 33,7.55 28.33,4.99 C24.08,2.68 19.67,0.29 15.46,0.15 C12.3920508,-0.0359913425 9.36802462,0.950570396 7,2.91 C4.93820355,4.75534434 3.64300218,7.30649857 3.37,10.06 L0,37.24 L3.44,37.24 L3.72,35 C4.20378005,32.9882364 5.59772619,31.3169801 7.49,30.48 C11.06,28.89 16.43,31.23 21.62,33.48 C25.8,35.31 30.14,37.2 34.11,37.32 L34.88,37.32 C37.3952117,37.3607785 39.8410274,36.4946261 41.77,34.88 C43.8759169,32.9422917 45.1634281,30.2742823 45.37,27.42 L48.72,0 L45.28,0 Z M34.7,33.84 C31.35,33.74 27.3,31.97 23.38,30.26 C17.38,27.63 11.67,24.99 6.43,27.33 C5.76835513,27.6293506 5.14409287,28.0052505 4.57,28.45 C4.57,28.36 4.84,20.22 13.21,21.31 C16.29,21.72 19.87,23.4 23.34,25.02 C24.69,25.66 26.05,26.29 27.42,26.87 C27.6351754,28.0264853 28.460266,28.9754931 29.5756086,29.3493509 C30.6909512,29.7232088 31.9213064,29.4631773 32.79,28.67 C33.4487965,28.8232978 34.1168768,28.9335311 34.79,29 C37.3048645,29.3839722 39.8697981,28.7624967 41.93,27.27 C41.89,27.47 42,34.07 34.7,33.84 Z M35.56,25.54 C34.9263414,25.4744288 34.2981095,25.364154 33.68,25.21 C33.3600418,24.2677871 32.6248765,23.5248507 31.6860799,23.1950033 C30.7472833,22.8651558 29.7089848,22.9849833 28.87,23.52 C27.64,23 26.4,22.42 25.18,21.84 C21.5,20.12 17.7,18.34 14.18,17.84 C11.2035037,17.3149869 8.14053646,17.9988457 5.67,19.74 C5.67,19.66 5.76,11.79 14.09,12.44 C14.4,12.44 14.73,12.52 15.09,12.58 C15.5076365,13.9417582 16.7656389,14.8710568 18.19,14.87 C18.8435271,14.849845 19.4751972,14.629982 20,14.24 C21.6,14.93 23.23,15.74 24.83,16.55 C28.37,18.33 32.03,20.18 35.4,20.68 C37.867708,21.1885325 40.4361736,20.6762824 42.52,19.26 L42.89,18.98 C42.93,18.92 42.94,26.19 35.56,25.54 L35.56,25.54 Z M36.42,17.24 C33.55,16.82 30.11,15.08 26.79,13.41 C24.95,12.48 23.08,11.55 21.22,10.77 C20.9283029,9.70156328 20.1095234,8.85708132 19.0506099,8.53251014 C17.9916964,8.20793895 16.8403236,8.44854281 16,9.17 C15.6,9.11 15.2,9.05 14.81,9.01 C11.18,8.72 9.25,9.18 6.69992648,11.01 C6.69992648,11.01 6.59,3.31 14.88,3.58 C18.31,3.73 22.4,6 26.35,8.09 C30.69,10.44 34.85,12.7 38.69,12.63 C40.6085329,12.5929917 42.4583974,11.9094227 43.94,10.69 C44,10.6 43.46,18.27 36.42,17.24 L36.42,17.24 Z" id="MARK-2"></path>
        </g>
    </g>
</svg>