<?xml version="1.0" encoding="UTF-8"?>
<svg width="500px" height="114px" viewBox="0 0 500 114" version="1.1" xmlns="http://www.w3.org/2000/svg" xmlns:xlink="http://www.w3.org/1999/xlink">
    <title>pipedrive</title>
    <g id="Page-1" stroke="none" stroke-width="1" fill="none" fill-rule="evenodd">
        <g id="pipedrive" fill="#FFFFFF" fill-rule="nonzero">
            <path d="M42.4700581,22.9356261 C59.6482018,22.9356261 71.197603,36.5434105 71.197603,56.7904165 C71.197603,76.7230512 59.0269443,90.6377219 41.6392197,90.6377219 C33.3458066,90.6377219 28.0314353,87.0898177 25.2544892,84.5149674 C25.2769443,85.1287399 25.2844293,85.8098776 25.2844293,86.5359255 L25.2844293,113.571854 L25.2844293,113.571854 L7.49251314,113.571854 L7.49251314,113.571854 L7.49251314,41.5508956 L7.49251314,41.5508956 C7.49251314,40.5029914 7.1556868,40.17365 6.12275266,40.17365 L-1.8273999e-06,40.17365 L-1.8273999e-06,40.17365 L-1.8273999e-06,24.402692 L-1.8273999e-06,24.402692 L14.9326329,24.402692 L14.9326329,24.402692 C21.8038904,24.402692 23.5628724,27.8982009 23.8996988,30.5928117 C26.6916149,27.4715542 32.4775431,22.9356261 42.4700581,22.9356261 Z M141.585327,22.9356261 C158.755986,22.9356261 170.297902,36.5434105 170.297902,56.7904165 C170.297902,76.7230512 158.142214,90.6377219 140.747004,90.6377219 C132.461076,90.6377219 127.12425,87.0898177 124.362274,84.5149674 C124.384729,85.1287399 124.399699,85.8098776 124.399699,86.5359255 L124.399699,113.571854 L124.399699,113.571854 L106.592812,113.571854 L106.592812,113.571854 L106.592812,41.5508956 L106.592812,41.5508956 C106.592812,40.5029914 106.255986,40.17365 105.230537,40.17365 L99.1077825,40.17365 L99.1077825,40.17365 L99.1077825,24.402692 L99.1077825,24.402692 L114.047902,24.402692 L114.047902,24.402692 C120.91916,24.402692 122.670657,27.8982009 122.999998,30.5928117 C125.806884,27.4715542 131.577842,22.9356261 141.585327,22.9356261 Z M203.793795,22.9404975 C220.889604,22.9404975 232.379125,35.320737 232.379125,53.7413957 C232.379125,54.3261637 232.345501,55.1017122 232.298354,55.8964941 L232.268604,56.3742988 C232.1651,57.9655256 232.023586,59.4964481 232.004873,59.5946891 C232.004873,59.5946891 231.900083,60.7698388 231.900083,60.7698388 L189.699484,60.7698388 L189.699484,60.7698388 C191.2414,69.3851083 197.768346,74.8791202 206.690502,74.8791202 C215.979424,74.8791202 223.015352,68.3372041 223.090203,68.2773238 C223.090203,68.2773238 224.242897,67.1770244 224.242897,67.1770244 L224.266584,67.2166933 C224.7195,67.9751961 231.520786,79.3653798 231.973701,80.1238826 L231.997388,80.1635514 L231.997388,80.1635514 C231.997388,80.1635514 231.872638,80.2870024 231.727096,80.4310286 L231.549118,80.607152 C231.432684,80.722373 231.329557,80.8244258 231.292964,80.8606381 L231.239486,80.9135039 C230.455193,81.6815162 220.952901,90.6425933 205.612658,90.6425933 C185.680023,90.6425933 171.21146,76.4060663 171.21146,56.7952879 C171.21146,36.8626532 184.617149,22.9404975 203.793795,22.9404975 Z M287.59431,0.0142258513 C293.986526,0.0142258513 297.107783,3.15793843 297.107783,9.6025492 L297.107783,72.1549444 L297.107783,72.1549444 C297.107783,73.1429684 297.48952,73.539675 298.470059,73.539675 L304.465568,73.539675 L304.465568,73.539675 L304.465568,89.1684175 L304.465568,89.1684175 L289.046406,89.1684175 L289.046406,89.1684175 C282.392214,89.1684175 280.595807,85.6279983 280.236526,82.8360821 C277.47455,86.039675 271.815867,90.6429684 261.995508,90.6429684 C244.817364,90.6429684 233.275448,77.042669 233.275448,56.7881779 C233.275448,36.8555432 245.326346,22.9333875 262.59431,22.9333875 C271.426646,22.9333875 276.553891,26.0845851 279.181137,28.4723097 L279.181137,17.1699145 L279.181137,17.1699145 C279.181137,16.1220103 278.84431,15.792669 277.811376,15.792669 L271.688622,15.792669 L271.688622,15.792669 L271.688622,0.0142258513 L271.688622,0.0142258513 L287.59431,0.0142258513 L287.59431,0.0142258513 Z M471.288564,22.9404975 C488.399342,22.9404975 499.896348,35.320737 499.896348,53.7413957 C499.896348,55.6126532 499.537067,59.4375035 499.514612,59.5946891 C499.514612,59.5946891 499.417306,60.7698388 499.417306,60.7698388 L457.201737,60.7698388 L457.201737,60.7698388 C458.751138,69.3851083 465.278085,74.8791202 474.20024,74.8791202 C483.459222,74.8791202 490.525091,68.3372041 490.584971,68.2773238 C490.584971,68.2773238 491.767606,67.1770244 491.767606,67.1770244 L491.791247,67.2166933 C492.243288,67.9751961 499.031444,79.3653798 499.483485,80.1238826 L499.507126,80.1635514 L499.507126,80.1635514 C499.507126,80.1635514 499.381077,80.2870024 499.234018,80.4310286 L499.054187,80.607152 C498.965952,80.6935677 498.88528,80.7725764 498.83486,80.8219568 L498.781079,80.8746292 L498.781079,80.8746292 C498.384372,81.2788208 488.796049,90.6425933 473.107426,90.6425933 C453.174791,90.6425933 438.721198,76.4060663 438.721198,56.7952879 C438.721198,36.8626532 452.119402,22.9404975 471.288564,22.9404975 Z M385.117884,24.4026979 C390.739141,24.4026979 393.613393,26.2814404 395.39483,31.1017997 C395.39483,31.1017997 395.436596,31.2194733 395.515117,31.4406998 L395.659838,31.848439 C396.343973,33.7759335 398.261054,39.1771541 400.328494,45.0019999 L400.674274,45.976207 C400.847674,46.4647488 401.021701,46.9550557 401.195728,47.4453626 L401.543596,48.4254533 C403.918159,55.1155928 406.214712,61.5859439 406.834039,63.3308481 L406.912513,63.5519438 C406.967622,63.7072076 406.996626,63.7889254 406.996626,63.7889254 C407.438243,65.0015003 407.83495,66.3862308 408.171776,67.688626 C408.493632,66.3862308 408.867884,65.0239554 409.272075,63.8113805 C409.272075,63.8113805 419.306469,35.5273379 420.711284,31.5675719 L420.819668,31.2620689 C420.855309,31.1616081 420.873872,31.1092847 420.873872,31.1092847 C422.632854,26.3413207 425.604411,24.4026979 431.158303,24.4026979 L431.158303,24.4026979 L440.649321,24.4026979 L440.649321,24.4026979 L440.649321,40.173656 L440.649321,40.173656 L437.917285,40.173656 C436.525069,40.173656 436.068483,40.6526979 435.739141,41.5284464 C435.739141,41.5284464 431.939527,51.6095392 427.835945,62.4971195 L427.299258,63.92105 C427.11998,64.3967099 426.940414,64.873132 426.760848,65.3495542 L426.222438,66.7780584 C421.919752,78.1938955 417.782554,89.170662 417.782554,89.170662 L417.782554,89.170662 L397.767584,89.170662 C397.767584,89.170662 393.630387,78.1938955 389.327701,66.7780584 L388.789291,65.3495542 C388.609725,64.873132 388.430159,64.3967099 388.250881,63.92105 L387.714194,62.4971195 C383.610611,51.6095392 379.810998,41.5284464 379.810998,41.5284464 C379.481656,40.6526979 379.032554,40.173656 377.640339,40.173656 L377.640339,40.173656 L375.020578,40.173656 L375.020578,40.173656 L375.020578,24.4026979 L375.020578,24.4026979 Z M85.7073344,24.4015672 C92.0172147,24.4015672 95.093562,27.5452798 95.093562,33.9898905 L95.093562,72.1560582 L95.093562,72.1560582 C95.093562,73.1440822 95.4752985,73.5407888 96.4633224,73.5407888 L102.586077,73.5407888 L102.586077,73.5407888 L102.586077,89.1695313 L102.586077,89.1695313 L86.6654182,89.1695313 L86.6654182,89.1695313 C80.2732027,89.1695313 77.2941608,86.1306091 77.2941608,79.5812079 L77.2941608,41.5497708 L77.2941608,41.5497708 C77.2941608,40.5093516 76.9573344,40.1725253 75.9244003,40.1725253 L69.8016458,40.1725253 L69.8016458,40.1725253 L69.8016458,24.4015672 L69.8016458,24.4015672 L85.7073344,24.4015672 L85.7073344,24.4015672 Z M364.088305,24.4015672 C370.398185,24.4015672 373.467047,27.5452798 373.467047,33.9898905 L373.467047,72.1560582 L373.467047,72.1560582 C373.467047,73.1440822 373.848784,73.5407888 374.829323,73.5407888 L380.967047,73.5407888 L380.967047,73.5407888 L380.967047,89.1695313 L380.967047,89.1695313 L365.053874,89.1695313 L365.053874,89.1695313 C358.654173,89.1695313 355.667646,86.1306091 355.667646,79.5812079 L355.667646,41.5497708 L355.667646,41.5497708 C355.667646,40.5093516 355.338305,40.1725253 354.297886,40.1725253 L349.702077,40.1725253 L349.702077,40.1725253 L349.702077,24.4015672 L349.702077,24.4015672 L364.088305,24.4015672 L364.088305,24.4015672 Z M344.066987,23.5475259 C345.489143,23.5475259 347.004861,23.7945319 347.057257,23.809502 C347.057257,23.809502 348.142586,23.9891427 348.142586,23.9891427 L348.142586,41.8409391 L348.142586,41.8409391 C348.142586,41.8409391 346.649323,41.6163882 346.649323,41.6163882 C346.626867,41.6089032 345.141089,41.3918373 343.105161,41.3918373 C337.341688,41.3918373 330.219682,44.572975 327.540041,53.5101008 C326.701718,56.556508 326.271328,59.8424361 326.271328,63.2556098 L326.271328,89.1687834 L326.271328,89.1687834 L308.47567,89.1687834 L308.47567,89.1687834 L308.47567,41.5490229 L308.47567,41.5490229 C308.47567,40.5086038 308.131358,40.1717774 307.105909,40.1717774 L300.986897,40.1717774 L300.986897,40.1717774 L300.986897,24.4008193 L300.986897,24.4008193 L316.286299,24.4008193 L316.286299,24.4008193 C322.588694,24.4008193 325.796029,27.3873463 325.796029,33.2556098 L325.796029,34.7301607 L325.796029,34.7301607 C329.837945,27.8589032 336.656808,23.5475259 344.066987,23.5475259 Z M265.61452,38.8353336 C257.126496,38.8353336 251.430388,46.0434175 251.430388,56.7919205 C251.430388,67.8473097 256.90943,74.9955133 265.367514,74.9955133 C272.216316,74.9955133 279.544161,70.1901241 279.544161,56.67216 C279.544161,47.7874294 275.232783,38.8353336 265.61452,38.8353336 Z M39.0943095,38.8338297 C32.2455072,38.8338297 24.9251479,43.6467039 24.9251479,57.157183 C24.9251479,65.7350273 29.2814353,74.9940093 38.8622736,74.9940093 C45.965567,74.9940093 53.1437107,69.4476021 53.1437107,57.0299375 C53.1437107,46.1467039 47.4999982,38.8338297 39.0943095,38.8338297 Z M138.202094,38.8338297 C131.345806,38.8338297 124.025447,43.6467039 124.025447,57.157183 C124.025447,65.7350273 128.396705,74.9940093 137.955088,74.9940093 C145.073351,74.9940093 152.251495,69.4476021 152.251495,57.0299375 C152.251495,46.1467039 146.607783,38.8338297 138.202094,38.8338297 Z M203.790053,37.4839107 C197.120891,37.4839107 192.293047,41.0916951 190.361909,47.4464855 L213.999634,47.4464855 L213.999634,47.4464855 C213.273586,41.6006771 209.149334,37.4839107 203.790053,37.4839107 Z M471.288564,37.4839107 C464.626887,37.4839107 459.821498,41.0916951 457.867905,47.4464855 L481.505629,47.4464855 L481.505629,47.4464855 C480.779582,41.6006771 476.662815,37.4839107 471.288564,37.4839107 Z M93.8753701,0.0205806344 L93.8753701,16.8843531 L93.8753701,16.8843531 L78.0145917,16.8843531 L78.0145917,16.8843531 L78.0145917,0.0205806344 L78.0145917,0.0205806344 L93.8753701,0.0205806344 L93.8753701,0.0205806344 Z M372.252983,0.0205806344 L372.252983,16.8843531 L372.252983,16.8843531 L356.392205,16.8843531 L356.392205,16.8843531 L356.392205,0.0205806344 L356.392205,0.0205806344 L372.252983,0.0205806344 L372.252983,0.0205806344 Z" id="Combined-Shape"></path>
        </g>
    </g>
</svg>