<?xml version="1.0" encoding="UTF-8"?>
<svg width="220px" height="60px" viewBox="0 0 220 60" version="1.1" xmlns="http://www.w3.org/2000/svg" xmlns:xlink="http://www.w3.org/1999/xlink">
    <title>rba</title>
    <g id="Page-1" stroke="none" stroke-width="1" fill="none" fill-rule="evenodd">
        <g id="rba" fill="#FFFFFF" fill-rule="nonzero">
            <path d="M77.6,36.13 C81.72,36.13 84.24,37.7 83.54,42.13 C83.3529382,44.1843191 82.0942073,45.9868521 80.23,46.87 L80.23,46.87 L80.23,46.93 C83.48,47.37 84.54,49.61 84.03,52.84 C83.26,57.71 78.84,59.31 74.6,59.31 L74.6,59.31 L65.31,59.31 L69,36.13 Z M147,36.1 L145.48,45.67 L145.54,45.67 L154.35,36.1 L161.83,36.1 L150.83,47.1 L159,59.31 L151.18,59.31 L145,49.24 L144.94,49.24 L143.35,59.31 L137.35,59.31 L141,36.1 L147,36.1 Z M119.85,36.1 L128.65,50.29 L128.71,50.29 L131,36.1 L137,36.1 L133.33,59.31 L127.33,59.31 L118.53,45.08 L118.47,45.08 L116.2,59.31 L110.2,59.31 L113.85,36.1 L119.85,36.1 Z M103.23,36.1 L108.3,59.27 L101.87,59.27 L101,55.27 L92.69,55.31 L90.45,59.31 L84.05,59.31 L96.65,36.1 L103.23,36.1 Z M0.51,4.22 L54.01,4.23 L53.96,57.71 L0.52,57.69 L0.51,4.22 Z M37.67,10 L29.67,18 L31.67,20 L27.24,24.41 L22.79,20 L24.79,18 L16.79,10 C15.26,8.47 10.79,5.94 6.39,10.26 C3.6832321,12.9590201 2.13683244,16.6079492 2.08,20.43 L4.23,18.21 L12.55,26.53 L14.87,24.23 L14.87,18.76 L17.24,21.13 L17.24,27.75 L20.58,31.06 L3.68,47.92 L10.34,54.58 L27.21,37.76 L44.21,54.76 L50.88,48.09 L33.83,31.09 L37.15,27.8 L37.15,21.13 L39.52,18.76 L39.52,24.26 L41.83,26.53 L50.15,18.21 L52.4,20.43 C52.3103207,16.5864586 50.7414063,12.9256584 48.02,10.21 C43.64,5.89 39.2,8.42 37.67,10 Z M78.03,52.23 C78.48,49.42 75.48,49.71 73.48,49.71 L72.86,49.71 L72.07,54.69 L72.84,54.69 C72.8897222,54.69 72.9403781,54.6900694 72.9918859,54.6901498 L73.3105035,54.6902951 C75.1119444,54.6866667 77.6633333,54.5675 78.03,52.23 Z M98.83,43.27 L98.77,43.27 L95.1,50.66 L100.1,50.66 L98.83,43.27 Z M74.71,40.71 L74.28,40.71 L73.57,45.21 L74.4121152,45.2094978 C75.9798444,45.1991222 77.551,45.0093333 77.87,42.96 C78.2,40.84 76.34,40.71 74.71,40.71 L74.71,40.71 Z M92.67,9.53 C94.5202939,9.48204538 96.3017691,10.2325237 97.56,11.59 L97.56,11.59 L97.56,10.05 L103.15,10.05 L103.19,25.82 L97.6,25.82 L97.6,24.07 L97.54,24.07 C96.4315568,25.5790385 94.6401502,26.4315528 92.77,26.34 C88.06,26.34 84.77,22.43 84.77,17.92 C84.77,13.41 88,9.53 92.67,9.53 Z M147.55,9.53 C153.03,9.53 156.19,12.91 156.19,18.29 L156.19,18.29 L156.19,18.87 L144.42,18.87 C144.42,21.15 145.61,22.37 147.93,22.37 C149.025996,22.4580521 150.071502,21.8941839 150.6,20.93 L150.6,20.93 L155.95,20.93 C155.08,24.65 151.55,26.34 147.95,26.34 C142.73,26.34 138.83,23.39 138.83,17.95 C138.83,12.69 142.42,9.53 147.55,9.53 Z M180.31,10.53 L178.44,14.11 C177.51004,13.6325464 176.48495,13.3694401 175.44,13.34 C174.79,13.34 173.69,13.61 173.69,14.42 C173.69,15.49 175.44,15.64 176.21,15.8 C178.82,16.32 180.78,17.55 180.78,20.47 C180.78,24.62 177,26.34 173.35,26.34 C171.107564,26.3292487 168.911101,25.7031703 167,24.53 L169,20.62 C170.308452,21.5371296 171.837483,22.0893753 173.43,22.22 C174.13,22.22 175.18,21.88 175.18,21.02 C175.18,19.79 173.43,19.73 171.68,19.27 C169.93,18.81 168.18,17.95 168.18,15.12 C168.18,11.25 171.68,9.53 175.12,9.53 C176.90192,9.48457634 178.672529,9.82573423 180.31,10.53 Z M191.37,9.53 C196.84,9.53 200,12.91 200,18.29 L200,18.29 L200,18.87 L188.2,18.87 C188.2,21.15 189.39,22.37 191.7,22.37 C192.799479,22.4621413 193.849983,21.8976915 194.38,20.93 L194.38,20.93 L199.76,20.93 C198.9,24.65 195.36,26.34 191.76,26.34 C186.54,26.34 182.64,23.39 182.64,17.95 C182.64,12.69 186.23,9.53 191.37,9.53 Z M112.45,10.05 L112.45,25.82 L106.87,25.82 L106.87,10.05 L112.45,10.05 Z M164.33,10.05 L164.33,25.82 L158.74,25.82 L158.74,10.05 L164.33,10.05 Z M135.72,-6.69061161e-16 C136.552913,-0.0154313609 137.376926,0.173405004 138.12,0.55 L138.12,5.37 C137.497429,5.05905678 136.815448,4.88515161 136.12,4.86 C134.67,4.86 134.19,5.72 134.19,7.5 L134.19,10.05 L138.09,10.05 L138.09,14.66 L134.19,14.66 L134.22,25.82 L128.63,25.82 L128.63,14.66 L126.63,14.66 L126.63,10.05 L128.63,10.05 L128.63,8.05 C128.63,5.87 128.68,4.28 130.22,2.52 C131.590136,0.907552851 133.604101,-0.0152093316 135.72,-6.69061161e-16 Z M213.19,9.53 C217.43,9.53 219.12,12.2 219.12,16.07 L219.12,25.82 L213.52,25.82 L213.52,18.13 C213.52,17.9326316 213.524328,17.7155263 213.525536,17.4872952 L213.52501,17.2086284 C213.509626,15.7469529 213.259737,13.99 211,13.99 C208.73,13.99 208.09,15.68 208.09,17.64 L208.09,25.82 L202.49,25.82 L202.49,10.05 L208.09,10.05 L208.13,12.08 L208.19,12.08 C209.254084,10.3677448 211.179194,9.38593875 213.19,9.53 Z M74.23,2.64 C78.76,2.64 82.23,4.83 82.23,9.78 C82.23,12.97 80.45,15.73 77.16,16.32 L77.16,16.32 L84.47,25.82 L76.97,25.82 L71.29,16.91 L71.23,16.91 L71.23,25.82 L65.23,25.82 L65.23,2.64 Z M123.8,-8.55435514e-16 C124.632829,-0.0146203906 125.456649,0.174171769 126.2,0.55 L126.2,5.37 C125.576998,5.06021521 124.895271,4.88637485 124.2,4.86 C122.75,4.86 122.26,5.72 122.26,7.5 L122.26,10.05 L126.17,10.05 L126.17,14.66 L122.26,14.66 L122.29,25.82 L116.7,25.82 L116.7,14.66 L114.7,14.66 L114.7,10.05 L116.7,10.05 L116.7,8.05 C116.7,5.87 116.76,4.28 118.3,2.52 C119.670136,0.907552851 121.684101,-0.0152093316 123.8,-8.55435514e-16 Z M94.15,14.38 C93.1772669,14.3301584 92.2292139,14.6962241 91.5423959,15.3868578 C90.8555779,16.0774914 90.4947701,17.027558 90.55,18 C90.6508689,19.9118587 92.2304822,21.4103292 94.145,21.4103292 C96.0595178,21.4103292 97.6391311,19.9118587 97.74,18 C97.7949843,17.0293833 97.4355011,16.0810261 96.7509373,15.3907418 C96.0663735,14.7004574 95.1210406,14.3330947 94.15,14.38 L94.15,14.38 Z M147.76,13.1414106 C146.237756,13.1414106 144.906882,14.16774 144.52,15.64 L144.52,15.64 L151,15.64 C150.613118,14.16774 149.282244,13.1414106 147.76,13.1414106 Z M191.55,13.1414106 C190.027756,13.1414106 188.696882,14.16774 188.31,15.64 L188.31,15.64 L194.79,15.64 C194.403118,14.16774 193.072244,13.1414106 191.55,13.1414106 Z M71.74,7.26 L71.16,7.26 L71.16,13 L71.74,13 C73.7,13 75.92,12.65 75.92,10.14 C75.92,7.63 73.74,7.26 71.74,7.26 L71.74,7.26 Z M109.66,0.86 C111.391895,0.865489408 112.794511,2.26810477 112.8,4 C112.8,5.73417411 111.394174,7.14 109.66,7.14 C107.925826,7.14 106.52,5.73417411 106.52,4 C106.52,2.26582589 107.925826,0.86 109.66,0.86 Z M161.54,0.859983964 C163.270268,0.865510434 164.67,2.26972363 164.67,4 C164.67,5.27092007 163.903871,6.41650558 162.729305,6.90192616 C161.554739,7.38734674 160.203388,7.11686373 159.306146,6.21675538 C158.408905,5.31664703 158.142733,3.96444013 158.631898,2.79142875 C159.121063,1.61841737 160.269086,0.855952484 161.54,0.859983964 Z" id="Combined-Shape"></path>
        </g>
    </g>
</svg>