<?xml version="1.0" encoding="UTF-8"?>
<svg width="391px" height="120px" viewBox="0 0 391 120" version="1.1" xmlns="http://www.w3.org/2000/svg" xmlns:xlink="http://www.w3.org/1999/xlink">
    <!-- Generator: Sketch 63.1 (92452) - https://sketch.com -->
    <title>react-training</title>
    <desc>Created with Sketch.</desc>
    <g id="Page-1" stroke="none" stroke-width="1" fill="none" fill-rule="evenodd">
        <g id="react-training" fill="#FFFFFF" fill-rule="nonzero">
            <g id="Group">
                <path d="M60,0 C93.137085,0 120,26.862915 120,60 C120,93.137085 93.137085,120 60,120 C26.862915,120 0,93.137085 0,60 C0,26.862915 26.862915,0 60,0 Z M85.1,16.7 C79.4,13.4 69.8,17.4 60.1,26.4 C50.4,17.4 40.8,13.4 35.1,16.7 C29.3907524,19.9797806 28.1082374,30.2685546 31.0739309,43.1976878 C18.3232385,47.0829907 10,53.3557088 10,60 C10,60.2548923 10.0122492,60.5092378 10.0366981,60.7628917 C10.0527711,60.9300959 10.0740916,61.0970404 10.1001609,61.2637238 C10.1116759,61.336411 10.1241737,61.4090374 10.1383046,61.4819811 L10.1383046,61.4819811 L10.1540623,61.5674947 C10.2107834,61.8562011 10.2829681,62.1438832 10.3716892,62.4305907 C10.3785174,62.4529289 10.3854377,62.4752603 10.3909833,62.497349 C11.012148,64.4804852 12.3581888,66.4056426 14.3189224,68.2155044 C14.3884041,68.2797982 14.4586578,68.3439507 14.5298858,68.4077996 L14.5298858,68.4077996 L14.6472894,68.5132032 C14.7120021,68.5707013 14.7773346,68.6280815 14.8431773,68.6842073 L14.8431773,68.6842073 L14.9374658,68.7666749 C18.6099369,71.9210645 24.1550584,74.7077208 30.9714885,76.8080521 L30.9714885,76.8080521 L30.8672,77.272 C28.04,89.98 29.36,100.06 35,103.3 C40.7,106.6 50.3,102.6 60,93.6 C69.7,102.6 79.3,106.6 85,103.3 C90.6863359,100.033381 91.9813976,89.813912 89.062279,76.9582589 C89.0483402,76.8968731 89.0343053,76.8354272 89.0203683,76.7735097 C101.717783,72.8860534 110,66.6278976 110,60 C110,53.46 101.936,47.28 89.5232,43.3824 L89.5232,43.3824 L89.1135049,43.2550719 L89.2246438,42.764617 C92.0625312,30.0393655 90.745416,19.9431113 85.1,16.7 Z M35.2159839,77.9850541 C39.321048,79.0041124 43.7898763,79.7860631 48.515607,80.2742908 L48.515607,80.2742908 L48.9614744,80.8793223 C51.5057404,84.3119572 54.1444654,87.4300537 56.809,90.2088221 C56.7393333,90.2729322 56.6696667,90.3366667 56.6,90.4 C48.4,98 40.8,101.6 37.1,99.4 C33.446,97.312 32.71868,88.96696 35.1911968,78.0915192 L35.1911968,78.0915192 Z M84.6258149,77.9799217 L84.6511896,78.0915192 C87.11496,88.96696 86.354,97.312 82.7,99.4 C79.1,101.5 71.4,98 63.2,90.3999972 L63.2,90.3999972 L63.3,90.3 C66.1624747,87.3274301 68.9946471,83.930627 71.7131473,80.1935193 C76.1837207,79.723491 80.4211216,78.9935108 84.3349504,78.0503552 L84.3349504,78.0503552 L84.6258149,77.9799217 Z M65.6214435,80.6619329 C63.7627227,82.9920526 61.8813614,85.1418484 60,87.1 C58.1851852,85.2111111 56.3703704,83.1438957 54.5860387,80.908515 L54.5860387,80.908515 L54.4383782,80.7221999 C55.0886081,80.7537161 55.7425644,80.7796931 56.4,80.8 L56.4,80.8 L56.4436935,80.7449852 C57.6184379,80.7814206 58.8043395,80.8 60,80.8 C61.656,80.8 63.29328,80.76436 64.9081248,80.6950024 L64.9081248,80.6950024 Z M60,43.7 C63.012,43.7 65.95632,43.83104 68.8058304,44.074112 L68.8058304,44.074112 L69.1590256,44.1048563 C70.86672,46.5490194 72.5236758,49.1505974 74.1,51.9 C75.7064025,54.666582 77.1453859,57.4412912 78.4199239,60.1843599 C77.1947175,62.8073247 75.8222523,65.45737 74.3,68.1 C72.6512737,70.8478771 70.9488527,73.4480936 69.2119701,75.8904288 C66.236381,76.1561921 63.1553277,76.3 60,76.3 C56.8633826,76.3 53.8001613,76.1578925 50.8413799,75.8949827 C49.1333259,73.4510527 47.476346,70.8494407 45.9,68.1 C44.2935975,65.333418 42.8546141,62.5587088 41.5800761,59.8156401 C42.8052825,57.1926753 44.1777477,54.54263 45.7,51.9 C47.3487263,49.1521229 49.0511473,46.5519064 50.7880299,44.1095712 C53.763619,43.8438079 56.8446723,43.7 60,43.7 Z M39.2616499,65.1742933 C40.1480762,66.9138193 41.0942961,68.6582374 42.1,70.4 C43.0540441,72.0536765 44.0350571,73.65791 45.037997,75.2103672 C42.0910987,74.7746378 39.2816129,74.2217142 36.6450328,73.576464 L36.6450328,73.576464 L36.3804413,73.5112571 L36.3976544,73.4566936 C37.1508536,70.8785284 38.0666984,68.1990646 39.1482646,65.4602649 L39.1482646,65.4602649 Z M80.7350217,65.5714135 C81.8139741,68.3038719 82.72552,70.9766333 83.4733762,73.5473951 C80.860075,74.1909521 78.0757127,74.743815 75.1551466,75.1814445 C76.160654,73.6314574 77.1438704,72.0360439 78.1,70.4 C78.928,68.966 79.71568,67.5302 80.4628672,66.096812 L80.4628672,66.096812 Z M87.9537128,47.6939715 L87.9626591,47.6967448 L88.4378356,47.8458748 C98.835384,51.14861 105.5,55.884667 105.5,60 C105.5,64.1907892 98.5887468,69.0252735 87.8621094,72.3350299 C86.7187633,68.4072134 85.2158953,64.2967724 83.3584661,60.1113125 C85.2184845,55.9476349 86.7275012,51.8554762 87.8811456,47.941376 L87.8811456,47.941376 L87.9537128,47.6939715 Z M32.229743,47.6369624 C33.3740666,51.573152 34.8796171,55.6930855 36.7418077,59.8880746 C34.837832,64.1500796 33.3016304,68.3371535 32.1378405,72.3343377 L32.1378405,72.3343377 L32.0244216,72.299248 C21.36256,68.99116 14.5,64.176 14.5,60 C14.5,55.824 21.36256,51.00884 32.0244216,47.700752 L32.0244216,47.700752 Z M60,50.7 C54.8637518,50.7 50.7,54.8637518 50.7,60 C50.7,65.1362482 54.8637518,69.3 60,69.3 C65.1362482,69.3 69.3,65.1362482 69.3,60 C69.3,54.8637518 65.1362482,50.7 60,50.7 Z M75.0708638,44.8057916 L75.7163864,44.904192 C78.4870381,45.336059 81.1315038,45.8713015 83.6195587,46.4887429 L83.6195587,46.4887429 L83.6023456,46.5433064 C82.8331287,49.1762995 81.8942749,51.9149455 80.7816994,54.7146879 C79.9116399,53.0119655 78.9843101,51.3047109 78,49.6 C77.1666667,48.1555556 76.3127572,46.748834 75.4414469,45.3811055 L75.4414469,45.3811055 L75.0708638,44.8057916 Z M44.8837545,44.8111507 C43.8925197,46.3572027 42.9284495,47.9541122 42,49.6 C41.0496117,51.2459623 40.1523439,52.894296 39.3085494,54.5387335 C38.210545,51.7679524 37.2845259,49.057907 36.5266238,46.4526049 C38.971999,45.8504018 41.5671574,45.3276115 44.2836136,44.904192 L44.2836136,44.904192 Z M63.4,29.6 C71.6,22 79.2,18.4 82.9,20.6 C86.5706142,22.6974938 87.2878735,31.1090565 84.7750908,42.0569437 L84.7750908,42.0569437 L84.3349504,41.9496448 C80.508128,41.027456 76.37196,40.30907 72.01095,39.8382125 L72.01095,39.8382125 L71.6370867,39.7985113 C68.9251787,36.0779129 66.0998147,32.7157164 63.2432375,29.7431776 C63.2954917,29.6952332 63.3477458,29.6475038 63.4,29.6 Z M37.3,20.6 C40.9,18.5 48.6,22 56.8,29.6 L56.8,29.6 L56.7,29.7 L56.0494635,30.3953274 C53.4456981,33.2046767 50.8257832,36.3497678 48.3078649,39.8042736 C43.7183578,40.2858914 39.3743653,41.0414642 35.3741851,42.0200783 C32.8798722,31.0901558 33.6335115,22.6951363 37.3,20.6 Z M60,32.9 C61.8808569,34.8576266 63.7617138,37.0067945 65.6088062,39.3372718 C63.7674607,39.246719 61.896,39.2 60,39.2 C58.0995429,39.2 56.2237405,39.2469389 54.3785565,39.3380671 C56.2372773,37.0079474 58.1186386,34.8581516 60,32.9 Z" id="Combined-Shape"></path>
            </g>
            <path d="M165.88764,65 C166.494382,65 167,65.4961832 167,66.0916031 L167,70.6564885 C167,71.2519084 166.595506,71.7480916 165.88764,71.7480916 L157.292135,71.7480916 L157.292135,102.908397 C157.292135,103.503817 156.786517,104 156.179775,104 L150.921348,104 C150.314607,104 149.808989,103.503817 149.808989,102.908397 L149.808989,71.7480916 L141.11236,71.7480916 C140.505618,71.7480916 140,71.2519084 140,70.6564885 L140,66.0916031 C140,65.4961832 140.404494,65 141.11236,65 L165.88764,65 Z M188.59322,65 C195.40678,65 201,70.372449 201,76.9387755 C201,82.1122449 197.542373,86.2908163 192.559322,88.1811224 L200.389831,102.308673 C200.79661,103.005102 200.389831,103.90051 199.372881,103.90051 L193.372881,103.90051 C192.864407,103.90051 192.559322,103.602041 192.457627,103.403061 L184.830508,88.6785714 L178.525424,88.6785714 L178.525424,102.905612 C178.525424,103.502551 178.016949,104 177.40678,104 L172.118644,104 C171.508475,104 171,103.502551 171,102.905612 L171,66.0943878 L171.20339,66.0943878 C171.20339,65.497449 171.610169,65 172.322034,65 L188.59322,65 Z M223.375015,64 C223.982401,64 224.184863,64.3015075 224.387325,64.6030151 L241.900295,102.492462 C242.203988,103.19598 241.799064,104 240.887984,104 L235.927664,104 C235.117815,104 234.712891,103.698492 234.307967,102.894472 L231.574729,96.763819 L214.466684,96.763819 L211.733446,102.894472 C211.530984,103.497487 211.024828,104 210.113749,104 L205.153428,104 C204.242349,104 203.736194,103.296482 204.141118,102.492462 L221.755318,64.6030151 C221.95778,64.3015075 222.160242,64 222.767629,64 L223.375015,64 Z M250.959459,65 C251.527027,65 252,65.4961832 252,66.0916031 L252,102.908397 C252,103.503817 251.527027,104 250.959459,104 L246.040541,104 C245.472973,104 245,103.503817 245,102.908397 L245,66.0916031 C245,65.4961832 245.472973,65 246.040541,65 L250.959459,65 Z M262.882883,64 C263.279279,64 263.576577,64.0992556 263.873874,64.3970223 L286.567568,88.6153846 L286.666667,88.6153846 L286.666667,65.5880893 C286.666667,64.9925558 287.063063,64.4962779 287.756757,64.4962779 L292.90991,64.4962779 C293.504505,64.4962779 294,64.9925558 294,65.5880893 L294,103.007444 C294,103.602978 293.504505,104 292.90991,104 L292.117117,104 C291.720721,104 291.423423,103.900744 291.126126,103.602978 L268.333333,78.4913151 L268.234234,78.4913151 L268.234234,102.411911 C268.234234,103.007444 267.837838,103.503722 267.144144,103.503722 L262.09009,103.503722 C261.495495,103.503722 261,103.007444 261,102.411911 L261,64.9925558 C261,64.3970223 261.495495,64 262.09009,64 L262.882883,64 Z M307.959459,65 C308.527027,65 309,65.4961832 309,66.0916031 L309,102.908397 C309,103.503817 308.527027,104 307.959459,104 L303.040541,104 C302.472973,104 302,103.503817 302,102.908397 L302,66.0916031 C302,65.4961832 302.472973,65 303.040541,65 L307.959459,65 Z M319.882883,64 C320.279279,64 320.576577,64.0992556 320.873874,64.3970223 L343.567568,88.6153846 L343.666667,88.6153846 L343.666667,65.5880893 C343.666667,64.9925558 344.063063,64.4962779 344.756757,64.4962779 L349.90991,64.4962779 C350.504505,64.4962779 351,64.9925558 351,65.5880893 L351,103.007444 C351,103.602978 350.504505,104 349.90991,104 L349.117117,104 C348.720721,104 348.423423,103.900744 348.126126,103.602978 L325.333333,78.4913151 L325.234234,78.4913151 L325.234234,102.411911 C325.234234,103.007444 324.837838,103.503722 324.144144,103.503722 L319.09009,103.503722 C318.495495,103.503722 318,103.007444 318,102.411911 L318,64.9925558 C318,64.3970223 318.495495,64 319.09009,64 L319.882883,64 Z M376.767442,64 C381.709302,64 386.552326,65.9900498 390.30814,69.1741294 C390.703488,69.5721393 390.802326,70.2686567 390.406977,70.7661692 L386.947674,74.3482587 C386.552326,74.7462687 385.959302,74.7462687 385.465116,74.3482587 C383.093023,72.2587065 380.127907,71.1641791 377.063953,71.1641791 C370.145349,71.1641791 364.610465,77.1343284 364.610465,84.0995025 C364.610465,90.965174 370.046512,96.835821 377.063953,96.835821 C380.127907,96.835821 382.5,95.840796 383.686047,95.442786 L383.686047,90.666667 L379.337209,90.666667 C378.744186,90.666667 378.25,90.268657 378.25,89.6716418 L378.25,85.2935323 C378.25,84.6965174 378.645349,84.199005 379.337209,84.199005 L390.011628,84.199005 C390.604651,84.199005 391,84.6965174 391,85.2935323 L391,99.522388 C391,99.920398 390.802326,100.218905 390.604651,100.41791 C390.604651,100.41791 384.872093,104 376.866279,104 C365.796512,104 357,95.144279 357,84 C357,72.8557214 365.796512,64 376.767442,64 Z M222.970091,78.1708543 L222.767629,78.1708543 L217.199922,90.532663 L228.639029,90.532663 L222.970091,78.1708543 Z M187.983051,71.7653061 L178.728814,71.7653061 L178.728814,82.9081633 L187.983051,82.9081633 L187.983051,82.8086735 C191.033898,82.8086735 193.576271,80.2219388 193.576271,77.1377551 C193.576271,74.1530612 190.932203,71.7653061 187.983051,71.7653061 Z M199.9,16 C200.5,16 201,16.5063291 201,17.1139241 L201,21.7721519 C201,22.3797468 200.6,22.8860759 199.9,22.8860759 L183.3,22.8860759 L183.3,32.2025316 L197.1,32.2025316 C197.7,32.2025316 198.2,32.7088608 198.2,33.3164557 L198.2,38.0759494 C198.2,38.6835443 197.7,39.1898734 197.1,39.1898734 L183.3,39.1898734 L183.3,49.1139241 L199.9,49.1139241 C200.5,49.1139241 201,49.6202532 201,50.2278481 L201,54.8860759 C201,55.4936709 200.6,56 199.9,56 L177.1,56 C176.5,56 176,55.4936709 176,54.8860759 L176,17.1139241 C176,16.5063291 176.4,16 177.1,16 L199.9,16 Z M222.966197,16 C223.560767,16 223.758957,16.3015075 223.957147,16.6030151 L240.902398,54.4924623 C241.199684,55.1959799 240.803303,56 239.911448,56 L235.055791,56 C234.263031,56 233.866651,55.6984925 233.470271,54.8944724 L230.794705,48.7638191 L214.245834,48.7638191 L211.570268,54.8944724 C211.372078,55.4974874 210.876603,56 209.984747,56 L205.129091,56 C204.237235,55.8994975 203.74176,55.1959799 204.13814,54.4924623 L221.380676,16.6030151 C221.578867,16.3015075 221.777057,16 222.371627,16 L222.966197,16 Z M260.910796,16 C266.584445,16 270.565954,17.7866005 274.447924,21.1612903 C274.945613,21.5583127 274.945613,22.2531017 274.547462,22.7493797 L271.16318,26.2233251 C270.765029,26.6203474 270.167803,26.6203474 269.769652,26.2233251 C267.380747,24.1389578 264.295078,22.9478908 261.209409,22.9478908 C254.042694,22.9478908 248.767196,28.9032258 248.767196,35.9503722 C248.767196,42.898263 254.142232,48.7543424 261.308947,48.7543424 C264.693229,48.7543424 267.480285,47.4640199 269.86919,45.5781638 C270.267341,45.1811414 270.964105,45.280397 271.262718,45.5781638 L274.746537,49.1513648 C275.144688,49.5483871 275.045151,50.2431762 274.647,50.6401985 C270.864567,54.3126551 266.086757,56 261.109872,56 C249.961648,56 241.003255,47.1662531 241.003255,36.0496278 C240.804179,25.0322581 249.762573,16 260.910796,16 Z M157.59322,16 C164.40678,16 170,21.372449 170,27.9387755 C170,33.1122449 166.542373,37.2908163 161.559322,39.1811224 L169.389831,53.3086735 C169.79661,54.005102 169.389831,54.9005102 168.372881,54.9005102 L162.372881,54.9005102 C161.864407,54.9005102 161.559322,54.6020408 161.457627,54.4030612 L153.830508,39.6785714 L147.525424,39.6785714 L147.525424,53.9056122 C147.525424,54.502551 147.016949,55 146.40678,55 L141.118644,55 C140.508475,55 140,54.502551 140,53.9056122 L140,17.0943878 L140.20339,17.0943878 C140.20339,16.497449 140.610169,16 141.322034,16 L157.59322,16 Z M303.88764,16 C304.494382,16 305,16.4961832 305,17.0916031 L305,21.6564885 C305,22.2519084 304.595506,22.7480916 303.88764,22.7480916 L295.191011,22.7480916 L295.191011,53.9083969 C295.191011,54.5038168 294.685393,55 294.078652,55 L288.820225,55 C288.213483,55 287.707865,54.5038168 287.707865,53.9083969 L287.707865,22.7480916 L279.11236,22.7480916 C278.505618,22.7480916 278,22.2519084 278,21.6564885 L278,17.0916031 C278,16.4961832 278.404494,16 279.11236,16 L303.88764,16 Z M222.569817,30.0703518 L222.371627,30.0703518 L216.9214,42.4321608 L228.119139,42.4321608 L222.569817,30.0703518 Z M156.983051,22.7653061 L147.728814,22.7653061 L147.728814,33.9081633 L156.983051,33.9081633 L156.983051,33.8086735 C160.033898,33.8086735 162.576271,31.2219388 162.576271,28.1377551 C162.576271,25.1530612 159.932203,22.7653061 156.983051,22.7653061 Z" id="Combined-Shape"></path>
        </g>
    </g>
</svg>