<?xml version="1.0" encoding="UTF-8"?>
<svg width="500px" height="547px" viewBox="0 0 500 547" version="1.1" xmlns="http://www.w3.org/2000/svg" xmlns:xlink="http://www.w3.org/1999/xlink">
    <title>reea-net</title>
    <g id="Page-1" stroke="none" stroke-width="1" fill="none" fill-rule="evenodd">
        <g id="reea-net" fill="#FFFFFF" fill-rule="nonzero">
            <path d="M0.0418994413,98.4832402 C-1.48044693,24.2932961 79.3156425,-25.9441341 144.371508,15.103352 L144.371508,15.103352 L144.441341,15.103352 C168.661647,29.0504008 189.872638,48.2781257 210.937512,67.7339174 L213.809358,70.387919 C214.287937,70.83033 214.766509,71.2727402 215.245105,71.7150903 L218.117259,74.3679946 C238.707064,93.3685019 259.468059,112.038469 283.072626,125.662011 C306.128249,138.968727 331.937473,147.504669 357.984812,155.628419 L361.707209,156.786621 C362.948366,157.172068 364.189792,157.55705 365.431215,157.942039 L369.155202,159.097497 C396.460382,167.577901 423.632499,176.289288 447.77933,190.243017 C520.307263,232.142458 512.849162,316.849162 444.315642,359.405028 C421.073184,373.845251 394.522749,382.155419 367.730328,390.044302 L364.380237,391.028631 C362.146299,391.683939 359.911567,392.337972 357.677816,392.994036 L354.328147,393.980066 C329.772559,401.228179 305.443017,408.921788 283.701117,421.458101 C257.925978,436.325419 235.240922,457.051676 212.550628,477.774441 L209.590741,480.476909 C187.88095,500.287794 166.043235,519.862278 141.368715,534.069832 L141.368715,534.069832 L141.173184,534.181564 C76.3128492,571.625698 -1.59217877,521.877095 0.0418994413,448.818436 C0.641383756,421.848088 6.28962679,394.847988 12.1985351,367.856586 L13.8897514,360.145026 C20.22739,331.227815 26.3407821,302.32479 26.3407821,273.48324 C26.3407821,244.641691 20.1966523,215.793311 13.8431381,186.944855 L12.5714019,181.175165 C6.49879343,153.608883 0.596261281,126.042943 0.0418994413,98.4832402 Z M422.275211,216.162515 C398.115767,210.645716 373.254079,221.988558 361.586152,243.851158 C349.918224,265.713758 354.333726,292.681645 372.364689,309.681591 C390.395651,326.681538 417.576544,329.503353 438.715084,316.569832 C441.380279,322.479681 447.813048,325.723238 454.149438,324.352206 C460.485829,322.981174 465.002332,317.368476 464.986077,310.885475 L464.986077,310.885475 L464.930168,269.712291 L464.930168,269.712291 L464.930168,267.449721 C463.908549,242.689468 446.434655,221.679314 422.275211,216.162515 Z M227.206704,255.46648 C219.855871,228.121824 192.923493,210.845278 165.004135,215.56486 C137.084777,220.284443 117.327556,245.453557 119.37319,273.695022 C121.418823,301.936488 144.596962,323.995635 172.905028,324.642458 L172.905028,324.642458 L214.539106,324.642458 L214.539106,324.628492 C221.96248,324.391873 227.857811,318.305636 227.857811,310.878492 C227.857811,303.451347 221.96248,297.36511 214.539106,297.128492 L214.539106,297.128492 L197.26257,297.128492 L224.148045,270.27095 C228.023829,266.385035 229.225201,260.570176 227.206704,255.46648 Z M346.550279,255.46648 C339.199447,228.121824 312.267068,210.845278 284.34771,215.56486 C256.428353,220.284443 236.671132,245.453557 238.716765,273.695022 C240.762399,301.936488 263.940537,323.995635 292.248603,324.642458 L292.248603,324.642458 L333.868715,324.642458 L333.840782,324.628492 C338.857686,324.788404 343.563474,322.203206 346.119228,317.883134 C348.674982,313.563063 348.674982,308.193921 346.119228,303.873849 C343.563474,299.553777 338.857686,296.968579 333.840782,297.128492 L333.840782,297.128492 L316.606145,297.128492 L343.49162,270.27095 C347.367405,266.385035 348.568777,260.570176 346.550279,255.46648 Z M108.086592,213.76257 L107.667598,213.76257 C103.910615,213.832402 100.363128,213.76257 97.0391061,213.76257 C72.8187973,213.76257 53.1843575,233.39701 53.1843575,257.617318 L53.1843575,257.617318 L53.1843575,310.368715 C53.0250023,315.350319 55.5916886,320.02325 59.8812826,322.561193 C64.1708765,325.099137 69.5023078,325.099137 73.7919018,322.561193 C78.0814958,320.02325 80.6481821,315.350319 80.4888268,310.368715 L80.4888268,310.368715 L80.4888268,257.631285 C80.4888268,247.030726 91.2290503,240.773743 107.583799,241.081006 L107.583799,241.081006 L108.086592,241.081006 C115.63037,241.081006 121.74581,234.965565 121.74581,227.421788 C121.74581,219.87801 115.63037,213.76257 108.086592,213.76257 L108.086592,213.76257 Z M410.055866,240.075419 C417.916053,240.075419 425.454307,243.197866 431.012299,248.755858 C436.57029,254.313849 439.692737,261.852103 439.692737,269.712291 C439.692737,286.080283 426.423858,299.349162 410.055866,299.349162 C393.687874,299.349162 380.418994,286.080283 380.418994,269.712291 C380.418994,253.344298 393.687874,240.075419 410.055866,240.075419 Z M174.148045,240.075201 C184.966283,240.084246 194.919387,245.989719 200.111732,255.480447 L200.111732,255.480447 L159.846369,295.731844 C147.933187,289.235586 141.95351,275.47842 145.330607,262.336103 C148.707704,249.193787 160.578867,240.023638 174.148045,240.075201 Z M293.49162,240.075201 C304.309859,240.084246 314.262963,245.989719 319.455307,255.480447 L319.455307,255.480447 L279.189944,295.731844 C267.276762,289.235586 261.297085,275.47842 264.674182,262.336103 C268.051279,249.193787 279.922442,240.023638 293.49162,240.075201 Z" id="Combined-Shape"></path>
        </g>
    </g>
</svg>