<?xml version="1.0" encoding="UTF-8"?>
<svg width="500px" height="53px" viewBox="0 0 500 53" version="1.1" xmlns="http://www.w3.org/2000/svg" xmlns:xlink="http://www.w3.org/1999/xlink">
    <title>reversinglabs</title>
    <g id="Page-1" stroke="none" stroke-width="1" fill="none" fill-rule="evenodd">
        <g id="reversinglabs" fill="#FFFFFF" fill-rule="nonzero">
            <path d="M482.325581,3.55271368e-15 C488.604651,3.55271368e-15 494.651163,0.930232558 497.209302,1.62790698 L497.209302,8.8372093 C493.255814,8.60465116 488.139535,7.90697674 482.790698,7.90697674 C476.976744,7.90697674 473.72093,8.8372093 473.72093,13.0232558 C473.72093,16.0465116 475.116279,17.6744186 480.232558,19.7674419 L487.209302,22.5581395 C496.046512,26.0465116 499.534884,29.7674419 499.534884,38.372093 C499.069767,47.4418605 492.55814,52.5581395 481.162791,52.5581395 C474.651163,52.5581395 467.674419,51.627907 465.348837,50.9302326 L465.348837,43.7209302 C469.534884,44.1860465 474.186047,44.4186047 480.465116,44.4186047 C486.511628,44.4186047 489.534884,42.7906977 489.534884,38.1395349 C489.534884,34.8837209 488.139535,33.0232558 483.255814,30.9302326 L475.581395,27.9069767 C468.139535,24.8837209 464.186047,20.4651163 464.186047,13.255814 C464.186047,3.48837209 470.232558,3.55271368e-15 482.325581,3.55271368e-15 Z M219.069767,0 C225.581395,0 231.395349,0.930232558 233.953488,1.62790698 L233.953488,8.8372093 C230,8.60465116 224.883721,7.90697674 219.534884,7.90697674 C213.72093,7.90697674 210.465116,8.8372093 210.465116,13.0232558 C210.465116,16.0465116 211.860465,17.6744186 216.976744,19.7674419 L223.953488,22.5581395 C232.790698,26.0465116 236.27907,29.7674419 236.27907,38.372093 C235.813953,47.4418605 229.302326,52.5581395 217.906977,52.5581395 C211.395349,52.5581395 204.418605,51.627907 202.093023,50.9302326 L202.093023,43.7209302 C206.27907,44.1860465 210.930233,44.4186047 217.209302,44.4186047 C223.255814,44.4186047 226.27907,42.7906977 226.27907,38.1395349 C226.27907,34.8837209 224.883721,33.0232558 220,30.9302326 L212.325581,27.9069767 C204.883721,24.8837209 200.930233,20.4651163 200.930233,13.255814 C200.930233,3.48837209 206.976744,0 219.069767,0 Z M323.255814,0 C330.697674,0 337.906977,1.1627907 339.534884,1.62790698 L339.534884,8.8372093 C336.27907,8.60465116 328.372093,8.13953488 324.883721,8.13953488 C316.744186,8.13953488 311.395349,10 311.395349,22.5581395 L311.395349,29.7674419 C311.395349,41.3953488 315.581395,44.1860465 323.72093,44.1860465 C326.27907,44.1860465 328.837209,44.1860465 330.465116,43.9534884 L330.465116,31.627907 L326.511628,31.627907 L326.511628,24.4186047 L339.534884,24.4186047 L339.534884,51.1627907 C336.744186,51.627907 330.232558,52.5581395 323.023256,52.5581395 C311.395349,52.5581395 301.860465,48.1395349 301.860465,29.7674419 L301.860465,22.7906977 C301.860465,3.48837209 312.790698,0 323.255814,0 Z M458.604651,14.1860465 L458.604651,14.8837209 C458.604651,19.3023256 456.744186,23.4883721 452.325581,25.5813953 C456.976744,27.4418605 459.069767,31.8604651 459.069767,36.2790698 L459.069767,36.9767442 C458.837209,49.5348837 449.534884,51.8604651 436.511628,51.8604651 C430.697674,51.8604651 428.372093,51.627907 421.860465,51.3953488 L421.860465,0.930232558 C425.443314,0.806686047 427.779115,0.683139535 430.053384,0.594461131 L430.855443,0.564667458 C432.462172,0.508202841 434.107737,0.471155921 436.209106,0.465790505 L436.744186,0.465116279 C450.232558,0.465116279 458.604651,2.79069767 458.604651,14.1860465 Z M267.674419,0.930232558 L283.72093,30.2325581 C284.883721,32.5581395 286.511628,35.5813953 287.674419,37.9069767 L287.906977,37.9069767 C287.700258,35.2196382 287.67729,32.1648005 287.674738,29.3957955 L287.674419,0.930232558 L296.511628,0.930232558 L296.511628,51.3953488 L285.348837,51.3953488 L285.348837,51.627907 L269.069767,21.627907 L268.161337,19.8110465 C267.89348,19.2753322 267.620284,18.7289393 267.346324,18.1810207 L266.123805,15.7359821 C265.857855,15.2040816 265.598007,14.6843854 265.348837,14.1860465 L265.116279,14.1860465 C265.325581,16.6976744 265.346512,19.5860465 265.348605,22.3425581 L265.348837,51.8604651 L256.744186,51.8604651 L256.744186,0.930232558 L267.674419,0.930232558 Z M355.813953,0.930232558 L355.813953,43.4883721 L377.12607,43.488 L390,1.1627907 L404.186047,1.1627907 L419.534884,51.627907 L409.534884,51.627907 L405.116279,37.4418605 L388.837209,37.4418605 L384.418605,51.627907 L346.27907,51.627907 L346.27907,0.930232558 L355.813953,0.930232558 Z M85.1162791,0.930232558 L95.3488372,36.0465116 C96.2790698,39.0697674 96.744186,42.5581395 97.4418605,45.1162791 L97.6744186,45.1162791 C98.1395349,42.3255814 98.8372093,39.0697674 99.7674419,36.0465116 L110.232558,0.930232558 L119.767442,0.930232558 L104.418605,51.627907 L90.4651163,51.627907 L77.7058837,8.837 L55.3488372,8.8372093 L55.3488372,21.8604651 L76.744186,21.8604651 L76.744186,29.3023256 L55.3488372,29.3023256 L55.3488372,43.7209302 L78.1395349,43.7209302 L78.1395349,51.627907 L45.8139535,51.627907 L45.8139535,0.930232558 L85.1162791,0.930232558 Z M154.418605,0.930232558 L154.418605,8.8372093 L131.860465,8.8372093 L131.860465,21.8604651 L153.023256,21.8604651 L153.023256,29.3023256 L131.860465,29.3023256 L131.860465,43.7209302 L154.418605,43.7209302 L154.418605,51.627907 L122.325581,51.627907 L122.325581,0.930232558 L154.418605,0.930232558 Z M174.186047,0.697674419 C186.27907,0.697674419 196.511628,3.25581395 196.511628,16.5116279 L196.511628,16.9767442 C196.511628,24.6511628 193.255814,28.6046512 187.906977,30.9302326 L199.767442,51.627907 L189.534884,51.627907 L178.372093,33.0232558 L169.302326,33.0232558 L169.302326,51.627907 L160,51.627907 L160,0.930232558 C164.418605,0.697674419 169.069767,0.697674419 174.186047,0.697674419 Z M25.5813953,0.697674419 C30.6976744,0.697674419 35.3488372,0.930232558 39.7674419,0.930232558 L39.7674419,51.3953488 L30.4651163,51.3953488 L30.4651163,32.7906977 L21.3953488,32.7906977 L10.2325581,51.3953488 L0.133883721,51.395 L11.8604651,30.9302326 C6.51162791,28.6046512 3.25581395,24.6511628 3.25581395,16.9767442 L3.25581395,16.5116279 C3.25581395,3.25581395 13.255814,0.697674419 25.5813953,0.697674419 Z M249.534884,0.930232558 L249.534884,51.3953488 L240,51.3953488 L240,0.930232558 L249.534884,0.930232558 Z M439.767442,29.0697674 L431.162791,29.0697674 L431.162791,44.1860465 L433.72093,44.1860465 C433.979982,44.1860465 434.236053,44.1860465 434.489128,44.1859295 L435.23935,44.1851107 C444.504384,44.1675641 449.534884,43.8210185 449.534884,36.9767442 L449.534884,36.2790698 C449.534884,31.8604651 447.44186,29.0697674 439.767442,29.0697674 Z M397.44186,7.6744186 L396.744186,7.6744186 L390.697674,29.5348837 L403.255814,29.5348837 L397.44186,7.6744186 Z M30.4651163,8.60465116 L29.2280135,8.60496444 C17.7654718,8.61384057 12.5581395,8.87420719 12.5581395,16.5116279 L12.5581395,16.9767442 C12.5581395,23.4883721 16.5116279,25.3488372 25.1162791,25.3488372 L30.4651163,25.3488372 L30.4651163,8.60465116 Z M170.315189,8.604954 L169.069767,8.60465116 L169.069767,25.1162791 L174.418605,25.1162791 C182.894828,25.1162791 186.857693,23.3109358 186.9741,16.8103526 L186.976744,16.5116279 C186.976744,8.87117847 181.982425,8.61363523 170.315189,8.604954 Z M437.106807,8.37244107 L431.162791,8.37209302 L431.162791,22.0930233 L439.767442,22.0930233 C447.674419,22.0930233 449.534884,19.5348837 449.534884,15.3488372 L449.534884,14.6511628 L449.302326,14.6511628 C449.302326,8.92665474 444.793175,8.38767029 437.106807,8.37244107 Z" id="Combined-Shape"></path>
        </g>
    </g>
</svg>