<?xml version="1.0" encoding="UTF-8"?>
<svg width="500px" height="86px" viewBox="0 0 500 86" version="1.1" xmlns="http://www.w3.org/2000/svg" xmlns:xlink="http://www.w3.org/1999/xlink">
    <title>tourlane</title>
    <g id="Page-1" stroke="none" stroke-width="1" fill="none" fill-rule="evenodd">
        <g id="tourlane" fill="#FFFFFF" fill-rule="nonzero">
            <path d="M93.9008895,26.2388818 C111.753494,26.2388818 124.269377,38.4371029 124.269377,55.8449809 C124.269377,72.935197 111.245235,85.5146125 93.6467598,85.5146125 C75.9847522,85.5146125 63.0241423,72.8081321 63.0241423,55.2731893 C63.0241423,38.5641677 76.0482846,26.2388818 93.9008895,26.2388818 Z M326.683609,26.1753494 C336.086404,26.1753494 344.345616,29.2249047 348.856417,34.3710292 C352.731893,38.6277001 354.002541,43.1385006 354.002541,52.9224905 L354.002956,69.2107728 C354.007622,73.6827413 354.064777,73.9970957 354.76493,75.2223634 C355.273189,76.3024142 356.099111,76.9377382 357.052097,76.9377382 C358.005083,76.9377382 359.148666,76.429479 359.974587,75.3494282 L361.435832,77.3189327 C361.944091,78.0813215 362.198221,78.5260483 362.198221,78.9072427 C362.198221,81.8297332 355.972046,85.133418 350.508259,85.133418 C345.171537,85.133418 341.232529,82.3379924 338.818297,76.6200762 C333.100381,83.4815756 328.84371,85.5146125 320.520966,85.5146125 C309.085133,85.5146125 301.270648,78.9072427 301.270648,69.3138501 C301.270648,61.6264295 306.035578,56.1626429 316.13723,52.2236341 C316.206057,52.1958386 316.273615,52.1686223 316.34007,52.1419408 L316.536288,52.0634565 C316.632907,52.0249724 316.727414,51.9875921 316.820365,51.9511664 L317.004358,51.8795435 C317.065107,51.856064 317.12533,51.8329645 317.185192,51.8102007 L317.363856,51.7428726 C317.45281,51.709668 317.541322,51.6771194 317.629947,51.6450774 L317.807515,51.5816249 C317.83719,51.5711473 317.866918,51.560715 317.896721,51.5503223 L318.076599,51.4883989 C320.340357,50.7192066 323.254844,50.1111817 335.514612,47.3316391 C335.387548,42.1855146 335.133418,40.025413 334.307497,37.8017789 C332.846252,33.9898348 330.050826,31.956798 326.493011,31.956798 C323.443456,31.956798 321.219822,33.4180432 321.219822,35.5146125 C321.219822,35.8958069 321.346887,36.4675985 321.473952,37.2299873 L321.601017,39.3265565 C321.601017,43.5832274 318.170267,46.6327827 313.532402,46.6327827 C308.767471,46.5692503 304.955527,43.202033 304.955527,38.8818297 C304.955527,31.5756036 314.231258,26.1753494 326.683609,26.1753494 Z M471.728081,26.2388818 C488.564168,26.2388818 498.919949,36.9758577 499.301144,54.5108005 L462.579416,54.5108005 L462.579416,54.6378653 C462.833545,70.5209657 468.805591,79.0343075 479.415502,79.0343075 C485.133418,79.0343075 489.326557,76.6200762 495.298602,69.6315121 L499.809403,73.5069886 C493.837357,81.4485388 485.641677,85.4510801 475.285896,85.4510801 C457.115629,85.4510801 443.456163,72.1728081 443.456163,54.4472681 C443.456163,38.1194409 455.273189,26.2388818 471.728081,26.2388818 Z M156.60737,26.8742058 L156.60737,67.3443456 C156.60737,73.4434562 159.275731,77.3189327 163.659466,77.3189327 C166.709022,77.3189327 170.393901,75.6035578 172.045743,73.4434562 L172.045743,38.8818297 C172.045743,36.0864041 171.283355,35.0063532 169.250318,34.3710292 L168.170267,33.9898348 C166.13723,33.2505487 165.776921,32.6904834 165.756951,30.1082998 L165.756036,27.7636595 L190.279543,27.0012706 L190.279543,72.5540025 C190.279543,75.2223634 191.041931,76.3659466 193.074968,77.064803 L194.282084,77.4459975 C196.378653,78.0813215 196.696315,78.7801779 196.696315,81.5756036 L196.696315,83.86277 L172.554003,83.86277 L172.554003,78.8437103 C169.758577,81.3850064 168.869123,82.0203304 167.662008,82.7191868 C164.866582,84.3074968 160.228717,85.3875476 155.844981,85.3875476 C145.108005,85.3875476 138.373571,78.2083863 138.373571,66.7090216 L138.373571,38.7547649 C138.373571,35.8322745 138.119441,35.4510801 135.578145,34.2439644 L134.752224,33.86277 C132.210928,32.909784 131.956798,32.5285896 131.956798,29.7331639 L131.956798,27.6365947 L156.60737,26.8742058 Z M247.458704,26.2388818 C252.731893,26.2388818 256.60737,30.1143583 256.60737,35.5146125 C256.60737,40.4066074 253.17662,44.4091487 248.792884,44.4091487 C246.56925,44.4091487 244.917408,43.5832274 242.947903,41.1054638 C242.185515,40.2795426 241.232529,39.7712834 240.279543,39.7712834 C236.404066,39.7712834 231.385006,51.9695044 231.385006,61.7534943 L231.385006,72.9987294 C231.385006,75.4129606 232.337992,77.1283355 233.799238,77.5095299 L235.895807,77.8907243 C237.357052,78.1448539 237.865311,79.2249047 237.865311,81.8932656 L237.865311,83.9898348 L206.734435,83.9898348 L206.734435,81.8932656 C206.734435,79.2249047 207.115629,78.4625159 209.148666,77.8907243 L210.355781,77.5095299 C212.452351,76.747141 213.151207,75.6670902 213.151207,72.9987294 L213.151207,38.8818297 C213.151207,36.2134689 212.325286,34.8792884 210.355781,34.3710292 L208.894536,33.9898348 C207.179161,33.4815756 206.670902,32.5285896 206.670902,29.8602287 L206.670902,27.7636595 L229.35197,26.9377382 L229.35197,44.2820839 L229.415502,44.2820839 C230.050826,43.202033 230.368488,42.3125794 230.622618,41.9949174 C233.926302,35.5146125 235.133418,33.6086404 237.547649,31.1308767 C240.597205,27.9542567 244.027954,26.2388818 247.458704,26.2388818 Z M67.6620076,0 L67.6620076,21.8551461 L64.8030496,21.8551461 C62.7064803,21.8551461 61.8805591,20.9021601 61.4993647,18.2973316 L61.2452351,16.454892 C59.9110546,10.1016518 56.8614994,8.1321474 48.094028,8.2592122 L43.3290978,8.2592122 L43.3290978,72.935197 C43.3290978,75.476493 44.2820839,77.064803 46.2515883,77.4459975 L48.4752224,77.8271919 C50.4447268,78.0813215 51.0165184,79.1613723 51.0165184,81.8297332 L51.0165184,83.9263024 L17.090216,83.9263024 L17.090216,81.8297332 C17.090216,79.1613723 17.8526048,78.0177891 19.5044473,77.8271919 L21.6010165,77.4459975 C23.888183,76.6200762 24.523507,75.476493 24.3964422,72.935197 L24.3964422,8.3227446 L18.4243964,8.3227446 C11.3722999,8.3227446 7.43329098,11.1181703 6.86149936,16.5184244 L6.60736976,18.360864 C6.22617535,21.2833545 5.52731893,21.9186785 2.47776366,21.9186785 L0,21.9186785 L0,0 C1.58831004,1.20711563 5.59085133,2.54129606 7.56035578,2.54129606 L60.3557814,2.54129606 C62.3252859,2.54129606 66.2007624,1.20711563 67.6620076,0 Z M286.404066,1.71537484 L286.404066,72.935197 C286.404066,75.6035578 287.166455,76.747141 289.453621,77.4459975 L290.660737,77.8271919 C292.376112,78.3354511 292.884371,79.1613723 292.884371,81.8297332 L292.884371,83.9263024 L261.753494,83.9263024 L261.753494,81.8297332 C261.753494,79.0343075 262.134689,78.3989835 264.167726,77.8271919 L265.374841,77.4459975 C267.47141,76.6836086 268.170267,75.6035578 268.170267,72.935197 L268.170267,13.5324015 C268.170267,10.8640407 267.407878,9.72045743 265.374841,9.02160102 L264.167726,8.64040661 C262.071156,8.00508259 261.753494,7.43329098 261.753494,4.51080051 L261.753494,2.54129606 L286.404066,1.71537484 Z M411.11817,26.111817 C417.852605,26.111817 422.808132,27.9542567 426.365947,31.8297332 C429.161372,34.8792884 430.368488,38.8818297 430.368488,45.1080051 L430.368488,72.935197 C430.368488,75.6035578 431.130877,76.747141 433.163914,77.4459975 L434.371029,77.8271919 C436.467598,78.4625159 436.78526,79.1613723 436.78526,81.8297332 L436.78526,83.9263024 L405.972046,83.9263024 L405.972046,81.8297332 C405.972046,79.0343075 406.226175,78.6531131 408.386277,77.8271919 L409.212198,77.4459975 C411.753494,76.2388818 412.134689,75.7306226 412.134689,72.935197 L412.134689,42.6937738 C412.134689,37.2299873 409.466328,34.3074968 404.447268,34.3074968 C401.143583,34.3074968 397.268107,36.0228717 395.171537,38.4371029 L395.171537,72.935197 C395.171537,75.476493 395.997459,76.9377382 398.094028,77.4459975 L399.809403,77.8271919 C401.651842,78.2083863 402.223634,79.1613723 402.223634,81.8297332 L402.223634,83.9263024 L370.520966,83.9263024 L370.520966,81.8297332 C370.520966,79.1613723 370.90216,78.3989835 372.935197,77.8271919 L374.142313,77.4459975 C376.238882,76.6836086 376.937738,75.6035578 376.937738,72.935197 L376.937738,38.8818297 C376.937738,36.0864041 376.175349,35.0063532 374.142313,34.3710292 L372.935197,33.9898348 C370.838628,33.227446 370.520966,32.6556544 370.520966,29.8602287 L370.520966,27.7636595 L394.282084,26.9377382 L394.282084,32.592122 L394.409149,32.592122 C399.74587,27.8271919 404.320203,26.111817 411.11817,26.111817 Z M93.5832274,32.0199747 C86.5946633,31.956798 82.8462516,40.4066074 82.8462516,55.5273189 C82.8462516,71.5374841 86.7217281,79.7966963 94.0914867,79.7966963 C101.016518,79.7966963 104.574333,72.3634053 104.574333,57.4968234 C104.574333,40.9148666 100.762389,32.0199747 93.5832274,32.0199747 Z M335.832274,52.9224905 C326.429479,54.3837357 320.965693,60.1016518 320.965693,68.4243964 C320.965693,73.888183 323.888183,78.2083863 327.445997,78.2083863 C332.465057,78.2083863 335.832274,72.1092757 335.832274,63.2147395 L335.832274,52.9224905 Z M472.236341,32.0838628 C466.39136,32.0838628 462.96061,37.9288437 462.579416,48.5387548 L481.385006,48.5387548 C481.385006,37.9288437 478.081321,32.0838628 472.236341,32.0838628 Z" id="Combined-Shape"></path>
        </g>
    </g>
</svg>