<?xml version="1.0" encoding="UTF-8"?>
<svg width="455px" height="281px" viewBox="0 0 455 281" version="1.1" xmlns="http://www.w3.org/2000/svg" xmlns:xlink="http://www.w3.org/1999/xlink">
    <title>twitch</title>
    <g id="Page-1" stroke="none" stroke-width="1" fill="none" fill-rule="evenodd">
        <g id="twitch" fill="#FFFFFF">
            <path d="M49.3960009,129.98986 L72.7893337,153.388526 L179.374664,153.388526 L179.374664,129.98986 L267.761329,129.98986 L267.761329,153.388526 L291.158662,153.388526 L291.158662,166.383193 L304.161328,153.388526 L330.151994,153.388526 L353.551993,129.98986 L402.943992,129.98986 L402.943992,153.388526 L431.541325,153.388526 L454.930657,176.779192 L454.930657,254.76719 L415.938658,280.765856 L389.943992,280.765856 L389.943992,267.76319 L371.74666,280.765856 L348.353327,280.765856 L348.353327,267.76319 L335.35866,280.765856 L293.762661,280.765856 L280.759995,267.76319 L278.157329,280.765856 L241.767996,280.765856 L226.886663,267.76319 L226.05333,280.765856 L184.806664,280.765856 L183.347998,267.76319 L172.182665,280.765856 L109.182666,280.765856 L96.1826664,275.565857 L96.1826664,280.765856 L62.3906673,280.765856 L23.3946682,257.36319 L2.15330985e-06,233.977858 L2.15330984e-06,129.98986 L49.3960009,129.98986 Z M392.545326,140.38586 L363.943993,140.38586 L363.943993,246.972524 L392.545326,246.972524 L392.545326,192.376525 L415.938658,192.376525 L415.938658,246.972524 L444.539991,246.972524 L444.539991,181.979192 L426.345325,163.785859 L392.545326,163.785859 L392.545326,140.38586 Z M353.551993,163.785859 L309.357328,163.785859 L291.158662,181.979192 L291.158662,228.771191 L309.357328,246.972524 L353.551993,246.972524 L353.551993,218.379191 L319.751994,218.379191 L319.751994,192.376525 L353.551993,192.376525 L353.551993,163.785859 Z M257.366662,140.38586 L228.76533,140.38586 L228.76533,228.771191 L246.963996,246.972524 L280.759995,246.972524 L280.759995,218.379191 L257.366662,218.379191 L257.366662,192.376525 L280.759995,192.376525 L280.759995,163.785859 L257.366662,163.785859 L257.366662,140.38586 Z M101.390666,163.785859 L72.7893337,163.785859 L72.7893337,246.972524 L161.179998,246.972524 L179.374664,228.771191 L179.374664,163.785859 L150.778665,163.785859 L150.778665,218.379191 L140.382665,218.379191 L140.382665,163.785859 L111.785333,163.785859 L111.785333,218.379191 L101.390666,218.379191 L101.390666,163.785859 Z M38.9960012,140.38586 L10.4000019,140.38586 L10.4000019,228.771191 L28.5973348,246.972524 L62.3906673,246.972524 L62.3906673,218.379191 L38.9960012,218.379191 L38.9960012,192.376525 L62.3906673,192.376525 L62.3906673,163.785859 L38.9960012,163.785859 L38.9960012,140.38586 Z M218.366663,163.785859 L189.773331,163.785859 L189.773331,246.971191 L218.366663,246.971191 L218.366663,163.785859 Z M218.366663,140.38586 L189.773331,140.38586 L189.773331,153.388526 L218.366663,153.388526 L218.366663,140.38586 Z M389.944392,-3.27170987e-06 L389.944392,72.7959949 L348.349727,114.385327 L327.555061,114.385327 L314.552394,127.38666 L301.557728,127.38666 L301.557728,114.385327 L278.157729,114.385327 L278.157729,20.7986629 L283.356395,-3.27170986e-06 L389.944392,-3.27170987e-06 Z M379.551059,10.3986631 L293.759061,10.3986631 L293.759061,85.7906613 L317.156394,85.7906613 L317.156394,101.386661 L332.755061,85.7906613 L361.348393,85.7906613 L379.551059,67.5893284 L379.551059,10.3986631 Z M332.753727,31.1929293 L332.753727,62.3942618 L322.355061,62.3942618 L322.355061,31.1929293 L332.753727,31.1929293 Z M361.348393,31.1929293 L361.348393,62.3942618 L350.949727,62.3942618 L350.949727,31.1929293 L361.348393,31.1929293 Z" id="Combined-Shape"></path>
        </g>
    </g>
</svg>