<?xml version="1.0" encoding="UTF-8"?>
<svg width="913px" height="388px" viewBox="0 0 913 388" version="1.1" xmlns="http://www.w3.org/2000/svg" xmlns:xlink="http://www.w3.org/1999/xlink">
    <!-- Generator: Sketch 64 (93537) - https://sketch.com -->
    <title>universiteit-leiden</title>
    <desc>Created with Sketch.</desc>
    <g id="Page-1" stroke="none" stroke-width="1" fill="none" fill-rule="evenodd">
        <g id="universiteit-leiden" fill="#FFFFFF" fill-rule="nonzero">
            <path d="M169.357,0.206 C195.029,0.656 220.477,7.983 242.542,21.086 C268.664,36.416 290.062,59.126 305.31,85.181 C343.41,150.371 343.605,235.864 305.872,301.249 C291.854,325.512 272.572,346.916 249.06,362.284 C225.525,377.831 197.625,386.734 169.387,387.206 L164.909,387.206 C145.326,386.809 125.834,382.571 107.924,374.636 C73.401,359.478 45.314,331.661 27.081,298.916 C9.786,268.174 0.996,232.991 0.231,197.809 L0.231,190.287 C0.793,161.015 6.824,131.765 18.801,105.004 C32.811,73.504 55.033,45.296 83.811,26.059 C107.617,9.956 136.035,0.701 164.805,0.206 L169.357,0.206 Z M149.16,3.821 C121.102,7.323 94.425,19.473 72.652,37.391 C48.802,56.853 30.585,82.758 18.84,111.123 C-2.67,163.368 -2.662,224.088 18.855,276.326 C29.4,301.766 45.105,325.211 65.482,343.818 C89.857,366.341 121.469,381.408 154.694,384.161 C187.267,387.161 220.544,378.236 247.739,360.199 C270.006,345.641 288.449,325.571 302.091,302.801 C321.096,271.166 330.951,234.326 331.506,197.501 C332.369,152.584 319.356,107.088 292.851,70.608 C275.901,47.246 253.326,27.663 226.926,15.738 C202.777,4.661 175.522,0.468 149.16,3.821 Z M145.245,360.243 C148.71,360.544 152.107,361.279 155.535,361.826 C155.52,362.044 155.49,362.463 155.467,362.674 C154.515,363.026 152.752,362.636 152.58,364.039 C151.613,368.224 150.885,372.492 150.473,376.767 C151.201,377.682 152.086,378.447 152.888,379.309 C148.515,378.597 143.985,378.311 139.808,376.767 C136.56,375.567 135.953,370.932 138.413,368.675 C140.955,366.515 144.705,366.65 147.623,367.947 C147.758,366.155 148.478,364.295 148.02,362.54 C147.127,361.728 146.13,361.045 145.245,360.243 Z M192.075,360.43 C192.757,362.178 193.41,363.94 193.837,365.778 C191.474,364.435 190.042,361.285 186.967,361.428 C184.89,361.406 183.195,363.716 184.38,365.591 C186.195,368.381 190.267,367.451 192.66,369.506 C195.083,371.254 194.625,375.199 192.405,376.924 C190.058,378.971 186.773,378.821 183.863,378.761 C183.33,377.066 182.858,375.333 182.738,373.555 C184.478,374.883 185.805,377.591 188.371,377.208 C190.636,377.125 191.648,373.833 189.706,372.596 C187.268,371.291 184.186,371.554 181.996,369.738 C179.842,367.968 179.76,364.383 181.71,362.433 C184.357,359.688 188.587,359.463 192.075,360.43 Z M143.37,369.063 C141.532,370.001 140.947,372.438 141.457,374.313 C142.087,376.083 144.097,376.608 145.777,376.751 C146.745,374.329 146.835,371.674 147.307,369.131 C146.017,368.981 144.615,368.425 143.37,369.063 Z M171.285,372.911 C170.692,375.851 166.702,377.299 164.445,375.243 C161.955,373.346 162.472,368.966 165.39,367.766 C168.54,366.146 172.38,369.596 171.285,372.911 Z M115.395,350.831 C117.982,351.529 121.2,352.563 121.912,355.526 C122.827,357.979 122.212,361.436 125.01,362.741 C125.677,360.911 126.442,359.096 126.75,357.169 C126.007,356.253 125.167,355.443 124.395,354.574 C127.882,355.316 131.227,356.629 134.467,358.084 C133.387,358.444 132.277,358.609 131.137,358.586 C129.217,362.314 127.987,366.357 126.585,370.301 C125.647,371.996 127.657,373.144 128.355,374.456 C124.185,373.076 119.91,371.801 116.01,369.746 C113.76,368.628 112.988,365.508 114.488,363.483 C115.448,361.811 117.503,361.669 119.183,361.255 C118.462,357.596 117.45,353.981 115.395,350.831 Z M209.625,354.543 C209.977,354.587 210.683,354.67 211.035,354.715 C210.195,355.315 209.355,355.907 208.5,356.492 C209.655,361.142 210.967,365.882 213.165,370.142 C213.773,370.164 214.988,370.202 215.603,370.225 C215.701,370.42 215.903,370.817 216.001,371.013 C212.731,372.108 209.513,373.398 206.116,374.08 C206.851,372.865 209.041,371.995 208.306,370.308 C207.166,366.528 205.973,362.741 204.489,359.08 C203.986,357.528 201.909,358.36 200.739,357.895 C203.43,356.186 206.587,355.368 209.625,354.543 Z M120.263,363.115 C117.96,364.128 117.075,367.788 119.145,369.46 C120.037,370.022 121.042,370.36 122.025,370.765 C122.955,368.388 123.825,365.995 124.665,363.587 C123.217,363.34 121.725,362.672 120.263,363.115 Z M230.017,344.913 C229.372,346 228.607,347.02 228.045,348.161 C229.837,352.623 232.455,356.703 234.66,360.963 C235.755,360.169 236.933,359.463 237.907,358.511 C238.177,357.154 238.095,355.751 238.222,354.386 C239.512,355.946 240.307,357.836 241.117,359.68 C238.109,360.19 235.589,361.953 232.935,363.318 C230.558,364.601 227.985,365.673 226.11,367.698 C225.045,365.95 223.943,364.203 223.335,362.231 C224.475,362.936 225.547,363.768 226.74,364.398 C228.248,364.42 229.537,363.46 230.887,362.898 C228.382,358.736 226.635,354.093 223.717,350.193 C222.54,350.268 221.37,350.373 220.2,350.516 C222.99,347.936 226.65,346.563 230.017,344.913 Z M95.123,339.536 C98.355,340.721 101.273,342.618 104.055,344.613 C103.373,344.666 102.007,344.763 101.325,344.816 C100.808,346.084 100.688,347.463 100.418,348.806 C102.03,349.744 103.628,350.681 105.233,351.634 C106.246,350.675 107.258,349.714 108.248,348.732 C107.618,347.937 107.01,347.134 106.41,346.324 C109.208,347.036 111.63,348.686 113.858,350.464 C112.238,350.622 110.386,350.119 108.991,351.199 C105.151,353.839 101.506,356.749 97.718,359.464 C96.886,360.162 95.806,360.342 94.763,360.484 C95.408,354.409 96.758,348.424 97.08,342.319 C96.397,341.411 95.745,340.481 95.123,339.536 Z M200.895,279.356 L200.895,289.998 C225.48,289.998 250.072,289.991 274.657,289.998 C260.542,312.513 240.69,331.833 216.54,343.278 C207.653,347.523 198.225,350.65 188.55,352.51 C186.562,352.795 184.988,354.107 183.27,355.045 C173.43,360.617 160.71,360.603 150.855,355.06 C149.092,354.085 147.465,352.742 145.425,352.428 C124.92,348.498 105.772,338.665 89.91,325.188 C78.023,315.175 67.95,303.123 59.655,289.998 C84.18,289.991 108.705,289.998 133.223,289.998 C133.222,286.451 133.222,282.903 133.23,279.356 L200.895,279.356 Z M199.612,280.602 L134.46,280.601 C134.475,295.654 134.43,310.713 134.482,325.766 C134.504,336.154 139.92,346.294 148.469,352.166 C156.854,358.083 168.112,359.613 177.772,356.164 C188.234,352.602 196.484,343.324 198.817,332.517 C199.747,328.572 199.612,324.499 199.62,320.479 C199.612,307.189 199.62,293.899 199.612,280.602 Z M100.155,350.486 C99.825,352.526 99.495,354.566 99.173,356.613 C100.786,355.323 102.398,354.041 103.996,352.728 C102.712,351.971 101.43,351.228 100.155,350.486 Z M80.828,327.183 C84.826,330.805 89.468,333.753 93.038,337.818 C91.628,337.788 89.783,336.175 88.695,337.661 C85.808,340.909 82.898,344.179 80.52,347.831 C81.037,348.784 81.442,349.781 81.742,350.831 C77.609,347.951 73.935,344.486 69.997,341.358 C71.032,339.933 71.947,338.328 73.537,337.451 C73.349,338.771 72.907,340.061 72.922,341.411 C73.957,342.881 75.42,343.953 76.785,345.094 C78.21,343.519 79.575,341.891 80.91,340.249 C79.642,339.251 78.352,338.269 77.003,337.384 C76.441,337.729 75.308,338.42 74.738,338.764 C74.94,336.296 77.22,334.819 78.6,333.004 C78.675,334.077 78.585,335.179 78.795,336.252 C79.71,337.31 80.827,338.165 81.892,339.072 C83.325,337.377 84.697,335.622 85.95,333.785 C84.638,332.225 83.212,330.627 81.255,329.9 C79.762,330.011 78.397,330.701 76.965,331.068 C77.715,329.313 79.403,328.323 80.828,327.183 Z M252.779,328.766 C250.462,331.976 252.374,335.666 253.139,339.049 C253.934,342.341 255.014,345.566 255.584,348.911 C255.344,349.113 254.856,349.518 254.616,349.721 C249.681,347.208 245.084,344.058 240.126,341.576 C238.791,340.848 237.358,341.726 236.009,341.913 C237.644,339.213 240.666,337.856 242.939,335.778 C243.194,335.898 243.704,336.13 243.959,336.242 C243.622,336.678 242.947,337.54 242.609,337.975 C243.802,338.83 245.031,339.64 246.276,340.442 C247.731,339.31 249.193,338.177 250.656,337.045 C250.169,335.725 249.674,334.413 249.164,333.115 C248.257,333.416 247.35,333.716 246.442,334.008 C247.62,331.451 250.357,329.966 252.779,328.766 Z M251.287,338.531 C250.102,339.43 248.925,340.338 247.748,341.253 C249.518,342.318 251.288,343.383 253.065,344.448 C252.48,342.468 251.88,340.495 251.287,338.531 Z M181.215,287.29 C182.055,287.882 182.775,288.625 183.623,289.232 C182.183,291.024 180.765,292.84 179.363,294.662 C180.278,295.374 181.193,296.079 182.1,296.792 C183.517,294.961 184.943,293.131 186.368,291.309 C187.275,292.014 188.176,292.719 189.09,293.432 C188.378,294.347 187.665,295.269 186.96,296.184 C187.875,296.896 188.79,297.601 189.705,298.314 C190.403,297.407 191.092,296.491 191.798,295.584 C192.72,296.259 193.643,296.927 194.573,297.609 C193.193,299.491 191.761,301.344 190.313,303.181 C188.49,301.756 186.668,300.331 184.838,298.913 C184.126,299.821 183.413,300.735 182.708,301.658 C184.53,303.075 186.36,304.493 188.19,305.918 C187.477,306.826 186.765,307.74 186.053,308.663 C182.386,305.821 178.733,302.971 175.065,300.136 C172.928,302.888 170.797,305.641 168.668,308.393 C172.313,313.11 176.003,317.783 179.618,322.523 C180.893,321.106 182.146,319.456 184.066,318.908 C187.028,317.94 190.703,319.365 191.874,322.35 C193.299,325.92 191.934,329.85 189.969,332.933 C190.959,333.406 193.037,333.541 192.714,335.123 C192.242,337.185 189.534,336.023 188.026,336.27 C187.554,337.658 188.071,339.817 186.369,340.44 C184.247,340.666 184.779,338.258 184.599,336.93 C181.202,337.965 177.212,338.392 174.114,336.307 C171.316,334.515 170.694,330.405 172.509,327.712 C173.529,326.024 175.389,325.176 177.062,324.299 C173.537,319.829 170.072,315.314 166.569,310.837 C163.089,315.329 159.571,319.799 156.122,324.322 C157.712,325.17 159.467,325.965 160.509,327.517 C162.406,330.12 161.942,334.207 159.279,336.127 C156.152,338.422 151.997,337.987 148.487,336.945 C148.284,338.122 148.997,340.08 147.31,340.387 C145.097,340.635 145.57,337.604 145.037,336.239 C143.799,336.262 142.547,336.405 141.317,336.269 C140.244,335.954 139.99,334.342 140.972,333.727 C141.782,333.434 142.607,333.202 143.447,333.007 C141.565,330.007 140.155,326.295 141.347,322.769 C142.337,319.499 146.29,317.834 149.417,318.944 C151.284,319.514 152.522,321.119 153.767,322.521 C157.382,317.781 161.072,313.108 164.717,308.391 C162.58,305.639 160.442,302.886 158.305,300.134 C154.645,302.969 150.985,305.819 147.317,308.661 C146.604,307.738 145.892,306.824 145.187,305.916 C147.009,304.491 148.839,303.074 150.669,301.656 C149.956,300.741 149.252,299.819 148.546,298.911 C146.716,300.328 144.886,301.753 143.056,303.179 C141.639,301.342 140.213,299.504 138.796,297.666 C139.718,296.969 140.641,296.264 141.571,295.574 C142.276,296.489 142.981,297.411 143.694,298.334 C144.609,297.584 145.539,296.849 146.454,296.099 C145.726,295.214 145.006,294.329 144.287,293.444 C145.202,292.724 146.125,292.019 147.047,291.306 C148.464,293.136 149.882,294.958 151.299,296.789 C152.214,296.076 153.137,295.363 154.052,294.659 C152.617,292.826 151.185,290.981 149.775,289.128 C150.592,288.521 151.41,287.92 152.227,287.32 C157.057,293.53 161.88,299.733 166.71,305.935 C171.547,299.718 176.377,293.507 181.215,287.29 Z M264.397,316.368 C264.224,317.891 262.717,319.841 264.322,321.078 C267.359,324.205 270.614,327.116 273.749,330.138 C274.499,329.156 275.339,328.225 275.939,327.145 C276.209,325.615 275.444,324.093 275.324,322.578 C276.794,323.951 278.174,325.428 279.516,326.935 C277.117,328.112 275.474,330.265 273.651,332.14 C271.589,334.382 269.159,336.37 267.771,339.145 C266.256,337.885 264.749,336.625 263.346,335.245 C264.681,335.057 265.926,335.605 267.216,335.823 C268.716,335.508 269.661,334.098 270.824,333.205 C267.606,330.205 264.546,327.048 261.254,324.138 C259.86,322.63 258.172,324.483 256.552,324.491 C258.959,321.596 261.562,318.851 264.397,316.368 Z M144.217,324.228 C143.467,327.678 145.852,330.611 147.097,333.618 C150.577,334.136 154.77,335.958 157.875,333.424 C160.065,331.008 157.687,327.514 154.92,327.011 C151.875,326.553 151.418,322.781 148.65,321.904 C146.865,321.236 144.48,322.203 144.217,324.228 Z M184.801,321.835 C182.76,322.473 181.958,324.633 180.57,326.05 C178.845,327.04 176.543,327.28 175.388,329.065 C174.271,330.655 174.586,333.303 176.558,334.06 C179.708,335.575 183.18,334.067 186.383,333.55 C187.613,330.543 189.976,327.633 189.271,324.19 C189.023,322.135 186.593,321.16 184.801,321.835 Z M67.748,314.958 C71.4,315.805 73.845,319.128 74.895,322.555 C73.777,324.07 72.63,325.578 71.272,326.898 C71.399,324.048 73.23,320.456 70.694,318.169 C69.164,316.579 66.382,317.523 66.014,319.654 C65.677,322.541 67.874,325.107 67.552,328.024 C67.372,331.032 63.712,332.779 61.064,331.752 C58.147,330.845 56.489,328.114 55.034,325.64 C56.159,324.343 57.127,322.73 58.859,322.167 C58.454,324.244 57.052,326.757 58.776,328.609 C60.059,330.454 63.351,329.524 63.389,327.244 C63.113,324.408 61.185,321.858 61.605,318.94 C62.04,316.188 65.063,314.252 67.748,314.958 Z M57.345,300.476 C59.978,302.681 61.568,305.809 63.705,308.449 L63.068,308.982 C62.521,308.651 61.418,307.977 60.863,307.639 C57.045,309.589 53.738,312.469 50.333,315.056 C48.825,315.799 49.853,317.246 50.123,318.424 C49.935,318.566 49.561,318.859 49.365,319.001 C47.422,316.204 45.188,313.601 43.53,310.616 C45.015,311.006 46.568,312.805 47.993,311.366 C51.36,308.951 54.931,306.708 57.886,303.791 C57.772,302.673 57.517,301.578 57.345,300.476 Z M281.558,293.711 C281.468,295.196 280.298,297.206 282.098,298.151 C285.481,300.649 288.871,303.176 292.561,305.216 C293.536,304.661 294.533,304.136 295.553,303.641 C293.408,307.413 290.91,311.029 288.106,314.344 C286.598,316.219 283.606,316.549 281.836,314.868 C280.081,313.571 280.366,311.231 280.441,309.326 C276.706,309.101 272.978,309.311 269.348,310.219 C270.413,308.704 271.418,307.039 273.001,305.989 C276.203,303.927 280.658,307.084 283.434,304.107 C281.768,302.862 280.044,301.691 278.146,300.829 C277.245,301.443 276.345,302.058 275.415,302.621 C276.818,299.284 279.052,296.306 281.558,293.711 Z M284.176,304.661 C283.575,305.898 282.652,307.068 282.547,308.493 C282.675,310.578 284.76,312.116 286.755,312.108031 C288.54,312.033 289.433,310.308 290.438,309.108 C288.398,307.548 286.298,306.093 284.176,304.661 Z M45.825,283.076 C49.98,286.398 51.938,291.581 54.435,296.118 C52.935,295.563 51.42,293.726 49.792,295.031 C46.154,297.041 42.337,298.818 39.037,301.368 C39.135,302.156 39.329,303.723 39.435,304.503 C37.282,302.516 36.247,299.711 34.77,297.251 C33.052,294.183 31.297,290.666 32.212,287.058 C33.862,281.628 41.482,279.46 45.825,283.076 Z M35.55,289.023 C33.547,291.611 35.077,294.873 36.517,297.303 C40.485,295.473 44.302,293.305 48.029,291.04 C50.197,289.93 48.359,287.485 47.167,286.375 C43.583,283.226 38.1,285.723 35.55,289.023 Z M292.493,272.388 C292.868,273.986 292.215,276.281 294.173,276.94 C297.825,278.815 301.441,280.81 305.273,282.295 C306.15,281.575 307.051,280.885 308.018,280.3 C306.218,285.01 303.571,289.345 301.501,293.943 C299.829,293.343 298.148,292.691 296.761,291.558 C298.306,291.123 300.623,291.963 301.546,290.238 C302.356,289.083 302.949,287.794 303.593,286.541 C301.74,285.499 299.828,284.546 297.931,283.601 C297.33,284.861 296.671,286.099 296.266,287.441 C296.58,288.483 297.031,289.482 297.406,290.516 C295.314,289.578 293.236,288.603 291.302,287.373 C292.322,287.148 293.349,286.983 294.384,286.871 C295.149,285.574 295.862,284.246 296.567,282.911 C294.557,281.891 292.509,280.938 290.372,280.203 C289.314,281.755 288.197,283.353 287.814,285.236 C287.949,286.908 289.231,288.221 289.786,289.781 C288.091,289.008 286.643,287.823 285.219,286.661 C287.67,281.913 289.868,277.038 292.493,272.388 Z M159.06,188.636 C160.59,188.779 162.12,188.928 163.657,189.078 C163.65,201.333 163.432,213.648 164.985,225.828 C166.297,236.62 170.467,247.255 177.735,255.438 C179.948,258.041 182.745,260.013 185.213,262.346 C185.61,263.344 184.38,263.516 183.758,263.891 C179.588,265.549 175.051,265.773 170.648,266.358 C167.468,269.223 163.575,271.166 159.586,272.643 C157.111,273.558 154.419,273.085 151.973,272.32 C155.491,272.14 161.078,271.638 161.588,267.236 C159.953,265.661 157.546,265.998 155.483,265.758 C152.761,265.683 150.428,264.093 147.983,263.103 C127.598,268.525 107.198,273.873 86.828,279.348 C86.363,280.705 85.883,282.055 85.411,283.42 C76.366,284.253 67.336,285.25 58.283,285.948 C66.421,282.55 74.558,279.16 82.696,275.763 C83.919,276.483 85.141,277.203 86.356,277.93 C106.366,272.793 126.324,267.513 146.356,262.481 C145.066,261.775 143.783,261.063 142.538,260.298 C145.455,259.713 148.253,260.673 150.886,261.828 C154.321,262.128 157.771,262.383 161.221,262.653 C162.781,247.983 162.174,233.178 161.889,218.455 C161.522,214.315 162.016,209.957 160.569,205.997 C159.541,213.377 160.861,220.862 159.954,228.249 C159.819,229.404 159.377,230.499 158.912,231.564 C158.192,229.014 158.005,226.352 158.102,223.719 C158.43,212.021 158.738,200.328 159.06,188.636 Z M37.83,262.758 C39.713,265.848 41.13,269.261 41.918,272.794 C41.055,272.036 40.23,271.233 39.33,270.521 C34.785,271.856 30.36,273.746 26.153,275.936 C26.243,276.693 26.415,278.201 26.506,278.958 C23.798,276.55 23.304,272.523 21.939,269.283 C22.944,269.973 23.874,270.775 24.931,271.39 C29.191,269.942 33.466,268.33 37.441,266.207 C37.62,265.061 37.748,263.913 37.83,262.758 Z M208.89,42.88 C222.338,50.62 231.458,65.568 231.563,81.153 C231.563,101.313 231.555,121.473 231.57,141.625 C230.205,142.075 228.465,142.27 227.813,143.763 C226.718,145.367 227.723,147.168 228.293,148.758 C228.765,147.296 228.848,145.541 230.063,144.446 C231.158,143.284 232.86,143.314 234.323,143.029 C234.563,144.379 235.261,145.811 234.683,147.169 C234.158,148.166 233.22,148.857 232.47,149.666 C234.338,153.761 239.385,156.094 243.615,154.249 C246.367,153.079 249.037,149.674 247.402,146.681 C246.187,147.814 245.137,149.644 243.225,149.524 C240.878,149.629 238.875,147.252 239.423,144.957 C239.79,142.7 242.453,141.259 244.553,142.167 C246.143,142.722 246.66,144.477 247.493,145.767 C247.958,145.055 248.415,144.342 248.88,143.622 C247.215,142.609 245.108,141.244 245.625,138.95 C245.91,135.41 251.28,134.48 252.765,137.697 C254.152,140.142 252.195,142.677 249.907,143.54 C250.38,144.297 250.867,145.047 251.362,145.79 C252.172,144.41 252.727,142.475 254.504,142.07 C256.829,141.253 259.529,143.248 259.424,145.715 C259.469,147.898 257.406,149.757 255.247,149.518 C253.439,149.406 252.487,147.681 251.309,146.57 C249.771,149.758 252.494,153.253 255.441,154.355 C259.588,155.975 264.494,153.718 266.256,149.697 C264.591,148.437 265.004,146.157 266.241,144.777 C267.321,143.435 269.189,143.352 270.696,142.797 C269.413,142.369 268.123,141.972 266.833,141.605 C266.9,123.132 266.863,104.652 266.855,86.18 C282.62,107.435 293.143,132.425 297.935,158.427 C304.287,192.545 301.265,228.425 288.875,260.869 C284.105,260.854 279.335,260.922 274.565,260.847 C275.885,262.504 277.535,264.604 276.59,266.854 C275.773,268.669 273.388,268.354 271.753,268.526 C256.738,268.579 241.731,268.571 226.715,268.534 C224.9,268.429 222.193,268.601 221.503,266.441 C220.761,264.236 222.396,262.346 223.663,260.756 C214.715,260.883 205.768,260.756 196.821,260.824 C200.931,254.524 202.633,247.092 204.036,239.809 C207.141,223.121 206.699,206.074 206.991,189.176 C207.081,184.467 206.788,179.764 206.706,175.054 C208.146,172.954 207.793,170.239 206.353,168.229 C203.818,164.921 200.706,161.464 200.69,157.046 C200.368,151.226 198.68,145.594 196.827,140.111 C198.125,139.751 200.322,140.216 200.75,138.491 C201.238,136.481 199.835,134.696 198.8,133.121 C196.258,129.761 194.292,125.883 193.505,121.721 C192.59,112.488 195.523,102.453 190.835,93.888 C188.615,89.568 183.567,88.608 179.803,86.178 C178.325,90.288 173.646,91.653 169.7,91.848 C166.01,91.953 161.87,91.451 159.073,88.81 C157.918,87.843 157.986,86.245 157.768,84.895 C155.345,85.3 152.893,85.623 150.5,86.185 C147.988,86.763 146.052,88.81 145.152,91.165 C143.45,95.41 141.74,99.663 140.292,104.005 C136.955,100.263 133.354,96.737 129.544,93.49 C127.939,93.295 126.364,93.94 124.804,94.202 C130.992,99.519 136.992,105.242 141.536,112.067 C134.449,108.94 126.588,108.302 118.946,108.857 L116.164,112.727 C122.974,112.217 129.979,111.812 136.632,113.635 C138.822,114.137 140.532,115.63 142.219,117.01 C143.434,118.135 145.849,117.49 145.909,115.69 C146.959,111.423 149.847,107.913 152.929,104.913 C157.571,100.511 163.121,97.15 169.016,94.721 C171.206,101.478 173.351,108.251 175.556,115.001 C177.123,115.256 178.698,115.526 180.258,115.841 C179.208,114.341 178.256,112.773 177.528,111.093 C179.891,110.703 182.861,110.8 184.188,108.393 C186.063,105.138 184.143,101.44 183.003,98.29 C183.288,98.223 183.866,98.087 184.15,98.02 C185.298,101.26 187.06,104.68 186.108,108.198 C185.485,110.388 183.273,111.52 182.215,113.448 C181.668,115.158 182.935,116.591 184.158,117.595 C184.196,119.012 184.21,120.429 184.233,121.855 C178.81,120.182 173.103,119.86 167.47,119.53 C168.002,119.057 169.068,118.112 169.6,117.64 C168.108,117.692 166.622,117.783 165.13,117.865 L165.903856,117.323789 C167.837675,115.964813 169.742,114.539294 171.092,112.554 C170.552,111.834 170.012,111.122 169.487,110.409 C167.17,111.331 164.89,112.374 162.445,112.907 C163.84,110.605 165.722,108.61 166.727,106.074 C162.534,107.079 160.284,111.512 156.137,112.831 C156.137,110.806 156.415,108.571 154.622,107.154 C153.699,110.417 152.259,113.491 151.33,116.746 C148.165,119.349 143.852,120.623 139.788,119.918 C137.313,118.433 134.41,116.386 131.41,117.788 C128.402,119.641 127.128,123.278 126.52,126.585 C125.883,130.672 126.002,134.91 126.97,138.938 C127.63,141.158 128.988,143.753 131.515,144.158 C133.48,144.323 135.145,142.995 136.375,141.615 C139.563,138.166 141.587,133.838 142.998,129.406 C149.418,127.779 153.828,121.509 160.803,121.621 C157.863,124.509 153.753,126.114 151.21,129.406 C148.945,134.971 145.285,139.951 143.77,145.808 C142.75,148.291 146.11,149.971 145.15,152.416 C142.968,162.098 141.603,171.931 140.388,181.77 C140.306,183.143 140.171,184.988 141.513,185.835 C146.321,187.853 151.766,186.12 156.588,188.108 C156.266,190.56 156.423,193.275 154.863,195.368 C154.398,193.733 154.075,192.06 153.835,190.38 C150.445,189.765 146.958,189.72 143.53,189.713 C143.312,189.938 142.885,190.395 142.667,190.62 C141.902,193.965 142.247,197.453 141.797,200.843 C140.844,207.668 141.167,214.575 140.762,221.446 C140.185,231.758 139.75,242.086 139.36,252.406 L137.870892,252.40626 C132.403931,252.404542 126.870167,252.3335 121.57,250.876 C120.062,250.366 117.858,249.721 117.895,247.749 C119.725,244.307 123.393,242.529 126.647,240.714 C130.637,236.851 132.475,231.376 133.945,226.156 C134.815,222.436 136.285,218.783 136.127,214.906 C134.38,215.558 133.165,216.984 132.392,218.634 C130.487,222.249 128.784,226.636 124.735,228.324 C122.447,229.149 120.887,226.449 120.887,224.499 C120.752,220.682 122.882,216.144 126.887,215.214 C127.667,215.941 128.462,216.661 129.257,217.381 C134.74,209.259 138.512,199.831 138.992,189.976 C138.947,187.538 139.112,184.298 136.615,182.941 C134.875,183.548 134.477,185.693 133.022,186.714 C132.1,185.754 131.927,184.426 132.235,183.173 C133.39,176.461 135.685,170.018 137.92,163.606 C139.082,160.126 140.83,156.818 141.572,153.211 C140.949,152.199 139.884,151.449 139.547,150.286 C140.829,143.034 145.127,136.839 147.505,129.984 C144.895,131.574 143.92,134.641 142.428,137.139 C134.995,151.809 130.66,167.851 127.616,183.954 C127.061,187.524 125.913,191.634 128.066,194.896 C129.259,196.426 131.074,195.031 132.491,194.664 C130.211,202.644 123.671,208.322 120.663,215.956 C118.488,221.318 116.403,227.904 119.605,233.281 C120.565,235.111 121.84,237.203 120.978,239.326 C119.178,243.886 113.516,245.423 111.821,250.058 C110.891,252.151 111.986,254.483 113.583,255.901 C115.848,257.926 118.593,259.298 121.121,260.948 C117.063,260.955 113.013,260.993 108.956,260.918 C110.291,262.598 111.911,264.706 110.996,266.993 C110.148,268.868 107.666,268.5 105.986,268.682307 C90.986,268.688 75.978,268.666 60.978,268.636 C59.283,268.531 56.965,268.763 56.035,266.986 C55.015,264.736 56.673,262.621 57.985,260.956 C53.733,261.039 49.472,260.994 45.212,261.016 C34.622,233.266 30.865,202.996 33.992,173.476 C37.254,141.984 48.587,111.159 67.682,85.793 C67.704,104.573 67.637,123.354 67.712,142.133 C66.04,141.975 64.405,142.276 62.845,142.853 C64.623,143.475 66.88,143.752 67.825,145.643 C68.95,147.233 67.728,149.048 67.788,150.758 C70.053,154.875 76.09,156.278 79.833,153.36 C81.783,151.875 83.47,149.026 82.038,146.648 C80.913,147.713 80.013,149.408 78.273,149.521 C76.075,149.829 73.916,147.909 74.006,145.688 C73.946,143.229 76.638,141.255 78.956,142.096 C80.726,142.516 81.273,144.451 82.076,145.831 C82.564,145.074 83.044,144.316 83.516,143.551 C82.323,142.734 80.681,142.089 80.366,140.49 C79.623,138.12 81.731,135.511 84.198,135.69 C86.516,135.72 88.375,138.135 87.753,140.385 C87.468,142.035 85.766,142.725 84.573,143.633 C85.016,144.36 85.458,145.095 85.916,145.823 C86.763,144.518 87.289,142.703 88.924,142.163 C91.271,141.181 94.159,143.138 94.084,145.688 C94.197,148.043 91.774,149.985 89.501,149.468 C87.949,149.183 87.116,147.653 86.013,146.708 C84.393,149.776 87.138,153.21 89.965,154.343 C94.173,156.075 99.13,153.743 100.968,149.693 C98.703,148.216 97.938,145.568 99.093,143.109 C100.525,143.446 102.22,143.446 103.293,144.624 C104.433,145.741 104.538,147.459 105.138,148.869 C105.573,147.264 106.541,145.434 105.476,143.866 C104.718,142.209 102.768,142.074 101.231,141.721 C101.231,120.796 101.291,99.871 101.194,78.946 C100.8,66.4 106.972,53.951 117.037,46.488 C129.277,37.263 144.937,34.3 159.922,33.438 C176.602,32.658 194.197,34.3 208.89,42.88 Z M301.673,247.976 C302.138,249.139 301.283,251.208 302.806,251.741 C306.406,253.256 310.163,254.404 313.891,255.566 C315.586,256.414 316.583,254.374 317.813,253.631 C316.92,257.366 315.646,260.996 314.273,264.581 C313.516,266.636 311.633,268.916 309.173,268.143 C306.998,267.723 306.578,265.3 306.293,263.478 C305.355,264.498 304.545,265.758 303.226,266.305 C300.976,267.183 298.156,265.728 297.571,263.388 C296.857,260.621 297.93,257.838 298.748,255.213 C299.625,252.768 300.165,250.136 301.673,247.976 Z M267.18,259.503 C254.925,259.555 242.678,259.481 230.422,259.533 C226.912,259.916 223.14,262.436 222.727,266.201 C240.607,266.208 258.502,266.351 276.382,266.126 C275.49,262.031 271.245,259.256 267.18,259.503 Z M101.459,259.518 C89.451,259.54 77.451,259.54 65.444,259.518 C61.545,259.436 57.39,262.098 56.647,266.103 C74.527,266.291 92.422,266.246 110.302,266.125 C109.537,262.127 105.404,259.345 101.459,259.518 Z M191.879,165.76 C192.607,166.682 193.364,167.575 194.137,168.468 C193.139,169.3 192.164,170.163 191.219,171.048 C189.982,169.398 188.437,167.635 186.194,167.635 C183.502,167.155 181.687,169.487 180.389,171.468 C178.454,171.205 176.369,170.665 174.516,171.595 C172.109,172.698 171.111,175.502 170.968,177.985 C170.676,182.432 172.431,186.655 174.366,190.554 C172.611,195.677 171.283,201.152 172.259,206.575 C173.106,212.245 176.346,217.082 178.836,222.115 C182.151,229.495 184.011,237.407 186.644,245.028 C186.471,237.01 185.279,228.933 182.616,221.35 C180.148,215.507 176.541,209.905 176.263,203.38 C175.731,196.225 180.201,190.083 181.265,183.198 C181.265,181.488 179.735,180.483 178.588,179.5 C177.096,181.105 176.706,183.303 176.09,185.328 C175.295,182.553 174.005,179.673 174.605,176.725 C175.063,174.423 178.063,174.55 179.66,175.533 C182.083,177.13 183.35,179.943 184.287,182.591 C185.277,185.898 183.035,188.988 182.967,192.221 C183.747,194.013 185.742,194.733 187.265,195.768 C185.99,199.18 184.738,202.886 185.585,206.553 C186.433,210.288 191.773,211.991 194.6,209.41 C194.818,207.79 194.683,206.14 194.975,204.535 C195.62,201.805 197.293,199.435 197.803,196.668 C197.811,194.837 197.233,193.075 196.978,191.275 C196.551,191.14 195.703,190.87 195.275,190.735 C194.983,191.725 194.555,192.67 193.775,193.382 C193.662,192.355 193.58,191.327 193.535,190.299 C193.19,189.879 192.493,189.032 192.148,188.611 C193.948,189.144 195.741,189.721 197.541,190.269 C198.043,187.967 197.106,185.881 196.019,183.932 C195.674,180.182 198.801,176.957 202.191,175.802 C203.774,177.737 203.879,180.241 203.601,182.612 C202.784,181.382 202.394,178.952 200.444,179.215 C198.937,179.192 197.976,181.007 198.652,182.298 C200.505,187.683 202.38,193.075 203.767,198.603 C205.065,205.383 201.802,211.766 200.062,218.133 C197.834,226.616 195.87,235.436 196.829,244.248 C198.607,232.968 201.254,221.793 205.634,211.218 C205.237,224.231 203.691,237.265 200.474,249.888 C199.072,255.453 195.989,260.455 192.006,264.535 C180.396,257.365 172.086,245.343 169.191,232.037 C167.511,224.147 167.218,216.039 166.994,207.999 C166.762,195.236 166.23,182.38 168.022,169.69 C175.8,167.553 183.719,165.198 191.879,165.76 Z M308.422,258.041 C308.197,259.076 307.949,260.103 307.852,261.161 C307.755,263.344 310.635,264.784 312.397,263.599 C313.537,262.819 313.814,261.342 314.437,260.194 C312.465,259.391 310.44,258.708 308.422,258.041 Z M13.508,242.494 C14.37,243.183 15.172,243.956 16.073,244.593 C20.415,244.683 24.428,241.833 28.823,242.658 C32.22,243.318 33.975,246.888 34.388,250.031 C34.778,252.311 34.118,254.966 32.011,256.196 C28.584,258.266 24.406,258.446 20.821,260.141 C20.011,261.094 20.086,262.526 19.636,263.681 C18.353,260.344 17.371,256.879 16.688,253.369 C17.873,254.157 18.683,256.181 20.371,255.604 C23.873,254.704 27.653,254.037 30.616,251.854 C33.496,249.566 31.643,244.301 27.961,244.301 C24.166,244.376 20.378,245.554 16.989,247.204 C16.546,248.419 16.321,249.702 15.946,250.939 C14.881,248.202 14.079,245.374 13.508,242.494 Z M566.954,176.846 C567.066,201.365 566.743,225.905 567.11,250.424 C566.497,255.375 572.273,254.237 575.406,254.449 C575.384,255.251 575.35,256.857 575.327,257.659 C568.403,258.808 561.513,260.224 554.812,262.32 C554.801,260.057 554.79,257.782 554.801,255.53 C549.47,258.072 544.41,263.1 538.065,261.807 C529.959,260.58 522.645,254.95 519.523,247.367 C515.621,237.912 517.382,226.35 524.207,218.668 C531.599,210.016 543.774,206.683 554.79,208.522 C554.59,201.241 555.225,193.927 554.422,186.69 C553.341,183.467 548.992,184.482 546.383,183.814 C546.372,182.822 546.382,181.83 546.405,180.849 C553.273,179.689 560.13,178.34 566.954,176.846 Z M300.975,255.903 C298.163,256.938 298.972,261.498 301.792,262.008 C304.784,263.208 306.472,259.968 307.387,257.718 C305.287,256.998 303.21,256.083 300.975,255.903 Z M465.669,208.789 C473.051,210.763 478.804,217.955 478.592,225.692 C478.513,227.152 478.714,229.707 476.663,229.851 C466.573,231.177 456.371,231.245 446.236,231.98 C446.336,239.272 448.923,247.422 455.891,250.89 C462.625,254.681 470.954,252.753 476.719,248.058 C477.143,248.56 478.001,249.564 478.436,250.065 C474.098,255.729 468.245,260.925 460.931,261.961 C452.089,262.809 442.667,258.584 438.252,250.711 C431.506,238.95 434.829,222.85 445.042,214.142 C450.528,209.247 458.467,206.883 465.669,208.789 Z M613.884,209.926 C620.886,213.238 625.681,221.868 623.094,229.439 C612.747,231.512 601.999,231.055 591.485,231.959 C591.775,236.597 592.31,241.492 595.064,245.417 C598.956,251.471 606.994,254.27 613.874,252.307 C616.939,251.482 619.437,249.419 622.314,248.149 C622.593,248.617 623.172,249.543 623.462,250.011 C619.649,255.731 613.795,260.425 606.983,261.829 C598.119,263.078 588.463,259.041 583.814,251.248 C576.799,239.787 579.698,223.797 589.488,214.833 C595.732,208.756 605.8,206.046 613.884,209.926 Z M650.611,207.876 C650.6,210.641 650.6,213.406 650.622,216.171 C654.145,213.952 657.546,211.499 661.292,209.659 C667.513,206.526 676.088,208.109 680.18,213.951 C682.454,217.006 683.012,220.909 683.068,224.621 C683.146,232.805 683.012,240.989 683.057,249.184 C683.112,251.38 683.057,253.71 684.016,255.762 C686.078,256.888 688.453,257.145 690.716,257.714 L690.716,260.679 C681.496,260.623 672.264,260.802 663.053,260.568 C663.433,256.71 667.602,257.145 670.122,255.495 C671.75,247.946 670.523,240.119 670.936,232.448 C670.825,227.308 671.683,220.585 666.688,217.351 C661.347,214.106 655.226,217.329 650.688,220.417 C650.531,229.627 650.654,238.826 650.587,248.035 C650.688,250.566 650.42,253.276 651.556,255.628 C653.207,256.798 655.303,257.044 657.221,257.679 C657.21,258.427 657.199,259.921 657.199,260.667 C648.134,260.678 639.081,260.678 630.038,260.678 C630.004,259.642 629.982,258.604 629.994,257.579 C633.15,256.876 638.501,257.066 638.222,252.494 C638.512,241.332 638.624,230.117 638.156,218.955 C638.189,215.12 633.451,215.71 630.864,214.83 C630.854,214.22 630.842,212.993 630.831,212.38 C637.487,211.175 644.088,209.682 650.611,207.876 Z M505.373,207.876 C505.396,221.98 505.317,236.084 505.396,250.189 C505.596,252.218 505.229,255.095 507.469,256.176 C509.343,256.956 511.416,257.079 513.424,257.459 C513.457,258.262 513.534,259.878 513.568,260.681 C504.002,260.659 494.424,260.726 484.869,260.648 C484.133,255.865 489.652,257.704 492.083,255.552 C493.343,253.679 492.997,251.271 493.176,249.141 C493.165,240.222 493.198,231.29 493.154,222.371 C492.931,220.342 493.399,217.844 491.76,216.305 C489.842,215.447 487.712,215.369 485.705,215.023 C485.672,214.354 485.605,213.027 485.571,212.357 C492.239,211.198 498.84,209.682 505.373,207.876 Z M409.207,190.003 C409.207,190.783 409.196,192.344 409.196,193.124 C405.884,193.759 401.603,193.47 399.496,196.625 C397.678,200.048 397.935,204.084 397.812,207.842 C397.857,220.518 397.689,233.196 397.9,245.873 C397.956,248.851 398.403,253.054 402.037,253.678 C406.809,254.481 412.105,254.748 416.543,252.485 C421.861,249.219 424.917,243.555 428.551,238.683 C429.454,238.917 431.283,239.384 432.197,239.62 C429.856,246.61 427.514,253.59 425.418,260.659 C408.27,260.659 391.133,260.67 373.984,260.659 C373.995,259.867 373.995,258.273 373.995,257.47 C377.184,256.835 381.41,257.281 383.44,254.18 C385.012,250.903 384.61,247.123 384.822,243.588 C384.822,230.431 384.934,217.264 384.755,204.107 C384.51,201.253 384.811,197.985 382.904,195.633 C380.663,193.47 377.273,193.682 374.441,193.113 C374.442,192.333 374.453,190.772 374.453,189.991 C386.037,189.957 397.622,189.936 409.207,190.003 Z M222.915,228.281 C225.315,231.476 228.195,234.281 231.473,236.576 C231.473,243.805 231.451,251.029 231.443,258.258 C243.233,258.266 255.023,258.258 266.813,258.266 C266.82,252.784 266.813,247.308 266.843,241.833 C257.738,245.493 247.246,244.743 238.546,240.333 C242.184,241.226 245.851,242.05 249.608,242.186 C249.623,237.544 249.616,232.901 249.616,228.266 C240.712,228.273 231.81,228.243 222.915,228.281 Z M119.377,150.86 C116.152,154.263 116.31,159.161 116.438,163.525 C94.688,163.51 72.945,163.525 51.203,163.518 C51.195,177.835 51.211,192.145 51.195,206.463 C51.195,210.003 51.345,213.573 52.23,217.023 C54.78,227.568 62.918,236.523 73.14,240.146 C80.392,242.868 88.388,242.486 95.73,240.334 C87.09,244.737 76.672,245.434 67.613,241.864 L67.621,258.237 C78.818,258.237 90.016,258.244 101.213,258.237 C101.228,251.329 101.183,244.429 101.235,237.522 C108.54,233.149 114.142,225.972 116.355,217.73 C117.885,212.353 117.555,206.712 117.585,201.185 C117.563,187.46 117.637,173.735 117.532,160.01 C117.337,156.838 118.192,153.77 119.377,150.86 Z M537.886,215.558 C532.133,220.453 531.297,228.704 531.564,235.784 C531.822,242.976 535.233,251.004 542.424,253.668 C546.628,255.319 551.088,253.601 554.823,251.595 C554.678,240.634 555.024,229.663 554.678,218.715 C552.136,212.458 542.759,211.343 537.886,215.558 Z M305.588,230.058 C306.226,231.295 305.776,233.613 307.65,233.763 C311.655,234.731 315.69,235.698 319.777,236.238 C320.699,235.496 321.48,234.603 322.38,233.838 C321.818,237.258 321.563,240.903 319.868,244.001 C319.395,242.831 319.845,240.709 318.128,240.461 C314.461,239.463 310.718,238.729 306.976,238.061 C305.1,237.408 304.342,239.583 303.15,240.536 C303.72,237.003 304.102,233.351 305.588,230.058 Z M267.42,203.516 C267.375,205.878 267.18,208.248 266.827,210.588 C269.504,210.408 272.19,210.408 274.867,210.505 C276.877,210.588 278.827,209.38 279.427,207.415 C276.78,207.79 274.215,208.578 271.545,208.795 C271.642,207.843 271.785,206.898 271.98,205.968 C272.625,205.848 273.915,205.608 274.56,205.495 C273.637,206.455 272.685,207.385 271.732,208.315 C274.627,208.503 277.635,205.742 280.289,207.76 C279.209,209.403 277.62,210.535 275.827,211.278 C276.539,212.538 277.289,213.925 278.977,213.91 C278.707,215.065 278.272,216.168 277.98,217.323 C277.365,217.248 276.765,217.188 276.15,217.135 C276.825,216.557 277.455,215.92 278.025,215.237 C276.577,214.72 275.213,214.022 274.005,213.077 C272.438,214.869 270.78,216.73 268.433,217.465 C269.955,215.702 271.695,214.12 272.978,212.155 C270.353,212.83 267.841,213.925 265.155,214.375 C262.118,219.408 256.74,222.775 250.86,223.18 C250.898,229.518 250.852,235.848 250.882,242.185 C262.965,241.765 274.597,234.482 279.779,223.487 C282.929,217.345 283.379,210.302 283.221,203.53 C277.958,203.516 272.692,203.545 267.42,203.516 Z M270.6,219.918 C269.685,221.185 268.132,221.5 266.76,222.018 C269.677,224.411 274.462,220.435 276.57,224.313 C274.852,226.016 272.565,226.736 270.203,226.93 C270.676,227.943 271.223,228.963 272.116,229.69 C270.391,231.123 269.138,233.252 266.858,233.89 C267.78,232.825 268.748,231.798 269.633,230.702 C268.816,229.877 267.998,229.052 267.195,228.22 C264.788,230.357 264.743,235.082 260.828,235.218 C262.718,233.575 264.173,231.543 265.215,229.27 C262.673,230.08 259.748,230.38 257.79,232.39 C256.253,233.823 254.61,236.028 252.263,234.865 C254.858,233.987 256.943,232.142 258.023,229.615 C256.501,227.755 254.356,226.412 253.313,224.177 C254.985,225.399 256.628,227.537 258.983,226.735 C260.843,226.39 260.243,223.855 260.731,222.535 C261.076,222.948 261.758,223.787 262.103,224.207 C262.681,224.147 263.843,224.035 264.421,223.982 C263.596,225.28 262.778,226.592 262.133,228.002 C263.896,227.485 265.493,226.524 267.263,226.044 C269.94,225.654 273.18,226.674 275.288,224.447 L275.108,223.382 C272.093,222.715 268.681,224.605 266.108,222.25 C266.662,221.418 267.157,220.533 267.863,219.813 C268.778,219.723 269.686,219.843 270.6,219.918 Z M25.395,207.371 C26.917,210.724 26.767,214.563 27.165,218.163 C26.393,217.195 25.74,216.13 24.96,215.178 C20.813,215.366 16.695,216.145 12.623,216.933 C17.723,218.853 23.205,219.708 28.148,222.048 C23.866,224.935 19.366,227.463 15.001,230.215 C18.931,229.668 23.056,229.944 26.828,228.617 C27.165,227.582 27.473,226.533 27.743,225.475 C29.22,227.973 28.868,231.055 29.265,233.823 C28.125,232.983 27.465,231.07 25.793,231.295 C21.578,231.415 17.28,231.325 13.148,232.233 C12.856,233.111 12.646,234.018 12.533,234.948 C12.316,234.986 11.881,235.053 11.663,235.091 C11.363,232.878 11.07,230.666 10.786,228.461 C14.371,226.084 18.061,223.849 21.556,221.336 C17.499,220.061 13.411,218.898 9.338,217.669 C8.985,215.066 8.543,212.463 8.558,209.824 C9.323,210.829 9.983,211.901 10.763,212.891 C15.045,212.554 19.305,211.758 23.521,210.956 C25.327,210.866 24.742,208.496 25.395,207.371 Z M83.467,169.39 C85.17,170.305 86.752,171.43 88.477,172.315 C88.44,173.043 88.395,173.77 88.35,174.505 C87.038,174.768 85.71,174.94 84.428,175.345 C83.43,176.312 83.213,177.798 82.636,179.02 C84.459,178.668 86.281,178.285 88.111,177.978 C88.119,178.811 88.126,179.643 88.126,180.476 C86.723,180.768 84.256,180.476 84.121,182.456 C84.713,184.616 87.458,185.628 89.453,184.833 C91.718,184.031 92.926,181.803 94.358,180.041 C94.658,181.654 94.913,183.273 95.1,184.909 C97.898,182.276 101.227,180.199 103.8,177.364 C103.957,174.769 104.58,172.159 106.657,170.42 C106.507,171.244 106.207,172.887 106.057,173.712 C107.459,173.022 108.869,172.347 110.309,171.733 C109.469,172.902 108.614,174.065 107.751,175.235 C109.213,175.1 110.684,174.988 112.146,174.921 C110.803,175.798 109.461,176.683 108.178,177.65 C109.551,178.235 111.021,178.475 112.475,178.723 C111.103,179.998 109.34,180.523 107.503,180.605 C104.63,184.228 101.225,187.34 97.543,190.108 C98.585,193.475 102.763,191.046 104.646,189.635 C104.489,191.023 104.834,192.658 103.858,193.82 C102.275,195.763 99.546,195.8 97.288,196.22 C99.898,198.77 102.321,201.492 104.721,204.23 C106.326,201.192 110.174,201.455 112.221,203.87 C110.931,203.998 109.634,204.11 108.343,204.208 C109.821,205.176 111.231,206.338 111.583,208.176 C110.533,207.568 109.498,206.938 108.463,206.308 C108.246,207.936 107.975,209.571 107.518,211.153 C106.52,209.833 105.89,207.276 103.738,207.965 C103.093,208.663 102.538,209.443 102.088,210.29 C101.638,208.805 101.376,207.252 100.768,205.828 C96.29,204.32 92.173,201.875 88.918,198.418 C86.038,200.098 82.393,199.865 79.693,201.801 C82.483,202.453 85.528,202.513 88.026,204.081 C89.924,205.161 91.206,206.969 92.676,208.536 C93.816,209.893 95.788,209.728 97.348,210.171 C96.193,212.57 93.688,213.403 91.206,213.62 C93.471,215.27 95.623,217.07 97.828,218.803 C99.493,217.933 101.113,216.816 103.018,216.553 C104.458,216.486 105.238,217.844 106.16,218.706 C104.96,218.744 103.768,218.781 102.575,218.826 C103.475,220.438 104.232,222.141 104.78,223.911 C103.648,223.349 102.553,222.703 101.413,222.163 C101.286,223.536 101.098,224.923 100.663,226.243 C99.988,224.953 99.328,223.573 97.948,222.913 C97.243,223.895 96.508,224.855 95.698,225.77 C95.465,224.15 96.365,221.187 93.996,220.858 C88.994,219.65 83.143,219.02 79.896,214.49 C81.028,214.01 82.146,213.485 83.293,213.035 C79.956,210.575 77.068,207.567 74.795,204.095 C75.95,207.275 76.145,210.627 75.875,213.98 C75.575,215.945 77.022,217.385 78.282,218.645 C75.282,218.968 72.522,217.73 70.452,215.6 C70.94,218.337 70.962,221.48 72.964,223.655 C74.832,225.71 78.079,224.562 80.179,226.182 C81.469,227.165 81.634,228.905 82.144,230.337 C80.906,229.535 79.661,228.739 78.409,227.967 C78.634,228.905 79.076,230.787 79.294,231.724 C78.267,230.944 77.232,230.164 76.197,229.399 C76.242,230.202 76.332,231.806 76.377,232.609 C75.462,231.17 74.555,229.722 73.572,228.334 C72.469,229.452 71.915,230.914 71.479,232.407 C69.229,231.012 70.481,228.642 71.944,227.194 C66.199,223.939 59.509,219.162 60.124,211.684 C61.541,211.939 63.349,213.019 64.451,211.541 C65.704,209.014 63.521,206.591 62.066,204.716 C63.356,204.258 64.639,203.763 65.921,203.283 C66.011,202.75 66.183,201.693 66.273,201.168 C63.858,200.867 60.896,200.403 59.748,197.92 C58.181,194.313 60.34,190.533 62.403,187.623 C64.638,184.136 68.148,180.925 68.096,176.486 C67.931,174.438 65.651,174.273 64.098,174.041 C64.076,176.111 63.768,178.346 62.036,179.719 C59.944,181.436 57.626,183.094 56.846,185.839 C56.441,181.249 55.256,175.699 58.878,172.039 C60.071,170.666 61.871,171.409 63.251,171.987 C65.381,172.152 67.954,172.107 69.326,174.071 C71.253,176.839 69.791,180.379 68.261,182.982 C65.951,187.032 61.954,190.377 61.316,195.207 C60.844,197.607 63.469,198.762 65.419,198.92 C67.691,199.332 69.072,197.06 70.819,196.04 C73.189,193.97 76.534,193.31 78.626,190.902 C75.438,190.842 71.891,191.3 69.364,188.907 C71.794,187.774 74.291,186.574 75.904,184.324 C73.992,184.639 72.057,184.886 70.114,184.729 C71.434,183.004 73.294,181.579 73.961,179.434 C73.939,177.206 73.159,175.017 73.526,172.774 C74.062,171.453 72.757,170.695 72.105,169.788 C73.935,169.525 75.683,170.073 77.445,170.425 C79.455,170.111 81.405,169.315 83.467,169.39 Z M179.797,193.728 C178.732,195.25 178.162,197.081 178.402,198.948 C178.74,203.178 177.937,207.835 180.322,211.623 C182.324,214.886 186.082,216.303 189.397,217.841 C188.429,219.933 187.312,222.086 187.372,224.456 C187.522,227.179 188.737,229.669 189.794,232.136 C189.682,228.851 189.074,225.438 190.177,222.251 C191.849,218.471 195.202,215.876 198.014,212.988 C200.219,210.836 200.654,207.678 201.434,204.851 C202.049,202.233 203.099,199.458 202.086,196.804 C201.763,195.971 201.028,194.157 199.994,195.431 C198.261,199.743 198.884,204.664 196.919,208.909 C195.756,211.489 193.424,213.221 191.504,215.201 C188.564,213.663 184.874,212.68 183.187,209.554 C181.05,205.234 182.489,200.232 181.169,195.732 C180.833,195.003 180.825,193.788 179.797,193.728 Z M194.767,217.833 C194.137,218.5 193.507,219.168 192.892,219.843 C195.24,223.51 194.557,227.973 194.069,232.053 C196.229,227.68 197.654,222.242 194.767,217.833 Z M453.684,213.998 C449.28,216.863 447.764,222.226 446.805,227.076 C453.339,226.942 459.906,227.221 466.428,226.552 C467.02,222.371 466.06,217.811 462.838,214.878 C460.474,212.425 456.449,212.046 453.684,213.998 Z M598.776,214.086 C594.45,216.952 592.955,222.27 592.03,227.076 C598.575,226.965 605.142,227.177 611.676,226.585 C612.2,222.36 611.275,217.732 607.974,214.811 C605.577,212.369 601.507,212.068 598.776,214.086 Z M308.73,207.505 C308.985,208.548 309.277,209.59 309.6,210.625 C313.868,211.728 318.352,211.915 322.74,212.245 C324.142,212.492 324.218,210.557 324.878,209.732 C325.08,209.83 325.485,210.024 325.688,210.129 C325.126,213.489 325.418,217.059 324.143,220.269 C323.461,219.047 323.798,216.722 321.946,216.609 C317.754,216.091 313.524,215.334 309.294,215.536 C308.139,216.946 308.214,218.949 308.424,220.666 C309.257,222.226 311.387,222.683 311.904,224.498 C310.036,224.041 308.206,223.44 306.392,222.81 C306.915,218.621 307.305,214.413 307.755,210.213 C307.77,209.201 308.1,208.286 308.73,207.505 Z M251.017,212.103 C250.792,215.388 250.86,218.688 250.904,221.981 C253.484,221.606 255.974,220.841 258.314,219.708 C255.907,217.18 254.422,213.416 251.017,212.103 Z M234,203.411 C234.015,207.063 234.337,210.889 236.377,214.038 C239.085,218.71 244.252,221.5 249.562,221.883 C249.524,218.861 249.75,215.831 249.464,212.816 C249.134,212.644 248.474,212.299 248.144,212.126 C247.604,213.454 247.656,215.321 246.247,216.124 C244.169,217.399 241.072,217.407 239.272,215.644 C238.042,213.387 238.897,210.664 238.365,208.234 C237.435,207.649 236.422,207.267 235.455,206.772 C237.623,206.72 239.79,206.705 241.965,206.705 C241.838,205.61 241.725,204.507 241.62,203.413 C239.077,203.411 236.535,203.411 234,203.411 Z M241.733,207.22 C240.007,209.291 240.472,212.223 240.967,214.653 C242.587,217.78 247.62,215.823 247.035,212.395 C244.988,210.962 243.18,209.252 241.733,207.22 Z M232.808,203.464 C227.46,203.471 222.12,203.463 216.772,203.471 C216.727,207.199 216.764,210.941 217.23,214.646 C223.215,214.684 229.208,214.631 235.2,214.684 C233.325,211.242 232.695,207.349 232.808,203.464 Z M258.502,203.463 C258.412,204.386 258.329,205.316 258.247,206.246 C260.219,208.669 262.154,211.106 264.134,213.521 C265.747,210.424 266.151,206.921 266.084,203.479 C263.558,203.463 261.03,203.471 258.502,203.463 Z M247.49,194.232 C245.97,194.231 244.44,194.231 242.917,194.238 C242.917,195.753 242.909,197.276 242.909,198.799 L247.476,198.799 C247.596,200.524 247.131,202.391 247.896,204.004 C249.291,204.17 250.746,203.832 252.104,204.312 C253.281,206.33 252.404,208.872 252.711,211.092 C255.396,209.637 257.076,207.027 257.436,204.012 C256.003,203.974 254.563,204.177 253.138,204.012 C252.246,202.437 252.778,200.517 252.621,198.792 C250.911,198.8 249.201,198.807 247.498,198.814 C247.49,197.284 247.49,195.762 247.49,194.232 Z M242.752,203.928 C243.029,206.973 244.732,209.62 247.44,211.053 C247.252,208.841 248.175,206.238 246.863,204.295 C245.535,203.868 244.117,204.011 242.752,203.928 Z M191.58,197.921 C195.105,198.206 193.02,202.646 193.102,204.896 C191.805,204.925 190.515,204.963 189.217,205.016 C189.75,202.683 189.007,199.181 191.58,197.921 Z M322.485,198.873 C322.05,202.195 317.467,203.68 315.128,201.333 C312.795,199.428 313.545,195.318 316.32,194.238 C319.29,192.746 323.16,195.581 322.485,198.873 Z M20.654,198.161 C20.617,201.566 16.154,203.561 13.552,201.386 C11.07,199.69 11.392,195.581 14.047,194.231 C16.837,192.483 20.947,194.831 20.654,198.161 Z M234.12,189.701 C234.112,193.871 234.12,198.041 234.12,202.211 L241.687,202.211 C241.679,201.154 241.679,200.096 241.687,199.046 C239.16,195.933 236.647,192.805 234.12,189.701 Z M250.867,163.466 C250.927,169.803 250.882,176.141 250.897,182.478 C254.085,182.478 257.279,182.486 260.474,182.456 C259.942,182.044 258.877,181.226 258.344,180.813 C259.417,180.513 260.489,180.206 261.562,179.883 C258.877,177.716 256.717,174.573 253.237,173.658 C253.582,173.448 254.257,173.013 254.594,172.795 C254.384,172.435 253.972,171.715 253.769,171.348 C254.684,170.8 255.614,170.275 256.544,169.743 C256.934,171.086 256.822,172.833 258.262,173.591 C260.159,174.896 262.282,177.393 264.742,175.841 C263.984,175.3 263.227,174.776 262.462,174.258 C264.277,173.674 264.795,171.941 265.05,170.238 C266.85,170.576 268.65,170.936 270.442,171.318 C270.277,173.058 270.112,174.813 270.472,176.546 C269.954,176.546 268.935,176.539 268.425,176.531 C268.68,180.154 272.587,181.068 275.017,182.958 C276.037,183.903 278.527,183.318 278.25,181.683 C277.83,178.255 274.23,176.141 273.847,172.668 C273.615,171.242 274.95,170.103 276.285,170.058 C277.882,169.773 280.238,168.971 280.942,171.078 C281.437,173.156 280.56,175.361 280.732,177.505 C278.302,176.11 276.734,173.688 277.109,170.808 C275.939,171.108 274.274,171.918 275.107,173.411 C276.149,176.591 279.727,178.804 279.307,182.441 C278.976,184.084 277.05,184.204 275.804,184.743 C276.194,185.493 276.584,186.251 276.981,187.008 C276.718,187.428 276.179,188.261 275.916,188.68 C276.711,189.663 277.828,190.15 279.073,190.383 C278.653,193.848 275.781,195.948 273.051,197.643 C273.299,197.981 273.793,198.663 274.041,199 C273.831,199.397 273.614,199.78 273.381,200.163 C273.089,199.758 272.511,198.94 272.226,198.536 L271.214,199.788 C271.094,199.42 270.847,198.693 270.726,198.333 C270.389,198.768 269.714,199.638 269.376,200.073 C269.503,199.525 269.759,198.43 269.886,197.875 C269.316,198.16 268.176,198.73 267.614,199.015 C268.401,196.495 271.101,196.668 273.134,195.857 C274.191,194.995 273.876,193.442 274.154,192.25 C273.149,192.685 272.144,193.105 271.147,193.548 C271.964,191.117 271.649,188.56 271.605,186.048 C270.42,187.728 268.995,189.213 267.42,190.533 C267.833,190.728 268.642,191.125 269.047,191.328 C268.462,191.823 267.877,192.326 267.292,192.828 L267.278667,199.082741 C267.278667,200.125222 267.282,201.167667 267.292,202.21 L283.192,202.21 L283.192,163.435 C272.415,163.451 261.645,163.406 250.867,163.466 Z M250.89,183.791 C250.86,184.654 250.8,186.386 250.77,187.256 C253.755,188.238 256.965,187.579 260.047,187.706 C259.012,188.261 257.925,188.704 256.964,189.363 C256.739,190.563 256.724,191.794 256.649,193.008 C257.107,193.016 258.022,193.031 258.479,193.038 C258.464,194.411 258.457,195.775 258.464,197.148 C259.732,196.998 261.262,197.336 262.229,196.271 C263.444,194.651 262.927,192.476 263.234,190.608 C264.809,191.703 263.939,193.826 263.684,195.371 C263.091,197.651 260.384,197.868 258.471,198.206 C258.463,199.534 258.463,200.868 258.471,202.204 C260.991,202.196 263.519,202.196 266.046,202.196 L266.046,183.799 C260.992,183.791 255.938,183.798 250.89,183.791 Z M214.845,150.783 C215.753,153.236 216.713,155.741 216.645,158.403 C216.697,172.968 216.645,187.54 216.667,202.106 L232.762,202.106 C232.762,199.128 232.762,196.143 232.77,193.166 C231.097,193.526 229.433,193.871 227.775,194.253 C227.79,194.906 227.82,196.203 227.835,196.856 C227.31,196.166 226.785,195.468 226.26,194.786 C226.102,195.371 225.787,196.534 225.63,197.111 C225.51,196.526 225.263,195.341 225.135,194.748 C224.722,195.003 223.897,195.513 223.485,195.768 C223.733,194.538 223.965,193.308 224.175,192.078 C225.015,192.43 225.863,192.79 226.702,193.158 C227.887,192.445 229.079,191.741 230.279,191.05 C229.679,190.645 229.072,190.27 228.479,189.873 C230.256,189.003 231.464,187.435 232.739,185.988 C232.769,185.404 232.822,184.226 232.851,183.641 C232.011,183.243 231.163,182.846 230.324,182.463 C228.471,184.488 225.862,185.853 224.601,188.38 C224.106,188.17 223.611,187.96 223.116,187.757 C222.614,188.29 222.111,188.822 221.608,189.355 C221.676,188.762 221.803,187.577 221.863,186.985 C221.405,187.255 220.49,187.802 220.033,188.08 C220.325,186.985 220.416,185.852 220.423,184.727 C221.51,184.975 222.583,185.319 223.611,185.769 C224.946,184.299 226.311,182.859 227.721,181.457 C226.799,181.292 225.876,181.12 224.961,180.947 C226.064,180.542 227.166,180.129 228.276,179.709 C225.299,177.609 223.064,174.392 219.441,173.342 C219.996,173.222 221.114,172.982 221.676,172.862 C221.188,172.442 220.213,171.602 219.733,171.182 L221.676,171.512 C221.436,171.129 220.948,170.379 220.701,169.997 C221.564,170.155 222.426,170.147 223.288,169.997 C223.491,170.897 223.686,171.804 223.881,172.72 C226.641,174.168 229.394,178.382 232.776,176.582 C234.966,175.547 232.559,173.822 231.269,173.499 C232.274,173.229 233.286,172.967 234.299,172.719 C233.189,172.021 232.094,171.302 231.021,170.552 C232.041,169.937 233.076,169.344 234.104,168.737 C235.822,169.037 237.576,169.173 239.309,168.88 C238.671,171.213 237.891,173.71 239.219,175.983 C238.544,175.953 237.187,175.9 236.512,175.871 C237.675,177.371 239.399,178.121 241.147,178.721 C239.564,179.141 237.937,179.366 236.317,179.576 L236.854429,179.928662 C239.3716,181.572133 242.026,183.134533 245.19,182.554 C244.965,178.504 240.675,176.118 240.57,172.092 C241.102,169.519 244.275,169.977 246.24,169.594 C249.262,171.169 247.065,174.904 247.38,177.499 C245.055,176.037 243.517,173.704 243.818,170.854 C242.888,171.222 241.538,171.342 241.651,172.676 C242.528,176.269 246.218,178.594 246.271,182.509 C247.366,182.509 248.476,182.509 249.586,182.517 L249.586,163.475 C239.011,163.468 228.443,163.483 217.876,163.468 C217.958,159.093 218.198,154.128 214.845,150.783 Z M231.015,197.493 C231.023,198.611 231.03,199.721 231.037,200.846 C230.654,200.824 229.904,200.786 229.522,200.763 C229.515,199.713 229.515,198.67 229.507,197.628 C229.882,197.591 230.64,197.531 231.015,197.493 Z M257.219,194.232 C255.698,194.231 254.183,194.231 252.667,194.238 C252.667,195.753 252.659,197.276 252.667,198.799 L257.227,198.799 C257.219,197.276 257.219,195.754 257.219,194.232 Z M219.765,193.391 C219.757,194.523 219.863,195.648 219.855,196.788 C219.458,196.75 218.647,196.668 218.242,196.623 C218.265,195.603 218.295,194.583 218.317,193.563 C218.685,193.525 219.404,193.436 219.765,193.391 Z M193.432,195.003 C193.679,195.228 194.174,195.686 194.422,195.919 C192.855,196.203 191.265,196.158 189.817,195.438 C191.017,195.266 192.217,195.123 193.432,195.003 Z M506.533,187.762 C506.902,193.782 498.751,197.763 494.269,193.671 C489.563,190.516 490.934,182.521 496.153,180.682 C500.892,178.608 506.69,182.633 506.533,187.762 Z M191.423,188.583 C190.958,189.221 190.485,189.851 190.013,190.481 C189.788,191.568 189.54,192.648 189.263,193.721 C188.768,192.933 188.28,192.138 187.808,191.336 C186.735,191.478 185.632,191.666 184.59,191.291 C186.84,190.316 189.142,189.491 191.423,188.583 Z M206.415,186.116 C206.528,188.531 206.55,190.953 206.483,193.376 C205.387,191.013 204.967,188.456 206.415,186.116 Z M240.135,183.798 C242.325,186.468 244.447,189.19 246.637,191.86 C247.26,192.918 248.527,192.955 249.592,193.232 C249.637,190.082 249.615,186.94 249.615,183.797 C246.458,183.791 243.292,183.791 240.135,183.798 Z M250.748,187.9 C250.815,189.603 250.853,191.32 250.883,193.023 C252.173,193.023 253.47,193.023 254.761,193.016 C254.693,191.733 254.671,190.443 254.483,189.176 C253.297,188.576 251.985,188.32 250.748,187.9 Z M307.38,169.503 C308.467,170.755 309.24,172.511 310.965,173.028 C314.325,174.34 317.775,175.42 321.18,176.628 C323.07,177.341 325.312,177.678 326.542,179.486 C321.584,182.111 316.432,184.353 311.489,186.993 C309.959,187.661 309.817,189.498 309.164,190.826 C307.935,187.683 308.324,184.203 308.069,180.904 C308.564,181.399 309.547,182.404 310.034,182.899 C311.287,182.509 312.479,181.954 313.694,181.429 C313.589,179.569 313.476,177.717 313.357,175.864 C312.037,175.556 310.717,175.264 309.39,175.002 C308.962,175.932 308.565,176.899 307.935,177.725 C307.47,175.008 307.335,172.248 307.38,169.503 Z M27.27,167.696 C26.88,170.988 27.6,174.671 25.95,177.664 C25.74,177.041 25.327,175.789 25.125,175.166 C23.745,175.526 22.373,175.909 21,176.291 C20.857,178.136 20.722,179.981 20.58,181.833 C21.87,182.32 23.145,182.891 24.495,183.183 C24.847,182.56 25.552,181.323 25.905,180.701 C26.498,183.251 25.913,185.868 25.778,188.433 L24.938,188.433 C24.48,187.045 23.933,185.545 22.455,184.945 C18.428,182.703 14.265,180.716 10.2,178.555 C9.188,178.143 8.52,177.295 8.025,176.366 C13.185,174.573 18.442,173.065 23.61,171.281 C25.388,170.794 26.108,168.941 27.27,167.696 Z M186.975,171.348 C189.248,174.205 190.238,178.511 188.632,181.87 C187.17,178.916 185.595,176.013 183.48,173.471 C184.613,172.713 185.782,172.008 186.975,171.348 Z M196.455,172.166 C197.055,173.591 196.928,175.196 195.863,176.358 C194.505,177.956 194.228,180.445 192.248,181.443 C192.42,179.028 192.652,176.606 193.26,174.258 C193.567,172.878 194.977,171.529 196.455,172.166 Z M19.417,176.83 C17.452,177.423 15.495,178.008 13.545,178.623 C15.375,179.545 17.235,180.415 19.087,181.293 C19.2,179.8 19.305,178.315 19.417,176.83 Z M314.918,176.2 C315.007,177.686 315.113,179.17 315.21,180.663 C317.063,179.8 318.907,178.938 320.738,178.045 C318.81,177.385 316.86,176.793 314.918,176.2 Z M221.19,177.408 C221.183,178.488 221.183,179.568 221.183,180.648 C220.8,180.648 220.035,180.641 219.653,180.633 C219.652,179.561 219.645,178.488 219.652,177.423 C220.035,177.415 220.8,177.408 221.19,177.408 Z M96.113,174.753 C94.215,176.861 91.08,176.351 88.553,176.486 C90.443,175.976 92.371,175.503 94.103,174.558 C94.005,173.328 92.482,171.281 94.335,170.748 C96.69,170.028 97.492,173.351 96.113,174.753 Z M266.602,174.063 C266.1,174.386 265.597,174.701 265.102,175.023 C266.197,175.158 267.3,175.308 268.395,175.466 C267.802,174.993 267.202,174.528 266.602,174.063 Z M202.245,168.716 C203.94,170.148 205.192,171.993 205.935,174.078 C204.135,173.411 202.26,172.945 200.325,173.036 C199.89,171.866 199.448,170.703 198.99,169.555 C200.077,169.285 201.165,169.008 202.245,168.716 Z M85.02,171.153 C83.527,171.228 82.035,171.295 80.542,171.295 C81.487,172.053 82.372,172.893 83.25,173.725 C83.827,172.855 84.412,172 85.02,171.153 Z M265.469,171.514 C266.31,172.406 267.45,172.848 268.567,173.291 C268.785,173.036 269.212,172.526 269.422,172.271 C268.035,172.481 266.737,172.008 265.469,171.514 Z M228.442,168.97 C228.42,169.487 228.375,170.522 228.359,171.048 C228.974,171.303 230.204,171.813 230.819,172.068 C228.952,171.88 226.725,171.573 226.605,169.255 C227.063,169.18 227.985,169.038 228.442,168.97 Z M271.507,168.596 C271.71,169.488 271.373,170.148 270.495,170.568 C268.642,170.636 270.375,167.808 271.507,168.596 Z M321.63,148.751 C322.335,152.118 323.04,155.516 323.047,158.974 C322.402,158.157 321.787,157.324 321.187,156.484 C317.782,158.479 314.482,160.639 311.137,162.724 C314.917,163.467 318.667,164.389 322.492,164.899 C322.882,163.939 323.197,162.949 323.639,162.012 C324.404,164.72 324.794,167.509 325.064,170.306 C323.736,169.166 322.694,167.554 320.947,167.029 C315.959,165.319 310.724,164.456 305.707,162.844 C305.64,162.529 305.512,161.891 305.444,161.576 C309.735,158.478 314.407,155.943 318.802,152.988 C320.392,152.111 320.76,150.206 321.63,148.751 Z M265.177,167.036 C265.867,167.764 266.557,168.498 267.254,169.233 L268.237,167.471 L269.429,169.18 C268.124,169.803 266.669,169.803 265.259,169.728 C265.238,169.053 265.192,167.71 265.177,167.036 Z M224.977,164.216 C225.097,165.611 225.142,167.013 225.12,168.416 C222.945,168.124 223.162,164.883 224.977,164.216 Z M243.323,165.101 L243.323,168.326 L241.815,168.326 C241.808,167.246 241.808,166.173 241.815,165.101 L243.323,165.101 Z M158.595,149.478 C158.708,151.383 158.415,153.491 159.608,155.133 C161.025,157.593 163.898,158.419 166.478,159.026 C167.003,161.636 168.361,163.946 170.558,165.491 C169.065,165.701 167.49,166.324 166.02,165.648 C164.01,165.018 162.915,162.82 160.792,162.46 C159.277,162.055 157.709,161.522 156.689,160.255 C154.274,157.593 154.334,153.76 154.319,150.385 C152.129,149.185 149.714,148.577 147.239,148.412 C147.083,148.203 146.782,147.783 146.625,147.573 C150.675,146.418 155.145,147.025 158.595,149.478 Z M13.515,146.328 C15.255,146.471 17.003,146.598 18.743,146.778 C18.608,147.033 18.353,147.535 18.218,147.79 C16.621,148.278 14.693,148.668 13.845,150.303 C12.045,153.205 13.163,157.406 16.313,158.853 C20.371,161.118 27.368,160.638 28.658,155.335 C29.708,151.953 26.251,150.04 24.968,147.423 C26.881,148.03 28.681,148.923 30.428,149.913 C30.368,154.27 30.173,159.25 26.805,162.475 C22.972,166.346 15.787,165.198 13.102,160.548 C10.402,156.19 11.58,150.737 13.515,146.328 Z M188.505,139.976 C189.547,142.436 189.938,145.128 191.115,147.544 C192.105,149.816 193.852,151.661 194.835,153.941 C195.555,156.769 192.105,157.669 191.152,159.904 C189.982,160.488 188.805,161.066 187.702,161.764 C185.025,162.117 182.347,162.446 179.7,162.949 C180.135,161.786 180.367,160.519 181.012,159.446 C182.167,158.749 183.48,158.321 184.589,157.541 C186.127,156.371 186.277,154.316 186.794,152.606 C190.425,149.373 188.4,144.146 188.505,139.976 Z M50.49,152.358 C51.742,154.053 53.167,155.846 55.313,156.4 C57.308,157.075 59.393,156.445 61.35,155.935 C58.845,155.875 55.882,156.265 53.963,154.27 C52.875,153.468 52.102,151.766 50.49,152.358 Z M102.682,149.62 C102.427,149.868 101.925,150.356 101.677,150.603 C102.367,152.665 103.147,155.028 105.277,156.025 C107.467,157.195 109.98,156.483 112.237,155.935 C110.129,155.837 107.774,156.28 105.914,155.028 C104.047,153.82 103.454,151.563 102.682,149.62 Z M281.61,151.945 C280.418,153.257 279.277,154.78 277.552,155.425 C275.797,156.055 273.885,155.808 272.055,155.935 C274.027,156.408 276.113,156.985 278.123,156.34 C280.08,155.815 281.408,154.194 282.698,152.74 C282.427,152.538 281.88,152.141 281.61,151.945 Z M230.558,149.613 C229.883,151.488 229.32,153.611 227.595,154.818 C225.743,156.213 223.29,155.748 221.138,155.891 C223.373,156.431 225.863,157.106 228.03,155.958 C230.19,154.968 230.978,152.576 231.63,150.483 C231.36,150.266 230.827,149.831 230.558,149.613 Z M299.902,133.893 C300.967,134.831 301.702,136.383 303.239,136.63 C308.429,137.755 313.769,138.078 318.959,139.203 C319.296,139.473 319.971,140.02 320.309,140.298 C316.064,143.583 311.684,146.688 307.432,149.958 C305.872,151.008 305.64,152.981 304.934,154.578 C304.004,151.406 302.894,148.233 302.669,144.911 C303.179,145.361 304.199,146.253 304.709,146.696 C305.886,146.066 306.974,145.271 308.077,144.514 C307.604,142.722 307.147,140.929 306.675,139.129 C305.34,139.077 304.005,139.024 302.67,138.994 C302.392,139.998 302.085,141.003 301.762,142 C300.877,139.382 299.82,136.698 299.902,133.893 Z M51.127,145.833 C52.777,146.516 54.99,146.695 55.942,148.451 C56.474,149.554 56.73,150.768 57.105,151.938 C57.855,150.055 58.665,147.626 56.85,146.065 C55.29,144.393 52.965,145.203 51.127,145.833 Z M110.662,145.9 C112.14,146.492 113.947,146.658 115.065,147.925 C116.047,149.02 116.115,150.588 116.55,151.93 C117.352,150.228 118.17,148.015 116.662,146.425 C115.185,144.4 112.597,145.195 110.662,145.9 Z M216.787,146.246 C215.115,147.829 215.902,150.139 216.81,151.878 C217.207,150.498 217.282,148.908 218.325,147.82 C219.428,146.606 221.175,146.455 222.63,145.885 C220.755,145.166 218.295,144.416 216.787,146.246 Z M276.217,146.351 C274.725,147.963 275.655,150.101 276.322,151.849 C276.847,150.251 276.982,148.279 278.482,147.229 C279.622,146.487 280.995,146.276 282.254,145.796 C280.305,145.008 277.68,144.326 276.217,146.351 Z M42.683,142.863 C43.965,143.343 45.39,143.568 46.538,144.356 C47.8804211,145.385789 48.1135235,147.163202 48.670012,148.661112 L48.765,148.907 L48.8267241,148.721969 C49.4197322,146.909309 50.1582333,144.693 48.541,143.185 C46.995,141.393 44.573,142.143 42.683,142.863 Z M284.857,143.096 C283.162,144.663 283.964,147.011 284.587,148.863 C285.082,147.611 285.3,146.223 286.05,145.083 C287.114,143.576 289.102,143.44 290.699,142.848 C288.825,142.158 286.417,141.318 284.857,143.096 Z M119.07,142.938 C120.36,143.448 121.808,143.688 122.94,144.543 C124.252,145.578 124.365,147.385 124.905,148.848 C125.708,147.145 126.465,144.925 124.913,143.388 C123.45,141.498 120.938,142.128 119.07,142.938 Z M208.8,142.818 C206.82,144.266 207.472,146.868 208.155,148.818 C208.883,147.198 209.123,145.068 210.795,144.055 C211.898,143.493 213.135,143.245 214.313,142.856 C212.558,142.233 210.397,141.341 208.8,142.818 Z M446.231,76.604 C446.231,77.354 446.242,78.876 446.242,79.626 C443.023,80.268 438.38,80.496 437.316,84.334 C434.065,99.285 438.403,115.268 432.913,129.838 C429.585,139.026 420.865,145.67 411.232,146.909 C402.784,147.908 393.477,146.723 386.584,141.363 C380.483,136.579 378.516,128.511 377.982,121.14 C377.287,109.951 378.113,98.729 377.461,87.542 C377.276,85.302 377.026,82.573 374.873,81.301 C372.612,80.192 370.002,80.192 367.577,79.768 C367.575,78.987 367.575,77.41 367.565,76.627 C378.372,76.616 389.18,76.616 399.988,76.627 C399.988,77.388 399.999,78.921 399.999,79.682 C397.89,80.052 395.704,80.182 393.704,80.976 C391.66,81.867 391.095,84.292 390.889,86.292 C390.334,93.218 390.627,100.188 390.552,107.125 C390.594,114.628 390.421,122.37 393.052,129.512 C394.76,134.167 398.51,138.33 403.534,139.309 C409.742,140.538 417.147,139.994 421.724,135.112 C426.258,130.121 427.476,123.119 428.073,116.628 C428.585,107.626 428.358,98.59 427.835,89.598 C427.421,87.01 427.586,83.814 425.312,82.063 C422.605,80.29 419.234,80.214 416.146,79.703 C416.157,78.93 416.157,77.376 416.157,76.604 L446.231,76.604 Z M715.611,96.187 C716.774,100.145 717.622,104.179 718.329,108.256 C717.558,108.321 716.013,108.452 715.23,108.528 C712.48,104.254 709.413,98.73 703.607,98.644 C698.55,98.036 694.505,104.613 697.714,108.713 C702.182,114.639 710.673,114.768 715.794,119.955 C722.373,125.359 721.971,136.503 715.512,141.831 C707.455,148.638 695.06,148.376 686.459,142.679 C685.404,138.145 684.851,133.524 684.73,128.871 L687.709,128.871 C689.753,134.797 693.787,140.995 700.311,142.408 C705.106,143.516 710.532,139.482 709.585,134.329 C708.889,128.652 702.952,126.38 698.451,124.281 C693.025,121.955 687.371,117.758 686.763,111.429 C685.927,104.625 690.559,98.003 696.909,95.774 C702.911,93.425 709.63,94.078 715.611,96.187 Z M623.255,95.024 C630.301,97.09 635.705,104.017 635.509,111.442 C635.367,112.812 635.704,115.193 633.801,115.422 C623.928,116.771 613.935,116.835 604.009,117.52 C604.009,124.75 606.674,132.839 613.665,136.135 C620.231,139.69 628.17,137.646 633.747,133.198 C634.139,133.71 634.9,134.743 635.281,135.253 C631.127,140.635 625.625,145.593 618.677,146.713 C609.707,147.8 600.063,143.342 595.823,135.21 C589.201,123.001 593.506,106.463 604.771,98.536 C610.045,94.829 616.981,93.208 623.255,95.024 Z M832.278,96.753 C838.345,100.33 842.336,108.267 839.889,115.118 C829.778,117.02 819.35,116.683 809.097,117.521 C809.347,122.023 809.913,126.752 812.533,130.568 C816.307,136.516 824.157,139.267 830.876,137.375 C833.899,136.581 836.345,134.483 839.227,133.341 C839.488,133.787 839.988,134.689 840.249,135.135 C836.531,140.702 830.832,145.279 824.19,146.638 C815.514,147.877 806.086,143.898 801.542,136.265 C794.625,124.849 797.755,108.919 807.726,100.287 C814.164,94.405 824.536,92.099 832.278,96.753 Z M776.826,79.812 C777.152,79.932 777.805,80.17 778.132,80.279 C778.708,85.564 778.241,90.903 778.381,96.219 C783.046,96.37 787.775,95.761 792.397,96.589 C792.766,98.22 792.244,99.85 791.864,101.438 C787.373,101.493 782.873,101.471 778.392,101.482 C778.403,110.572 778.36,119.662 778.392,128.751 C778.48,132.252 778.719,136.449 781.796,138.744 C784.96,140.82 788.819,138.918 792.027,137.917 C792.343,138.623 792.963,140.016 793.277,140.711 C787.189,143.147 781.262,148.67 774.293,146.159 C769.031,144.93 766.78,139.201 766.856,134.296 C766.682,123.337 766.845,112.366 766.791,101.406 C763.942,101.091 760.593,102.221 758.136,100.492 C759.235,98.851 760.615,97.426 762.007,96.034 C763.605,96.068 765.204,96.1 766.823,96.143 C766.822,93.61 766.822,91.077 766.833,88.554 C770.182,85.673 773.26,82.454 776.826,79.812 Z M897.309,79.432 C897.754,85.01 897.505,90.61 897.559,96.209 C902.224,96.209 906.889,96.209 911.564,96.198 C911.553,97.872 911.988,99.71 910.922,101.177 C906.519,101.841 902.039,101.362 897.613,101.438 C897.526,110.583 897.559,119.727 897.57,128.881 C897.646,132.437 897.993,136.71 901.212,138.917 C904.399,140.689 908.041,138.928 911.183,137.895 C911.596,138.82 912.042,139.733 912.488,140.668 C906.475,143.113 900.626,148.551 893.722,146.224 C888.752,145.202 886.143,140.037 886.121,135.329 C885.806,124.032 886.078,112.714 886.001,101.406 C883.327,101.384 880.652,101.526 878.01,101.22 C876.835,99.024 880.065,97.741 881.075,96.099 C882.706,96.099 884.348,96.099 886.011,96.109 C886.001,93.588 885.99,91.077 886.001,88.566 C889.742,85.487 892.873,81.552 897.309,79.432 Z M37.312,125.867 C36.599,129.198 36.074,132.783 34.057,135.61 C33.967,134.935 33.802,133.592 33.719,132.918 C32.302,132.97 30.884,133.038 29.467,133.112 C28.935,134.882 28.395,136.653 27.862,138.429 C29.002,139.179 30.142,139.929 31.304,140.657 C32.031,139.922 32.774,139.209 33.539,138.504 C33.029,141.219 32.212,143.866 31.184,146.424 C30.546,144.827 30.381,142.899 28.904,141.782 C25.012,138.399 21.014,135.137 17.077,131.807 C17.092,131.424 17.115,130.66 17.129,130.269 C22.462,129.723 27.81,129.348 33.135,128.763 C35.04,128.763 36.037,126.971 37.312,125.867 Z M591.822,96.275 C591.811,97.025 591.811,98.514 591.8,99.265 C589.136,99.94 585.721,100.374 584.765,103.451 C579.23,117.195 575.327,131.536 570.673,145.595 C566.466,145.595 562.258,145.606 558.05,145.595 C553.842,132.515 549.602,119.446 545.404,106.366 C544.774,104.517 544.208,102.637 543.262,100.928 C541.903,99.831 540.022,99.82 538.434,99.287 L538.434,96.286 C546.579,96.264 554.711,96.275 562.855,96.275 C562.855,97.057 562.866,98.612 562.866,99.384 C560.8,99.721 558.767,100.069 556.733,100.461 C559.658,113.237 563.519,125.773 566.813,138.462 C570.184,127.405 573.533,116.357 576.914,105.31 C577.208,103.821 577.98,102.223 577.349,100.733 C575.327,99.993 573.162,99.764 571.076,99.374 L571.076,96.286 C577.98,96.264 584.895,96.275 591.822,96.275 Z M747.49,94.024 C747.512,107.451 747.479,120.88 747.501,134.296 C747.643,136.34 747.359,138.657 748.588,140.45 C750.469,142.049 753.154,141.865 755.46,142.429 L755.46,145.517 C746.25,145.549 737.051,145.495 727.853,145.549 C727.799,144.504 727.755,143.472 727.745,142.44 C730.148,141.722 733.703,142.265 735.03,139.667 C735.976,135.763 735.497,131.697 735.605,127.728 C735.464,120.106 735.877,112.474 735.377,104.862 C735.334,100.937 730.431,101.612 727.832,100.818 C727.723,97.883 730.691,97.971 732.779,97.503 C737.748,96.666 742.619,95.318 747.49,94.024 Z M866.67,94.035 C866.67,106.712 866.681,119.39 866.659,132.079 C866.713,134.482 866.626,136.939 867.202,139.299 C868.442,143.343 875.803,140.125 874.944,145.496 C865.625,145.572 856.297,145.507 846.978,145.528 C846.978,144.757 846.989,143.202 847,142.43 C849.522,141.723 853.882,142.244 854.48,138.831 C855.144,132.611 854.644,126.338 854.795,120.108 C854.643,114.66 855.187,109.169 854.392,103.776 C853.469,100.971 849.739,101.634 847.466,100.926 C847.446,100.309 847.413,99.058 847.402,98.438 C853.882,97.242 860.319,95.818 866.67,94.035 Z M529.725,94.035 C529.758,107.441 529.691,120.847 529.747,134.254 C529.953,136.341 529.571,138.778 530.964,140.549 C532.866,142.028 535.465,141.898 537.738,142.442 C537.716,143.463 537.704,144.497 537.704,145.529 C528.484,145.529 519.264,145.54 510.044,145.529 L510.044704,144.322312 C510.04576,143.63356 510.0484,142.8898 510.055,142.42 C512.37,141.844 515.219,142.094 517.035,140.267 C518.22,137.353 517.743,134.08 517.883,131.003 C517.709,122.273 518.166,113.509 517.644,104.789 C517.59,101.093 513.1,101.592 510.566,100.94 C510.534,100.33 510.447,99.112 510.403,98.503 C516.895,97.209 523.363,95.84 529.725,94.035 Z M466.053,94.035 C466.053,96.731 466.053,99.427 466.063,102.136 C470.086,99.7 473.849,96.743 478.263,95.024 C484.45,92.893 492.3,95.09 495.594,101.004 C498.41,105.767 497.638,111.518 497.747,116.814 C497.878,124.099 497.421,131.417 498.009,138.689 C498.117,142.093 502.259,141.767 504.619,142.463 C504.629,143.225 504.64,144.757 504.64,145.528 C496.051,145.528 487.461,145.518 478.86,145.528 C478.85,144.506 478.828,143.484 478.817,142.473 C480.85,141.897 483.275,142.038 484.939,140.581 C486.027,138.688 485.733,136.406 485.885,134.317 C485.852,127.044 485.94,119.759 485.852,112.485 C485.809,109.179 484.961,105.461 482.069,103.492 C478.197,100.872 473.032,101.959 469.303,104.308 C467.966,105.297 465.715,106.004 466.117,108.102 C466.161,118.29 465.747,128.511 466.356,138.687 C466.368,143.157 473.892,140.427 472.805,145.482 C463.867,145.57 454.929,145.505 446.002,145.526 L446.002,142.417 C448.395,141.863 451.221,142.124 453.19,140.438 C454.625,137.545 454.038,134.142 454.211,131.022 C454.005,122.117 454.57,113.169 453.896,104.285 C453.483,99.95 446.252,103.201 446.47,98.503 C453.049,97.274 459.605,95.851 466.053,94.035 Z M661.093,94.013 C660.951,98.285 660.81,102.548 660.691,106.821 C664.463,101.896 668.28,94.84 675.326,94.709 C681.273,94.59 683.177,102.918 678.773,106.246 C675.054,109.725 671.651,103.027 667.595,104.691 C663.713,106.235 660.549,110.334 661.071,114.661 C661.321,122.284 660.614,129.96 661.484,137.537 C662.561,141.952 667.964,141.703 671.509,142.366 C671.487,143.41 671.477,144.464 671.477,145.52 C661.68,145.498 651.883,145.552 642.097,145.476 C641.358,140.93 646.534,142.53 648.806,140.452 C649.97,138.615 649.698,136.31 649.85,134.255 C649.861,125.546 649.872,116.848 649.85,108.149 C649.666,106.192 650.024,103.865 648.567,102.311 C646.718,101.387 644.599,101.344 642.619,100.952 C642.576,100.297 642.478,99.003 642.435,98.361 C648.73,97.253 654.938,95.762 661.093,94.013 Z M308.317,139.143 C308.685,140.583 309.06,142.031 309.427,143.478 C311.122,142.27 312.817,141.055 314.505,139.841 C312.442,139.601 310.38,139.368 308.317,139.143 Z M133.282,119.029 C132.6,122.133 130.815,125.621 132.81,128.613 C134.49,131.178 137.962,130.331 140.505,130.196 C139.125,133.631 137.467,137.351 134.22,139.414 C132.555,140.569 130.268,139.579 129.608,137.764 C128.107,134.358 128.363,130.473 128.73,126.866 C129.165,123.851 129.998,120.108 133.282,119.029 Z M200.4,137.531 C200.52,139.706 198.398,139.279 196.912,139.098 C196.267,137.718 196.042,135.79 194.4,135.213 C192.232,134.328 189.938,135.198 187.717,135.378 C191.355,131.943 198.915,132.011 200.4,137.531 Z M27.795,133.308 C25.725,133.451 23.655,133.601 21.585,133.758 C23.22,135.041 24.863,136.308 26.505,137.583 C26.933,136.15 27.368,134.733 27.795,133.308 Z M310.74,111.505 C310.883,114.257 312.083,116.763 313.012,119.305 C314.077,122.073 314.82,125.028 316.657,127.428 C314.82,128.216 312.99,129.018 311.085,129.617 C311.797,128.005 314.107,126.82 313.418,124.832 C313.215,123.887 312.923,122.965 312.66,122.035 C308.16,123.865 303.375,125.095 299.07,127.352 C298.913,128.56 298.815,129.782 298.77,131.012 C296.767,127.794 295.77,124.09 294.615,120.527 C295.92,121.224 296.948,123.369 298.688,122.611 C302.896,121.261 306.976,119.559 311.138,118.074 C310.463,116.859 310.058,115.427 309.046,114.451 C307.71,114.085 306.345,113.906 305.07,113.38 C306.907,112.623 308.828,112.068 310.74,111.505 Z M35.429,100.376 C40.627,100.811 44.586,106.136 43.364,111.258 C42.314,115.743 40.394,120.108 37.881,123.971 C37.859,123.191 37.799,121.631 37.776,120.851 C36.778,119.501 34.971,119.111 33.546,118.353 C30.711,117.228 28.064,115.533 25.056,114.903 C24.088,115.458 23.218,116.148 22.296,116.755 C23.565,112.998 25.282,109.406 27.052,105.858 C28.612,102.753 31.709,99.896 35.429,100.376 Z M249.203,102.085 C246.72,107.41 244.306,112.78 241.988,118.188 C240.653,118.241 239.325,118.3 237.998,118.346 C240.743,114.003 243.473,109.661 245.94,105.154 C242.887,105.19 239.392,104.478 237.113,107.043 C237.308,105.377 237.518,103.705 237.735,102.04 C241.56,102.048 245.378,102.01 249.203,102.085 Z M260.01,102.011 C259.845,103.001 259.672,103.998 259.507,104.996 L252.937,104.996 L252.397,108.228 C254.264,107.913 256.289,107.373 258.089,108.295 C260.429,109.278 261.404,112.398 260.107,114.573 C258.172,117.933 253.185,119.628 249.922,117.138 C249.69,116.125 250.664,115.428 251.069,114.603 C252.629,115.3 254.692,117.918 256.334,116.081 C257.286,114.258 256.994,111.603 255.164,110.434 C253.777,109.834 252.232,110.217 250.784,110.254 C251.205,107.516 251.52,104.755 251.865,102.011 C254.58,102.003 257.295,102.003 260.01,102.011 Z M94.867,102.011 C94.702,103.001 94.529,103.998 94.365,104.996 L87.787,104.996 C87.607,106.076 87.427,107.156 87.247,108.243 C89.745,107.613 93.037,107.321 94.687,109.751 C96.592,112.241 94.979,115.781 92.437,117.094 C90.029,118.857 86.992,118.429 84.442,117.274 C84.9,116.367 85.395,115.467 85.927,114.604 C87.314,115.429 88.582,116.622 90.247,116.847 C92.564,115.422 92.054,111.139 89.489,110.239 C88.221,109.947 86.932,110.209 85.656,110.262 C86.025,107.516 86.363,104.763 86.7,102.011 C89.422,102.003 92.145,102.003 94.867,102.011 Z M80.235,101.748 C80.34,106.601 80.032,111.468 80.37,116.313 C81.12,116.92 81.9,117.498 82.695,118.045 C79.628,118.15 76.545,118.18 73.477,118 C74.347,117.475 75.232,116.973 76.125,116.47 C76.02,112.435 76.507,108.34 75.877,104.343 C75.262,104.141 74.025,103.721 73.41,103.511 C75.592,102.611 77.925,102.199 80.235,101.748 Z M284.25,98.831 C285.765,99.483 287.145,100.758 288.9,100.623 C294.172,100.466 299.43,100.031 304.695,99.805 C304.905,100.113 305.318,100.721 305.528,101.028 C301.966,105.108 298.283,109.075 294.825,113.245 C293.625,114.437 294.158,116.237 294.015,117.73 C291.704,115.194 290.542,111.842 289.365,108.677 C290.137,109.232 290.903,109.794 291.668,110.365 C292.673,109.375 293.663,108.377 294.646,107.372 C293.829,105.707 293.011,104.049 292.193,102.399 C290.836,102.602 289.485,102.804 288.143,103.029 C288.158,104.071 288.173,105.114 288.181,106.156 C286.417,103.991 285.3,101.396 284.25,98.831 Z M32.452,104.606 C29.183,104.606 27.458,107.8 26.498,110.478 C30.465,112.383 34.44,114.318 38.55,115.886 C40.485,116.786 41.302,114.183 41.55,112.781 C42.375,107.801 36.765,104.628 32.452,104.606 Z M613.002,99.146 C607.457,101.222 605.488,107.474 604.488,112.759 C610.653,112.563 616.861,112.987 623.015,112.312 C625.995,106.496 619.982,96.862 613.002,99.146 Z M816.186,100.102 C811.967,102.896 810.521,108.072 809.607,112.759 C815.989,112.649 822.383,112.835 828.755,112.301 C829.298,108.148 828.363,103.593 825.101,100.743 C822.753,98.406 818.828,98.144 816.186,100.102 Z M299.977,101.471 C297.915,101.666 295.86,101.861 293.797,102.063 L295.777,106.061 C297.18,104.539 298.582,103.008 299.977,101.471 Z M40.867,80.433 C42.404,81.213 43.935,82.016 45.397,82.938 C44.099,83.186 42.787,83.163 41.49,83.305 C39.863,84.273 39.15,86.17 38.175,87.708 C39.945,88.841 41.752,89.928 43.56,91.016 C44.28,89.764 45.037,88.534 45.607,87.213 C45.21,86.238 44.774,85.278 44.31,84.341 C46.507,85.188 48.907,86.126 50.242,88.211 C49.537,88.128 48.12,87.963 47.414,87.889 C46.544,89.164 45.697,90.461 44.864,91.774 C46.844,92.779 48.689,94.624 50.999,94.631 C52.311,93.439 53.241,91.857 53.774,90.176 C53.826,88.482 52.529,87.064 52.417,85.362 C53.872,86.457 55.192,87.702 56.512,88.946 C54.382,92.487 52.214,96.011 50.115,99.574 C49.485,100.661 48.735,101.696 47.738,102.484 C47.873,101.381 48.083,100.295 48.188,99.184 C46.928,97.662 45.053,96.859 43.426,95.809 C41.056,94.474 38.858,92.771 36.256,91.924 C35.206,92.359 34.239,92.974 33.211,93.461 C35.482,88.96 38.333,84.783 40.867,80.433 Z M287.708,72.476 C290.19,75.169 291.96,78.424 293.978,81.469 C295.156,83.344 296.228,86.232 294.204,87.941 C292.531,89.689 290.012,88.571 288.369,87.424 C288.646,88.819 289.262,90.266 288.841,91.706 C288.174,94.016 285.324,95.404 283.096,94.451 C280.936,93.588 279.518,91.631 278.206,89.808 C276.481,87.221 274.666,84.685 273.196,81.933 C274.246,82.383 275.236,82.945 276.301,83.366 C277.718,83.096 278.843,82.076 280.059,81.348 C282.646,79.495 285.512,78.011 287.896,75.866 C287.865,74.733 287.805,73.601 287.708,72.476 Z M284.564,83.186 C282.743,84.453 280.65,85.466 279.232,87.221 C278.632,88.406 279.645,89.666 280.537,90.371 C282.547,91.863 285.675,90.326 286.162,87.986 C286.342,86.223 285.277,84.701 284.564,83.186 Z M157.087,40.63 C157.582,41.628 160.147,43.675 157.844,44.013 C155.182,42.543 152.752,40.383 149.602,40.06 C146.64,39.647 142.972,40.72 141.69,43.66 C141,45.295 142.672,46.412 143.513,47.553 C142.501,49.338 141.315,51.295 141.773,53.44 C142.478,57.663 148.771,59.793 151.553,56.283 C153.615,53.875 152.453,50.455 153.39,47.695 C154.208,45.895 158.46,45.798 158.333,48.04 C156.945,49.885 155.025,51.332 154.073,53.492 C152.82,56.005 152.903,58.877 152.258,61.554 C151.298,64.345 147.871,65.155 146.626,67.749 C145.598,70.366 148.403,72.204 149.199,74.439 C148.336,76.997 145.891,78.534 144.249,80.559 C149.274,81.354 154.389,80.694 159.399,80.064 C159.031,79.719 158.312,79.022 157.951,78.677 C154.794,78.804 151.643,78.991 148.486,78.939 C150.804,76.974 153.084,73.959 151.756,70.772 C151.366,69.22 149.484,67.127 151.366,65.867 C154.554,64.127 158.408,64.607 161.723,65.732 C159.586,65.995 157.268,65.74 155.326,66.827 C155.304,67.269 155.258,68.162 155.236,68.612 C157.396,68.14 159.571,67.69 161.791,67.6 C161.109,67.997 160.426,68.388 159.744,68.778 C159.609,69.25 159.346,70.195 159.219,70.668 C158.304,70.487 157.637,69.933 157.224,69.01 C156.872,69.093 156.151,69.25 155.791,69.332 C156.999,72.992 157.524,77.215 160.516,79.959 C162.256,81.572 164.791,80.98 166.943,81.234 C165.533,82.216 163.891,82.696 162.203,82.899 C162.286,83.191 162.443,83.777 162.518,84.069 C161.506,84.249 160.501,84.444 159.496,84.639 C160.238,89.701 166.148,91.269 170.506,90.751 C173.754,90.428 177.991,88.681 178.156,84.886 C177.076,82.433 175.486,80.168 175.104,77.446 C179.919,76.943 184.899,76.913 189.467,75.143 C186.985,73.403 183.384,73.463 181.517,70.868 C180.422,68.513 181.585,65.633 180.295,63.308 C179.373,61.516 177.34,60.878 175.682,59.993 C175.795,56.123 173.484,53.048 171.19,50.205 C175.202,50.422 175.87,55.613 179.65,56.235 C182.327,56.791 185.59,57.008 187.705,54.93 C190.112,52.755 190.368,49.185 189.588,46.23 C188.478,42.683 183.378,42.067 180.678,44.055 C179.823,45.87 179.838,48.502 177.686,49.372 C175.368,50.497 173.118,48.705 171.236,47.535 C173.283,46.095 176.089,44.4 175.601,41.452 C175.586,38.362 171.754,36.525 169.143,37.845 C167.253,38.512 166.945,40.733 166.046,42.262 C163.383,41.295 165.026,37.222 162.251,36.487 C159.66,35.261 155.775,37.608 157.087,40.63 Z M290.745,79.15 C288.967,80.283 287.22,81.445 285.48,82.623 C286.688,84.138 288.442,86.448 290.632,85.158 C293.295,83.995 292.26,80.815 290.745,79.15 Z M62.333,54.16 C61.905,55.202 61.426,56.23 60.953,57.265 C64.095,60.153 67.501,62.747 70.891,65.327 C72.339,66.827 73.974,64.959 75.466,64.554 C73.516,67.72 71.041,70.562 68.349,73.112 C68.611,71.942 68.964,70.795 69.346,69.662 C66.279,66.602 62.731,64.082 59.394,61.345 C61.644,66.377 64.291,71.23 66.444,76.315 C61.277,75.61 56.409,73.6 51.369,72.348 C54.309,74.875 56.934,77.83 60.234,79.9 C61.449,79.6 62.619,79.128 63.812,78.768 C62.139,81.078 60.437,83.433 58.194,85.241 C58.172,83.898 59.252,82.233 57.999,81.183 C55.051,78.123 52.141,74.928 48.699,72.43 C47.544,72.775 46.531,73.451 45.444,73.945 C46.517,71.748 48.212,69.955 49.779,68.111 C53.987,69.191 58.187,70.286 62.394,71.366 C60.525,67.481 58.62,63.603 56.775,59.71 C58.613,57.873 59.782,55.127 62.333,54.16 Z M867.854,74.43 C868.17,80.085 860.7,84.031 856.254,80.454 C851.392,77.616 852.371,69.679 857.438,67.635 C862.091,65.351 868.006,69.308 867.854,74.43 Z M530.899,74.442 C531.226,80.106 523.723,84.031 519.297,80.433 C514.165,77.442 515.644,68.885 521.233,67.364 C525.789,65.721 531.05,69.614 530.899,74.442 Z M748.643,74.462 C748.937,80.268 741.163,84.118 736.77,80.257 C731.985,77.181 733.442,69.092 738.748,67.439 C743.348,65.601 748.806,69.538 748.643,74.462 Z M166.462,75.971 C165.195,77.741 162.75,78.88 161.085,76.886 C162.855,76.458 164.647,76.143 166.462,75.971 Z M164.46,72.978 C164.61,73.218 164.918,73.706 165.067,73.953 C163.62,74.141 162.165,74.313 160.71,74.32 C161.91,73.75 163.192,73.375 164.46,72.978 Z M279.863,69.168 C280.433,72.535 276.398,75.408 273.42,73.675 C270.292,72.236 270.517,67.263 273.623,65.928 C276.105,64.578 279.608,66.31 279.863,69.168 Z M169.942,66.273 C169.252,66.476 167.872,66.866 167.182,67.068 C166.919,67.811 166.649,68.553 166.372,69.296 C165.367,68.763 164.363,68.238 163.357,67.713 C165.247,66.378 167.662,65.748 169.942,66.273 Z M174.21,61.031 C176.13,61.503 176.438,63.611 176.58,65.261 C175.2,64.226 173.963,62.583 172.065,62.666 C168.39,62.425 164.977,63.94 161.708,65.388 C164.805,61.975 169.613,59.853 174.21,61.031 Z M270.428,55.713 C270.368,59.981 266.888,63.723 262.801,64.578 C256.501,65.846 250.006,59.793 250.749,53.433 C251.123,49.668 254.22,46.541 257.805,45.618 C263.918,44.081 270.488,49.488 270.428,55.713 Z M74.437,43.353 C73.927,44.313 73.395,45.258 72.854,46.195 C74.737,48.963 77.144,51.303 79.349,53.815 C80.362,54.865 81.284,56.103 82.656,56.71 C83.218,56.492 84.336,56.058 84.899,55.833 C85.042,55.998 85.326,56.328 85.469,56.493 C82.769,58.549 80.737,61.691 77.422,62.801 C77.932,61.886 78.464,60.979 79.012,60.079 C76.425,56.509 73.372,53.276 70.274,50.157 C69.172,48.828 67.642,50.373 66.367,50.523 C68.392,47.561 71.197,44.928 74.437,43.353 Z M261.352,48.243 C257.565,49.594 254.512,53.216 253.95,57.213 C253.425,60.386 256.912,63.266 259.905,61.908 C263.565,60.31 266.543,56.688 267.038,52.675 C267.488,49.646 264.217,47.043 261.352,48.243 Z M85.987,32.875 C90.622,35.732 95.107,38.83 99.742,41.687 C101.242,42.745 103.102,42.032 104.797,42.167 C102.232,44.327 99.45,46.217 96.577,47.949 C96.885,47.027 97.207,46.111 97.56,45.211 C96.427,44.423 95.295,43.644 94.147,42.878 C92.647,43.943 91.132,44.993 89.625,46.043 C90.037,47.303 90.39,48.585 90.93,49.808 C91.5,49.718 92.655,49.531 93.232,49.44 L93.652,50.145 C91.537,51.645 89.437,53.19 87.135,54.397 C87.615,52.853 88.808,51.405 88.417,49.695 C87.607,44.643 86.227,39.686 85.425,34.63 C85.567,34.188 85.845,33.31 85.987,32.875 Z M236.107,26.058 C238.319,26.838 240.224,28.241 242.137,29.568 C242.932,34.856 243.727,40.136 244.567,45.408 C246.352,42.678 248.497,40.106 249.637,37.023 C249.112,35.868 248.452,34.795 247.897,33.663 C250.574,35.028 253.027,36.775 255.412,38.598 C254.175,38.636 252.937,38.523 251.714,38.628 C248.249,42.611 245.639,47.246 242.631,51.573 C242.226,51.288 241.424,50.725 241.019,50.44 C240.239,44.59 239.421,38.74 238.612,32.89 C236.669,35.98 234.329,38.86 232.882,42.227 C233.317,43.427 234.194,44.394 234.84,45.49 C231.96,44.5 229.53,42.587 227.175,40.727 C228.292,40.689 229.41,40.794 230.535,40.78 C232.087,39.812 232.92,38.05 234,36.625 C235.545,34.18 237.57,31.915 238.17,29.005 C237.442,28.053 236.745,27.078 236.107,26.058 Z M87.615,38.471 C88.11,40.473 88.605,42.469 89.1,44.463 C90.308,43.638 91.515,42.805 92.73,41.981 C91.042,40.781 89.333,39.625 87.615,38.471 Z M212.198,15.078 L213.523431,15.572544 C216.398742,16.6471067 219.283067,17.7649333 221.903,19.383 C220.801,19.495 219.698,19.645 218.603,19.825 C217.238,21.647 216.548,23.86 215.648,25.929 C214.845,28.142 213.728,30.684 214.89,32.972 C216.255,35.514 220.215,36.002 222.037,33.669 C224.137,31.037 225.322,27.789 226.357,24.624 C227.167,22.839 225.045,21.736 224.272,20.387 C227.122,21.212 229.987,22.24 232.402,24.002 C231.322,24.1 230.25,24.22 229.185,24.377 C226.065,28.09 225.945,34.247 221.092,36.422 C216.967,37.629 211.35,35.417 210.18,31.037 C209.827,26.365 213.195,22.532 214.192,18.129 C213.6,17.065 212.835,16.113 212.198,15.078 Z M110.812,31.691 C110.362,34.916 105.929,36.289 103.679,33.979 C101.385,32.058 101.955,27.948 104.685,26.733 C107.79,25.166 111.645,28.353 110.812,31.691 Z M125.317,14.891 C124.477,15.701 123.442,16.331 122.782,17.313 C123.75,21.303 125.19,25.188 126.66,29.021 C127.178,31.083 129.57,30.251 130.942,29.651 C133.56,28.924 132.877,25.758 134.055,23.854 C134.617,25.767 134.933,27.739 135.18,29.719 C130.222,31.286 125.407,33.304 120.36,34.549 C121.14,33.589 122.085,32.779 122.813,31.774 C121.928,27.806 120.39,24.011 119.04,20.179 C118.657,18.243 116.438,18.558 115.005,18.018 C118.365,16.863 121.695,14.846 125.317,14.891 Z M186.952,8.92 C192.164,10.045 197.819,10.39 202.44,13.27 C207.367,16.487 206.07,24.49 201.255,27.153 C197.79,29.155 193.605,28.487 189.9,27.64 C187.583,27.033 185.055,26.882 182.977,25.585 C184.185,25.045 186.344,25.652 186.637,23.92 C187.687,20.298 188.392,16.57 189.149,12.88 C189.9,11.073 187.83,10.151 186.952,8.92 Z M155.7,7.982 C154.912,8.92 153.668,9.535 153.18,10.682 C152.88,15.332 155.625,20.357 153.015,24.684 C150.33,27.976 144.727,28.996 141.21,26.506 C137.708,22.786 139.11,17.064 137.002,12.736 C136.012,12.466 135.014,12.219 134.017,12.001 C137.219,10.359 140.955,10.374 144.457,9.886 C143.602,10.681 142.604,11.326 141.839,12.226 C141.891,15.151 142.506,18.046 143.151,20.896 C143.593,22.764 144.524,24.864 146.511,25.501 C149.038,26.356 152.009,24.571 152.256,21.864 C152.564,18.369 151.829,14.837 150.824,11.499 C150.555,9.791 148.26,10.473 147.165,9.835 C149.67,8.215 152.858,8.463 155.7,7.982 Z M193.785,11.898 C192.81,16.248 191.558,20.561 190.958,24.986 C190.793,27.138 193.793,27.055 195.278,26.958 C199.981,26.201 201.623,20.358 200.761,16.286 C199.988,13.188 196.567,12.19 193.785,11.898 Z M177.833,8.237 C177.968,10.09 178.088,11.942 178.073,13.802 C176.483,12.527 176.033,10.112 174.03,9.347 C171.308,8.11 167.663,8.994 166.245,11.747 C164.7,14.754 164.745,18.602 166.365,21.572 C167.662,23.935 170.977,25.555 173.482,24.19 C174.082,22.495 173.774,20.673 173.73,18.918 C172.672,18.723 171.615,18.521 170.558,18.333 L170.565,17.276 C173.842,17.456 177.217,16.983 180.398,17.958 C179.836,18.258 178.71,18.858 178.148,19.158 C178.043,21.16 178.051,23.17 178.126,25.173 C173.356,26.328 167.753,26.823 163.628,23.62 C159.262,20.403 159.412,13.105 163.68,9.88 C167.67,6.692 173.168,7.068 177.833,8.237 Z" id="Combined-Shape"></path>
        </g>
    </g>
</svg>