<?xml version="1.0" encoding="UTF-8"?>
<svg width="189px" height="32px" viewBox="0 0 189 32" version="1.1" xmlns="http://www.w3.org/2000/svg" xmlns:xlink="http://www.w3.org/1999/xlink">
    <!-- Generator: Sketch 63.1 (92452) - https://sketch.com -->
    <title>zenshome</title>
    <desc>Created with Sketch.</desc>
    <g id="Page-1" stroke="none" stroke-width="1" fill="none" fill-rule="evenodd">
        <g id="zenshome" fill="#FFFFFF" fill-rule="nonzero">
            <path d="M31.9086,-5.94670997e-08 L31.9086,31.9086 L-1.48668001e-07,31.9086 L-1.48668001e-07,-5.94670997e-08 L31.9086,-5.94670997e-08 Z M21.2959,3.05408 C18.7446,1.9974 15.9372,1.72102 13.2288,2.2599 C10.5204,2.79878 8.03265,4.12871 6.08013,6.08151 C4.12761,8.0343 2.79802,10.5223 2.25952,13.2307 C1.72102,15.9392 1.99779,18.7465 3.05483,21.2977 C4.11187,23.8488 5.9017,26.0292 8.19797,27.5631 C10.4942,29.0971 13.1938,29.9156 15.9553,29.9152001 C19.6579,29.9147 23.2086,28.4435 25.8265,25.8252 C28.4445,23.2069 29.9152,19.6559 29.9152,15.9533 C29.9152,13.1919 29.0963,10.4924 27.5621,8.19635 C26.0278,5.90029 23.8472,4.11077 21.2959,3.05408 Z M66.456,8.53275 C67.9171,9.10489 69.177,10.0952 70.0781,11.3797 C70.9148357,12.5725429 71.4077082,13.969824 71.5063561,15.4192586 L71.5221,15.7546 L71.5162,16.8653 C71.5162,16.9976 71.4637,17.1245 71.3701,17.218 C71.2953,17.29288 71.199124,17.341456 71.095908,17.3578912 L71.0174,17.3641 L60.4345,17.3641 C60.943,18.7321 62.1746,19.757 64.1524,19.757 C65.4865,19.7878 66.7917,19.3653 67.8548,18.5586 C67.9414,18.4904 68.0485,18.4534 68.1588,18.4534 C68.233,18.4526 68.3064,18.4682 68.3738,18.4992 C68.4187333,18.5198667 68.4602444,18.5470222 68.4970296,18.5796889 L68.5485,18.6327 L70.4231,20.7762 C70.5031,20.8738 70.543,20.9981 70.5347,21.1241 C70.5264,21.25 70.4705,21.3681 70.3783,21.4543 C68.6324905,22.9751571 66.420105,23.8477603 64.1132848,23.9320815 L63.7666,23.9388001 L63.5483,23.9388001 C61.9793,23.939 60.4449,23.4765 59.1374,22.6092 C57.8298,21.7419 56.807,20.5082 56.197,19.0625 C55.587,17.6169 55.4169,16.0234 55.7079,14.4816 C55.9989,12.9397 56.7381,11.5179 57.8331,10.394 C58.9281,9.27017 60.3301,8.49416 61.8639,8.16309 C63.3977,7.83202 64.995,7.96061 66.456,8.53275 Z M15.9553,7.97568977 C17.0028,7.97544 18.0401,8.18155 19.008,8.58225 C19.9759,8.98295 20.8554,9.57039 21.5962,10.311 C22.337,11.0517 22.9247,11.931 23.3256,12.8988 C23.7266,13.8666 23.9329,14.9038 23.9329,15.9514 L23.9329,15.9533 C23.9329,17.5312 23.465,19.0736 22.5884,20.3855 C21.7118,21.6974 20.4659,22.7199 19.0082,23.3237 C17.5505,23.9275 15.9464,24.0855 14.3989,23.7777 C12.8514,23.4699 11.4299,22.7101 10.3142,21.5944 C9.19853,20.4787 8.43873,19.0572 8.13091,17.5097 C7.82309,15.9622 7.98107,14.3582 8.58488,12.9004 C9.18869,11.4427 10.2112,10.1968 11.5231,9.32017 C12.835,8.44357 14.3774,7.97568977 15.9553,7.97568977 Z M102.209,7.97569 C105.105,7.97569 106.981,8.72201 108,9.3066 C108.063,9.34429 108.117,9.39532 108.158,9.45609 C108.198,9.51685 108.225,9.58585 108.236,9.6582 C108.248,9.73054 108.243,9.80445 108.222,9.87469 C108.208,9.92151 108.187778,9.96595222 108.161333,10.0066152 L108.117,10.0646 L106.046,12.438 C105.999,12.491 105.942,12.5334 105.878,12.5623 C105.814,12.5912 105.744,12.606 105.674,12.6056 L105.676399,12.60469 L105.592375,12.597575 L105.508,12.5744 C104.445,12.1643 103.314,11.9568 102.174,11.9626 C100.886,11.9626 100.235,12.2042 100.18,12.6076 C100.132,12.97 100.57,13.2389 101.437,13.5429 C102.484,13.9073 104.101,14.5347 105.765,15.2109 C107.961,16.1053 108.955,17.5376 108.955,18.9016 C108.954,19.0925 108.941,19.2831 108.918,19.4725 C108.643,21.7641 106.496,23.9290434 101.472,23.9290434 C98.9293,23.9356 96.4411,23.1898 94.321,21.7856 C94.2407,21.6962 94.1961985,21.5803 94.1961985,21.4601 C94.1959746,21.369125 94.2208937,21.2804 94.2674125,21.2034594 L94.321,21.1308 L96.4742,18.66 C96.5484,18.5773 96.6478,18.5213 96.757,18.5009 C96.8663,18.4805 96.9792,18.4967 97.0783,18.5469 C97.8947,18.9834 99.6504,19.7434 101.437,19.7434 C102.359,19.7434 103.224,19.5213 103.357,19.0341 C103.452,18.6892 103.148,18.2897 102.174,17.9487 C101.12,17.5824 99.2295,16.8731 97.7876,16.3216 C95.9149,15.6065 94.5957,14.5231 94.5957,12.7557 C94.5957,9.83857 97.9883,7.97569 102.209,7.97569 Z M51.9794,8.37126 C52.1117,8.37126 52.2386,8.42382 52.3322,8.51737 C52.407,8.59221 52.455624,8.6883812 52.4720816,8.7915988 L52.4783,8.87011 L52.4783,10.0393 C52.478475,10.446525 52.3539297,10.8426484 52.1235556,11.1752154 L52.0183996,11.3137 L45.0735,19.5446 L52.7783,19.5446 C52.8438,19.5446 52.9085,19.5576 52.969,19.5827 C53.0294,19.6077 53.0842,19.6445 53.1304,19.6909 C53.1766,19.7372 53.2131,19.7922 53.238,19.8527 C53.2545333,19.8930333 53.2656889,19.9353222 53.2712015,19.9784111 L53.2752052,20.0435 L53.2752052,23.0346 C53.2752052,23.1666 53.223,23.2932 53.1298,23.3867 C53.05532,23.4615 52.959528,23.510188 52.8566064,23.5269784 L52.7783,23.5335 L39.0172,23.5335 C38.8849,23.5335 38.758,23.4809 38.6645,23.3874 C38.58962,23.31252 38.5410438,23.216328 38.5246085,23.1131088 L38.5183996,23.0346 L38.5183996,21.4874 C38.5181375,21.064775 38.6522422,20.6545531 38.8988746,20.3150176 L39.0114,20.174 L45.8218,12.3718 L39.4147,12.3718 C39.2824,12.3718 39.1555,12.3192 39.062,12.2257 C38.98712,12.15082 38.938544,12.054628 38.9221088,11.9514088 L38.9159,11.8729 L38.9159,8.87011 C38.9159,8.7378 38.9684,8.61092 39.062,8.51737 C39.1368,8.44253 39.232976,8.3939236 39.336192,8.37747464 L39.4147,8.37126 L51.9794,8.37126 Z M85.2618,7.97569 C86.5843,7.97569 87.8527,8.50106 88.7878,9.43621 C89.6606533,10.309054 90.1764382,11.4720738 90.2413302,12.6985053 L90.2483,12.9622 L90.2483,23.0346 C90.2483,23.1 90.2354,23.1648 90.2103,23.2252 C90.1852,23.2856 90.1485,23.3405 90.1021,23.3867 C90.0558,23.4328 90.0007,23.4694 89.9402,23.4943 C89.8998667,23.5108333 89.8576222,23.5219889 89.814563,23.5275015 L89.7495,23.5315052 L86.3589,23.5315052 C86.2269,23.5315052 86.1003,23.4792 86.0068,23.3861 C85.932,23.31162 85.883312,23.215828 85.8665216,23.1129064 L85.86,23.0346 L85.8678,14.5815 C85.8678,13.0265 85.0104,12.1652 83.4516,12.1652 C81.269729,12.1652 79.9711879,14.2529003 79.8896815,15.8004435 L79.8856,15.9533 L79.8856,23.0327 C79.8851,23.1646 79.8323,23.291 79.7388,23.3841 C79.664,23.45866 79.568016,23.507044 79.4650304,23.5234152 L79.3867,23.5296 L75.9961,23.5296 C75.8642,23.5296 75.7376,23.4773 75.6441,23.3841 C75.5693,23.30962 75.520548,23.213828 75.5037832,23.1109576 L75.4973,23.0327 L75.4973,8.87206 C75.4973,8.73975 75.5498,8.61287 75.6434,8.51932 C75.71828,8.44448 75.814408,8.3958736 75.9176016,8.37942464 L75.9961,8.37321 L79.3867,8.37321 C79.519,8.37321 79.6459,8.42577 79.7395,8.51932 C79.8143,8.59416 79.862924,8.6903312 79.8793816,8.7935488 L79.8856,8.87206 L79.8856,10.5693 C80.463,9.78439 81.2128,9.14242 82.0773,8.69277 C82.8457444,8.29309 83.6865642,8.05484802 84.5481379,7.9913041 L84.8721,7.97569 L85.2618,7.97569 Z M137.524,7.64 C138.604,7.64 139.614,7.84 140.554,8.24 C141.494,8.64 142.314,9.19 143.014,9.89 C143.714,10.59 144.264,11.41 144.664,12.35 C145.084,13.29 145.294,14.31 145.294,15.41 C145.294,16.53 145.084,17.58 144.664,18.56 C144.264,19.52 143.714,20.36 143.014,21.08 C142.314,21.78 141.494,22.34 140.554,22.76 C139.614,23.16 138.604,23.36 137.524,23.36 C136.444,23.36 135.434,23.16 134.494,22.76 C133.554,22.34 132.734,21.78 132.034,21.08 C131.334,20.36 130.774,19.52 130.354,18.56 C129.954,17.58 129.754,16.53 129.754,15.41 C129.754,14.31 129.954,13.29 130.354,12.35 C130.774,11.41 131.334,10.59 132.034,9.89 C132.734,9.19 133.554,8.64 134.494,8.24 C135.434,7.84 136.444,7.64 137.524,7.64 Z M182.778,7.64 C183.758,7.64 184.628,7.81 185.388,8.15 C186.148,8.49 186.788,8.97 187.308,9.59 C187.828,10.21 188.218,10.96 188.478,11.84 C188.758,12.72 188.898,13.7 188.898,14.78 C188.898,14.94 188.848,15.07 188.748,15.17 C188.648,15.25 188.518,15.29 188.358,15.29 L176.808,15.29 C176.808,16.37 176.978,17.34 177.318,18.2 C177.658,19.04 178.118,19.76 178.698,20.36 C179.298,20.94 179.978,21.38 180.738,21.68 C181.518,21.98 182.348,22.13 183.228,22.13 C183.748,22.13 184.228,22.08 184.668,21.98 C185.108,21.86 185.508,21.73 185.868,21.59 C186.228,21.43 186.538,21.26 186.798,21.08 C187.078,20.9 187.298,20.74 187.458,20.6 C187.738,20.38 187.968,20.41 188.148,20.69 L188.328,20.93 C188.508,21.17 188.468,21.39 188.208,21.59 C188.028,21.75 187.778,21.93 187.458,22.13 C187.158,22.33 186.798,22.52 186.378,22.7 C185.958,22.88 185.478,23.03 184.938,23.15 C184.418,23.29 183.848,23.36 183.228,23.36 C182.168,23.36 181.168,23.18 180.228,22.82 C179.288,22.44 178.468,21.91 177.768,21.23 C177.068,20.55 176.508,19.73 176.088,18.77 C175.688,17.81 175.488,16.73 175.488,15.53 C175.488,14.27 175.688,13.15 176.088,12.17 C176.488,11.19 177.018,10.37 177.678,9.71 C178.358,9.03 179.138,8.52 180.018,8.18 C180.898,7.82 181.818,7.64 182.778,7.64 Z M114.27,2 C114.61,2 114.78,2.17 114.78,2.51 L114.78,10.64 C114.78,10.82 114.77,10.99 114.75,11.15 C114.75,11.29 114.74,11.41 114.72,11.51 L114.66,11.87 L114.66,11.87 L114.72,11.87 C114.84,11.51 115.06,11.09 115.38,10.61 C115.72,10.13 116.15,9.67 116.67,9.23 C117.21,8.79 117.84,8.42 118.56,8.12 C119.3,7.8 120.14,7.64 121.08,7.64 C122.06,7.64 122.86,7.78 123.48,8.06 C124.12,8.34 124.63,8.74 125.01,9.26 C125.39,9.76 125.65,10.37 125.79,11.09 C125.95,11.81 126.03,12.61 126.03,13.49 L126.03,22.49 C126.03,22.83 125.86,23 125.52,23 L125.28,23 C124.94,23 124.77,22.83 124.77,22.49 L124.77,13.94 C124.77,13.28 124.73,12.65 124.65,12.05 C124.59,11.43 124.43,10.89 124.17,10.43 C123.93,9.95 123.56,9.57 123.06,9.29 C122.58,9.01 121.92,8.87 121.08,8.87 C120.22,8.87 119.41,9.04 118.65,9.38 C117.89,9.7 117.22,10.16 116.64,10.76 C116.08,11.36 115.63,12.08 115.29,12.92 C114.95,13.74 114.78,14.64 114.78,15.62 L114.78,22.49 C114.78,22.83 114.61,23 114.27,23 L114.03,23 C113.69,23 113.52,22.83 113.52,22.49 L113.52,2.51 C113.52,2.17 113.69,2 114.03,2 L114.27,2 Z M166.693,7.64 C167.653,7.64 168.453,7.78 169.093,8.06 C169.753,8.32 170.273,8.71 170.653,9.23 C171.033,9.73 171.303,10.34 171.463,11.06 C171.623,11.78 171.703,12.59 171.703,13.49 L171.703,22.49 C171.703,22.83 171.533,23 171.193,23 L170.953,23 C170.613,23 170.443,22.83 170.443,22.49 L170.443,13.94 C170.443,13.24 170.393,12.58 170.293,11.96 C170.213,11.34 170.033,10.8 169.753,10.34 C169.493,9.86 169.113,9.49 168.613,9.23 C168.133,8.95 167.493,8.81 166.693,8.81 C165.893,8.81 165.153,9.01 164.473,9.41 C163.793,9.79 163.203,10.3 162.703,10.94 C162.203,11.56 161.813,12.27 161.533,13.07 C161.253,13.87 161.113,14.69 161.113,15.53 L161.113,22.49 C161.113,22.83 160.943,23 160.603,23 L160.363,23 C160.023,23 159.853,22.83 159.853,22.49 L159.853,13.94 C159.853,13.3 159.813,12.67 159.733,12.05 C159.673,11.43 159.513,10.88 159.253,10.4 C159.013,9.92 158.643,9.54 158.143,9.26 C157.663,8.96 157.013,8.81 156.193,8.81 C155.373,8.81 154.613,9.01 153.913,9.41 C153.233,9.79 152.633,10.3 152.113,10.94 C151.613,11.56 151.213,12.28 150.913,13.1 C150.633,13.9 150.493,14.71 150.493,15.53 L150.493,22.49 C150.493,22.83 150.323,23 149.983,23 L149.743,23 C149.403,23 149.233,22.83 149.233,22.49 L149.233,8.51 C149.233,8.17 149.403,8 149.743,8 L149.983,8 C150.323,8 150.493,8.17 150.493,8.51 L150.493,10.64 C150.493,10.82 150.483,10.99 150.463,11.15 C150.463,11.29 150.453,11.41 150.433,11.51 L150.373,11.87 L150.373,11.87 L150.433,11.87 C150.613,11.31 150.903,10.78 151.303,10.28 C151.723,9.76 152.193,9.31 152.713,8.93 C153.233,8.53 153.793,8.22 154.393,8 C155.013,7.76 155.613,7.64 156.193,7.64 C157.693,7.64 158.813,7.99 159.553,8.69 C160.313,9.37 160.773,10.38 160.933,11.72 L160.993,11.72 C161.193,11.2 161.483,10.7 161.863,10.22 C162.243,9.72 162.683,9.28 163.183,8.9 C163.683,8.52 164.233,8.22 164.833,8 C165.433,7.76 166.053,7.64 166.693,7.64 Z M137.524,8.87 C136.624,8.87 135.784,9.04 135.004,9.38 C134.224,9.7 133.544,10.16 132.964,10.76 C132.384,11.34 131.924,12.03 131.584,12.83 C131.244,13.63 131.074,14.49 131.074,15.41 C131.074,16.37 131.244,17.26 131.584,18.08 C131.924,18.9 132.384,19.61 132.964,20.21 C133.544,20.81 134.224,21.28 135.004,21.62 C135.784,21.96 136.624,22.13 137.524,22.13 C138.424,22.13 139.264,21.96 140.044,21.62 C140.824,21.28 141.504,20.81 142.084,20.21 C142.664,19.61 143.124,18.9 143.464,18.08 C143.804,17.26 143.974,16.37 143.974,15.41 C143.974,14.49 143.804,13.63 143.464,12.83 C143.124,12.03 142.664,11.34 142.084,10.76 C141.504,10.16 140.824,9.7 140.044,9.38 C139.264,9.04 138.424,8.87 137.524,8.87 Z M182.748,8.81 C182.048,8.81 181.378,8.92 180.738,9.14 C180.098,9.36 179.508,9.7 178.968,10.16 C178.448,10.6 178.008,11.15 177.648,11.81 C177.288,12.47 177.038,13.24 176.898,14.12 L187.578,14.12 C187.538,13.2 187.378,12.41 187.098,11.75 C186.838,11.09 186.488,10.54 186.048,10.1 C185.608,9.66 185.098,9.34 184.518,9.14 C183.958,8.92 183.368,8.81 182.748,8.81 Z M63.5464,11.9665 C62.8999,11.9635 62.2669,12.1509 61.7263,12.5054 C61.2457667,12.8205111 60.8572037,13.2552469 60.5977645,13.76522 L60.5066,13.9599 L66.6642,13.9599 C66.2491,12.7829 65.2768,11.9665 63.5464,11.9665 Z" id="Combined-Shape"></path>
        </g>
    </g>
</svg>