<?xml version="1.0" encoding="UTF-8"?>
<svg width="400px" height="281px" viewBox="0 0 400 281" version="1.1" xmlns="http://www.w3.org/2000/svg" xmlns:xlink="http://www.w3.org/1999/xlink">
    <!-- Generator: Sketch 52.5 (67469) - http://www.bohemiancoding.com/sketch -->
    <title>Combined Shape</title>
    <desc>Created with Sketch.</desc>
    <g id="Page-1" stroke="none" stroke-width="1" fill="none" fill-rule="evenodd">
        <g id="activision-blizzard" transform="translate(-1.000000, -1.000000)" fill="#FFFFFF">
            <g id="blizzard" transform="translate(0.898816, 0.453309)">
                <path d="M335.527353,96.1579982 C339.339506,96.6713342 343.136948,97.3199952 346.90618,98.1128311 C350.943395,100.652344 355.303014,102.618616 359.40839,105.046873 C360.035099,105.210441 361.288529,105.537534 361.91525,105.701083 C363.873779,106.308249 365.85714,106.881694 367.831125,107.472905 C370.841629,108.41505 373.966328,108.902023 377.108215,109.192207 C379.378608,109.50174 381.655118,109.785414 383.939682,110.061911 C388.111248,113.942943 392.493668,117.867901 394.851369,123.187682 C399.753514,131.017653 395.862743,140.556378 398.47893,148.997431 C399.708839,157.179516 401.770817,166.463156 397.67793,174.128953 C397.626463,180.335887 398.104554,187.123641 393.289031,191.866579 C389.300207,206.852319 393.223683,222.491283 390.341064,237.613394 C389.891423,246.040216 389.157297,254.577639 386.183561,262.553594 C384.495405,266.648837 381.421572,270.613155 376.880101,271.607714 C371.984758,273.032286 367.018658,275.063471 361.821692,274.308024 C357.857771,274.093444 354.085305,275.627224 350.359378,276.740533 C354.501365,270.66747 354.997761,263.345207 353.765388,256.285181 C355.796189,255.293867 357.823072,254.280366 359.838319,253.244593 C356.940196,248.510609 353.671374,243.486504 353.792925,237.717541 C353.788958,229.465972 356.121118,221.356411 355.306656,213.06507 C352.002485,206.985444 349.600061,200.416851 348.746151,193.52727 C347.516784,188.145543 347.926437,182.598576 347.545137,177.134674 C346.273738,170.86155 347.208033,164.36167 346.053437,158.033233 C346.312657,144.60096 344.834057,130.741678 349.074542,117.749907 C349.244903,115.169453 349.368677,112.586773 349.492957,110.004598 C344.581821,105.65585 339.645721,101.289588 335.527353,96.1579982 Z M362.350901,137.318758 C360.519716,146.133334 363.135038,155.034929 362.890867,163.91186 C362.636238,171.615278 366.522527,178.698261 366.503933,186.361198 C366.553296,207.7082 366.252033,229.062172 366.637395,250.40665 C373.320412,242.896334 373.396266,232.549841 377.2989,223.732994 C379.683549,209.732245 374.836295,194.319917 381.872439,181.202633 C382.702129,177.975218 383.77598,174.81017 385.254026,171.817479 C385.722513,165.519715 385.754352,159.018934 383.280497,153.091652 C381.834759,146.827891 376.510508,142.820533 372.183761,138.530938 C368.900011,138.136441 365.624026,137.729757 362.350901,137.318758 Z M68.509186,98.6469376 C69.892363,99.5146247 71.2681132,100.395904 72.636456,101.29078 C75.9977352,101.358707 79.3609158,101.405106 82.7247864,101.440389 C87.9618766,103.724629 92.1554677,107.556077 95.5328624,112.105717 C95.7513608,117.615703 95.1433898,123.087362 94.4071791,128.532151 C95.0865134,129.407719 96.4451614,131.158891 97.1244956,132.034484 C96.8650776,134.568543 96.4954128,137.097002 95.776808,139.548478 C95.0982298,149.682205 95.6189468,159.846846 95.4512731,169.994695 C96.4512828,170.985576 97.453813,171.976698 98.4588431,172.968012 C99.7195088,183.775059 99.0474402,194.754113 97.6369146,205.50729 C95.9322148,211.961833 98.4087287,218.407337 98.5303914,224.884693 C97.5035595,226.631875 95.3783714,228.192085 96.0293245,230.473824 C96.6146909,234.535486 95.6953786,238.57115 94.9552004,242.545323 C94.0748823,248.79549 92.0593905,255.281115 93.9742869,261.526354 C99.9189566,262.549615 106.557196,263.123512 110.92731,258.029503 C116.281728,259.931072 121.944463,260.388742 127.589256,260.115532 C129.169045,259.135901 130.753306,258.162928 132.341989,257.196591 C148.134596,255.459012 164.022815,256.982239 179.853955,256.400362 C181.143022,264.131869 178.408565,272.618775 182.545672,279.709895 C174.169956,279.524089 165.483842,280.515727 157.58219,277.065414 C156.958246,276.786639 155.710333,276.229065 155.086352,275.950302 C149.691284,274.795646 144.151312,275.142005 138.682361,274.808026 C126.683988,271.519889 114.085518,273.994982 101.878717,272.732297 C97.6307475,271.489288 93.3254432,270.413575 88.8658991,270.390558 C85.8032172,272.999606 82.6518162,275.501718 79.5747604,278.09454 C74.7071067,278.110009 69.8402318,278.117377 64.9738845,278.109745 C65.6760073,276.833682 66.3824162,275.562331 67.0931123,274.295644 C70.0348419,272.490938 72.8696504,270.522493 75.7333652,268.599505 C77.7893656,259.072571 74.3428529,249.306718 77.8760222,239.986984 C78.3599903,238.221521 78.8271783,236.453365 79.277585,234.682518 C78.1555917,233.598655 77.0355936,232.516007 75.9175666,231.434585 C75.9041327,225.844348 75.7891647,220.245169 76.2477097,214.669391 C78.0861299,209.545478 76.763589,203.928678 78.6260357,198.813047 C78.9442557,193.404709 78.6397449,187.921312 79.9066679,182.610799 C80.7536073,179.852123 79.5136664,177.128003 79.2031713,174.395661 C78.0778991,167.058603 80.2669336,159.397409 77.74175,152.25457 C77.4917539,148.845327 77.4108065,145.428295 77.3432918,142.013186 C78.130076,141.337198 79.7036214,139.985198 80.4903839,139.309198 C80.7915701,134.956405 80.7773129,130.56342 79.6854651,126.310862 C82.6999125,120.919326 81.3435818,114.903316 78.2355776,109.885457 C77.4899438,109.853913 75.9987208,109.790824 75.253087,109.759279 C73.0937401,107.375863 70.8567475,105.063815 68.4932304,102.883605 C68.4972196,101.824449 68.5051968,99.7061158 68.509186,98.6469376 Z M294.889955,100.12532 C304.186059,99.6606108 312.768579,103.63708 321.72348,105.385955 C330.746998,107.907332 334.11403,117.397779 337.350761,125.166494 C339.507175,130.088395 337.845991,135.506383 336.394375,140.368252 C336.264194,143.414405 336.055167,146.45682 335.82495,149.498045 C332.526584,156.409273 327.979981,164.185347 319.318699,164.472139 C319.313976,166.2933 319.314024,168.115854 319.318807,169.939839 C321.108297,169.930224 322.902174,169.922087 324.700354,169.915488 C326.758534,172.10766 328.832075,174.289242 330.91873,176.461642 C335.437677,182.875308 336.121537,190.737596 336.150384,198.344968 C336.068544,204.88992 341.404622,209.850155 341.738505,216.309097 C342.809855,221.405089 341.005918,226.980494 343.460975,231.754129 C346.102704,236.771191 344.878853,242.638076 345.050537,248.0633 C345.278134,257.279211 342.237978,266.123583 341.345475,275.235768 C333.142897,272.700145 328.334706,263.223885 318.922892,264.18271 C320.576324,258.812354 322.933628,253.664294 324.245352,248.192423 C325.969373,238.509431 325.586018,228.528276 323.43369,218.944876 C322.278458,213.202679 320.315686,207.693464 317.771121,202.429346 C317.198499,198.489716 317.839247,194.455939 317.825124,190.482968 C315.254586,186.153048 312.604239,181.838982 309.167748,178.130987 C307.780856,183.30091 304.818057,188.267575 305.411016,193.787163 C305.850044,205.80133 308.790007,217.663813 308.372733,229.699591 C309.86477,237.784452 307.798549,245.937126 308.778708,254.055029 C309.612882,261.670441 308.287937,269.267356 306.798509,276.714091 C304.003246,266.610015 295.86782,259.588366 287.323221,254.243888 C288.544872,244.98913 293.546597,236.827381 295.055893,227.67159 C294.355651,226.951383 292.955153,225.510909 292.25491,224.79069 C291.703814,210.020648 293.373904,195.18337 292.029765,180.471693 C288.673863,169.022588 288.548321,157.00764 286.573278,145.315049 C284.027151,139.910739 283.331559,134.047712 283.633964,128.123308 C288.703466,123.558585 294.242273,119.519553 298.932098,114.536357 C295.650343,113.259047 292.147373,112.390994 288.862385,114.214559 C286.472845,107.883994 280.702355,104.167998 275.221409,100.763415 C281.781866,100.987622 288.366963,100.978473 294.889955,100.12532 Z M305.932652,118.061342 C305.665127,133.026699 305.802243,147.998232 305.855428,162.965859 C309.255681,162.176373 313.235636,161.626768 315.367915,158.492237 C318.836005,153.277711 319.066715,146.781906 321.037684,140.982341 C320.833789,137.205825 321.266915,133.04635 318.714562,129.904295 C315.132338,125.321697 311.57337,120.244553 305.932652,118.061342 Z M256.491425,102.482076 C256.104176,98.8461319 260.495454,101.296671 261.96963,102.323915 C262.013693,110.761993 269.804178,116.723831 268.547166,125.37965 C273.839109,139.767048 277.337235,154.670877 281.230783,169.472254 C282.421292,175.458814 281.251155,181.669522 282.726209,187.637873 C285.289788,199.641139 284.899149,211.944898 284.72481,224.138032 C284.348606,234.864525 275.998071,243.667587 276.419923,254.52086 C275.50861,257.450486 274.620963,260.387925 273.778459,263.340075 C273.453831,263.895894 272.804586,265.007533 272.479957,265.56334 C272.35557,270.791208 271.217464,275.925746 269.794442,280.938842 C269.055918,280.516484 267.578857,279.67177 266.840333,279.249412 C267.717391,270.119523 263.144718,261.884997 262.32653,252.952152 C260.513687,249.255552 257.538412,246.288654 255.178139,242.946526 C260.232628,235.427412 264.465961,227.234942 265.648478,218.134644 C259.130978,212.887125 251.699965,208.942327 244.222461,205.263167 C244.404553,209.534721 244.621333,213.808811 244.550179,218.08831 C246.375967,219.773737 248.215505,221.449897 250.049213,223.135179 C248.873236,224.201169 247.701428,225.269863 246.533756,226.341285 C243.359177,226.084024 240.183324,225.90442 237.011906,225.699408 C231.528472,227.67641 226.021301,229.589927 220.623023,231.789658 C220.031675,230.028378 219.436408,228.271352 218.837163,226.518629 C220.748192,224.388057 222.693512,222.288782 224.66275,220.210806 C224.643831,218.623252 224.627666,217.037705 224.614264,215.454081 C226.481879,214.070026 228.359554,212.696884 230.24634,211.334835 C229.683586,210.475361 229.12499,209.61769 228.570577,208.761857 C229.254245,200.429447 229.957493,192.073755 232.609293,184.081178 C232.224028,183.538615 231.453496,182.453527 231.068254,181.910989 C231.245202,179.255703 231.340755,176.595886 231.418243,173.93834 C233.724454,169.563312 235.470867,164.91672 236.340257,160.036582 C236.745703,159.524957 237.556643,158.501732 237.962102,157.990108 C238.067439,150.668663 239.579956,143.250883 244.06216,137.289623 C243.974924,136.552096 243.80044,135.077091 243.713217,134.339564 C246.165978,126.760443 252.187671,120.362937 252.019545,112.077862 C255.081924,109.665354 256.939876,106.474249 256.491425,102.482076 Z M254.843149,159.317541 C254.753666,164.04221 252.488273,168.197742 250.058036,172.099775 C248.437681,179.515884 247.848857,187.08352 248.786312,194.640291 C255.234942,194.154039 260.896994,197.159795 266.032289,200.694316 C267.584158,189.291353 267.068639,177.603918 263.881416,166.515921 C260.119731,165.154257 256.875044,162.803551 254.843149,159.317541 Z M2.28087005,103.979142 C9.83718392,104.004682 17.2489349,102.163648 24.8063966,102.284806 C32.7083271,102.350577 40.6130557,102.227263 48.5130379,102.476757 C50.8267628,105.059573 53.9360026,106.529497 57.1140888,107.753413 C61.576866,109.495481 63.095987,114.460979 65.3234447,118.251184 C65.38188,121.570051 65.4717686,124.890065 65.7131913,128.202651 C68.0599716,132.283295 66.4069679,136.688275 64.2168805,140.38407 C60.6158985,147.152051 56.9840595,154.082209 51.2513088,159.332276 C52.8748304,162.539908 56.4491729,163.303938 59.5550232,164.404603 C59.1228654,166.491101 58.5262202,168.55106 58.2753983,170.673183 C60.0880288,172.724573 62.3288039,174.445986 63.6883221,176.867593 C63.3715457,183.932643 61.5417217,191.753562 66.7891268,197.615242 C66.0644246,207.587346 69.4139658,218.050726 65.202996,227.539246 C65.4133092,233.595218 66.3205421,240.116011 63.0598126,245.59257 C60.109875,250.611458 57.231969,255.903846 57.7466344,261.957366 C51.5223507,265.895132 44.9195752,269.422032 39.9512804,275.005539 C38.243327,275.073928 36.5361525,275.14495 34.8297784,275.218592 C33.1527734,276.072069 31.4702877,276.91956 29.7883079,277.76633 C29.2147253,276.961099 28.0676069,275.350624 27.4940243,274.545369 C25.9964755,275.693053 24.5118787,276.859884 23.0319369,278.033927 C15.9139011,277.652628 8.33965881,279.516024 1.57592755,276.655352 C8.62087836,273.683647 8.68112498,265.284577 9.68943397,258.795791 C9.85591439,247.764477 10.4506327,236.634977 8.72534689,225.690033 C7.66924168,215.531642 8.70001471,205.314477 8.55407523,195.131783 C9.54275976,194.242657 10.5330022,193.356524 11.5248273,192.473336 C10.8604859,185.356927 9.06828229,178.275363 10.0924763,171.091839 C12.7651816,165.873707 9.58496388,160.355008 9.80777119,154.930601 C9.86302079,144.785432 9.58627097,134.627714 10.0909859,124.490987 C10.7466629,122.160231 11.2815475,119.799764 11.8014629,117.437049 C10.7252746,117.413804 8.57291989,117.367267 7.49673059,117.343998 C5.34164754,115.152808 3.17638717,112.972852 1.00172616,110.802318 C0.776603699,109.882385 0.326334614,108.042475 0.101187993,107.12252 C0.646114878,106.336676 1.73594317,104.764987 2.28087005,103.979142 Z M33.9548942,121.180396 C33.7916232,121.827706 33.4651027,123.122322 33.3018545,123.769631 C31.2886536,133.512157 32.8146989,143.544442 32.3586539,153.412459 C33.4463046,153.410764 35.621607,153.407351 36.7092589,153.405656 C38.747996,149.365148 41.6547651,145.800916 45.9384527,144.033242 C45.8159186,138.594832 47.5733914,133.130389 46.1535797,127.755318 C46.6445863,127.225016 47.6265767,126.164417 48.1175605,125.634116 C46.0127523,124.534087 43.9327482,123.391782 41.8814246,122.199433 C39.2361829,121.874907 36.5920661,121.555081 33.9548942,121.180396 Z M32.3564063,170.928882 C32.4035856,179.151352 32.1016878,187.371706 32.2666788,195.594345 C32.3426058,198.858191 31.1121313,201.922685 30.0765662,204.956963 C32.9750588,221.954502 28.5697782,238.960754 29.2638312,256.011178 C28.6803916,257.381495 27.5134883,260.122118 26.9300258,261.492436 C32.3726384,259.025744 37.894708,256.050168 41.5234052,251.142278 C45.3905,246.692646 43.9385944,240.422406 45.2388516,235.095728 C45.5568215,234.081842 46.1927818,232.054082 46.5107505,231.040233 C46.5264777,230.982913 46.5579081,230.868309 46.5736341,230.811013 C48.5111365,224.557564 46.6995841,218.12313 45.9226582,211.855234 C48.6371093,208.542421 46.2998411,204.939968 45.0115046,201.681699 C46.9584288,194.833236 46.3662548,187.571551 44.2429681,180.843557 C40.0619852,177.80839 36.0873732,174.501743 32.3564063,170.928882 Z M193.122345,101.663838 C207.171556,101.525715 221.218951,101.905535 235.268354,101.746826 C238.457188,101.59018 241.560925,102.360253 244.563496,103.367391 C242.715244,107.506812 240.819372,111.642243 238.331334,115.445009 C238.265204,117.33313 238.211862,119.221987 238.165696,121.112102 C236.670643,122.821203 235.184579,124.534407 233.693168,126.243096 C233.6861,128.069068 233.682314,129.895882 233.681797,131.723605 C232.996218,132.397093 231.625035,133.744045 230.939432,134.417533 C230.383925,138.429243 229.538261,142.391289 228.692789,146.349945 C224.961633,153.940874 227.737677,162.730835 225.141502,170.623916 C224.076966,176.021268 220.02998,180.678425 220.590463,186.361522 C219.0097,189.027554 217.127157,191.541806 215.956732,194.430254 C214.809721,201.29445 216.896207,208.514549 214.524576,215.201713 C211.060897,223.767357 213.158525,233.786637 207.141532,241.470091 C206.145458,244.9927 204.848626,248.419912 203.395748,251.779624 C207.437049,251.578734 211.524601,251.482976 215.486815,250.582119 C217.379406,248.19949 218.140983,244.535679 221.443808,243.648452 C227.502448,241.132157 233.669454,238.515164 238.497729,233.927947 C241.984965,234.576411 246.148538,233.803536 248.827719,236.616407 C248.56398,238.391113 248.136935,240.129761 247.54656,241.832303 C248.57303,248.145392 249.341266,254.603889 248.485337,260.985186 C248.015264,261.452929 247.075068,262.388425 246.60497,262.856155 C239.488321,263.350351 232.215338,263.61165 225.181586,262.209818 C222.86695,261.649203 220.55223,261.118937 218.24263,260.565774 C216.610917,261.910983 214.972125,263.247575 213.342576,264.593229 C206.349702,264.161508 199.268618,264.427723 192.907561,267.664778 C190.25308,263.867024 191.639215,258.63799 192.675733,254.457049 C192.872092,253.035073 193.062489,251.614359 193.246913,250.194991 C193.896615,249.521983 195.195959,248.175921 195.845649,247.502913 C197.073201,238.572941 200.113946,229.80518 199.006345,220.677562 C194.89371,215.629587 196.140722,208.925836 196.101491,202.927256 C196.18803,193.44251 201.32169,185.110941 204.178636,176.314695 C205.665228,172.466688 204.597448,168.219545 205.888642,164.313208 C207.064151,158.45547 210.894622,153.439815 211.267664,147.397136 C212.090011,136.699994 221.809819,129.528008 222.977167,118.932054 C222.2494,118.641985 220.793865,118.06187 220.06611,117.771824 C216.661663,118.086423 213.338622,117.488424 210.577842,115.367982 C207.647086,115.857269 203.920366,115.807637 202.527813,119.00773 C199.646708,124.960973 199.451539,131.764795 197.492878,138.028784 C195.400563,138.696503 193.318344,139.389619 191.241497,140.088636 C191.304947,137.196149 191.323084,134.30472 191.286509,131.413496 C194.931174,121.944576 192.371165,111.542633 193.122345,101.663838 Z M99.4902832,104.057248 C109.539662,103.601316 119.603144,103.922816 129.659588,103.83013 C130.203063,104.988115 130.74946,106.146308 131.298764,107.304682 C127.561587,109.012475 124.1153,111.388533 122.373119,115.249827 C124.981241,121.255612 121.623284,127.631797 122.440763,133.881966 C123.171415,147.227196 120.929928,160.851909 124.23357,173.958147 C123.566068,174.758547 122.231075,176.359394 121.563596,177.159794 C121.784246,183.290129 122.471677,189.386101 122.969803,195.4967 C123.470322,198.522264 120.998102,200.776936 119.7274,203.259205 C120.991106,208.694249 122.091627,214.189353 124.057728,219.430827 C123.473243,225.831704 119.442855,232.122268 122.373647,238.499094 C125.467757,240.264377 128.486723,242.158531 131.530208,244.014343 C131.529967,245.046414 131.529438,247.110496 131.529186,248.142567 C124.193498,247.590582 116.841556,247.671231 109.507384,248.177735 C107.705941,249.389158 105.891684,250.581134 104.052094,251.73383 C103.477894,247.154018 107.634141,244.654033 110.372983,241.826943 C110.053594,232.431295 113.155225,223.104254 111.428792,213.794821 C115.243,202.554611 112.756308,190.559218 112.811075,178.968575 C112.975882,167.799603 112.380797,156.608264 113.259212,145.460074 C111.055413,134.358711 112.284489,122.901005 110.412231,111.721126 C106.570468,109.465175 102.822102,107.0305 99.4902832,104.057248 Z M139.018144,120.494963 C139.009153,114.660587 138.313886,108.558608 140.886336,103.106069 C154.720317,102.997749 168.532651,103.81555 182.367895,103.701246 C182.563232,110.302578 184.311135,116.756385 184.162565,123.37805 C183.996314,131.013819 185.347653,139.22183 180.938947,146.004607 C181.294802,146.761425 182.006475,148.275072 182.36233,149.031914 C177.194366,156.285546 173.66118,164.913282 173.299039,173.879001 C170.80748,175.62462 168.133972,177.234097 166.205624,179.637519 C165.165872,181.780244 165.838831,184.265193 165.695285,186.554372 C159.344937,194.236792 155.045727,203.583016 153.302127,213.394302 C152.317195,218.471208 150.388799,223.301045 148.359068,228.03777 C148.188742,228.652604 147.848104,229.88226 147.677791,230.497094 C146.478832,233.491371 145.411473,236.536996 144.471301,239.624146 C150.486299,237.963936 156.486537,236.08828 162.259287,233.730916 C166.207703,229.055249 169.111307,223.245252 174.89848,220.45065 C175.645334,218.968818 176.388834,217.486108 177.128993,216.002521 C178.001136,216.167714 179.745433,216.4981 180.617588,216.663281 C182.178675,213.465312 183.595327,209.975323 186.759257,208.007648 C187.117023,210.797093 187.427841,213.598041 187.768203,216.394469 C181.758517,224.582829 184.74175,235.043937 184.126507,244.421015 C176.930002,248.050103 168.706859,246.936986 161.082732,245.61656 C158.279609,245.215345 155.980862,248.130223 153.142991,247.521411 C148.097576,246.639677 142.970514,246.615614 137.886745,246.145336 C138.355076,241.871054 139.050656,237.619668 139.217916,233.316815 C139.766716,232.57251 140.864328,231.083862 141.413129,230.339557 C140.552849,228.108118 139.687473,225.883723 138.82515,223.659316 C136.227484,214.053595 138.956677,204.362009 141.928215,195.196567 C143.181717,191.699643 145.414273,188.688045 147.484665,185.645534 C148.601184,181.123931 150.997395,177.10757 153.931372,173.536187 C154.053812,172.168826 154.178596,170.802871 154.305736,169.438323 C155.770754,164.935037 157.204954,160.415754 159.034828,156.043622 C162.371487,152.96432 165.43633,149.510882 167.776206,145.610134 C168.006808,142.798646 167.705545,139.977734 167.632828,137.166942 C171.616281,132.688164 175.271246,127.931839 178.853146,123.129224 C178.72704,119.701897 178.653638,116.273769 178.590597,112.845962 C172.685672,112.844838 166.782525,112.860359 160.879847,112.826133 C156.650841,115.40464 152.865587,118.779673 151.863455,123.862341 C150.056297,125.183872 148.256543,126.51244 146.467642,127.854903 C146.398483,134.023409 147.779919,140.710369 144.093295,146.194428 C140.521539,139.240556 139.706992,131.350707 142.281113,123.924215 C141.191746,122.780121 140.104097,121.637038 139.018144,120.494963 Z M137.78641,28.846935 L153.747672,28.846935 L153.747672,89.7283 L137.78641,89.7283 L137.78641,28.846935 Z M371.316692,63.7718759 L371.316692,89.4958537 L355.258575,89.4377453 L355.258575,26.9680011 L384.178682,51.859042 L384.178682,28.846935 L400.101196,28.846935 L400.101196,91.9752682 L371.316692,63.7718759 Z M57.5152294,59.1229652 C57.5152294,41.8445145 71.5394384,27.8203004 88.8178892,27.8203004 C96.6048083,27.8203004 103.733136,30.6871292 109.214991,35.3941508 L98.8711628,47.1326505 C96.1592894,44.8469363 92.6532467,43.4716335 88.8178892,43.4716335 C80.1786733,43.4716335 73.1665625,50.4837405 73.1665625,59.1229652 C73.1665625,67.7621912 80.1786733,74.7743008 88.8178892,74.7743008 C92.7113551,74.7743008 96.2755189,73.3408833 99.026127,70.9776882 L109.350582,82.7355629 C103.868739,87.5200666 96.6822904,90.4062652 88.8178892,90.4062652 C71.5394384,90.4062652 57.5152294,76.4014147 57.5152294,59.1229652 Z M184.139926,103.655653 L153.941383,23.4232047 L128.701669,23.4232047 L128.701669,89.9607463 L112.178672,89.9607463 L112.178672,23.4232047 L75.6072422,23.4232047 L84.0915002,7.44257463 L165.737985,7.44257463 L184.139926,55.5200591 L202.561228,7.44257463 L281.612088,7.44257463 L290.328793,23.4232047 L214.357843,23.4232047 L184.139926,103.655653 Z M235.161716,89.4958537 L235.161716,76.0527478 L246.125402,76.0527478 C247.907477,76.0527478 251.297316,75.917156 252.149619,73.0890684 C253.912321,67.2004492 235.859055,57.6508104 235.859055,43.0067434 C235.859055,31.9268377 243.878433,28.61449 249.321529,28.61449 L265.941382,28.61449 L265.941382,41.8251433 L255.675035,41.8251433 C255.675035,41.8251433 252.730728,41.8251433 251.917173,43.0067434 C247.461958,49.3796238 268.420809,58.696815 268.420809,75.8203003 C268.420809,84.7694711 260.750106,89.4958537 253.098765,89.4958537 L235.161716,89.4958537 Z M214.590289,28.61449 L230.570924,28.61449 L230.570924,89.4958537 L214.590289,89.4958537 L214.590289,28.61449 Z M271.016453,28.61449 L286.997075,28.61449 L286.997075,89.4958537 L271.016453,89.4958537 L271.016453,28.61449 Z M45.3893217,89.7283 L41.1471901,78.3965781 L21.3312077,78.3965781 L17.0890736,89.7283 L0.101183868,89.7283 L31.2488832,0.546690751 L62.3965889,89.7283 L45.3893217,89.7283 Z M26.1738236,62.125387 L35.6072366,62.125387 L30.8808452,46.5515361 L26.1738236,62.125387 Z M289.902635,59.1035941 C289.902635,41.8057734 303.94623,27.7621895 321.263422,27.7621895 C338.56124,27.7621895 352.604835,41.8057734 352.604835,59.1035941 C352.604835,76.4207871 338.56124,90.4643736 321.263422,90.4643736 C303.94623,90.4643736 289.902635,76.4207871 289.902635,59.1035941 Z M305.689571,59.1035941 C305.689571,67.7040803 312.662934,74.677445 321.263422,74.677445 C329.844548,74.677445 336.817899,67.7040803 336.817899,59.1035941 C336.817899,50.5224815 329.844548,43.5491156 321.263422,43.5491156 C312.662934,43.5491156 305.689571,50.5224815 305.689571,59.1035941 Z" id="Combined-Shape"></path>
            </g>
        </g>
    </g>
</svg>