<?xml version="1.0" encoding="UTF-8"?>
<svg width="603px" height="183px" viewBox="0 0 603 183" version="1.1" xmlns="http://www.w3.org/2000/svg" xmlns:xlink="http://www.w3.org/1999/xlink">
    <!-- Generator: Sketch 63.1 (92452) - https://sketch.com -->
    <title>amazon</title>
    <desc>Created with Sketch.</desc>
    <g id="Page-1" stroke="none" stroke-width="1" fill="none" fill-rule="evenodd">
        <g id="amazon" fill="#FFFFFF" fill-rule="nonzero">
            <path d="M90.279362,117.178364 C135.293672,143.369004 190.952052,159.125334 248.445592,159.125334 C287.220281,159.125334 329.875091,151.102964 369.095491,134.455274 C375.020501,131.938444 379.975481,138.335364 374.181561,142.634924 C339.182081,168.432314 288.452471,182.196154 244.775222,182.196154 C183.532672,182.196154 128.398662,159.544804 86.687652,121.871194 C83.410552,118.908674 86.346822,114.871294 90.279362,117.178364 Z M403.675521,114.609114 C407.503161,119.354374 402.679281,152.256524 383.881791,167.960394 C380.997941,170.372344 378.245171,169.087734 379.529811,165.889264 C383.750711,155.350094 393.215001,131.728724 388.731921,125.987234 C384.275041,120.271964 359.159311,123.286904 347.886071,124.623964 C344.451651,125.043434 343.927331,122.054714 347.020901,119.904914 C367.024361,105.826474 399.847861,109.890084 403.675521,114.609114 Z M469.689531,1.614524 C497.348301,1.614524 512.318111,25.366984 512.318111,55.568794 C512.318111,84.748134 495.775271,107.897604 469.689531,107.897604 C442.528871,107.897604 427.742561,84.145144 427.742561,54.546334 C427.742561,24.763994 442.712391,1.614524 469.689531,1.614524 Z M289.710881,0.696934 C298.781921,0.696934 310.631931,3.108884 317.789131,9.977694 C326.860151,18.445734 325.995001,29.745194 325.995001,42.040904 L325.995001,71.089164 C325.995001,79.819384 329.612921,83.647024 333.021111,88.366074 C334.200881,90.043934 334.463051,92.062634 332.942411,93.321044 C329.140971,96.493294 322.377021,102.392084 318.654231,105.695404 L318.628031,105.642904 L318.628071,105.642954 C317.395891,106.744064 315.613131,106.822714 314.223641,106.088654 C308.036461,100.950154 306.909141,98.564424 303.527171,93.661874 C293.302601,104.096174 286.040521,107.215964 272.801021,107.215964 C257.097131,107.215964 244.906302,97.541954 244.906302,78.167724 C244.906302,63.040594 253.085971,52.737374 264.778681,47.703744 C274.898381,43.246864 289.029241,42.460374 299.830591,41.228184 L299.830591,38.816234 C299.830591,34.385574 300.171411,29.142204 297.549731,25.314564 C295.295081,21.880144 290.943071,20.464434 287.089211,20.464434 C279.984431,20.464434 273.666191,24.108574 272.119381,31.659024 C271.804781,33.336914 270.572601,34.988574 268.868491,35.067224 L250.805092,33.127164 C249.284512,32.786364 247.580422,31.554154 248.026112,29.220874 C252.168371,7.303594 271.988311,0.696934 289.710881,0.696934 Z M45.343701,0.696934 C54.414712,0.696934 66.264722,3.108884 73.421922,9.977694 C82.492962,18.445734 81.627792,29.745194 81.627792,42.040904 L81.627792,71.089164 C81.627792,79.819384 85.245732,83.647024 88.653922,88.366074 C89.859892,90.043934 90.122062,92.062634 88.601482,93.321044 C84.800042,96.493294 78.036102,102.392084 74.313292,105.695404 L74.260872,105.642904 L74.260872,105.642954 C73.028682,106.744064 71.245922,106.822714 69.856432,106.088654 C63.669272,100.950154 62.568152,98.564424 59.159962,93.661874 C48.935391,104.096174 41.699561,107.215964 28.433821,107.215964 C12.756141,107.215964 0.539111,97.541954 0.539111,78.167724 C0.539111,63.040594 8.744981,52.737374 20.411471,47.703744 C30.531171,43.246864 44.662051,42.460374 55.463402,41.228184 L55.463402,38.816234 C55.463402,34.385574 55.804222,29.142204 53.208752,25.314564 C50.927871,21.880144 46.575891,20.464434 42.748221,20.464434 C35.643471,20.464434 29.298981,24.108574 27.752191,31.659024 C27.437581,33.336914 26.205391,34.988574 24.527521,35.067224 L6.437901,33.127164 C4.917321,32.786364 3.239441,31.554154 3.658911,29.220874 C7.827391,7.303594 27.621101,0.696934 45.343701,0.696934 Z M202.382592,1.614524 C210.195212,1.614524 218.741902,4.839194 223.959052,12.075044 C229.857842,20.123614 228.651862,31.816324 228.651862,42.067124 L228.625652,102.444514 C228.625652,104.358344 227.026422,105.905124 225.033942,105.905124 L206.419972,105.905124 C204.558592,105.774054 203.064232,104.279694 203.064232,102.444514 L203.064232,51.741134 C203.064232,47.703744 203.431252,37.636474 202.539892,33.808804 C201.150402,27.385694 196.981922,25.576714 191.581242,25.576714 C187.071942,25.576714 182.352912,28.591654 180.439082,33.415564 C178.585059,38.0887171 178.69935,45.8127356 178.708304,51.2247847 L178.708772,102.444514 C178.708772,104.358344 177.109542,105.905124 175.117062,105.905124 L156.503112,105.905124 C154.615502,105.774054 153.147352,104.279694 153.147352,102.444514 L153.121142,51.741134 C153.121142,41.070884 154.877652,25.366984 141.638162,25.366984 C128.509278,25.366984 128.750277,40.0713131 128.765168,51.0723827 L128.765682,102.444514 C128.765682,104.358344 127.166452,105.905124 125.173972,105.905124 L106.533802,105.905124 C104.751072,105.774054 103.335352,104.436994 103.204262,102.732884 L103.204262,7.067644 C103.204262,5.153814 104.803492,3.633224 106.795972,3.633224 L124.177732,3.633224 C125.986712,3.711824 127.428622,5.101364 127.559722,6.831674 L127.559722,19.337124 L127.900542,19.337124 C132.436052,7.251144 140.956512,1.614524 152.439502,1.614524 C164.105992,1.614524 171.394272,7.251144 176.637642,19.337124 C181.146942,7.251144 191.397722,1.614524 202.382592,1.614524 Z M576.182351,1.614524 C584.545521,1.614524 592.698971,4.629464 597.942341,12.887764 C602.64135,20.2647087 602.812223,32.4862824 602.818437,41.6465815 L602.818671,102.890204 C602.608941,104.568064 601.062141,105.905124 599.226981,105.905124 L580.534361,105.905124 C578.830251,105.774054 577.414541,104.515644 577.231041,102.890204 L577.231041,50.928414 C577.231041,40.467894 578.437011,25.157244 565.564531,25.157244 C561.029031,25.157244 556.860541,28.198414 554.789411,32.812564 C552.167741,38.658934 551.826921,44.479074 551.826921,50.928414 L551.826921,102.444514 C551.800721,104.358344 550.175261,105.905124 548.182781,105.905124 L529.621241,105.905124 C527.759831,105.774054 526.265471,104.279694 526.265471,102.444514 L526.239271,6.753024 C526.396571,4.996494 527.943371,3.633224 529.830981,3.633224 L547.107891,3.633224 C548.733321,3.711824 550.070381,4.812984 550.437431,6.307344 L550.437431,20.936334 L550.778231,20.936334 C555.995401,7.854134 563.309881,1.614524 576.182351,1.614524 Z M413.401951,3.371054 C415.368231,3.371054 416.941241,4.786764 416.941241,6.831674 L416.941241,18.550604 C416.915041,20.516864 415.263361,23.086114 412.327061,27.149724 L380.578471,72.478654 C392.376061,72.190284 404.829061,73.946794 415.525531,79.976674 C417.937481,81.339944 418.592901,83.332424 418.776421,85.298704 L418.776421,99.901484 C418.776421,101.893964 416.574201,104.227244 414.267121,103.021284 C395.417201,93.137524 370.380121,92.062634 349.537731,103.126154 C347.414171,104.279694 345.185741,101.972614 345.185741,99.980134 L345.185741,86.111424 C345.185741,83.882994 345.211941,80.081534 347.440371,76.699564 L384.222611,23.951274 L352.211851,23.951274 C350.245591,23.951274 348.672581,22.561794 348.672581,20.516864 L348.672581,6.831674 C348.672581,4.760544 350.245591,3.371054 352.133201,3.371054 L413.401951,3.371054 Z M299.830591,56.171784 C286.328921,56.171784 272.093181,59.055634 272.093181,74.943034 C272.093181,82.991604 276.287871,88.444724 283.445071,88.444724 C288.662221,88.444724 293.381251,85.220054 296.343751,79.976674 C299.926721,73.68088 299.837145,67.7598422 299.830849,60.7258632 L299.830591,56.171784 Z M55.463402,56.171784 C41.987931,56.171784 27.752191,59.055634 27.752191,74.943034 C27.752191,82.991604 31.920661,88.444724 39.077861,88.444724 C44.321231,88.444724 49.014041,85.220054 51.976561,79.976674 C55.5595129,73.68088 55.4699554,67.7598422 55.4636596,60.7258632 L55.463402,56.171784 Z M469.846821,21.146084 C456.109211,21.146084 455.243931,39.864894 455.243931,51.531404 L455.24401,52.9957583 C455.252958,65.1808549 455.645681,88.182544 469.689531,88.182544 C484.135011,88.182544 484.816651,68.048024 484.816651,55.778514 C484.816651,47.703744 484.475831,38.055944 482.037651,30.400614 C479.940301,23.741554 475.771841,21.146084 469.846821,21.146084 Z" id="Combined-Shape"></path>
        </g>
    </g>
</svg>