<?xml version="1.0" encoding="UTF-8"?>
<svg width="1000px" height="700px" viewBox="0 0 1000 700" version="1.1" xmlns="http://www.w3.org/2000/svg" xmlns:xlink="http://www.w3.org/1999/xlink">
    <!-- Generator: Sketch 52.5 (67469) - http://www.bohemiancoding.com/sketch -->
    <title>Combined Shape</title>
    <desc>Created with Sketch.</desc>
    <g id="Page-1" stroke="none" stroke-width="1" fill="none" fill-rule="evenodd">
        <g id="salesforce" transform="translate(0.000000, -1.000000)" fill="#FFFFFF">
            <g id="g3003" transform="translate(500.300380, 350.916526) scale(-1, 1) rotate(-180.000000) translate(-500.300380, -350.916526) translate(0.300380, 0.916526)">
                <g id="Group">
                    <path d="M415.92307,623.153836 C380.474224,669.503451 324.561533,699.416527 261.647303,699.416527 C154.489613,699.416527 67.610768,612.665759 67.610768,505.650376 C67.610768,478.256146 73.3173063,452.199608 83.5776908,428.590762 C33.7415377,399.460378 0.199615203,345.013456 0.199615203,282.654226 C0.199615203,189.599228 74.8542294,114.176152 166.941536,114.176152 C178.696151,114.176152 190.15192,115.399998 201.209227,117.748075 C226.511535,49.1130761 292.428457,0.173461487 369.772686,0.173461487 C444.04307,0.173461487 507.768453,45.2849992 535.119991,109.622306 C555.925375,99.4757676 579.292298,93.7692292 603.996913,93.7692292 C663.011912,93.7692292 714.427681,126.286536 741.409219,174.414997 C755.12768,171.639997 769.315757,170.188459 783.831141,170.188459 C902.771908,170.188459 999.199599,267.455765 999.199599,387.449609 C999.199599,507.429222 902.771908,604.696529 783.831141,604.696529 C752.822295,604.696529 723.350373,598.079221 696.724604,586.182298 C666.085758,640.771528 608.550759,677.543835 542.605376,677.543835 C492.996915,677.543835 448.141531,656.72422 415.92307,623.153836 Z M144.895223,336.806576 L148.936761,348.020422 C149.577146,349.955807 151.042915,349.315422 151.626377,348.945422 C152.736377,348.276576 153.575992,347.664653 155.0133,346.825037 C166.924453,339.296961 177.953299,339.225807 181.411376,339.225807 C190.319838,339.225807 195.841376,343.950422 195.841376,350.297345 L195.841376,350.638883 C195.841376,357.583499 187.345607,360.187729 177.483684,363.218883 L175.306376,363.887729 C161.772915,367.758499 147.328684,373.308498 147.328684,390.428114 L147.328684,390.769652 C147.328684,407.006959 160.420992,418.334652 179.177146,418.334652 L181.226376,418.348882 C192.240991,418.348882 202.885607,415.146959 210.584453,410.465036 C211.28176,410.038113 211.964837,409.24119 211.580607,408.159652 C211.224837,407.163498 207.809453,397.970421 207.410991,396.945806 C206.685222,395.024652 204.707145,396.305421 204.707145,396.305421 C197.961761,400.033883 187.487915,402.965421 178.664838,402.965421 C170.724069,402.965421 165.600992,398.753113 165.600992,393.032344 L165.600992,392.676575 C165.600992,385.988114 174.367146,383.14196 184.527915,379.840421 L186.278299,379.271191 C199.754837,375.016191 214.113683,369.124652 214.113683,352.901576 L214.113683,352.560037 C214.113683,335.013499 201.391376,324.11273 180.899069,324.11273 C170.837915,324.11273 161.217915,325.692345 151.028684,331.100038 C149.107531,332.195807 147.200608,333.17773 145.322146,334.543884 C145.122915,334.828499 144.269069,335.170038 144.895223,336.806576 Z M444.89407,336.806576 L448.935608,348.020422 C449.533301,349.856191 451.269455,349.187345 451.639455,348.945422 C452.720993,348.248114 453.574839,347.664653 455.012147,346.825037 C466.9233,339.296961 477.952146,339.225807 481.410223,339.225807 C490.318685,339.225807 495.854454,343.950422 495.854454,350.297345 L495.854454,350.638883 C495.854454,357.583499 487.344454,360.187729 477.482531,363.218883 L475.305223,363.887729 C461.771762,367.758499 447.327531,373.308498 447.327531,390.428114 L447.327531,390.769652 C447.327531,407.006959 460.419839,418.334652 479.175993,418.334652 L481.225223,418.348882 C492.239838,418.348882 502.884454,415.146959 510.5833,410.465036 C511.280607,410.038113 511.963684,409.24119 511.579454,408.159652 C511.223684,407.163498 507.8083,397.970421 507.409838,396.945806 C506.684069,395.024652 504.705992,396.305421 504.705992,396.305421 C497.960608,400.033883 487.486762,402.965421 478.663685,402.965421 C470.722916,402.965421 465.599839,398.753113 465.599839,393.032344 L465.599839,392.676575 C465.599839,385.988114 474.365993,383.14196 484.526762,379.840421 L486.277146,379.271191 C499.753684,375.016191 514.11253,369.124652 514.11253,352.901576 L514.11253,352.560037 C514.11253,335.013499 501.390223,324.11273 480.897916,324.11273 C470.836762,324.11273 461.216762,325.692345 451.027531,331.100038 C449.106378,332.195807 447.199455,333.17773 445.320993,334.543884 C445.121762,334.828499 444.267916,335.170038 444.89407,336.806576 Z M649.69481,371.176716 C649.69481,381.081331 647.84481,388.879793 644.215964,394.344408 C640.601349,399.7521 635.150964,402.384792 627.551733,402.384792 C619.938272,402.384792 614.516349,399.7521 610.972888,394.344408 C607.386734,388.879793 605.565195,381.081331 605.565195,371.176716 C605.565195,361.25787 607.386734,353.430947 610.972888,347.923639 C614.516349,342.444793 619.938272,339.79787 627.551733,339.79787 C635.150964,339.79787 640.601349,342.459024 644.201733,347.923639 C647.84481,353.445178 649.69481,361.25787 649.69481,371.176716 Z M666.800194,389.56287 C668.479425,383.913254 669.31904,377.72287 669.31904,371.176716 C669.31904,364.630562 668.479425,358.440178 666.800194,352.790562 C665.120964,347.112486 662.502502,342.103255 659.015964,337.93364 C655.529425,333.749794 651.103656,330.405563 645.880964,328.029024 C640.644041,325.652486 634.482118,324.442871 627.551733,324.442871 C620.607118,324.442871 614.445195,325.652486 609.208272,328.029024 C603.98558,330.405563 599.559811,333.749794 596.073272,337.93364 C592.572503,342.117486 589.968273,347.126716 588.274811,352.790562 C586.609811,358.425947 585.770196,364.616331 585.770196,371.176716 C585.770196,377.737101 586.609811,383.913254 588.274811,389.56287 C589.968273,395.226716 592.586734,400.235946 596.059042,404.419792 C599.559811,408.603638 603.971349,411.9621 609.208272,414.409792 C614.430964,416.843254 620.607118,418.081331 627.551733,418.081331 C634.482118,418.081331 640.658272,416.843254 645.880964,414.409792 C651.117887,411.9621 655.529425,408.603638 659.015964,404.419792 C662.502502,400.250177 665.120964,395.240946 666.800194,389.56287 Z M807.26791,342.446246 L811.465987,330.848169 C812.006756,329.410862 810.768679,328.813169 810.768679,328.813169 C804.30791,326.265862 795.314064,324.487016 786.54791,324.487016 C771.719449,324.487016 760.349065,328.770477 752.778295,337.195092 C745.221757,345.591246 741.39368,357.061246 741.39368,371.249322 C741.39368,377.809707 742.332911,384.014322 744.182911,389.663938 C746.047142,395.327784 748.836372,400.337014 752.507911,404.52086 C756.179449,408.704706 760.81868,412.063168 766.283295,414.496629 C771.762141,416.944322 778.165987,418.168168 785.352526,418.168168 C790.162526,418.168168 794.488679,417.869322 798.188679,417.300091 C802.144833,416.702399 807.381756,415.293553 809.601756,414.425476 C810.000218,414.268937 811.110218,413.713937 810.654833,412.418937 C809.060987,407.85086 807.950987,404.87663 806.456756,400.721245 C805.816372,398.95663 804.464449,399.540091 804.464449,399.540091 C798.829064,401.318937 793.449833,402.130091 786.391372,402.130091 C777.924064,402.130091 771.577141,399.298168 767.407526,393.77663 C763.209449,388.22663 760.875603,380.940476 760.847142,371.249322 C760.81868,360.604707 763.465603,352.735092 768.190218,347.868169 C772.900603,343.001246 779.475218,340.539323 787.757526,340.539323 C791.130218,340.539323 794.275218,340.767015 797.135602,341.208169 C799.953295,341.649323 802.600218,342.531631 805.090602,343.485092 C805.090602,343.485092 806.698679,344.111246 807.26791,342.446246 Z M837.19651,380.678596 L878.494202,380.678596 C878.081509,385.986673 877.042663,390.768211 874.651894,394.340134 C871.051509,399.747826 866.028048,402.736288 858.428817,402.736288 C850.829587,402.736288 845.421894,399.762057 841.878433,394.340134 C839.530356,390.768211 838.007664,386.185904 837.19651,380.678596 Z M894.788432,392.78898 C898.502663,379.739365 896.567278,368.468596 896.510355,367.842442 C896.353817,366.362442 894.831124,366.333981 894.831124,366.333981 L836.926125,366.390904 C837.296125,357.596289 839.388048,351.363212 843.67151,347.122443 C847.841125,342.981289 854.501125,340.334366 863.48074,340.320135 C877.213432,340.291674 883.104971,343.052443 887.246125,344.589366 C887.246125,344.589366 888.854201,345.172827 889.423432,343.593212 L893.208817,332.991289 C893.977278,331.198212 893.365355,330.572058 892.724971,330.216289 C889.096125,328.209751 880.287279,324.481289 863.566125,324.424366 C855.440356,324.410135 848.367664,325.577058 842.547279,327.82552 C836.684202,330.088212 831.788818,333.332828 827.989202,337.473981 C824.175356,341.586674 821.357664,346.553212 819.593049,352.188596 C817.842664,357.781289 816.960356,364.000135 816.960356,370.674365 C816.960356,377.23475 817.814203,383.453596 819.507664,389.160134 C821.186895,394.895134 823.833818,399.947057 827.348818,404.187826 C830.863818,408.442826 835.34651,411.858211 840.683048,414.362826 C846.005356,416.867442 852.565741,418.077057 859.794971,418.077057 C865.999586,418.077057 871.663433,416.739365 876.388048,414.718595 C880.002663,413.153211 883.64574,410.349749 887.374201,406.336673 C889.736509,403.803596 893.336894,398.267826 894.788432,392.78898 Z M373.4613,380.678596 L414.758992,380.678596 C414.346299,385.986673 413.307453,390.768211 410.930915,394.340134 C407.316299,399.747826 402.292838,402.736288 394.693607,402.736288 C387.094377,402.736288 381.686684,399.762057 378.143223,394.340134 C375.795146,390.768211 374.286685,386.185904 373.4613,380.678596 Z M431.038991,392.78898 C434.767453,379.739365 432.832068,368.468596 432.775145,367.842442 C432.618607,366.362442 431.095914,366.333981 431.095914,366.333981 L373.190915,366.390904 C373.560915,357.596289 375.652838,351.363212 379.9363,347.122443 C384.105915,342.981289 390.765915,340.334366 399.7313,340.320135 C413.492453,340.291674 419.369761,343.052443 423.510915,344.589366 C423.510915,344.589366 425.118991,345.172827 425.702453,343.593212 L429.473607,332.991289 C430.242068,331.198212 429.630145,330.572058 428.989761,330.216289 C425.360915,328.209751 416.552069,324.481289 399.830915,324.424366 C391.705146,324.410135 384.632454,325.577058 378.812069,327.82552 C372.948992,330.088212 368.053608,333.332828 364.253992,337.473981 C360.440146,341.586674 357.622454,346.553212 355.857839,352.188596 C354.107454,357.781289 353.225146,364.000135 353.225146,370.674365 C353.225146,377.23475 354.093223,383.453596 355.772454,389.160134 C357.451685,394.895134 360.098608,399.947057 363.613608,404.187826 C367.128608,408.442826 371.6113,411.858211 376.947838,414.362826 C382.270146,416.867442 388.844761,418.077057 396.059761,418.077057 C402.264376,418.077057 407.928223,416.739365 412.652838,414.718595 C416.267453,413.153211 419.91053,410.349749 423.638991,406.336673 C426.001299,403.803596 429.587453,398.267826 431.038991,392.78898 Z M248.30026,342.763576 C248.257568,342.777807 253.494491,338.665115 265.277567,339.376653 C273.559875,339.87473 280.917183,341.454345 280.917183,341.454345 L280.902952,341.454345 L280.902952,367.781268 C280.902952,367.781268 273.488721,369.005114 265.192183,369.11896 C253.380645,369.275499 248.357183,364.920883 248.399875,364.935114 C244.913337,362.473191 243.234106,358.815883 243.234106,353.721268 C243.234106,350.505114 243.817568,347.972037 244.956029,346.193191 C245.724491,345.026268 246.037568,344.570884 248.30026,342.763576 Z M271.339875,383.449345 C271.339875,383.449345 275.907952,383.036652 280.888721,382.325114 L280.888721,384.772806 C280.888721,392.485883 279.280644,396.143191 276.121413,398.562421 C272.876798,401.052806 268.066798,402.305113 261.80526,402.305113 C261.80526,402.305113 247.716798,402.490113 236.574106,396.427806 C236.061799,396.12896 235.620645,395.958191 235.620645,395.958191 C235.620645,395.958191 234.24026,395.474344 233.727953,396.897421 L229.629491,407.912036 C229.003337,409.505883 230.141799,410.217421 230.141799,410.217421 C235.35026,414.287421 248.001414,416.735113 248.001414,416.735113 C252.18526,417.574729 259.172568,418.172421 263.512952,418.172421 C275.082567,418.172421 284.033721,415.482806 290.110259,410.160498 C296.215259,404.82396 299.317567,396.214344 299.317567,384.602037 L299.346028,331.649345 C299.346028,331.649345 299.459875,330.112422 298.022567,329.756653 C298.022567,329.756653 295.887952,329.173192 293.966798,328.717807 C292.031413,328.276653 285.058336,326.867807 279.380259,325.900115 C273.64526,324.918192 267.72526,324.434346 261.791029,324.434346 C256.155644,324.434346 251.004106,324.960884 246.464491,325.99973 C241.853722,327.038576 237.883337,328.760499 234.667183,331.108576 C231.422568,333.456653 228.87526,336.502038 227.110645,340.159345 C225.34603,343.802422 224.463722,348.256653 224.463722,353.37973 C224.463722,358.417422 225.502568,362.914345 227.551799,366.728191 C229.60103,370.542037 232.432953,373.758191 235.947953,376.277037 C239.448722,378.781652 243.518722,380.674345 248.044106,381.88396 C252.541029,383.093575 257.336798,383.719729 262.303337,383.719729 C265.946414,383.719729 268.991798,383.620114 271.339875,383.449345 Z M738.36811,413.285586 C737.827341,411.705971 735.009649,403.779432 734.013495,401.132509 C733.643495,400.122125 733.017341,399.439048 731.907341,399.567125 C731.907341,399.567125 728.577341,400.349817 725.546187,400.349817 C723.440033,400.349817 720.465803,400.079432 717.776187,399.254048 C715.143495,398.442894 712.738495,397.005586 710.61811,394.956356 C708.511957,392.892894 706.804264,390.018279 705.551957,386.432125 C704.271187,382.803279 703.630803,377.025587 703.630803,371.233664 L703.630803,328.085972 C703.630803,327.11828 702.848111,326.321357 701.880418,326.321357 L686.667726,326.321357 C685.700034,326.321357 684.903111,327.11828 684.903111,328.085972 L684.903111,414.452509 C684.903111,415.434432 685.600419,416.217124 686.568111,416.217124 L701.410803,416.217124 C702.378495,416.217124 703.075803,415.434432 703.075803,414.452509 L703.075803,407.408278 C705.295803,410.382509 709.280418,413.000971 712.866572,414.623278 C716.481187,416.245586 720.522726,417.469432 727.794649,417.028278 C731.594264,416.786355 736.51811,415.747509 737.500033,415.363278 C737.884264,415.220971 738.809264,414.594817 738.36811,413.285586 Z M595.57371,453.313836 C595.972172,453.157298 597.096402,452.602298 596.641018,451.293067 L592.215249,439.13999 C591.845249,438.229221 591.589095,437.674221 589.696402,438.243452 C589.226787,438.385759 588.529479,438.58499 586.736402,438.969221 C585.441402,439.239605 583.719479,439.438836 581.983326,439.438836 C579.692172,439.438836 577.600249,439.154221 575.76448,438.556529 C573.971403,437.973067 572.334864,436.962682 570.911787,435.539606 C569.47448,434.088067 567.766787,431.967682 566.856018,429.363452 C564.735634,423.22999 563.896018,416.712298 563.796403,416.299606 L582.310633,416.299606 C583.861787,416.299606 584.345633,415.588067 584.203326,414.435375 L582.040249,402.396145 C581.712941,400.64576 580.104864,400.702683 580.104864,400.702683 L561.035634,400.702683 L547.986018,326.887684 C546.619865,319.259992 544.897942,312.713838 542.891403,307.448454 C540.870634,302.111915 538.750249,298.212685 535.377557,294.484223 C532.246788,291.040377 528.717557,288.493069 524.676019,287.0273 C520.648711,285.575762 515.781788,284.821531 510.459481,284.821531 C507.912173,284.821531 505.194096,284.864223 501.977942,285.618454 C499.658327,286.173454 498.391788,286.571916 496.684096,287.169608 C495.958327,287.439993 495.389096,288.336531 495.787558,289.489223 C496.20025,290.641916 499.615635,300.019992 500.08525,301.258069 C500.682942,302.7523 502.177173,302.183069 502.177173,302.183069 C503.216019,301.741915 503.941788,301.443069 505.307942,301.172685 C506.688327,300.888069 508.552558,300.660377 509.947173,300.660377 C512.466019,300.660377 514.771404,300.973454 516.763711,301.6423 C519.182942,302.453454 520.577557,303.848069 522.057557,305.726531 C523.59448,307.690377 524.832557,310.379992 526.099096,313.966146 C527.394096,317.609223 528.561019,322.404992 529.571403,328.239607 L542.549865,400.702683 L529.756403,400.702683 C528.21948,400.702683 527.721403,401.428452 527.877942,402.566914 L530.026788,414.620375 C530.368326,416.356529 531.962173,416.299606 531.962173,416.299606 L545.111403,416.299606 L545.822942,420.213067 C547.786788,431.839606 551.700249,440.676913 557.463711,446.483067 C563.255634,452.317682 571.50948,455.277682 581.983326,455.277682 C584.986018,455.277682 587.632941,455.078451 589.852941,454.67999 C592.044479,454.267298 593.72371,453.883067 595.57371,453.313836 Z M336.89392,328.081696 C336.89392,327.114004 336.196612,326.331311 335.22892,326.331311 L319.87392,326.331311 C318.906228,326.331311 318.223151,327.114004 318.223151,328.081696 L318.223151,451.661694 C318.223151,452.629386 318.906228,453.412079 319.87392,453.412079 L335.22892,453.412079 C336.196612,453.412079 336.89392,452.629386 336.89392,451.661694 L336.89392,328.081696 Z" id="Combined-Shape"></path>
                </g>
            </g>
        </g>
    </g>
</svg>