<?xml version="1.0" encoding="UTF-8"?>
<svg width="292px" height="61px" viewBox="0 0 292 61" version="1.1" xmlns="http://www.w3.org/2000/svg" xmlns:xlink="http://www.w3.org/1999/xlink">
    <!-- Generator: Sketch 52.5 (67469) - http://www.bohemiancoding.com/sketch -->
    <title>Combined Shape</title>
    <desc>Created with Sketch.</desc>
    <g id="Page-1" stroke="none" stroke-width="1" fill="none" fill-rule="evenodd">
        <g id="uber" fill="#FFFFFF">
            <path d="M45.9,1.471 C45.9,0.491 46.39,0 47.37,0 L58.585,0 L58.585,35.604 C58.585,54.357 46.635,60.914 29.293,60.914 C11.95,60.914 0,54.357 0,35.604 L0,1.471 C0,0.491 0.491,0 1.471,0 L12.685,0 L12.685,35.053 C12.685,46.267 17.649,50.924 29.293,50.924 C40.936,50.924 45.9,46.267 45.9,35.053 L45.9,1.471 Z M208.469,9.744 L174.336,9.744 L174.336,24.758 L202.831,24.758 C203.322,24.758 203.505,25.002 203.322,25.493 L200.196,33.215 C199.889,33.889 199.461,34.194 198.542,34.194 L181.811,34.194 C176.358,34.194 174.336,35.849 174.336,39.526 L174.336,50.128 L212.881,50.128 C213.372,50.128 213.556,50.373 213.372,50.863 L210.123,58.892 C209.817,59.565 209.388,59.872 208.469,59.872 L166.369,59.872 C163.12,59.872 161.896,58.769 161.896,56.317 L161.896,4.167 C161.896,1.287 163.488,0 167.717,0 L212.881,0 C213.372,0 213.556,0.246 213.372,0.735 L210.123,8.763 C209.817,9.438 209.388,9.744 208.469,9.744 Z M117.196,50.251 C124.243,50.251 126.204,47.677 126.204,42.162 C126.204,36.646 124.243,33.95 117.196,33.95 L102.544,33.95 C97.089,33.95 95.067,35.604 95.067,39.281 L95.067,50.251 L117.196,50.251 Z M95.067,9.621 L95.067,24.942 L114.867,24.942 C121.485,24.942 123.324,22.449 123.324,17.281 C123.324,12.114 121.485,9.621 114.867,9.621 L95.067,9.621 Z M128.962,28.312 C135.702,30.089 138.766,36.156 138.766,43.326 C138.766,55.276 130.31,59.872 118.483,59.872 L87.107,59.872 C83.859,59.872 82.634,58.769 82.634,56.317 L82.634,4.167 C82.634,1.287 84.226,0 88.455,0 L113.948,0 C125.101,0 135.886,1.961 135.886,15.198 C135.886,20.897 133.864,25.738 128.962,28.312 Z M268.246,27.76 C276.028,27.76 277.744,24.819 277.744,18.691 C277.744,12.624 276.028,9.622 268.246,9.622 L247.41,9.622 L247.41,27.76 L268.246,27.76 Z M291.655,58.83 C291.901,59.197 291.901,59.872 291.104,59.872 L279.705,59.872 C278.786,59.872 278.418,59.504 278.05,58.892 L265.917,37.075 L254.887,37.075 C249.432,37.075 247.41,38.73 247.41,42.407 L247.41,59.872 L236.441,59.872 C235.461,59.872 234.97,59.381 234.97,58.401 L234.97,4.167 C234.97,1.287 236.564,0 240.792,0 L266.407,0 C281.298,0 290.307,3.923 290.307,18.446 C290.307,29.661 284.914,34.073 278.235,35.788 L291.655,58.83 Z" id="Combined-Shape"></path>
        </g>
    </g>
</svg>