<?xml version="1.0" encoding="UTF-8"?>
<svg width="189px" height="30px" viewBox="0 0 189 30" version="1.1" xmlns="http://www.w3.org/2000/svg" xmlns:xlink="http://www.w3.org/1999/xlink">
    <!-- Generator: Sketch 52.5 (67469) - http://www.bohemiancoding.com/sketch -->
    <title>Combined Shape</title>
    <desc>Created with Sketch.</desc>
    <g id="Page-1" stroke="none" stroke-width="1" fill="none" fill-rule="evenodd">
        <g id="vmware" transform="translate(-620.000000, -928.000000)" fill="#FFFFFF">
            <g id="g12" transform="translate(598.645000, 774.030000) scale(-1, 1) rotate(-180.000000) translate(-598.645000, -774.030000) translate(0.645000, 0.030000)">
                <g id="g164">
                    <g id="g166-Clipped">
                        <g id="g166" transform="translate(618.750000, 589.750000)">
                            <g id="g172" transform="translate(0.936250, 0.070000)">
                                <path d="M81.105,2.75 C81.52625,1.5525 82.36,0.92375 83.35125,0.92375 L83.46125,0.92375 C84.505,0.92375 85.2925,1.5525 85.65875,2.75 L92.46375,22.18625 L99.21,2.75 C99.57875,1.5525 100.365,0.92375 101.4125,0.92375 L101.56875,0.92375 C102.5125,0.92375 103.34625,1.5525 103.76875,2.75 L112.035,25.675 C112.1375,25.99375 112.29625,26.41 112.29625,26.775 C112.29625,27.77125 111.4575,28.65625 110.3075,28.65625 C109.205,28.65625 108.63375,27.92875 108.3725,27.0875 L101.45875,7.275 L94.66,27.03875 C94.3475,27.97625 93.6675,28.65625 92.56625,28.65625 L92.35375,28.65625 C91.3125,28.65625 90.68375,27.97625 90.37125,27.03875 L83.51625,7.275 L76.71,26.98375 C76.3975,27.975 75.715,28.655 74.6675,28.655 C73.4675,28.655 72.63,27.71375 72.63,26.7225 C72.63,26.35625 72.78625,25.93875 72.89125,25.6225 L81.105,2.75 Z M140.97875,26.66125 L140.98,3.00375 C140.98,1.85625 141.87125,0.96125 143.025,0.96125 C144.1775,0.96125 145.015,1.9025 145.015,3.00375 L145.015,12.195 C145.015,20.0075 149.30875,23.94125 154.5525,24.57 C155.61,24.7275 156.34,25.51 156.34,26.6125 C156.34,27.765 155.55375,28.655 154.3425,28.655 C151.4175,28.655 147.00375,26.5275 145.01375,22.02 L145.01375,26.66125 C145.01375,27.81625 144.12625,28.7075 142.9675,28.7075 C141.86875,28.7075 140.97875,27.765 140.97875,26.66125 Z M169.29125,0.70625 C173.8075,0.70625 176.79,2.32 179.30375,4.75625 C179.72,5.115 179.925,5.58375 179.925,6.04875 C179.925,6.98625 179.15125,7.765 178.17875,7.765 C177.71375,7.765 177.355,7.5575 177.04625,7.30125 C175.09125,5.485 172.685,4.1875 169.39625,4.1875 C164.665,4.1875 160.61,7.455 160.05,13.26125 L179.2525,13.26125 C180.2225,13.26125 181.10375,14.0425 181.10375,15.135 C181.10375,22.24625 176.63125,28.72625 168.7775,28.72625 C161.4325,28.72625 156.0375,22.5 156.0375,14.77125 L156.0375,14.66375 C156.0375,6.365 161.995,0.70625 169.29125,0.70625 Z M177.14875,16.22 L160.0475,16.22 C160.555,21.4625 164.0475,25.35125 168.67,25.35125 C173.96125,25.35125 176.73625,21.10125 177.14875,16.22 Z M112.3675,9.10625 C112.3675,3.56625 117.4425,0.695 122.4625,0.69125 C127.20875,0.69125 130.3475,2.8825 132.2325,5.34375 L132.2325,2.76625 C132.2325,1.7225 133.00875,0.885 134.15375,0.885 C135.2575,0.885 136.09375,1.72375 136.09375,2.87 L136.09375,17.78 C136.09375,21.23125 135.1525,23.84375 133.32,25.6725 C131.3375,27.66 128.41,28.65 124.5975,28.65 C121.15,28.65 119.14375,28.26625 116.4825,27.11125 C115.74625,26.785 115.3825,26.26875 115.3825,25.435 C115.3825,24.49625 116.2225,23.71 117.16375,23.71 C117.3675,23.71 117.63125,23.76375 117.88875,23.86875 C119.87875,24.755 121.46125,25.10125 124.18,25.10125 C129.24375,25.10125 132.23125,22.58875 132.23125,17.7325 L132.23125,16.7875 C129.8225,17.47125 127.3675,17.94125 123.91625,17.94125 C117.0725,17.94125 112.3675,14.90625 112.3675,9.21125 L112.3675,9.10625 Z M132.2825,11.1975 C132.2825,6.91625 128.2025,3.88375 123.24,3.88375 C119.5775,3.88375 116.445,5.87 116.445,9.26625 L116.445,9.37 C116.445,12.76375 119.27125,14.96125 124.33375,14.96125 C127.62375,14.96125 130.2925,14.385 132.2825,13.81125 L132.2825,11.1975 Z M7.8925,26.95875 C7.0075,28.89875 4.82,29.7775 2.7775,28.87 C0.7325,27.96125 -0.02,25.69375 0.90375,23.7525 L9.48,5.11125 C10.82875,2.19 12.25,0.65875 14.9175,0.65875 C17.7675,0.65875 19.01,2.32625 20.3575,5.11125 C20.3575,5.11125 27.8375,21.39875 27.9125,21.56875 C27.98875,21.74125 28.22875,22.2675 28.99,22.2625 C29.63375,22.25875 30.175,21.745 30.175,21.055 L30.175,5.1275 C30.175,2.6725 31.53625,0.65875 34.15625,0.65875 C36.77375,0.65875 38.18875,2.6725 38.18875,5.1275 L38.18875,18.16125 C38.18875,20.675 39.99,22.30625 42.445,22.30625 C44.9,22.30625 46.53375,20.61625 46.53375,18.16125 L46.53375,5.1275 C46.53375,2.6725 47.9,0.65875 50.515,0.65875 C53.1325,0.65875 54.555,2.6725 54.555,5.1275 L54.555,18.16125 C54.555,20.675 56.34875,22.30625 58.805,22.30625 C61.25625,22.30625 62.89625,20.61625 62.89625,18.16125 L62.89625,5.1275 C62.89625,2.6725 64.26125,0.65875 66.87875,0.65875 C69.495,0.65875 70.915,2.6725 70.915,5.1275 L70.915,19.96125 C70.915,25.4125 66.53125,29.23125 61.25625,29.23125 C55.9875,29.23125 52.6875,25.58625 52.6875,25.58625 C50.93375,27.86 48.51625,29.22625 44.425,29.22625 C40.1075,29.22625 36.32875,25.58625 36.32875,25.58625 C34.57375,27.86 31.58625,29.22625 29.1125,29.22625 C25.28625,29.22625 22.2475,27.54375 20.39375,23.305 L14.9175,10.39625 L7.8925,26.95875 Z M181.43,25.34375 C181.43,23.515 182.88375,22 184.77,22 C186.64,22 188.11625,23.53625 188.11625,25.36625 L188.11625,25.38 C188.11625,27.20625 186.65625,28.72625 184.77,28.72625 C182.91,28.72625 181.43,27.19 181.43,25.36625 L181.43,25.34375 Z M187.47375,25.36625 C187.47375,23.87125 186.29625,22.6225 184.77,22.6225 C183.225,22.6225 182.0625,23.8525 182.0625,25.34875 L182.0625,25.36625 C182.0625,26.85375 183.23875,28.105 184.77,28.105 C186.315,28.105 187.47375,26.875 187.47375,25.375 L187.47375,25.36625 Z M183.49125,26.68875 L183.4925,26.68875 L183.4925,24.1375 C183.4925,23.94 183.65125,23.7825 183.8525,23.7825 C184.0525,23.7825 184.20625,23.93875 184.20625,24.1375 L184.20625,24.8425 L184.775,24.8425 L185.46875,23.965 C185.5525,23.8625 185.66,23.78125 185.81875,23.78125 C185.98875,23.78125 186.15625,23.91125 186.15625,24.10875 C186.15625,24.21875 186.11,24.2925 186.04125,24.3825 L185.54875,24.9825 C185.9375,25.14625 186.195,25.4575 186.195,25.9675 L186.195,25.9775 C186.195,26.2775 186.095,26.53625 185.91125,26.715 C185.71,26.9275 185.38625,27.04625 184.96625,27.04625 L183.85125,27.04625 C183.65,27.04625 183.49125,26.8875 183.49125,26.68875 Z M184.92625,25.47375 L184.92625,25.475 L184.2025,25.475 L184.2025,26.40625 L184.91375,26.40625 C185.26,26.40625 185.465,26.24375 185.465,25.9425 L185.465,25.93125 C185.465,25.655 185.27375,25.47375 184.92625,25.47375 Z" id="Combined-Shape"></path>
                            </g>
                        </g>
                    </g>
                </g>
            </g>
        </g>
    </g>
</svg>