<?xml version="1.0"?>
<svg xmlns="http://www.w3.org/2000/svg" viewBox="0 0 50 50">
    <path style="text-indent:0;text-align:start;line-height:normal;text-transform:none;block-progression:tb;-inkscape-font-specification:Sans" d="M 6.78125 2 C 6.7688217 2.0021403 6.7624173 2.0288731 6.75 2.03125 C 6.722061 2.0365981 6.684149 2.0247164 6.65625 2.03125 A 1.0001 1.0001 0 0 0 6.09375 2.28125 C 5.4228557 2.6478189 5 3.4010073 5 4.21875 L 5 24.90625 L 5 46 C 5 46.619791 5.2735953 47.272059 5.78125 47.65625 A 1.0001 1.0001 0 0 0 6.71875 47.96875 C 7.1773625 47.992221 7.6561467 47.890758 8.0625 47.65625 C 8.91056 47.165841 26.21875 37.15625 26.21875 37.15625 L 35.25 31.9375 A 1.0001 1.0001 0 0 0 35.3125 31.90625 L 35.4375 31.84375 C 35.4375 31.84375 35.55962 31.782909 35.5625 31.78125 A 1.0001 1.0001 0 0 0 35.59375 31.75 C 35.862931 31.594998 43.262629 27.337817 44.28125 26.75 C 44.983597 26.344019 45.542577 25.68461 45.53125 24.875 C 45.51992 24.06539 44.949915 23.437197 44.3125 23.09375 C 43.962086 22.904511 41.679373 21.601492 39.5625 20.375 C 37.445627 19.148508 35.4375 17.96875 35.4375 17.96875 L 26.21875 12.65625 C 26.21875 12.65625 9.4573685 2.9767611 8.46875 2.40625 C 8.1222297 2.2062804 7.728432 2.0477501 7.34375 2 C 7.151409 1.9761249 6.967675 1.967896 6.78125 2 z M 7 4.6875 L 27.375 24.90625 L 7 45.125 L 7 24.90625 L 7 4.6875 z M 11.75 6.59375 C 16.836178 9.5307785 25.21875 14.375 25.21875 14.375 L 33.28125 19.03125 L 28.78125 23.5 L 11.75 6.59375 z M 35.0625 20.0625 C 35.544057 20.345075 36.767206 21.053577 38.5625 22.09375 C 40.681127 23.321258 42.851414 24.560989 43.375 24.84375 C 43.427372 24.871969 43.411672 24.885586 43.4375 24.90625 C 43.399464 24.935026 43.384962 24.94005 43.28125 25 C 42.319204 25.555169 36.088881 29.173008 35.09375 29.75 L 30.1875 24.90625 L 35.0625 20.0625 z M 28.78125 26.28125 L 33.3125 30.78125 L 25.21875 35.4375 C 25.21875 35.4375 17.054718 40.146685 11.78125 43.1875 L 28.78125 26.28125 z" overflow="visible" font-family="Sans"/>
</svg>
