<?xml version="1.0" encoding="UTF-8"?>
<svg width="825px" height="739px" viewBox="0 0 825 739" version="1.1" xmlns="http://www.w3.org/2000/svg" xmlns:xlink="http://www.w3.org/1999/xlink">
    <!-- Generator: Sketch 63.1 (92452) - https://sketch.com -->
    <title>shift-ict</title>
    <desc>Created with Sketch.</desc>
    <g id="Page-1" stroke="none" stroke-width="1" fill="none" fill-rule="evenodd">
        <g id="shift-ict" fill="#FFFFFF" fill-rule="nonzero">
            <path d="M55.8089847,696.381445 L55.8092775,696.380859 C62.8405275,696.380859 66.2977127,692.572852 66.2977127,688.001953 C66.3265628,682.289355 62.2542972,681.234668 56.1019534,678.861621 C52.9674806,677.660449 50.5651369,676.547461 50.5651369,674.262012 C50.5651369,672.152637 52.8209963,670.834277 55.0475588,670.834277 C57.5377931,670.834277 60.2331056,671.65459 62.8112306,673.881152 L65.3307619,670.043554 C62.0788088,667.377246 58.7685547,666.440039 55.2819338,666.440039 C49.7155275,666.440039 45.613965,669.809179 45.613965,674.262304 C45.613965,679.623632 49.6273441,681.58623 54.4027347,683.256152 C58.6507816,684.750293 61.3466801,685.541894 61.3466801,688.061426 C61.3466801,690.20039 59.2958989,691.95791 55.809278,691.95791 C51.7077155,691.95791 49.1588873,690.610254 46.8740239,688.471875 L44.3539066,692.162988 C47.2250003,694.711816 51.0042972,696.381445 55.8089847,696.381445 Z M83.7001953,696.380859 C87.4794922,696.380859 90.9948244,694.535449 93.3089847,691.166308 L93.3968753,691.166308 L93.3968753,696 L98.2598638,696 L98.2598638,666.791308 L93.3971681,666.791308 L93.3971681,680.941699 C93.3971681,687.885058 89.3834963,691.89873 84.7255859,691.89873 C80.0673828,691.89873 77.6061525,689.437793 77.6061525,682.787402 L77.6061525,666.791308 L72.7431641,666.791308 L72.7431641,684.193652 C72.7431641,692.513965 76.9912109,696.380859 83.7001953,696.380859 Z M112.088867,707.865234 L112.088867,691.664941 L112.206055,691.664941 C114.549805,694.623926 118.006836,696.381152 122.137695,696.381152 C130.194336,696.381152 136.463867,690.522363 136.463867,681.586524 C136.463867,672.944238 130.428711,666.440332 122.167285,666.440332 L122.166992,666.439746 C118.211914,666.439746 114.666992,668.080078 112.235352,671.098242 L112.118164,671.098242 L112.118164,666.791602 L107.254883,666.791602 L107.254883,707.865234 L112.088867,707.865234 Z M121.669,691.929 C116.512988,691.92832 111.942676,687.797754 111.942676,681.616113 C111.942676,675.610254 116.102539,670.893457 121.610352,670.893457 C127.176465,670.893457 131.512403,675.112207 131.512403,681.616113 C131.512403,687.406353 127.744719,691.780453 121.964298,691.924648 L121.669,691.929 Z M148.739258,707.865234 L148.739258,691.664941 L148.856445,691.664941 C151.200195,694.623926 154.657227,696.381152 158.788086,696.381152 C166.844727,696.381152 173.114258,690.522363 173.114258,681.586524 C173.114258,672.944238 167.079102,666.440332 158.817676,666.440332 L158.817383,666.439746 C154.862305,666.439746 151.317383,668.080078 148.885742,671.098242 L148.768555,671.098242 L148.768555,666.791602 L143.905273,666.791602 L143.905273,707.865234 L148.739258,707.865234 Z M158.319043,691.92832 C153.163379,691.92832 148.593066,687.797754 148.593066,681.616113 C148.593066,675.610254 152.75293,670.893457 158.260742,670.893457 C163.826856,670.893457 168.162793,675.112207 168.162793,681.616113 C168.162793,687.504492 164.266309,691.92832 158.319043,691.92832 Z M193.826562,696.380566 C202.440136,696.380566 208.856152,690.287402 208.856152,681.439746 C208.856152,672.533496 202.440136,666.439746 193.826562,666.439746 C184.745117,666.439746 178.709961,673.001953 178.709961,681.439746 C178.709961,689.818652 184.745117,696.380566 193.826562,696.380566 Z M193.826855,691.899023 L193.826562,691.89873 C187.791699,691.89873 183.631543,687.21123 183.631543,681.439746 C183.631543,675.609668 187.733105,670.922461 193.826855,670.922461 C199.481152,670.922461 203.934277,675.199804 203.934277,681.440039 C203.934277,687.592382 199.451855,691.899023 193.826855,691.899023 Z M221.18955,696 L221.18955,681.908496 C221.18955,676.049414 224.529394,671.77207 230.066503,671.77207 C230.56455,671.77207 231.296972,671.801074 231.999804,671.859668 L231.999804,666.498632 C231.648242,666.439746 231.238378,666.439746 230.798633,666.439746 L230.799219,666.439746 C226.844433,666.439746 223.474707,668.431933 221.306738,671.888965 L221.18955,671.888965 L221.18955,666.791308 L216.326269,666.791308 L216.326269,696 L221.18955,696 Z M246.033594,696.381445 L246.033887,696.380859 C249.490918,696.380859 251.512403,695.473242 253.094141,694.565039 L251.805078,690.316992 C250.428125,691.108008 248.611719,691.811133 246.883203,691.811133 C244.129297,691.811133 243.308985,690.082617 243.308985,686.566992 L243.308985,671.010352 L252.976953,671.010352 L252.976953,666.791602 L243.308985,666.791602 L243.308985,656.274024 L238.445703,656.801075 L238.445703,666.791602 L234.725,666.791602 L234.725,671.010352 L238.445703,671.010352 L238.445703,687.299707 C238.445703,693.188379 240.848047,696.381445 246.033594,696.381445 Z M272.313183,696.380859 C277.644922,696.380859 281.629297,694.125 284.119238,690.873633 L280.720801,687.973242 C278.904395,690.228809 276.121191,691.899317 272.488672,691.899317 C267.243945,691.899317 263.37705,688.353809 262.761816,682.933887 L285.203222,682.933887 C285.232519,682.758106 285.349414,681.703418 285.349414,680.941992 C285.35,672.562793 279.900781,666.439746 271.75625,666.439746 C263.87539,666.439746 257.78164,672.59209 257.78164,681.410449 C257.78164,690.316699 264.021875,696.380859 272.313183,696.380859 Z M280.515722,678.891211 L262.878711,678.891211 C263.786914,673.940039 267.44873,670.922461 272.019043,670.922461 C276.648242,670.922461 279.753711,674.11582 280.515722,678.891211 Z M305.213867,696.380859 C309.461914,696.380859 313.006835,694.505859 315.321875,691.371387 L315.409472,691.371387 L315.409472,695.999707 L320.067676,695.999707 L320.067676,651.820605 L315.203515,651.820605 L315.203515,671.127246 L315.115918,671.127246 C312.684277,668.080371 309.110058,666.440039 305.184277,666.440039 C296.922851,666.440039 290.887695,672.943945 290.887695,681.586231 C290.887695,690.52207 297.157226,696.380859 305.213867,696.380859 Z M305.682617,691.927734 C299.735644,691.927734 295.83916,687.503906 295.83916,681.615527 C295.83916,675.111621 300.175097,670.892871 305.741504,670.892871 C311.220019,670.892871 315.379883,675.609668 315.379883,681.615527 C315.379883,687.797168 310.80957,691.927734 305.682617,691.927734 Z M360.716504,666.439746 L360.716797,666.440039 C368.978809,666.440039 375.013672,672.943945 375.013672,681.586231 C375.013672,690.52207 368.744141,696.380859 360.6875,696.380859 C356.381153,696.380859 352.806934,694.505859 350.462598,691.371387 L350.375,691.371387 L350.375,695.999707 L345.716797,695.999707 L345.716797,651.820605 L350.580078,651.820605 L350.580078,671.126953 L350.697266,671.126953 C353.128906,668.080078 356.732422,666.439746 360.716504,666.439746 Z M360.218458,691.928028 C366.165558,691.928028 370.061915,687.504103 370.061915,681.61582 C370.061915,675.111914 365.72627,670.893164 360.159864,670.893164 C354.564161,670.893164 350.404297,675.609961 350.404297,681.61582 C350.404297,687.797346 354.97444,691.928028 360.218458,691.928028 Z M401.058594,666.791308 L406.213964,666.791308 L389.690527,707.864941 L384.534277,707.864941 L389.749707,694.857715 L377.41543,666.791308 L382.600976,666.791308 L392.093164,689.027344 L392.239648,689.027344 L401.058594,666.791308 Z M811.155255,724.374662 L815.321073,716.716695 L818.384172,716.716695 L822.598034,724.612245 L819.960521,724.612245 L819.201746,723.297249 L814.413903,723.297249 L813.643928,724.612245 L811.441079,724.612245 L811.44376,724.614474 L808.10627,724.614474 L804.547586,721.625086 L803.53682,721.625086 L803.53682,724.614474 L801.140098,724.614474 L801.140098,716.716138 L803.53682,716.716138 L803.53682,719.649805 L804.547586,719.649805 L807.694683,716.716138 L810.883779,716.716138 L806.630718,720.613765 L811.155255,724.374662 Z M481,738.799998 L481,610 L610.442554,610 L610.442554,738.799998 L481,738.799998 Z M509.672459,674.398327 L509.672459,660.075453 L495.275332,660.075453 L495.275332,674.398327 L495.275332,688.721201 L495.275332,703.046861 L509.672459,703.046861 L509.672459,688.735131 L524.069587,688.735131 L524.069587,674.412257 L509.672459,674.412257 L509.672459,674.398327 Z M552.859083,660.087712 L552.859083,660.073782 L552.859083,645.750908 L538.464755,645.750908 L538.464755,660.073782 L538.464755,660.087712 L524.067627,660.087712 L524.067627,674.410586 L538.464755,674.410586 L538.464755,688.722316 L552.859083,688.722316 L552.859083,674.410586 L567.25621,674.410586 L567.25621,660.087712 L552.859083,660.087712 Z M581.651098,660.07406 L581.651098,674.396934 L581.651098,674.410864 L567.253971,674.410864 L567.253971,688.736524 L581.651098,688.736524 L581.651098,703.045468 L596.048226,703.045468 L596.048226,688.722594 L596.048226,674.396934 L596.048226,660.07406 L581.651098,660.07406 Z M624.2769,685.665228 L624.2769,624.077705 L652.536373,624.077705 L652.536373,685.665228 L624.2769,685.665228 Z M682.897177,685.666899 C675.093833,685.666899 669.256024,684.268323 665.394951,681.479527 C661.533878,678.690732 659.599141,674.4755 659.599141,668.839403 L659.599141,640.742499 C659.599141,635.401719 661.547877,631.289569 665.450949,628.403263 C669.354021,625.52253 674.911839,624.079377 682.116003,624.079377 L737.131398,624.079377 L737.131398,640.742499 L686.408262,640.742499 L686.408262,668.839403 L737.019402,668.839403 L737.019402,685.666899 L682.897177,685.666899 Z M769.626852,685.666899 L769.626852,640.742499 L743.484109,640.742499 L743.484109,624.079377 L822.578715,624.079377 L822.578715,640.742499 L797.606334,640.742499 L797.606334,685.666899 L769.626852,685.666899 Z M630.886363,690.842469 L633.311084,690.842469 L636.262187,692.539149 L639.21049,690.842469 L641.635211,690.842469 L638.275321,694.085384 L634.246253,694.085384 L630.886363,690.842469 Z M648.240194,712.467473 L624.295379,712.467473 L624.295379,707.962496 L638.247322,699.676904 L624.704166,699.676904 L624.704166,694.932331 L648.240194,694.932331 L648.240194,699.676904 L634.923831,707.678323 L648.240194,707.678323 L648.240194,712.467473 Z M676.025642,708.859591 C676.025642,709.979567 675.513259,710.862732 674.491293,711.5063 C673.469326,712.147082 672.055373,712.467473 670.263431,712.467473 L656.821072,712.467473 C655.015132,712.467473 653.595578,712.144296 652.570812,711.497942 C651.537646,710.854374 651.025263,709.973995 651.025263,708.859591 L651.025263,694.932331 L659.105797,694.932331 L659.105797,707.678323 L667.959107,707.678323 L667.959107,694.932331 L676.025642,694.932331 L676.025642,708.859591 Z M687.123638,702.726749 L695.075377,702.726749 L695.075377,699.678855 L687.123638,699.678855 L687.123638,702.726749 Z M679.1439,712.469424 L679.1439,694.931495 L697.922884,694.931495 C699.787623,694.931495 701.137179,695.218454 701.979951,695.7868 C702.822723,696.357932 703.24271,697.266171 703.24271,698.517089 L703.24271,703.359173 C703.24271,704.504223 702.822723,705.356742 701.971551,705.919516 C701.128779,706.479503 699.829622,706.76089 698.090879,706.76089 L687.230035,706.76089 L687.230035,712.469424 L679.1439,712.469424 Z M713.621969,701.854728 L722.464079,701.854728 L722.464079,699.676069 L713.621969,699.676069 L713.621969,701.854728 Z M705.569433,698.553307 C705.569433,697.430545 706.081816,696.54738 707.112183,695.901026 C708.139749,695.257458 709.559302,694.931495 711.365243,694.931495 L724.768403,694.931495 C726.579944,694.931495 727.996698,695.257458 729.024264,695.901026 C730.05183,696.54738 730.569813,697.430545 730.569813,698.553307 L730.569813,712.469424 L722.464079,712.469424 L722.464079,705.40689 L713.621969,705.40689 L713.621969,712.469424 L705.569433,712.469424 L705.569433,698.553307 Z M733.619473,712.468031 L733.619473,694.932888 L743.550747,694.932888 L749.87014,701.831047 C750.063334,702.04557 750.287326,702.324171 750.542118,702.669636 C750.79411,703.009529 751.138498,703.494294 751.564084,704.110003 C751.418489,703.622451 751.312093,703.112611 751.244895,702.583269 C751.177697,702.051142 751.144098,701.471652 751.144098,700.847586 L751.144098,694.932888 L758.857845,694.932888 L758.857845,712.468031 L751.144098,712.468031 L742.615578,703.285344 C742.427984,703.090323 742.181592,702.789434 741.879202,702.388249 C741.579612,701.987063 741.254823,701.530158 740.907634,701.020318 C741.053229,701.50787 741.162426,702.012137 741.232423,702.535907 C741.299621,703.059677 741.32762,703.633595 741.32762,704.249303 L741.32762,712.468031 L733.619473,712.468031 Z M762.07718,712.466638 L762.07718,694.931495 L770.157714,694.931495 L770.157714,712.466638 L762.07718,712.466638 Z M794.500956,707.746023 C794.500956,709.311761 793.977373,710.490242 792.933007,711.281469 C791.885842,712.072696 790.317893,712.468309 788.226362,712.468309 L779.364652,712.468309 C777.273121,712.468309 775.707972,712.072696 774.660807,711.281469 C773.616441,710.490242 773.092858,709.311761 773.092858,707.746023 L773.092858,704.322018 L780.753407,704.322018 L780.753407,707.676373 L786.801209,707.676373 L786.801209,694.933166 L794.500956,694.933166 L794.500956,707.746023 Z M805.65215,701.854728 L814.49426,701.854728 L814.49426,699.676069 L805.65215,699.676069 L805.65215,701.854728 Z M797.599614,698.553307 C797.599614,697.430545 798.111997,696.54738 799.145164,695.901026 C800.16993,695.257458 801.589483,694.931495 803.395424,694.931495 L816.798584,694.931495 C818.610125,694.931495 820.029678,695.257458 821.057245,695.901026 C822.082011,696.54738 822.599994,697.430545 822.599994,698.553307 L822.599994,712.469424 L814.49426,712.469424 L814.49426,705.40689 L805.65215,705.40689 L805.65215,712.469424 L797.599614,712.469424 L797.599614,698.553307 Z M624.327578,721.98671 L626.696301,721.983924 L626.696301,722.123224 C626.696301,722.421327 626.771898,722.62192 626.914693,722.727789 C627.060289,722.830871 627.362679,722.883805 627.824664,722.883805 L630.837365,722.883805 C631.134155,722.883805 631.344148,722.836443 631.472944,722.733361 C631.59894,722.633064 631.660538,722.463118 631.660538,722.231879 C631.660538,721.995068 631.58774,721.825121 631.442145,721.722039 C631.29655,721.618957 630.98296,721.552093 630.498576,721.515874 L626.729899,721.432294 C625.78633,721.404434 625.147951,721.223343 624.814762,720.891808 C624.481573,720.557487 624.316379,719.952923 624.316379,719.078116 C624.316379,718.623997 624.358377,718.250672 624.447974,717.955355 C624.534771,717.662824 624.677567,717.420441 624.87076,717.22542 C625.097553,717.005325 625.397143,716.849309 625.766731,716.757371 C626.136319,716.665432 626.738299,716.620856 627.572672,716.620856 L631.240552,716.620856 C632.147722,716.620856 632.8029,716.785231 633.200487,717.119552 C633.600874,717.451087 633.802467,717.991573 633.802467,718.738223 C633.802467,718.788371 633.799668,718.841305 633.799668,718.897026 C633.794068,718.952746 633.791268,719.044684 633.780068,719.172841 L631.467344,719.172841 L631.467344,719.142195 C631.467344,718.88031 631.400146,718.682503 631.268551,718.551561 C631.136955,718.420618 630.940961,718.35654 630.67497,718.35654 L627.908661,718.35654 C627.446676,718.35654 627.141486,718.401116 626.993091,718.493054 C626.844696,718.584993 626.771898,718.743795 626.771898,718.975034 C626.771898,719.200701 626.839096,719.367861 626.970692,719.465372 C627.105087,719.568454 627.351479,719.632532 627.709867,719.660392 L631.660538,719.72447 C632.562108,719.749545 633.197687,719.950137 633.567275,720.33182 C633.931263,720.713504 634.118857,721.368216 634.118857,722.290385 C634.118857,722.839229 634.048859,723.262702 633.914464,723.563591 C633.777268,723.86448 633.553276,724.118007 633.231286,724.329744 C633.021293,724.463472 632.732903,724.563769 632.368915,724.619489 C632.007726,724.680781 631.481344,724.708641 630.795366,724.708641 L627.595071,724.708641 C626.281914,724.708641 625.405543,724.560983 624.960358,724.265666 C624.517972,723.970349 624.296779,723.418719 624.296779,722.613562 C624.296779,722.5662 624.296779,722.490978 624.302379,722.382323 C624.305179,722.276455 624.316379,722.142727 624.327578,721.98671 Z M641.470856,718.684732 L637.931772,718.684732 L637.931772,720.6823 L641.470856,720.6823 C641.790045,720.6823 642.014038,720.604292 642.142834,720.448276 C642.26883,720.289473 642.336028,720.010872 642.336028,719.606901 C642.336028,719.28651 642.26603,719.052485 642.128834,718.904827 C641.991639,718.759954 641.773246,718.684732 641.470856,718.684732 Z M641.554853,716.715023 C642.089636,716.715023 642.515222,716.742883 642.837211,716.793031 C643.153601,716.845966 643.425192,716.92676 643.646385,717.043772 C644.043972,717.252723 644.332362,717.564756 644.511556,717.977085 C644.69355,718.386629 644.780347,718.957761 644.780347,719.682123 C644.780347,720.763095 644.601153,721.526461 644.242765,721.975009 C643.881577,722.42077 643.276797,722.643651 642.420025,722.643651 L637.931772,722.643651 L637.931772,724.61336 L635.523851,724.61336 L635.523851,716.715023 L641.554853,716.715023 Z M648.611182,722.704386 L653.84421,722.704386 L653.84421,724.612802 L646.206061,724.612802 L646.206061,716.714466 L648.611182,716.714466 L648.611182,722.704386 Z M654.885496,724.613638 L654.885496,716.715302 L657.287817,716.715302 L657.287817,724.613638 L654.885496,724.613638 Z M664.131353,724.61336 L661.734631,724.61336 L661.734631,718.654086 L658.444739,718.654086 L658.444739,716.715023 L667.424045,716.715023 L667.424045,718.654086 L664.131353,718.654086 L664.131353,724.61336 Z M668.384413,721.98671 L670.753135,721.983924 L670.753135,722.123224 C670.753135,722.421327 670.828733,722.62192 670.971528,722.727789 C671.117123,722.830871 671.419513,722.883805 671.881498,722.883805 L674.8942,722.883805 C675.19099,722.883805 675.400983,722.836443 675.526979,722.733361 C675.655775,722.633064 675.717373,722.463118 675.717373,722.231879 C675.717373,721.995068 675.644575,721.825121 675.49898,721.722039 C675.353384,721.618957 675.039795,721.552093 674.555411,721.515874 L670.786734,721.432294 C669.843165,721.404434 669.204786,721.223343 668.871597,720.891808 C668.538408,720.557487 668.373213,719.952923 668.373213,719.078116 C668.373213,718.623997 668.415212,718.250672 668.504809,717.955355 C668.591606,717.662824 668.734402,717.420441 668.927595,717.22542 C669.154388,717.005325 669.453978,716.849309 669.823566,716.757371 C670.193154,716.665432 670.795134,716.620856 671.629507,716.620856 L675.294586,716.620856 C676.204557,716.620856 676.859735,716.785231 677.257322,717.119552 C677.657709,717.451087 677.859302,717.991573 677.859302,718.738223 C677.859302,718.788371 677.856502,718.841305 677.856502,718.897026 C677.850903,718.952746 677.848103,719.044684 677.836903,719.172841 L675.524179,719.172841 L675.524179,719.142195 C675.524179,718.88031 675.456981,718.682503 675.325385,718.551561 C675.19379,718.420618 674.997796,718.35654 674.731805,718.35654 L671.965496,718.35654 C671.503511,718.35654 671.198321,718.401116 671.049926,718.493054 C670.90153,718.584993 670.828733,718.743795 670.828733,718.975034 C670.828733,719.200701 670.895931,719.367861 671.027526,719.465372 C671.161922,719.568454 671.408314,719.632532 671.766702,719.660392 L675.717373,719.72447 C676.618943,719.749545 677.254522,719.950137 677.62411,720.33182 C677.988098,720.713504 678.175692,721.368216 678.175692,722.290385 C678.175692,722.839229 678.105694,723.262702 677.971299,723.563591 C677.834103,723.86448 677.61011,724.118007 677.288121,724.329744 C677.078128,724.463472 676.789737,724.563769 676.425749,724.619489 C676.064561,724.680781 675.538178,724.708641 674.852201,724.708641 L671.651906,724.708641 C670.338749,724.708641 669.462378,724.560983 669.017192,724.265666 C668.574807,723.970349 668.353614,723.418719 668.353614,722.613562 C668.353614,722.5662 668.353614,722.490978 668.359214,722.382323 C668.362014,722.276455 668.373213,722.142727 668.384413,721.98671 Z M681.999806,719.649805 L683.007773,719.649805 L686.15487,716.716138 L689.343966,716.716138 L685.093705,720.613765 L689.903947,724.614474 L686.566457,724.614474 L683.007773,721.625086 L681.999806,721.625086 L681.999806,724.614474 L679.603085,724.614474 L679.603085,716.716138 L681.999806,716.716138 L681.999806,719.649805 Z M694.657071,722.736147 L696.185821,722.736147 C697.034193,722.736147 697.596975,722.630278 697.874166,722.415755 C698.154156,722.201233 698.291352,721.802833 698.291352,721.223343 L698.291352,720.106154 C698.291352,719.526664 698.154156,719.13105 697.874166,718.913742 C697.596975,718.702005 697.034193,718.593351 696.185821,718.593351 L694.645872,718.593351 C693.7807,718.593351 693.212319,718.702005 692.946327,718.919314 C692.674736,719.133836 692.540341,719.54338 692.540341,720.147944 L692.540341,721.245632 C692.540341,721.813977 692.683136,722.206805 692.965927,722.418541 C693.248717,722.630278 693.811499,722.736147 694.657071,722.736147 Z M694.010292,724.708641 C693.089123,724.708641 692.417145,724.666851 691.991559,724.586057 C691.565973,724.49969 691.215984,724.357604 690.949993,724.157011 C690.647603,723.931345 690.42921,723.633242 690.294814,723.27106 C690.160419,722.903307 690.093221,722.418541 690.093221,721.813977 L690.093221,719.660392 C690.093221,719.000108 690.160419,718.476338 690.294814,718.091869 C690.42921,717.704614 690.647603,717.398153 690.949993,717.172486 C691.213184,716.974679 691.565973,716.832593 692.005558,716.746226 C692.442344,716.662646 693.108722,716.620856 693.999093,716.620856 L696.8214,716.620856 C697.717371,716.620856 698.386549,716.662646 698.828934,716.746226 C699.26852,716.832593 699.621308,716.974679 699.8817,717.172486 C700.17569,717.395367 700.385683,717.699042 700.522879,718.083511 C700.657274,718.46798 700.727272,718.96389 700.727272,719.565668 L700.727272,721.763829 C700.727272,722.371179 700.657274,722.867089 700.522879,723.248772 C700.385683,723.62767 700.17569,723.931345 699.8817,724.157011 C699.618508,724.357604 699.26852,724.49969 698.837334,724.586057 C698.403348,724.666851 697.73137,724.708641 696.8214,724.708641 L694.010292,724.708641 Z M702.209543,722.788802 L702.209543,720.766159 L705.768227,720.766159 L705.768227,722.788802 L702.209543,722.788802 Z M713.677127,718.663558 L709.908451,718.663558 L709.908451,722.694914 L713.976717,722.694914 C714.486301,722.694914 714.858689,722.586259 715.096681,722.380095 C715.331873,722.171144 715.452269,721.845181 715.452269,721.399419 L715.452269,720.009201 C715.452269,719.546723 715.306674,719.20683 715.018283,718.989521 C714.732693,718.772212 714.287507,718.663558 713.677127,718.663558 Z M714.410703,716.716138 C715.609064,716.716138 716.482635,716.927874 717.028617,717.351348 C717.574599,717.772035 717.84899,718.443463 717.84899,719.368418 L717.84899,722.081992 C717.84899,722.959585 717.630598,723.603153 717.193812,724.004338 C716.757026,724.411095 716.065449,724.614474 715.11348,724.614474 L707.51173,724.614474 L707.51173,716.716138 L714.410703,716.716138 Z M722.581395,721.399976 L725.602496,721.399976 L724.073746,718.602823 L722.581395,721.399976 Z M720.90425,724.612245 L718.286336,724.612245 L722.581395,716.716695 L725.644495,716.716695 L729.858356,724.612245 L727.220843,724.612245 L726.462068,723.297249 L721.674225,723.297249 L720.90425,724.612245 Z M733.221326,722.704386 L738.457154,722.704386 L738.457154,724.612802 L730.819005,724.612802 L730.819005,716.714466 L733.221326,716.714466 L733.221326,722.704386 Z M741.745647,724.61336 L739.410523,724.61336 L739.410523,716.715023 L742.958007,716.715023 L745.760715,721.64626 L748.611021,716.715023 L752.108107,716.715023 L752.108107,724.61336 L749.784183,724.61336 L749.784183,718.985621 L746.536289,724.61336 L744.968341,724.61336 L741.745647,718.985621 L741.745647,724.61336 Z M757.237258,721.399976 L760.258359,721.399976 L758.729609,718.602823 L757.237258,721.399976 Z M755.560113,724.612245 L752.942199,724.612245 L757.237258,716.716695 L760.300358,716.716695 L764.51422,724.612245 L761.876706,724.612245 L761.117931,723.297249 L756.330088,723.297249 L755.560113,724.612245 Z M769.271824,724.61336 L766.875102,724.61336 L766.875102,718.654086 L763.58521,718.654086 L763.58521,716.715023 L772.564516,716.715023 L772.564516,718.654086 L769.271824,718.654086 L769.271824,724.61336 Z M773.719198,724.613638 L773.719198,716.715302 L776.124319,716.715302 L776.124319,724.613638 L773.719198,724.613638 Z M788.464074,724.61336 L784.947389,724.61336 L780.232344,718.868608 L780.232344,724.61336 L777.835623,724.61336 L777.835623,716.715023 L781.385906,716.715023 L786.072952,722.507137 L786.072952,716.715023 L788.464074,716.715023 L788.464074,724.61336 Z M789.921706,721.98671 L792.296028,721.983924 L792.296028,722.123224 C792.296028,722.421327 792.366026,722.62192 792.508821,722.727789 C792.654417,722.830871 792.956807,722.883805 793.418791,722.883805 L796.434293,722.883805 C796.731083,722.883805 796.943876,722.836443 797.069872,722.733361 C797.195868,722.633064 797.260265,722.463118 797.260265,722.231879 C797.260265,721.995068 797.184668,721.825121 797.041873,721.722039 C796.893477,721.618957 796.579888,721.552093 796.098304,721.515874 L792.326827,721.432294 C791.383258,721.404434 790.744879,721.223343 790.41169,720.891808 C790.081301,720.557487 789.910507,719.952923 789.910507,719.078116 C789.910507,718.623997 789.958105,718.250672 790.044902,717.955355 C790.134499,717.662824 790.274495,717.420441 790.467688,717.22542 C790.697281,717.005325 790.996871,716.849309 791.366459,716.757371 C791.736047,716.665432 792.338027,716.620856 793.1724,716.620856 L796.837479,716.620856 C797.74465,716.620856 798.397028,716.785231 798.797415,717.119552 C799.195002,717.451087 799.396595,717.991573 799.396595,718.738223 L799.396595,718.897026 C799.393795,718.952746 799.385396,719.044684 799.374196,719.172841 L797.061472,719.172841 L797.061472,719.142195 C797.061472,718.88031 796.999874,718.682503 796.865478,718.551561 C796.733883,718.420618 796.535089,718.35654 796.269098,718.35654 L793.502789,718.35654 C793.040804,718.35654 792.738414,718.401116 792.590019,718.493054 C792.441623,718.584993 792.368826,718.743795 792.368826,718.975034 C792.368826,719.200701 792.436024,719.367861 792.570419,719.465372 C792.702015,719.568454 792.948407,719.632532 793.309595,719.660392 L797.260265,719.72447 C798.161836,719.749545 798.794615,719.950137 799.164203,720.33182 C799.530991,720.713504 799.712985,721.368216 799.712985,722.290385 C799.712985,722.839229 799.645787,723.262702 799.511392,723.563591 C799.374196,723.86448 799.147404,724.118007 798.825414,724.329744 C798.615421,724.463472 798.32983,724.563769 797.965842,724.619489 C797.604654,724.680781 797.081071,724.708641 796.392294,724.708641 L793.191999,724.708641 C791.878842,724.708641 790.999671,724.560983 790.554485,724.265666 C790.1121,723.970349 789.890907,723.418719 789.890907,722.613562 C789.890907,722.5662 789.893707,722.490978 789.899307,722.382323 C789.904907,722.276455 789.910507,722.142727 789.921706,721.98671 Z M815.321073,721.399976 L818.342174,721.399976 L816.813424,718.602823 L815.321073,721.399976 Z M824.32,559.93 L0.03,559.93 L0.03,-5.68434189e-14 L824.32,-5.68434189e-14 L824.32,559.93 Z M29.21,530.68 L795.11,530.68 L795.11,29.21 L29.21,29.21 L29.21,530.68 Z M85.03,208.78 L110.65,185.34 C119.55,197.16 131.73,203.34 145.72,203.34 C157.17,203.34 164.25,199.34 164.25,192.62 C164.25,186.08 160.62,183.35 148.62,180.81 L132.27,177.17 C107.37,171.72 94.84,158.09 94.84,136.65 C94.84,112.12 115.19,97.22 148.08,97.22 C169.7,97.22 188.6,103.94 201.5,116.66 L179.88,140.83 C170.97,131.02 157.53,125.02 145.17,125.02 C135.17,125.02 129,128.47 129,134.11 C129,140.11 133.18,143.01 146.44,145.92 L164.97,150.09 C189.5,155.54 200.23,167.54 200.23,189.16 C200.23,216.05 178.97,232.41 144.23,232.41 C119.15,232.4 97.35,223.86 85.03,208.78 Z M214.17,97.57 L250.88,97.57 L250.88,154.08 C256.69,141.93 266.14,135.93 279.22,135.93 C298.85,135.93 308.84,148.46 308.84,172.82 L308.84,229.33 L272.14,229.33 L272.14,176.63 C272.14,167.55 268.87,163 262.14,163 C254.87,163 250.87,168.81 250.87,179.54 L250.87,229.33 L214.17,229.33 L214.17,97.57 Z M327.54,97.02 L364.97,97.02 L364.97,127.55 L327.54,127.55 L327.54,97.02 Z M327.9,138.45 L364.61,138.45 L364.61,229.31 L327.9,229.31 L327.9,138.45 Z M447.47,161.71 L427.47,161.71 L427.47,229.31 L390.77,229.31 L390.77,161.71 L377.32,161.71 L377.32,138.45 L390.77,138.45 L390.77,133 C390.77,108.65 404.4,96.48 431.47,96.48 C436.851608,96.5367987 442.213122,97.146671 447.47,98.3 L447.47,123.56 C444.715665,123.011839 441.917895,122.710644 439.11,122.66 C431.66,122.66 427.48,126.47 427.48,133.02 L427.48,138.47 L447.48,138.47 L447.48,161.73 L447.47,161.71 Z M457.44,138.45 L472.52,138.45 L472.52,117.74 L509.23,103.93 L509.23,138.45 L530.13,138.45 L530.13,161.71 L509.23,161.71 L509.23,188.79 C509.23,197.15 513.96,201.87 522.5,201.87 C525.05411,201.89613 527.606043,201.712176 530.13,201.32 L530.13,229.32 C521.96,230.59 517.05,231.14 511.96,231.14 C485.24,231.14 472.53,220.78 472.53,199.14 L472.53,161.71 L457.44,161.71 L457.44,138.45 Z M177.85,449.24 L177.85,468.32 L88.44,468.32 L88.44,449.24 L177.85,449.24 Z" id="Combined-Shape"></path>
        </g>
    </g>
</svg>