<?xml version="1.0" encoding="UTF-8"?>
<svg width="478px" height="561px" viewBox="0 0 478 561" version="1.1" xmlns="http://www.w3.org/2000/svg" xmlns:xlink="http://www.w3.org/1999/xlink">
    <!-- Generator: Sketch 53.2 (72643) - https://sketchapp.com -->
    <title>Clip 2</title>
    <desc>Created with Sketch.</desc>
    <defs>
        <path d="M477.89,560.9 L0,560.9 L0,0.98 L477.89,0.98 L477.89,560.88 L477.89,560.9 Z M29.22,531.69 L448.68,531.69 L448.68,30.21 L29.22,30.21 L29.22,531.69 Z M85,209.78 L110.62,186.34 C119.52,198.15 131.7,204.34 145.69,204.34 C157.14,204.34 164.22,200.34 164.22,193.62 C164.22,187.08 160.59,184.35 148.59,181.8 L132.24,178.17 C107.34,172.72 94.81,159.09 94.81,137.65 C94.81,113.12 115.16,98.22 148.05,98.22 C169.67,98.22 188.57,104.94 201.47,117.67 L179.85,141.83 C170.95,131.98 157.5,125.98 145.14,125.98 C135.14,125.98 128.97,129.43 128.97,135.06 C128.97,141.06 133.15,143.97 146.41,146.87 L164.94,151.05 C189.47,156.5 200.2,168.49 200.2,190.11 C200.2,217.01 178.94,233.36 144.2,233.36 C119.16,233.4 97.37,224.86 85,209.78 Z M177.85,450.25 L177.85,469.33 L88.45,469.33 L88.45,450.25 L177.86,450.25 L177.85,450.25 Z" id="path-1"></path>
    </defs>
    <g id="Page-1" stroke="none" stroke-width="1" fill="none" fill-rule="evenodd">
        <g id="shift_small_logo-white">
            <mask id="mask-2" fill="white">
                <use xlink:href="#path-1"></use>
            </mask>
            <use id="Clip-2" fill="#FFFFFF" xlink:href="#path-1"></use>
        </g>
    </g>
</svg>